<?xml version="1.0" encoding="UTF-8" standalone="no"?>
<!DOCTYPE svg PUBLIC "-//W3C//DTD SVG 1.1//EN"
 "http://www.w3.org/Graphics/SVG/1.1/DTD/svg11.dtd">
<!-- Generated by graphviz version 2.43.0 (0)
 -->
<!-- Title: q2x Pages: 1 -->
<svg width="783pt" height="248pt"
 viewBox="0.00 0.00 783.00 248.00" xmlns="http://www.w3.org/2000/svg" xmlns:xlink="http://www.w3.org/1999/xlink">
<g id="graph0" class="graph" transform="scale(1 1) rotate(0) translate(4 244)">
<title>q2x</title>
<!-- Node1 -->
<g id="Node000001" class="node">
<title>Node1</title>
<g id="a_Node000001"><a xlink:title=" ">
<polygon fill="#999999" stroke="#666666" points="775,-155 740,-155 740,-136 775,-136 775,-155"/>
<text text-anchor="middle" x="757.5" y="-143" font-family="Helvetica,sans-Serif" font-size="10.00">q2x</text>
</a>
</g>
</g>
<!-- Node2 -->
<g id="Node000002" class="node">
<title>Node2</title>
<g id="a_Node000002"><a xlink:href="build__groups_8c.html#a69a7cc51af8af468a60cbbd2894fdb46" target="_top" xlink:title=" ">
<polygon fill="white" stroke="#666666" points="704,-137 619,-137 619,-118 704,-118 704,-137"/>
<text text-anchor="middle" x="661.5" y="-125" font-family="Helvetica,sans-Serif" font-size="10.00">condition_PLC</text>
</a>
</g>
</g>
<!-- Node1&#45;&gt;Node2 -->
<g id="edge1_Node000001_Node000002" class="edge">
<title>Node1&#45;&gt;Node2</title>
<g id="a_edge1_Node000001_Node000002"><a xlink:title=" ">
<path fill="none" stroke="#63b8ff" d="M729.85,-140.4C721.86,-138.87 712.9,-137.15 704.19,-135.48"/>
<polygon fill="#63b8ff" stroke="#63b8ff" points="729.21,-143.84 739.69,-142.28 730.53,-136.96 729.21,-143.84"/>
</a>
</g>
</g>
<!-- Node9 -->
<g id="Node000009" class="node">
<title>Node9</title>
<g id="a_Node000009"><a xlink:href="build__groups_8c.html#abb3276e8d440d7dc4a1d969bbae7d5a7" target="_top" xlink:title=" ">
<polygon fill="white" stroke="#666666" points="690.5,-56 632.5,-56 632.5,-37 690.5,-37 690.5,-56"/>
<text text-anchor="middle" x="661.5" y="-44" font-family="Helvetica,sans-Serif" font-size="10.00">distance</text>
</a>
</g>
</g>
<!-- Node1&#45;&gt;Node9 -->
<g id="edge10_Node000001_Node000009" class="edge">
<title>Node1&#45;&gt;Node9</title>
<g id="a_edge10_Node000001_Node000009"><a xlink:title=" ">
<path fill="none" stroke="#63b8ff" d="M740.22,-128.36C720.33,-107.41 687.38,-72.7 671.54,-56.02"/>
<polygon fill="#63b8ff" stroke="#63b8ff" points="737.72,-130.8 747.14,-135.65 742.8,-125.98 737.72,-130.8"/>
</a>
</g>
</g>
<!-- Node13 -->
<g id="Node000013" class="node">
<title>Node13</title>
<g id="a_Node000013"><a xlink:href="build__groups_8c.html#adaafe9165f4f93104de87c14939d2c60" target="_top" xlink:title=" ">
<polygon fill="white" stroke="#666666" points="694,-240 629,-240 629,-221 694,-221 694,-240"/>
<text text-anchor="middle" x="661.5" y="-228" font-family="Helvetica,sans-Serif" font-size="10.00">store_PLC</text>
</a>
</g>
</g>
<!-- Node1&#45;&gt;Node13 -->
<g id="edge18_Node000001_Node000013" class="edge">
<title>Node1&#45;&gt;Node13</title>
<g id="a_edge18_Node000001_Node000013"><a xlink:title=" ">
<path fill="none" stroke="#63b8ff" d="M742.38,-162.85C732.32,-174.69 718.12,-190.36 704,-202.5 696.09,-209.3 686.48,-215.88 678.5,-220.95"/>
<polygon fill="#63b8ff" stroke="#63b8ff" points="745.2,-164.93 748.92,-155.01 739.83,-160.45 745.2,-164.93"/>
</a>
</g>
</g>
<!-- Node14 -->
<g id="Node000014" class="node">
<title>Node14</title>
<g id="a_Node000014"><a xlink:href="write__halos_8c.html#a4ae40bdaead20fb1a2a22663d299b9e7" target="_top" xlink:title=" ">
<polygon fill="white" stroke="#666666" points="703,-193 620,-193 620,-174 703,-174 703,-193"/>
<text text-anchor="middle" x="661.5" y="-181" font-family="Helvetica,sans-Serif" font-size="10.00">write_catalog</text>
</a>
</g>
</g>
<!-- Node1&#45;&gt;Node14 -->
<g id="edge20_Node000001_Node000014" class="edge">
<title>Node1&#45;&gt;Node14</title>
<g id="a_edge20_Node000001_Node000014"><a xlink:title=" ">
<path fill="none" stroke="#63b8ff" d="M730.26,-156.11C716.45,-161.69 699.64,-168.49 686.22,-173.91"/>
<polygon fill="#63b8ff" stroke="#63b8ff" points="731.74,-159.29 739.69,-152.29 729.11,-152.8 731.74,-159.29"/>
</a>
</g>
</g>
<!-- Node3 -->
<g id="Node000003" class="node">
<title>Node3</title>
<g id="a_Node000003"><a xlink:href="build__groups_8c.html#a4df1001cc86732388d8ecf04e3372827" target="_top" xlink:title=" ">
<polygon fill="white" stroke="#666666" points="400.5,-113 321.5,-113 321.5,-94 400.5,-94 400.5,-113"/>
<text text-anchor="middle" x="361" y="-101" font-family="Helvetica,sans-Serif" font-size="10.00">build_groups</text>
</a>
</g>
</g>
<!-- Node2&#45;&gt;Node3 -->
<g id="edge2_Node000002_Node000003" class="edge">
<title>Node2&#45;&gt;Node3</title>
<g id="a_edge2_Node000002_Node000003"><a xlink:title=" ">
<path fill="none" stroke="#63b8ff" d="M626.45,-114.53C613.11,-110.1 597.54,-105.7 583,-103.5 519.65,-93.91 444.9,-96.84 400.59,-100.02"/>
<polygon fill="#63b8ff" stroke="#63b8ff" points="625.57,-117.93 636.16,-117.9 627.86,-111.32 625.57,-117.93"/>
</a>
</g>
</g>
<!-- Node7 -->
<g id="Node000007" class="node">
<title>Node7</title>
<g id="a_Node000007"><a xlink:href="build__groups_8c.html#a2df593120b6334c80adfd6ac44b0762b" target="_top" xlink:title=" ">
<polygon fill="white" stroke="#666666" points="554,-169 481,-169 481,-150 554,-150 554,-169"/>
<text text-anchor="middle" x="517.5" y="-157" font-family="Helvetica,sans-Serif" font-size="10.00">condition_F</text>
</a>
</g>
</g>
<!-- Node2&#45;&gt;Node7 -->
<g id="edge6_Node000002_Node000007" class="edge">
<title>Node2&#45;&gt;Node7</title>
<g id="a_edge6_Node000002_Node000007"><a xlink:title=" ">
<path fill="none" stroke="#63b8ff" d="M608.82,-139.15C590.72,-143.23 570.79,-147.72 554.28,-151.44"/>
<polygon fill="#63b8ff" stroke="#63b8ff" points="609.68,-142.54 618.66,-136.93 608.14,-135.71 609.68,-142.54"/>
</a>
</g>
</g>
<!-- Node8 -->
<g id="Node000008" class="node">
<title>Node8</title>
<g id="a_Node000008"><a xlink:href="build__groups_8c.html#a86827bbf037c84cece9492cbbb3cbaef" target="_top" xlink:title=" ">
<polygon fill="white" stroke="#666666" points="550,-132 485,-132 485,-113 550,-113 550,-132"/>
<text text-anchor="middle" x="517.5" y="-120" font-family="Helvetica,sans-Serif" font-size="10.00">find_brent</text>
</a>
</g>
</g>
<!-- Node2&#45;&gt;Node8 -->
<g id="edge8_Node000002_Node000008" class="edge">
<title>Node2&#45;&gt;Node8</title>
<g id="a_edge8_Node000002_Node000008"><a xlink:title=" ">
<path fill="none" stroke="#63b8ff" d="M608.64,-125.67C589.03,-124.98 567.32,-124.22 550.12,-123.61"/>
<polygon fill="#63b8ff" stroke="#63b8ff" points="608.55,-129.17 618.66,-126.03 608.79,-122.18 608.55,-129.17"/>
</a>
</g>
</g>
<!-- Node4 -->
<g id="Node000004" class="node">
<title>Node4</title>
<g id="a_Node000004"><a xlink:href="fragment_8c.html#ac2bb250921932f90f7b0939d1181b66d" target="_top" xlink:title=" ">
<polygon fill="white" stroke="#666666" points="270,-75 208,-75 208,-56 270,-56 270,-75"/>
<text text-anchor="middle" x="239" y="-63" font-family="Helvetica,sans-Serif" font-size="10.00">fragment</text>
</a>
</g>
</g>
<!-- Node3&#45;&gt;Node4 -->
<g id="edge3_Node000003_Node000004" class="edge">
<title>Node3&#45;&gt;Node4</title>
<g id="a_edge3_Node000003_Node000004"><a xlink:title=" ">
<path fill="none" stroke="#63b8ff" d="M319.96,-90.82C303.74,-85.69 285.33,-79.86 270.27,-75.09"/>
<polygon fill="#63b8ff" stroke="#63b8ff" points="319.13,-94.23 329.72,-93.91 321.24,-87.56 319.13,-94.23"/>
</a>
</g>
</g>
<!-- Node5 -->
<g id="Node000005" class="node">
<title>Node5</title>
<g id="a_Node000005"><a xlink:href="fragment_8c.html#ae3aa75d17cbc170e60f4f48c4a2ffdf5" target="_top" xlink:title=" ">
<polygon fill="white" stroke="#666666" points="172,-75 77,-75 77,-56 172,-56 172,-75"/>
<text text-anchor="middle" x="124.5" y="-63" font-family="Helvetica,sans-Serif" font-size="10.00">fragment_driver</text>
</a>
</g>
</g>
<!-- Node4&#45;&gt;Node5 -->
<g id="edge4_Node000004_Node000005" class="edge">
<title>Node4&#45;&gt;Node5</title>
<g id="a_edge4_Node000004_Node000005"><a xlink:title=" ">
<path fill="none" stroke="#63b8ff" d="M197.73,-65.5C189.47,-65.5 180.72,-65.5 172.26,-65.5"/>
<polygon fill="#63b8ff" stroke="#63b8ff" points="197.85,-69 207.85,-65.5 197.85,-62 197.85,-69"/>
</a>
</g>
</g>
<!-- Node6 -->
<g id="Node000006" class="node">
<title>Node6</title>
<g id="a_Node000006"><a xlink:href="pinocchio_8c.html#a647f21a28344e1d9c643f4115516d7c9" target="_top" xlink:title=" ">
<polygon fill="white" stroke="#666666" points="41,-75 0,-75 0,-56 41,-56 41,-75"/>
<text text-anchor="middle" x="20.5" y="-63" font-family="Helvetica,sans-Serif" font-size="10.00">main</text>
</a>
</g>
</g>
<!-- Node5&#45;&gt;Node6 -->
<g id="edge5_Node000005_Node000006" class="edge">
<title>Node5&#45;&gt;Node6</title>
<g id="a_edge5_Node000005_Node000006"><a xlink:title=" ">
<path fill="none" stroke="#63b8ff" d="M66.91,-65.5C57.67,-65.5 48.67,-65.5 41.16,-65.5"/>
<polygon fill="#63b8ff" stroke="#63b8ff" points="66.98,-69 76.98,-65.5 66.98,-62 66.98,-69"/>
</a>
</g>
</g>
<!-- Node7&#45;&gt;Node3 -->
<g id="edge7_Node000007_Node000003" class="edge">
<title>Node7&#45;&gt;Node3</title>
<g id="a_edge7_Node000007_Node000003"><a xlink:title=" ">
<path fill="none" stroke="#63b8ff" d="M472.05,-147.06C465.3,-144.99 458.44,-142.76 452,-140.5 428.25,-132.15 401.66,-120.98 383.58,-113.11"/>
<polygon fill="#63b8ff" stroke="#63b8ff" points="471.23,-150.47 481.81,-150 473.24,-143.77 471.23,-150.47"/>
</a>
</g>
</g>
<!-- Node8&#45;&gt;Node3 -->
<g id="edge9_Node000008_Node000003" class="edge">
<title>Node8&#45;&gt;Node3</title>
<g id="a_edge9_Node000008_Node000003"><a xlink:title=" ">
<path fill="none" stroke="#63b8ff" d="M474.69,-117.36C451.66,-114.53 423.25,-111.03 400.72,-108.26"/>
<polygon fill="#63b8ff" stroke="#63b8ff" points="474.51,-120.86 484.86,-118.61 475.36,-113.91 474.51,-120.86"/>
</a>
</g>
</g>
<!-- Node10 -->
<g id="Node000010" class="node">
<title>Node10</title>
<g id="a_Node000010"><a xlink:href="build__groups_8c.html#af69f24bb7de71a95c009a1ec9b9d9081" target="_top" xlink:title=" ">
<polygon fill="white" stroke="#666666" points="583,-56 452,-56 452,-37 583,-37 583,-56"/>
<text text-anchor="middle" x="517.5" y="-44" font-family="Helvetica,sans-Serif" font-size="10.00">condition_for_accretion</text>
</a>
</g>
</g>
<!-- Node9&#45;&gt;Node10 -->
<g id="edge11_Node000009_Node000010" class="edge">
<title>Node9&#45;&gt;Node10</title>
<g id="a_edge11_Node000009_Node000010"><a xlink:title=" ">
<path fill="none" stroke="#63b8ff" d="M622.32,-46.5C610.27,-46.5 596.6,-46.5 583.23,-46.5"/>
<polygon fill="#63b8ff" stroke="#63b8ff" points="622.45,-50 632.45,-46.5 622.45,-43 622.45,-50"/>
</a>
</g>
</g>
<!-- Node12 -->
<g id="Node000012" class="node">
<title>Node12</title>
<g id="a_Node000012"><a xlink:href="build__groups_8c.html#ac7da2c9afeba949ceefcfd46146d5067" target="_top" xlink:title=" ">
<polygon fill="white" stroke="#666666" points="580.5,-19 454.5,-19 454.5,0 580.5,0 580.5,-19"/>
<text text-anchor="middle" x="517.5" y="-7" font-family="Helvetica,sans-Serif" font-size="10.00">condition_for_merging</text>
</a>
</g>
</g>
<!-- Node9&#45;&gt;Node12 -->
<g id="edge15_Node000009_Node000012" class="edge">
<title>Node9&#45;&gt;Node12</title>
<g id="a_edge15_Node000009_Node000012"><a xlink:title=" ">
<path fill="none" stroke="#63b8ff" d="M622.62,-36.63C601.7,-31.18 575.83,-24.44 555.12,-19.04"/>
<polygon fill="#63b8ff" stroke="#63b8ff" points="621.89,-40.06 632.45,-39.19 623.65,-33.28 621.89,-40.06"/>
</a>
</g>
</g>
<!-- Node10&#45;&gt;Node3 -->
<g id="edge12_Node000010_Node000003" class="edge">
<title>Node10&#45;&gt;Node3</title>
<g id="a_edge12_Node000010_Node000003"><a xlink:title=" ">
<path fill="none" stroke="#63b8ff" d="M481.09,-59.57C452.69,-70.04 413.49,-84.51 387.94,-93.93"/>
<polygon fill="#63b8ff" stroke="#63b8ff" points="482.47,-62.79 490.64,-56.04 480.05,-56.22 482.47,-62.79"/>
</a>
</g>
</g>
<!-- Node11 -->
<g id="Node000011" class="node">
<title>Node11</title>
<g id="a_Node000011"><a xlink:href="build__groups_8c.html#a4c36038b339975ce63e8ac2c89f55208" target="_top" xlink:title=" ">
<polygon fill="white" stroke="#666666" points="416,-56 306,-56 306,-37 416,-37 416,-56"/>
<text text-anchor="middle" x="361" y="-44" font-family="Helvetica,sans-Serif" font-size="10.00">quick_build_groups</text>
</a>
</g>
</g>
<!-- Node10&#45;&gt;Node11 -->
<g id="edge13_Node000010_Node000011" class="edge">
<title>Node10&#45;&gt;Node11</title>
<g id="a_edge13_Node000010_Node000011"><a xlink:title=" ">
<path fill="none" stroke="#63b8ff" d="M441.76,-46.5C433.1,-46.5 424.4,-46.5 416.09,-46.5"/>
<polygon fill="#63b8ff" stroke="#63b8ff" points="441.87,-50 451.87,-46.5 441.87,-43 441.87,-50"/>
</a>
</g>
</g>
<!-- Node11&#45;&gt;Node4 -->
<g id="edge14_Node000011_Node000004" class="edge">
<title>Node11&#45;&gt;Node4</title>
<g id="a_edge14_Node000011_Node000004"><a xlink:title=" ">
<path fill="none" stroke="#63b8ff" d="M295.83,-56.66C286.86,-58.08 278.02,-59.48 270.1,-60.73"/>
<polygon fill="#63b8ff" stroke="#63b8ff" points="296.64,-60.08 305.97,-55.06 295.54,-53.16 296.64,-60.08"/>
</a>
</g>
</g>
<!-- Node12&#45;&gt;Node3 -->
<g id="edge16_Node000012_Node000003" class="edge">
<title>Node12&#45;&gt;Node3</title>
<g id="a_edge16_Node000012_Node000003"><a xlink:title=" ">
<path fill="none" stroke="#63b8ff" d="M460.97,-22.87C457.86,-24.27 454.85,-25.81 452,-27.5 432.27,-39.21 433.37,-49.5 416,-64.5 403.4,-75.38 387.89,-86.36 376.73,-93.89"/>
<polygon fill="#63b8ff" stroke="#63b8ff" points="462.5,-26.03 470.5,-19.09 459.91,-19.53 462.5,-26.03"/>
</a>
</g>
</g>
<!-- Node12&#45;&gt;Node11 -->
<g id="edge17_Node000012_Node000011" class="edge">
<title>Node12&#45;&gt;Node11</title>
<g id="a_edge17_Node000012_Node000011"><a xlink:title=" ">
<path fill="none" stroke="#63b8ff" d="M466.7,-21.43C445.75,-26.44 421.69,-32.21 401.92,-36.94"/>
<polygon fill="#63b8ff" stroke="#63b8ff" points="467.8,-24.76 476.71,-19.03 466.17,-17.95 467.8,-24.76"/>
</a>
</g>
</g>
<!-- Node13&#45;&gt;Node3 -->
<g id="edge19_Node000013_Node000003" class="edge">
<title>Node13&#45;&gt;Node3</title>
<g id="a_edge19_Node000013_Node000003"><a xlink:title=" ">
<path fill="none" stroke="#63b8ff" d="M618.81,-232.16C574.86,-232.18 504.82,-227.17 452,-199.5 412.13,-178.61 380.33,-133.02 367.79,-113.12"/>
<polygon fill="#63b8ff" stroke="#63b8ff" points="618.89,-235.66 628.86,-232.07 618.82,-228.66 618.89,-235.66"/>
</a>
</g>
</g>
<!-- Node14&#45;&gt;Node3 -->
<g id="edge21_Node000014_Node000003" class="edge">
<title>Node14&#45;&gt;Node3</title>
<g id="a_edge21_Node000014_Node000003"><a xlink:title=" ">
<path fill="none" stroke="#63b8ff" d="M609.79,-191.38C566.44,-196.01 503.15,-197.72 452,-178.5 415.82,-164.91 383.77,-130.18 369.65,-113.17"/>
<polygon fill="#63b8ff" stroke="#63b8ff" points="610.29,-194.85 619.82,-190.22 609.48,-187.89 610.29,-194.85"/>
</a>
</g>
</g>
</g>
</svg>
