<?xml version="1.0" encoding="UTF-8" standalone="no"?>
<!DOCTYPE svg PUBLIC "-//W3C//DTD SVG 1.1//EN"
 "http://www.w3.org/Graphics/SVG/1.1/DTD/svg11.dtd">
<!-- Generated by graphviz version 2.43.0 (0)
 -->
<!-- Title: quick_build_groups Pages: 1 -->
<svg width="954pt" height="323pt"
 viewBox="0.00 0.00 954.00 323.00" xmlns="http://www.w3.org/2000/svg" xmlns:xlink="http://www.w3.org/1999/xlink">
<g id="graph0" class="graph" transform="scale(1 1) rotate(0) translate(4 319)">
<title>quick_build_groups</title>
<!-- Node1 -->
<g id="Node000001" class="node">
<title>Node1</title>
<g id="a_Node000001"><a xlink:title=" ">
<polygon fill="#999999" stroke="#666666" points="110,-130 0,-130 0,-111 110,-111 110,-130"/>
<text text-anchor="middle" x="55" y="-118" font-family="Helvetica,sans-Serif" font-size="10.00">quick_build_groups</text>
</a>
</g>
</g>
<!-- Node2 -->
<g id="Node000002" class="node">
<title>Node2</title>
<g id="a_Node000002"><a xlink:href="build__groups_8c.html#a530b060f5cb84e65a11f345fffd25bd0" target="_top" xlink:title=" ">
<polygon fill="white" stroke="#666666" points="242.5,-204 180.5,-204 180.5,-185 242.5,-185 242.5,-204"/>
<text text-anchor="middle" x="211.5" y="-192" font-family="Helvetica,sans-Serif" font-size="10.00">accretion</text>
</a>
</g>
</g>
<!-- Node1&#45;&gt;Node2 -->
<g id="edge1_Node000001_Node000002" class="edge">
<title>Node1&#45;&gt;Node2</title>
<g id="a_edge1_Node000001_Node000002"><a xlink:title=" ">
<path fill="none" stroke="#63b8ff" d="M68.76,-130.09C85.64,-142.37 116.69,-163.61 146,-176.5 153.72,-179.89 162.24,-182.81 170.49,-185.25"/>
<polygon fill="#63b8ff" stroke="#63b8ff" points="169.77,-188.68 180.34,-187.98 171.64,-181.93 169.77,-188.68"/>
</a>
</g>
</g>
<!-- Node14 -->
<g id="Node000014" class="node">
<title>Node14</title>
<g id="a_Node000014"><a xlink:href="build__groups_8c.html#ad020d0a33871397b4a0a75a7c5107597" target="_top" xlink:title=" ">
<polygon fill="white" stroke="#666666" points="243,-93 180,-93 180,-74 243,-74 243,-93"/>
<text text-anchor="middle" x="211.5" y="-81" font-family="Helvetica,sans-Serif" font-size="10.00">clean_list</text>
</a>
</g>
</g>
<!-- Node1&#45;&gt;Node14 -->
<g id="edge17_Node000001_Node000014" class="edge">
<title>Node1&#45;&gt;Node14</title>
<g id="a_edge17_Node000001_Node000014"><a xlink:title=" ">
<path fill="none" stroke="#63b8ff" d="M95.79,-110.97C118.53,-105.53 146.99,-98.71 169.87,-93.23"/>
<polygon fill="#63b8ff" stroke="#63b8ff" points="170.71,-96.63 179.62,-90.89 169.08,-89.82 170.71,-96.63"/>
</a>
</g>
</g>
<!-- Node15 -->
<g id="Node000015" class="node">
<title>Node15</title>
<g id="a_Node000015"><a xlink:href="build__groups_8c.html#af69f24bb7de71a95c009a1ec9b9d9081" target="_top" xlink:title=" ">
<polygon fill="white" stroke="#666666" points="277,-167 146,-167 146,-148 277,-148 277,-167"/>
<text text-anchor="middle" x="211.5" y="-155" font-family="Helvetica,sans-Serif" font-size="10.00">condition_for_accretion</text>
</a>
</g>
</g>
<!-- Node1&#45;&gt;Node15 -->
<g id="edge18_Node000001_Node000015" class="edge">
<title>Node1&#45;&gt;Node15</title>
<g id="a_edge18_Node000001_Node000015"><a xlink:title=" ">
<path fill="none" stroke="#63b8ff" d="M95.79,-130.03C115.62,-134.78 139.81,-140.57 160.85,-145.61"/>
<polygon fill="#63b8ff" stroke="#63b8ff" points="160.04,-149.01 170.58,-147.94 161.67,-142.21 160.04,-149.01"/>
</a>
</g>
</g>
<!-- Node19 -->
<g id="Node000019" class="node">
<title>Node19</title>
<g id="a_Node000019"><a xlink:href="build__groups_8c.html#ac7da2c9afeba949ceefcfd46146d5067" target="_top" xlink:title=" ">
<polygon fill="white" stroke="#666666" points="274.5,-130 148.5,-130 148.5,-111 274.5,-111 274.5,-130"/>
<text text-anchor="middle" x="211.5" y="-118" font-family="Helvetica,sans-Serif" font-size="10.00">condition_for_merging</text>
</a>
</g>
</g>
<!-- Node1&#45;&gt;Node19 -->
<g id="edge25_Node000001_Node000019" class="edge">
<title>Node1&#45;&gt;Node19</title>
<g id="a_edge25_Node000001_Node000019"><a xlink:title=" ">
<path fill="none" stroke="#63b8ff" d="M110.04,-120.5C119.11,-120.5 128.66,-120.5 138.1,-120.5"/>
<polygon fill="#63b8ff" stroke="#63b8ff" points="138.29,-124 148.29,-120.5 138.29,-117 138.29,-124"/>
</a>
</g>
</g>
<!-- Node20 -->
<g id="Node000020" class="node">
<title>Node20</title>
<g id="a_Node000020"><a xlink:href="fmax_8c.html#a76000ea6ddfd81a9d6cf317d53f54378" target="_top" xlink:title=" ">
<polygon fill="white" stroke="#666666" points="232.5,-56 190.5,-56 190.5,-37 232.5,-37 232.5,-56"/>
<text text-anchor="middle" x="211.5" y="-44" font-family="Helvetica,sans-Serif" font-size="10.00">fdate</text>
</a>
</g>
</g>
<!-- Node1&#45;&gt;Node20 -->
<g id="edge29_Node000001_Node000020" class="edge">
<title>Node1&#45;&gt;Node20</title>
<g id="a_edge29_Node000001_Node000020"><a xlink:title=" ">
<path fill="none" stroke="#63b8ff" d="M68.76,-110.91C85.64,-98.63 116.69,-77.39 146,-64.5 156.81,-59.75 169.19,-55.93 180.2,-53.06"/>
<polygon fill="#63b8ff" stroke="#63b8ff" points="181.36,-56.38 190.23,-50.59 179.69,-49.58 181.36,-56.38"/>
</a>
</g>
</g>
<!-- Node21 -->
<g id="Node000021" class="node">
<title>Node21</title>
<g id="a_Node000021"><a xlink:href="fragment_8c.html#af8ce3c7516f316b4e0420bae9e26fe49" target="_top" xlink:title=" ">
<polygon fill="white" stroke="#666666" points="251,-19 172,-19 172,0 251,0 251,-19"/>
<text text-anchor="middle" x="211.5" y="-7" font-family="Helvetica,sans-Serif" font-size="10.00">find_location</text>
</a>
</g>
</g>
<!-- Node1&#45;&gt;Node21 -->
<g id="edge30_Node000001_Node000021" class="edge">
<title>Node1&#45;&gt;Node21</title>
<g id="a_edge30_Node000001_Node000021"><a xlink:title=" ">
<path fill="none" stroke="#63b8ff" d="M62.48,-110.99C75.84,-92.14 108.35,-49.91 146,-27.5 151.06,-24.49 156.63,-21.97 162.33,-19.86"/>
<polygon fill="#63b8ff" stroke="#63b8ff" points="163.56,-23.14 171.95,-16.68 161.36,-16.49 163.56,-23.14"/>
</a>
</g>
</g>
<!-- Node23 -->
<g id="Node000023" class="node">
<title>Node23</title>
<g id="a_Node000023"><a xlink:href="build__groups_8c.html#ac1deaf6b88e43b32cf38f79488b5d54f" target="_top" xlink:title=" ">
<polygon fill="white" stroke="#666666" points="254.5,-241 168.5,-241 168.5,-222 254.5,-222 254.5,-241"/>
<text text-anchor="middle" x="211.5" y="-229" font-family="Helvetica,sans-Serif" font-size="10.00">merge_groups</text>
</a>
</g>
</g>
<!-- Node1&#45;&gt;Node23 -->
<g id="edge32_Node000001_Node000023" class="edge">
<title>Node1&#45;&gt;Node23</title>
<g id="a_edge32_Node000001_Node000023"><a xlink:title=" ">
<path fill="none" stroke="#63b8ff" d="M62.48,-130.01C75.84,-148.86 108.35,-191.09 146,-213.5 149.93,-215.84 154.17,-217.88 158.54,-219.67"/>
<polygon fill="#63b8ff" stroke="#63b8ff" points="157.63,-223.06 168.23,-223.18 160.02,-216.48 157.63,-223.06"/>
</a>
</g>
</g>
<!-- Node3 -->
<g id="Node000003" class="node">
<title>Node3</title>
<g id="a_Node000003"><a xlink:href="build__groups_8c.html#a373d03c1d37c23fc2beda89ed9dc5e5c" target="_top" xlink:title=" ">
<polygon fill="white" stroke="#666666" points="394,-278 329,-278 329,-259 394,-259 394,-278"/>
<text text-anchor="middle" x="361.5" y="-266" font-family="Helvetica,sans-Serif" font-size="10.00">set_group</text>
</a>
</g>
</g>
<!-- Node2&#45;&gt;Node3 -->
<g id="edge2_Node000002_Node000003" class="edge">
<title>Node2&#45;&gt;Node3</title>
<g id="a_edge2_Node000002_Node000003"><a xlink:title=" ">
<path fill="none" stroke="#63b8ff" d="M242.72,-200.01C254.01,-202.92 266.6,-207.23 277,-213.5 296.65,-225.35 293.82,-237.91 313,-250.5 315.27,-251.99 317.69,-253.38 320.17,-254.68"/>
<polygon fill="#63b8ff" stroke="#63b8ff" points="318.84,-257.92 329.39,-258.96 321.79,-251.57 318.84,-257.92"/>
</a>
</g>
</g>
<!-- Node4 -->
<g id="Node000004" class="node">
<title>Node4</title>
<g id="a_Node000004"><a xlink:href="build__groups_8c.html#a8ca8a2e49b8887203360635eb02ee79e" target="_top" xlink:title=" ">
<polygon fill="white" stroke="#666666" points="387.5,-167 335.5,-167 335.5,-148 387.5,-148 387.5,-167"/>
<text text-anchor="middle" x="361.5" y="-155" font-family="Helvetica,sans-Serif" font-size="10.00">set_obj</text>
</a>
</g>
</g>
<!-- Node2&#45;&gt;Node4 -->
<g id="edge3_Node000002_Node000004" class="edge">
<title>Node2&#45;&gt;Node4</title>
<g id="a_edge3_Node000002_Node000004"><a xlink:title=" ">
<path fill="none" stroke="#63b8ff" d="M242.81,-186.92C266.74,-180.94 300.17,-172.58 325.29,-166.3"/>
<polygon fill="#63b8ff" stroke="#63b8ff" points="326.3,-169.66 335.16,-163.84 324.61,-162.87 326.3,-169.66"/>
</a>
</g>
</g>
<!-- Node12 -->
<g id="Node000012" class="node">
<title>Node12</title>
<g id="a_Node000012"><a xlink:href="build__groups_8c.html#a731742e418b2f14b59093e9849636362" target="_top" xlink:title=" ">
<polygon fill="white" stroke="#666666" points="392.5,-204 330.5,-204 330.5,-185 392.5,-185 392.5,-204"/>
<text text-anchor="middle" x="361.5" y="-192" font-family="Helvetica,sans-Serif" font-size="10.00">set_point</text>
</a>
</g>
</g>
<!-- Node2&#45;&gt;Node12 -->
<g id="edge14_Node000002_Node000012" class="edge">
<title>Node2&#45;&gt;Node12</title>
<g id="a_edge14_Node000002_Node000012"><a xlink:title=" ">
<path fill="none" stroke="#63b8ff" d="M242.81,-194.5C265.23,-194.5 295.99,-194.5 320.44,-194.5"/>
<polygon fill="#63b8ff" stroke="#63b8ff" points="320.49,-198 330.49,-194.5 320.49,-191 320.49,-198"/>
</a>
</g>
</g>
<!-- Node13 -->
<g id="Node000013" class="node">
<title>Node13</title>
<g id="a_Node000013"><a xlink:href="build__groups_8c.html#a46fdcd7380b956c29fedb74f3967ccbb" target="_top" xlink:title=" ">
<polygon fill="white" stroke="#666666" points="386.5,-241 336.5,-241 336.5,-222 386.5,-222 386.5,-241"/>
<text text-anchor="middle" x="361.5" y="-229" font-family="Helvetica,sans-Serif" font-size="10.00">update</text>
</a>
</g>
</g>
<!-- Node2&#45;&gt;Node13 -->
<g id="edge16_Node000002_Node000013" class="edge">
<title>Node2&#45;&gt;Node13</title>
<g id="a_edge16_Node000002_Node000013"><a xlink:title=" ">
<path fill="none" stroke="#63b8ff" d="M242.81,-202.08C267.04,-208.13 301.01,-216.63 326.23,-222.93"/>
<polygon fill="#63b8ff" stroke="#63b8ff" points="325.55,-226.37 336.1,-225.4 327.25,-219.58 325.55,-226.37"/>
</a>
</g>
</g>
<!-- Node5 -->
<g id="Node000005" class="node">
<title>Node5</title>
<g id="a_Node000005"><a xlink:href="build__groups_8c.html#a7d0a825b630d787e82f2aad789794b1b" target="_top" xlink:title=" ">
<polygon fill="white" stroke="#666666" points="516,-187 446,-187 446,-168 516,-168 516,-187"/>
<text text-anchor="middle" x="481" y="-175" font-family="Helvetica,sans-Serif" font-size="10.00">set_weight</text>
</a>
</g>
</g>
<!-- Node4&#45;&gt;Node5 -->
<g id="edge4_Node000004_Node000005" class="edge">
<title>Node4&#45;&gt;Node5</title>
<g id="a_edge4_Node000004_Node000005"><a xlink:title=" ">
<path fill="none" stroke="#63b8ff" d="M387.71,-161.79C401.78,-164.19 419.71,-167.24 436.02,-170.01"/>
<polygon fill="#63b8ff" stroke="#63b8ff" points="435.47,-173.47 445.92,-171.7 436.65,-166.57 435.47,-173.47"/>
</a>
</g>
</g>
<!-- Node6 -->
<g id="Node000006" class="node">
<title>Node6</title>
<g id="a_Node000006"><a xlink:href="cosmo_8c.html#a9fbcf5b69c272e801cf320cf814b23c4" target="_top" xlink:title=" ">
<polygon fill="white" stroke="#666666" points="656,-131 572,-131 572,-112 656,-112 656,-131"/>
<text text-anchor="middle" x="614" y="-119" font-family="Helvetica,sans-Serif" font-size="10.00">GrowingMode</text>
</a>
</g>
</g>
<!-- Node5&#45;&gt;Node6 -->
<g id="edge5_Node000005_Node000006" class="edge">
<title>Node5&#45;&gt;Node6</title>
<g id="a_edge5_Node000005_Node000006"><a xlink:title=" ">
<path fill="none" stroke="#63b8ff" d="M498,-167.95C511.92,-159.91 532.83,-148.47 552,-140.5 557.38,-138.26 563.12,-136.14 568.85,-134.19"/>
<polygon fill="#63b8ff" stroke="#63b8ff" points="569.99,-137.5 578.41,-131.06 567.81,-130.84 569.99,-137.5"/>
</a>
</g>
</g>
<!-- Node9 -->
<g id="Node000009" class="node">
<title>Node9</title>
<g id="a_Node000009"><a xlink:href="cosmo_8c.html#a3d4dfa13b4af53acceb7a040e2517499" target="_top" xlink:title=" ">
<polygon fill="white" stroke="#666666" points="670.5,-242 557.5,-242 557.5,-223 670.5,-223 670.5,-242"/>
<text text-anchor="middle" x="614" y="-230" font-family="Helvetica,sans-Serif" font-size="10.00">GrowingMode_2LPT</text>
</a>
</g>
</g>
<!-- Node5&#45;&gt;Node9 -->
<g id="edge8_Node000005_Node000009" class="edge">
<title>Node5&#45;&gt;Node9</title>
<g id="a_edge8_Node000005_Node000009"><a xlink:title=" ">
<path fill="none" stroke="#63b8ff" d="M497.97,-187.12C511.88,-195.21 532.78,-206.67 552,-214.5 556.67,-216.4 561.62,-218.2 566.6,-219.87"/>
<polygon fill="#63b8ff" stroke="#63b8ff" points="565.55,-223.21 576.14,-222.91 567.68,-216.54 565.55,-223.21"/>
</a>
</g>
</g>
<!-- Node10 -->
<g id="Node000010" class="node">
<title>Node10</title>
<g id="a_Node000010"><a xlink:href="cosmo_8c.html#a04db96c36d31fd7c7befb810624260fc" target="_top" xlink:title=" ">
<polygon fill="white" stroke="#666666" points="676,-205 552,-205 552,-186 676,-186 676,-205"/>
<text text-anchor="middle" x="614" y="-193" font-family="Helvetica,sans-Serif" font-size="10.00">GrowingMode_3LPT_1</text>
</a>
</g>
</g>
<!-- Node5&#45;&gt;Node10 -->
<g id="edge10_Node000005_Node000010" class="edge">
<title>Node5&#45;&gt;Node10</title>
<g id="a_edge10_Node000005_Node000010"><a xlink:title=" ">
<path fill="none" stroke="#63b8ff" d="M516.08,-182.18C524.06,-183.28 532.87,-184.49 541.81,-185.72"/>
<polygon fill="#63b8ff" stroke="#63b8ff" points="541.55,-189.22 551.94,-187.11 542.51,-182.28 541.55,-189.22"/>
</a>
</g>
</g>
<!-- Node11 -->
<g id="Node000011" class="node">
<title>Node11</title>
<g id="a_Node000011"><a xlink:href="cosmo_8c.html#a9c8d61128a3d0ab4c73354d0ff8011a1" target="_top" xlink:title=" ">
<polygon fill="white" stroke="#666666" points="676,-168 552,-168 552,-149 676,-149 676,-168"/>
<text text-anchor="middle" x="614" y="-156" font-family="Helvetica,sans-Serif" font-size="10.00">GrowingMode_3LPT_2</text>
</a>
</g>
</g>
<!-- Node5&#45;&gt;Node11 -->
<g id="edge12_Node000005_Node000011" class="edge">
<title>Node5&#45;&gt;Node11</title>
<g id="a_edge12_Node000005_Node000011"><a xlink:title=" ">
<path fill="none" stroke="#63b8ff" d="M516.08,-172.56C524.06,-171.4 532.87,-170.12 541.81,-168.82"/>
<polygon fill="#63b8ff" stroke="#63b8ff" points="542.54,-172.26 551.94,-167.36 541.54,-165.33 542.54,-172.26"/>
</a>
</g>
</g>
<!-- Node7 -->
<g id="Node000007" class="node">
<title>Node7</title>
<g id="a_Node000007"><a xlink:href="cosmo_8c.html#a8847e5b8ea1f9c458c8bf9e5f36837a9" target="_top" xlink:title=" ">
<polygon fill="white" stroke="#666666" points="817,-186 712,-186 712,-167 817,-167 817,-186"/>
<text text-anchor="middle" x="764.5" y="-174" font-family="Helvetica,sans-Serif" font-size="10.00">InterpolateGrowth</text>
</a>
</g>
</g>
<!-- Node6&#45;&gt;Node7 -->
<g id="edge6_Node000006_Node000007" class="edge">
<title>Node6&#45;&gt;Node7</title>
<g id="a_edge6_Node000006_Node000007"><a xlink:title=" ">
<path fill="none" stroke="#63b8ff" d="M647.47,-131.03C656.74,-133.91 666.82,-137.19 676,-140.5 694.99,-147.35 715.91,-155.92 732.53,-162.98"/>
<polygon fill="#63b8ff" stroke="#63b8ff" points="731.2,-166.22 741.77,-166.93 733.96,-159.78 731.2,-166.22"/>
</a>
</g>
</g>
<!-- Node8 -->
<g id="Node000008" class="node">
<title>Node8</title>
<g id="a_Node000008"><a xlink:href="cosmo_8c.html#a6341f5394ed17a00dc77c5519b292ae3" target="_top" xlink:title=" ">
<polygon fill="white" stroke="#666666" points="946,-186 853,-186 853,-167 946,-167 946,-186"/>
<text text-anchor="middle" x="899.5" y="-174" font-family="Helvetica,sans-Serif" font-size="10.00">my_spline_eval</text>
</a>
</g>
</g>
<!-- Node7&#45;&gt;Node8 -->
<g id="edge7_Node000007_Node000008" class="edge">
<title>Node7&#45;&gt;Node8</title>
<g id="a_edge7_Node000007_Node000008"><a xlink:title=" ">
<path fill="none" stroke="#63b8ff" d="M817.3,-176.5C825.6,-176.5 834.22,-176.5 842.6,-176.5"/>
<polygon fill="#63b8ff" stroke="#63b8ff" points="842.68,-180 852.68,-176.5 842.68,-173 842.68,-180"/>
</a>
</g>
</g>
<!-- Node9&#45;&gt;Node7 -->
<g id="edge9_Node000009_Node000007" class="edge">
<title>Node9&#45;&gt;Node7</title>
<g id="a_edge9_Node000009_Node000007"><a xlink:title=" ">
<path fill="none" stroke="#63b8ff" d="M650.08,-222.95C658.63,-220.4 667.7,-217.52 676,-214.5 695.65,-207.36 717.2,-198.03 733.99,-190.39"/>
<polygon fill="#63b8ff" stroke="#63b8ff" points="735.65,-193.48 743.28,-186.13 732.73,-187.12 735.65,-193.48"/>
</a>
</g>
</g>
<!-- Node10&#45;&gt;Node7 -->
<g id="edge11_Node000010_Node000007" class="edge">
<title>Node10&#45;&gt;Node7</title>
<g id="a_edge11_Node000010_Node000007"><a xlink:title=" ">
<path fill="none" stroke="#63b8ff" d="M676.26,-187.66C684.66,-186.59 693.3,-185.48 701.72,-184.41"/>
<polygon fill="#63b8ff" stroke="#63b8ff" points="702.37,-187.85 711.84,-183.11 701.48,-180.91 702.37,-187.85"/>
</a>
</g>
</g>
<!-- Node11&#45;&gt;Node7 -->
<g id="edge13_Node000011_Node000007" class="edge">
<title>Node11&#45;&gt;Node7</title>
<g id="a_edge13_Node000011_Node000007"><a xlink:title=" ">
<path fill="none" stroke="#63b8ff" d="M676.26,-165.93C684.66,-166.94 693.3,-167.99 701.72,-169.01"/>
<polygon fill="#63b8ff" stroke="#63b8ff" points="701.49,-172.51 711.84,-170.24 702.34,-165.56 701.49,-172.51"/>
</a>
</g>
</g>
<!-- Node12&#45;&gt;Node5 -->
<g id="edge15_Node000012_Node000005" class="edge">
<title>Node12&#45;&gt;Node5</title>
<g id="a_edge15_Node000012_Node000005"><a xlink:title=" ">
<path fill="none" stroke="#63b8ff" d="M392.76,-190.12C405.78,-188.24 421.27,-186 435.55,-183.93"/>
<polygon fill="#63b8ff" stroke="#63b8ff" points="436.3,-187.36 445.69,-182.46 435.29,-180.43 436.3,-187.36"/>
</a>
</g>
</g>
<!-- Node15&#45;&gt;Node4 -->
<g id="edge21_Node000015_Node000004" class="edge">
<title>Node15&#45;&gt;Node4</title>
<g id="a_edge21_Node000015_Node000004"><a xlink:title=" ">
<path fill="none" stroke="#63b8ff" d="M277.41,-157.5C293.75,-157.5 310.69,-157.5 324.98,-157.5"/>
<polygon fill="#63b8ff" stroke="#63b8ff" points="325.34,-161 335.34,-157.5 325.34,-154 325.34,-161"/>
</a>
</g>
</g>
<!-- Node15&#45;&gt;Node12 -->
<g id="edge22_Node000015_Node000012" class="edge">
<title>Node15&#45;&gt;Node12</title>
<g id="a_edge22_Node000015_Node000012"><a xlink:title=" ">
<path fill="none" stroke="#63b8ff" d="M250.61,-167.03C272.06,-172.39 298.8,-179.08 320.54,-184.51"/>
<polygon fill="#63b8ff" stroke="#63b8ff" points="319.9,-187.96 330.45,-186.99 321.59,-181.17 319.9,-187.96"/>
</a>
</g>
</g>
<!-- Node16 -->
<g id="Node000016" class="node">
<title>Node16</title>
<g id="a_Node000016"><a xlink:href="build__groups_8c.html#abb3276e8d440d7dc4a1d969bbae7d5a7" target="_top" xlink:title=" ">
<polygon fill="white" stroke="#666666" points="390.5,-93 332.5,-93 332.5,-74 390.5,-74 390.5,-93"/>
<text text-anchor="middle" x="361.5" y="-81" font-family="Helvetica,sans-Serif" font-size="10.00">distance</text>
</a>
</g>
</g>
<!-- Node15&#45;&gt;Node16 -->
<g id="edge19_Node000015_Node000016" class="edge">
<title>Node15&#45;&gt;Node16</title>
<g id="a_edge19_Node000015_Node000016"><a xlink:title=" ">
<path fill="none" stroke="#63b8ff" d="M258.5,-147.91C264.94,-145.65 271.3,-142.88 277,-139.5 296.73,-127.79 293.93,-115.26 313,-102.5 316.14,-100.4 319.54,-98.47 323.04,-96.72"/>
<polygon fill="#63b8ff" stroke="#63b8ff" points="324.72,-99.8 332.39,-92.49 321.84,-93.42 324.72,-99.8"/>
</a>
</g>
</g>
<!-- Node18 -->
<g id="Node000018" class="node">
<title>Node18</title>
<g id="a_Node000018"><a xlink:href="build__groups_8c.html#a2671fec0dc3d042fb488d38f12267cc1" target="_top" xlink:title=" ">
<polygon fill="white" stroke="#666666" points="382,-130 341,-130 341,-111 382,-111 382,-130"/>
<text text-anchor="middle" x="361.5" y="-118" font-family="Helvetica,sans-Serif" font-size="10.00">virial</text>
</a>
</g>
</g>
<!-- Node15&#45;&gt;Node18 -->
<g id="edge23_Node000015_Node000018" class="edge">
<title>Node15&#45;&gt;Node18</title>
<g id="a_edge23_Node000015_Node000018"><a xlink:title=" ">
<path fill="none" stroke="#63b8ff" d="M250.61,-147.97C275.57,-141.73 307.71,-133.7 330.77,-127.93"/>
<polygon fill="#63b8ff" stroke="#63b8ff" points="331.82,-131.28 340.67,-125.46 330.12,-124.49 331.82,-131.28"/>
</a>
</g>
</g>
<!-- Node17 -->
<g id="Node000017" class="node">
<title>Node17</title>
<g id="a_Node000017"><a xlink:href="build__groups_8c.html#af25b71527a52752ed24f02b5b4ed6d66" target="_top" xlink:title=" ">
<polygon fill="white" stroke="#666666" points="498.5,-93 463.5,-93 463.5,-74 498.5,-74 498.5,-93"/>
<text text-anchor="middle" x="481" y="-81" font-family="Helvetica,sans-Serif" font-size="10.00">q2x</text>
</a>
</g>
</g>
<!-- Node16&#45;&gt;Node17 -->
<g id="edge20_Node000016_Node000017" class="edge">
<title>Node16&#45;&gt;Node17</title>
<g id="a_edge20_Node000016_Node000017"><a xlink:title=" ">
<path fill="none" stroke="#63b8ff" d="M390.64,-83.5C409.6,-83.5 434.45,-83.5 453.14,-83.5"/>
<polygon fill="#63b8ff" stroke="#63b8ff" points="453.33,-87 463.33,-83.5 453.33,-80 453.33,-87"/>
</a>
</g>
</g>
<!-- Node18&#45;&gt;Node6 -->
<g id="edge24_Node000018_Node000006" class="edge">
<title>Node18&#45;&gt;Node6</title>
<g id="a_edge24_Node000018_Node000006"><a xlink:title=" ">
<path fill="none" stroke="#63b8ff" d="M382.16,-120.58C420.41,-120.73 505.95,-121.07 561.48,-121.29"/>
<polygon fill="#63b8ff" stroke="#63b8ff" points="561.81,-124.8 571.82,-121.34 561.83,-117.8 561.81,-124.8"/>
</a>
</g>
</g>
<!-- Node19&#45;&gt;Node4 -->
<g id="edge27_Node000019_Node000004" class="edge">
<title>Node19&#45;&gt;Node4</title>
<g id="a_edge27_Node000019_Node000004"><a xlink:title=" ">
<path fill="none" stroke="#63b8ff" d="M250.61,-130.03C273.64,-135.78 302.78,-143.07 325.26,-148.69"/>
<polygon fill="#63b8ff" stroke="#63b8ff" points="324.53,-152.12 335.08,-151.15 326.23,-145.32 324.53,-152.12"/>
</a>
</g>
</g>
<!-- Node19&#45;&gt;Node16 -->
<g id="edge26_Node000019_Node000016" class="edge">
<title>Node19&#45;&gt;Node16</title>
<g id="a_edge26_Node000019_Node000016"><a xlink:title=" ">
<path fill="none" stroke="#63b8ff" d="M250.61,-110.97C272.75,-105.44 300.53,-98.49 322.62,-92.97"/>
<polygon fill="#63b8ff" stroke="#63b8ff" points="323.48,-96.36 332.33,-90.54 321.78,-89.57 323.48,-96.36"/>
</a>
</g>
</g>
<!-- Node19&#45;&gt;Node18 -->
<g id="edge28_Node000019_Node000018" class="edge">
<title>Node19&#45;&gt;Node18</title>
<g id="a_edge28_Node000019_Node000018"><a xlink:title=" ">
<path fill="none" stroke="#63b8ff" d="M274.84,-120.5C294.09,-120.5 314.43,-120.5 330.45,-120.5"/>
<polygon fill="#63b8ff" stroke="#63b8ff" points="330.79,-124 340.79,-120.5 330.79,-117 330.79,-124"/>
</a>
</g>
</g>
<!-- Node22 -->
<g id="Node000022" class="node">
<title>Node22</title>
<g id="a_Node000022"><a xlink:href="fragment_8c.html#acc57f162dbd5b7979bbf7af93ef7ac97" target="_top" xlink:title=" ">
<polygon fill="white" stroke="#666666" points="410,-19 313,-19 313,0 410,0 410,-19"/>
<text text-anchor="middle" x="361.5" y="-7" font-family="Helvetica,sans-Serif" font-size="10.00">compare_search</text>
</a>
</g>
</g>
<!-- Node21&#45;&gt;Node22 -->
<g id="edge31_Node000021_Node000022" class="edge">
<title>Node21&#45;&gt;Node22</title>
<g id="a_edge31_Node000021_Node000022"><a xlink:title=" ">
<path fill="none" stroke="#63b8ff" d="M251.39,-9.5C266.99,-9.5 285.3,-9.5 302.42,-9.5"/>
<polygon fill="#63b8ff" stroke="#63b8ff" points="302.9,-13 312.9,-9.5 302.9,-6 302.9,-13"/>
</a>
</g>
</g>
<!-- Node23&#45;&gt;Node3 -->
<g id="edge33_Node000023_Node000003" class="edge">
<title>Node23&#45;&gt;Node3</title>
<g id="a_edge33_Node000023_Node000003"><a xlink:title=" ">
<path fill="none" stroke="#63b8ff" d="M250.61,-241.03C271.46,-246.24 297.33,-252.71 318.73,-258.06"/>
<polygon fill="#63b8ff" stroke="#63b8ff" points="317.97,-261.48 328.52,-260.51 319.67,-254.68 317.97,-261.48"/>
</a>
</g>
</g>
<!-- Node23&#45;&gt;Node4 -->
<g id="edge34_Node000023_Node000004" class="edge">
<title>Node23&#45;&gt;Node4</title>
<g id="a_edge34_Node000023_Node000004"><a xlink:title=" ">
<path fill="none" stroke="#63b8ff" d="M254.77,-223.16C262.46,-220.7 270.2,-217.53 277,-213.5 296.73,-201.79 293.93,-189.26 313,-176.5 317.03,-173.8 321.51,-171.39 326.05,-169.26"/>
<polygon fill="#63b8ff" stroke="#63b8ff" points="327.52,-172.44 335.36,-165.31 324.78,-166 327.52,-172.44"/>
</a>
</g>
</g>
<!-- Node23&#45;&gt;Node13 -->
<g id="edge35_Node000023_Node000013" class="edge">
<title>Node23&#45;&gt;Node13</title>
<g id="a_edge35_Node000023_Node000013"><a xlink:title=" ">
<path fill="none" stroke="#63b8ff" d="M254.51,-231.5C277.18,-231.5 304.8,-231.5 326.16,-231.5"/>
<polygon fill="#63b8ff" stroke="#63b8ff" points="326.4,-235 336.4,-231.5 326.4,-228 326.4,-235"/>
</a>
</g>
</g>
<!-- Node24 -->
<g id="Node000024" class="node">
<title>Node24</title>
<g id="a_Node000024"><a xlink:href="build__groups_8c.html#a26327eb75cfcd12d2bd2062f338e2ae3" target="_top" xlink:title=" ">
<polygon fill="white" stroke="#666666" points="406,-315 317,-315 317,-296 406,-296 406,-315"/>
<text text-anchor="middle" x="361.5" y="-303" font-family="Helvetica,sans-Serif" font-size="10.00">update_history</text>
</a>
</g>
</g>
<!-- Node23&#45;&gt;Node24 -->
<g id="edge36_Node000023_Node000024" class="edge">
<title>Node23&#45;&gt;Node24</title>
<g id="a_edge36_Node000023_Node000024"><a xlink:title=" ">
<path fill="none" stroke="#63b8ff" d="M228.14,-241.16C247.59,-252.95 282.03,-273.1 313,-287.5 316.4,-289.08 319.98,-290.63 323.58,-292.12"/>
<polygon fill="#63b8ff" stroke="#63b8ff" points="322.5,-295.46 333.09,-295.89 325.08,-288.95 322.5,-295.46"/>
</a>
</g>
</g>
</g>
</svg>
