<?xml version="1.0" encoding="UTF-8" standalone="no"?>
<!DOCTYPE svg PUBLIC "-//W3C//DTD SVG 1.1//EN"
 "http://www.w3.org/Graphics/SVG/1.1/DTD/svg11.dtd">
<!-- Generated by graphviz version 2.43.0 (0)
 -->
<!-- Title: condition_PLC Pages: 1 -->
<svg width="623pt" height="76pt"
 viewBox="0.00 0.00 623.00 76.49" xmlns="http://www.w3.org/2000/svg" xmlns:xlink="http://www.w3.org/1999/xlink">
<g id="graph0" class="graph" transform="scale(1 1) rotate(0) translate(4 72.49)">
<title>condition_PLC</title>
<!-- Node1 -->
<g id="Node000001" class="node">
<title>Node1</title>
<g id="a_Node000001"><a xlink:title=" ">
<polygon fill="#999999" stroke="#666666" points="615,-56 530,-56 530,-37 615,-37 615,-56"/>
<text text-anchor="middle" x="572.5" y="-44" font-family="Helvetica,sans-Serif" font-size="10.00">condition_PLC</text>
</a>
</g>
</g>
<!-- Node2 -->
<g id="Node000002" class="node">
<title>Node2</title>
<g id="a_Node000002"><a xlink:href="build__groups_8c.html#a4df1001cc86732388d8ecf04e3372827" target="_top" xlink:title=" ">
<polygon fill="white" stroke="#666666" points="385,-56 306,-56 306,-37 385,-37 385,-56"/>
<text text-anchor="middle" x="345.5" y="-44" font-family="Helvetica,sans-Serif" font-size="10.00">build_groups</text>
</a>
</g>
</g>
<!-- Node1&#45;&gt;Node2 -->
<g id="edge1_Node000001_Node000002" class="edge">
<title>Node1&#45;&gt;Node2</title>
<g id="a_edge1_Node000001_Node000002"><a xlink:title=" ">
<path fill="none" stroke="#63b8ff" d="M530.26,-58.56C518.64,-61.42 505.91,-64.06 494,-65.5 461.79,-69.39 453.19,-69.54 421,-65.5 406.17,-63.64 390.05,-59.77 376.62,-56"/>
<polygon fill="#63b8ff" stroke="#63b8ff" points="531.34,-61.89 540.14,-56.01 529.59,-55.12 531.34,-61.89"/>
</a>
</g>
</g>
<!-- Node6 -->
<g id="Node000006" class="node">
<title>Node6</title>
<g id="a_Node000006"><a xlink:href="build__groups_8c.html#a2df593120b6334c80adfd6ac44b0762b" target="_top" xlink:title=" ">
<polygon fill="white" stroke="#666666" points="494,-56 421,-56 421,-37 494,-37 494,-56"/>
<text text-anchor="middle" x="457.5" y="-44" font-family="Helvetica,sans-Serif" font-size="10.00">condition_F</text>
</a>
</g>
</g>
<!-- Node1&#45;&gt;Node6 -->
<g id="edge5_Node000001_Node000006" class="edge">
<title>Node1&#45;&gt;Node6</title>
<g id="a_edge5_Node000001_Node000006"><a xlink:title=" ">
<path fill="none" stroke="#63b8ff" d="M519.71,-46.5C511.07,-46.5 502.27,-46.5 494.15,-46.5"/>
<polygon fill="#63b8ff" stroke="#63b8ff" points="519.74,-50 529.74,-46.5 519.74,-43 519.74,-50"/>
</a>
</g>
</g>
<!-- Node7 -->
<g id="Node000007" class="node">
<title>Node7</title>
<g id="a_Node000007"><a xlink:href="build__groups_8c.html#a86827bbf037c84cece9492cbbb3cbaef" target="_top" xlink:title=" ">
<polygon fill="white" stroke="#666666" points="490,-19 425,-19 425,0 490,0 490,-19"/>
<text text-anchor="middle" x="457.5" y="-7" font-family="Helvetica,sans-Serif" font-size="10.00">find_brent</text>
</a>
</g>
</g>
<!-- Node1&#45;&gt;Node7 -->
<g id="edge7_Node000001_Node000007" class="edge">
<title>Node1&#45;&gt;Node7</title>
<g id="a_edge7_Node000001_Node000007"><a xlink:title=" ">
<path fill="none" stroke="#63b8ff" d="M532.59,-33.76C517.94,-28.96 501.54,-23.59 487.89,-19.12"/>
<polygon fill="#63b8ff" stroke="#63b8ff" points="531.81,-37.19 542.4,-36.97 533.99,-30.53 531.81,-37.19"/>
</a>
</g>
</g>
<!-- Node3 -->
<g id="Node000003" class="node">
<title>Node3</title>
<g id="a_Node000003"><a xlink:href="fragment_8c.html#ac2bb250921932f90f7b0939d1181b66d" target="_top" xlink:title=" ">
<polygon fill="white" stroke="#666666" points="270,-56 208,-56 208,-37 270,-37 270,-56"/>
<text text-anchor="middle" x="239" y="-44" font-family="Helvetica,sans-Serif" font-size="10.00">fragment</text>
</a>
</g>
</g>
<!-- Node2&#45;&gt;Node3 -->
<g id="edge2_Node000002_Node000003" class="edge">
<title>Node2&#45;&gt;Node3</title>
<g id="a_edge2_Node000002_Node000003"><a xlink:title=" ">
<path fill="none" stroke="#63b8ff" d="M295.8,-46.5C287.11,-46.5 278.28,-46.5 270.29,-46.5"/>
<polygon fill="#63b8ff" stroke="#63b8ff" points="295.88,-50 305.88,-46.5 295.88,-43 295.88,-50"/>
</a>
</g>
</g>
<!-- Node4 -->
<g id="Node000004" class="node">
<title>Node4</title>
<g id="a_Node000004"><a xlink:href="fragment_8c.html#ae3aa75d17cbc170e60f4f48c4a2ffdf5" target="_top" xlink:title=" ">
<polygon fill="white" stroke="#666666" points="172,-56 77,-56 77,-37 172,-37 172,-56"/>
<text text-anchor="middle" x="124.5" y="-44" font-family="Helvetica,sans-Serif" font-size="10.00">fragment_driver</text>
</a>
</g>
</g>
<!-- Node3&#45;&gt;Node4 -->
<g id="edge3_Node000003_Node000004" class="edge">
<title>Node3&#45;&gt;Node4</title>
<g id="a_edge3_Node000003_Node000004"><a xlink:title=" ">
<path fill="none" stroke="#63b8ff" d="M197.73,-46.5C189.47,-46.5 180.72,-46.5 172.26,-46.5"/>
<polygon fill="#63b8ff" stroke="#63b8ff" points="197.85,-50 207.85,-46.5 197.85,-43 197.85,-50"/>
</a>
</g>
</g>
<!-- Node5 -->
<g id="Node000005" class="node">
<title>Node5</title>
<g id="a_Node000005"><a xlink:href="pinocchio_8c.html#a647f21a28344e1d9c643f4115516d7c9" target="_top" xlink:title=" ">
<polygon fill="white" stroke="#666666" points="41,-56 0,-56 0,-37 41,-37 41,-56"/>
<text text-anchor="middle" x="20.5" y="-44" font-family="Helvetica,sans-Serif" font-size="10.00">main</text>
</a>
</g>
</g>
<!-- Node4&#45;&gt;Node5 -->
<g id="edge4_Node000004_Node000005" class="edge">
<title>Node4&#45;&gt;Node5</title>
<g id="a_edge4_Node000004_Node000005"><a xlink:title=" ">
<path fill="none" stroke="#63b8ff" d="M66.91,-46.5C57.67,-46.5 48.67,-46.5 41.16,-46.5"/>
<polygon fill="#63b8ff" stroke="#63b8ff" points="66.98,-50 76.98,-46.5 66.98,-43 66.98,-50"/>
</a>
</g>
</g>
<!-- Node6&#45;&gt;Node2 -->
<g id="edge6_Node000006_Node000002" class="edge">
<title>Node6&#45;&gt;Node2</title>
<g id="a_edge6_Node000006_Node000002"><a xlink:title=" ">
<path fill="none" stroke="#63b8ff" d="M410.62,-46.5C402.12,-46.5 393.33,-46.5 385.07,-46.5"/>
<polygon fill="#63b8ff" stroke="#63b8ff" points="410.79,-50 420.79,-46.5 410.79,-43 410.79,-50"/>
</a>
</g>
</g>
<!-- Node7&#45;&gt;Node2 -->
<g id="edge8_Node000007_Node000002" class="edge">
<title>Node7&#45;&gt;Node2</title>
<g id="a_edge8_Node000007_Node000002"><a xlink:title=" ">
<path fill="none" stroke="#63b8ff" d="M418.62,-22.24C404.36,-27.04 388.39,-32.41 375.11,-36.88"/>
<polygon fill="#63b8ff" stroke="#63b8ff" points="419.81,-25.53 428.17,-19.03 417.58,-18.9 419.81,-25.53"/>
</a>
</g>
</g>
</g>
</svg>
