<?xml version="1.0" encoding="UTF-8" standalone="no"?>
<!DOCTYPE svg PUBLIC "-//W3C//DTD SVG 1.1//EN"
 "http://www.w3.org/Graphics/SVG/1.1/DTD/svg11.dtd">
<!-- Generated by graphviz version 2.43.0 (0)
 -->
<!-- Title: store_PLC Pages: 1 -->
<svg width="769pt" height="306pt"
 viewBox="0.00 0.00 769.00 306.33" xmlns="http://www.w3.org/2000/svg" xmlns:xlink="http://www.w3.org/1999/xlink">
<g id="graph0" class="graph" transform="scale(1 1) rotate(0) translate(4 302.33)">
<title>store_PLC</title>
<!-- Node1 -->
<g id="Node000001" class="node">
<title>Node1</title>
<g id="a_Node000001"><a xlink:title=" ">
<polygon fill="#999999" stroke="#666666" points="65,-179.33 0,-179.33 0,-160.33 65,-160.33 65,-179.33"/>
<text text-anchor="middle" x="32.5" y="-167.33" font-family="Helvetica,sans-Serif" font-size="10.00">store_PLC</text>
</a>
</g>
</g>
<!-- Node2 -->
<g id="Node000002" class="node">
<title>Node2</title>
<g id="a_Node000002"><a xlink:href="build__groups_8c.html#abfcb55d90e7c73c5bf323729666b92a3" target="_top" xlink:title=" ">
<polygon fill="white" stroke="#666666" points="223,-264.83 101,-264.83 101,-234.83 223,-234.83 223,-264.83"/>
<text text-anchor="start" x="109" y="-252.83" font-family="Helvetica,sans-Serif" font-size="10.00">coord_transformation</text>
<text text-anchor="middle" x="162" y="-241.83" font-family="Helvetica,sans-Serif" font-size="10.00">_cartesian_polar</text>
</a>
</g>
</g>
<!-- Node1&#45;&gt;Node2 -->
<g id="edge1_Node000001_Node000002" class="edge">
<title>Node1&#45;&gt;Node2</title>
<g id="a_edge1_Node000001_Node000002"><a xlink:title=" ">
<path fill="none" stroke="#63b8ff" d="M43.26,-179.64C55.76,-191.77 78.49,-212.45 101,-225.83 103.66,-227.42 106.45,-228.94 109.3,-230.39"/>
<polygon fill="#63b8ff" stroke="#63b8ff" points="108.03,-233.66 118.56,-234.8 111.04,-227.34 108.03,-233.66"/>
</a>
</g>
</g>
<!-- Node3 -->
<g id="Node000003" class="node">
<title>Node3</title>
<g id="a_Node000003"><a xlink:href="build__groups_8c.html#af25b71527a52752ed24f02b5b4ed6d66" target="_top" xlink:title=" ">
<polygon fill="white" stroke="#666666" points="179.5,-216.33 144.5,-216.33 144.5,-197.33 179.5,-197.33 179.5,-216.33"/>
<text text-anchor="middle" x="162" y="-204.33" font-family="Helvetica,sans-Serif" font-size="10.00">q2x</text>
</a>
</g>
</g>
<!-- Node1&#45;&gt;Node3 -->
<g id="edge2_Node000001_Node000003" class="edge">
<title>Node1&#45;&gt;Node3</title>
<g id="a_edge2_Node000001_Node000003"><a xlink:title=" ">
<path fill="none" stroke="#63b8ff" d="M65.02,-178.98C86.37,-185.18 114.26,-193.27 134.48,-199.14"/>
<polygon fill="#63b8ff" stroke="#63b8ff" points="133.69,-202.55 144.27,-201.98 135.64,-195.83 133.69,-202.55"/>
</a>
</g>
</g>
<!-- Node4 -->
<g id="Node000004" class="node">
<title>Node4</title>
<g id="a_Node000004"><a xlink:href="build__groups_8c.html#a8ca8a2e49b8887203360635eb02ee79e" target="_top" xlink:title=" ">
<polygon fill="white" stroke="#666666" points="188,-179.33 136,-179.33 136,-160.33 188,-160.33 188,-179.33"/>
<text text-anchor="middle" x="162" y="-167.33" font-family="Helvetica,sans-Serif" font-size="10.00">set_obj</text>
</a>
</g>
</g>
<!-- Node1&#45;&gt;Node4 -->
<g id="edge3_Node000001_Node000004" class="edge">
<title>Node1&#45;&gt;Node4</title>
<g id="a_edge3_Node000001_Node000004"><a xlink:title=" ">
<path fill="none" stroke="#63b8ff" d="M65.02,-169.83C83.43,-169.83 106.72,-169.83 125.75,-169.83"/>
<polygon fill="#63b8ff" stroke="#63b8ff" points="125.82,-173.33 135.82,-169.83 125.82,-166.33 125.82,-173.33"/>
</a>
</g>
</g>
<!-- Node12 -->
<g id="Node000012" class="node">
<title>Node12</title>
<g id="a_Node000012"><a xlink:href="build__groups_8c.html#abe99b5cfd56cfef913ff93b89cc3555f" target="_top" xlink:title=" ">
<polygon fill="white" stroke="#666666" points="331,-95.33 259,-95.33 259,-76.33 331,-76.33 331,-95.33"/>
<text text-anchor="middle" x="295" y="-83.33" font-family="Helvetica,sans-Serif" font-size="10.00">set_obj_vel</text>
</a>
</g>
</g>
<!-- Node1&#45;&gt;Node12 -->
<g id="edge14_Node000001_Node000012" class="edge">
<title>Node1&#45;&gt;Node12</title>
<g id="a_edge14_Node000001_Node000012"><a xlink:title=" ">
<path fill="none" stroke="#63b8ff" d="M65.18,-160.7C102.95,-149.69 167.88,-130.35 223,-111.83 234.84,-107.86 247.68,-103.25 259.15,-99.02"/>
<polygon fill="#63b8ff" stroke="#63b8ff" points="260.66,-102.19 268.81,-95.43 258.22,-95.63 260.66,-102.19"/>
</a>
</g>
</g>
<!-- Node18 -->
<g id="Node000018" class="node">
<title>Node18</title>
<g id="a_Node000018"><a xlink:href="build__groups_8c.html#a83c8d045b5cd7ea0df7228b7ec437dcd" target="_top" xlink:title=" ">
<polygon fill="white" stroke="#666666" points="178,-103.33 146,-103.33 146,-84.33 178,-84.33 178,-103.33"/>
<text text-anchor="middle" x="162" y="-91.33" font-family="Helvetica,sans-Serif" font-size="10.00">vel</text>
</a>
</g>
</g>
<!-- Node1&#45;&gt;Node18 -->
<g id="edge25_Node000001_Node000018" class="edge">
<title>Node1&#45;&gt;Node18</title>
<g id="a_edge25_Node000001_Node000018"><a xlink:title=" ">
<path fill="none" stroke="#63b8ff" d="M44.29,-159.99C57.09,-148.69 79.41,-130.15 101,-117.83 112.12,-111.49 125.24,-106.04 136.37,-101.94"/>
<polygon fill="#63b8ff" stroke="#63b8ff" points="137.66,-105.19 145.93,-98.57 135.33,-98.59 137.66,-105.19"/>
</a>
</g>
</g>
<!-- Node5 -->
<g id="Node000005" class="node">
<title>Node5</title>
<g id="a_Node000005"><a xlink:href="build__groups_8c.html#a7d0a825b630d787e82f2aad789794b1b" target="_top" xlink:title=" ">
<polygon fill="white" stroke="#666666" points="330,-224.33 260,-224.33 260,-205.33 330,-205.33 330,-224.33"/>
<text text-anchor="middle" x="295" y="-212.33" font-family="Helvetica,sans-Serif" font-size="10.00">set_weight</text>
</a>
</g>
</g>
<!-- Node4&#45;&gt;Node5 -->
<g id="edge4_Node000004_Node000005" class="edge">
<title>Node4&#45;&gt;Node5</title>
<g id="a_edge4_Node000004_Node000005"><a xlink:title=" ">
<path fill="none" stroke="#63b8ff" d="M188.19,-177.54C198.95,-180.9 211.62,-184.95 223,-188.83 234.82,-192.87 247.66,-197.49 259.13,-201.71"/>
<polygon fill="#63b8ff" stroke="#63b8ff" points="258.2,-205.1 268.79,-205.29 260.63,-198.54 258.2,-205.1"/>
</a>
</g>
</g>
<!-- Node6 -->
<g id="Node000006" class="node">
<title>Node6</title>
<g id="a_Node000006"><a xlink:href="cosmo_8c.html#a9fbcf5b69c272e801cf320cf814b23c4" target="_top" xlink:title=" ">
<polygon fill="white" stroke="#666666" points="471,-298.33 387,-298.33 387,-279.33 471,-279.33 471,-298.33"/>
<text text-anchor="middle" x="429" y="-286.33" font-family="Helvetica,sans-Serif" font-size="10.00">GrowingMode</text>
</a>
</g>
</g>
<!-- Node5&#45;&gt;Node6 -->
<g id="edge5_Node000005_Node000006" class="edge">
<title>Node5&#45;&gt;Node6</title>
<g id="a_edge5_Node000005_Node000006"><a xlink:title=" ">
<path fill="none" stroke="#63b8ff" d="M305.72,-224.53C318.66,-236.92 342.74,-258.28 367,-270.83 370.49,-272.64 374.18,-274.29 377.96,-275.79"/>
<polygon fill="#63b8ff" stroke="#63b8ff" points="376.85,-279.11 387.45,-279.23 379.24,-272.53 376.85,-279.11"/>
</a>
</g>
</g>
<!-- Node9 -->
<g id="Node000009" class="node">
<title>Node9</title>
<g id="a_Node000009"><a xlink:href="cosmo_8c.html#a3d4dfa13b4af53acceb7a040e2517499" target="_top" xlink:title=" ">
<polygon fill="white" stroke="#666666" points="485.5,-261.33 372.5,-261.33 372.5,-242.33 485.5,-242.33 485.5,-261.33"/>
<text text-anchor="middle" x="429" y="-249.33" font-family="Helvetica,sans-Serif" font-size="10.00">GrowingMode_2LPT</text>
</a>
</g>
</g>
<!-- Node5&#45;&gt;Node9 -->
<g id="edge8_Node000005_Node000009" class="edge">
<title>Node5&#45;&gt;Node9</title>
<g id="a_edge8_Node000005_Node000009"><a xlink:title=" ">
<path fill="none" stroke="#63b8ff" d="M329.99,-224.36C346.34,-228.94 366.14,-234.5 383.66,-239.4"/>
<polygon fill="#63b8ff" stroke="#63b8ff" points="383.09,-242.88 393.66,-242.21 384.98,-236.14 383.09,-242.88"/>
</a>
</g>
</g>
<!-- Node10 -->
<g id="Node000010" class="node">
<title>Node10</title>
<g id="a_Node000010"><a xlink:href="cosmo_8c.html#a04db96c36d31fd7c7befb810624260fc" target="_top" xlink:title=" ">
<polygon fill="white" stroke="#666666" points="491,-224.33 367,-224.33 367,-205.33 491,-205.33 491,-224.33"/>
<text text-anchor="middle" x="429" y="-212.33" font-family="Helvetica,sans-Serif" font-size="10.00">GrowingMode_3LPT_1</text>
</a>
</g>
</g>
<!-- Node5&#45;&gt;Node10 -->
<g id="edge10_Node000005_Node000010" class="edge">
<title>Node5&#45;&gt;Node10</title>
<g id="a_edge10_Node000005_Node000010"><a xlink:title=" ">
<path fill="none" stroke="#63b8ff" d="M330.34,-214.83C338.58,-214.83 347.69,-214.83 356.94,-214.83"/>
<polygon fill="#63b8ff" stroke="#63b8ff" points="356.99,-218.33 366.99,-214.83 356.99,-211.33 356.99,-218.33"/>
</a>
</g>
</g>
<!-- Node11 -->
<g id="Node000011" class="node">
<title>Node11</title>
<g id="a_Node000011"><a xlink:href="cosmo_8c.html#a9c8d61128a3d0ab4c73354d0ff8011a1" target="_top" xlink:title=" ">
<polygon fill="white" stroke="#666666" points="491,-187.33 367,-187.33 367,-168.33 491,-168.33 491,-187.33"/>
<text text-anchor="middle" x="429" y="-175.33" font-family="Helvetica,sans-Serif" font-size="10.00">GrowingMode_3LPT_2</text>
</a>
</g>
</g>
<!-- Node5&#45;&gt;Node11 -->
<g id="edge12_Node000005_Node000011" class="edge">
<title>Node5&#45;&gt;Node11</title>
<g id="a_edge12_Node000005_Node000011"><a xlink:title=" ">
<path fill="none" stroke="#63b8ff" d="M329.99,-205.31C346.34,-200.72 366.14,-195.17 383.66,-190.26"/>
<polygon fill="#63b8ff" stroke="#63b8ff" points="384.98,-193.53 393.66,-187.46 383.09,-186.79 384.98,-193.53"/>
</a>
</g>
</g>
<!-- Node7 -->
<g id="Node000007" class="node">
<title>Node7</title>
<g id="a_Node000007"><a xlink:href="cosmo_8c.html#a8847e5b8ea1f9c458c8bf9e5f36837a9" target="_top" xlink:title=" ">
<polygon fill="white" stroke="#666666" points="632,-150.33 527,-150.33 527,-131.33 632,-131.33 632,-150.33"/>
<text text-anchor="middle" x="579.5" y="-138.33" font-family="Helvetica,sans-Serif" font-size="10.00">InterpolateGrowth</text>
</a>
</g>
</g>
<!-- Node6&#45;&gt;Node7 -->
<g id="edge6_Node000006_Node000007" class="edge">
<title>Node6&#45;&gt;Node7</title>
<g id="a_edge6_Node000006_Node000007"><a xlink:title=" ">
<path fill="none" stroke="#63b8ff" d="M471.22,-280.93C478.22,-278.43 485.12,-275.14 491,-270.83 530.86,-241.61 558.22,-188.38 570.74,-159.95"/>
<polygon fill="#63b8ff" stroke="#63b8ff" points="573.99,-161.26 574.68,-150.68 567.54,-158.52 573.99,-161.26"/>
</a>
</g>
</g>
<!-- Node8 -->
<g id="Node000008" class="node">
<title>Node8</title>
<g id="a_Node000008"><a xlink:href="cosmo_8c.html#a6341f5394ed17a00dc77c5519b292ae3" target="_top" xlink:title=" ">
<polygon fill="white" stroke="#666666" points="761,-75.33 668,-75.33 668,-56.33 761,-56.33 761,-75.33"/>
<text text-anchor="middle" x="714.5" y="-63.33" font-family="Helvetica,sans-Serif" font-size="10.00">my_spline_eval</text>
</a>
</g>
</g>
<!-- Node7&#45;&gt;Node8 -->
<g id="edge7_Node000007_Node000008" class="edge">
<title>Node7&#45;&gt;Node8</title>
<g id="a_edge7_Node000007_Node000008"><a xlink:title=" ">
<path fill="none" stroke="#63b8ff" d="M597.62,-131.18C620.46,-118.3 661.12,-95.37 687.69,-80.39"/>
<polygon fill="#63b8ff" stroke="#63b8ff" points="689.46,-83.41 696.45,-75.45 686.02,-77.31 689.46,-83.41"/>
</a>
</g>
</g>
<!-- Node9&#45;&gt;Node7 -->
<g id="edge9_Node000009_Node000007" class="edge">
<title>Node9&#45;&gt;Node7</title>
<g id="a_edge9_Node000009_Node000007"><a xlink:title=" ">
<path fill="none" stroke="#63b8ff" d="M472.92,-242.32C479.22,-240.04 485.45,-237.25 491,-233.83 522.91,-214.21 550.82,-179.97 566.11,-158.96"/>
<polygon fill="#63b8ff" stroke="#63b8ff" points="569.11,-160.77 572.04,-150.59 563.4,-156.73 569.11,-160.77"/>
</a>
</g>
</g>
<!-- Node10&#45;&gt;Node7 -->
<g id="edge11_Node000010_Node000007" class="edge">
<title>Node10&#45;&gt;Node7</title>
<g id="a_edge11_Node000010_Node000007"><a xlink:title=" ">
<path fill="none" stroke="#63b8ff" d="M468.35,-205.32C476,-202.92 483.87,-200.09 491,-196.83 515.31,-185.74 540.79,-168.73 557.95,-156.36"/>
<polygon fill="#63b8ff" stroke="#63b8ff" points="560.11,-159.12 566.11,-150.38 555.97,-153.47 560.11,-159.12"/>
</a>
</g>
</g>
<!-- Node11&#45;&gt;Node7 -->
<g id="edge13_Node000011_Node000007" class="edge">
<title>Node11&#45;&gt;Node7</title>
<g id="a_edge13_Node000011_Node000007"><a xlink:title=" ">
<path fill="none" stroke="#63b8ff" d="M468.24,-168.31C487.14,-163.6 510.13,-157.87 530.23,-152.86"/>
<polygon fill="#63b8ff" stroke="#63b8ff" points="531.27,-156.21 540.13,-150.39 529.58,-149.42 531.27,-156.21"/>
</a>
</g>
</g>
<!-- Node13 -->
<g id="Node000013" class="node">
<title>Node13</title>
<g id="a_Node000013"><a xlink:href="cosmo_8c.html#a395fdee07918e6b1298b2002d37aab7f" target="_top" xlink:title=" ">
<polygon fill="white" stroke="#666666" points="456,-150.33 402,-150.33 402,-131.33 456,-131.33 456,-150.33"/>
<text text-anchor="middle" x="429" y="-138.33" font-family="Helvetica,sans-Serif" font-size="10.00">fomega</text>
</a>
</g>
</g>
<!-- Node12&#45;&gt;Node13 -->
<g id="edge15_Node000012_Node000013" class="edge">
<title>Node12&#45;&gt;Node13</title>
<g id="a_edge15_Node000012_Node000013"><a xlink:title=" ">
<path fill="none" stroke="#63b8ff" d="M312.84,-95.38C327,-103.16 347.92,-114.09 367,-121.83 375.05,-125.1 383.89,-128.15 392.28,-130.8"/>
<polygon fill="#63b8ff" stroke="#63b8ff" points="391.25,-134.15 401.84,-133.73 393.3,-127.46 391.25,-134.15"/>
</a>
</g>
</g>
<!-- Node14 -->
<g id="Node000014" class="node">
<title>Node14</title>
<g id="a_Node000014"><a xlink:href="cosmo_8c.html#a10bb78a97e9affce82cd0961eaaf6cae" target="_top" xlink:title=" ">
<polygon fill="white" stroke="#666666" points="470.5,-113.33 387.5,-113.33 387.5,-94.33 470.5,-94.33 470.5,-113.33"/>
<text text-anchor="middle" x="429" y="-101.33" font-family="Helvetica,sans-Serif" font-size="10.00">fomega_2LPT</text>
</a>
</g>
</g>
<!-- Node12&#45;&gt;Node14 -->
<g id="edge17_Node000012_Node000014" class="edge">
<title>Node12&#45;&gt;Node14</title>
<g id="a_edge17_Node000012_Node000014"><a xlink:title=" ">
<path fill="none" stroke="#63b8ff" d="M331.03,-90.61C345.19,-92.54 361.81,-94.81 377.25,-96.91"/>
<polygon fill="#63b8ff" stroke="#63b8ff" points="376.81,-100.38 387.19,-98.27 377.75,-93.45 376.81,-100.38"/>
</a>
</g>
</g>
<!-- Node15 -->
<g id="Node000015" class="node">
<title>Node15</title>
<g id="a_Node000015"><a xlink:href="cosmo_8c.html#acf7ff09e2fe05a19bbf0e7c0d5839e52" target="_top" xlink:title=" ">
<polygon fill="white" stroke="#666666" points="476,-76.33 382,-76.33 382,-57.33 476,-57.33 476,-76.33"/>
<text text-anchor="middle" x="429" y="-64.33" font-family="Helvetica,sans-Serif" font-size="10.00">fomega_3LPT_1</text>
</a>
</g>
</g>
<!-- Node12&#45;&gt;Node15 -->
<g id="edge19_Node000012_Node000015" class="edge">
<title>Node12&#45;&gt;Node15</title>
<g id="a_edge19_Node000012_Node000015"><a xlink:title=" ">
<path fill="none" stroke="#63b8ff" d="M331.03,-80.79C343.56,-78.99 358.03,-76.9 371.9,-74.91"/>
<polygon fill="#63b8ff" stroke="#63b8ff" points="372.46,-78.36 381.86,-73.48 371.46,-71.44 372.46,-78.36"/>
</a>
</g>
</g>
<!-- Node16 -->
<g id="Node000016" class="node">
<title>Node16</title>
<g id="a_Node000016"><a xlink:href="cosmo_8c.html#ad3aca2ac8129b437962982600873aa3a" target="_top" xlink:title=" ">
<polygon fill="white" stroke="#666666" points="476,-39.33 382,-39.33 382,-20.33 476,-20.33 476,-39.33"/>
<text text-anchor="middle" x="429" y="-27.33" font-family="Helvetica,sans-Serif" font-size="10.00">fomega_3LPT_2</text>
</a>
</g>
</g>
<!-- Node12&#45;&gt;Node16 -->
<g id="edge21_Node000012_Node000016" class="edge">
<title>Node12&#45;&gt;Node16</title>
<g id="a_edge21_Node000012_Node000016"><a xlink:title=" ">
<path fill="none" stroke="#63b8ff" d="M311.62,-76.27C325.71,-67.94 347.21,-55.95 367,-47.83 371.67,-45.92 376.62,-44.11 381.59,-42.44"/>
<polygon fill="#63b8ff" stroke="#63b8ff" points="382.67,-45.77 391.13,-39.39 380.54,-39.1 382.67,-45.77"/>
</a>
</g>
</g>
<!-- Node17 -->
<g id="Node000017" class="node">
<title>Node17</title>
<g id="a_Node000017"><a xlink:href="cosmo_8c.html#a911e9ce363c4662ce531c65885519f7a" target="_top" xlink:title=" ">
<polygon fill="white" stroke="#666666" points="605,-57.33 554,-57.33 554,-38.33 605,-38.33 605,-57.33"/>
<text text-anchor="middle" x="579.5" y="-45.33" font-family="Helvetica,sans-Serif" font-size="10.00">Hubble</text>
</a>
</g>
</g>
<!-- Node12&#45;&gt;Node17 -->
<g id="edge23_Node000012_Node000017" class="edge">
<title>Node12&#45;&gt;Node17</title>
<g id="a_edge23_Node000012_Node000017"><a xlink:title=" ">
<path fill="none" stroke="#63b8ff" d="M301.48,-76.13C311.76,-59.09 335.71,-24.3 367,-10.83 429.45,16.04 510.26,-14.16 551.58,-33.75"/>
<polygon fill="#63b8ff" stroke="#63b8ff" points="550.2,-36.97 560.72,-38.22 553.28,-30.68 550.2,-36.97"/>
</a>
</g>
</g>
<!-- Node13&#45;&gt;Node7 -->
<g id="edge16_Node000013_Node000007" class="edge">
<title>Node13&#45;&gt;Node7</title>
<g id="a_edge16_Node000013_Node000007"><a xlink:title=" ">
<path fill="none" stroke="#63b8ff" d="M456.21,-140.83C472.95,-140.83 495.41,-140.83 516.51,-140.83"/>
<polygon fill="#63b8ff" stroke="#63b8ff" points="516.72,-144.33 526.72,-140.83 516.72,-137.33 516.72,-144.33"/>
</a>
</g>
</g>
<!-- Node14&#45;&gt;Node7 -->
<g id="edge18_Node000014_Node000007" class="edge">
<title>Node14&#45;&gt;Node7</title>
<g id="a_edge18_Node000014_Node000007"><a xlink:title=" ">
<path fill="none" stroke="#63b8ff" d="M468.24,-113.36C487.14,-118.07 510.13,-123.8 530.23,-128.81"/>
<polygon fill="#63b8ff" stroke="#63b8ff" points="529.58,-132.25 540.13,-131.27 531.27,-125.46 529.58,-132.25"/>
</a>
</g>
</g>
<!-- Node15&#45;&gt;Node7 -->
<g id="edge20_Node000015_Node000007" class="edge">
<title>Node15&#45;&gt;Node7</title>
<g id="a_edge20_Node000015_Node000007"><a xlink:title=" ">
<path fill="none" stroke="#63b8ff" d="M468.35,-76.35C476,-78.74 483.87,-81.58 491,-84.83 515.31,-95.93 540.79,-112.94 557.95,-125.3"/>
<polygon fill="#63b8ff" stroke="#63b8ff" points="555.97,-128.2 566.11,-131.29 560.11,-122.55 555.97,-128.2"/>
</a>
</g>
</g>
<!-- Node16&#45;&gt;Node7 -->
<g id="edge22_Node000016_Node000007" class="edge">
<title>Node16&#45;&gt;Node7</title>
<g id="a_edge22_Node000016_Node000007"><a xlink:title=" ">
<path fill="none" stroke="#63b8ff" d="M472.92,-39.34C479.22,-41.62 485.45,-44.42 491,-47.83 522.91,-67.46 550.82,-101.7 566.11,-122.71"/>
<polygon fill="#63b8ff" stroke="#63b8ff" points="563.4,-124.94 572.04,-131.08 569.11,-120.89 563.4,-124.94"/>
</a>
</g>
</g>
<!-- Node17&#45;&gt;Node8 -->
<g id="edge24_Node000017_Node000008" class="edge">
<title>Node17&#45;&gt;Node8</title>
<g id="a_edge24_Node000017_Node000008"><a xlink:title=" ">
<path fill="none" stroke="#63b8ff" d="M605.2,-51.18C620.04,-53.18 639.53,-55.82 657.89,-58.31"/>
<polygon fill="#63b8ff" stroke="#63b8ff" points="657.56,-61.79 667.94,-59.67 658.5,-54.86 657.56,-61.79"/>
</a>
</g>
</g>
</g>
</svg>
