<?xml version="1.0" encoding="UTF-8" standalone="no"?>
<!DOCTYPE svg PUBLIC "-//W3C//DTD SVG 1.1//EN"
 "http://www.w3.org/Graphics/SVG/1.1/DTD/svg11.dtd">
<!-- Generated by graphviz version 2.43.0 (0)
 -->
<!-- Title: set_weight Pages: 1 -->
<svg width="508pt" height="138pt"
 viewBox="0.00 0.00 508.00 138.00" xmlns="http://www.w3.org/2000/svg" xmlns:xlink="http://www.w3.org/1999/xlink">
<g id="graph0" class="graph" transform="scale(1 1) rotate(0) translate(4 134)">
<title>set_weight</title>
<!-- Node1 -->
<g id="Node000001" class="node">
<title>Node1</title>
<g id="a_Node000001"><a xlink:title=" ">
<polygon fill="#999999" stroke="#666666" points="70,-74 0,-74 0,-55 70,-55 70,-74"/>
<text text-anchor="middle" x="35" y="-62" font-family="Helvetica,sans-Serif" font-size="10.00">set_weight</text>
</a>
</g>
</g>
<!-- Node2 -->
<g id="Node000002" class="node">
<title>Node2</title>
<g id="a_Node000002"><a xlink:href="cosmo_8c.html#a9fbcf5b69c272e801cf320cf814b23c4" target="_top" xlink:title=" ">
<polygon fill="white" stroke="#666666" points="210,-130 126,-130 126,-111 210,-111 210,-130"/>
<text text-anchor="middle" x="168" y="-118" font-family="Helvetica,sans-Serif" font-size="10.00">GrowingMode</text>
</a>
</g>
</g>
<!-- Node1&#45;&gt;Node2 -->
<g id="edge1_Node000001_Node000002" class="edge">
<title>Node1&#45;&gt;Node2</title>
<g id="a_edge1_Node000001_Node000002"><a xlink:title=" ">
<path fill="none" stroke="#63b8ff" d="M51.38,-74.08C65.26,-82.42 86.45,-94.41 106,-102.5 110.66,-104.43 115.61,-106.24 120.58,-107.92"/>
<polygon fill="#63b8ff" stroke="#63b8ff" points="119.52,-111.26 130.12,-110.98 121.66,-104.59 119.52,-111.26"/>
</a>
</g>
</g>
<!-- Node5 -->
<g id="Node000005" class="node">
<title>Node5</title>
<g id="a_Node000005"><a xlink:href="cosmo_8c.html#a3d4dfa13b4af53acceb7a040e2517499" target="_top" xlink:title=" ">
<polygon fill="white" stroke="#666666" points="224.5,-93 111.5,-93 111.5,-74 224.5,-74 224.5,-93"/>
<text text-anchor="middle" x="168" y="-81" font-family="Helvetica,sans-Serif" font-size="10.00">GrowingMode_2LPT</text>
</a>
</g>
</g>
<!-- Node1&#45;&gt;Node5 -->
<g id="edge4_Node000001_Node000005" class="edge">
<title>Node1&#45;&gt;Node5</title>
<g id="a_edge4_Node000001_Node000005"><a xlink:title=" ">
<path fill="none" stroke="#63b8ff" d="M70.08,-69.44C79.71,-70.84 90.54,-72.41 101.36,-73.98"/>
<polygon fill="#63b8ff" stroke="#63b8ff" points="100.88,-77.45 111.28,-75.42 101.88,-70.52 100.88,-77.45"/>
</a>
</g>
</g>
<!-- Node6 -->
<g id="Node000006" class="node">
<title>Node6</title>
<g id="a_Node000006"><a xlink:href="cosmo_8c.html#a04db96c36d31fd7c7befb810624260fc" target="_top" xlink:title=" ">
<polygon fill="white" stroke="#666666" points="230,-56 106,-56 106,-37 230,-37 230,-56"/>
<text text-anchor="middle" x="168" y="-44" font-family="Helvetica,sans-Serif" font-size="10.00">GrowingMode_3LPT_1</text>
</a>
</g>
</g>
<!-- Node1&#45;&gt;Node6 -->
<g id="edge6_Node000001_Node000006" class="edge">
<title>Node1&#45;&gt;Node6</title>
<g id="a_edge6_Node000001_Node000006"><a xlink:title=" ">
<path fill="none" stroke="#63b8ff" d="M70.08,-59.82C78.06,-58.72 86.87,-57.51 95.81,-56.28"/>
<polygon fill="#63b8ff" stroke="#63b8ff" points="96.51,-59.72 105.94,-54.89 95.55,-52.78 96.51,-59.72"/>
</a>
</g>
</g>
<!-- Node7 -->
<g id="Node000007" class="node">
<title>Node7</title>
<g id="a_Node000007"><a xlink:href="cosmo_8c.html#a9c8d61128a3d0ab4c73354d0ff8011a1" target="_top" xlink:title=" ">
<polygon fill="white" stroke="#666666" points="230,-19 106,-19 106,0 230,0 230,-19"/>
<text text-anchor="middle" x="168" y="-7" font-family="Helvetica,sans-Serif" font-size="10.00">GrowingMode_3LPT_2</text>
</a>
</g>
</g>
<!-- Node1&#45;&gt;Node7 -->
<g id="edge8_Node000001_Node000007" class="edge">
<title>Node1&#45;&gt;Node7</title>
<g id="a_edge8_Node000001_Node000007"><a xlink:title=" ">
<path fill="none" stroke="#63b8ff" d="M52.59,-54.93C66.53,-47.14 87.16,-36.21 106,-28.5 111.46,-26.27 117.28,-24.14 123.08,-22.17"/>
<polygon fill="#63b8ff" stroke="#63b8ff" points="124.33,-25.45 132.75,-19.03 122.16,-18.79 124.33,-25.45"/>
</a>
</g>
</g>
<!-- Node3 -->
<g id="Node000003" class="node">
<title>Node3</title>
<g id="a_Node000003"><a xlink:href="cosmo_8c.html#a8847e5b8ea1f9c458c8bf9e5f36837a9" target="_top" xlink:title=" ">
<polygon fill="white" stroke="#666666" points="371,-74 266,-74 266,-55 371,-55 371,-74"/>
<text text-anchor="middle" x="318.5" y="-62" font-family="Helvetica,sans-Serif" font-size="10.00">InterpolateGrowth</text>
</a>
</g>
</g>
<!-- Node2&#45;&gt;Node3 -->
<g id="edge2_Node000002_Node000003" class="edge">
<title>Node2&#45;&gt;Node3</title>
<g id="a_edge2_Node000002_Node000003"><a xlink:title=" ">
<path fill="none" stroke="#63b8ff" d="M204.08,-110.95C212.63,-108.4 221.7,-105.52 230,-102.5 249.65,-95.36 271.2,-86.03 287.99,-78.39"/>
<polygon fill="#63b8ff" stroke="#63b8ff" points="289.65,-81.48 297.28,-74.13 286.73,-75.12 289.65,-81.48"/>
</a>
</g>
</g>
<!-- Node4 -->
<g id="Node000004" class="node">
<title>Node4</title>
<g id="a_Node000004"><a xlink:href="cosmo_8c.html#a6341f5394ed17a00dc77c5519b292ae3" target="_top" xlink:title=" ">
<polygon fill="white" stroke="#666666" points="500,-74 407,-74 407,-55 500,-55 500,-74"/>
<text text-anchor="middle" x="453.5" y="-62" font-family="Helvetica,sans-Serif" font-size="10.00">my_spline_eval</text>
</a>
</g>
</g>
<!-- Node3&#45;&gt;Node4 -->
<g id="edge3_Node000003_Node000004" class="edge">
<title>Node3&#45;&gt;Node4</title>
<g id="a_edge3_Node000003_Node000004"><a xlink:title=" ">
<path fill="none" stroke="#63b8ff" d="M371.3,-64.5C379.6,-64.5 388.22,-64.5 396.6,-64.5"/>
<polygon fill="#63b8ff" stroke="#63b8ff" points="396.68,-68 406.68,-64.5 396.68,-61 396.68,-68"/>
</a>
</g>
</g>
<!-- Node5&#45;&gt;Node3 -->
<g id="edge5_Node000005_Node000003" class="edge">
<title>Node5&#45;&gt;Node3</title>
<g id="a_edge5_Node000005_Node000003"><a xlink:title=" ">
<path fill="none" stroke="#63b8ff" d="M224.72,-76.37C234.84,-75.08 245.46,-73.72 255.74,-72.4"/>
<polygon fill="#63b8ff" stroke="#63b8ff" points="256.41,-75.84 265.88,-71.1 255.52,-68.9 256.41,-75.84"/>
</a>
</g>
</g>
<!-- Node6&#45;&gt;Node3 -->
<g id="edge7_Node000006_Node000003" class="edge">
<title>Node6&#45;&gt;Node3</title>
<g id="a_edge7_Node000006_Node000003"><a xlink:title=" ">
<path fill="none" stroke="#63b8ff" d="M230.26,-53.93C238.66,-54.94 247.3,-55.99 255.72,-57.01"/>
<polygon fill="#63b8ff" stroke="#63b8ff" points="255.49,-60.51 265.84,-58.24 256.34,-53.56 255.49,-60.51"/>
</a>
</g>
</g>
<!-- Node7&#45;&gt;Node3 -->
<g id="edge9_Node000007_Node000003" class="edge">
<title>Node7&#45;&gt;Node3</title>
<g id="a_edge9_Node000007_Node000003"><a xlink:title=" ">
<path fill="none" stroke="#63b8ff" d="M201.47,-19.03C210.74,-21.91 220.82,-25.19 230,-28.5 248.99,-35.35 269.91,-43.92 286.53,-50.98"/>
<polygon fill="#63b8ff" stroke="#63b8ff" points="285.2,-54.22 295.77,-54.93 287.96,-47.78 285.2,-54.22"/>
</a>
</g>
</g>
</g>
</svg>
