<?xml version="1.0" encoding="UTF-8" standalone="no"?>
<!DOCTYPE svg PUBLIC "-//W3C//DTD SVG 1.1//EN"
 "http://www.w3.org/Graphics/SVG/1.1/DTD/svg11.dtd">
<!-- Generated by graphviz version 2.43.0 (0)
 -->
<!-- Title: condition_PLC Pages: 1 -->
<svg width="756pt" height="176pt"
 viewBox="0.00 0.00 756.00 176.00" xmlns="http://www.w3.org/2000/svg" xmlns:xlink="http://www.w3.org/1999/xlink">
<g id="graph0" class="graph" transform="scale(1 1) rotate(0) translate(4 172)">
<title>condition_PLC</title>
<!-- Node1 -->
<g id="Node000001" class="node">
<title>Node1</title>
<g id="a_Node000001"><a xlink:title=" ">
<polygon fill="#999999" stroke="#666666" points="85,-130 0,-130 0,-111 85,-111 85,-130"/>
<text text-anchor="middle" x="42.5" y="-118" font-family="Helvetica,sans-Serif" font-size="10.00">condition_PLC</text>
</a>
</g>
</g>
<!-- Node2 -->
<g id="Node000002" class="node">
<title>Node2</title>
<g id="a_Node000002"><a xlink:href="cosmo_8c.html#aa3beda8770f3f4e1b00e486bb647edc5" target="_top" xlink:title=" ">
<polygon fill="white" stroke="#666666" points="318,-168 209,-168 209,-149 318,-149 318,-168"/>
<text text-anchor="middle" x="263.5" y="-156" font-family="Helvetica,sans-Serif" font-size="10.00">ComovingDistance</text>
</a>
</g>
</g>
<!-- Node1&#45;&gt;Node2 -->
<g id="edge1_Node000001_Node000002" class="edge">
<title>Node1&#45;&gt;Node2</title>
<g id="a_edge1_Node000001_Node000002"><a xlink:title=" ">
<path fill="none" stroke="#63b8ff" d="M78.82,-130C91.99,-133.32 107.12,-136.87 121,-139.5 146.25,-144.28 174.26,-148.3 198.65,-151.4"/>
<polygon fill="#63b8ff" stroke="#63b8ff" points="198.51,-154.91 208.87,-152.67 199.37,-147.96 198.51,-154.91"/>
</a>
</g>
</g>
<!-- Node4 -->
<g id="Node000004" class="node">
<title>Node4</title>
<g id="a_Node000004"><a xlink:href="build__groups_8c.html#af25b71527a52752ed24f02b5b4ed6d66" target="_top" xlink:title=" ">
<polygon fill="white" stroke="#666666" points="164.5,-130 129.5,-130 129.5,-111 164.5,-111 164.5,-130"/>
<text text-anchor="middle" x="147" y="-118" font-family="Helvetica,sans-Serif" font-size="10.00">q2x</text>
</a>
</g>
</g>
<!-- Node1&#45;&gt;Node4 -->
<g id="edge3_Node000001_Node000004" class="edge">
<title>Node1&#45;&gt;Node4</title>
<g id="a_edge3_Node000001_Node000004"><a xlink:title=" ">
<path fill="none" stroke="#63b8ff" d="M85.19,-120.5C96.71,-120.5 108.89,-120.5 119.31,-120.5"/>
<polygon fill="#63b8ff" stroke="#63b8ff" points="119.42,-124 129.42,-120.5 119.42,-117 119.42,-124"/>
</a>
</g>
</g>
<!-- Node5 -->
<g id="Node000005" class="node">
<title>Node5</title>
<g id="a_Node000005"><a xlink:href="build__groups_8c.html#a8ca8a2e49b8887203360635eb02ee79e" target="_top" xlink:title=" ">
<polygon fill="white" stroke="#666666" points="173,-93 121,-93 121,-74 173,-74 173,-93"/>
<text text-anchor="middle" x="147" y="-81" font-family="Helvetica,sans-Serif" font-size="10.00">set_obj</text>
</a>
</g>
</g>
<!-- Node1&#45;&gt;Node5 -->
<g id="edge4_Node000001_Node000005" class="edge">
<title>Node1&#45;&gt;Node5</title>
<g id="a_edge4_Node000001_Node000005"><a xlink:title=" ">
<path fill="none" stroke="#63b8ff" d="M69.9,-110.97C82.5,-106.42 97.74,-100.92 111.27,-96.04"/>
<polygon fill="#63b8ff" stroke="#63b8ff" points="112.54,-99.3 120.75,-92.61 110.16,-92.72 112.54,-99.3"/>
</a>
</g>
</g>
<!-- Node3 -->
<g id="Node000003" class="node">
<title>Node3</title>
<g id="a_Node000003"><a xlink:href="cosmo_8c.html#a6341f5394ed17a00dc77c5519b292ae3" target="_top" xlink:title=" ">
<polygon fill="white" stroke="#666666" points="748,-130 655,-130 655,-111 748,-111 748,-130"/>
<text text-anchor="middle" x="701.5" y="-118" font-family="Helvetica,sans-Serif" font-size="10.00">my_spline_eval</text>
</a>
</g>
</g>
<!-- Node2&#45;&gt;Node3 -->
<g id="edge2_Node000002_Node000003" class="edge">
<title>Node2&#45;&gt;Node3</title>
<g id="a_edge2_Node000002_Node000003"><a xlink:title=" ">
<path fill="none" stroke="#63b8ff" d="M318.4,-153.8C401.62,-146.55 560.57,-132.7 644.84,-125.35"/>
<polygon fill="#63b8ff" stroke="#63b8ff" points="645.33,-128.82 654.99,-124.47 644.72,-121.85 645.33,-128.82"/>
</a>
</g>
</g>
<!-- Node6 -->
<g id="Node000006" class="node">
<title>Node6</title>
<g id="a_Node000006"><a xlink:href="build__groups_8c.html#a7d0a825b630d787e82f2aad789794b1b" target="_top" xlink:title=" ">
<polygon fill="white" stroke="#666666" points="298.5,-93 228.5,-93 228.5,-74 298.5,-74 298.5,-93"/>
<text text-anchor="middle" x="263.5" y="-81" font-family="Helvetica,sans-Serif" font-size="10.00">set_weight</text>
</a>
</g>
</g>
<!-- Node5&#45;&gt;Node6 -->
<g id="edge5_Node000005_Node000006" class="edge">
<title>Node5&#45;&gt;Node6</title>
<g id="a_edge5_Node000005_Node000006"><a xlink:title=" ">
<path fill="none" stroke="#63b8ff" d="M173.13,-83.5C186.29,-83.5 202.79,-83.5 218.02,-83.5"/>
<polygon fill="#63b8ff" stroke="#63b8ff" points="218.31,-87 228.31,-83.5 218.31,-80 218.31,-87"/>
</a>
</g>
</g>
<!-- Node7 -->
<g id="Node000007" class="node">
<title>Node7</title>
<g id="a_Node000007"><a xlink:href="cosmo_8c.html#a9fbcf5b69c272e801cf320cf814b23c4" target="_top" xlink:title=" ">
<polygon fill="white" stroke="#666666" points="458,-130 374,-130 374,-111 458,-111 458,-130"/>
<text text-anchor="middle" x="416" y="-118" font-family="Helvetica,sans-Serif" font-size="10.00">GrowingMode</text>
</a>
</g>
</g>
<!-- Node6&#45;&gt;Node7 -->
<g id="edge6_Node000006_Node000007" class="edge">
<title>Node6&#45;&gt;Node7</title>
<g id="a_edge6_Node000006_Node000007"><a xlink:title=" ">
<path fill="none" stroke="#63b8ff" d="M298.65,-91.9C318.66,-96.81 344.25,-103.11 366.34,-108.54"/>
<polygon fill="#63b8ff" stroke="#63b8ff" points="365.66,-111.97 376.21,-110.96 367.33,-105.18 365.66,-111.97"/>
</a>
</g>
</g>
<!-- Node9 -->
<g id="Node000009" class="node">
<title>Node9</title>
<g id="a_Node000009"><a xlink:href="cosmo_8c.html#a3d4dfa13b4af53acceb7a040e2517499" target="_top" xlink:title=" ">
<polygon fill="white" stroke="#666666" points="472.5,-93 359.5,-93 359.5,-74 472.5,-74 472.5,-93"/>
<text text-anchor="middle" x="416" y="-81" font-family="Helvetica,sans-Serif" font-size="10.00">GrowingMode_2LPT</text>
</a>
</g>
</g>
<!-- Node6&#45;&gt;Node9 -->
<g id="edge9_Node000006_Node000009" class="edge">
<title>Node6&#45;&gt;Node9</title>
<g id="a_edge9_Node000006_Node000009"><a xlink:title=" ">
<path fill="none" stroke="#63b8ff" d="M298.65,-83.5C313.66,-83.5 331.81,-83.5 349.27,-83.5"/>
<polygon fill="#63b8ff" stroke="#63b8ff" points="349.44,-87 359.44,-83.5 349.44,-80 349.44,-87"/>
</a>
</g>
</g>
<!-- Node10 -->
<g id="Node000010" class="node">
<title>Node10</title>
<g id="a_Node000010"><a xlink:href="cosmo_8c.html#a04db96c36d31fd7c7befb810624260fc" target="_top" xlink:title=" ">
<polygon fill="white" stroke="#666666" points="478,-56 354,-56 354,-37 478,-37 478,-56"/>
<text text-anchor="middle" x="416" y="-44" font-family="Helvetica,sans-Serif" font-size="10.00">GrowingMode_3LPT_1</text>
</a>
</g>
</g>
<!-- Node6&#45;&gt;Node10 -->
<g id="edge11_Node000006_Node000010" class="edge">
<title>Node6&#45;&gt;Node10</title>
<g id="a_edge11_Node000006_Node000010"><a xlink:title=" ">
<path fill="none" stroke="#63b8ff" d="M298.65,-75.1C318.66,-70.19 344.25,-63.89 366.34,-58.46"/>
<polygon fill="#63b8ff" stroke="#63b8ff" points="367.33,-61.82 376.21,-56.04 365.66,-55.03 367.33,-61.82"/>
</a>
</g>
</g>
<!-- Node11 -->
<g id="Node000011" class="node">
<title>Node11</title>
<g id="a_Node000011"><a xlink:href="cosmo_8c.html#a9c8d61128a3d0ab4c73354d0ff8011a1" target="_top" xlink:title=" ">
<polygon fill="white" stroke="#666666" points="478,-19 354,-19 354,0 478,0 478,-19"/>
<text text-anchor="middle" x="416" y="-7" font-family="Helvetica,sans-Serif" font-size="10.00">GrowingMode_3LPT_2</text>
</a>
</g>
</g>
<!-- Node6&#45;&gt;Node11 -->
<g id="edge13_Node000006_Node000011" class="edge">
<title>Node6&#45;&gt;Node11</title>
<g id="a_edge13_Node000006_Node000011"><a xlink:title=" ">
<path fill="none" stroke="#63b8ff" d="M277.21,-73.97C294.02,-61.76 324.92,-40.59 354,-27.5 358.13,-25.64 362.51,-23.91 366.94,-22.32"/>
<polygon fill="#63b8ff" stroke="#63b8ff" points="368.3,-25.56 376.67,-19.07 366.08,-18.92 368.3,-25.56"/>
</a>
</g>
</g>
<!-- Node8 -->
<g id="Node000008" class="node">
<title>Node8</title>
<g id="a_Node000008"><a xlink:href="cosmo_8c.html#a8847e5b8ea1f9c458c8bf9e5f36837a9" target="_top" xlink:title=" ">
<polygon fill="white" stroke="#666666" points="619,-93 514,-93 514,-74 619,-74 619,-93"/>
<text text-anchor="middle" x="566.5" y="-81" font-family="Helvetica,sans-Serif" font-size="10.00">InterpolateGrowth</text>
</a>
</g>
</g>
<!-- Node7&#45;&gt;Node8 -->
<g id="edge7_Node000007_Node000008" class="edge">
<title>Node7&#45;&gt;Node8</title>
<g id="a_edge7_Node000007_Node000008"><a xlink:title=" ">
<path fill="none" stroke="#63b8ff" d="M455.24,-110.97C474.14,-106.26 497.13,-100.53 517.23,-95.53"/>
<polygon fill="#63b8ff" stroke="#63b8ff" points="518.27,-98.87 527.13,-93.06 516.58,-92.08 518.27,-98.87"/>
</a>
</g>
</g>
<!-- Node8&#45;&gt;Node3 -->
<g id="edge8_Node000008_Node000003" class="edge">
<title>Node8&#45;&gt;Node3</title>
<g id="a_edge8_Node000008_Node000003"><a xlink:title=" ">
<path fill="none" stroke="#63b8ff" d="M601.75,-93.03C618.22,-97.61 638.18,-103.16 655.82,-108.07"/>
<polygon fill="#63b8ff" stroke="#63b8ff" points="655.33,-111.57 665.9,-110.88 657.21,-104.82 655.33,-111.57"/>
</a>
</g>
</g>
<!-- Node9&#45;&gt;Node8 -->
<g id="edge10_Node000009_Node000008" class="edge">
<title>Node9&#45;&gt;Node8</title>
<g id="a_edge10_Node000009_Node000008"><a xlink:title=" ">
<path fill="none" stroke="#63b8ff" d="M472.72,-83.5C482.84,-83.5 493.46,-83.5 503.74,-83.5"/>
<polygon fill="#63b8ff" stroke="#63b8ff" points="503.88,-87 513.88,-83.5 503.88,-80 503.88,-87"/>
</a>
</g>
</g>
<!-- Node10&#45;&gt;Node8 -->
<g id="edge12_Node000010_Node000008" class="edge">
<title>Node10&#45;&gt;Node8</title>
<g id="a_edge12_Node000010_Node000008"><a xlink:title=" ">
<path fill="none" stroke="#63b8ff" d="M455.24,-56.03C474.14,-60.74 497.13,-66.47 517.23,-71.47"/>
<polygon fill="#63b8ff" stroke="#63b8ff" points="516.58,-74.92 527.13,-73.94 518.27,-68.13 516.58,-74.92"/>
</a>
</g>
</g>
<!-- Node11&#45;&gt;Node8 -->
<g id="edge14_Node000011_Node000008" class="edge">
<title>Node11&#45;&gt;Node8</title>
<g id="a_edge14_Node000011_Node000008"><a xlink:title=" ">
<path fill="none" stroke="#63b8ff" d="M455.35,-19.02C463,-21.41 470.87,-24.25 478,-27.5 502.31,-38.59 527.79,-55.61 544.95,-67.97"/>
<polygon fill="#63b8ff" stroke="#63b8ff" points="542.97,-70.86 553.11,-73.95 547.11,-65.22 542.97,-70.86"/>
</a>
</g>
</g>
</g>
</svg>
