<?xml version="1.0" encoding="UTF-8" standalone="no"?>
<!DOCTYPE svg PUBLIC "-//W3C//DTD SVG 1.1//EN"
 "http://www.w3.org/Graphics/SVG/1.1/DTD/svg11.dtd">
<!-- Generated by graphviz version 2.43.0 (0)
 -->
<!-- Title: set_weight Pages: 1 -->
<svg width="1063pt" height="393pt"
 viewBox="0.00 0.00 1063.00 392.50" xmlns="http://www.w3.org/2000/svg" xmlns:xlink="http://www.w3.org/1999/xlink">
<g id="graph0" class="graph" transform="scale(1 1) rotate(0) translate(4 388.5)">
<title>set_weight</title>
<!-- Node1 -->
<g id="Node000001" class="node">
<title>Node1</title>
<g id="a_Node000001"><a xlink:title=" ">
<polygon fill="#999999" stroke="#666666" points="1055,-300 985,-300 985,-281 1055,-281 1055,-300"/>
<text text-anchor="middle" x="1020" y="-288" font-family="Helvetica,sans-Serif" font-size="10.00">set_weight</text>
</a>
</g>
</g>
<!-- Node2 -->
<g id="Node000002" class="node">
<title>Node2</title>
<g id="a_Node000002"><a xlink:href="write__mass__maps_8c.html#a6b5d12b44e4049d35c9576ce5d2500ff" target="_top" xlink:title=" ">
<polygon fill="white" stroke="#666666" points="949,-384.5 821,-384.5 821,-354.5 949,-354.5 949,-384.5"/>
<text text-anchor="start" x="829" y="-372.5" font-family="Helvetica,sans-Serif" font-size="10.00">mass_maps_set_point</text>
<text text-anchor="middle" x="885" y="-361.5" font-family="Helvetica,sans-Serif" font-size="10.00">_from_products_global</text>
</a>
</g>
</g>
<!-- Node1&#45;&gt;Node2 -->
<g id="edge1_Node000001_Node000002" class="edge">
<title>Node1&#45;&gt;Node2</title>
<g id="a_edge1_Node000001_Node000002"><a xlink:title=" ">
<path fill="none" stroke="#63b8ff" d="M994.26,-305.19C970.74,-319.17 935.51,-340.09 911.68,-354.25"/>
<polygon fill="#63b8ff" stroke="#63b8ff" points="996.15,-308.15 1002.96,-300.03 992.57,-302.13 996.15,-308.15"/>
</a>
</g>
</g>
<!-- Node7 -->
<g id="Node000007" class="node">
<title>Node7</title>
<g id="a_Node000007"><a xlink:href="build__groups_8c.html#a8ca8a2e49b8887203360635eb02ee79e" target="_top" xlink:title=" ">
<polygon fill="white" stroke="#666666" points="911,-227 859,-227 859,-208 911,-208 911,-227"/>
<text text-anchor="middle" x="885" y="-215" font-family="Helvetica,sans-Serif" font-size="10.00">set_obj</text>
</a>
</g>
</g>
<!-- Node1&#45;&gt;Node7 -->
<g id="edge6_Node000001_Node000007" class="edge">
<title>Node1&#45;&gt;Node7</title>
<g id="a_edge6_Node000001_Node000007"><a xlink:title=" ">
<path fill="none" stroke="#63b8ff" d="M992.53,-275.97C966.05,-261.44 926.1,-239.51 903.39,-227.05"/>
<polygon fill="#63b8ff" stroke="#63b8ff" points="991.16,-279.21 1001.61,-280.96 994.53,-273.08 991.16,-279.21"/>
</a>
</g>
</g>
<!-- Node19 -->
<g id="Node000019" class="node">
<title>Node19</title>
<g id="a_Node000019"><a xlink:href="build__groups_8c.html#a731742e418b2f14b59093e9849636362" target="_top" xlink:title=" ">
<polygon fill="white" stroke="#666666" points="916,-300 854,-300 854,-281 916,-281 916,-300"/>
<text text-anchor="middle" x="885" y="-288" font-family="Helvetica,sans-Serif" font-size="10.00">set_point</text>
</a>
</g>
</g>
<!-- Node1&#45;&gt;Node19 -->
<g id="edge31_Node000001_Node000019" class="edge">
<title>Node1&#45;&gt;Node19</title>
<g id="a_edge31_Node000001_Node000019"><a xlink:title=" ">
<path fill="none" stroke="#63b8ff" d="M974.68,-290.5C955.42,-290.5 933.36,-290.5 916.06,-290.5"/>
<polygon fill="#63b8ff" stroke="#63b8ff" points="974.75,-294 984.75,-290.5 974.75,-287 974.75,-294"/>
</a>
</g>
</g>
<!-- Node3 -->
<g id="Node000003" class="node">
<title>Node3</title>
<g id="a_Node000003"><a xlink:href="write__mass__maps_8c.html#a523d76e3e01c2ce2c7d973cf5ad60cb6" target="_top" xlink:title=" ">
<polygon fill="white" stroke="#666666" points="472,-359 306,-359 306,-340 472,-340 472,-359"/>
<text text-anchor="middle" x="389" y="-347" font-family="Helvetica,sans-Serif" font-size="10.00">mass_maps_process_segment</text>
</a>
</g>
</g>
<!-- Node2&#45;&gt;Node3 -->
<g id="edge2_Node000002_Node000003" class="edge">
<title>Node2&#45;&gt;Node3</title>
<g id="a_edge2_Node000002_Node000003"><a xlink:title=" ">
<path fill="none" stroke="#63b8ff" d="M810.76,-366.53C720.32,-362.87 566.89,-356.66 472.42,-352.84"/>
<polygon fill="#63b8ff" stroke="#63b8ff" points="810.8,-370.04 820.93,-366.95 811.08,-363.04 810.8,-370.04"/>
</a>
</g>
</g>
<!-- Node4 -->
<g id="Node000004" class="node">
<title>Node4</title>
<g id="a_Node000004"><a xlink:href="fragment_8c.html#ac2bb250921932f90f7b0939d1181b66d" target="_top" xlink:title=" ">
<polygon fill="white" stroke="#666666" points="270,-283 208,-283 208,-264 270,-264 270,-283"/>
<text text-anchor="middle" x="239" y="-271" font-family="Helvetica,sans-Serif" font-size="10.00">fragment</text>
</a>
</g>
</g>
<!-- Node3&#45;&gt;Node4 -->
<g id="edge3_Node000003_Node000004" class="edge">
<title>Node3&#45;&gt;Node4</title>
<g id="a_edge3_Node000003_Node000004"><a xlink:title=" ">
<path fill="none" stroke="#63b8ff" d="M360.24,-335.24C330.52,-319.98 284.2,-296.2 258.59,-283.05"/>
<polygon fill="#63b8ff" stroke="#63b8ff" points="358.76,-338.42 369.26,-339.87 361.96,-332.19 358.76,-338.42"/>
</a>
</g>
</g>
<!-- Node5 -->
<g id="Node000005" class="node">
<title>Node5</title>
<g id="a_Node000005"><a xlink:href="fragment_8c.html#ae3aa75d17cbc170e60f4f48c4a2ffdf5" target="_top" xlink:title=" ">
<polygon fill="white" stroke="#666666" points="172,-283 77,-283 77,-264 172,-264 172,-283"/>
<text text-anchor="middle" x="124.5" y="-271" font-family="Helvetica,sans-Serif" font-size="10.00">fragment_driver</text>
</a>
</g>
</g>
<!-- Node4&#45;&gt;Node5 -->
<g id="edge4_Node000004_Node000005" class="edge">
<title>Node4&#45;&gt;Node5</title>
<g id="a_edge4_Node000004_Node000005"><a xlink:title=" ">
<path fill="none" stroke="#63b8ff" d="M197.73,-273.5C189.47,-273.5 180.72,-273.5 172.26,-273.5"/>
<polygon fill="#63b8ff" stroke="#63b8ff" points="197.85,-277 207.85,-273.5 197.85,-270 197.85,-277"/>
</a>
</g>
</g>
<!-- Node6 -->
<g id="Node000006" class="node">
<title>Node6</title>
<g id="a_Node000006"><a xlink:href="pinocchio_8c.html#a647f21a28344e1d9c643f4115516d7c9" target="_top" xlink:title=" ">
<polygon fill="white" stroke="#666666" points="41,-283 0,-283 0,-264 41,-264 41,-283"/>
<text text-anchor="middle" x="20.5" y="-271" font-family="Helvetica,sans-Serif" font-size="10.00">main</text>
</a>
</g>
</g>
<!-- Node5&#45;&gt;Node6 -->
<g id="edge5_Node000005_Node000006" class="edge">
<title>Node5&#45;&gt;Node6</title>
<g id="a_edge5_Node000005_Node000006"><a xlink:title=" ">
<path fill="none" stroke="#63b8ff" d="M66.91,-273.5C57.67,-273.5 48.67,-273.5 41.16,-273.5"/>
<polygon fill="#63b8ff" stroke="#63b8ff" points="66.98,-277 76.98,-273.5 66.98,-270 66.98,-277"/>
</a>
</g>
</g>
<!-- Node8 -->
<g id="Node000008" class="node">
<title>Node8</title>
<g id="a_Node000008"><a xlink:href="build__groups_8c.html#a530b060f5cb84e65a11f345fffd25bd0" target="_top" xlink:title=" ">
<polygon fill="white" stroke="#666666" points="750.5,-319 688.5,-319 688.5,-300 750.5,-300 750.5,-319"/>
<text text-anchor="middle" x="719.5" y="-307" font-family="Helvetica,sans-Serif" font-size="10.00">accretion</text>
</a>
</g>
</g>
<!-- Node7&#45;&gt;Node8 -->
<g id="edge7_Node000007_Node000008" class="edge">
<title>Node7&#45;&gt;Node8</title>
<g id="a_edge7_Node000007_Node000008"><a xlink:title=" ">
<path fill="none" stroke="#63b8ff" d="M866.38,-233.89C847.56,-250.59 816.2,-276.16 785,-291.5 774.25,-296.78 761.71,-300.73 750.56,-303.56"/>
<polygon fill="#63b8ff" stroke="#63b8ff" points="868.8,-236.42 873.88,-227.12 864.11,-231.23 868.8,-236.42"/>
</a>
</g>
</g>
<!-- Node11 -->
<g id="Node000011" class="node">
<title>Node11</title>
<g id="a_Node000011"><a xlink:href="build__groups_8c.html#af69f24bb7de71a95c009a1ec9b9d9081" target="_top" xlink:title=" ">
<polygon fill="white" stroke="#666666" points="785,-282 654,-282 654,-263 785,-263 785,-282"/>
<text text-anchor="middle" x="719.5" y="-270" font-family="Helvetica,sans-Serif" font-size="10.00">condition_for_accretion</text>
</a>
</g>
</g>
<!-- Node7&#45;&gt;Node11 -->
<g id="edge12_Node000007_Node000011" class="edge">
<title>Node7&#45;&gt;Node11</title>
<g id="a_edge12_Node000007_Node000011"><a xlink:title=" ">
<path fill="none" stroke="#63b8ff" d="M849.51,-230.64C830.57,-237.7 806.6,-246.4 785,-253.5 775.13,-256.74 764.33,-260.03 754.43,-262.93"/>
<polygon fill="#63b8ff" stroke="#63b8ff" points="850.79,-233.9 858.92,-227.11 848.33,-227.34 850.79,-233.9"/>
</a>
</g>
</g>
<!-- Node12 -->
<g id="Node000012" class="node">
<title>Node12</title>
<g id="a_Node000012"><a xlink:href="build__groups_8c.html#ac7da2c9afeba949ceefcfd46146d5067" target="_top" xlink:title=" ">
<polygon fill="white" stroke="#666666" points="782.5,-208 656.5,-208 656.5,-189 782.5,-189 782.5,-208"/>
<text text-anchor="middle" x="719.5" y="-196" font-family="Helvetica,sans-Serif" font-size="10.00">condition_for_merging</text>
</a>
</g>
</g>
<!-- Node7&#45;&gt;Node12 -->
<g id="edge15_Node000007_Node000012" class="edge">
<title>Node7&#45;&gt;Node12</title>
<g id="a_edge15_Node000007_Node000012"><a xlink:title=" ">
<path fill="none" stroke="#63b8ff" d="M848.7,-213.4C829.47,-211.16 805.12,-208.33 782.81,-205.74"/>
<polygon fill="#63b8ff" stroke="#63b8ff" points="848.47,-216.9 858.81,-214.57 849.28,-209.94 848.47,-216.9"/>
</a>
</g>
</g>
<!-- Node13 -->
<g id="Node000013" class="node">
<title>Node13</title>
<g id="a_Node000013"><a xlink:href="build__groups_8c.html#a69a7cc51af8af468a60cbbd2894fdb46" target="_top" xlink:title=" ">
<polygon fill="white" stroke="#666666" points="762,-114 677,-114 677,-95 762,-95 762,-114"/>
<text text-anchor="middle" x="719.5" y="-102" font-family="Helvetica,sans-Serif" font-size="10.00">condition_PLC</text>
</a>
</g>
</g>
<!-- Node7&#45;&gt;Node13 -->
<g id="edge18_Node000007_Node000013" class="edge">
<title>Node7&#45;&gt;Node13</title>
<g id="a_edge18_Node000007_Node000013"><a xlink:title=" ">
<path fill="none" stroke="#63b8ff" d="M862.92,-201.97C843.01,-187.39 812.23,-165.11 785,-146.5 768.34,-135.11 748.9,-122.55 735.74,-114.15"/>
<polygon fill="#63b8ff" stroke="#63b8ff" points="860.87,-204.8 871,-207.89 865.01,-199.16 860.87,-204.8"/>
</a>
</g>
</g>
<!-- Node16 -->
<g id="Node000016" class="node">
<title>Node16</title>
<g id="a_Node000016"><a xlink:href="build__groups_8c.html#ac1deaf6b88e43b32cf38f79488b5d54f" target="_top" xlink:title=" ">
<polygon fill="white" stroke="#666666" points="762.5,-245 676.5,-245 676.5,-226 762.5,-226 762.5,-245"/>
<text text-anchor="middle" x="719.5" y="-233" font-family="Helvetica,sans-Serif" font-size="10.00">merge_groups</text>
</a>
</g>
</g>
<!-- Node7&#45;&gt;Node16 -->
<g id="edge24_Node000007_Node000016" class="edge">
<title>Node7&#45;&gt;Node16</title>
<g id="a_edge24_Node000007_Node000016"><a xlink:title=" ">
<path fill="none" stroke="#63b8ff" d="M848.57,-221.4C823.31,-224.18 789.23,-227.93 762.58,-230.87"/>
<polygon fill="#63b8ff" stroke="#63b8ff" points="849.25,-224.85 858.81,-220.27 848.49,-217.89 849.25,-224.85"/>
</a>
</g>
</g>
<!-- Node17 -->
<g id="Node000017" class="node">
<title>Node17</title>
<g id="a_Node000017"><a xlink:href="build__groups_8c.html#adaafe9165f4f93104de87c14939d2c60" target="_top" xlink:title=" ">
<polygon fill="white" stroke="#666666" points="595.5,-19 530.5,-19 530.5,0 595.5,0 595.5,-19"/>
<text text-anchor="middle" x="563" y="-7" font-family="Helvetica,sans-Serif" font-size="10.00">store_PLC</text>
</a>
</g>
</g>
<!-- Node7&#45;&gt;Node17 -->
<g id="edge27_Node000007_Node000017" class="edge">
<title>Node7&#45;&gt;Node17</title>
<g id="a_edge27_Node000007_Node000017"><a xlink:title=" ">
<path fill="none" stroke="#63b8ff" d="M874.68,-198.75C859.61,-170.3 827.28,-116.28 785,-85.5 726.12,-42.64 641.16,-22.52 595.64,-14.32"/>
<polygon fill="#63b8ff" stroke="#63b8ff" points="871.74,-200.7 879.43,-207.99 877.96,-197.49 871.74,-200.7"/>
</a>
</g>
</g>
<!-- Node18 -->
<g id="Node000018" class="node">
<title>Node18</title>
<g id="a_Node000018"><a xlink:href="write__halos_8c.html#a4ae40bdaead20fb1a2a22663d299b9e7" target="_top" xlink:title=" ">
<polygon fill="white" stroke="#666666" points="604.5,-169 521.5,-169 521.5,-150 604.5,-150 604.5,-169"/>
<text text-anchor="middle" x="563" y="-157" font-family="Helvetica,sans-Serif" font-size="10.00">write_catalog</text>
</a>
</g>
</g>
<!-- Node7&#45;&gt;Node18 -->
<g id="edge29_Node000007_Node000018" class="edge">
<title>Node7&#45;&gt;Node18</title>
<g id="a_edge29_Node000007_Node000018"><a xlink:title=" ">
<path fill="none" stroke="#63b8ff" d="M854.85,-203.86C835.48,-195.41 809.24,-185.13 785,-179.5 723.27,-165.15 649.62,-160.99 604.86,-159.84"/>
<polygon fill="#63b8ff" stroke="#63b8ff" points="853.48,-207.08 864.04,-207.95 856.33,-200.69 853.48,-207.08"/>
</a>
</g>
</g>
<!-- Node9 -->
<g id="Node000009" class="node">
<title>Node9</title>
<g id="a_Node000009"><a xlink:href="build__groups_8c.html#a4df1001cc86732388d8ecf04e3372827" target="_top" xlink:title=" ">
<polygon fill="white" stroke="#666666" points="428.5,-188 349.5,-188 349.5,-169 428.5,-169 428.5,-188"/>
<text text-anchor="middle" x="389" y="-176" font-family="Helvetica,sans-Serif" font-size="10.00">build_groups</text>
</a>
</g>
</g>
<!-- Node8&#45;&gt;Node9 -->
<g id="edge8_Node000008_Node000009" class="edge">
<title>Node8&#45;&gt;Node9</title>
<g id="a_edge8_Node000008_Node000009"><a xlink:title=" ">
<path fill="none" stroke="#63b8ff" d="M678.31,-319.16C634.4,-327.61 562.97,-335.09 508,-310.5 449.92,-284.52 408.61,-214.25 394.93,-188.3"/>
<polygon fill="#63b8ff" stroke="#63b8ff" points="679.22,-322.54 688.32,-317.12 677.82,-315.68 679.22,-322.54"/>
</a>
</g>
</g>
<!-- Node10 -->
<g id="Node000010" class="node">
<title>Node10</title>
<g id="a_Node000010"><a xlink:href="build__groups_8c.html#a4c36038b339975ce63e8ac2c89f55208" target="_top" xlink:title=" ">
<polygon fill="white" stroke="#666666" points="618,-283 508,-283 508,-264 618,-264 618,-283"/>
<text text-anchor="middle" x="563" y="-271" font-family="Helvetica,sans-Serif" font-size="10.00">quick_build_groups</text>
</a>
</g>
</g>
<!-- Node8&#45;&gt;Node10 -->
<g id="edge10_Node000008_Node000010" class="edge">
<title>Node8&#45;&gt;Node10</title>
<g id="a_edge10_Node000008_Node000010"><a xlink:title=" ">
<path fill="none" stroke="#63b8ff" d="M678.39,-300.15C655.79,-294.89 627.62,-288.32 604.9,-283.03"/>
<polygon fill="#63b8ff" stroke="#63b8ff" points="677.81,-303.61 688.34,-302.47 679.4,-296.8 677.81,-303.61"/>
</a>
</g>
</g>
<!-- Node9&#45;&gt;Node4 -->
<g id="edge9_Node000009_Node000004" class="edge">
<title>Node9&#45;&gt;Node4</title>
<g id="a_edge9_Node000009_Node000004"><a xlink:title=" ">
<path fill="none" stroke="#63b8ff" d="M364.21,-193.77C333.44,-213.52 280.78,-247.32 255.05,-263.84"/>
<polygon fill="#63b8ff" stroke="#63b8ff" points="366.47,-196.48 372.99,-188.13 362.69,-190.59 366.47,-196.48"/>
</a>
</g>
</g>
<!-- Node10&#45;&gt;Node4 -->
<g id="edge11_Node000010_Node000004" class="edge">
<title>Node10&#45;&gt;Node4</title>
<g id="a_edge11_Node000010_Node000004"><a xlink:title=" ">
<path fill="none" stroke="#63b8ff" d="M497.42,-273.5C428.38,-273.5 321.88,-273.5 270.2,-273.5"/>
<polygon fill="#63b8ff" stroke="#63b8ff" points="497.74,-277 507.74,-273.5 497.74,-270 497.74,-277"/>
</a>
</g>
</g>
<!-- Node11&#45;&gt;Node9 -->
<g id="edge13_Node000011_Node000009" class="edge">
<title>Node11&#45;&gt;Node9</title>
<g id="a_edge13_Node000011_Node000009"><a xlink:title=" ">
<path fill="none" stroke="#63b8ff" d="M669.75,-284.2C653.4,-287.59 635.01,-290.82 618,-292.5 569.35,-297.29 553.33,-310.82 508,-292.5 454.12,-270.73 411.18,-211.26 395.96,-188"/>
<polygon fill="#63b8ff" stroke="#63b8ff" points="670.59,-287.6 679.63,-282.09 669.12,-280.76 670.59,-287.6"/>
</a>
</g>
</g>
<!-- Node11&#45;&gt;Node10 -->
<g id="edge14_Node000011_Node000010" class="edge">
<title>Node11&#45;&gt;Node10</title>
<g id="a_edge14_Node000011_Node000010"><a xlink:title=" ">
<path fill="none" stroke="#63b8ff" d="M643.76,-272.98C635.1,-273.04 626.4,-273.1 618.09,-273.15"/>
<polygon fill="#63b8ff" stroke="#63b8ff" points="643.9,-276.48 653.87,-272.92 643.85,-269.48 643.9,-276.48"/>
</a>
</g>
</g>
<!-- Node12&#45;&gt;Node9 -->
<g id="edge16_Node000012_Node000009" class="edge">
<title>Node12&#45;&gt;Node9</title>
<g id="a_edge16_Node000012_Node000009"><a xlink:title=" ">
<path fill="none" stroke="#63b8ff" d="M646.26,-194.1C579.28,-190.02 482.16,-184.11 428.78,-180.86"/>
<polygon fill="#63b8ff" stroke="#63b8ff" points="646.13,-197.6 656.33,-194.71 646.56,-190.61 646.13,-197.6"/>
</a>
</g>
</g>
<!-- Node12&#45;&gt;Node10 -->
<g id="edge17_Node000012_Node000010" class="edge">
<title>Node12&#45;&gt;Node10</title>
<g id="a_edge17_Node000012_Node000010"><a xlink:title=" ">
<path fill="none" stroke="#63b8ff" d="M667.64,-211.17C662.96,-212.79 658.35,-214.57 654,-216.5 624.42,-229.65 593.23,-251.46 576.45,-263.94"/>
<polygon fill="#63b8ff" stroke="#63b8ff" points="668.82,-214.47 677.26,-208.07 666.67,-207.8 668.82,-214.47"/>
</a>
</g>
</g>
<!-- Node13&#45;&gt;Node9 -->
<g id="edge19_Node000013_Node000009" class="edge">
<title>Node13&#45;&gt;Node9</title>
<g id="a_edge19_Node000013_Node000009"><a xlink:title=" ">
<path fill="none" stroke="#63b8ff" d="M691.58,-90.5C650.61,-71.2 570.75,-41.46 508,-66.5 454.75,-87.75 411.75,-145.72 396.23,-168.82"/>
<polygon fill="#63b8ff" stroke="#63b8ff" points="690.13,-93.69 700.66,-94.91 693.19,-87.4 690.13,-93.69"/>
</a>
</g>
</g>
<!-- Node14 -->
<g id="Node000014" class="node">
<title>Node14</title>
<g id="a_Node000014"><a xlink:href="build__groups_8c.html#a2df593120b6334c80adfd6ac44b0762b" target="_top" xlink:title=" ">
<polygon fill="white" stroke="#666666" points="599.5,-132 526.5,-132 526.5,-113 599.5,-113 599.5,-132"/>
<text text-anchor="middle" x="563" y="-120" font-family="Helvetica,sans-Serif" font-size="10.00">condition_F</text>
</a>
</g>
</g>
<!-- Node13&#45;&gt;Node14 -->
<g id="edge20_Node000013_Node000014" class="edge">
<title>Node13&#45;&gt;Node14</title>
<g id="a_edge20_Node000013_Node000014"><a xlink:title=" ">
<path fill="none" stroke="#63b8ff" d="M666.5,-110.56C644.48,-113.12 619.4,-116.05 599.56,-118.36"/>
<polygon fill="#63b8ff" stroke="#63b8ff" points="667.16,-114 676.69,-109.37 666.35,-107.05 667.16,-114"/>
</a>
</g>
</g>
<!-- Node15 -->
<g id="Node000015" class="node">
<title>Node15</title>
<g id="a_Node000015"><a xlink:href="build__groups_8c.html#a86827bbf037c84cece9492cbbb3cbaef" target="_top" xlink:title=" ">
<polygon fill="white" stroke="#666666" points="595.5,-95 530.5,-95 530.5,-76 595.5,-76 595.5,-95"/>
<text text-anchor="middle" x="563" y="-83" font-family="Helvetica,sans-Serif" font-size="10.00">find_brent</text>
</a>
</g>
</g>
<!-- Node13&#45;&gt;Node15 -->
<g id="edge22_Node000013_Node000015" class="edge">
<title>Node13&#45;&gt;Node15</title>
<g id="a_edge22_Node000013_Node000015"><a xlink:title=" ">
<path fill="none" stroke="#63b8ff" d="M666.51,-98.11C642.98,-95.21 615.95,-91.89 595.55,-89.38"/>
<polygon fill="#63b8ff" stroke="#63b8ff" points="666.34,-101.61 676.69,-99.36 667.19,-94.66 666.34,-101.61"/>
</a>
</g>
</g>
<!-- Node14&#45;&gt;Node9 -->
<g id="edge21_Node000014_Node000009" class="edge">
<title>Node14&#45;&gt;Node9</title>
<g id="a_edge21_Node000014_Node000009"><a xlink:title=" ">
<path fill="none" stroke="#63b8ff" d="M522.66,-135.31C491.14,-145.57 447.65,-159.73 419.18,-169"/>
<polygon fill="#63b8ff" stroke="#63b8ff" points="524.01,-138.55 532.43,-132.13 521.84,-131.89 524.01,-138.55"/>
</a>
</g>
</g>
<!-- Node15&#45;&gt;Node9 -->
<g id="edge23_Node000015_Node000009" class="edge">
<title>Node15&#45;&gt;Node9</title>
<g id="a_edge23_Node000015_Node000009"><a xlink:title=" ">
<path fill="none" stroke="#63b8ff" d="M520.8,-98.06C516.42,-99.74 512.08,-101.56 508,-103.5 467.45,-122.79 423.88,-153.37 402.84,-168.84"/>
<polygon fill="#63b8ff" stroke="#63b8ff" points="522.15,-101.29 530.36,-94.61 519.77,-94.71 522.15,-101.29"/>
</a>
</g>
</g>
<!-- Node16&#45;&gt;Node9 -->
<g id="edge25_Node000016_Node000009" class="edge">
<title>Node16&#45;&gt;Node9</title>
<g id="a_edge25_Node000016_Node000009"><a xlink:title=" ">
<path fill="none" stroke="#63b8ff" d="M666.29,-228.42C623.61,-222.43 561.76,-213.27 508,-203.5 481.42,-198.67 451.67,-192.36 428.69,-187.29"/>
<polygon fill="#63b8ff" stroke="#63b8ff" points="666.06,-231.92 676.45,-229.84 667.03,-224.99 666.06,-231.92"/>
</a>
</g>
</g>
<!-- Node16&#45;&gt;Node10 -->
<g id="edge26_Node000016_Node000010" class="edge">
<title>Node16&#45;&gt;Node10</title>
<g id="a_edge26_Node000016_Node000010"><a xlink:title=" ">
<path fill="none" stroke="#63b8ff" d="M669.55,-247.54C647.96,-252.85 622.96,-259 602.71,-263.98"/>
<polygon fill="#63b8ff" stroke="#63b8ff" points="670.64,-250.88 679.51,-245.09 668.97,-244.08 670.64,-250.88"/>
</a>
</g>
</g>
<!-- Node17&#45;&gt;Node9 -->
<g id="edge28_Node000017_Node000009" class="edge">
<title>Node17&#45;&gt;Node9</title>
<g id="a_edge28_Node000017_Node000009"><a xlink:title=" ">
<path fill="none" stroke="#63b8ff" d="M524.77,-23.25C518.89,-26.2 513.08,-29.61 508,-33.5 454.89,-74.12 410.85,-143.26 395.67,-168.72"/>
<polygon fill="#63b8ff" stroke="#63b8ff" points="526.36,-26.37 533.98,-19.01 523.43,-20.02 526.36,-26.37"/>
</a>
</g>
</g>
<!-- Node18&#45;&gt;Node9 -->
<g id="edge30_Node000018_Node000009" class="edge">
<title>Node18&#45;&gt;Node9</title>
<g id="a_edge30_Node000018_Node000009"><a xlink:title=" ">
<path fill="none" stroke="#63b8ff" d="M511.05,-165.13C484.69,-168.04 453.03,-171.54 428.7,-174.23"/>
<polygon fill="#63b8ff" stroke="#63b8ff" points="511.68,-168.58 521.24,-164 510.91,-161.62 511.68,-168.58"/>
</a>
</g>
</g>
<!-- Node19&#45;&gt;Node8 -->
<g id="edge32_Node000019_Node000008" class="edge">
<title>Node19&#45;&gt;Node8</title>
<g id="a_edge32_Node000019_Node000008"><a xlink:title=" ">
<path fill="none" stroke="#63b8ff" d="M843.5,-295.21C814.76,-298.55 776.81,-302.96 750.71,-305.99"/>
<polygon fill="#63b8ff" stroke="#63b8ff" points="844.1,-298.66 853.63,-294.03 843.29,-291.71 844.1,-298.66"/>
</a>
</g>
</g>
<!-- Node19&#45;&gt;Node11 -->
<g id="edge33_Node000019_Node000011" class="edge">
<title>Node19&#45;&gt;Node11</title>
<g id="a_edge33_Node000019_Node000011"><a xlink:title=" ">
<path fill="none" stroke="#63b8ff" d="M843.2,-286.01C825.69,-284.08 804.79,-281.78 785.25,-279.63"/>
<polygon fill="#63b8ff" stroke="#63b8ff" points="843.31,-289.54 853.63,-287.16 844.07,-282.58 843.31,-289.54"/>
</a>
</g>
</g>
</g>
</svg>
