<?xml version="1.0" encoding="UTF-8" standalone="no"?>
<!DOCTYPE svg PUBLIC "-//W3C//DTD SVG 1.1//EN"
 "http://www.w3.org/Graphics/SVG/1.1/DTD/svg11.dtd">
<!-- Generated by graphviz version 2.43.0 (0)
 -->
<!-- Title: condition_for_accretion Pages: 1 -->
<svg width="591pt" height="64pt"
 viewBox="0.00 0.00 591.00 64.00" xmlns="http://www.w3.org/2000/svg" xmlns:xlink="http://www.w3.org/1999/xlink">
<g id="graph0" class="graph" transform="scale(1 1) rotate(0) translate(4 60)">
<title>condition_for_accretion</title>
<!-- Node1 -->
<g id="Node000001" class="node">
<title>Node1</title>
<g id="a_Node000001"><a xlink:title=" ">
<polygon fill="#999999" stroke="#666666" points="583,-37 452,-37 452,-18 583,-18 583,-37"/>
<text text-anchor="middle" x="517.5" y="-25" font-family="Helvetica,sans-Serif" font-size="10.00">condition_for_accretion</text>
</a>
</g>
</g>
<!-- Node2 -->
<g id="Node000002" class="node">
<title>Node2</title>
<g id="a_Node000002"><a xlink:href="build__groups_8c.html#a4df1001cc86732388d8ecf04e3372827" target="_top" xlink:title=" ">
<polygon fill="white" stroke="#666666" points="400.5,-56 321.5,-56 321.5,-37 400.5,-37 400.5,-56"/>
<text text-anchor="middle" x="361" y="-44" font-family="Helvetica,sans-Serif" font-size="10.00">build_groups</text>
</a>
</g>
</g>
<!-- Node1&#45;&gt;Node2 -->
<g id="edge1_Node000001_Node000002" class="edge">
<title>Node1&#45;&gt;Node2</title>
<g id="a_edge1_Node000001_Node000002"><a xlink:title=" ">
<path fill="none" stroke="#63b8ff" d="M441.63,-36.71C427.49,-38.45 413.25,-40.2 400.79,-41.73"/>
<polygon fill="#63b8ff" stroke="#63b8ff" points="442.38,-40.14 451.87,-35.45 441.52,-33.19 442.38,-40.14"/>
</a>
</g>
</g>
<!-- Node6 -->
<g id="Node000006" class="node">
<title>Node6</title>
<g id="a_Node000006"><a xlink:href="build__groups_8c.html#a4c36038b339975ce63e8ac2c89f55208" target="_top" xlink:title=" ">
<polygon fill="white" stroke="#666666" points="416,-19 306,-19 306,0 416,0 416,-19"/>
<text text-anchor="middle" x="361" y="-7" font-family="Helvetica,sans-Serif" font-size="10.00">quick_build_groups</text>
</a>
</g>
</g>
<!-- Node1&#45;&gt;Node6 -->
<g id="edge5_Node000001_Node000006" class="edge">
<title>Node1&#45;&gt;Node6</title>
<g id="a_edge5_Node000001_Node000006"><a xlink:title=" ">
<path fill="none" stroke="#63b8ff" d="M441.76,-18.79C433.1,-17.78 424.4,-16.77 416.09,-15.8"/>
<polygon fill="#63b8ff" stroke="#63b8ff" points="441.54,-22.29 451.87,-19.97 442.35,-15.34 441.54,-22.29"/>
</a>
</g>
</g>
<!-- Node3 -->
<g id="Node000003" class="node">
<title>Node3</title>
<g id="a_Node000003"><a xlink:href="fragment_8c.html#ac2bb250921932f90f7b0939d1181b66d" target="_top" xlink:title=" ">
<polygon fill="white" stroke="#666666" points="270,-37 208,-37 208,-18 270,-18 270,-37"/>
<text text-anchor="middle" x="239" y="-25" font-family="Helvetica,sans-Serif" font-size="10.00">fragment</text>
</a>
</g>
</g>
<!-- Node2&#45;&gt;Node3 -->
<g id="edge2_Node000002_Node000003" class="edge">
<title>Node2&#45;&gt;Node3</title>
<g id="a_edge2_Node000002_Node000003"><a xlink:title=" ">
<path fill="none" stroke="#63b8ff" d="M311.41,-38.81C297.47,-36.6 282.67,-34.26 270.19,-32.28"/>
<polygon fill="#63b8ff" stroke="#63b8ff" points="310.95,-42.28 321.37,-40.38 312.04,-35.36 310.95,-42.28"/>
</a>
</g>
</g>
<!-- Node4 -->
<g id="Node000004" class="node">
<title>Node4</title>
<g id="a_Node000004"><a xlink:href="fragment_8c.html#ae3aa75d17cbc170e60f4f48c4a2ffdf5" target="_top" xlink:title=" ">
<polygon fill="white" stroke="#666666" points="172,-37 77,-37 77,-18 172,-18 172,-37"/>
<text text-anchor="middle" x="124.5" y="-25" font-family="Helvetica,sans-Serif" font-size="10.00">fragment_driver</text>
</a>
</g>
</g>
<!-- Node3&#45;&gt;Node4 -->
<g id="edge3_Node000003_Node000004" class="edge">
<title>Node3&#45;&gt;Node4</title>
<g id="a_edge3_Node000003_Node000004"><a xlink:title=" ">
<path fill="none" stroke="#63b8ff" d="M197.73,-27.5C189.47,-27.5 180.72,-27.5 172.26,-27.5"/>
<polygon fill="#63b8ff" stroke="#63b8ff" points="197.85,-31 207.85,-27.5 197.85,-24 197.85,-31"/>
</a>
</g>
</g>
<!-- Node5 -->
<g id="Node000005" class="node">
<title>Node5</title>
<g id="a_Node000005"><a xlink:href="pinocchio_8c.html#a647f21a28344e1d9c643f4115516d7c9" target="_top" xlink:title=" ">
<polygon fill="white" stroke="#666666" points="41,-37 0,-37 0,-18 41,-18 41,-37"/>
<text text-anchor="middle" x="20.5" y="-25" font-family="Helvetica,sans-Serif" font-size="10.00">main</text>
</a>
</g>
</g>
<!-- Node4&#45;&gt;Node5 -->
<g id="edge4_Node000004_Node000005" class="edge">
<title>Node4&#45;&gt;Node5</title>
<g id="a_edge4_Node000004_Node000005"><a xlink:title=" ">
<path fill="none" stroke="#63b8ff" d="M66.91,-27.5C57.67,-27.5 48.67,-27.5 41.16,-27.5"/>
<polygon fill="#63b8ff" stroke="#63b8ff" points="66.98,-31 76.98,-27.5 66.98,-24 66.98,-31"/>
</a>
</g>
</g>
<!-- Node6&#45;&gt;Node3 -->
<g id="edge6_Node000006_Node000003" class="edge">
<title>Node6&#45;&gt;Node3</title>
<g id="a_edge6_Node000006_Node000003"><a xlink:title=" ">
<path fill="none" stroke="#63b8ff" d="M295.83,-19.13C286.86,-20.47 278.02,-21.8 270.1,-22.98"/>
<polygon fill="#63b8ff" stroke="#63b8ff" points="296.6,-22.55 305.97,-17.6 295.56,-15.63 296.6,-22.55"/>
</a>
</g>
</g>
</g>
</svg>
