<?xml version="1.0" encoding="UTF-8" standalone="no"?>
<!DOCTYPE svg PUBLIC "-//W3C//DTD SVG 1.1//EN"
 "http://www.w3.org/Graphics/SVG/1.1/DTD/svg11.dtd">
<!-- Generated by graphviz version 2.43.0 (0)
 -->
<!-- Title: condition_for_merging Pages: 1 -->
<svg width="764pt" height="176pt"
 viewBox="0.00 0.00 764.00 176.00" xmlns="http://www.w3.org/2000/svg" xmlns:xlink="http://www.w3.org/1999/xlink">
<g id="graph0" class="graph" transform="scale(1 1) rotate(0) translate(4 172)">
<title>condition_for_merging</title>
<!-- Node1 -->
<g id="Node000001" class="node">
<title>Node1</title>
<g id="a_Node000001"><a xlink:title=" ">
<polygon fill="#999999" stroke="#666666" points="126,-130 0,-130 0,-111 126,-111 126,-130"/>
<text text-anchor="middle" x="63" y="-118" font-family="Helvetica,sans-Serif" font-size="10.00">condition_for_merging</text>
</a>
</g>
</g>
<!-- Node2 -->
<g id="Node000002" class="node">
<title>Node2</title>
<g id="a_Node000002"><a xlink:href="build__groups_8c.html#abb3276e8d440d7dc4a1d969bbae7d5a7" target="_top" xlink:title=" ">
<polygon fill="white" stroke="#666666" points="220,-168 162,-168 162,-149 220,-149 220,-168"/>
<text text-anchor="middle" x="191" y="-156" font-family="Helvetica,sans-Serif" font-size="10.00">distance</text>
</a>
</g>
</g>
<!-- Node1&#45;&gt;Node2 -->
<g id="edge1_Node000001_Node000002" class="edge">
<title>Node1&#45;&gt;Node2</title>
<g id="a_edge1_Node000001_Node000002"><a xlink:title=" ">
<path fill="none" stroke="#63b8ff" d="M95.8,-130.09C112.9,-135.25 134.1,-141.64 152.06,-147.06"/>
<polygon fill="#63b8ff" stroke="#63b8ff" points="151.07,-150.41 161.65,-149.95 153.09,-143.71 151.07,-150.41"/>
</a>
</g>
</g>
<!-- Node4 -->
<g id="Node000004" class="node">
<title>Node4</title>
<g id="a_Node000004"><a xlink:href="build__groups_8c.html#a8ca8a2e49b8887203360635eb02ee79e" target="_top" xlink:title=" ">
<polygon fill="white" stroke="#666666" points="217,-92 165,-92 165,-73 217,-73 217,-92"/>
<text text-anchor="middle" x="191" y="-80" font-family="Helvetica,sans-Serif" font-size="10.00">set_obj</text>
</a>
</g>
</g>
<!-- Node1&#45;&gt;Node4 -->
<g id="edge3_Node000001_Node000004" class="edge">
<title>Node1&#45;&gt;Node4</title>
<g id="a_edge3_Node000001_Node000004"><a xlink:title=" ">
<path fill="none" stroke="#63b8ff" d="M95.8,-110.91C113.96,-105.43 136.76,-98.56 155.38,-92.94"/>
<polygon fill="#63b8ff" stroke="#63b8ff" points="156.4,-96.29 164.97,-90.05 154.38,-89.59 156.4,-96.29"/>
</a>
</g>
</g>
<!-- Node12 -->
<g id="Node000012" class="node">
<title>Node12</title>
<g id="a_Node000012"><a xlink:href="build__groups_8c.html#a2671fec0dc3d042fb488d38f12267cc1" target="_top" xlink:title=" ">
<polygon fill="white" stroke="#666666" points="311.5,-130 270.5,-130 270.5,-111 311.5,-111 311.5,-130"/>
<text text-anchor="middle" x="291" y="-118" font-family="Helvetica,sans-Serif" font-size="10.00">virial</text>
</a>
</g>
</g>
<!-- Node1&#45;&gt;Node12 -->
<g id="edge14_Node000001_Node000012" class="edge">
<title>Node1&#45;&gt;Node12</title>
<g id="a_edge14_Node000001_Node000012"><a xlink:title=" ">
<path fill="none" stroke="#63b8ff" d="M126.05,-120.5C169.68,-120.5 226.12,-120.5 260.12,-120.5"/>
<polygon fill="#63b8ff" stroke="#63b8ff" points="260.32,-124 270.32,-120.5 260.32,-117 260.32,-124"/>
</a>
</g>
</g>
<!-- Node3 -->
<g id="Node000003" class="node">
<title>Node3</title>
<g id="a_Node000003"><a xlink:href="build__groups_8c.html#af25b71527a52752ed24f02b5b4ed6d66" target="_top" xlink:title=" ">
<polygon fill="white" stroke="#666666" points="308.5,-168 273.5,-168 273.5,-149 308.5,-149 308.5,-168"/>
<text text-anchor="middle" x="291" y="-156" font-family="Helvetica,sans-Serif" font-size="10.00">q2x</text>
</a>
</g>
</g>
<!-- Node2&#45;&gt;Node3 -->
<g id="edge2_Node000002_Node000003" class="edge">
<title>Node2&#45;&gt;Node3</title>
<g id="a_edge2_Node000002_Node000003"><a xlink:title=" ">
<path fill="none" stroke="#63b8ff" d="M220.08,-158.5C233.65,-158.5 249.85,-158.5 263.24,-158.5"/>
<polygon fill="#63b8ff" stroke="#63b8ff" points="263.27,-162 273.27,-158.5 263.27,-155 263.27,-162"/>
</a>
</g>
</g>
<!-- Node5 -->
<g id="Node000005" class="node">
<title>Node5</title>
<g id="a_Node000005"><a xlink:href="build__groups_8c.html#a7d0a825b630d787e82f2aad789794b1b" target="_top" xlink:title=" ">
<polygon fill="white" stroke="#666666" points="326,-92 256,-92 256,-73 326,-73 326,-92"/>
<text text-anchor="middle" x="291" y="-80" font-family="Helvetica,sans-Serif" font-size="10.00">set_weight</text>
</a>
</g>
</g>
<!-- Node4&#45;&gt;Node5 -->
<g id="edge4_Node000004_Node000005" class="edge">
<title>Node4&#45;&gt;Node5</title>
<g id="a_edge4_Node000004_Node000005"><a xlink:title=" ">
<path fill="none" stroke="#63b8ff" d="M217.24,-82.5C225.99,-82.5 236.08,-82.5 245.91,-82.5"/>
<polygon fill="#63b8ff" stroke="#63b8ff" points="245.98,-86 255.98,-82.5 245.98,-79 245.98,-86"/>
</a>
</g>
</g>
<!-- Node6 -->
<g id="Node000006" class="node">
<title>Node6</title>
<g id="a_Node000006"><a xlink:href="cosmo_8c.html#a9fbcf5b69c272e801cf320cf814b23c4" target="_top" xlink:title=" ">
<polygon fill="white" stroke="#666666" points="466,-130 382,-130 382,-111 466,-111 466,-130"/>
<text text-anchor="middle" x="424" y="-118" font-family="Helvetica,sans-Serif" font-size="10.00">GrowingMode</text>
</a>
</g>
</g>
<!-- Node5&#45;&gt;Node6 -->
<g id="edge5_Node000005_Node000006" class="edge">
<title>Node5&#45;&gt;Node6</title>
<g id="a_edge5_Node000005_Node000006"><a xlink:title=" ">
<path fill="none" stroke="#63b8ff" d="M325.06,-92.09C341.81,-96.95 362.36,-102.91 380.3,-108.11"/>
<polygon fill="#63b8ff" stroke="#63b8ff" points="379.37,-111.49 389.95,-110.91 381.32,-104.77 379.37,-111.49"/>
</a>
</g>
</g>
<!-- Node9 -->
<g id="Node000009" class="node">
<title>Node9</title>
<g id="a_Node000009"><a xlink:href="cosmo_8c.html#a3d4dfa13b4af53acceb7a040e2517499" target="_top" xlink:title=" ">
<polygon fill="white" stroke="#666666" points="480.5,-93 367.5,-93 367.5,-74 480.5,-74 480.5,-93"/>
<text text-anchor="middle" x="424" y="-81" font-family="Helvetica,sans-Serif" font-size="10.00">GrowingMode_2LPT</text>
</a>
</g>
</g>
<!-- Node5&#45;&gt;Node9 -->
<g id="edge8_Node000005_Node000009" class="edge">
<title>Node5&#45;&gt;Node9</title>
<g id="a_edge8_Node000005_Node000009"><a xlink:title=" ">
<path fill="none" stroke="#63b8ff" d="M326.08,-82.76C335.61,-82.83 346.31,-82.91 357.03,-83"/>
<polygon fill="#63b8ff" stroke="#63b8ff" points="357.25,-86.5 367.28,-83.07 357.3,-79.5 357.25,-86.5"/>
</a>
</g>
</g>
<!-- Node10 -->
<g id="Node000010" class="node">
<title>Node10</title>
<g id="a_Node000010"><a xlink:href="cosmo_8c.html#a04db96c36d31fd7c7befb810624260fc" target="_top" xlink:title=" ">
<polygon fill="white" stroke="#666666" points="486,-56 362,-56 362,-37 486,-37 486,-56"/>
<text text-anchor="middle" x="424" y="-44" font-family="Helvetica,sans-Serif" font-size="10.00">GrowingMode_3LPT_1</text>
</a>
</g>
</g>
<!-- Node5&#45;&gt;Node10 -->
<g id="edge10_Node000005_Node000010" class="edge">
<title>Node5&#45;&gt;Node10</title>
<g id="a_edge10_Node000005_Node000010"><a xlink:title=" ">
<path fill="none" stroke="#63b8ff" d="M326.08,-73.14C342.05,-68.75 361.28,-63.46 378.39,-58.76"/>
<polygon fill="#63b8ff" stroke="#63b8ff" points="379.47,-62.09 388.18,-56.07 377.61,-55.34 379.47,-62.09"/>
</a>
</g>
</g>
<!-- Node11 -->
<g id="Node000011" class="node">
<title>Node11</title>
<g id="a_Node000011"><a xlink:href="cosmo_8c.html#a9c8d61128a3d0ab4c73354d0ff8011a1" target="_top" xlink:title=" ">
<polygon fill="white" stroke="#666666" points="486,-19 362,-19 362,0 486,0 486,-19"/>
<text text-anchor="middle" x="424" y="-7" font-family="Helvetica,sans-Serif" font-size="10.00">GrowingMode_3LPT_2</text>
</a>
</g>
</g>
<!-- Node5&#45;&gt;Node11 -->
<g id="edge12_Node000005_Node000011" class="edge">
<title>Node5&#45;&gt;Node11</title>
<g id="a_edge12_Node000005_Node000011"><a xlink:title=" ">
<path fill="none" stroke="#63b8ff" d="M301.59,-72.98C314.35,-60.81 338.1,-39.83 362,-27.5 365.54,-25.67 369.3,-24 373.14,-22.48"/>
<polygon fill="#63b8ff" stroke="#63b8ff" points="374.56,-25.69 382.77,-19 372.18,-19.11 374.56,-25.69"/>
</a>
</g>
</g>
<!-- Node7 -->
<g id="Node000007" class="node">
<title>Node7</title>
<g id="a_Node000007"><a xlink:href="cosmo_8c.html#a8847e5b8ea1f9c458c8bf9e5f36837a9" target="_top" xlink:title=" ">
<polygon fill="white" stroke="#666666" points="627,-74 522,-74 522,-55 627,-55 627,-74"/>
<text text-anchor="middle" x="574.5" y="-62" font-family="Helvetica,sans-Serif" font-size="10.00">InterpolateGrowth</text>
</a>
</g>
</g>
<!-- Node6&#45;&gt;Node7 -->
<g id="edge6_Node000006_Node000007" class="edge">
<title>Node6&#45;&gt;Node7</title>
<g id="a_edge6_Node000006_Node000007"><a xlink:title=" ">
<path fill="none" stroke="#63b8ff" d="M457.81,-110.93C466.99,-108.08 476.94,-104.82 486,-101.5 505.29,-94.44 526.52,-85.49 543.24,-78.16"/>
<polygon fill="#63b8ff" stroke="#63b8ff" points="544.78,-81.3 552.51,-74.06 541.95,-74.9 544.78,-81.3"/>
</a>
</g>
</g>
<!-- Node8 -->
<g id="Node000008" class="node">
<title>Node8</title>
<g id="a_Node000008"><a xlink:href="cosmo_8c.html#a6341f5394ed17a00dc77c5519b292ae3" target="_top" xlink:title=" ">
<polygon fill="white" stroke="#666666" points="756,-74 663,-74 663,-55 756,-55 756,-74"/>
<text text-anchor="middle" x="709.5" y="-62" font-family="Helvetica,sans-Serif" font-size="10.00">my_spline_eval</text>
</a>
</g>
</g>
<!-- Node7&#45;&gt;Node8 -->
<g id="edge7_Node000007_Node000008" class="edge">
<title>Node7&#45;&gt;Node8</title>
<g id="a_edge7_Node000007_Node000008"><a xlink:title=" ">
<path fill="none" stroke="#63b8ff" d="M627.3,-64.5C635.6,-64.5 644.22,-64.5 652.6,-64.5"/>
<polygon fill="#63b8ff" stroke="#63b8ff" points="652.68,-68 662.68,-64.5 652.68,-61 652.68,-68"/>
</a>
</g>
</g>
<!-- Node9&#45;&gt;Node7 -->
<g id="edge9_Node000009_Node000007" class="edge">
<title>Node9&#45;&gt;Node7</title>
<g id="a_edge9_Node000009_Node000007"><a xlink:title=" ">
<path fill="none" stroke="#63b8ff" d="M480.72,-76.37C490.84,-75.08 501.46,-73.72 511.74,-72.4"/>
<polygon fill="#63b8ff" stroke="#63b8ff" points="512.41,-75.84 521.88,-71.1 511.52,-68.9 512.41,-75.84"/>
</a>
</g>
</g>
<!-- Node10&#45;&gt;Node7 -->
<g id="edge11_Node000010_Node000007" class="edge">
<title>Node10&#45;&gt;Node7</title>
<g id="a_edge11_Node000010_Node000007"><a xlink:title=" ">
<path fill="none" stroke="#63b8ff" d="M486.26,-53.93C494.66,-54.94 503.3,-55.99 511.72,-57.01"/>
<polygon fill="#63b8ff" stroke="#63b8ff" points="511.49,-60.51 521.84,-58.24 512.34,-53.56 511.49,-60.51"/>
</a>
</g>
</g>
<!-- Node11&#45;&gt;Node7 -->
<g id="edge13_Node000011_Node000007" class="edge">
<title>Node11&#45;&gt;Node7</title>
<g id="a_edge13_Node000011_Node000007"><a xlink:title=" ">
<path fill="none" stroke="#63b8ff" d="M459.74,-19.01C468.38,-21.58 477.58,-24.49 486,-27.5 505.34,-34.42 526.58,-43.36 543.28,-50.73"/>
<polygon fill="#63b8ff" stroke="#63b8ff" points="541.99,-53.98 552.55,-54.85 544.83,-47.59 541.99,-53.98"/>
</a>
</g>
</g>
<!-- Node12&#45;&gt;Node6 -->
<g id="edge15_Node000012_Node000006" class="edge">
<title>Node12&#45;&gt;Node6</title>
<g id="a_edge15_Node000012_Node000006"><a xlink:title=" ">
<path fill="none" stroke="#63b8ff" d="M311.61,-120.5C327.5,-120.5 350.62,-120.5 371.69,-120.5"/>
<polygon fill="#63b8ff" stroke="#63b8ff" points="371.83,-124 381.83,-120.5 371.83,-117 371.83,-124"/>
</a>
</g>
</g>
</g>
</svg>
