<?xml version="1.0" encoding="UTF-8" standalone="no"?>
<!DOCTYPE svg PUBLIC "-//W3C//DTD SVG 1.1//EN"
 "http://www.w3.org/Graphics/SVG/1.1/DTD/svg11.dtd">
<!-- Generated by graphviz version 2.43.0 (0)
 -->
<!-- Title: condition_F Pages: 1 -->
<svg width="865pt" height="176pt"
 viewBox="0.00 0.00 865.00 176.00" xmlns="http://www.w3.org/2000/svg" xmlns:xlink="http://www.w3.org/1999/xlink">
<g id="graph0" class="graph" transform="scale(1 1) rotate(0) translate(4 172)">
<title>condition_F</title>
<!-- Node1 -->
<g id="Node000001" class="node">
<title>Node1</title>
<g id="a_Node000001"><a xlink:title=" ">
<polygon fill="#999999" stroke="#666666" points="73,-130 0,-130 0,-111 73,-111 73,-130"/>
<text text-anchor="middle" x="36.5" y="-118" font-family="Helvetica,sans-Serif" font-size="10.00">condition_F</text>
</a>
</g>
</g>
<!-- Node2 -->
<g id="Node000002" class="node">
<title>Node2</title>
<g id="a_Node000002"><a xlink:href="build__groups_8c.html#a69a7cc51af8af468a60cbbd2894fdb46" target="_top" xlink:title=" ">
<polygon fill="white" stroke="#666666" points="194,-130 109,-130 109,-111 194,-111 194,-130"/>
<text text-anchor="middle" x="151.5" y="-118" font-family="Helvetica,sans-Serif" font-size="10.00">condition_PLC</text>
</a>
</g>
</g>
<!-- Node1&#45;&gt;Node2 -->
<g id="edge1_Node000001_Node000002" class="edge">
<title>Node1&#45;&gt;Node2</title>
<g id="a_edge1_Node000001_Node000002"><a xlink:title=" ">
<path fill="none" stroke="#63b8ff" d="M73.25,-120.5C81.25,-120.5 89.9,-120.5 98.4,-120.5"/>
<polygon fill="#63b8ff" stroke="#63b8ff" points="98.66,-124 108.66,-120.5 98.66,-117 98.66,-124"/>
</a>
</g>
</g>
<!-- Node3 -->
<g id="Node000003" class="node">
<title>Node3</title>
<g id="a_Node000003"><a xlink:href="cosmo_8c.html#aa3beda8770f3f4e1b00e486bb647edc5" target="_top" xlink:title=" ">
<polygon fill="white" stroke="#666666" points="427,-168 318,-168 318,-149 427,-149 427,-168"/>
<text text-anchor="middle" x="372.5" y="-156" font-family="Helvetica,sans-Serif" font-size="10.00">ComovingDistance</text>
</a>
</g>
</g>
<!-- Node2&#45;&gt;Node3 -->
<g id="edge2_Node000002_Node000003" class="edge">
<title>Node2&#45;&gt;Node3</title>
<g id="a_edge2_Node000002_Node000003"><a xlink:title=" ">
<path fill="none" stroke="#63b8ff" d="M187.82,-130C200.99,-133.32 216.12,-136.87 230,-139.5 255.25,-144.28 283.26,-148.3 307.65,-151.4"/>
<polygon fill="#63b8ff" stroke="#63b8ff" points="307.51,-154.91 317.87,-152.67 308.37,-147.96 307.51,-154.91"/>
</a>
</g>
</g>
<!-- Node5 -->
<g id="Node000005" class="node">
<title>Node5</title>
<g id="a_Node000005"><a xlink:href="build__groups_8c.html#af25b71527a52752ed24f02b5b4ed6d66" target="_top" xlink:title=" ">
<polygon fill="white" stroke="#666666" points="273.5,-130 238.5,-130 238.5,-111 273.5,-111 273.5,-130"/>
<text text-anchor="middle" x="256" y="-118" font-family="Helvetica,sans-Serif" font-size="10.00">q2x</text>
</a>
</g>
</g>
<!-- Node2&#45;&gt;Node5 -->
<g id="edge4_Node000002_Node000005" class="edge">
<title>Node2&#45;&gt;Node5</title>
<g id="a_edge4_Node000002_Node000005"><a xlink:title=" ">
<path fill="none" stroke="#63b8ff" d="M194.19,-120.5C205.71,-120.5 217.89,-120.5 228.31,-120.5"/>
<polygon fill="#63b8ff" stroke="#63b8ff" points="228.42,-124 238.42,-120.5 228.42,-117 228.42,-124"/>
</a>
</g>
</g>
<!-- Node6 -->
<g id="Node000006" class="node">
<title>Node6</title>
<g id="a_Node000006"><a xlink:href="build__groups_8c.html#a8ca8a2e49b8887203360635eb02ee79e" target="_top" xlink:title=" ">
<polygon fill="white" stroke="#666666" points="282,-93 230,-93 230,-74 282,-74 282,-93"/>
<text text-anchor="middle" x="256" y="-81" font-family="Helvetica,sans-Serif" font-size="10.00">set_obj</text>
</a>
</g>
</g>
<!-- Node2&#45;&gt;Node6 -->
<g id="edge5_Node000002_Node000006" class="edge">
<title>Node2&#45;&gt;Node6</title>
<g id="a_edge5_Node000002_Node000006"><a xlink:title=" ">
<path fill="none" stroke="#63b8ff" d="M178.9,-110.97C191.5,-106.42 206.74,-100.92 220.27,-96.04"/>
<polygon fill="#63b8ff" stroke="#63b8ff" points="221.54,-99.3 229.75,-92.61 219.16,-92.72 221.54,-99.3"/>
</a>
</g>
</g>
<!-- Node4 -->
<g id="Node000004" class="node">
<title>Node4</title>
<g id="a_Node000004"><a xlink:href="cosmo_8c.html#a6341f5394ed17a00dc77c5519b292ae3" target="_top" xlink:title=" ">
<polygon fill="white" stroke="#666666" points="857,-130 764,-130 764,-111 857,-111 857,-130"/>
<text text-anchor="middle" x="810.5" y="-118" font-family="Helvetica,sans-Serif" font-size="10.00">my_spline_eval</text>
</a>
</g>
</g>
<!-- Node3&#45;&gt;Node4 -->
<g id="edge3_Node000003_Node000004" class="edge">
<title>Node3&#45;&gt;Node4</title>
<g id="a_edge3_Node000003_Node000004"><a xlink:title=" ">
<path fill="none" stroke="#63b8ff" d="M427.4,-153.8C510.62,-146.55 669.57,-132.7 753.84,-125.35"/>
<polygon fill="#63b8ff" stroke="#63b8ff" points="754.33,-128.82 763.99,-124.47 753.72,-121.85 754.33,-128.82"/>
</a>
</g>
</g>
<!-- Node7 -->
<g id="Node000007" class="node">
<title>Node7</title>
<g id="a_Node000007"><a xlink:href="build__groups_8c.html#a7d0a825b630d787e82f2aad789794b1b" target="_top" xlink:title=" ">
<polygon fill="white" stroke="#666666" points="407.5,-93 337.5,-93 337.5,-74 407.5,-74 407.5,-93"/>
<text text-anchor="middle" x="372.5" y="-81" font-family="Helvetica,sans-Serif" font-size="10.00">set_weight</text>
</a>
</g>
</g>
<!-- Node6&#45;&gt;Node7 -->
<g id="edge6_Node000006_Node000007" class="edge">
<title>Node6&#45;&gt;Node7</title>
<g id="a_edge6_Node000006_Node000007"><a xlink:title=" ">
<path fill="none" stroke="#63b8ff" d="M282.13,-83.5C295.29,-83.5 311.79,-83.5 327.02,-83.5"/>
<polygon fill="#63b8ff" stroke="#63b8ff" points="327.31,-87 337.31,-83.5 327.31,-80 327.31,-87"/>
</a>
</g>
</g>
<!-- Node8 -->
<g id="Node000008" class="node">
<title>Node8</title>
<g id="a_Node000008"><a xlink:href="cosmo_8c.html#a9fbcf5b69c272e801cf320cf814b23c4" target="_top" xlink:title=" ">
<polygon fill="white" stroke="#666666" points="567,-130 483,-130 483,-111 567,-111 567,-130"/>
<text text-anchor="middle" x="525" y="-118" font-family="Helvetica,sans-Serif" font-size="10.00">GrowingMode</text>
</a>
</g>
</g>
<!-- Node7&#45;&gt;Node8 -->
<g id="edge7_Node000007_Node000008" class="edge">
<title>Node7&#45;&gt;Node8</title>
<g id="a_edge7_Node000007_Node000008"><a xlink:title=" ">
<path fill="none" stroke="#63b8ff" d="M407.65,-91.9C427.66,-96.81 453.25,-103.11 475.34,-108.54"/>
<polygon fill="#63b8ff" stroke="#63b8ff" points="474.66,-111.97 485.21,-110.96 476.33,-105.18 474.66,-111.97"/>
</a>
</g>
</g>
<!-- Node10 -->
<g id="Node000010" class="node">
<title>Node10</title>
<g id="a_Node000010"><a xlink:href="cosmo_8c.html#a3d4dfa13b4af53acceb7a040e2517499" target="_top" xlink:title=" ">
<polygon fill="white" stroke="#666666" points="581.5,-93 468.5,-93 468.5,-74 581.5,-74 581.5,-93"/>
<text text-anchor="middle" x="525" y="-81" font-family="Helvetica,sans-Serif" font-size="10.00">GrowingMode_2LPT</text>
</a>
</g>
</g>
<!-- Node7&#45;&gt;Node10 -->
<g id="edge10_Node000007_Node000010" class="edge">
<title>Node7&#45;&gt;Node10</title>
<g id="a_edge10_Node000007_Node000010"><a xlink:title=" ">
<path fill="none" stroke="#63b8ff" d="M407.65,-83.5C422.66,-83.5 440.81,-83.5 458.27,-83.5"/>
<polygon fill="#63b8ff" stroke="#63b8ff" points="458.44,-87 468.44,-83.5 458.44,-80 458.44,-87"/>
</a>
</g>
</g>
<!-- Node11 -->
<g id="Node000011" class="node">
<title>Node11</title>
<g id="a_Node000011"><a xlink:href="cosmo_8c.html#a04db96c36d31fd7c7befb810624260fc" target="_top" xlink:title=" ">
<polygon fill="white" stroke="#666666" points="587,-56 463,-56 463,-37 587,-37 587,-56"/>
<text text-anchor="middle" x="525" y="-44" font-family="Helvetica,sans-Serif" font-size="10.00">GrowingMode_3LPT_1</text>
</a>
</g>
</g>
<!-- Node7&#45;&gt;Node11 -->
<g id="edge12_Node000007_Node000011" class="edge">
<title>Node7&#45;&gt;Node11</title>
<g id="a_edge12_Node000007_Node000011"><a xlink:title=" ">
<path fill="none" stroke="#63b8ff" d="M407.65,-75.1C427.66,-70.19 453.25,-63.89 475.34,-58.46"/>
<polygon fill="#63b8ff" stroke="#63b8ff" points="476.33,-61.82 485.21,-56.04 474.66,-55.03 476.33,-61.82"/>
</a>
</g>
</g>
<!-- Node12 -->
<g id="Node000012" class="node">
<title>Node12</title>
<g id="a_Node000012"><a xlink:href="cosmo_8c.html#a9c8d61128a3d0ab4c73354d0ff8011a1" target="_top" xlink:title=" ">
<polygon fill="white" stroke="#666666" points="587,-19 463,-19 463,0 587,0 587,-19"/>
<text text-anchor="middle" x="525" y="-7" font-family="Helvetica,sans-Serif" font-size="10.00">GrowingMode_3LPT_2</text>
</a>
</g>
</g>
<!-- Node7&#45;&gt;Node12 -->
<g id="edge14_Node000007_Node000012" class="edge">
<title>Node7&#45;&gt;Node12</title>
<g id="a_edge14_Node000007_Node000012"><a xlink:title=" ">
<path fill="none" stroke="#63b8ff" d="M386.21,-73.97C403.02,-61.76 433.92,-40.59 463,-27.5 467.13,-25.64 471.51,-23.91 475.94,-22.32"/>
<polygon fill="#63b8ff" stroke="#63b8ff" points="477.3,-25.56 485.67,-19.07 475.08,-18.92 477.3,-25.56"/>
</a>
</g>
</g>
<!-- Node9 -->
<g id="Node000009" class="node">
<title>Node9</title>
<g id="a_Node000009"><a xlink:href="cosmo_8c.html#a8847e5b8ea1f9c458c8bf9e5f36837a9" target="_top" xlink:title=" ">
<polygon fill="white" stroke="#666666" points="728,-93 623,-93 623,-74 728,-74 728,-93"/>
<text text-anchor="middle" x="675.5" y="-81" font-family="Helvetica,sans-Serif" font-size="10.00">InterpolateGrowth</text>
</a>
</g>
</g>
<!-- Node8&#45;&gt;Node9 -->
<g id="edge8_Node000008_Node000009" class="edge">
<title>Node8&#45;&gt;Node9</title>
<g id="a_edge8_Node000008_Node000009"><a xlink:title=" ">
<path fill="none" stroke="#63b8ff" d="M564.24,-110.97C583.14,-106.26 606.13,-100.53 626.23,-95.53"/>
<polygon fill="#63b8ff" stroke="#63b8ff" points="627.27,-98.87 636.13,-93.06 625.58,-92.08 627.27,-98.87"/>
</a>
</g>
</g>
<!-- Node9&#45;&gt;Node4 -->
<g id="edge9_Node000009_Node000004" class="edge">
<title>Node9&#45;&gt;Node4</title>
<g id="a_edge9_Node000009_Node000004"><a xlink:title=" ">
<path fill="none" stroke="#63b8ff" d="M710.75,-93.03C727.22,-97.61 747.18,-103.16 764.82,-108.07"/>
<polygon fill="#63b8ff" stroke="#63b8ff" points="764.33,-111.57 774.9,-110.88 766.21,-104.82 764.33,-111.57"/>
</a>
</g>
</g>
<!-- Node10&#45;&gt;Node9 -->
<g id="edge11_Node000010_Node000009" class="edge">
<title>Node10&#45;&gt;Node9</title>
<g id="a_edge11_Node000010_Node000009"><a xlink:title=" ">
<path fill="none" stroke="#63b8ff" d="M581.72,-83.5C591.84,-83.5 602.46,-83.5 612.74,-83.5"/>
<polygon fill="#63b8ff" stroke="#63b8ff" points="612.88,-87 622.88,-83.5 612.88,-80 612.88,-87"/>
</a>
</g>
</g>
<!-- Node11&#45;&gt;Node9 -->
<g id="edge13_Node000011_Node000009" class="edge">
<title>Node11&#45;&gt;Node9</title>
<g id="a_edge13_Node000011_Node000009"><a xlink:title=" ">
<path fill="none" stroke="#63b8ff" d="M564.24,-56.03C583.14,-60.74 606.13,-66.47 626.23,-71.47"/>
<polygon fill="#63b8ff" stroke="#63b8ff" points="625.58,-74.92 636.13,-73.94 627.27,-68.13 625.58,-74.92"/>
</a>
</g>
</g>
<!-- Node12&#45;&gt;Node9 -->
<g id="edge15_Node000012_Node000009" class="edge">
<title>Node12&#45;&gt;Node9</title>
<g id="a_edge15_Node000012_Node000009"><a xlink:title=" ">
<path fill="none" stroke="#63b8ff" d="M564.35,-19.02C572,-21.41 579.87,-24.25 587,-27.5 611.31,-38.59 636.79,-55.61 653.95,-67.97"/>
<polygon fill="#63b8ff" stroke="#63b8ff" points="651.97,-70.86 662.11,-73.95 656.11,-65.22 651.97,-70.86"/>
</a>
</g>
</g>
</g>
</svg>
