<?xml version="1.0" encoding="UTF-8" standalone="no"?>
<!DOCTYPE svg PUBLIC "-//W3C//DTD SVG 1.1//EN"
 "http://www.w3.org/Graphics/SVG/1.1/DTD/svg11.dtd">
<!-- Generated by graphviz version 2.43.0 (0)
 -->
<!-- Title: virial Pages: 1 -->
<svg width="668pt" height="64pt"
 viewBox="0.00 0.00 668.00 64.00" xmlns="http://www.w3.org/2000/svg" xmlns:xlink="http://www.w3.org/1999/xlink">
<g id="graph0" class="graph" transform="scale(1 1) rotate(0) translate(4 60)">
<title>virial</title>
<!-- Node1 -->
<g id="Node000001" class="node">
<title>Node1</title>
<g id="a_Node000001"><a xlink:title=" ">
<polygon fill="#999999" stroke="#666666" points="660,-37 619,-37 619,-18 660,-18 660,-37"/>
<text text-anchor="middle" x="639.5" y="-25" font-family="Helvetica,sans-Serif" font-size="10.00">virial</text>
</a>
</g>
</g>
<!-- Node2 -->
<g id="Node000002" class="node">
<title>Node2</title>
<g id="a_Node000002"><a xlink:href="build__groups_8c.html#af69f24bb7de71a95c009a1ec9b9d9081" target="_top" xlink:title=" ">
<polygon fill="white" stroke="#666666" points="583,-56 452,-56 452,-37 583,-37 583,-56"/>
<text text-anchor="middle" x="517.5" y="-44" font-family="Helvetica,sans-Serif" font-size="10.00">condition_for_accretion</text>
</a>
</g>
</g>
<!-- Node1&#45;&gt;Node2 -->
<g id="edge1_Node000001_Node000002" class="edge">
<title>Node1&#45;&gt;Node2</title>
<g id="a_edge1_Node000001_Node000002"><a xlink:title=" ">
<path fill="none" stroke="#63b8ff" d="M608.85,-32.19C599.68,-33.65 589.22,-35.3 578.76,-36.96"/>
<polygon fill="#63b8ff" stroke="#63b8ff" points="609.62,-35.62 618.95,-30.59 608.53,-28.7 609.62,-35.62"/>
</a>
</g>
</g>
<!-- Node8 -->
<g id="Node000008" class="node">
<title>Node8</title>
<g id="a_Node000008"><a xlink:href="build__groups_8c.html#ac7da2c9afeba949ceefcfd46146d5067" target="_top" xlink:title=" ">
<polygon fill="white" stroke="#666666" points="580.5,-19 454.5,-19 454.5,0 580.5,0 580.5,-19"/>
<text text-anchor="middle" x="517.5" y="-7" font-family="Helvetica,sans-Serif" font-size="10.00">condition_for_merging</text>
</a>
</g>
</g>
<!-- Node1&#45;&gt;Node8 -->
<g id="edge8_Node000001_Node000008" class="edge">
<title>Node1&#45;&gt;Node8</title>
<g id="a_edge8_Node000001_Node000008"><a xlink:title=" ">
<path fill="none" stroke="#63b8ff" d="M609.02,-23.08C600.34,-21.78 590.5,-20.3 580.59,-18.81"/>
<polygon fill="#63b8ff" stroke="#63b8ff" points="608.54,-26.55 618.95,-24.57 609.58,-19.62 608.54,-26.55"/>
</a>
</g>
</g>
<!-- Node3 -->
<g id="Node000003" class="node">
<title>Node3</title>
<g id="a_Node000003"><a xlink:href="build__groups_8c.html#a4df1001cc86732388d8ecf04e3372827" target="_top" xlink:title=" ">
<polygon fill="white" stroke="#666666" points="400.5,-56 321.5,-56 321.5,-37 400.5,-37 400.5,-56"/>
<text text-anchor="middle" x="361" y="-44" font-family="Helvetica,sans-Serif" font-size="10.00">build_groups</text>
</a>
</g>
</g>
<!-- Node2&#45;&gt;Node3 -->
<g id="edge2_Node000002_Node000003" class="edge">
<title>Node2&#45;&gt;Node3</title>
<g id="a_edge2_Node000002_Node000003"><a xlink:title=" ">
<path fill="none" stroke="#63b8ff" d="M441.63,-46.5C427.49,-46.5 413.25,-46.5 400.79,-46.5"/>
<polygon fill="#63b8ff" stroke="#63b8ff" points="441.87,-50 451.87,-46.5 441.87,-43 441.87,-50"/>
</a>
</g>
</g>
<!-- Node7 -->
<g id="Node000007" class="node">
<title>Node7</title>
<g id="a_Node000007"><a xlink:href="build__groups_8c.html#a4c36038b339975ce63e8ac2c89f55208" target="_top" xlink:title=" ">
<polygon fill="white" stroke="#666666" points="416,-19 306,-19 306,0 416,0 416,-19"/>
<text text-anchor="middle" x="361" y="-7" font-family="Helvetica,sans-Serif" font-size="10.00">quick_build_groups</text>
</a>
</g>
</g>
<!-- Node2&#45;&gt;Node7 -->
<g id="edge6_Node000002_Node000007" class="edge">
<title>Node2&#45;&gt;Node7</title>
<g id="a_edge6_Node000002_Node000007"><a xlink:title=" ">
<path fill="none" stroke="#63b8ff" d="M466.7,-34.57C445.75,-29.56 421.69,-23.79 401.92,-19.06"/>
<polygon fill="#63b8ff" stroke="#63b8ff" points="466.17,-38.05 476.71,-36.97 467.8,-31.24 466.17,-38.05"/>
</a>
</g>
</g>
<!-- Node4 -->
<g id="Node000004" class="node">
<title>Node4</title>
<g id="a_Node000004"><a xlink:href="fragment_8c.html#ac2bb250921932f90f7b0939d1181b66d" target="_top" xlink:title=" ">
<polygon fill="white" stroke="#666666" points="270,-37 208,-37 208,-18 270,-18 270,-37"/>
<text text-anchor="middle" x="239" y="-25" font-family="Helvetica,sans-Serif" font-size="10.00">fragment</text>
</a>
</g>
</g>
<!-- Node3&#45;&gt;Node4 -->
<g id="edge3_Node000003_Node000004" class="edge">
<title>Node3&#45;&gt;Node4</title>
<g id="a_edge3_Node000003_Node000004"><a xlink:title=" ">
<path fill="none" stroke="#63b8ff" d="M311.41,-38.81C297.47,-36.6 282.67,-34.26 270.19,-32.28"/>
<polygon fill="#63b8ff" stroke="#63b8ff" points="310.95,-42.28 321.37,-40.38 312.04,-35.36 310.95,-42.28"/>
</a>
</g>
</g>
<!-- Node5 -->
<g id="Node000005" class="node">
<title>Node5</title>
<g id="a_Node000005"><a xlink:href="fragment_8c.html#ae3aa75d17cbc170e60f4f48c4a2ffdf5" target="_top" xlink:title=" ">
<polygon fill="white" stroke="#666666" points="172,-37 77,-37 77,-18 172,-18 172,-37"/>
<text text-anchor="middle" x="124.5" y="-25" font-family="Helvetica,sans-Serif" font-size="10.00">fragment_driver</text>
</a>
</g>
</g>
<!-- Node4&#45;&gt;Node5 -->
<g id="edge4_Node000004_Node000005" class="edge">
<title>Node4&#45;&gt;Node5</title>
<g id="a_edge4_Node000004_Node000005"><a xlink:title=" ">
<path fill="none" stroke="#63b8ff" d="M197.73,-27.5C189.47,-27.5 180.72,-27.5 172.26,-27.5"/>
<polygon fill="#63b8ff" stroke="#63b8ff" points="197.85,-31 207.85,-27.5 197.85,-24 197.85,-31"/>
</a>
</g>
</g>
<!-- Node6 -->
<g id="Node000006" class="node">
<title>Node6</title>
<g id="a_Node000006"><a xlink:href="pinocchio_8c.html#a647f21a28344e1d9c643f4115516d7c9" target="_top" xlink:title=" ">
<polygon fill="white" stroke="#666666" points="41,-37 0,-37 0,-18 41,-18 41,-37"/>
<text text-anchor="middle" x="20.5" y="-25" font-family="Helvetica,sans-Serif" font-size="10.00">main</text>
</a>
</g>
</g>
<!-- Node5&#45;&gt;Node6 -->
<g id="edge5_Node000005_Node000006" class="edge">
<title>Node5&#45;&gt;Node6</title>
<g id="a_edge5_Node000005_Node000006"><a xlink:title=" ">
<path fill="none" stroke="#63b8ff" d="M66.91,-27.5C57.67,-27.5 48.67,-27.5 41.16,-27.5"/>
<polygon fill="#63b8ff" stroke="#63b8ff" points="66.98,-31 76.98,-27.5 66.98,-24 66.98,-31"/>
</a>
</g>
</g>
<!-- Node7&#45;&gt;Node4 -->
<g id="edge7_Node000007_Node000004" class="edge">
<title>Node7&#45;&gt;Node4</title>
<g id="a_edge7_Node000007_Node000004"><a xlink:title=" ">
<path fill="none" stroke="#63b8ff" d="M295.83,-19.13C286.86,-20.47 278.02,-21.8 270.1,-22.98"/>
<polygon fill="#63b8ff" stroke="#63b8ff" points="296.6,-22.55 305.97,-17.6 295.56,-15.63 296.6,-22.55"/>
</a>
</g>
</g>
<!-- Node8&#45;&gt;Node3 -->
<g id="edge9_Node000008_Node000003" class="edge">
<title>Node8&#45;&gt;Node3</title>
<g id="a_edge9_Node000008_Node000003"><a xlink:title=" ">
<path fill="none" stroke="#63b8ff" d="M466.8,-21.4C445.34,-26.54 420.62,-32.46 400.59,-37.26"/>
<polygon fill="#63b8ff" stroke="#63b8ff" points="467.8,-24.76 476.71,-19.03 466.17,-17.95 467.8,-24.76"/>
</a>
</g>
</g>
<!-- Node8&#45;&gt;Node7 -->
<g id="edge10_Node000008_Node000007" class="edge">
<title>Node8&#45;&gt;Node7</title>
<g id="a_edge10_Node000008_Node000007"><a xlink:title=" ">
<path fill="none" stroke="#63b8ff" d="M444,-9.5C434.64,-9.5 425.18,-9.5 416.18,-9.5"/>
<polygon fill="#63b8ff" stroke="#63b8ff" points="444.1,-13 454.1,-9.5 444.1,-6 444.1,-13"/>
</a>
</g>
</g>
</g>
</svg>
