<?xml version="1.0" encoding="UTF-8" standalone="no"?>
<!DOCTYPE svg PUBLIC "-//W3C//DTD SVG 1.1//EN"
 "http://www.w3.org/Graphics/SVG/1.1/DTD/svg11.dtd">
<!-- Generated by graphviz version 2.43.0 (0)
 -->
<!-- Title: find_brent Pages: 1 -->
<svg width="857pt" height="176pt"
 viewBox="0.00 0.00 857.00 176.00" xmlns="http://www.w3.org/2000/svg" xmlns:xlink="http://www.w3.org/1999/xlink">
<g id="graph0" class="graph" transform="scale(1 1) rotate(0) translate(4 172)">
<title>find_brent</title>
<!-- Node1 -->
<g id="Node000001" class="node">
<title>Node1</title>
<g id="a_Node000001"><a xlink:title=" ">
<polygon fill="#999999" stroke="#666666" points="65,-130 0,-130 0,-111 65,-111 65,-130"/>
<text text-anchor="middle" x="32.5" y="-118" font-family="Helvetica,sans-Serif" font-size="10.00">find_brent</text>
</a>
</g>
</g>
<!-- Node2 -->
<g id="Node000002" class="node">
<title>Node2</title>
<g id="a_Node000002"><a xlink:href="build__groups_8c.html#a69a7cc51af8af468a60cbbd2894fdb46" target="_top" xlink:title=" ">
<polygon fill="white" stroke="#666666" points="186,-130 101,-130 101,-111 186,-111 186,-130"/>
<text text-anchor="middle" x="143.5" y="-118" font-family="Helvetica,sans-Serif" font-size="10.00">condition_PLC</text>
</a>
</g>
</g>
<!-- Node1&#45;&gt;Node2 -->
<g id="edge1_Node000001_Node000002" class="edge">
<title>Node1&#45;&gt;Node2</title>
<g id="a_edge1_Node000001_Node000002"><a xlink:title=" ">
<path fill="none" stroke="#63b8ff" d="M65.03,-120.5C73.07,-120.5 81.93,-120.5 90.7,-120.5"/>
<polygon fill="#63b8ff" stroke="#63b8ff" points="90.9,-124 100.9,-120.5 90.9,-117 90.9,-124"/>
</a>
</g>
</g>
<!-- Node3 -->
<g id="Node000003" class="node">
<title>Node3</title>
<g id="a_Node000003"><a xlink:href="cosmo_8c.html#aa3beda8770f3f4e1b00e486bb647edc5" target="_top" xlink:title=" ">
<polygon fill="white" stroke="#666666" points="419,-168 310,-168 310,-149 419,-149 419,-168"/>
<text text-anchor="middle" x="364.5" y="-156" font-family="Helvetica,sans-Serif" font-size="10.00">ComovingDistance</text>
</a>
</g>
</g>
<!-- Node2&#45;&gt;Node3 -->
<g id="edge2_Node000002_Node000003" class="edge">
<title>Node2&#45;&gt;Node3</title>
<g id="a_edge2_Node000002_Node000003"><a xlink:title=" ">
<path fill="none" stroke="#63b8ff" d="M179.82,-130C192.99,-133.32 208.12,-136.87 222,-139.5 247.25,-144.28 275.26,-148.3 299.65,-151.4"/>
<polygon fill="#63b8ff" stroke="#63b8ff" points="299.51,-154.91 309.87,-152.67 300.37,-147.96 299.51,-154.91"/>
</a>
</g>
</g>
<!-- Node5 -->
<g id="Node000005" class="node">
<title>Node5</title>
<g id="a_Node000005"><a xlink:href="build__groups_8c.html#af25b71527a52752ed24f02b5b4ed6d66" target="_top" xlink:title=" ">
<polygon fill="white" stroke="#666666" points="265.5,-130 230.5,-130 230.5,-111 265.5,-111 265.5,-130"/>
<text text-anchor="middle" x="248" y="-118" font-family="Helvetica,sans-Serif" font-size="10.00">q2x</text>
</a>
</g>
</g>
<!-- Node2&#45;&gt;Node5 -->
<g id="edge4_Node000002_Node000005" class="edge">
<title>Node2&#45;&gt;Node5</title>
<g id="a_edge4_Node000002_Node000005"><a xlink:title=" ">
<path fill="none" stroke="#63b8ff" d="M186.19,-120.5C197.71,-120.5 209.89,-120.5 220.31,-120.5"/>
<polygon fill="#63b8ff" stroke="#63b8ff" points="220.42,-124 230.42,-120.5 220.42,-117 220.42,-124"/>
</a>
</g>
</g>
<!-- Node6 -->
<g id="Node000006" class="node">
<title>Node6</title>
<g id="a_Node000006"><a xlink:href="build__groups_8c.html#a8ca8a2e49b8887203360635eb02ee79e" target="_top" xlink:title=" ">
<polygon fill="white" stroke="#666666" points="274,-93 222,-93 222,-74 274,-74 274,-93"/>
<text text-anchor="middle" x="248" y="-81" font-family="Helvetica,sans-Serif" font-size="10.00">set_obj</text>
</a>
</g>
</g>
<!-- Node2&#45;&gt;Node6 -->
<g id="edge5_Node000002_Node000006" class="edge">
<title>Node2&#45;&gt;Node6</title>
<g id="a_edge5_Node000002_Node000006"><a xlink:title=" ">
<path fill="none" stroke="#63b8ff" d="M170.9,-110.97C183.5,-106.42 198.74,-100.92 212.27,-96.04"/>
<polygon fill="#63b8ff" stroke="#63b8ff" points="213.54,-99.3 221.75,-92.61 211.16,-92.72 213.54,-99.3"/>
</a>
</g>
</g>
<!-- Node4 -->
<g id="Node000004" class="node">
<title>Node4</title>
<g id="a_Node000004"><a xlink:href="cosmo_8c.html#a6341f5394ed17a00dc77c5519b292ae3" target="_top" xlink:title=" ">
<polygon fill="white" stroke="#666666" points="849,-130 756,-130 756,-111 849,-111 849,-130"/>
<text text-anchor="middle" x="802.5" y="-118" font-family="Helvetica,sans-Serif" font-size="10.00">my_spline_eval</text>
</a>
</g>
</g>
<!-- Node3&#45;&gt;Node4 -->
<g id="edge3_Node000003_Node000004" class="edge">
<title>Node3&#45;&gt;Node4</title>
<g id="a_edge3_Node000003_Node000004"><a xlink:title=" ">
<path fill="none" stroke="#63b8ff" d="M419.4,-153.8C502.62,-146.55 661.57,-132.7 745.84,-125.35"/>
<polygon fill="#63b8ff" stroke="#63b8ff" points="746.33,-128.82 755.99,-124.47 745.72,-121.85 746.33,-128.82"/>
</a>
</g>
</g>
<!-- Node7 -->
<g id="Node000007" class="node">
<title>Node7</title>
<g id="a_Node000007"><a xlink:href="build__groups_8c.html#a7d0a825b630d787e82f2aad789794b1b" target="_top" xlink:title=" ">
<polygon fill="white" stroke="#666666" points="399.5,-93 329.5,-93 329.5,-74 399.5,-74 399.5,-93"/>
<text text-anchor="middle" x="364.5" y="-81" font-family="Helvetica,sans-Serif" font-size="10.00">set_weight</text>
</a>
</g>
</g>
<!-- Node6&#45;&gt;Node7 -->
<g id="edge6_Node000006_Node000007" class="edge">
<title>Node6&#45;&gt;Node7</title>
<g id="a_edge6_Node000006_Node000007"><a xlink:title=" ">
<path fill="none" stroke="#63b8ff" d="M274.13,-83.5C287.29,-83.5 303.79,-83.5 319.02,-83.5"/>
<polygon fill="#63b8ff" stroke="#63b8ff" points="319.31,-87 329.31,-83.5 319.31,-80 319.31,-87"/>
</a>
</g>
</g>
<!-- Node8 -->
<g id="Node000008" class="node">
<title>Node8</title>
<g id="a_Node000008"><a xlink:href="cosmo_8c.html#a9fbcf5b69c272e801cf320cf814b23c4" target="_top" xlink:title=" ">
<polygon fill="white" stroke="#666666" points="559,-130 475,-130 475,-111 559,-111 559,-130"/>
<text text-anchor="middle" x="517" y="-118" font-family="Helvetica,sans-Serif" font-size="10.00">GrowingMode</text>
</a>
</g>
</g>
<!-- Node7&#45;&gt;Node8 -->
<g id="edge7_Node000007_Node000008" class="edge">
<title>Node7&#45;&gt;Node8</title>
<g id="a_edge7_Node000007_Node000008"><a xlink:title=" ">
<path fill="none" stroke="#63b8ff" d="M399.65,-91.9C419.66,-96.81 445.25,-103.11 467.34,-108.54"/>
<polygon fill="#63b8ff" stroke="#63b8ff" points="466.66,-111.97 477.21,-110.96 468.33,-105.18 466.66,-111.97"/>
</a>
</g>
</g>
<!-- Node10 -->
<g id="Node000010" class="node">
<title>Node10</title>
<g id="a_Node000010"><a xlink:href="cosmo_8c.html#a3d4dfa13b4af53acceb7a040e2517499" target="_top" xlink:title=" ">
<polygon fill="white" stroke="#666666" points="573.5,-93 460.5,-93 460.5,-74 573.5,-74 573.5,-93"/>
<text text-anchor="middle" x="517" y="-81" font-family="Helvetica,sans-Serif" font-size="10.00">GrowingMode_2LPT</text>
</a>
</g>
</g>
<!-- Node7&#45;&gt;Node10 -->
<g id="edge10_Node000007_Node000010" class="edge">
<title>Node7&#45;&gt;Node10</title>
<g id="a_edge10_Node000007_Node000010"><a xlink:title=" ">
<path fill="none" stroke="#63b8ff" d="M399.65,-83.5C414.66,-83.5 432.81,-83.5 450.27,-83.5"/>
<polygon fill="#63b8ff" stroke="#63b8ff" points="450.44,-87 460.44,-83.5 450.44,-80 450.44,-87"/>
</a>
</g>
</g>
<!-- Node11 -->
<g id="Node000011" class="node">
<title>Node11</title>
<g id="a_Node000011"><a xlink:href="cosmo_8c.html#a04db96c36d31fd7c7befb810624260fc" target="_top" xlink:title=" ">
<polygon fill="white" stroke="#666666" points="579,-56 455,-56 455,-37 579,-37 579,-56"/>
<text text-anchor="middle" x="517" y="-44" font-family="Helvetica,sans-Serif" font-size="10.00">GrowingMode_3LPT_1</text>
</a>
</g>
</g>
<!-- Node7&#45;&gt;Node11 -->
<g id="edge12_Node000007_Node000011" class="edge">
<title>Node7&#45;&gt;Node11</title>
<g id="a_edge12_Node000007_Node000011"><a xlink:title=" ">
<path fill="none" stroke="#63b8ff" d="M399.65,-75.1C419.66,-70.19 445.25,-63.89 467.34,-58.46"/>
<polygon fill="#63b8ff" stroke="#63b8ff" points="468.33,-61.82 477.21,-56.04 466.66,-55.03 468.33,-61.82"/>
</a>
</g>
</g>
<!-- Node12 -->
<g id="Node000012" class="node">
<title>Node12</title>
<g id="a_Node000012"><a xlink:href="cosmo_8c.html#a9c8d61128a3d0ab4c73354d0ff8011a1" target="_top" xlink:title=" ">
<polygon fill="white" stroke="#666666" points="579,-19 455,-19 455,0 579,0 579,-19"/>
<text text-anchor="middle" x="517" y="-7" font-family="Helvetica,sans-Serif" font-size="10.00">GrowingMode_3LPT_2</text>
</a>
</g>
</g>
<!-- Node7&#45;&gt;Node12 -->
<g id="edge14_Node000007_Node000012" class="edge">
<title>Node7&#45;&gt;Node12</title>
<g id="a_edge14_Node000007_Node000012"><a xlink:title=" ">
<path fill="none" stroke="#63b8ff" d="M378.21,-73.97C395.02,-61.76 425.92,-40.59 455,-27.5 459.13,-25.64 463.51,-23.91 467.94,-22.32"/>
<polygon fill="#63b8ff" stroke="#63b8ff" points="469.3,-25.56 477.67,-19.07 467.08,-18.92 469.3,-25.56"/>
</a>
</g>
</g>
<!-- Node9 -->
<g id="Node000009" class="node">
<title>Node9</title>
<g id="a_Node000009"><a xlink:href="cosmo_8c.html#a8847e5b8ea1f9c458c8bf9e5f36837a9" target="_top" xlink:title=" ">
<polygon fill="white" stroke="#666666" points="720,-93 615,-93 615,-74 720,-74 720,-93"/>
<text text-anchor="middle" x="667.5" y="-81" font-family="Helvetica,sans-Serif" font-size="10.00">InterpolateGrowth</text>
</a>
</g>
</g>
<!-- Node8&#45;&gt;Node9 -->
<g id="edge8_Node000008_Node000009" class="edge">
<title>Node8&#45;&gt;Node9</title>
<g id="a_edge8_Node000008_Node000009"><a xlink:title=" ">
<path fill="none" stroke="#63b8ff" d="M556.24,-110.97C575.14,-106.26 598.13,-100.53 618.23,-95.53"/>
<polygon fill="#63b8ff" stroke="#63b8ff" points="619.27,-98.87 628.13,-93.06 617.58,-92.08 619.27,-98.87"/>
</a>
</g>
</g>
<!-- Node9&#45;&gt;Node4 -->
<g id="edge9_Node000009_Node000004" class="edge">
<title>Node9&#45;&gt;Node4</title>
<g id="a_edge9_Node000009_Node000004"><a xlink:title=" ">
<path fill="none" stroke="#63b8ff" d="M702.75,-93.03C719.22,-97.61 739.18,-103.16 756.82,-108.07"/>
<polygon fill="#63b8ff" stroke="#63b8ff" points="756.33,-111.57 766.9,-110.88 758.21,-104.82 756.33,-111.57"/>
</a>
</g>
</g>
<!-- Node10&#45;&gt;Node9 -->
<g id="edge11_Node000010_Node000009" class="edge">
<title>Node10&#45;&gt;Node9</title>
<g id="a_edge11_Node000010_Node000009"><a xlink:title=" ">
<path fill="none" stroke="#63b8ff" d="M573.72,-83.5C583.84,-83.5 594.46,-83.5 604.74,-83.5"/>
<polygon fill="#63b8ff" stroke="#63b8ff" points="604.88,-87 614.88,-83.5 604.88,-80 604.88,-87"/>
</a>
</g>
</g>
<!-- Node11&#45;&gt;Node9 -->
<g id="edge13_Node000011_Node000009" class="edge">
<title>Node11&#45;&gt;Node9</title>
<g id="a_edge13_Node000011_Node000009"><a xlink:title=" ">
<path fill="none" stroke="#63b8ff" d="M556.24,-56.03C575.14,-60.74 598.13,-66.47 618.23,-71.47"/>
<polygon fill="#63b8ff" stroke="#63b8ff" points="617.58,-74.92 628.13,-73.94 619.27,-68.13 617.58,-74.92"/>
</a>
</g>
</g>
<!-- Node12&#45;&gt;Node9 -->
<g id="edge15_Node000012_Node000009" class="edge">
<title>Node12&#45;&gt;Node9</title>
<g id="a_edge15_Node000012_Node000009"><a xlink:title=" ">
<path fill="none" stroke="#63b8ff" d="M556.35,-19.02C564,-21.41 571.87,-24.25 579,-27.5 603.31,-38.59 628.79,-55.61 645.95,-67.97"/>
<polygon fill="#63b8ff" stroke="#63b8ff" points="643.97,-70.86 654.11,-73.95 648.11,-65.22 643.97,-70.86"/>
</a>
</g>
</g>
</g>
</svg>
