<?xml version="1.0" encoding="UTF-8" standalone="no"?>
<!DOCTYPE svg PUBLIC "-//W3C//DTD SVG 1.1//EN"
 "http://www.w3.org/Graphics/SVG/1.1/DTD/svg11.dtd">
<!-- Generated by graphviz version 2.43.0 (0)
 -->
<!-- Title: ell Pages: 1 -->
<svg width="797pt" height="134pt"
 viewBox="0.00 0.00 797.00 134.00" xmlns="http://www.w3.org/2000/svg" xmlns:xlink="http://www.w3.org/1999/xlink">
<g id="graph0" class="graph" transform="scale(1 1) rotate(0) translate(4 130)">
<title>ell</title>
<!-- Node1 -->
<g id="Node000001" class="node">
<title>Node1</title>
<g id="a_Node000001"><a xlink:title=" ">
<polygon fill="#999999" stroke="#666666" points="29,-33 0,-33 0,-14 29,-14 29,-33"/>
<text text-anchor="middle" x="14.5" y="-21" font-family="Helvetica,sans-Serif" font-size="10.00">ell</text>
</a>
</g>
</g>
<!-- Node2 -->
<g id="Node000002" class="node">
<title>Node2</title>
<g id="a_Node000002"><a xlink:href="collapse__times_8c.html#a5a4ca2ffca6643912e7efcad849494a8" target="_top" xlink:title=" ">
<polygon fill="white" stroke="#666666" points="116,-70 65,-70 65,-51 116,-51 116,-70"/>
<text text-anchor="middle" x="90.5" y="-58" font-family="Helvetica,sans-Serif" font-size="10.00">ell_sng</text>
</a>
</g>
</g>
<!-- Node1&#45;&gt;Node2 -->
<g id="edge1_Node000001_Node000002" class="edge">
<title>Node1&#45;&gt;Node2</title>
<g id="a_edge1_Node000001_Node000002"><a xlink:title=" ">
<path fill="none" stroke="#63b8ff" d="M29.07,-30.29C38.13,-34.82 50.38,-40.94 61.48,-46.49"/>
<polygon fill="#63b8ff" stroke="#63b8ff" points="59.93,-49.63 70.44,-50.97 63.06,-43.37 59.93,-49.63"/>
</a>
</g>
</g>
<!-- Node12 -->
<g id="Node000012" class="node">
<title>Node12</title>
<g id="a_Node000012"><a xlink:href="cosmo_8c.html#a24fd82c25ab80c71b0db9342e53891c3" target="_top" xlink:title=" ">
<polygon fill="white" stroke="#666666" points="519,-19 399,-19 399,0 519,0 519,-19"/>
<text text-anchor="middle" x="459" y="-7" font-family="Helvetica,sans-Serif" font-size="10.00">InverseGrowingMode</text>
</a>
</g>
</g>
<!-- Node1&#45;&gt;Node12 -->
<g id="edge13_Node000001_Node000012" class="edge">
<title>Node1&#45;&gt;Node12</title>
<g id="a_edge13_Node000001_Node000012"><a xlink:title=" ">
<path fill="none" stroke="#63b8ff" d="M29.23,-23.07C83,-21.36 281.59,-15.08 388.6,-11.7"/>
<polygon fill="#63b8ff" stroke="#63b8ff" points="388.78,-15.19 398.66,-11.38 388.56,-8.2 388.78,-15.19"/>
</a>
</g>
</g>
<!-- Node3 -->
<g id="Node000003" class="node">
<title>Node3</title>
<g id="a_Node000003"><a xlink:href="cosmo_8c.html#a9fbcf5b69c272e801cf320cf814b23c4" target="_top" xlink:title=" ">
<polygon fill="white" stroke="#666666" points="236,-126 152,-126 152,-107 236,-107 236,-126"/>
<text text-anchor="middle" x="194" y="-114" font-family="Helvetica,sans-Serif" font-size="10.00">GrowingMode</text>
</a>
</g>
</g>
<!-- Node2&#45;&gt;Node3 -->
<g id="edge2_Node000002_Node000003" class="edge">
<title>Node2&#45;&gt;Node3</title>
<g id="a_edge2_Node000002_Node000003"><a xlink:title=" ">
<path fill="none" stroke="#63b8ff" d="M105.57,-70.17C117.61,-78.24 135.56,-89.79 152,-98.5 154.73,-99.95 157.6,-101.38 160.5,-102.76"/>
<polygon fill="#63b8ff" stroke="#63b8ff" points="159.18,-106.01 169.73,-106.99 162.1,-99.65 159.18,-106.01"/>
</a>
</g>
</g>
<!-- Node6 -->
<g id="Node000006" class="node">
<title>Node6</title>
<g id="a_Node000006"><a xlink:href="cosmo_8c.html#a90c59eea1bc597d21ec511441cc3c925" target="_top" xlink:title=" ">
<polygon fill="white" stroke="#666666" points="209.5,-89 178.5,-89 178.5,-70 209.5,-70 209.5,-89"/>
<text text-anchor="middle" x="194" y="-77" font-family="Helvetica,sans-Serif" font-size="10.00">jac</text>
</a>
</g>
</g>
<!-- Node2&#45;&gt;Node6 -->
<g id="edge5_Node000002_Node000006" class="edge">
<title>Node2&#45;&gt;Node6</title>
<g id="a_edge5_Node000002_Node000006"><a xlink:title=" ">
<path fill="none" stroke="#63b8ff" d="M116.07,-65.1C131.9,-68.06 152.4,-71.9 168.26,-74.87"/>
<polygon fill="#63b8ff" stroke="#63b8ff" points="167.91,-78.36 178.38,-76.76 169.2,-71.48 167.91,-78.36"/>
</a>
</g>
</g>
<!-- Node7 -->
<g id="Node000007" class="node">
<title>Node7</title>
<g id="a_Node000007"><a xlink:href="collapse__times_8c.html#a16072c1c54a0bc722718884b29bd0409" target="_top" xlink:title=" ">
<polygon fill="white" stroke="#666666" points="231.5,-52 156.5,-52 156.5,-33 231.5,-33 231.5,-52"/>
<text text-anchor="middle" x="194" y="-40" font-family="Helvetica,sans-Serif" font-size="10.00">sng_system</text>
</a>
</g>
</g>
<!-- Node2&#45;&gt;Node7 -->
<g id="edge6_Node000002_Node000007" class="edge">
<title>Node2&#45;&gt;Node7</title>
<g id="a_edge6_Node000002_Node000007"><a xlink:title=" ">
<path fill="none" stroke="#63b8ff" d="M116.07,-56.14C125.23,-54.52 135.95,-52.62 146.44,-50.76"/>
<polygon fill="#63b8ff" stroke="#63b8ff" points="147.13,-54.19 156.36,-49 145.9,-47.3 147.13,-54.19"/>
</a>
</g>
</g>
<!-- Node4 -->
<g id="Node000004" class="node">
<title>Node4</title>
<g id="a_Node000004"><a xlink:href="cosmo_8c.html#a8847e5b8ea1f9c458c8bf9e5f36837a9" target="_top" xlink:title=" ">
<polygon fill="white" stroke="#666666" points="660,-124 555,-124 555,-105 660,-105 660,-124"/>
<text text-anchor="middle" x="607.5" y="-112" font-family="Helvetica,sans-Serif" font-size="10.00">InterpolateGrowth</text>
</a>
</g>
</g>
<!-- Node3&#45;&gt;Node4 -->
<g id="edge3_Node000003_Node000004" class="edge">
<title>Node3&#45;&gt;Node4</title>
<g id="a_edge3_Node000003_Node000004"><a xlink:title=" ">
<path fill="none" stroke="#63b8ff" d="M236.34,-116.3C309,-115.95 459.94,-115.21 544.92,-114.8"/>
<polygon fill="#63b8ff" stroke="#63b8ff" points="544.96,-118.3 554.95,-114.75 544.93,-111.3 544.96,-118.3"/>
</a>
</g>
</g>
<!-- Node5 -->
<g id="Node000005" class="node">
<title>Node5</title>
<g id="a_Node000005"><a xlink:href="cosmo_8c.html#a6341f5394ed17a00dc77c5519b292ae3" target="_top" xlink:title=" ">
<polygon fill="white" stroke="#666666" points="789,-84 696,-84 696,-65 789,-65 789,-84"/>
<text text-anchor="middle" x="742.5" y="-72" font-family="Helvetica,sans-Serif" font-size="10.00">my_spline_eval</text>
</a>
</g>
</g>
<!-- Node4&#45;&gt;Node5 -->
<g id="edge4_Node000004_Node000005" class="edge">
<title>Node4&#45;&gt;Node5</title>
<g id="a_edge4_Node000004_Node000005"><a xlink:title=" ">
<path fill="none" stroke="#63b8ff" d="M640.36,-104.92C658.29,-99.53 680.88,-92.73 700.16,-86.93"/>
<polygon fill="#63b8ff" stroke="#63b8ff" points="701.33,-90.23 709.9,-84 699.32,-83.53 701.33,-90.23"/>
</a>
</g>
</g>
<!-- Node8 -->
<g id="Node000008" class="node">
<title>Node8</title>
<g id="a_Node000008"><a xlink:href="cosmo_8c.html#abe72f217a5a4d0aadeba3d2c733128fb" target="_top" xlink:title=" ">
<polygon fill="white" stroke="#666666" points="363,-89 272,-89 272,-70 363,-70 363,-89"/>
<text text-anchor="middle" x="317.5" y="-77" font-family="Helvetica,sans-Serif" font-size="10.00">OmegaLambda</text>
</a>
</g>
</g>
<!-- Node7&#45;&gt;Node8 -->
<g id="edge7_Node000007_Node000008" class="edge">
<title>Node7&#45;&gt;Node8</title>
<g id="a_edge7_Node000007_Node000008"><a xlink:title=" ">
<path fill="none" stroke="#63b8ff" d="M226.29,-52.03C241.2,-56.57 259.22,-62.06 275.23,-66.93"/>
<polygon fill="#63b8ff" stroke="#63b8ff" points="274.31,-70.31 284.89,-69.88 276.35,-63.61 274.31,-70.31"/>
</a>
</g>
</g>
<!-- Node11 -->
<g id="Node000011" class="node">
<title>Node11</title>
<g id="a_Node000011"><a xlink:href="cosmo_8c.html#a4cb3653cf2125654f8b70d14b2a08dc8" target="_top" xlink:title=" ">
<polygon fill="white" stroke="#666666" points="359.5,-52 275.5,-52 275.5,-33 359.5,-33 359.5,-52"/>
<text text-anchor="middle" x="317.5" y="-40" font-family="Helvetica,sans-Serif" font-size="10.00">OmegaMatter</text>
</a>
</g>
</g>
<!-- Node7&#45;&gt;Node11 -->
<g id="edge11_Node000007_Node000011" class="edge">
<title>Node7&#45;&gt;Node11</title>
<g id="a_edge11_Node000007_Node000011"><a xlink:title=" ">
<path fill="none" stroke="#63b8ff" d="M231.78,-42.5C242.26,-42.5 253.88,-42.5 265.06,-42.5"/>
<polygon fill="#63b8ff" stroke="#63b8ff" points="265.17,-46 275.17,-42.5 265.17,-39 265.17,-46"/>
</a>
</g>
</g>
<!-- Node9 -->
<g id="Node000009" class="node">
<title>Node9</title>
<g id="a_Node000009"><a xlink:href="cosmo_8c.html#a23ab46a1787abb61a8685d7c8f06cdd4" target="_top" xlink:title=" ">
<polygon fill="white" stroke="#666666" points="473.5,-84 444.5,-84 444.5,-65 473.5,-65 473.5,-84"/>
<text text-anchor="middle" x="459" y="-72" font-family="Helvetica,sans-Serif" font-size="10.00">Ez</text>
</a>
</g>
</g>
<!-- Node8&#45;&gt;Node9 -->
<g id="edge8_Node000008_Node000009" class="edge">
<title>Node8&#45;&gt;Node9</title>
<g id="a_edge8_Node000008_Node000009"><a xlink:title=" ">
<path fill="none" stroke="#63b8ff" d="M363.02,-77.9C386.59,-77.06 414.61,-76.06 434.08,-75.36"/>
<polygon fill="#63b8ff" stroke="#63b8ff" points="434.33,-78.85 444.19,-74.99 434.08,-71.86 434.33,-78.85"/>
</a>
</g>
</g>
<!-- Node10 -->
<g id="Node000010" class="node">
<title>Node10</title>
<g id="a_Node000010"><a xlink:href="cosmo_8c.html#a911e9ce363c4662ce531c65885519f7a" target="_top" xlink:title=" ">
<polygon fill="white" stroke="#666666" points="633,-84 582,-84 582,-65 633,-65 633,-84"/>
<text text-anchor="middle" x="607.5" y="-72" font-family="Helvetica,sans-Serif" font-size="10.00">Hubble</text>
</a>
</g>
</g>
<!-- Node9&#45;&gt;Node10 -->
<g id="edge9_Node000009_Node000010" class="edge">
<title>Node9&#45;&gt;Node10</title>
<g id="a_edge9_Node000009_Node000010"><a xlink:title=" ">
<path fill="none" stroke="#63b8ff" d="M473.52,-74.5C495.67,-74.5 540.35,-74.5 571.79,-74.5"/>
<polygon fill="#63b8ff" stroke="#63b8ff" points="571.9,-78 581.9,-74.5 571.9,-71 571.9,-78"/>
</a>
</g>
</g>
<!-- Node10&#45;&gt;Node5 -->
<g id="edge10_Node000010_Node000005" class="edge">
<title>Node10&#45;&gt;Node5</title>
<g id="a_edge10_Node000010_Node000005"><a xlink:title=" ">
<path fill="none" stroke="#63b8ff" d="M633.2,-74.5C648.04,-74.5 667.53,-74.5 685.89,-74.5"/>
<polygon fill="#63b8ff" stroke="#63b8ff" points="685.94,-78 695.94,-74.5 685.94,-71 685.94,-78"/>
</a>
</g>
</g>
<!-- Node11&#45;&gt;Node9 -->
<g id="edge12_Node000011_Node000009" class="edge">
<title>Node11&#45;&gt;Node9</title>
<g id="a_edge12_Node000011_Node000009"><a xlink:title=" ">
<path fill="none" stroke="#63b8ff" d="M359.6,-51.93C383.99,-57.52 414.03,-64.41 434.46,-69.1"/>
<polygon fill="#63b8ff" stroke="#63b8ff" points="433.93,-72.57 444.46,-71.39 435.49,-65.75 433.93,-72.57"/>
</a>
</g>
</g>
<!-- Node12&#45;&gt;Node5 -->
<g id="edge14_Node000012_Node000005" class="edge">
<title>Node12&#45;&gt;Node5</title>
<g id="a_edge14_Node000012_Node000005"><a xlink:title=" ">
<path fill="none" stroke="#63b8ff" d="M501.23,-19.02C551.41,-30.61 636.13,-50.17 690.39,-62.7"/>
<polygon fill="#63b8ff" stroke="#63b8ff" points="689.62,-66.11 700.16,-64.95 691.2,-59.29 689.62,-66.11"/>
</a>
</g>
</g>
</g>
</svg>
