<?xml version="1.0" encoding="UTF-8" standalone="no"?>
<!DOCTYPE svg PUBLIC "-//W3C//DTD SVG 1.1//EN"
 "http://www.w3.org/Graphics/SVG/1.1/DTD/svg11.dtd">
<!-- Generated by graphviz version 2.43.0 (0)
 -->
<!-- Title: sng_system Pages: 1 -->
<svg width="491pt" height="64pt"
 viewBox="0.00 0.00 491.00 64.00" xmlns="http://www.w3.org/2000/svg" xmlns:xlink="http://www.w3.org/1999/xlink">
<g id="graph0" class="graph" transform="scale(1 1) rotate(0) translate(4 60)">
<title>sng_system</title>
<!-- Node1 -->
<g id="Node000001" class="node">
<title>Node1</title>
<g id="a_Node000001"><a xlink:title=" ">
<polygon fill="#999999" stroke="#666666" points="75,-37 0,-37 0,-18 75,-18 75,-37"/>
<text text-anchor="middle" x="37.5" y="-25" font-family="Helvetica,sans-Serif" font-size="10.00">sng_system</text>
</a>
</g>
</g>
<!-- Node2 -->
<g id="Node000002" class="node">
<title>Node2</title>
<g id="a_Node000002"><a xlink:href="cosmo_8c.html#abe72f217a5a4d0aadeba3d2c733128fb" target="_top" xlink:title=" ">
<polygon fill="white" stroke="#666666" points="202,-56 111,-56 111,-37 202,-37 202,-56"/>
<text text-anchor="middle" x="156.5" y="-44" font-family="Helvetica,sans-Serif" font-size="10.00">OmegaLambda</text>
</a>
</g>
</g>
<!-- Node1&#45;&gt;Node2 -->
<g id="edge1_Node000001_Node000002" class="edge">
<title>Node1&#45;&gt;Node2</title>
<g id="a_edge1_Node000001_Node000002"><a xlink:title=" ">
<path fill="none" stroke="#63b8ff" d="M75.2,-33.46C83.29,-34.77 92.03,-36.19 100.67,-37.6"/>
<polygon fill="#63b8ff" stroke="#63b8ff" points="100.28,-41.08 110.71,-39.23 101.4,-34.17 100.28,-41.08"/>
</a>
</g>
</g>
<!-- Node6 -->
<g id="Node000006" class="node">
<title>Node6</title>
<g id="a_Node000006"><a xlink:href="cosmo_8c.html#a4cb3653cf2125654f8b70d14b2a08dc8" target="_top" xlink:title=" ">
<polygon fill="white" stroke="#666666" points="198.5,-19 114.5,-19 114.5,0 198.5,0 198.5,-19"/>
<text text-anchor="middle" x="156.5" y="-7" font-family="Helvetica,sans-Serif" font-size="10.00">OmegaMatter</text>
</a>
</g>
</g>
<!-- Node1&#45;&gt;Node6 -->
<g id="edge5_Node000001_Node000006" class="edge">
<title>Node1&#45;&gt;Node6</title>
<g id="a_edge5_Node000001_Node000006"><a xlink:title=" ">
<path fill="none" stroke="#63b8ff" d="M75.2,-21.85C84.45,-20.43 94.55,-18.88 104.37,-17.37"/>
<polygon fill="#63b8ff" stroke="#63b8ff" points="105.1,-20.8 114.45,-15.82 104.04,-13.88 105.1,-20.8"/>
</a>
</g>
</g>
<!-- Node3 -->
<g id="Node000003" class="node">
<title>Node3</title>
<g id="a_Node000003"><a xlink:href="cosmo_8c.html#a23ab46a1787abb61a8685d7c8f06cdd4" target="_top" xlink:title=" ">
<polygon fill="white" stroke="#666666" points="267,-37 238,-37 238,-18 267,-18 267,-37"/>
<text text-anchor="middle" x="252.5" y="-25" font-family="Helvetica,sans-Serif" font-size="10.00">Ez</text>
</a>
</g>
</g>
<!-- Node2&#45;&gt;Node3 -->
<g id="edge2_Node000002_Node000003" class="edge">
<title>Node2&#45;&gt;Node3</title>
<g id="a_edge2_Node000002_Node000003"><a xlink:title=" ">
<path fill="none" stroke="#63b8ff" d="M202.02,-37.5C210.9,-35.71 219.89,-33.89 227.73,-32.3"/>
<polygon fill="#63b8ff" stroke="#63b8ff" points="228.48,-35.72 237.59,-30.31 227.09,-28.86 228.48,-35.72"/>
</a>
</g>
</g>
<!-- Node4 -->
<g id="Node000004" class="node">
<title>Node4</title>
<g id="a_Node000004"><a xlink:href="cosmo_8c.html#a911e9ce363c4662ce531c65885519f7a" target="_top" xlink:title=" ">
<polygon fill="white" stroke="#666666" points="354,-37 303,-37 303,-18 354,-18 354,-37"/>
<text text-anchor="middle" x="328.5" y="-25" font-family="Helvetica,sans-Serif" font-size="10.00">Hubble</text>
</a>
</g>
</g>
<!-- Node3&#45;&gt;Node4 -->
<g id="edge3_Node000003_Node000004" class="edge">
<title>Node3&#45;&gt;Node4</title>
<g id="a_edge3_Node000003_Node000004"><a xlink:title=" ">
<path fill="none" stroke="#63b8ff" d="M267.07,-27.5C274.35,-27.5 283.68,-27.5 292.82,-27.5"/>
<polygon fill="#63b8ff" stroke="#63b8ff" points="292.94,-31 302.94,-27.5 292.94,-24 292.94,-31"/>
</a>
</g>
</g>
<!-- Node5 -->
<g id="Node000005" class="node">
<title>Node5</title>
<g id="a_Node000005"><a xlink:href="cosmo_8c.html#a6341f5394ed17a00dc77c5519b292ae3" target="_top" xlink:title=" ">
<polygon fill="white" stroke="#666666" points="483,-37 390,-37 390,-18 483,-18 483,-37"/>
<text text-anchor="middle" x="436.5" y="-25" font-family="Helvetica,sans-Serif" font-size="10.00">my_spline_eval</text>
</a>
</g>
</g>
<!-- Node4&#45;&gt;Node5 -->
<g id="edge4_Node000004_Node000005" class="edge">
<title>Node4&#45;&gt;Node5</title>
<g id="a_edge4_Node000004_Node000005"><a xlink:title=" ">
<path fill="none" stroke="#63b8ff" d="M354.08,-27.5C361.82,-27.5 370.69,-27.5 379.68,-27.5"/>
<polygon fill="#63b8ff" stroke="#63b8ff" points="379.82,-31 389.82,-27.5 379.82,-24 379.82,-31"/>
</a>
</g>
</g>
<!-- Node6&#45;&gt;Node3 -->
<g id="edge6_Node000006_Node000003" class="edge">
<title>Node6&#45;&gt;Node3</title>
<g id="a_edge6_Node000006_Node000003"><a xlink:title=" ">
<path fill="none" stroke="#63b8ff" d="M198.73,-17.4C208.69,-19.3 219,-21.28 227.84,-22.97"/>
<polygon fill="#63b8ff" stroke="#63b8ff" points="227.28,-26.43 237.76,-24.87 228.6,-19.55 227.28,-26.43"/>
</a>
</g>
</g>
</g>
</svg>
