<?xml version="1.0" encoding="UTF-8" standalone="no"?>
<!DOCTYPE svg PUBLIC "-//W3C//DTD SVG 1.1//EN"
 "http://www.w3.org/Graphics/SVG/1.1/DTD/svg11.dtd">
<!-- Generated by graphviz version 2.43.0 (0)
 -->
<!-- Title: inverse_collapse_time Pages: 1 -->
<svg width="962pt" height="157pt"
 viewBox="0.00 0.00 962.00 157.00" xmlns="http://www.w3.org/2000/svg" xmlns:xlink="http://www.w3.org/1999/xlink">
<g id="graph0" class="graph" transform="scale(1 1) rotate(0) translate(4 153)">
<title>inverse_collapse_time</title>
<!-- Node1 -->
<g id="Node000001" class="node">
<title>Node1</title>
<g id="a_Node000001"><a xlink:title=" ">
<polygon fill="#999999" stroke="#666666" points="126,-37 0,-37 0,-18 126,-18 126,-37"/>
<text text-anchor="middle" x="63" y="-25" font-family="Helvetica,sans-Serif" font-size="10.00">inverse_collapse_time</text>
</a>
</g>
</g>
<!-- Node2 -->
<g id="Node000002" class="node">
<title>Node2</title>
<g id="a_Node000002"><a xlink:href="collapse__times_8c.html#a17f64ed25a27688514593ecaed77105a" target="_top" xlink:title=" ">
<polygon fill="white" stroke="#666666" points="192.5,-56 163.5,-56 163.5,-37 192.5,-37 192.5,-56"/>
<text text-anchor="middle" x="178" y="-44" font-family="Helvetica,sans-Serif" font-size="10.00">ell</text>
</a>
</g>
</g>
<!-- Node1&#45;&gt;Node2 -->
<g id="edge1_Node000001_Node000002" class="edge">
<title>Node1&#45;&gt;Node2</title>
<g id="a_edge1_Node000001_Node000002"><a xlink:title=" ">
<path fill="none" stroke="#63b8ff" d="M120.83,-37.06C132.33,-38.99 143.81,-40.92 153.37,-42.53"/>
<polygon fill="#63b8ff" stroke="#63b8ff" points="152.8,-45.98 163.24,-44.19 153.96,-39.08 152.8,-45.98"/>
</a>
</g>
</g>
<!-- Node14 -->
<g id="Node000014" class="node">
<title>Node14</title>
<g id="a_Node000014"><a xlink:href="collapse__times_8c.html#a17760c8d2a293bcd4a0e8d99444e13ad" target="_top" xlink:title=" ">
<polygon fill="white" stroke="#666666" points="194,-19 162,-19 162,0 194,0 194,-19"/>
<text text-anchor="middle" x="178" y="-7" font-family="Helvetica,sans-Serif" font-size="10.00">ord</text>
</a>
</g>
</g>
<!-- Node1&#45;&gt;Node14 -->
<g id="edge16_Node000001_Node000014" class="edge">
<title>Node1&#45;&gt;Node14</title>
<g id="a_edge16_Node000001_Node000014"><a xlink:title=" ">
<path fill="none" stroke="#63b8ff" d="M123.81,-17.97C133.67,-16.4 143.4,-14.85 151.79,-13.52"/>
<polygon fill="#63b8ff" stroke="#63b8ff" points="152.61,-16.93 161.94,-11.9 151.51,-10.02 152.61,-16.93"/>
</a>
</g>
</g>
<!-- Node3 -->
<g id="Node000003" class="node">
<title>Node3</title>
<g id="a_Node000003"><a xlink:href="collapse__times_8c.html#a5a4ca2ffca6643912e7efcad849494a8" target="_top" xlink:title=" ">
<polygon fill="white" stroke="#666666" points="281,-93 230,-93 230,-74 281,-74 281,-93"/>
<text text-anchor="middle" x="255.5" y="-81" font-family="Helvetica,sans-Serif" font-size="10.00">ell_sng</text>
</a>
</g>
</g>
<!-- Node2&#45;&gt;Node3 -->
<g id="edge2_Node000002_Node000003" class="edge">
<title>Node2&#45;&gt;Node3</title>
<g id="a_edge2_Node000002_Node000003"><a xlink:title=" ">
<path fill="none" stroke="#63b8ff" d="M192.85,-53.29C202.09,-57.82 214.59,-63.94 225.91,-69.49"/>
<polygon fill="#63b8ff" stroke="#63b8ff" points="224.53,-72.71 235.05,-73.97 227.61,-66.43 224.53,-72.71"/>
</a>
</g>
</g>
<!-- Node13 -->
<g id="Node000013" class="node">
<title>Node13</title>
<g id="a_Node000013"><a xlink:href="cosmo_8c.html#a24fd82c25ab80c71b0db9342e53891c3" target="_top" xlink:title=" ">
<polygon fill="white" stroke="#666666" points="684,-42 564,-42 564,-23 684,-23 684,-42"/>
<text text-anchor="middle" x="624" y="-30" font-family="Helvetica,sans-Serif" font-size="10.00">InverseGrowingMode</text>
</a>
</g>
</g>
<!-- Node2&#45;&gt;Node13 -->
<g id="edge14_Node000002_Node000013" class="edge">
<title>Node2&#45;&gt;Node13</title>
<g id="a_edge14_Node000002_Node000013"><a xlink:title=" ">
<path fill="none" stroke="#63b8ff" d="M192.77,-46.07C246.8,-44.36 446.51,-38.06 553.79,-34.68"/>
<polygon fill="#63b8ff" stroke="#63b8ff" points="553.99,-38.18 563.87,-34.36 553.77,-31.18 553.99,-38.18"/>
</a>
</g>
</g>
<!-- Node4 -->
<g id="Node000004" class="node">
<title>Node4</title>
<g id="a_Node000004"><a xlink:href="cosmo_8c.html#a9fbcf5b69c272e801cf320cf814b23c4" target="_top" xlink:title=" ">
<polygon fill="white" stroke="#666666" points="401,-149 317,-149 317,-130 401,-130 401,-149"/>
<text text-anchor="middle" x="359" y="-137" font-family="Helvetica,sans-Serif" font-size="10.00">GrowingMode</text>
</a>
</g>
</g>
<!-- Node3&#45;&gt;Node4 -->
<g id="edge3_Node000003_Node000004" class="edge">
<title>Node3&#45;&gt;Node4</title>
<g id="a_edge3_Node000003_Node000004"><a xlink:title=" ">
<path fill="none" stroke="#63b8ff" d="M270.57,-93.17C282.61,-101.24 300.56,-112.79 317,-121.5 319.73,-122.95 322.6,-124.38 325.5,-125.76"/>
<polygon fill="#63b8ff" stroke="#63b8ff" points="324.18,-129.01 334.73,-129.99 327.1,-122.65 324.18,-129.01"/>
</a>
</g>
</g>
<!-- Node7 -->
<g id="Node000007" class="node">
<title>Node7</title>
<g id="a_Node000007"><a xlink:href="cosmo_8c.html#a90c59eea1bc597d21ec511441cc3c925" target="_top" xlink:title=" ">
<polygon fill="white" stroke="#666666" points="374.5,-112 343.5,-112 343.5,-93 374.5,-93 374.5,-112"/>
<text text-anchor="middle" x="359" y="-100" font-family="Helvetica,sans-Serif" font-size="10.00">jac</text>
</a>
</g>
</g>
<!-- Node3&#45;&gt;Node7 -->
<g id="edge6_Node000003_Node000007" class="edge">
<title>Node3&#45;&gt;Node7</title>
<g id="a_edge6_Node000003_Node000007"><a xlink:title=" ">
<path fill="none" stroke="#63b8ff" d="M281.07,-88.1C296.9,-91.06 317.4,-94.9 333.26,-97.87"/>
<polygon fill="#63b8ff" stroke="#63b8ff" points="332.91,-101.36 343.38,-99.76 334.2,-94.48 332.91,-101.36"/>
</a>
</g>
</g>
<!-- Node8 -->
<g id="Node000008" class="node">
<title>Node8</title>
<g id="a_Node000008"><a xlink:href="collapse__times_8c.html#a16072c1c54a0bc722718884b29bd0409" target="_top" xlink:title=" ">
<polygon fill="white" stroke="#666666" points="396.5,-75 321.5,-75 321.5,-56 396.5,-56 396.5,-75"/>
<text text-anchor="middle" x="359" y="-63" font-family="Helvetica,sans-Serif" font-size="10.00">sng_system</text>
</a>
</g>
</g>
<!-- Node3&#45;&gt;Node8 -->
<g id="edge7_Node000003_Node000008" class="edge">
<title>Node3&#45;&gt;Node8</title>
<g id="a_edge7_Node000003_Node000008"><a xlink:title=" ">
<path fill="none" stroke="#63b8ff" d="M281.07,-79.14C290.23,-77.52 300.95,-75.62 311.44,-73.76"/>
<polygon fill="#63b8ff" stroke="#63b8ff" points="312.13,-77.19 321.36,-72 310.9,-70.3 312.13,-77.19"/>
</a>
</g>
</g>
<!-- Node5 -->
<g id="Node000005" class="node">
<title>Node5</title>
<g id="a_Node000005"><a xlink:href="cosmo_8c.html#a8847e5b8ea1f9c458c8bf9e5f36837a9" target="_top" xlink:title=" ">
<polygon fill="white" stroke="#666666" points="825,-147 720,-147 720,-128 825,-128 825,-147"/>
<text text-anchor="middle" x="772.5" y="-135" font-family="Helvetica,sans-Serif" font-size="10.00">InterpolateGrowth</text>
</a>
</g>
</g>
<!-- Node4&#45;&gt;Node5 -->
<g id="edge4_Node000004_Node000005" class="edge">
<title>Node4&#45;&gt;Node5</title>
<g id="a_edge4_Node000004_Node000005"><a xlink:title=" ">
<path fill="none" stroke="#63b8ff" d="M401.34,-139.3C474,-138.95 624.94,-138.21 709.92,-137.8"/>
<polygon fill="#63b8ff" stroke="#63b8ff" points="709.96,-141.3 719.95,-137.75 709.93,-134.3 709.96,-141.3"/>
</a>
</g>
</g>
<!-- Node6 -->
<g id="Node000006" class="node">
<title>Node6</title>
<g id="a_Node000006"><a xlink:href="cosmo_8c.html#a6341f5394ed17a00dc77c5519b292ae3" target="_top" xlink:title=" ">
<polygon fill="white" stroke="#666666" points="954,-107 861,-107 861,-88 954,-88 954,-107"/>
<text text-anchor="middle" x="907.5" y="-95" font-family="Helvetica,sans-Serif" font-size="10.00">my_spline_eval</text>
</a>
</g>
</g>
<!-- Node5&#45;&gt;Node6 -->
<g id="edge5_Node000005_Node000006" class="edge">
<title>Node5&#45;&gt;Node6</title>
<g id="a_edge5_Node000005_Node000006"><a xlink:title=" ">
<path fill="none" stroke="#63b8ff" d="M805.36,-127.92C823.29,-122.53 845.88,-115.73 865.16,-109.93"/>
<polygon fill="#63b8ff" stroke="#63b8ff" points="866.33,-113.23 874.9,-107 864.32,-106.53 866.33,-113.23"/>
</a>
</g>
</g>
<!-- Node9 -->
<g id="Node000009" class="node">
<title>Node9</title>
<g id="a_Node000009"><a xlink:href="cosmo_8c.html#abe72f217a5a4d0aadeba3d2c733128fb" target="_top" xlink:title=" ">
<polygon fill="white" stroke="#666666" points="528,-112 437,-112 437,-93 528,-93 528,-112"/>
<text text-anchor="middle" x="482.5" y="-100" font-family="Helvetica,sans-Serif" font-size="10.00">OmegaLambda</text>
</a>
</g>
</g>
<!-- Node8&#45;&gt;Node9 -->
<g id="edge8_Node000008_Node000009" class="edge">
<title>Node8&#45;&gt;Node9</title>
<g id="a_edge8_Node000008_Node000009"><a xlink:title=" ">
<path fill="none" stroke="#63b8ff" d="M391.29,-75.03C406.2,-79.57 424.22,-85.06 440.23,-89.93"/>
<polygon fill="#63b8ff" stroke="#63b8ff" points="439.31,-93.31 449.89,-92.88 441.35,-86.61 439.31,-93.31"/>
</a>
</g>
</g>
<!-- Node12 -->
<g id="Node000012" class="node">
<title>Node12</title>
<g id="a_Node000012"><a xlink:href="cosmo_8c.html#a4cb3653cf2125654f8b70d14b2a08dc8" target="_top" xlink:title=" ">
<polygon fill="white" stroke="#666666" points="524.5,-75 440.5,-75 440.5,-56 524.5,-56 524.5,-75"/>
<text text-anchor="middle" x="482.5" y="-63" font-family="Helvetica,sans-Serif" font-size="10.00">OmegaMatter</text>
</a>
</g>
</g>
<!-- Node8&#45;&gt;Node12 -->
<g id="edge12_Node000008_Node000012" class="edge">
<title>Node8&#45;&gt;Node12</title>
<g id="a_edge12_Node000008_Node000012"><a xlink:title=" ">
<path fill="none" stroke="#63b8ff" d="M396.78,-65.5C407.26,-65.5 418.88,-65.5 430.06,-65.5"/>
<polygon fill="#63b8ff" stroke="#63b8ff" points="430.17,-69 440.17,-65.5 430.17,-62 430.17,-69"/>
</a>
</g>
</g>
<!-- Node10 -->
<g id="Node000010" class="node">
<title>Node10</title>
<g id="a_Node000010"><a xlink:href="cosmo_8c.html#a23ab46a1787abb61a8685d7c8f06cdd4" target="_top" xlink:title=" ">
<polygon fill="white" stroke="#666666" points="638.5,-107 609.5,-107 609.5,-88 638.5,-88 638.5,-107"/>
<text text-anchor="middle" x="624" y="-95" font-family="Helvetica,sans-Serif" font-size="10.00">Ez</text>
</a>
</g>
</g>
<!-- Node9&#45;&gt;Node10 -->
<g id="edge9_Node000009_Node000010" class="edge">
<title>Node9&#45;&gt;Node10</title>
<g id="a_edge9_Node000009_Node000010"><a xlink:title=" ">
<path fill="none" stroke="#63b8ff" d="M528.02,-100.9C551.59,-100.06 579.61,-99.06 599.08,-98.36"/>
<polygon fill="#63b8ff" stroke="#63b8ff" points="599.33,-101.85 609.19,-97.99 599.08,-94.86 599.33,-101.85"/>
</a>
</g>
</g>
<!-- Node11 -->
<g id="Node000011" class="node">
<title>Node11</title>
<g id="a_Node000011"><a xlink:href="cosmo_8c.html#a911e9ce363c4662ce531c65885519f7a" target="_top" xlink:title=" ">
<polygon fill="white" stroke="#666666" points="798,-107 747,-107 747,-88 798,-88 798,-107"/>
<text text-anchor="middle" x="772.5" y="-95" font-family="Helvetica,sans-Serif" font-size="10.00">Hubble</text>
</a>
</g>
</g>
<!-- Node10&#45;&gt;Node11 -->
<g id="edge10_Node000010_Node000011" class="edge">
<title>Node10&#45;&gt;Node11</title>
<g id="a_edge10_Node000010_Node000011"><a xlink:title=" ">
<path fill="none" stroke="#63b8ff" d="M638.52,-97.5C660.67,-97.5 705.35,-97.5 736.79,-97.5"/>
<polygon fill="#63b8ff" stroke="#63b8ff" points="736.9,-101 746.9,-97.5 736.9,-94 736.9,-101"/>
</a>
</g>
</g>
<!-- Node11&#45;&gt;Node6 -->
<g id="edge11_Node000011_Node000006" class="edge">
<title>Node11&#45;&gt;Node6</title>
<g id="a_edge11_Node000011_Node000006"><a xlink:title=" ">
<path fill="none" stroke="#63b8ff" d="M798.2,-97.5C813.04,-97.5 832.53,-97.5 850.89,-97.5"/>
<polygon fill="#63b8ff" stroke="#63b8ff" points="850.94,-101 860.94,-97.5 850.94,-94 850.94,-101"/>
</a>
</g>
</g>
<!-- Node12&#45;&gt;Node10 -->
<g id="edge13_Node000012_Node000010" class="edge">
<title>Node12&#45;&gt;Node10</title>
<g id="a_edge13_Node000012_Node000010"><a xlink:title=" ">
<path fill="none" stroke="#63b8ff" d="M524.6,-74.93C548.99,-80.52 579.03,-87.41 599.46,-92.1"/>
<polygon fill="#63b8ff" stroke="#63b8ff" points="598.93,-95.57 609.46,-94.39 600.49,-88.75 598.93,-95.57"/>
</a>
</g>
</g>
<!-- Node13&#45;&gt;Node6 -->
<g id="edge15_Node000013_Node000006" class="edge">
<title>Node13&#45;&gt;Node6</title>
<g id="a_edge15_Node000013_Node000006"><a xlink:title=" ">
<path fill="none" stroke="#63b8ff" d="M666.23,-42.02C716.41,-53.61 801.13,-73.17 855.39,-85.7"/>
<polygon fill="#63b8ff" stroke="#63b8ff" points="854.62,-89.11 865.16,-87.95 856.2,-82.29 854.62,-89.11"/>
</a>
</g>
</g>
</g>
</svg>
