<?xml version="1.0" encoding="UTF-8" standalone="no"?>
<!DOCTYPE svg PUBLIC "-//W3C//DTD SVG 1.1//EN"
 "http://www.w3.org/Graphics/SVG/1.1/DTD/svg11.dtd">
<!-- Generated by graphviz version 2.43.0 (0)
 -->
<!-- Title: Ez2_from_a Pages: 1 -->
<svg width="592pt" height="64pt"
 viewBox="0.00 0.00 592.00 64.00" xmlns="http://www.w3.org/2000/svg" xmlns:xlink="http://www.w3.org/1999/xlink">
<g id="graph0" class="graph" transform="scale(1 1) rotate(0) translate(4 60)">
<title>Ez2_from_a</title>
<!-- Node1 -->
<g id="Node000001" class="node">
<title>Node1</title>
<g id="a_Node000001"><a xlink:title=" ">
<polygon fill="#999999" stroke="#666666" points="584,-37 510,-37 510,-18 584,-18 584,-37"/>
<text text-anchor="middle" x="547" y="-25" font-family="Helvetica,sans-Serif" font-size="10.00">Ez2_from_a</text>
</a>
</g>
</g>
<!-- Node2 -->
<g id="Node000002" class="node">
<title>Node2</title>
<g id="a_Node000002"><a xlink:href="cosmo_8c.html#a77c250cf8a223800c68d59981acc9511" target="_top" xlink:title=" ">
<polygon fill="white" stroke="#666666" points="458,-56 359,-56 359,-37 458,-37 458,-56"/>
<text text-anchor="middle" x="408.5" y="-44" font-family="Helvetica,sans-Serif" font-size="10.00">system_of_ODEs</text>
</a>
</g>
</g>
<!-- Node1&#45;&gt;Node2 -->
<g id="edge1_Node000001_Node000002" class="edge">
<title>Node1&#45;&gt;Node2</title>
<g id="a_edge1_Node000001_Node000002"><a xlink:title=" ">
<path fill="none" stroke="#63b8ff" d="M499.83,-33.93C486.44,-35.79 471.77,-37.83 458.23,-39.72"/>
<polygon fill="#63b8ff" stroke="#63b8ff" points="500.36,-37.39 509.78,-32.54 499.39,-30.45 500.36,-37.39"/>
</a>
</g>
</g>
<!-- Node6 -->
<g id="Node000006" class="node">
<title>Node6</title>
<g id="a_Node000006"><a xlink:href="cosmo_8c.html#a3eb3007bd4360ca21a5e3a02d50739a5" target="_top" xlink:title=" ">
<polygon fill="white" stroke="#666666" points="474,-19 343,-19 343,0 474,0 474,-19"/>
<text text-anchor="middle" x="408.5" y="-7" font-family="Helvetica,sans-Serif" font-size="10.00">system_of_ODEs_small</text>
</a>
</g>
</g>
<!-- Node1&#45;&gt;Node6 -->
<g id="edge5_Node000001_Node000006" class="edge">
<title>Node1&#45;&gt;Node6</title>
<g id="a_edge5_Node000001_Node000006"><a xlink:title=" ">
<path fill="none" stroke="#63b8ff" d="M499.66,-21.39C491.45,-20.31 482.75,-19.16 474.14,-18.02"/>
<polygon fill="#63b8ff" stroke="#63b8ff" points="499.41,-24.89 509.78,-22.72 500.32,-17.95 499.41,-24.89"/>
</a>
</g>
</g>
<!-- Node3 -->
<g id="Node000003" class="node">
<title>Node3</title>
<g id="a_Node000003"><a xlink:href="cosmo_8c.html#a53b1cc7220c453661866a82f48ce0fb5" target="_top" xlink:title=" ">
<polygon fill="white" stroke="#666666" points="307,-37 190,-37 190,-18 307,-18 307,-37"/>
<text text-anchor="middle" x="248.5" y="-25" font-family="Helvetica,sans-Serif" font-size="10.00">initialize_cosmology</text>
</a>
</g>
</g>
<!-- Node2&#45;&gt;Node3 -->
<g id="edge2_Node000002_Node000003" class="edge">
<title>Node2&#45;&gt;Node3</title>
<g id="a_edge2_Node000002_Node000003"><a xlink:title=" ">
<path fill="none" stroke="#63b8ff" d="M348.64,-39.42C335.09,-37.79 320.69,-36.06 307.19,-34.44"/>
<polygon fill="#63b8ff" stroke="#63b8ff" points="348.46,-42.93 358.81,-40.64 349.29,-35.98 348.46,-42.93"/>
</a>
</g>
</g>
<!-- Node4 -->
<g id="Node000004" class="node">
<title>Node4</title>
<g id="a_Node000004"><a xlink:href="initialization_8c.html#a2bed034b4a40d49d0765d1ce741bd8a9" target="_top" xlink:title=" ">
<polygon fill="white" stroke="#666666" points="154,-37 77,-37 77,-18 154,-18 154,-37"/>
<text text-anchor="middle" x="115.5" y="-25" font-family="Helvetica,sans-Serif" font-size="10.00">initialization</text>
</a>
</g>
</g>
<!-- Node3&#45;&gt;Node4 -->
<g id="edge3_Node000003_Node000004" class="edge">
<title>Node3&#45;&gt;Node4</title>
<g id="a_edge3_Node000003_Node000004"><a xlink:title=" ">
<path fill="none" stroke="#63b8ff" d="M179.44,-27.5C170.72,-27.5 162.06,-27.5 154.08,-27.5"/>
<polygon fill="#63b8ff" stroke="#63b8ff" points="179.66,-31 189.66,-27.5 179.66,-24 179.66,-31"/>
</a>
</g>
</g>
<!-- Node5 -->
<g id="Node000005" class="node">
<title>Node5</title>
<g id="a_Node000005"><a xlink:href="pinocchio_8c.html#a647f21a28344e1d9c643f4115516d7c9" target="_top" xlink:title=" ">
<polygon fill="white" stroke="#666666" points="41,-37 0,-37 0,-18 41,-18 41,-37"/>
<text text-anchor="middle" x="20.5" y="-25" font-family="Helvetica,sans-Serif" font-size="10.00">main</text>
</a>
</g>
</g>
<!-- Node4&#45;&gt;Node5 -->
<g id="edge4_Node000004_Node000005" class="edge">
<title>Node4&#45;&gt;Node5</title>
<g id="a_edge4_Node000004_Node000005"><a xlink:title=" ">
<path fill="none" stroke="#63b8ff" d="M66.73,-27.5C57.65,-27.5 48.63,-27.5 41.06,-27.5"/>
<polygon fill="#63b8ff" stroke="#63b8ff" points="66.94,-31 76.94,-27.5 66.94,-24 66.94,-31"/>
</a>
</g>
</g>
<!-- Node6&#45;&gt;Node3 -->
<g id="edge6_Node000006_Node000003" class="edge">
<title>Node6&#45;&gt;Node3</title>
<g id="a_edge6_Node000006_Node000003"><a xlink:title=" ">
<path fill="none" stroke="#63b8ff" d="M332.7,-18.02C324.07,-19 315.38,-20 307.03,-20.95"/>
<polygon fill="#63b8ff" stroke="#63b8ff" points="333.24,-21.48 342.78,-16.87 332.45,-14.53 333.24,-21.48"/>
</a>
</g>
</g>
</g>
</svg>
