<?xml version="1.0" encoding="UTF-8" standalone="no"?>
<!DOCTYPE svg PUBLIC "-//W3C//DTD SVG 1.1//EN"
 "http://www.w3.org/Graphics/SVG/1.1/DTD/svg11.dtd">
<!-- Generated by graphviz version 2.43.0 (0)
 -->
<!-- Title: IntegrandForMassVariance Pages: 1 -->
<svg width="844pt" height="64pt"
 viewBox="0.00 0.00 844.00 64.00" xmlns="http://www.w3.org/2000/svg" xmlns:xlink="http://www.w3.org/1999/xlink">
<g id="graph0" class="graph" transform="scale(1 1) rotate(0) translate(4 60)">
<title>IntegrandForMassVariance</title>
<!-- Node1 -->
<g id="Node000001" class="node">
<title>Node1</title>
<g id="a_Node000001"><a xlink:title=" ">
<polygon fill="#999999" stroke="#666666" points="836,-37 690,-37 690,-18 836,-18 836,-37"/>
<text text-anchor="middle" x="763" y="-25" font-family="Helvetica,sans-Serif" font-size="10.00">IntegrandForMassVariance</text>
</a>
</g>
</g>
<!-- Node2 -->
<g id="Node000002" class="node">
<title>Node2</title>
<g id="a_Node000002"><a xlink:href="cosmo_8c.html#ab20739d74ee8f4246073637e01d6a305" target="_top" xlink:title=" ">
<polygon fill="white" stroke="#666666" points="654,-37 526,-37 526,-18 654,-18 654,-37"/>
<text text-anchor="middle" x="590" y="-25" font-family="Helvetica,sans-Serif" font-size="10.00">ComputeMassVariance</text>
</a>
</g>
</g>
<!-- Node1&#45;&gt;Node2 -->
<g id="edge1_Node000001_Node000002" class="edge">
<title>Node1&#45;&gt;Node2</title>
<g id="a_edge1_Node000001_Node000002"><a xlink:title=" ">
<path fill="none" stroke="#63b8ff" d="M679.9,-27.5C671.28,-27.5 662.62,-27.5 654.26,-27.5"/>
<polygon fill="#63b8ff" stroke="#63b8ff" points="679.98,-31 689.98,-27.5 679.98,-24 679.98,-31"/>
</a>
</g>
</g>
<!-- Node3 -->
<g id="Node000003" class="node">
<title>Node3</title>
<g id="a_Node000003"><a xlink:href="cosmo_8c.html#a23d3873ee5e46a5db96b3d8adbb83766" target="_top" xlink:title=" ">
<polygon fill="white" stroke="#666666" points="482,-56 351,-56 351,-37 482,-37 482,-56"/>
<text text-anchor="middle" x="416.5" y="-44" font-family="Helvetica,sans-Serif" font-size="10.00">initialize_MassVariance</text>
</a>
</g>
</g>
<!-- Node2&#45;&gt;Node3 -->
<g id="edge2_Node000002_Node000003" class="edge">
<title>Node2&#45;&gt;Node3</title>
<g id="a_edge2_Node000002_Node000003"><a xlink:title=" ">
<path fill="none" stroke="#63b8ff" d="M515.51,-35.64C504.38,-36.88 492.97,-38.14 482.05,-39.35"/>
<polygon fill="#63b8ff" stroke="#63b8ff" points="516.07,-39.1 525.63,-34.52 515.3,-32.14 516.07,-39.1"/>
</a>
</g>
</g>
<!-- Node7 -->
<g id="Node000007" class="node">
<title>Node7</title>
<g id="a_Node000007"><a xlink:href="cosmo_8c.html#a6f4e126cbaf9d48005e02434c2605ff1" target="_top" xlink:title=" ">
<polygon fill="white" stroke="#666666" points="490,-19 343,-19 343,0 490,0 490,-19"/>
<text text-anchor="middle" x="416.5" y="-7" font-family="Helvetica,sans-Serif" font-size="10.00">normalize_PowerSpectrum</text>
</a>
</g>
</g>
<!-- Node2&#45;&gt;Node7 -->
<g id="edge7_Node000002_Node000007" class="edge">
<title>Node2&#45;&gt;Node7</title>
<g id="a_edge7_Node000002_Node000007"><a xlink:title=" ">
<path fill="none" stroke="#63b8ff" d="M515.49,-19.78C507.1,-18.9 498.55,-18.01 490.16,-17.13"/>
<polygon fill="#63b8ff" stroke="#63b8ff" points="515.32,-23.29 525.63,-20.85 516.05,-16.32 515.32,-23.29"/>
</a>
</g>
</g>
<!-- Node4 -->
<g id="Node000004" class="node">
<title>Node4</title>
<g id="a_Node000004"><a xlink:href="initialization_8c.html#a2bed034b4a40d49d0765d1ce741bd8a9" target="_top" xlink:title=" ">
<polygon fill="white" stroke="#666666" points="154,-38 77,-38 77,-19 154,-19 154,-38"/>
<text text-anchor="middle" x="115.5" y="-26" font-family="Helvetica,sans-Serif" font-size="10.00">initialization</text>
</a>
</g>
</g>
<!-- Node3&#45;&gt;Node4 -->
<g id="edge3_Node000003_Node000004" class="edge">
<title>Node3&#45;&gt;Node4</title>
<g id="a_edge3_Node000003_Node000004"><a xlink:title=" ">
<path fill="none" stroke="#63b8ff" d="M340.9,-42.01C281.45,-38.43 200.69,-33.57 154.02,-30.76"/>
<polygon fill="#63b8ff" stroke="#63b8ff" points="340.8,-45.51 350.99,-42.62 341.22,-38.52 340.8,-45.51"/>
</a>
</g>
</g>
<!-- Node6 -->
<g id="Node000006" class="node">
<title>Node6</title>
<g id="a_Node000006"><a xlink:href="cosmo_8c.html#a53b1cc7220c453661866a82f48ce0fb5" target="_top" xlink:title=" ">
<polygon fill="white" stroke="#666666" points="307,-19 190,-19 190,0 307,0 307,-19"/>
<text text-anchor="middle" x="248.5" y="-7" font-family="Helvetica,sans-Serif" font-size="10.00">initialize_cosmology</text>
</a>
</g>
</g>
<!-- Node3&#45;&gt;Node6 -->
<g id="edge5_Node000003_Node000006" class="edge">
<title>Node3&#45;&gt;Node6</title>
<g id="a_edge5_Node000003_Node000006"><a xlink:title=" ">
<path fill="none" stroke="#63b8ff" d="M362.92,-34.78C340.19,-29.71 313.92,-23.86 292.39,-19.06"/>
<polygon fill="#63b8ff" stroke="#63b8ff" points="362.23,-38.21 372.75,-36.97 363.75,-31.38 362.23,-38.21"/>
</a>
</g>
</g>
<!-- Node5 -->
<g id="Node000005" class="node">
<title>Node5</title>
<g id="a_Node000005"><a xlink:href="pinocchio_8c.html#a647f21a28344e1d9c643f4115516d7c9" target="_top" xlink:title=" ">
<polygon fill="white" stroke="#666666" points="41,-38 0,-38 0,-19 41,-19 41,-38"/>
<text text-anchor="middle" x="20.5" y="-26" font-family="Helvetica,sans-Serif" font-size="10.00">main</text>
</a>
</g>
</g>
<!-- Node4&#45;&gt;Node5 -->
<g id="edge4_Node000004_Node000005" class="edge">
<title>Node4&#45;&gt;Node5</title>
<g id="a_edge4_Node000004_Node000005"><a xlink:title=" ">
<path fill="none" stroke="#63b8ff" d="M66.73,-28.5C57.65,-28.5 48.63,-28.5 41.06,-28.5"/>
<polygon fill="#63b8ff" stroke="#63b8ff" points="66.94,-32 76.94,-28.5 66.94,-25 66.94,-32"/>
</a>
</g>
</g>
<!-- Node6&#45;&gt;Node4 -->
<g id="edge6_Node000006_Node000004" class="edge">
<title>Node6&#45;&gt;Node4</title>
<g id="a_edge6_Node000006_Node000004"><a xlink:title=" ">
<path fill="none" stroke="#63b8ff" d="M179.72,-19.33C170.91,-20.61 162.15,-21.88 154.08,-23.05"/>
<polygon fill="#63b8ff" stroke="#63b8ff" points="180.27,-22.79 189.66,-17.89 179.26,-15.86 180.27,-22.79"/>
</a>
</g>
</g>
<!-- Node7&#45;&gt;Node6 -->
<g id="edge8_Node000007_Node000006" class="edge">
<title>Node7&#45;&gt;Node6</title>
<g id="a_edge8_Node000007_Node000006"><a xlink:title=" ">
<path fill="none" stroke="#63b8ff" d="M332.57,-9.5C323.94,-9.5 315.3,-9.5 307.04,-9.5"/>
<polygon fill="#63b8ff" stroke="#63b8ff" points="332.69,-13 342.69,-9.5 332.69,-6 332.69,-13"/>
</a>
</g>
</g>
</g>
</svg>
