<?xml version="1.0" encoding="UTF-8" standalone="no"?>
<!DOCTYPE svg PUBLIC "-//W3C//DTD SVG 1.1//EN"
 "http://www.w3.org/Graphics/SVG/1.1/DTD/svg11.dtd">
<!-- Generated by graphviz version 2.43.0 (0)
 -->
<!-- Title: dlnE2_da Pages: 1 -->
<svg width="357pt" height="103pt"
 viewBox="0.00 0.00 357.00 103.00" xmlns="http://www.w3.org/2000/svg" xmlns:xlink="http://www.w3.org/1999/xlink">
<g id="graph0" class="graph" transform="scale(1 1) rotate(0) translate(4 99)">
<title>dlnE2_da</title>
<!-- Node1 -->
<g id="Node000001" class="node">
<title>Node1</title>
<g id="a_Node000001"><a xlink:title=" ">
<polygon fill="#999999" stroke="#666666" points="61,-57 0,-57 0,-38 61,-38 61,-57"/>
<text text-anchor="middle" x="30.5" y="-45" font-family="Helvetica,sans-Serif" font-size="10.00">dlnE2_da</text>
</a>
</g>
</g>
<!-- Node2 -->
<g id="Node000002" class="node">
<title>Node2</title>
<g id="a_Node000002"><a xlink:href="cosmo_8c.html#ab72944c257efd64b18cbf29712033a3d" target="_top" xlink:title=" ">
<polygon fill="white" stroke="#666666" points="216,-95 101,-95 101,-76 216,-76 216,-95"/>
<text text-anchor="middle" x="158.5" y="-83" font-family="Helvetica,sans-Serif" font-size="10.00">DE_EquationOfState</text>
</a>
</g>
</g>
<!-- Node1&#45;&gt;Node2 -->
<g id="edge1_Node000001_Node000002" class="edge">
<title>Node1&#45;&gt;Node2</title>
<g id="a_edge1_Node000001_Node000002"><a xlink:title=" ">
<path fill="none" stroke="#63b8ff" d="M61.04,-56.41C77.49,-61.37 98.22,-67.62 116.25,-73.06"/>
<polygon fill="#63b8ff" stroke="#63b8ff" points="115.36,-76.45 125.94,-75.98 117.38,-69.74 115.36,-76.45"/>
</a>
</g>
</g>
<!-- Node3 -->
<g id="Node000003" class="node">
<title>Node3</title>
<g id="a_Node000003"><a xlink:href="cosmo_8c.html#a6341f5394ed17a00dc77c5519b292ae3" target="_top" xlink:title=" ">
<polygon fill="white" stroke="#666666" points="349,-76 256,-76 256,-57 349,-57 349,-76"/>
<text text-anchor="middle" x="302.5" y="-64" font-family="Helvetica,sans-Serif" font-size="10.00">my_spline_eval</text>
</a>
</g>
</g>
<!-- Node1&#45;&gt;Node3 -->
<g id="edge3_Node000001_Node000003" class="edge">
<title>Node1&#45;&gt;Node3</title>
<g id="a_edge3_Node000001_Node000003"><a xlink:title=" ">
<path fill="none" stroke="#63b8ff" d="M61.17,-49.59C105.4,-52.7 189.43,-58.61 245.47,-62.56"/>
<polygon fill="#63b8ff" stroke="#63b8ff" points="245.37,-66.06 255.59,-63.27 245.86,-59.08 245.37,-66.06"/>
</a>
</g>
</g>
<!-- Node4 -->
<g id="Node000004" class="node">
<title>Node4</title>
<g id="a_Node000004"><a xlink:href="cosmo_8c.html#abbdf4cc6d70bc314c73e389cb6ce7d7a" target="_top" xlink:title=" ">
<polygon fill="white" stroke="#666666" points="220,-19 97,-19 97,0 220,0 220,-19"/>
<text text-anchor="middle" x="158.5" y="-7" font-family="Helvetica,sans-Serif" font-size="10.00">my_spline_eval_deriv</text>
</a>
</g>
</g>
<!-- Node1&#45;&gt;Node4 -->
<g id="edge4_Node000001_Node000004" class="edge">
<title>Node1&#45;&gt;Node4</title>
<g id="a_edge4_Node000001_Node000004"><a xlink:title=" ">
<path fill="none" stroke="#63b8ff" d="M61.04,-38.59C77.49,-33.63 98.22,-27.38 116.25,-21.94"/>
<polygon fill="#63b8ff" stroke="#63b8ff" points="117.38,-25.26 125.94,-19.02 115.36,-18.55 117.38,-25.26"/>
</a>
</g>
</g>
<!-- Node2&#45;&gt;Node3 -->
<g id="edge2_Node000002_Node000003" class="edge">
<title>Node2&#45;&gt;Node3</title>
<g id="a_edge2_Node000002_Node000003"><a xlink:title=" ">
<path fill="none" stroke="#63b8ff" d="M216.03,-77.94C225.79,-76.63 235.93,-75.27 245.67,-73.97"/>
<polygon fill="#63b8ff" stroke="#63b8ff" points="246.19,-77.43 255.64,-72.64 245.26,-70.49 246.19,-77.43"/>
</a>
</g>
</g>
</g>
</svg>
