<?xml version="1.0" encoding="UTF-8" standalone="no"?>
<!DOCTYPE svg PUBLIC "-//W3C//DTD SVG 1.1//EN"
 "http://www.w3.org/Graphics/SVG/1.1/DTD/svg11.dtd">
<!-- Generated by graphviz version 2.43.0 (0)
 -->
<!-- Title: normalize_PowerSpectrum Pages: 1 -->
<svg width="989pt" height="175pt"
 viewBox="0.00 0.00 989.00 175.00" xmlns="http://www.w3.org/2000/svg" xmlns:xlink="http://www.w3.org/1999/xlink">
<g id="graph0" class="graph" transform="scale(1 1) rotate(0) translate(4 171)">
<title>normalize_PowerSpectrum</title>
<!-- Node1 -->
<g id="Node000001" class="node">
<title>Node1</title>
<g id="a_Node000001"><a xlink:title=" ">
<polygon fill="#999999" stroke="#666666" points="147,-93 0,-93 0,-74 147,-74 147,-93"/>
<text text-anchor="middle" x="73.5" y="-81" font-family="Helvetica,sans-Serif" font-size="10.00">normalize_PowerSpectrum</text>
</a>
</g>
</g>
<!-- Node2 -->
<g id="Node000002" class="node">
<title>Node2</title>
<g id="a_Node000002"><a xlink:href="cosmo_8c.html#ab20739d74ee8f4246073637e01d6a305" target="_top" xlink:title=" ">
<polygon fill="white" stroke="#666666" points="311,-93 183,-93 183,-74 311,-74 311,-93"/>
<text text-anchor="middle" x="247" y="-81" font-family="Helvetica,sans-Serif" font-size="10.00">ComputeMassVariance</text>
</a>
</g>
</g>
<!-- Node1&#45;&gt;Node2 -->
<g id="edge1_Node000001_Node000002" class="edge">
<title>Node1&#45;&gt;Node2</title>
<g id="a_edge1_Node000001_Node000002"><a xlink:title=" ">
<path fill="none" stroke="#63b8ff" d="M147.23,-83.5C155.67,-83.5 164.28,-83.5 172.72,-83.5"/>
<polygon fill="#63b8ff" stroke="#63b8ff" points="172.92,-87 182.92,-83.5 172.92,-80 172.92,-87"/>
</a>
</g>
</g>
<!-- Node3 -->
<g id="Node000003" class="node">
<title>Node3</title>
<g id="a_Node000003"><a xlink:href="cosmo_8c.html#acc3f98f9efcc34eeb5447d1bf317dbe8" target="_top" xlink:title=" ">
<polygon fill="white" stroke="#666666" points="493,-93 347,-93 347,-74 493,-74 493,-93"/>
<text text-anchor="middle" x="420" y="-81" font-family="Helvetica,sans-Serif" font-size="10.00">IntegrandForMassVariance</text>
</a>
</g>
</g>
<!-- Node2&#45;&gt;Node3 -->
<g id="edge2_Node000002_Node000003" class="edge">
<title>Node2&#45;&gt;Node3</title>
<g id="a_edge2_Node000002_Node000003"><a xlink:title=" ">
<path fill="none" stroke="#63b8ff" d="M311.19,-83.5C319.53,-83.5 328.18,-83.5 336.78,-83.5"/>
<polygon fill="#63b8ff" stroke="#63b8ff" points="336.84,-87 346.84,-83.5 336.84,-80 336.84,-87"/>
</a>
</g>
</g>
<!-- Node4 -->
<g id="Node000004" class="node">
<title>Node4</title>
<g id="a_Node000004"><a xlink:href="cosmo_8c.html#a9fbcf5b69c272e801cf320cf814b23c4" target="_top" xlink:title=" ">
<polygon fill="white" stroke="#666666" points="619.5,-148 535.5,-148 535.5,-129 619.5,-129 619.5,-148"/>
<text text-anchor="middle" x="577.5" y="-136" font-family="Helvetica,sans-Serif" font-size="10.00">GrowingMode</text>
</a>
</g>
</g>
<!-- Node3&#45;&gt;Node4 -->
<g id="edge3_Node000003_Node000004" class="edge">
<title>Node3&#45;&gt;Node4</title>
<g id="a_edge3_Node000003_Node000004"><a xlink:title=" ">
<path fill="none" stroke="#63b8ff" d="M448.09,-93.08C473.54,-102.08 511.82,-115.62 539.97,-125.58"/>
<polygon fill="#63b8ff" stroke="#63b8ff" points="538.87,-128.9 549.46,-128.94 541.2,-122.3 538.87,-128.9"/>
</a>
</g>
</g>
<!-- Node7 -->
<g id="Node000007" class="node">
<title>Node7</title>
<g id="a_Node000007"><a xlink:href="cosmo_8c.html#adb3827724e24c320717073266dbfac4c" target="_top" xlink:title=" ">
<polygon fill="white" stroke="#666666" points="624,-93 531,-93 531,-74 624,-74 624,-93"/>
<text text-anchor="middle" x="577.5" y="-81" font-family="Helvetica,sans-Serif" font-size="10.00">PowerSpectrum</text>
</a>
</g>
</g>
<!-- Node3&#45;&gt;Node7 -->
<g id="edge6_Node000003_Node000007" class="edge">
<title>Node3&#45;&gt;Node7</title>
<g id="a_edge6_Node000003_Node000007"><a xlink:title=" ">
<path fill="none" stroke="#63b8ff" d="M493.29,-83.5C502.41,-83.5 511.63,-83.5 520.45,-83.5"/>
<polygon fill="#63b8ff" stroke="#63b8ff" points="520.58,-87 530.58,-83.5 520.58,-80 520.58,-87"/>
</a>
</g>
</g>
<!-- Node14 -->
<g id="Node000014" class="node">
<title>Node14</title>
<g id="a_Node000014"><a xlink:href="cosmo_8c.html#a9817ba0d254db24f71f8d7ab242b4fba" target="_top" xlink:title=" ">
<polygon fill="white" stroke="#666666" points="626,-56 529,-56 529,-37 626,-37 626,-56"/>
<text text-anchor="middle" x="577.5" y="-44" font-family="Helvetica,sans-Serif" font-size="10.00">WindowFunction</text>
</a>
</g>
</g>
<!-- Node3&#45;&gt;Node14 -->
<g id="edge14_Node000003_Node000014" class="edge">
<title>Node3&#45;&gt;Node14</title>
<g id="a_edge14_Node000003_Node000014"><a xlink:title=" ">
<path fill="none" stroke="#63b8ff" d="M461.05,-73.97C481.01,-69.22 505.35,-63.43 526.53,-58.39"/>
<polygon fill="#63b8ff" stroke="#63b8ff" points="527.4,-61.78 536.32,-56.06 525.78,-54.97 527.4,-61.78"/>
</a>
</g>
</g>
<!-- Node5 -->
<g id="Node000005" class="node">
<title>Node5</title>
<g id="a_Node000005"><a xlink:href="cosmo_8c.html#a8847e5b8ea1f9c458c8bf9e5f36837a9" target="_top" xlink:title=" ">
<polygon fill="white" stroke="#666666" points="777,-167 672,-167 672,-148 777,-148 777,-167"/>
<text text-anchor="middle" x="724.5" y="-155" font-family="Helvetica,sans-Serif" font-size="10.00">InterpolateGrowth</text>
</a>
</g>
</g>
<!-- Node4&#45;&gt;Node5 -->
<g id="edge4_Node000004_Node000005" class="edge">
<title>Node4&#45;&gt;Node5</title>
<g id="a_edge4_Node000004_Node000005"><a xlink:title=" ">
<path fill="none" stroke="#63b8ff" d="M619.66,-143.89C632.73,-145.61 647.49,-147.54 661.68,-149.4"/>
<polygon fill="#63b8ff" stroke="#63b8ff" points="661.52,-152.91 671.89,-150.74 662.43,-145.97 661.52,-152.91"/>
</a>
</g>
</g>
<!-- Node6 -->
<g id="Node000006" class="node">
<title>Node6</title>
<g id="a_Node000006"><a xlink:href="cosmo_8c.html#a6341f5394ed17a00dc77c5519b292ae3" target="_top" xlink:title=" ">
<polygon fill="white" stroke="#666666" points="916,-148 823,-148 823,-129 916,-129 916,-148"/>
<text text-anchor="middle" x="869.5" y="-136" font-family="Helvetica,sans-Serif" font-size="10.00">my_spline_eval</text>
</a>
</g>
</g>
<!-- Node5&#45;&gt;Node6 -->
<g id="edge5_Node000005_Node000006" class="edge">
<title>Node5&#45;&gt;Node6</title>
<g id="a_edge5_Node000005_Node000006"><a xlink:title=" ">
<path fill="none" stroke="#63b8ff" d="M777.13,-150.64C788.64,-149.11 800.89,-147.48 812.56,-145.93"/>
<polygon fill="#63b8ff" stroke="#63b8ff" points="813.19,-149.38 822.64,-144.59 812.27,-142.44 813.19,-149.38"/>
</a>
</g>
</g>
<!-- Node8 -->
<g id="Node000008" class="node">
<title>Node8</title>
<g id="a_Node000008"><a xlink:href="cosmo_8c.html#a27427d60987e3e074ad1d7215080dc69" target="_top" xlink:title=" ">
<polygon fill="white" stroke="#666666" points="787,-93 662,-93 662,-74 787,-74 787,-93"/>
<text text-anchor="middle" x="724.5" y="-81" font-family="Helvetica,sans-Serif" font-size="10.00">PowerSpec_Efstathiou</text>
</a>
</g>
</g>
<!-- Node7&#45;&gt;Node8 -->
<g id="edge7_Node000007_Node000008" class="edge">
<title>Node7&#45;&gt;Node8</title>
<g id="a_edge7_Node000007_Node000008"><a xlink:title=" ">
<path fill="none" stroke="#63b8ff" d="M624.38,-83.5C633.09,-83.5 642.4,-83.5 651.69,-83.5"/>
<polygon fill="#63b8ff" stroke="#63b8ff" points="651.74,-87 661.74,-83.5 651.74,-80 651.74,-87"/>
</a>
</g>
</g>
<!-- Node9 -->
<g id="Node000009" class="node">
<title>Node9</title>
<g id="a_Node000009"><a xlink:href="cosmo_8c.html#a4b4d5c5ca327f59df1eba21a73e62113" target="_top" xlink:title=" ">
<polygon fill="white" stroke="#666666" points="769,-56 680,-56 680,-37 769,-37 769,-56"/>
<text text-anchor="middle" x="724.5" y="-44" font-family="Helvetica,sans-Serif" font-size="10.00">PowerSpec_EH</text>
</a>
</g>
</g>
<!-- Node7&#45;&gt;Node9 -->
<g id="edge8_Node000007_Node000009" class="edge">
<title>Node7&#45;&gt;Node9</title>
<g id="a_edge8_Node000007_Node000009"><a xlink:title=" ">
<path fill="none" stroke="#63b8ff" d="M615.84,-73.97C634.21,-69.29 656.54,-63.59 676.1,-58.6"/>
<polygon fill="#63b8ff" stroke="#63b8ff" points="677.21,-61.92 686.03,-56.06 675.48,-55.14 677.21,-61.92"/>
</a>
</g>
</g>
<!-- Node12 -->
<g id="Node000012" class="node">
<title>Node12</title>
<g id="a_Node000012"><a xlink:href="cosmo_8c.html#a6d04017af6090db607768f47976b88b8" target="_top" xlink:title=" ">
<polygon fill="white" stroke="#666666" points="787,-19 662,-19 662,0 787,0 787,-19"/>
<text text-anchor="middle" x="724.5" y="-7" font-family="Helvetica,sans-Serif" font-size="10.00">PowerSpec_PowerLaw</text>
</a>
</g>
</g>
<!-- Node7&#45;&gt;Node12 -->
<g id="edge11_Node000007_Node000012" class="edge">
<title>Node7&#45;&gt;Node12</title>
<g id="a_edge11_Node000007_Node000012"><a xlink:title=" ">
<path fill="none" stroke="#63b8ff" d="M609.61,-73.96C615.28,-71.6 620.99,-68.79 626,-65.5 645.18,-52.91 642.43,-40.48 662,-28.5 665.39,-26.43 669.02,-24.56 672.76,-22.89"/>
<polygon fill="#63b8ff" stroke="#63b8ff" points="674.24,-26.07 682.23,-19.11 671.64,-19.57 674.24,-26.07"/>
</a>
</g>
</g>
<!-- Node13 -->
<g id="Node000013" class="node">
<title>Node13</title>
<g id="a_Node000013"><a xlink:href="cosmo_8c.html#a428d6d001b5eb57f3f17d85699dd67f5" target="_top" xlink:title=" ">
<polygon fill="white" stroke="#666666" points="785.5,-130 663.5,-130 663.5,-111 785.5,-111 785.5,-130"/>
<text text-anchor="middle" x="724.5" y="-118" font-family="Helvetica,sans-Serif" font-size="10.00">PowerSpec_Tabulated</text>
</a>
</g>
</g>
<!-- Node7&#45;&gt;Node13 -->
<g id="edge12_Node000007_Node000013" class="edge">
<title>Node7&#45;&gt;Node13</title>
<g id="a_edge12_Node000007_Node000013"><a xlink:title=" ">
<path fill="none" stroke="#63b8ff" d="M615.84,-93.03C634.21,-97.71 656.54,-103.41 676.1,-108.4"/>
<polygon fill="#63b8ff" stroke="#63b8ff" points="675.48,-111.86 686.03,-110.94 677.21,-105.08 675.48,-111.86"/>
</a>
</g>
</g>
<!-- Node10 -->
<g id="Node000010" class="node">
<title>Node10</title>
<g id="a_Node000010"><a xlink:href="cosmo_8c.html#a5c6dbdd7fd7c206feb0554bc93b2436c" target="_top" xlink:title=" ">
<polygon fill="white" stroke="#666666" points="901.5,-56 837.5,-56 837.5,-37 901.5,-37 901.5,-56"/>
<text text-anchor="middle" x="869.5" y="-44" font-family="Helvetica,sans-Serif" font-size="10.00">transf_EH</text>
</a>
</g>
</g>
<!-- Node9&#45;&gt;Node10 -->
<g id="edge9_Node000009_Node000010" class="edge">
<title>Node9&#45;&gt;Node10</title>
<g id="a_edge9_Node000009_Node000010"><a xlink:title=" ">
<path fill="none" stroke="#63b8ff" d="M769.18,-46.5C787.67,-46.5 809.1,-46.5 827.3,-46.5"/>
<polygon fill="#63b8ff" stroke="#63b8ff" points="827.33,-50 837.33,-46.5 827.33,-43 827.33,-50"/>
</a>
</g>
</g>
<!-- Node11 -->
<g id="Node000011" class="node">
<title>Node11</title>
<g id="a_Node000011"><a xlink:href="cosmo_8c.html#a57dfb02fcd17e35fad40c836ba4d4160" target="_top" xlink:title=" ">
<polygon fill="white" stroke="#666666" points="981,-56 952,-56 952,-37 981,-37 981,-56"/>
<text text-anchor="middle" x="966.5" y="-44" font-family="Helvetica,sans-Serif" font-size="10.00">T0</text>
</a>
</g>
</g>
<!-- Node10&#45;&gt;Node11 -->
<g id="edge10_Node000010_Node000011" class="edge">
<title>Node10&#45;&gt;Node11</title>
<g id="a_edge10_Node000010_Node000011"><a xlink:title=" ">
<path fill="none" stroke="#63b8ff" d="M901.61,-46.5C914.53,-46.5 929.31,-46.5 941.39,-46.5"/>
<polygon fill="#63b8ff" stroke="#63b8ff" points="941.6,-50 951.6,-46.5 941.6,-43 941.6,-50"/>
</a>
</g>
</g>
<!-- Node13&#45;&gt;Node6 -->
<g id="edge13_Node000013_Node000006" class="edge">
<title>Node13&#45;&gt;Node6</title>
<g id="a_edge13_Node000013_Node000006"><a xlink:title=" ">
<path fill="none" stroke="#63b8ff" d="M785.73,-128.08C794.62,-129.2 803.74,-130.35 812.54,-131.46"/>
<polygon fill="#63b8ff" stroke="#63b8ff" points="812.32,-134.96 822.68,-132.73 813.2,-128.01 812.32,-134.96"/>
</a>
</g>
</g>
</g>
</svg>
