<?xml version="1.0" encoding="UTF-8" standalone="no"?>
<!DOCTYPE svg PUBLIC "-//W3C//DTD SVG 1.1//EN"
 "http://www.w3.org/Graphics/SVG/1.1/DTD/svg11.dtd">
<!-- Generated by graphviz version 2.43.0 (0)
 -->
<!-- Title: system_of_ODEs Pages: 1 -->
<svg width="602pt" height="140pt"
 viewBox="0.00 0.00 602.00 140.00" xmlns="http://www.w3.org/2000/svg" xmlns:xlink="http://www.w3.org/1999/xlink">
<g id="graph0" class="graph" transform="scale(1 1) rotate(0) translate(4 136)">
<title>system_of_ODEs</title>
<!-- Node1 -->
<g id="Node000001" class="node">
<title>Node1</title>
<g id="a_Node000001"><a xlink:title=" ">
<polygon fill="#999999" stroke="#666666" points="99,-75 0,-75 0,-56 99,-56 99,-75"/>
<text text-anchor="middle" x="49.5" y="-63" font-family="Helvetica,sans-Serif" font-size="10.00">system_of_ODEs</text>
</a>
</g>
</g>
<!-- Node2 -->
<g id="Node000002" class="node">
<title>Node2</title>
<g id="a_Node000002"><a xlink:href="cosmo_8c.html#ab4c8868992fc24f252c2064899316b3d" target="_top" xlink:title=" ">
<polygon fill="white" stroke="#666666" points="306,-94 245,-94 245,-75 306,-75 306,-94"/>
<text text-anchor="middle" x="275.5" y="-82" font-family="Helvetica,sans-Serif" font-size="10.00">dlnE2_da</text>
</a>
</g>
</g>
<!-- Node1&#45;&gt;Node2 -->
<g id="edge1_Node000001_Node000002" class="edge">
<title>Node1&#45;&gt;Node2</title>
<g id="a_edge1_Node000001_Node000002"><a xlink:title=" ">
<path fill="none" stroke="#63b8ff" d="M99.1,-69.62C139.68,-73.06 196.81,-77.91 234.71,-81.13"/>
<polygon fill="#63b8ff" stroke="#63b8ff" points="234.6,-84.63 244.86,-81.99 235.19,-77.65 234.6,-84.63"/>
</a>
</g>
</g>
<!-- Node6 -->
<g id="Node000006" class="node">
<title>Node6</title>
<g id="a_Node000006"><a xlink:href="cosmo_8c.html#a445fb83b1fea3dc80e9d163d14e7591f" target="_top" xlink:title=" ">
<polygon fill="white" stroke="#666666" points="209,-56 135,-56 135,-37 209,-37 209,-56"/>
<text text-anchor="middle" x="172" y="-44" font-family="Helvetica,sans-Serif" font-size="10.00">Ez2_from_a</text>
</a>
</g>
</g>
<!-- Node1&#45;&gt;Node6 -->
<g id="edge6_Node000001_Node000006" class="edge">
<title>Node1&#45;&gt;Node6</title>
<g id="a_edge6_Node000001_Node000006"><a xlink:title=" ">
<path fill="none" stroke="#63b8ff" d="M99.16,-57.83C107.62,-56.49 116.38,-55.11 124.77,-53.79"/>
<polygon fill="#63b8ff" stroke="#63b8ff" points="125.43,-57.23 134.76,-52.21 124.33,-50.31 125.43,-57.23"/>
</a>
</g>
</g>
<!-- Node3 -->
<g id="Node000003" class="node">
<title>Node3</title>
<g id="a_Node000003"><a xlink:href="cosmo_8c.html#ab72944c257efd64b18cbf29712033a3d" target="_top" xlink:title=" ">
<polygon fill="white" stroke="#666666" points="461,-132 346,-132 346,-113 461,-113 461,-132"/>
<text text-anchor="middle" x="403.5" y="-120" font-family="Helvetica,sans-Serif" font-size="10.00">DE_EquationOfState</text>
</a>
</g>
</g>
<!-- Node2&#45;&gt;Node3 -->
<g id="edge2_Node000002_Node000003" class="edge">
<title>Node2&#45;&gt;Node3</title>
<g id="a_edge2_Node000002_Node000003"><a xlink:title=" ">
<path fill="none" stroke="#63b8ff" d="M306.04,-93.41C322.49,-98.37 343.22,-104.62 361.25,-110.06"/>
<polygon fill="#63b8ff" stroke="#63b8ff" points="360.36,-113.45 370.94,-112.98 362.38,-106.74 360.36,-113.45"/>
</a>
</g>
</g>
<!-- Node4 -->
<g id="Node000004" class="node">
<title>Node4</title>
<g id="a_Node000004"><a xlink:href="cosmo_8c.html#a6341f5394ed17a00dc77c5519b292ae3" target="_top" xlink:title=" ">
<polygon fill="white" stroke="#666666" points="594,-94 501,-94 501,-75 594,-75 594,-94"/>
<text text-anchor="middle" x="547.5" y="-82" font-family="Helvetica,sans-Serif" font-size="10.00">my_spline_eval</text>
</a>
</g>
</g>
<!-- Node2&#45;&gt;Node4 -->
<g id="edge4_Node000002_Node000004" class="edge">
<title>Node2&#45;&gt;Node4</title>
<g id="a_edge4_Node000002_Node000004"><a xlink:title=" ">
<path fill="none" stroke="#63b8ff" d="M306.17,-84.5C350.4,-84.5 434.43,-84.5 490.47,-84.5"/>
<polygon fill="#63b8ff" stroke="#63b8ff" points="490.59,-88 500.59,-84.5 490.59,-81 490.59,-88"/>
</a>
</g>
</g>
<!-- Node5 -->
<g id="Node000005" class="node">
<title>Node5</title>
<g id="a_Node000005"><a xlink:href="cosmo_8c.html#abbdf4cc6d70bc314c73e389cb6ce7d7a" target="_top" xlink:title=" ">
<polygon fill="white" stroke="#666666" points="465,-56 342,-56 342,-37 465,-37 465,-56"/>
<text text-anchor="middle" x="403.5" y="-44" font-family="Helvetica,sans-Serif" font-size="10.00">my_spline_eval_deriv</text>
</a>
</g>
</g>
<!-- Node2&#45;&gt;Node5 -->
<g id="edge5_Node000002_Node000005" class="edge">
<title>Node2&#45;&gt;Node5</title>
<g id="a_edge5_Node000002_Node000005"><a xlink:title=" ">
<path fill="none" stroke="#63b8ff" d="M306.04,-75.59C322.49,-70.63 343.22,-64.38 361.25,-58.94"/>
<polygon fill="#63b8ff" stroke="#63b8ff" points="362.38,-62.26 370.94,-56.02 360.36,-55.55 362.38,-62.26"/>
</a>
</g>
</g>
<!-- Node3&#45;&gt;Node4 -->
<g id="edge3_Node000003_Node000004" class="edge">
<title>Node3&#45;&gt;Node4</title>
<g id="a_edge3_Node000003_Node000004"><a xlink:title=" ">
<path fill="none" stroke="#63b8ff" d="M440.33,-112.91C458.66,-108.01 481.18,-101.98 500.75,-96.74"/>
<polygon fill="#63b8ff" stroke="#63b8ff" points="501.92,-100.05 510.68,-94.09 500.11,-93.29 501.92,-100.05"/>
</a>
</g>
</g>
<!-- Node7 -->
<g id="Node000007" class="node">
<title>Node7</title>
<g id="a_Node000007"><a xlink:href="cosmo_8c.html#ac7fbe724feedc1cb5b0afe20117b5f8d" target="_top" xlink:title=" ">
<polygon fill="white" stroke="#666666" points="299.5,-56 251.5,-56 251.5,-37 299.5,-37 299.5,-56"/>
<text text-anchor="middle" x="275.5" y="-44" font-family="Helvetica,sans-Serif" font-size="10.00">a_to_z</text>
</a>
</g>
</g>
<!-- Node6&#45;&gt;Node7 -->
<g id="edge7_Node000006_Node000007" class="edge">
<title>Node6&#45;&gt;Node7</title>
<g id="a_edge7_Node000006_Node000007"><a xlink:title=" ">
<path fill="none" stroke="#63b8ff" d="M209.07,-46.5C219.47,-46.5 230.78,-46.5 241.02,-46.5"/>
<polygon fill="#63b8ff" stroke="#63b8ff" points="241.22,-50 251.22,-46.5 241.22,-43 241.22,-50"/>
</a>
</g>
</g>
<!-- Node8 -->
<g id="Node000008" class="node">
<title>Node8</title>
<g id="a_Node000008"><a xlink:href="cosmo_8c.html#a23ab46a1787abb61a8685d7c8f06cdd4" target="_top" xlink:title=" ">
<polygon fill="white" stroke="#666666" points="290,-19 261,-19 261,0 290,0 290,-19"/>
<text text-anchor="middle" x="275.5" y="-7" font-family="Helvetica,sans-Serif" font-size="10.00">Ez</text>
</a>
</g>
</g>
<!-- Node6&#45;&gt;Node8 -->
<g id="edge8_Node000006_Node000008" class="edge">
<title>Node6&#45;&gt;Node8</title>
<g id="a_edge8_Node000006_Node000008"><a xlink:title=" ">
<path fill="none" stroke="#63b8ff" d="M199.14,-36.97C215.33,-31.07 235.93,-23.56 251.5,-17.89"/>
<polygon fill="#63b8ff" stroke="#63b8ff" points="252.71,-21.17 260.9,-14.46 250.31,-14.59 252.71,-21.17"/>
</a>
</g>
</g>
<!-- Node9 -->
<g id="Node000009" class="node">
<title>Node9</title>
<g id="a_Node000009"><a xlink:href="cosmo_8c.html#a911e9ce363c4662ce531c65885519f7a" target="_top" xlink:title=" ">
<polygon fill="white" stroke="#666666" points="429,-19 378,-19 378,0 429,0 429,-19"/>
<text text-anchor="middle" x="403.5" y="-7" font-family="Helvetica,sans-Serif" font-size="10.00">Hubble</text>
</a>
</g>
</g>
<!-- Node8&#45;&gt;Node9 -->
<g id="edge9_Node000008_Node000009" class="edge">
<title>Node8&#45;&gt;Node9</title>
<g id="a_edge9_Node000008_Node000009"><a xlink:title=" ">
<path fill="none" stroke="#63b8ff" d="M290.47,-9.5C308.94,-9.5 342.13,-9.5 367.6,-9.5"/>
<polygon fill="#63b8ff" stroke="#63b8ff" points="367.63,-13 377.63,-9.5 367.63,-6 367.63,-13"/>
</a>
</g>
</g>
<!-- Node9&#45;&gt;Node4 -->
<g id="edge10_Node000009_Node000004" class="edge">
<title>Node9&#45;&gt;Node4</title>
<g id="a_edge10_Node000009_Node000004"><a xlink:title=" ">
<path fill="none" stroke="#63b8ff" d="M429.01,-14.88C440.29,-17.83 453.65,-22.02 465,-27.5 487.96,-38.58 511.55,-55.84 527.4,-68.47"/>
<polygon fill="#63b8ff" stroke="#63b8ff" points="525.39,-71.35 535.36,-74.94 529.81,-65.91 525.39,-71.35"/>
</a>
</g>
</g>
</g>
</svg>
