<?xml version="1.0" encoding="UTF-8" standalone="no"?>
<!DOCTYPE svg PUBLIC "-//W3C//DTD SVG 1.1//EN"
 "http://www.w3.org/Graphics/SVG/1.1/DTD/svg11.dtd">
<!-- Generated by graphviz version 2.43.0 (0)
 -->
<!-- Title: DE_EquationOfState Pages: 1 -->
<svg width="698pt" height="103pt"
 viewBox="0.00 0.00 698.00 103.00" xmlns="http://www.w3.org/2000/svg" xmlns:xlink="http://www.w3.org/1999/xlink">
<g id="graph0" class="graph" transform="scale(1 1) rotate(0) translate(4 99)">
<title>DE_EquationOfState</title>
<!-- Node1 -->
<g id="Node000001" class="node">
<title>Node1</title>
<g id="a_Node000001"><a xlink:title=" ">
<polygon fill="#999999" stroke="#666666" points="690,-57 575,-57 575,-38 690,-38 690,-57"/>
<text text-anchor="middle" x="632.5" y="-45" font-family="Helvetica,sans-Serif" font-size="10.00">DE_EquationOfState</text>
</a>
</g>
</g>
<!-- Node2 -->
<g id="Node000002" class="node">
<title>Node2</title>
<g id="a_Node000002"><a xlink:href="cosmo_8c.html#ab4c8868992fc24f252c2064899316b3d" target="_top" xlink:title=" ">
<polygon fill="white" stroke="#666666" points="539,-95 478,-95 478,-76 539,-76 539,-95"/>
<text text-anchor="middle" x="508.5" y="-83" font-family="Helvetica,sans-Serif" font-size="10.00">dlnE2_da</text>
</a>
</g>
</g>
<!-- Node1&#45;&gt;Node2 -->
<g id="edge1_Node000001_Node000002" class="edge">
<title>Node1&#45;&gt;Node2</title>
<g id="a_edge1_Node000001_Node000002"><a xlink:title=" ">
<path fill="none" stroke="#63b8ff" d="M591.03,-60.11C574.03,-65.4 554.63,-71.44 539.01,-76.31"/>
<polygon fill="#63b8ff" stroke="#63b8ff" points="592.21,-63.4 600.71,-57.09 590.13,-56.72 592.21,-63.4"/>
</a>
</g>
</g>
<!-- Node4 -->
<g id="Node000004" class="node">
<title>Node4</title>
<g id="a_Node000004"><a xlink:href="cosmo_8c.html#a53b1cc7220c453661866a82f48ce0fb5" target="_top" xlink:title=" ">
<polygon fill="white" stroke="#666666" points="307,-57 190,-57 190,-38 307,-38 307,-57"/>
<text text-anchor="middle" x="248.5" y="-45" font-family="Helvetica,sans-Serif" font-size="10.00">initialize_cosmology</text>
</a>
</g>
</g>
<!-- Node1&#45;&gt;Node4 -->
<g id="edge6_Node000001_Node000004" class="edge">
<title>Node1&#45;&gt;Node4</title>
<g id="a_edge6_Node000001_Node000004"><a xlink:title=" ">
<path fill="none" stroke="#63b8ff" d="M564.28,-47.5C491.37,-47.5 376.18,-47.5 307.21,-47.5"/>
<polygon fill="#63b8ff" stroke="#63b8ff" points="564.72,-51 574.72,-47.5 564.72,-44 564.72,-51"/>
</a>
</g>
</g>
<!-- Node7 -->
<g id="Node000007" class="node">
<title>Node7</title>
<g id="a_Node000007"><a xlink:href="cosmo_8c.html#a115399f71530d142e4eb7f3a2ba838b9" target="_top" xlink:title=" ">
<polygon fill="white" stroke="#666666" points="440.5,-19 344.5,-19 344.5,0 440.5,0 440.5,-19"/>
<text text-anchor="middle" x="392.5" y="-7" font-family="Helvetica,sans-Serif" font-size="10.00">IntegrandForEoS</text>
</a>
</g>
</g>
<!-- Node1&#45;&gt;Node7 -->
<g id="edge7_Node000001_Node000007" class="edge">
<title>Node1&#45;&gt;Node7</title>
<g id="a_edge7_Node000001_Node000007"><a xlink:title=" ">
<path fill="none" stroke="#63b8ff" d="M564.7,-36.84C525.17,-30.52 476.04,-22.68 440.57,-17.01"/>
<polygon fill="#63b8ff" stroke="#63b8ff" points="564.37,-40.33 574.8,-38.45 565.47,-33.41 564.37,-40.33"/>
</a>
</g>
</g>
<!-- Node3 -->
<g id="Node000003" class="node">
<title>Node3</title>
<g id="a_Node000003"><a xlink:href="cosmo_8c.html#a77c250cf8a223800c68d59981acc9511" target="_top" xlink:title=" ">
<polygon fill="white" stroke="#666666" points="442,-95 343,-95 343,-76 442,-76 442,-95"/>
<text text-anchor="middle" x="392.5" y="-83" font-family="Helvetica,sans-Serif" font-size="10.00">system_of_ODEs</text>
</a>
</g>
</g>
<!-- Node2&#45;&gt;Node3 -->
<g id="edge2_Node000002_Node000003" class="edge">
<title>Node2&#45;&gt;Node3</title>
<g id="a_edge2_Node000002_Node000003"><a xlink:title=" ">
<path fill="none" stroke="#63b8ff" d="M467.81,-85.5C459.62,-85.5 450.91,-85.5 442.43,-85.5"/>
<polygon fill="#63b8ff" stroke="#63b8ff" points="467.85,-89 477.85,-85.5 467.85,-82 467.85,-89"/>
</a>
</g>
</g>
<!-- Node3&#45;&gt;Node4 -->
<g id="edge3_Node000003_Node000004" class="edge">
<title>Node3&#45;&gt;Node4</title>
<g id="a_edge3_Node000003_Node000004"><a xlink:title=" ">
<path fill="none" stroke="#63b8ff" d="M346.01,-73.33C326.37,-68.07 303.73,-62.01 285.32,-57.09"/>
<polygon fill="#63b8ff" stroke="#63b8ff" points="345.1,-76.71 355.67,-75.91 346.91,-69.94 345.1,-76.71"/>
</a>
</g>
</g>
<!-- Node5 -->
<g id="Node000005" class="node">
<title>Node5</title>
<g id="a_Node000005"><a xlink:href="initialization_8c.html#a2bed034b4a40d49d0765d1ce741bd8a9" target="_top" xlink:title=" ">
<polygon fill="white" stroke="#666666" points="154,-57 77,-57 77,-38 154,-38 154,-57"/>
<text text-anchor="middle" x="115.5" y="-45" font-family="Helvetica,sans-Serif" font-size="10.00">initialization</text>
</a>
</g>
</g>
<!-- Node4&#45;&gt;Node5 -->
<g id="edge4_Node000004_Node000005" class="edge">
<title>Node4&#45;&gt;Node5</title>
<g id="a_edge4_Node000004_Node000005"><a xlink:title=" ">
<path fill="none" stroke="#63b8ff" d="M179.44,-47.5C170.72,-47.5 162.06,-47.5 154.08,-47.5"/>
<polygon fill="#63b8ff" stroke="#63b8ff" points="179.66,-51 189.66,-47.5 179.66,-44 179.66,-51"/>
</a>
</g>
</g>
<!-- Node6 -->
<g id="Node000006" class="node">
<title>Node6</title>
<g id="a_Node000006"><a xlink:href="pinocchio_8c.html#a647f21a28344e1d9c643f4115516d7c9" target="_top" xlink:title=" ">
<polygon fill="white" stroke="#666666" points="41,-57 0,-57 0,-38 41,-38 41,-57"/>
<text text-anchor="middle" x="20.5" y="-45" font-family="Helvetica,sans-Serif" font-size="10.00">main</text>
</a>
</g>
</g>
<!-- Node5&#45;&gt;Node6 -->
<g id="edge5_Node000005_Node000006" class="edge">
<title>Node5&#45;&gt;Node6</title>
<g id="a_edge5_Node000005_Node000006"><a xlink:title=" ">
<path fill="none" stroke="#63b8ff" d="M66.73,-47.5C57.65,-47.5 48.63,-47.5 41.06,-47.5"/>
<polygon fill="#63b8ff" stroke="#63b8ff" points="66.94,-51 76.94,-47.5 66.94,-44 66.94,-51"/>
</a>
</g>
</g>
<!-- Node7&#45;&gt;Node4 -->
<g id="edge8_Node000007_Node000004" class="edge">
<title>Node7&#45;&gt;Node4</title>
<g id="a_edge8_Node000007_Node000004"><a xlink:title=" ">
<path fill="none" stroke="#63b8ff" d="M346.01,-21.67C326.37,-26.93 303.73,-32.99 285.32,-37.91"/>
<polygon fill="#63b8ff" stroke="#63b8ff" points="346.91,-25.06 355.67,-19.09 345.1,-18.29 346.91,-25.06"/>
</a>
</g>
</g>
</g>
</svg>
