<?xml version="1.0" encoding="UTF-8" standalone="no"?>
<!DOCTYPE svg PUBLIC "-//W3C//DTD SVG 1.1//EN"
 "http://www.w3.org/Graphics/SVG/1.1/DTD/svg11.dtd">
<!-- Generated by graphviz version 2.43.0 (0)
 -->
<!-- Title: Hubble Pages: 1 -->
<svg width="1257pt" height="290pt"
 viewBox="0.00 0.00 1257.00 290.00" xmlns="http://www.w3.org/2000/svg" xmlns:xlink="http://www.w3.org/1999/xlink">
<g id="graph0" class="graph" transform="scale(1 1) rotate(0) translate(4 286)">
<title>Hubble</title>
<!-- Node1 -->
<g id="Node000001" class="node">
<title>Node1</title>
<g id="a_Node000001"><a xlink:title=" ">
<polygon fill="#999999" stroke="#666666" points="1249,-150 1198,-150 1198,-131 1249,-131 1249,-150"/>
<text text-anchor="middle" x="1223.5" y="-138" font-family="Helvetica,sans-Serif" font-size="10.00">Hubble</text>
</a>
</g>
</g>
<!-- Node2 -->
<g id="Node000002" class="node">
<title>Node2</title>
<g id="a_Node000002"><a xlink:href="cosmo_8c.html#a23ab46a1787abb61a8685d7c8f06cdd4" target="_top" xlink:title=" ">
<polygon fill="white" stroke="#666666" points="1135.5,-150 1106.5,-150 1106.5,-131 1135.5,-131 1135.5,-150"/>
<text text-anchor="middle" x="1121" y="-138" font-family="Helvetica,sans-Serif" font-size="10.00">Ez</text>
</a>
</g>
</g>
<!-- Node1&#45;&gt;Node2 -->
<g id="edge1_Node000001_Node000002" class="edge">
<title>Node1&#45;&gt;Node2</title>
<g id="a_edge1_Node000001_Node000002"><a xlink:title=" ">
<path fill="none" stroke="#63b8ff" d="M1187.75,-140.5C1169.77,-140.5 1148.87,-140.5 1135.54,-140.5"/>
<polygon fill="#63b8ff" stroke="#63b8ff" points="1187.91,-144 1197.91,-140.5 1187.91,-137 1187.91,-144"/>
</a>
</g>
</g>
<!-- Node17 -->
<g id="Node000017" class="node">
<title>Node17</title>
<g id="a_Node000017"><a xlink:href="cosmo_8c.html#a6c5b41b822c72ad8a22bfbc88a61257c" target="_top" xlink:title=" ">
<polygon fill="white" stroke="#666666" points="1158,-187 1084,-187 1084,-168 1158,-168 1158,-187"/>
<text text-anchor="middle" x="1121" y="-175" font-family="Helvetica,sans-Serif" font-size="10.00">Hubble_Gyr</text>
</a>
</g>
</g>
<!-- Node1&#45;&gt;Node17 -->
<g id="edge20_Node000001_Node000017" class="edge">
<title>Node1&#45;&gt;Node17</title>
<g id="a_edge20_Node000001_Node000017"><a xlink:title=" ">
<path fill="none" stroke="#63b8ff" d="M1188.25,-153.11C1175.11,-157.95 1160.34,-163.38 1148.09,-167.9"/>
<polygon fill="#63b8ff" stroke="#63b8ff" points="1189.74,-156.29 1197.91,-149.55 1187.32,-149.72 1189.74,-156.29"/>
</a>
</g>
</g>
<!-- Node18 -->
<g id="Node000018" class="node">
<title>Node18</title>
<g id="a_Node000018"><a xlink:href="write__snapshot_8c.html#a98560c17ca241d13c44b9358a7723d00" target="_top" xlink:title=" ">
<polygon fill="white" stroke="#666666" points="1162,-103 1080,-103 1080,-84 1162,-84 1162,-103"/>
<text text-anchor="middle" x="1121" y="-91" font-family="Helvetica,sans-Serif" font-size="10.00">initialize_VEL</text>
</a>
</g>
</g>
<!-- Node1&#45;&gt;Node18 -->
<g id="edge21_Node000001_Node000018" class="edge">
<title>Node1&#45;&gt;Node18</title>
<g id="a_edge21_Node000001_Node000018"><a xlink:title=" ">
<path fill="none" stroke="#63b8ff" d="M1193.1,-126.75C1176.91,-119.18 1157.21,-109.96 1142.65,-103.16"/>
<polygon fill="#63b8ff" stroke="#63b8ff" points="1191.62,-129.92 1202.16,-130.99 1194.59,-123.58 1191.62,-129.92"/>
</a>
</g>
</g>
<!-- Node20 -->
<g id="Node000020" class="node">
<title>Node20</title>
<g id="a_Node000020"><a xlink:href="cosmo_8c.html#a12e12f1c8543948576eefc9f4cba9363" target="_top" xlink:title=" ">
<polygon fill="white" stroke="#666666" points="917,-282 762,-282 762,-263 917,-263 917,-282"/>
<text text-anchor="middle" x="839.5" y="-270" font-family="Helvetica,sans-Serif" font-size="10.00">IntegrandComovingDistance</text>
</a>
</g>
</g>
<!-- Node1&#45;&gt;Node20 -->
<g id="edge24_Node000001_Node000020" class="edge">
<title>Node1&#45;&gt;Node20</title>
<g id="a_edge24_Node000001_Node000020"><a xlink:title=" ">
<path fill="none" stroke="#63b8ff" d="M1207.64,-158.06C1196.34,-170.33 1179.74,-186.12 1162,-195.5 1084.37,-236.55 984.7,-256.04 917.06,-265.07"/>
<polygon fill="#63b8ff" stroke="#63b8ff" points="1210.55,-160.06 1214.58,-150.26 1205.32,-155.41 1210.55,-160.06"/>
</a>
</g>
</g>
<!-- Node21 -->
<g id="Node000021" class="node">
<title>Node21</title>
<g id="a_Node000021"><a xlink:href="build__groups_8c.html#abe99b5cfd56cfef913ff93b89cc3555f" target="_top" xlink:title=" ">
<polygon fill="white" stroke="#666666" points="1157,-56 1085,-56 1085,-37 1157,-37 1157,-56"/>
<text text-anchor="middle" x="1121" y="-44" font-family="Helvetica,sans-Serif" font-size="10.00">set_obj_vel</text>
</a>
</g>
</g>
<!-- Node1&#45;&gt;Node21 -->
<g id="edge26_Node000001_Node000021" class="edge">
<title>Node1&#45;&gt;Node21</title>
<g id="a_edge26_Node000001_Node000021"><a xlink:title=" ">
<path fill="none" stroke="#63b8ff" d="M1208.38,-123.1C1196.68,-109.2 1179.23,-89.6 1162,-74.5 1154.35,-67.79 1145.08,-61.22 1137.4,-56.13"/>
<polygon fill="#63b8ff" stroke="#63b8ff" points="1205.79,-125.47 1214.87,-130.93 1211.18,-121 1205.79,-125.47"/>
</a>
</g>
</g>
<!-- Node3 -->
<g id="Node000003" class="node">
<title>Node3</title>
<g id="a_Node000003"><a xlink:href="cosmo_8c.html#a445fb83b1fea3dc80e9d163d14e7591f" target="_top" xlink:title=" ">
<polygon fill="white" stroke="#666666" points="1035.5,-208 961.5,-208 961.5,-189 1035.5,-189 1035.5,-208"/>
<text text-anchor="middle" x="998.5" y="-196" font-family="Helvetica,sans-Serif" font-size="10.00">Ez2_from_a</text>
</a>
</g>
</g>
<!-- Node2&#45;&gt;Node3 -->
<g id="edge2_Node000002_Node000003" class="edge">
<title>Node2&#45;&gt;Node3</title>
<g id="a_edge2_Node000002_Node000003"><a xlink:title=" ">
<path fill="none" stroke="#63b8ff" d="M1096.78,-150.65C1091.25,-153.15 1085.39,-155.87 1080,-158.5 1063.74,-166.44 1060.18,-169.42 1044,-177.5 1036.36,-181.32 1027.9,-185.36 1020.42,-188.86"/>
<polygon fill="#63b8ff" stroke="#63b8ff" points="1098.49,-153.72 1106.2,-146.45 1095.64,-147.33 1098.49,-153.72"/>
</a>
</g>
</g>
<!-- Node9 -->
<g id="Node000009" class="node">
<title>Node9</title>
<g id="a_Node000009"><a xlink:href="cosmo_8c.html#abe72f217a5a4d0aadeba3d2c733128fb" target="_top" xlink:title=" ">
<polygon fill="white" stroke="#666666" points="1044,-132 953,-132 953,-113 1044,-113 1044,-132"/>
<text text-anchor="middle" x="998.5" y="-120" font-family="Helvetica,sans-Serif" font-size="10.00">OmegaLambda</text>
</a>
</g>
</g>
<!-- Node2&#45;&gt;Node9 -->
<g id="edge9_Node000002_Node000009" class="edge">
<title>Node2&#45;&gt;Node9</title>
<g id="a_edge9_Node000002_Node000009"><a xlink:title=" ">
<path fill="none" stroke="#63b8ff" d="M1095.87,-136.9C1081.09,-134.69 1061.7,-131.79 1044.19,-129.18"/>
<polygon fill="#63b8ff" stroke="#63b8ff" points="1095.77,-140.42 1106.18,-138.44 1096.8,-133.5 1095.77,-140.42"/>
</a>
</g>
</g>
<!-- Node16 -->
<g id="Node000016" class="node">
<title>Node16</title>
<g id="a_Node000016"><a xlink:href="cosmo_8c.html#a4cb3653cf2125654f8b70d14b2a08dc8" target="_top" xlink:title=" ">
<polygon fill="white" stroke="#666666" points="1040.5,-169 956.5,-169 956.5,-150 1040.5,-150 1040.5,-169"/>
<text text-anchor="middle" x="998.5" y="-157" font-family="Helvetica,sans-Serif" font-size="10.00">OmegaMatter</text>
</a>
</g>
</g>
<!-- Node2&#45;&gt;Node16 -->
<g id="edge17_Node000002_Node000016" class="edge">
<title>Node2&#45;&gt;Node16</title>
<g id="a_edge17_Node000002_Node000016"><a xlink:title=" ">
<path fill="none" stroke="#63b8ff" d="M1096.19,-144.25C1080.38,-146.75 1059.2,-150.09 1040.7,-153"/>
<polygon fill="#63b8ff" stroke="#63b8ff" points="1096.84,-147.69 1106.18,-142.68 1095.75,-140.78 1096.84,-147.69"/>
</a>
</g>
</g>
<!-- Node4 -->
<g id="Node000004" class="node">
<title>Node4</title>
<g id="a_Node000004"><a xlink:href="cosmo_8c.html#a77c250cf8a223800c68d59981acc9511" target="_top" xlink:title=" ">
<polygon fill="white" stroke="#666666" points="889,-245 790,-245 790,-226 889,-226 889,-245"/>
<text text-anchor="middle" x="839.5" y="-233" font-family="Helvetica,sans-Serif" font-size="10.00">system_of_ODEs</text>
</a>
</g>
</g>
<!-- Node3&#45;&gt;Node4 -->
<g id="edge3_Node000003_Node000004" class="edge">
<title>Node3&#45;&gt;Node4</title>
<g id="a_edge3_Node000003_Node000004"><a xlink:title=" ">
<path fill="none" stroke="#63b8ff" d="M951.55,-209.33C929.22,-214.59 902.62,-220.86 881.05,-225.94"/>
<polygon fill="#63b8ff" stroke="#63b8ff" points="952.55,-212.69 961.48,-206.99 950.94,-205.88 952.55,-212.69"/>
</a>
</g>
</g>
<!-- Node8 -->
<g id="Node000008" class="node">
<title>Node8</title>
<g id="a_Node000008"><a xlink:href="cosmo_8c.html#a3eb3007bd4360ca21a5e3a02d50739a5" target="_top" xlink:title=" ">
<polygon fill="white" stroke="#666666" points="905,-208 774,-208 774,-189 905,-189 905,-208"/>
<text text-anchor="middle" x="839.5" y="-196" font-family="Helvetica,sans-Serif" font-size="10.00">system_of_ODEs_small</text>
</a>
</g>
</g>
<!-- Node3&#45;&gt;Node8 -->
<g id="edge7_Node000003_Node000008" class="edge">
<title>Node3&#45;&gt;Node8</title>
<g id="a_edge7_Node000003_Node000008"><a xlink:title=" ">
<path fill="none" stroke="#63b8ff" d="M951.28,-198.5C936.79,-198.5 920.53,-198.5 905.02,-198.5"/>
<polygon fill="#63b8ff" stroke="#63b8ff" points="951.48,-202 961.48,-198.5 951.48,-195 951.48,-202"/>
</a>
</g>
</g>
<!-- Node5 -->
<g id="Node000005" class="node">
<title>Node5</title>
<g id="a_Node000005"><a xlink:href="cosmo_8c.html#a53b1cc7220c453661866a82f48ce0fb5" target="_top" xlink:title=" ">
<polygon fill="white" stroke="#666666" points="726,-208 609,-208 609,-189 726,-189 726,-208"/>
<text text-anchor="middle" x="667.5" y="-196" font-family="Helvetica,sans-Serif" font-size="10.00">initialize_cosmology</text>
</a>
</g>
</g>
<!-- Node4&#45;&gt;Node5 -->
<g id="edge4_Node000004_Node000005" class="edge">
<title>Node4&#45;&gt;Node5</title>
<g id="a_edge4_Node000004_Node000005"><a xlink:title=" ">
<path fill="none" stroke="#63b8ff" d="M784.65,-223.78C761.37,-218.71 734.47,-212.86 712.43,-208.06"/>
<polygon fill="#63b8ff" stroke="#63b8ff" points="784.21,-227.26 794.72,-225.97 785.69,-220.42 784.21,-227.26"/>
</a>
</g>
</g>
<!-- Node6 -->
<g id="Node000006" class="node">
<title>Node6</title>
<g id="a_Node000006"><a xlink:href="initialization_8c.html#a2bed034b4a40d49d0765d1ce741bd8a9" target="_top" xlink:title=" ">
<polygon fill="white" stroke="#666666" points="315.5,-180 238.5,-180 238.5,-161 315.5,-161 315.5,-180"/>
<text text-anchor="middle" x="277" y="-168" font-family="Helvetica,sans-Serif" font-size="10.00">initialization</text>
</a>
</g>
</g>
<!-- Node5&#45;&gt;Node6 -->
<g id="edge5_Node000005_Node000006" class="edge">
<title>Node5&#45;&gt;Node6</title>
<g id="a_edge5_Node000005_Node000006"><a xlink:title=" ">
<path fill="none" stroke="#63b8ff" d="M598.76,-193.62C516.57,-187.69 380.91,-177.92 315.53,-173.2"/>
<polygon fill="#63b8ff" stroke="#63b8ff" points="598.53,-197.11 608.76,-194.34 599.03,-190.13 598.53,-197.11"/>
</a>
</g>
</g>
<!-- Node7 -->
<g id="Node000007" class="node">
<title>Node7</title>
<g id="a_Node000007"><a xlink:href="pinocchio_8c.html#a647f21a28344e1d9c643f4115516d7c9" target="_top" xlink:title=" ">
<polygon fill="white" stroke="#666666" points="41,-113 0,-113 0,-94 41,-94 41,-113"/>
<text text-anchor="middle" x="20.5" y="-101" font-family="Helvetica,sans-Serif" font-size="10.00">main</text>
</a>
</g>
</g>
<!-- Node6&#45;&gt;Node7 -->
<g id="edge6_Node000006_Node000007" class="edge">
<title>Node6&#45;&gt;Node7</title>
<g id="a_edge6_Node000006_Node000007"><a xlink:title=" ">
<path fill="none" stroke="#63b8ff" d="M228.4,-169.13C187.12,-166.6 126.42,-159.6 77,-140.5 60.15,-133.99 43.23,-121.67 32.58,-113.05"/>
<polygon fill="#63b8ff" stroke="#63b8ff" points="228.28,-172.63 238.45,-169.68 228.66,-165.64 228.28,-172.63"/>
</a>
</g>
</g>
<!-- Node8&#45;&gt;Node5 -->
<g id="edge8_Node000008_Node000005" class="edge">
<title>Node8&#45;&gt;Node5</title>
<g id="a_edge8_Node000008_Node000005"><a xlink:title=" ">
<path fill="none" stroke="#63b8ff" d="M763.72,-198.5C751.11,-198.5 738.2,-198.5 726.11,-198.5"/>
<polygon fill="#63b8ff" stroke="#63b8ff" points="763.75,-202 773.75,-198.5 763.75,-195 763.75,-202"/>
</a>
</g>
</g>
<!-- Node10 -->
<g id="Node000010" class="node">
<title>Node10</title>
<g id="a_Node000010"><a xlink:href="collapse__times_8c.html#a16072c1c54a0bc722718884b29bd0409" target="_top" xlink:title=" ">
<polygon fill="white" stroke="#666666" points="877,-132 802,-132 802,-113 877,-113 877,-132"/>
<text text-anchor="middle" x="839.5" y="-120" font-family="Helvetica,sans-Serif" font-size="10.00">sng_system</text>
</a>
</g>
</g>
<!-- Node9&#45;&gt;Node10 -->
<g id="edge10_Node000009_Node000010" class="edge">
<title>Node9&#45;&gt;Node10</title>
<g id="a_edge10_Node000009_Node000010"><a xlink:title=" ">
<path fill="none" stroke="#63b8ff" d="M942.85,-122.5C921.15,-122.5 896.76,-122.5 877.24,-122.5"/>
<polygon fill="#63b8ff" stroke="#63b8ff" points="942.93,-126 952.93,-122.5 942.93,-119 942.93,-126"/>
</a>
</g>
</g>
<!-- Node11 -->
<g id="Node000011" class="node">
<title>Node11</title>
<g id="a_Node000011"><a xlink:href="collapse__times_8c.html#a5a4ca2ffca6643912e7efcad849494a8" target="_top" xlink:title=" ">
<polygon fill="white" stroke="#666666" points="693,-132 642,-132 642,-113 693,-113 693,-132"/>
<text text-anchor="middle" x="667.5" y="-120" font-family="Helvetica,sans-Serif" font-size="10.00">ell_sng</text>
</a>
</g>
</g>
<!-- Node10&#45;&gt;Node11 -->
<g id="edge11_Node000010_Node000011" class="edge">
<title>Node10&#45;&gt;Node11</title>
<g id="a_edge11_Node000010_Node000011"><a xlink:title=" ">
<path fill="none" stroke="#63b8ff" d="M791.21,-122.5C759.43,-122.5 718.83,-122.5 693.24,-122.5"/>
<polygon fill="#63b8ff" stroke="#63b8ff" points="791.61,-126 801.61,-122.5 791.61,-119 791.61,-126"/>
</a>
</g>
</g>
<!-- Node12 -->
<g id="Node000012" class="node">
<title>Node12</title>
<g id="a_Node000012"><a xlink:href="collapse__times_8c.html#a17f64ed25a27688514593ecaed77105a" target="_top" xlink:title=" ">
<polygon fill="white" stroke="#666666" points="573,-132 544,-132 544,-113 573,-113 573,-132"/>
<text text-anchor="middle" x="558.5" y="-120" font-family="Helvetica,sans-Serif" font-size="10.00">ell</text>
</a>
</g>
</g>
<!-- Node11&#45;&gt;Node12 -->
<g id="edge12_Node000011_Node000012" class="edge">
<title>Node11&#45;&gt;Node12</title>
<g id="a_edge12_Node000011_Node000012"><a xlink:title=" ">
<path fill="none" stroke="#63b8ff" d="M631.93,-122.5C611.94,-122.5 587.89,-122.5 573.15,-122.5"/>
<polygon fill="#63b8ff" stroke="#63b8ff" points="631.95,-126 641.95,-122.5 631.95,-119 631.95,-126"/>
</a>
</g>
</g>
<!-- Node13 -->
<g id="Node000013" class="node">
<title>Node13</title>
<g id="a_Node000013"><a xlink:href="collapse__times_8c.html#a6b93e952f9a470157498b9a72ea1e22f" target="_top" xlink:title=" ">
<polygon fill="white" stroke="#666666" points="508,-132 382,-132 382,-113 508,-113 508,-132"/>
<text text-anchor="middle" x="445" y="-120" font-family="Helvetica,sans-Serif" font-size="10.00">inverse_collapse_time</text>
</a>
</g>
</g>
<!-- Node12&#45;&gt;Node13 -->
<g id="edge13_Node000012_Node000013" class="edge">
<title>Node12&#45;&gt;Node13</title>
<g id="a_edge13_Node000012_Node000013"><a xlink:title=" ">
<path fill="none" stroke="#63b8ff" d="M533.65,-122.5C526.04,-122.5 517.23,-122.5 508.2,-122.5"/>
<polygon fill="#63b8ff" stroke="#63b8ff" points="533.83,-126 543.83,-122.5 533.83,-119 533.83,-126"/>
</a>
</g>
</g>
<!-- Node14 -->
<g id="Node000014" class="node">
<title>Node14</title>
<g id="a_Node000014"><a xlink:href="collapse__times_8c.html#a7de3cd9744dabc41d67e31ed8c5928de" target="_top" xlink:title=" ">
<polygon fill="white" stroke="#666666" points="346,-132 208,-132 208,-113 346,-113 346,-132"/>
<text text-anchor="middle" x="277" y="-120" font-family="Helvetica,sans-Serif" font-size="10.00">compute_collapse_times</text>
</a>
</g>
</g>
<!-- Node13&#45;&gt;Node14 -->
<g id="edge14_Node000013_Node000014" class="edge">
<title>Node13&#45;&gt;Node14</title>
<g id="a_edge14_Node000013_Node000014"><a xlink:title=" ">
<path fill="none" stroke="#63b8ff" d="M371.54,-122.5C363.12,-122.5 354.56,-122.5 346.2,-122.5"/>
<polygon fill="#63b8ff" stroke="#63b8ff" points="371.72,-126 381.72,-122.5 371.72,-119 371.72,-126"/>
</a>
</g>
</g>
<!-- Node15 -->
<g id="Node000015" class="node">
<title>Node15</title>
<g id="a_Node000015"><a xlink:href="fmax_8c.html#ac6c918d99a0517c1106d2b330c087f8a" target="_top" xlink:title=" ">
<polygon fill="white" stroke="#666666" points="169.5,-132 79.5,-132 79.5,-113 169.5,-113 169.5,-132"/>
<text text-anchor="middle" x="124.5" y="-120" font-family="Helvetica,sans-Serif" font-size="10.00">compute_fmax</text>
</a>
</g>
</g>
<!-- Node14&#45;&gt;Node15 -->
<g id="edge15_Node000014_Node000015" class="edge">
<title>Node14&#45;&gt;Node15</title>
<g id="a_edge15_Node000014_Node000015"><a xlink:title=" ">
<path fill="none" stroke="#63b8ff" d="M197.78,-122.5C188.17,-122.5 178.62,-122.5 169.76,-122.5"/>
<polygon fill="#63b8ff" stroke="#63b8ff" points="197.8,-126 207.8,-122.5 197.8,-119 197.8,-126"/>
</a>
</g>
</g>
<!-- Node15&#45;&gt;Node7 -->
<g id="edge16_Node000015_Node000007" class="edge">
<title>Node15&#45;&gt;Node7</title>
<g id="a_edge16_Node000015_Node000007"><a xlink:title=" ">
<path fill="none" stroke="#63b8ff" d="M69.28,-112.4C59.2,-110.52 49.29,-108.68 41.13,-107.16"/>
<polygon fill="#63b8ff" stroke="#63b8ff" points="68.88,-115.89 79.35,-114.28 70.16,-109 68.88,-115.89"/>
</a>
</g>
</g>
<!-- Node16&#45;&gt;Node5 -->
<g id="edge18_Node000016_Node000005" class="edge">
<title>Node16&#45;&gt;Node5</title>
<g id="a_edge18_Node000016_Node000005"><a xlink:title=" ">
<path fill="none" stroke="#63b8ff" d="M946.39,-162.13C898.56,-165 825.19,-170.43 762,-179.5 744.95,-181.95 726.32,-185.54 710.21,-188.95"/>
<polygon fill="#63b8ff" stroke="#63b8ff" points="946.72,-165.62 956.49,-161.54 946.31,-158.63 946.72,-165.62"/>
</a>
</g>
</g>
<!-- Node16&#45;&gt;Node10 -->
<g id="edge19_Node000016_Node000010" class="edge">
<title>Node16&#45;&gt;Node10</title>
<g id="a_edge19_Node000016_Node000010"><a xlink:title=" ">
<path fill="none" stroke="#63b8ff" d="M947.21,-147.65C924.4,-142.27 897.91,-136.03 877.04,-131.11"/>
<polygon fill="#63b8ff" stroke="#63b8ff" points="946.53,-151.08 957.07,-149.97 948.14,-144.27 946.53,-151.08"/>
</a>
</g>
</g>
<!-- Node19 -->
<g id="Node000019" class="node">
<title>Node19</title>
<g id="a_Node000019"><a xlink:href="write__snapshot_8c.html#a33e7e3a2533d63c37d22a7458b9502ae" target="_top" xlink:title=" ">
<polygon fill="white" stroke="#666666" points="501.5,-94 388.5,-94 388.5,-75 501.5,-75 501.5,-94"/>
<text text-anchor="middle" x="445" y="-82" font-family="Helvetica,sans-Serif" font-size="10.00">write_LPT_snapshot</text>
</a>
</g>
</g>
<!-- Node18&#45;&gt;Node19 -->
<g id="edge22_Node000018_Node000019" class="edge">
<title>Node18&#45;&gt;Node19</title>
<g id="a_edge22_Node000018_Node000019"><a xlink:title=" ">
<path fill="none" stroke="#63b8ff" d="M1069.74,-90.91C1013.81,-88.25 920.71,-84.5 840.5,-84.5 840.5,-84.5 840.5,-84.5 666.5,-84.5 610.42,-84.5 546.31,-84.5 501.73,-84.5"/>
<polygon fill="#63b8ff" stroke="#63b8ff" points="1069.59,-94.4 1079.74,-91.39 1069.93,-87.41 1069.59,-94.4"/>
</a>
</g>
</g>
<!-- Node19&#45;&gt;Node7 -->
<g id="edge23_Node000019_Node000007" class="edge">
<title>Node19&#45;&gt;Node7</title>
<g id="a_edge23_Node000019_Node000007"><a xlink:title=" ">
<path fill="none" stroke="#63b8ff" d="M378.24,-87.46C280.27,-91.86 101.1,-99.92 41.43,-102.6"/>
<polygon fill="#63b8ff" stroke="#63b8ff" points="378.5,-90.95 388.33,-87 378.18,-83.96 378.5,-90.95"/>
</a>
</g>
</g>
<!-- Node20&#45;&gt;Node5 -->
<g id="edge25_Node000020_Node000005" class="edge">
<title>Node20&#45;&gt;Node5</title>
<g id="a_edge25_Node000020_Node000005"><a xlink:title=" ">
<path fill="none" stroke="#63b8ff" d="M781.26,-260.22C774.67,-258.24 768.13,-256 762,-253.5 731.66,-241.11 699.37,-220.16 681.8,-208"/>
<polygon fill="#63b8ff" stroke="#63b8ff" points="780.31,-263.59 790.89,-262.93 782.21,-256.85 780.31,-263.59"/>
</a>
</g>
</g>
<!-- Node22 -->
<g id="Node000022" class="node">
<title>Node22</title>
<g id="a_Node000022"><a xlink:href="build__groups_8c.html#adaafe9165f4f93104de87c14939d2c60" target="_top" xlink:title=" ">
<polygon fill="white" stroke="#666666" points="1031,-56 966,-56 966,-37 1031,-37 1031,-56"/>
<text text-anchor="middle" x="998.5" y="-44" font-family="Helvetica,sans-Serif" font-size="10.00">store_PLC</text>
</a>
</g>
</g>
<!-- Node21&#45;&gt;Node22 -->
<g id="edge27_Node000021_Node000022" class="edge">
<title>Node21&#45;&gt;Node22</title>
<g id="a_edge27_Node000021_Node000022"><a xlink:title=" ">
<path fill="none" stroke="#63b8ff" d="M1074.57,-46.5C1060.13,-46.5 1044.48,-46.5 1031.23,-46.5"/>
<polygon fill="#63b8ff" stroke="#63b8ff" points="1074.82,-50 1084.82,-46.5 1074.82,-43 1074.82,-50"/>
</a>
</g>
</g>
<!-- Node26 -->
<g id="Node000026" class="node">
<title>Node26</title>
<g id="a_Node000026"><a xlink:href="write__halos_8c.html#a4ae40bdaead20fb1a2a22663d299b9e7" target="_top" xlink:title=" ">
<polygon fill="white" stroke="#666666" points="1040,-19 957,-19 957,0 1040,0 1040,-19"/>
<text text-anchor="middle" x="998.5" y="-7" font-family="Helvetica,sans-Serif" font-size="10.00">write_catalog</text>
</a>
</g>
</g>
<!-- Node21&#45;&gt;Node26 -->
<g id="edge32_Node000021_Node000026" class="edge">
<title>Node21&#45;&gt;Node26</title>
<g id="a_edge32_Node000021_Node000026"><a xlink:title=" ">
<path fill="none" stroke="#63b8ff" d="M1078.96,-33.9C1063.22,-29.07 1045.53,-23.63 1030.85,-19.12"/>
<polygon fill="#63b8ff" stroke="#63b8ff" points="1078.38,-37.38 1088.97,-36.97 1080.44,-30.69 1078.38,-37.38"/>
</a>
</g>
</g>
<!-- Node23 -->
<g id="Node000023" class="node">
<title>Node23</title>
<g id="a_Node000023"><a xlink:href="build__groups_8c.html#a4df1001cc86732388d8ecf04e3372827" target="_top" xlink:title=" ">
<polygon fill="white" stroke="#666666" points="879,-56 800,-56 800,-37 879,-37 879,-56"/>
<text text-anchor="middle" x="839.5" y="-44" font-family="Helvetica,sans-Serif" font-size="10.00">build_groups</text>
</a>
</g>
</g>
<!-- Node22&#45;&gt;Node23 -->
<g id="edge28_Node000022_Node000023" class="edge">
<title>Node22&#45;&gt;Node23</title>
<g id="a_edge28_Node000022_Node000023"><a xlink:title=" ">
<path fill="none" stroke="#63b8ff" d="M955.6,-46.5C931.86,-46.5 902.36,-46.5 879.17,-46.5"/>
<polygon fill="#63b8ff" stroke="#63b8ff" points="955.73,-50 965.73,-46.5 955.73,-43 955.73,-50"/>
</a>
</g>
</g>
<!-- Node24 -->
<g id="Node000024" class="node">
<title>Node24</title>
<g id="a_Node000024"><a xlink:href="fragment_8c.html#ac2bb250921932f90f7b0939d1181b66d" target="_top" xlink:title=" ">
<polygon fill="white" stroke="#666666" points="698.5,-56 636.5,-56 636.5,-37 698.5,-37 698.5,-56"/>
<text text-anchor="middle" x="667.5" y="-44" font-family="Helvetica,sans-Serif" font-size="10.00">fragment</text>
</a>
</g>
</g>
<!-- Node23&#45;&gt;Node24 -->
<g id="edge29_Node000023_Node000024" class="edge">
<title>Node23&#45;&gt;Node24</title>
<g id="a_edge29_Node000023_Node000024"><a xlink:title=" ">
<path fill="none" stroke="#63b8ff" d="M789.86,-46.5C760.5,-46.5 723.99,-46.5 698.73,-46.5"/>
<polygon fill="#63b8ff" stroke="#63b8ff" points="789.92,-50 799.92,-46.5 789.92,-43 789.92,-50"/>
</a>
</g>
</g>
<!-- Node25 -->
<g id="Node000025" class="node">
<title>Node25</title>
<g id="a_Node000025"><a xlink:href="fragment_8c.html#ae3aa75d17cbc170e60f4f48c4a2ffdf5" target="_top" xlink:title=" ">
<polygon fill="white" stroke="#666666" points="172,-56 77,-56 77,-37 172,-37 172,-56"/>
<text text-anchor="middle" x="124.5" y="-44" font-family="Helvetica,sans-Serif" font-size="10.00">fragment_driver</text>
</a>
</g>
</g>
<!-- Node24&#45;&gt;Node25 -->
<g id="edge30_Node000024_Node000025" class="edge">
<title>Node24&#45;&gt;Node25</title>
<g id="a_edge30_Node000024_Node000025"><a xlink:title=" ">
<path fill="none" stroke="#63b8ff" d="M626.13,-46.5C527.84,-46.5 276.52,-46.5 172.09,-46.5"/>
<polygon fill="#63b8ff" stroke="#63b8ff" points="626.25,-50 636.25,-46.5 626.25,-43 626.25,-50"/>
</a>
</g>
</g>
<!-- Node25&#45;&gt;Node7 -->
<g id="edge31_Node000025_Node000007" class="edge">
<title>Node25&#45;&gt;Node7</title>
<g id="a_edge31_Node000025_Node000007"><a xlink:title=" ">
<path fill="none" stroke="#63b8ff" d="M95.2,-60.76C89.16,-63.9 82.84,-67.26 77,-70.5 63.47,-78 48.4,-87.01 37.38,-93.71"/>
<polygon fill="#63b8ff" stroke="#63b8ff" points="97.07,-63.74 104.36,-56.05 93.87,-57.51 97.07,-63.74"/>
</a>
</g>
</g>
<!-- Node26&#45;&gt;Node23 -->
<g id="edge33_Node000026_Node000023" class="edge">
<title>Node26&#45;&gt;Node23</title>
<g id="a_edge33_Node000026_Node000023"><a xlink:title=" ">
<path fill="none" stroke="#63b8ff" d="M947.21,-21.35C925.17,-26.55 899.7,-32.55 879.17,-37.39"/>
<polygon fill="#63b8ff" stroke="#63b8ff" points="948.14,-24.73 957.07,-19.03 946.53,-17.92 948.14,-24.73"/>
</a>
</g>
</g>
</g>
</svg>
