<?xml version="1.0" encoding="UTF-8" standalone="no"?>
<!DOCTYPE svg PUBLIC "-//W3C//DTD SVG 1.1//EN"
 "http://www.w3.org/Graphics/SVG/1.1/DTD/svg11.dtd">
<!-- Generated by graphviz version 2.43.0 (0)
 -->
<!-- Title: IntegrandForMassVariance Pages: 1 -->
<svg width="642pt" height="175pt"
 viewBox="0.00 0.00 642.00 175.00" xmlns="http://www.w3.org/2000/svg" xmlns:xlink="http://www.w3.org/1999/xlink">
<g id="graph0" class="graph" transform="scale(1 1) rotate(0) translate(4 171)">
<title>IntegrandForMassVariance</title>
<!-- Node1 -->
<g id="Node000001" class="node">
<title>Node1</title>
<g id="a_Node000001"><a xlink:title=" ">
<polygon fill="#999999" stroke="#666666" points="146,-93 0,-93 0,-74 146,-74 146,-93"/>
<text text-anchor="middle" x="73" y="-81" font-family="Helvetica,sans-Serif" font-size="10.00">IntegrandForMassVariance</text>
</a>
</g>
</g>
<!-- Node2 -->
<g id="Node000002" class="node">
<title>Node2</title>
<g id="a_Node000002"><a xlink:href="cosmo_8c.html#a9fbcf5b69c272e801cf320cf814b23c4" target="_top" xlink:title=" ">
<polygon fill="white" stroke="#666666" points="272.5,-148 188.5,-148 188.5,-129 272.5,-129 272.5,-148"/>
<text text-anchor="middle" x="230.5" y="-136" font-family="Helvetica,sans-Serif" font-size="10.00">GrowingMode</text>
</a>
</g>
</g>
<!-- Node1&#45;&gt;Node2 -->
<g id="edge1_Node000001_Node000002" class="edge">
<title>Node1&#45;&gt;Node2</title>
<g id="a_edge1_Node000001_Node000002"><a xlink:title=" ">
<path fill="none" stroke="#63b8ff" d="M101.09,-93.08C126.54,-102.08 164.82,-115.62 192.97,-125.58"/>
<polygon fill="#63b8ff" stroke="#63b8ff" points="191.87,-128.9 202.46,-128.94 194.2,-122.3 191.87,-128.9"/>
</a>
</g>
</g>
<!-- Node5 -->
<g id="Node000005" class="node">
<title>Node5</title>
<g id="a_Node000005"><a xlink:href="cosmo_8c.html#adb3827724e24c320717073266dbfac4c" target="_top" xlink:title=" ">
<polygon fill="white" stroke="#666666" points="277,-93 184,-93 184,-74 277,-74 277,-93"/>
<text text-anchor="middle" x="230.5" y="-81" font-family="Helvetica,sans-Serif" font-size="10.00">PowerSpectrum</text>
</a>
</g>
</g>
<!-- Node1&#45;&gt;Node5 -->
<g id="edge4_Node000001_Node000005" class="edge">
<title>Node1&#45;&gt;Node5</title>
<g id="a_edge4_Node000001_Node000005"><a xlink:title=" ">
<path fill="none" stroke="#63b8ff" d="M146.29,-83.5C155.41,-83.5 164.63,-83.5 173.45,-83.5"/>
<polygon fill="#63b8ff" stroke="#63b8ff" points="173.58,-87 183.58,-83.5 173.58,-80 173.58,-87"/>
</a>
</g>
</g>
<!-- Node12 -->
<g id="Node000012" class="node">
<title>Node12</title>
<g id="a_Node000012"><a xlink:href="cosmo_8c.html#a9817ba0d254db24f71f8d7ab242b4fba" target="_top" xlink:title=" ">
<polygon fill="white" stroke="#666666" points="279,-56 182,-56 182,-37 279,-37 279,-56"/>
<text text-anchor="middle" x="230.5" y="-44" font-family="Helvetica,sans-Serif" font-size="10.00">WindowFunction</text>
</a>
</g>
</g>
<!-- Node1&#45;&gt;Node12 -->
<g id="edge12_Node000001_Node000012" class="edge">
<title>Node1&#45;&gt;Node12</title>
<g id="a_edge12_Node000001_Node000012"><a xlink:title=" ">
<path fill="none" stroke="#63b8ff" d="M114.05,-73.97C134.01,-69.22 158.35,-63.43 179.53,-58.39"/>
<polygon fill="#63b8ff" stroke="#63b8ff" points="180.4,-61.78 189.32,-56.06 178.78,-54.97 180.4,-61.78"/>
</a>
</g>
</g>
<!-- Node3 -->
<g id="Node000003" class="node">
<title>Node3</title>
<g id="a_Node000003"><a xlink:href="cosmo_8c.html#a8847e5b8ea1f9c458c8bf9e5f36837a9" target="_top" xlink:title=" ">
<polygon fill="white" stroke="#666666" points="430,-167 325,-167 325,-148 430,-148 430,-167"/>
<text text-anchor="middle" x="377.5" y="-155" font-family="Helvetica,sans-Serif" font-size="10.00">InterpolateGrowth</text>
</a>
</g>
</g>
<!-- Node2&#45;&gt;Node3 -->
<g id="edge2_Node000002_Node000003" class="edge">
<title>Node2&#45;&gt;Node3</title>
<g id="a_edge2_Node000002_Node000003"><a xlink:title=" ">
<path fill="none" stroke="#63b8ff" d="M272.66,-143.89C285.73,-145.61 300.49,-147.54 314.68,-149.4"/>
<polygon fill="#63b8ff" stroke="#63b8ff" points="314.52,-152.91 324.89,-150.74 315.43,-145.97 314.52,-152.91"/>
</a>
</g>
</g>
<!-- Node4 -->
<g id="Node000004" class="node">
<title>Node4</title>
<g id="a_Node000004"><a xlink:href="cosmo_8c.html#a6341f5394ed17a00dc77c5519b292ae3" target="_top" xlink:title=" ">
<polygon fill="white" stroke="#666666" points="569,-148 476,-148 476,-129 569,-129 569,-148"/>
<text text-anchor="middle" x="522.5" y="-136" font-family="Helvetica,sans-Serif" font-size="10.00">my_spline_eval</text>
</a>
</g>
</g>
<!-- Node3&#45;&gt;Node4 -->
<g id="edge3_Node000003_Node000004" class="edge">
<title>Node3&#45;&gt;Node4</title>
<g id="a_edge3_Node000003_Node000004"><a xlink:title=" ">
<path fill="none" stroke="#63b8ff" d="M430.13,-150.64C441.64,-149.11 453.89,-147.48 465.56,-145.93"/>
<polygon fill="#63b8ff" stroke="#63b8ff" points="466.19,-149.38 475.64,-144.59 465.27,-142.44 466.19,-149.38"/>
</a>
</g>
</g>
<!-- Node6 -->
<g id="Node000006" class="node">
<title>Node6</title>
<g id="a_Node000006"><a xlink:href="cosmo_8c.html#a27427d60987e3e074ad1d7215080dc69" target="_top" xlink:title=" ">
<polygon fill="white" stroke="#666666" points="440,-93 315,-93 315,-74 440,-74 440,-93"/>
<text text-anchor="middle" x="377.5" y="-81" font-family="Helvetica,sans-Serif" font-size="10.00">PowerSpec_Efstathiou</text>
</a>
</g>
</g>
<!-- Node5&#45;&gt;Node6 -->
<g id="edge5_Node000005_Node000006" class="edge">
<title>Node5&#45;&gt;Node6</title>
<g id="a_edge5_Node000005_Node000006"><a xlink:title=" ">
<path fill="none" stroke="#63b8ff" d="M277.38,-83.5C286.09,-83.5 295.4,-83.5 304.69,-83.5"/>
<polygon fill="#63b8ff" stroke="#63b8ff" points="304.74,-87 314.74,-83.5 304.74,-80 304.74,-87"/>
</a>
</g>
</g>
<!-- Node7 -->
<g id="Node000007" class="node">
<title>Node7</title>
<g id="a_Node000007"><a xlink:href="cosmo_8c.html#a4b4d5c5ca327f59df1eba21a73e62113" target="_top" xlink:title=" ">
<polygon fill="white" stroke="#666666" points="422,-56 333,-56 333,-37 422,-37 422,-56"/>
<text text-anchor="middle" x="377.5" y="-44" font-family="Helvetica,sans-Serif" font-size="10.00">PowerSpec_EH</text>
</a>
</g>
</g>
<!-- Node5&#45;&gt;Node7 -->
<g id="edge6_Node000005_Node000007" class="edge">
<title>Node5&#45;&gt;Node7</title>
<g id="a_edge6_Node000005_Node000007"><a xlink:title=" ">
<path fill="none" stroke="#63b8ff" d="M268.84,-73.97C287.21,-69.29 309.54,-63.59 329.1,-58.6"/>
<polygon fill="#63b8ff" stroke="#63b8ff" points="330.21,-61.92 339.03,-56.06 328.48,-55.14 330.21,-61.92"/>
</a>
</g>
</g>
<!-- Node10 -->
<g id="Node000010" class="node">
<title>Node10</title>
<g id="a_Node000010"><a xlink:href="cosmo_8c.html#a6d04017af6090db607768f47976b88b8" target="_top" xlink:title=" ">
<polygon fill="white" stroke="#666666" points="440,-19 315,-19 315,0 440,0 440,-19"/>
<text text-anchor="middle" x="377.5" y="-7" font-family="Helvetica,sans-Serif" font-size="10.00">PowerSpec_PowerLaw</text>
</a>
</g>
</g>
<!-- Node5&#45;&gt;Node10 -->
<g id="edge9_Node000005_Node000010" class="edge">
<title>Node5&#45;&gt;Node10</title>
<g id="a_edge9_Node000005_Node000010"><a xlink:title=" ">
<path fill="none" stroke="#63b8ff" d="M262.61,-73.96C268.28,-71.6 273.99,-68.79 279,-65.5 298.18,-52.91 295.43,-40.48 315,-28.5 318.39,-26.43 322.02,-24.56 325.76,-22.89"/>
<polygon fill="#63b8ff" stroke="#63b8ff" points="327.24,-26.07 335.23,-19.11 324.64,-19.57 327.24,-26.07"/>
</a>
</g>
</g>
<!-- Node11 -->
<g id="Node000011" class="node">
<title>Node11</title>
<g id="a_Node000011"><a xlink:href="cosmo_8c.html#a428d6d001b5eb57f3f17d85699dd67f5" target="_top" xlink:title=" ">
<polygon fill="white" stroke="#666666" points="438.5,-130 316.5,-130 316.5,-111 438.5,-111 438.5,-130"/>
<text text-anchor="middle" x="377.5" y="-118" font-family="Helvetica,sans-Serif" font-size="10.00">PowerSpec_Tabulated</text>
</a>
</g>
</g>
<!-- Node5&#45;&gt;Node11 -->
<g id="edge10_Node000005_Node000011" class="edge">
<title>Node5&#45;&gt;Node11</title>
<g id="a_edge10_Node000005_Node000011"><a xlink:title=" ">
<path fill="none" stroke="#63b8ff" d="M268.84,-93.03C287.21,-97.71 309.54,-103.41 329.1,-108.4"/>
<polygon fill="#63b8ff" stroke="#63b8ff" points="328.48,-111.86 339.03,-110.94 330.21,-105.08 328.48,-111.86"/>
</a>
</g>
</g>
<!-- Node8 -->
<g id="Node000008" class="node">
<title>Node8</title>
<g id="a_Node000008"><a xlink:href="cosmo_8c.html#a5c6dbdd7fd7c206feb0554bc93b2436c" target="_top" xlink:title=" ">
<polygon fill="white" stroke="#666666" points="554.5,-56 490.5,-56 490.5,-37 554.5,-37 554.5,-56"/>
<text text-anchor="middle" x="522.5" y="-44" font-family="Helvetica,sans-Serif" font-size="10.00">transf_EH</text>
</a>
</g>
</g>
<!-- Node7&#45;&gt;Node8 -->
<g id="edge7_Node000007_Node000008" class="edge">
<title>Node7&#45;&gt;Node8</title>
<g id="a_edge7_Node000007_Node000008"><a xlink:title=" ">
<path fill="none" stroke="#63b8ff" d="M422.18,-46.5C440.67,-46.5 462.1,-46.5 480.3,-46.5"/>
<polygon fill="#63b8ff" stroke="#63b8ff" points="480.33,-50 490.33,-46.5 480.33,-43 480.33,-50"/>
</a>
</g>
</g>
<!-- Node9 -->
<g id="Node000009" class="node">
<title>Node9</title>
<g id="a_Node000009"><a xlink:href="cosmo_8c.html#a57dfb02fcd17e35fad40c836ba4d4160" target="_top" xlink:title=" ">
<polygon fill="white" stroke="#666666" points="634,-56 605,-56 605,-37 634,-37 634,-56"/>
<text text-anchor="middle" x="619.5" y="-44" font-family="Helvetica,sans-Serif" font-size="10.00">T0</text>
</a>
</g>
</g>
<!-- Node8&#45;&gt;Node9 -->
<g id="edge8_Node000008_Node000009" class="edge">
<title>Node8&#45;&gt;Node9</title>
<g id="a_edge8_Node000008_Node000009"><a xlink:title=" ">
<path fill="none" stroke="#63b8ff" d="M554.61,-46.5C567.53,-46.5 582.31,-46.5 594.39,-46.5"/>
<polygon fill="#63b8ff" stroke="#63b8ff" points="594.6,-50 604.6,-46.5 594.6,-43 594.6,-50"/>
</a>
</g>
</g>
<!-- Node11&#45;&gt;Node4 -->
<g id="edge11_Node000011_Node000004" class="edge">
<title>Node11&#45;&gt;Node4</title>
<g id="a_edge11_Node000011_Node000004"><a xlink:title=" ">
<path fill="none" stroke="#63b8ff" d="M438.73,-128.08C447.62,-129.2 456.74,-130.35 465.54,-131.46"/>
<polygon fill="#63b8ff" stroke="#63b8ff" points="465.32,-134.96 475.68,-132.73 466.2,-128.01 465.32,-134.96"/>
</a>
</g>
</g>
</g>
</svg>
