<?xml version="1.0" encoding="UTF-8" standalone="no"?>
<!DOCTYPE svg PUBLIC "-//W3C//DTD SVG 1.1//EN"
 "http://www.w3.org/Graphics/SVG/1.1/DTD/svg11.dtd">
<!-- Generated by graphviz version 2.43.0 (0)
 -->
<!-- Title: fomega_3LPT_2 Pages: 1 -->
<svg width="372pt" height="27pt"
 viewBox="0.00 0.00 372.00 27.00" xmlns="http://www.w3.org/2000/svg" xmlns:xlink="http://www.w3.org/1999/xlink">
<g id="graph0" class="graph" transform="scale(1 1) rotate(0) translate(4 23)">
<title>fomega_3LPT_2</title>
<!-- Node1 -->
<g id="Node000001" class="node">
<title>Node1</title>
<g id="a_Node000001"><a xlink:title=" ">
<polygon fill="#999999" stroke="#666666" points="94,-19 0,-19 0,0 94,0 94,-19"/>
<text text-anchor="middle" x="47" y="-7" font-family="Helvetica,sans-Serif" font-size="10.00">fomega_3LPT_2</text>
</a>
</g>
</g>
<!-- Node2 -->
<g id="Node000002" class="node">
<title>Node2</title>
<g id="a_Node000002"><a xlink:href="cosmo_8c.html#a8847e5b8ea1f9c458c8bf9e5f36837a9" target="_top" xlink:title=" ">
<polygon fill="white" stroke="#666666" points="235,-19 130,-19 130,0 235,0 235,-19"/>
<text text-anchor="middle" x="182.5" y="-7" font-family="Helvetica,sans-Serif" font-size="10.00">InterpolateGrowth</text>
</a>
</g>
</g>
<!-- Node1&#45;&gt;Node2 -->
<g id="edge1_Node000001_Node000002" class="edge">
<title>Node1&#45;&gt;Node2</title>
<g id="a_edge1_Node000001_Node000002"><a xlink:title=" ">
<path fill="none" stroke="#63b8ff" d="M94.32,-9.5C102.46,-9.5 111.04,-9.5 119.52,-9.5"/>
<polygon fill="#63b8ff" stroke="#63b8ff" points="119.78,-13 129.78,-9.5 119.78,-6 119.78,-13"/>
</a>
</g>
</g>
<!-- Node3 -->
<g id="Node000003" class="node">
<title>Node3</title>
<g id="a_Node000003"><a xlink:href="cosmo_8c.html#a6341f5394ed17a00dc77c5519b292ae3" target="_top" xlink:title=" ">
<polygon fill="white" stroke="#666666" points="364,-19 271,-19 271,0 364,0 364,-19"/>
<text text-anchor="middle" x="317.5" y="-7" font-family="Helvetica,sans-Serif" font-size="10.00">my_spline_eval</text>
</a>
</g>
</g>
<!-- Node2&#45;&gt;Node3 -->
<g id="edge2_Node000002_Node000003" class="edge">
<title>Node2&#45;&gt;Node3</title>
<g id="a_edge2_Node000002_Node000003"><a xlink:title=" ">
<path fill="none" stroke="#63b8ff" d="M235.3,-9.5C243.6,-9.5 252.22,-9.5 260.6,-9.5"/>
<polygon fill="#63b8ff" stroke="#63b8ff" points="260.68,-13 270.68,-9.5 260.68,-6 260.68,-13"/>
</a>
</g>
</g>
</g>
</svg>
