<?xml version="1.0" encoding="UTF-8" standalone="no"?>
<!DOCTYPE svg PUBLIC "-//W3C//DTD SVG 1.1//EN"
 "http://www.w3.org/Graphics/SVG/1.1/DTD/svg11.dtd">
<!-- Generated by graphviz version 2.43.0 (0)
 -->
<!-- Title: Ez Pages: 1 -->
<svg width="1088pt" height="140pt"
 viewBox="0.00 0.00 1088.00 140.00" xmlns="http://www.w3.org/2000/svg" xmlns:xlink="http://www.w3.org/1999/xlink">
<g id="graph0" class="graph" transform="scale(1 1) rotate(0) translate(4 136)">
<title>Ez</title>
<!-- Node1 -->
<g id="Node000001" class="node">
<title>Node1</title>
<g id="a_Node000001"><a xlink:title=" ">
<polygon fill="#999999" stroke="#666666" points="1080,-57 1051,-57 1051,-38 1080,-38 1080,-57"/>
<text text-anchor="middle" x="1065.5" y="-45" font-family="Helvetica,sans-Serif" font-size="10.00">Ez</text>
</a>
</g>
</g>
<!-- Node2 -->
<g id="Node000002" class="node">
<title>Node2</title>
<g id="a_Node000002"><a xlink:href="cosmo_8c.html#a445fb83b1fea3dc80e9d163d14e7591f" target="_top" xlink:title=" ">
<polygon fill="white" stroke="#666666" points="1006.5,-95 932.5,-95 932.5,-76 1006.5,-76 1006.5,-95"/>
<text text-anchor="middle" x="969.5" y="-83" font-family="Helvetica,sans-Serif" font-size="10.00">Ez2_from_a</text>
</a>
</g>
</g>
<!-- Node1&#45;&gt;Node2 -->
<g id="edge1_Node000001_Node000002" class="edge">
<title>Node1&#45;&gt;Node2</title>
<g id="a_edge1_Node000001_Node000002"><a xlink:title=" ">
<path fill="none" stroke="#63b8ff" d="M1041.04,-56.98C1026.77,-62.75 1008.6,-70.1 994.28,-75.89"/>
<polygon fill="#63b8ff" stroke="#63b8ff" points="1042.67,-60.1 1050.63,-53.11 1040.05,-53.61 1042.67,-60.1"/>
</a>
</g>
</g>
<!-- Node8 -->
<g id="Node000008" class="node">
<title>Node8</title>
<g id="a_Node000008"><a xlink:href="cosmo_8c.html#abe72f217a5a4d0aadeba3d2c733128fb" target="_top" xlink:title=" ">
<polygon fill="white" stroke="#666666" points="1015,-20 924,-20 924,-1 1015,-1 1015,-20"/>
<text text-anchor="middle" x="969.5" y="-8" font-family="Helvetica,sans-Serif" font-size="10.00">OmegaLambda</text>
</a>
</g>
</g>
<!-- Node1&#45;&gt;Node8 -->
<g id="edge8_Node000001_Node000008" class="edge">
<title>Node1&#45;&gt;Node8</title>
<g id="a_edge8_Node000001_Node000008"><a xlink:title=" ">
<path fill="none" stroke="#63b8ff" d="M1041.11,-38.29C1026.96,-32.72 1008.94,-25.63 994.65,-20"/>
<polygon fill="#63b8ff" stroke="#63b8ff" points="1040.04,-41.63 1050.63,-42.04 1042.61,-35.12 1040.04,-41.63"/>
</a>
</g>
</g>
<!-- Node15 -->
<g id="Node000015" class="node">
<title>Node15</title>
<g id="a_Node000015"><a xlink:href="cosmo_8c.html#a4cb3653cf2125654f8b70d14b2a08dc8" target="_top" xlink:title=" ">
<polygon fill="white" stroke="#666666" points="1011.5,-57 927.5,-57 927.5,-38 1011.5,-38 1011.5,-57"/>
<text text-anchor="middle" x="969.5" y="-45" font-family="Helvetica,sans-Serif" font-size="10.00">OmegaMatter</text>
</a>
</g>
</g>
<!-- Node1&#45;&gt;Node15 -->
<g id="edge16_Node000001_Node000015" class="edge">
<title>Node1&#45;&gt;Node15</title>
<g id="a_edge16_Node000001_Node000015"><a xlink:title=" ">
<path fill="none" stroke="#63b8ff" d="M1040.43,-47.5C1031.68,-47.5 1021.52,-47.5 1011.71,-47.5"/>
<polygon fill="#63b8ff" stroke="#63b8ff" points="1040.63,-51 1050.63,-47.5 1040.63,-44 1040.63,-51"/>
</a>
</g>
</g>
<!-- Node3 -->
<g id="Node000003" class="node">
<title>Node3</title>
<g id="a_Node000003"><a xlink:href="cosmo_8c.html#a77c250cf8a223800c68d59981acc9511" target="_top" xlink:title=" ">
<polygon fill="white" stroke="#666666" points="872,-132 773,-132 773,-113 872,-113 872,-132"/>
<text text-anchor="middle" x="822.5" y="-120" font-family="Helvetica,sans-Serif" font-size="10.00">system_of_ODEs</text>
</a>
</g>
</g>
<!-- Node2&#45;&gt;Node3 -->
<g id="edge2_Node000002_Node000003" class="edge">
<title>Node2&#45;&gt;Node3</title>
<g id="a_edge2_Node000002_Node000003"><a xlink:title=" ">
<path fill="none" stroke="#63b8ff" d="M922.49,-97.24C902.58,-102.32 879.58,-108.19 860.77,-112.99"/>
<polygon fill="#63b8ff" stroke="#63b8ff" points="923.46,-100.61 932.28,-94.74 921.73,-93.82 923.46,-100.61"/>
</a>
</g>
</g>
<!-- Node7 -->
<g id="Node000007" class="node">
<title>Node7</title>
<g id="a_Node000007"><a xlink:href="cosmo_8c.html#a3eb3007bd4360ca21a5e3a02d50739a5" target="_top" xlink:title=" ">
<polygon fill="white" stroke="#666666" points="888,-95 757,-95 757,-76 888,-76 888,-95"/>
<text text-anchor="middle" x="822.5" y="-83" font-family="Helvetica,sans-Serif" font-size="10.00">system_of_ODEs_small</text>
</a>
</g>
</g>
<!-- Node2&#45;&gt;Node7 -->
<g id="edge6_Node000002_Node000007" class="edge">
<title>Node2&#45;&gt;Node7</title>
<g id="a_edge6_Node000002_Node000007"><a xlink:title=" ">
<path fill="none" stroke="#63b8ff" d="M922.18,-85.5C911.31,-85.5 899.53,-85.5 888.02,-85.5"/>
<polygon fill="#63b8ff" stroke="#63b8ff" points="922.28,-89 932.28,-85.5 922.28,-82 922.28,-89"/>
</a>
</g>
</g>
<!-- Node4 -->
<g id="Node000004" class="node">
<title>Node4</title>
<g id="a_Node000004"><a xlink:href="cosmo_8c.html#a53b1cc7220c453661866a82f48ce0fb5" target="_top" xlink:title=" ">
<polygon fill="white" stroke="#666666" points="721,-76 604,-76 604,-57 721,-57 721,-76"/>
<text text-anchor="middle" x="662.5" y="-64" font-family="Helvetica,sans-Serif" font-size="10.00">initialize_cosmology</text>
</a>
</g>
</g>
<!-- Node3&#45;&gt;Node4 -->
<g id="edge3_Node000003_Node000004" class="edge">
<title>Node3&#45;&gt;Node4</title>
<g id="a_edge3_Node000003_Node000004"><a xlink:title=" ">
<path fill="none" stroke="#63b8ff" d="M774.54,-110.07C768.6,-108.3 762.64,-106.43 757,-104.5 731.96,-95.95 703.93,-84.26 685.15,-76.12"/>
<polygon fill="#63b8ff" stroke="#63b8ff" points="773.86,-113.52 784.44,-112.94 775.81,-106.79 773.86,-113.52"/>
</a>
</g>
</g>
<!-- Node5 -->
<g id="Node000005" class="node">
<title>Node5</title>
<g id="a_Node000005"><a xlink:href="initialization_8c.html#a2bed034b4a40d49d0765d1ce741bd8a9" target="_top" xlink:title=" ">
<polygon fill="white" stroke="#666666" points="478.5,-76 401.5,-76 401.5,-57 478.5,-57 478.5,-76"/>
<text text-anchor="middle" x="440" y="-64" font-family="Helvetica,sans-Serif" font-size="10.00">initialization</text>
</a>
</g>
</g>
<!-- Node4&#45;&gt;Node5 -->
<g id="edge4_Node000004_Node000005" class="edge">
<title>Node4&#45;&gt;Node5</title>
<g id="a_edge4_Node000004_Node000005"><a xlink:title=" ">
<path fill="none" stroke="#63b8ff" d="M593.41,-66.5C555.6,-66.5 509.99,-66.5 478.57,-66.5"/>
<polygon fill="#63b8ff" stroke="#63b8ff" points="593.85,-70 603.85,-66.5 593.85,-63 593.85,-70"/>
</a>
</g>
</g>
<!-- Node6 -->
<g id="Node000006" class="node">
<title>Node6</title>
<g id="a_Node000006"><a xlink:href="pinocchio_8c.html#a647f21a28344e1d9c643f4115516d7c9" target="_top" xlink:title=" ">
<polygon fill="white" stroke="#666666" points="41,-57 0,-57 0,-38 41,-38 41,-57"/>
<text text-anchor="middle" x="20.5" y="-45" font-family="Helvetica,sans-Serif" font-size="10.00">main</text>
</a>
</g>
</g>
<!-- Node5&#45;&gt;Node6 -->
<g id="edge5_Node000005_Node000006" class="edge">
<title>Node5&#45;&gt;Node6</title>
<g id="a_edge5_Node000005_Node000006"><a xlink:title=" ">
<path fill="none" stroke="#63b8ff" d="M391.14,-64.32C299.83,-60.17 104.29,-51.27 41.41,-48.41"/>
<polygon fill="#63b8ff" stroke="#63b8ff" points="391.06,-67.82 401.21,-64.78 391.38,-60.83 391.06,-67.82"/>
</a>
</g>
</g>
<!-- Node7&#45;&gt;Node4 -->
<g id="edge7_Node000007_Node000004" class="edge">
<title>Node7&#45;&gt;Node4</title>
<g id="a_edge7_Node000007_Node000004"><a xlink:title=" ">
<path fill="none" stroke="#63b8ff" d="M746.7,-76.51C738.07,-75.47 729.38,-74.42 721.03,-73.42"/>
<polygon fill="#63b8ff" stroke="#63b8ff" points="746.43,-80 756.78,-77.72 747.27,-73.05 746.43,-80"/>
</a>
</g>
</g>
<!-- Node9 -->
<g id="Node000009" class="node">
<title>Node9</title>
<g id="a_Node000009"><a xlink:href="collapse__times_8c.html#a16072c1c54a0bc722718884b29bd0409" target="_top" xlink:title=" ">
<polygon fill="white" stroke="#666666" points="860,-19 785,-19 785,0 860,0 860,-19"/>
<text text-anchor="middle" x="822.5" y="-7" font-family="Helvetica,sans-Serif" font-size="10.00">sng_system</text>
</a>
</g>
</g>
<!-- Node8&#45;&gt;Node9 -->
<g id="edge9_Node000008_Node000009" class="edge">
<title>Node8&#45;&gt;Node9</title>
<g id="a_edge9_Node000008_Node000009"><a xlink:title=" ">
<path fill="none" stroke="#63b8ff" d="M913.74,-10.12C895.79,-10 876.28,-9.86 860.02,-9.75"/>
<polygon fill="#63b8ff" stroke="#63b8ff" points="913.79,-13.62 923.81,-10.19 913.84,-6.62 913.79,-13.62"/>
</a>
</g>
</g>
<!-- Node10 -->
<g id="Node000010" class="node">
<title>Node10</title>
<g id="a_Node000010"><a xlink:href="collapse__times_8c.html#a5a4ca2ffca6643912e7efcad849494a8" target="_top" xlink:title=" ">
<polygon fill="white" stroke="#666666" points="688,-38 637,-38 637,-19 688,-19 688,-38"/>
<text text-anchor="middle" x="662.5" y="-26" font-family="Helvetica,sans-Serif" font-size="10.00">ell_sng</text>
</a>
</g>
</g>
<!-- Node9&#45;&gt;Node10 -->
<g id="edge10_Node000009_Node000010" class="edge">
<title>Node9&#45;&gt;Node10</title>
<g id="a_edge10_Node000009_Node000010"><a xlink:title=" ">
<path fill="none" stroke="#63b8ff" d="M774.73,-15.12C746.33,-18.54 711.23,-22.76 688.14,-25.54"/>
<polygon fill="#63b8ff" stroke="#63b8ff" points="775.34,-18.58 784.85,-13.91 774.51,-11.63 775.34,-18.58"/>
</a>
</g>
</g>
<!-- Node11 -->
<g id="Node000011" class="node">
<title>Node11</title>
<g id="a_Node000011"><a xlink:href="collapse__times_8c.html#a17f64ed25a27688514593ecaed77105a" target="_top" xlink:title=" ">
<polygon fill="white" stroke="#666666" points="568,-38 539,-38 539,-19 568,-19 568,-38"/>
<text text-anchor="middle" x="553.5" y="-26" font-family="Helvetica,sans-Serif" font-size="10.00">ell</text>
</a>
</g>
</g>
<!-- Node10&#45;&gt;Node11 -->
<g id="edge11_Node000010_Node000011" class="edge">
<title>Node10&#45;&gt;Node11</title>
<g id="a_edge11_Node000010_Node000011"><a xlink:title=" ">
<path fill="none" stroke="#63b8ff" d="M626.93,-28.5C606.94,-28.5 582.89,-28.5 568.15,-28.5"/>
<polygon fill="#63b8ff" stroke="#63b8ff" points="626.95,-32 636.95,-28.5 626.95,-25 626.95,-32"/>
</a>
</g>
</g>
<!-- Node12 -->
<g id="Node000012" class="node">
<title>Node12</title>
<g id="a_Node000012"><a xlink:href="collapse__times_8c.html#a6b93e952f9a470157498b9a72ea1e22f" target="_top" xlink:title=" ">
<polygon fill="white" stroke="#666666" points="503,-38 377,-38 377,-19 503,-19 503,-38"/>
<text text-anchor="middle" x="440" y="-26" font-family="Helvetica,sans-Serif" font-size="10.00">inverse_collapse_time</text>
</a>
</g>
</g>
<!-- Node11&#45;&gt;Node12 -->
<g id="edge12_Node000011_Node000012" class="edge">
<title>Node11&#45;&gt;Node12</title>
<g id="a_edge12_Node000011_Node000012"><a xlink:title=" ">
<path fill="none" stroke="#63b8ff" d="M528.65,-28.5C521.04,-28.5 512.23,-28.5 503.2,-28.5"/>
<polygon fill="#63b8ff" stroke="#63b8ff" points="528.83,-32 538.83,-28.5 528.83,-25 528.83,-32"/>
</a>
</g>
</g>
<!-- Node13 -->
<g id="Node000013" class="node">
<title>Node13</title>
<g id="a_Node000013"><a xlink:href="collapse__times_8c.html#a7de3cd9744dabc41d67e31ed8c5928de" target="_top" xlink:title=" ">
<polygon fill="white" stroke="#666666" points="341,-38 203,-38 203,-19 341,-19 341,-38"/>
<text text-anchor="middle" x="272" y="-26" font-family="Helvetica,sans-Serif" font-size="10.00">compute_collapse_times</text>
</a>
</g>
</g>
<!-- Node12&#45;&gt;Node13 -->
<g id="edge13_Node000012_Node000013" class="edge">
<title>Node12&#45;&gt;Node13</title>
<g id="a_edge13_Node000012_Node000013"><a xlink:title=" ">
<path fill="none" stroke="#63b8ff" d="M366.54,-28.5C358.12,-28.5 349.56,-28.5 341.2,-28.5"/>
<polygon fill="#63b8ff" stroke="#63b8ff" points="366.72,-32 376.72,-28.5 366.72,-25 366.72,-32"/>
</a>
</g>
</g>
<!-- Node14 -->
<g id="Node000014" class="node">
<title>Node14</title>
<g id="a_Node000014"><a xlink:href="fmax_8c.html#ac6c918d99a0517c1106d2b330c087f8a" target="_top" xlink:title=" ">
<polygon fill="white" stroke="#666666" points="167,-38 77,-38 77,-19 167,-19 167,-38"/>
<text text-anchor="middle" x="122" y="-26" font-family="Helvetica,sans-Serif" font-size="10.00">compute_fmax</text>
</a>
</g>
</g>
<!-- Node13&#45;&gt;Node14 -->
<g id="edge14_Node000013_Node000014" class="edge">
<title>Node13&#45;&gt;Node14</title>
<g id="a_edge14_Node000013_Node000014"><a xlink:title=" ">
<path fill="none" stroke="#63b8ff" d="M192.52,-28.5C183.91,-28.5 175.38,-28.5 167.4,-28.5"/>
<polygon fill="#63b8ff" stroke="#63b8ff" points="192.63,-32 202.63,-28.5 192.63,-25 192.63,-32"/>
</a>
</g>
</g>
<!-- Node14&#45;&gt;Node6 -->
<g id="edge15_Node000014_Node000006" class="edge">
<title>Node14&#45;&gt;Node6</title>
<g id="a_edge15_Node000014_Node000006"><a xlink:title=" ">
<path fill="none" stroke="#63b8ff" d="M66.81,-38.85C57.65,-40.6 48.68,-42.31 41.18,-43.74"/>
<polygon fill="#63b8ff" stroke="#63b8ff" points="67.61,-42.26 76.78,-36.94 66.3,-35.38 67.61,-42.26"/>
</a>
</g>
</g>
<!-- Node15&#45;&gt;Node4 -->
<g id="edge17_Node000015_Node000004" class="edge">
<title>Node15&#45;&gt;Node4</title>
<g id="a_edge17_Node000015_Node000004"><a xlink:title=" ">
<path fill="none" stroke="#63b8ff" d="M917.29,-50.69C863.07,-54.07 777.67,-59.39 721.13,-62.91"/>
<polygon fill="#63b8ff" stroke="#63b8ff" points="917.6,-54.18 927.37,-50.06 917.17,-47.19 917.6,-54.18"/>
</a>
</g>
</g>
<!-- Node15&#45;&gt;Node9 -->
<g id="edge18_Node000015_Node000009" class="edge">
<title>Node15&#45;&gt;Node9</title>
<g id="a_edge18_Node000015_Node000009"><a xlink:title=" ">
<path fill="none" stroke="#63b8ff" d="M922.01,-35.32C901.88,-30.04 878.66,-23.96 859.83,-19.02"/>
<polygon fill="#63b8ff" stroke="#63b8ff" points="921.35,-38.76 931.91,-37.91 923.12,-31.99 921.35,-38.76"/>
</a>
</g>
</g>
</g>
</svg>
