<?xml version="1.0" encoding="UTF-8" standalone="no"?>
<!DOCTYPE svg PUBLIC "-//W3C//DTD SVG 1.1//EN"
 "http://www.w3.org/Graphics/SVG/1.1/DTD/svg11.dtd">
<!-- Generated by graphviz version 2.43.0 (0)
 -->
<!-- Title: MassVariance Pages: 1 -->
<svg width="891pt" height="161pt"
 viewBox="0.00 0.00 891.00 161.44" xmlns="http://www.w3.org/2000/svg" xmlns:xlink="http://www.w3.org/1999/xlink">
<g id="graph0" class="graph" transform="scale(1 1) rotate(0) translate(4 157.44)">
<title>MassVariance</title>
<!-- Node1 -->
<g id="Node000001" class="node">
<title>Node1</title>
<g id="a_Node000001"><a xlink:title=" ">
<polygon fill="#999999" stroke="#666666" points="883,-77.44 799,-77.44 799,-58.44 883,-58.44 883,-77.44"/>
<text text-anchor="middle" x="841" y="-65.44" font-family="Helvetica,sans-Serif" font-size="10.00">MassVariance</text>
</a>
</g>
</g>
<!-- Node2 -->
<g id="Node000002" class="node">
<title>Node2</title>
<g id="a_Node000002"><a xlink:href="cosmo_8c.html#a3e2faa009164fa657b79bf92bbfbb407" target="_top" xlink:title=" ">
<polygon fill="white" stroke="#666666" points="763,-77.44 640,-77.44 640,-58.44 763,-58.44 763,-77.44"/>
<text text-anchor="middle" x="701.5" y="-65.44" font-family="Helvetica,sans-Serif" font-size="10.00">AnalyticMassFunction</text>
</a>
</g>
</g>
<!-- Node1&#45;&gt;Node2 -->
<g id="edge1_Node000001_Node000002" class="edge">
<title>Node1&#45;&gt;Node2</title>
<g id="a_edge1_Node000001_Node000002"><a xlink:title=" ">
<path fill="none" stroke="#63b8ff" d="M788.47,-67.94C780.18,-67.94 771.53,-67.94 763.04,-67.94"/>
<polygon fill="#63b8ff" stroke="#63b8ff" points="788.75,-71.44 798.75,-67.94 788.75,-64.44 788.75,-71.44"/>
</a>
</g>
</g>
<!-- Node3 -->
<g id="Node000003" class="node">
<title>Node3</title>
<g id="a_Node000003"><a xlink:href="write__halos_8c.html#ab389015c0ee0675c3eff2f503405bde8" target="_top" xlink:title=" ">
<polygon fill="white" stroke="#666666" points="601.5,-115.44 523.5,-115.44 523.5,-96.44 601.5,-96.44 601.5,-115.44"/>
<text text-anchor="middle" x="562.5" y="-103.44" font-family="Helvetica,sans-Serif" font-size="10.00">compute_mf</text>
</a>
</g>
</g>
<!-- Node1&#45;&gt;Node3 -->
<g id="edge16_Node000001_Node000003" class="edge">
<title>Node1&#45;&gt;Node3</title>
<g id="a_edge16_Node000001_Node000003"><a xlink:title=" ">
<path fill="none" stroke="#63b8ff" d="M796.08,-79.96C785.33,-82.57 773.8,-85.1 763,-86.94 707.26,-96.42 641.9,-101.52 601.59,-103.98"/>
<polygon fill="#63b8ff" stroke="#63b8ff" points="797.26,-83.27 806.11,-77.44 795.56,-76.48 797.26,-83.27"/>
</a>
</g>
</g>
<!-- Node14 -->
<g id="Node000014" class="node">
<title>Node14</title>
<g id="a_Node000014"><a xlink:href="initialization_8c.html#aea793354ff928d4ff1913bc948271b51" target="_top" xlink:title=" ">
<polygon fill="white" stroke="#666666" points="746,-21.44 657,-21.44 657,-2.44 746,-2.44 746,-21.44"/>
<text text-anchor="middle" x="701.5" y="-9.44" font-family="Helvetica,sans-Serif" font-size="10.00">set_smoothing</text>
</a>
</g>
</g>
<!-- Node1&#45;&gt;Node14 -->
<g id="edge17_Node000001_Node000014" class="edge">
<title>Node1&#45;&gt;Node14</title>
<g id="a_edge17_Node000001_Node000014"><a xlink:title=" ">
<path fill="none" stroke="#63b8ff" d="M806.9,-54.46C781.86,-44.26 748.09,-30.51 725.83,-21.44"/>
<polygon fill="#63b8ff" stroke="#63b8ff" points="805.78,-57.78 816.36,-58.31 808.42,-51.3 805.78,-57.78"/>
</a>
</g>
</g>
<!-- Node2&#45;&gt;Node3 -->
<g id="edge2_Node000002_Node000003" class="edge">
<title>Node2&#45;&gt;Node3</title>
<g id="a_edge2_Node000002_Node000003"><a xlink:title=" ">
<path fill="none" stroke="#63b8ff" d="M656.09,-80.26C637.27,-85.48 615.66,-91.47 598.06,-96.36"/>
<polygon fill="#63b8ff" stroke="#63b8ff" points="657.23,-83.58 665.93,-77.53 655.36,-76.83 657.23,-83.58"/>
</a>
</g>
</g>
<!-- Node8 -->
<g id="Node000008" class="node">
<title>Node8</title>
<g id="a_Node000008"><a xlink:href="fragment_8c.html#a167c76ec9c64d91e440bec86963419bb" target="_top" xlink:title=" ">
<polygon fill="white" stroke="#666666" points="604,-78.44 521,-78.44 521,-59.44 604,-59.44 604,-78.44"/>
<text text-anchor="middle" x="562.5" y="-66.44" font-family="Helvetica,sans-Serif" font-size="10.00">Integrand_MF</text>
</a>
</g>
</g>
<!-- Node2&#45;&gt;Node8 -->
<g id="edge7_Node000002_Node000008" class="edge">
<title>Node2&#45;&gt;Node8</title>
<g id="a_edge7_Node000002_Node000008"><a xlink:title=" ">
<path fill="none" stroke="#63b8ff" d="M629.44,-68.46C620.77,-68.52 612.15,-68.59 604.15,-68.64"/>
<polygon fill="#63b8ff" stroke="#63b8ff" points="629.64,-71.96 639.61,-68.39 629.59,-64.96 629.64,-71.96"/>
</a>
</g>
</g>
<!-- Node13 -->
<g id="Node000013" class="node">
<title>Node13</title>
<g id="a_Node000013"><a xlink:href="initialization_8c.html#abe8fa4db80318b7343e51fa9f70ab92f" target="_top" xlink:title=" ">
<polygon fill="white" stroke="#666666" points="458.5,-40.44 375.5,-40.44 375.5,-21.44 458.5,-21.44 458.5,-40.44"/>
<text text-anchor="middle" x="417" y="-28.44" font-family="Helvetica,sans-Serif" font-size="10.00">set_subboxes</text>
</a>
</g>
</g>
<!-- Node2&#45;&gt;Node13 -->
<g id="edge14_Node000002_Node000013" class="edge">
<title>Node2&#45;&gt;Node13</title>
<g id="a_edge14_Node000002_Node000013"><a xlink:title=" ">
<path fill="none" stroke="#63b8ff" d="M640.13,-56.66C628.18,-54.61 615.71,-52.6 604,-50.94 554.16,-43.88 496.48,-38.04 458.74,-34.53"/>
<polygon fill="#63b8ff" stroke="#63b8ff" points="639.57,-60.12 650.02,-58.39 640.77,-53.22 639.57,-60.12"/>
</a>
</g>
</g>
<!-- Node4 -->
<g id="Node000004" class="node">
<title>Node4</title>
<g id="a_Node000004"><a xlink:href="build__groups_8c.html#a4df1001cc86732388d8ecf04e3372827" target="_top" xlink:title=" ">
<polygon fill="white" stroke="#666666" points="456.5,-153.44 377.5,-153.44 377.5,-134.44 456.5,-134.44 456.5,-153.44"/>
<text text-anchor="middle" x="417" y="-141.44" font-family="Helvetica,sans-Serif" font-size="10.00">build_groups</text>
</a>
</g>
</g>
<!-- Node3&#45;&gt;Node4 -->
<g id="edge3_Node000003_Node000004" class="edge">
<title>Node3&#45;&gt;Node4</title>
<g id="a_edge3_Node000003_Node000004"><a xlink:title=" ">
<path fill="none" stroke="#63b8ff" d="M515.53,-118.12C495.68,-123.37 472.81,-129.43 454.2,-134.36"/>
<polygon fill="#63b8ff" stroke="#63b8ff" points="516.52,-121.47 525.29,-115.53 514.73,-114.71 516.52,-121.47"/>
</a>
</g>
</g>
<!-- Node5 -->
<g id="Node000005" class="node">
<title>Node5</title>
<g id="a_Node000005"><a xlink:href="fragment_8c.html#ac2bb250921932f90f7b0939d1181b66d" target="_top" xlink:title=" ">
<polygon fill="white" stroke="#666666" points="291.5,-152.44 229.5,-152.44 229.5,-133.44 291.5,-133.44 291.5,-152.44"/>
<text text-anchor="middle" x="260.5" y="-140.44" font-family="Helvetica,sans-Serif" font-size="10.00">fragment</text>
</a>
</g>
</g>
<!-- Node4&#45;&gt;Node5 -->
<g id="edge4_Node000004_Node000005" class="edge">
<title>Node4&#45;&gt;Node5</title>
<g id="a_edge4_Node000004_Node000005"><a xlink:title=" ">
<path fill="none" stroke="#63b8ff" d="M367.14,-143.62C342.46,-143.47 313.29,-143.28 291.86,-143.14"/>
<polygon fill="#63b8ff" stroke="#63b8ff" points="367.39,-147.13 377.41,-143.69 367.43,-140.13 367.39,-147.13"/>
</a>
</g>
</g>
<!-- Node6 -->
<g id="Node000006" class="node">
<title>Node6</title>
<g id="a_Node000006"><a xlink:href="fragment_8c.html#ae3aa75d17cbc170e60f4f48c4a2ffdf5" target="_top" xlink:title=" ">
<polygon fill="white" stroke="#666666" points="172,-133.44 77,-133.44 77,-114.44 172,-114.44 172,-133.44"/>
<text text-anchor="middle" x="124.5" y="-121.44" font-family="Helvetica,sans-Serif" font-size="10.00">fragment_driver</text>
</a>
</g>
</g>
<!-- Node5&#45;&gt;Node6 -->
<g id="edge5_Node000005_Node000006" class="edge">
<title>Node5&#45;&gt;Node6</title>
<g id="a_edge5_Node000005_Node000006"><a xlink:title=" ">
<path fill="none" stroke="#63b8ff" d="M219.49,-137.27C204.57,-135.15 187.51,-132.73 172.05,-130.54"/>
<polygon fill="#63b8ff" stroke="#63b8ff" points="219.04,-140.74 229.43,-138.68 220.02,-133.81 219.04,-140.74"/>
</a>
</g>
</g>
<!-- Node7 -->
<g id="Node000007" class="node">
<title>Node7</title>
<g id="a_Node000007"><a xlink:href="pinocchio_8c.html#a647f21a28344e1d9c643f4115516d7c9" target="_top" xlink:title=" ">
<polygon fill="white" stroke="#666666" points="41,-95.44 0,-95.44 0,-76.44 41,-76.44 41,-95.44"/>
<text text-anchor="middle" x="20.5" y="-83.44" font-family="Helvetica,sans-Serif" font-size="10.00">main</text>
</a>
</g>
</g>
<!-- Node6&#45;&gt;Node7 -->
<g id="edge6_Node000006_Node000007" class="edge">
<title>Node6&#45;&gt;Node7</title>
<g id="a_edge6_Node000006_Node000007"><a xlink:title=" ">
<path fill="none" stroke="#63b8ff" d="M88.28,-110.82C72.49,-104.94 54.46,-98.22 41.11,-93.25"/>
<polygon fill="#63b8ff" stroke="#63b8ff" points="87.17,-114.14 97.76,-114.35 89.61,-107.58 87.17,-114.14"/>
</a>
</g>
</g>
<!-- Node9 -->
<g id="Node000009" class="node">
<title>Node9</title>
<g id="a_Node000009"><a xlink:href="fragment_8c.html#aabb4533acf454a2edcad5fe0ad385df8" target="_top" xlink:title=" ">
<polygon fill="white" stroke="#666666" points="485,-77.44 349,-77.44 349,-58.44 485,-58.44 485,-77.44"/>
<text text-anchor="middle" x="417" y="-65.44" font-family="Helvetica,sans-Serif" font-size="10.00">compute_Nhalos_in_PLC</text>
</a>
</g>
</g>
<!-- Node8&#45;&gt;Node9 -->
<g id="edge8_Node000008_Node000009" class="edge">
<title>Node8&#45;&gt;Node9</title>
<g id="a_edge8_Node000008_Node000009"><a xlink:title=" ">
<path fill="none" stroke="#63b8ff" d="M510.59,-68.59C502.35,-68.53 493.72,-68.47 485.17,-68.41"/>
<polygon fill="#63b8ff" stroke="#63b8ff" points="510.74,-72.09 520.76,-68.66 510.79,-65.09 510.74,-72.09"/>
</a>
</g>
</g>
<!-- Node10 -->
<g id="Node000010" class="node">
<title>Node10</title>
<g id="a_Node000010"><a xlink:href="fragment_8c.html#a1d88ab9fbf839def20a948fed5095970" target="_top" xlink:title=" ">
<polygon fill="white" stroke="#666666" points="313,-115.44 208,-115.44 208,-96.44 313,-96.44 313,-115.44"/>
<text text-anchor="middle" x="260.5" y="-103.44" font-family="Helvetica,sans-Serif" font-size="10.00">estimate_file_size</text>
</a>
</g>
</g>
<!-- Node8&#45;&gt;Node10 -->
<g id="edge13_Node000008_Node000010" class="edge">
<title>Node8&#45;&gt;Node10</title>
<g id="a_edge13_Node000008_Node000010"><a xlink:title=" ">
<path fill="none" stroke="#63b8ff" d="M516.01,-80.8C505.86,-83.12 495.11,-85.33 485,-86.94 426.54,-96.25 358.71,-101.2 313.25,-103.69"/>
<polygon fill="#63b8ff" stroke="#63b8ff" points="516.98,-84.16 525.91,-78.46 515.37,-77.35 516.98,-84.16"/>
</a>
</g>
</g>
<!-- Node9&#45;&gt;Node10 -->
<g id="edge9_Node000009_Node000010" class="edge">
<title>Node9&#45;&gt;Node10</title>
<g id="a_edge9_Node000009_Node000010"><a xlink:title=" ">
<path fill="none" stroke="#63b8ff" d="M367.05,-79.98C345.46,-85.29 320.46,-91.44 300.21,-96.42"/>
<polygon fill="#63b8ff" stroke="#63b8ff" points="368.14,-83.32 377.01,-77.53 366.47,-76.52 368.14,-83.32"/>
</a>
</g>
</g>
<!-- Node12 -->
<g id="Node000012" class="node">
<title>Node12</title>
<g id="a_Node000012"><a xlink:href="write__halos_8c.html#a9c1d2f1df77a66a8e31b7d19251f39ac" target="_top" xlink:title=" ">
<polygon fill="white" stroke="#666666" points="293,-78.44 228,-78.44 228,-59.44 293,-59.44 293,-78.44"/>
<text text-anchor="middle" x="260.5" y="-66.44" font-family="Helvetica,sans-Serif" font-size="10.00">write_PLC</text>
</a>
</g>
</g>
<!-- Node9&#45;&gt;Node12 -->
<g id="edge12_Node000009_Node000012" class="edge">
<title>Node9&#45;&gt;Node12</title>
<g id="a_edge12_Node000009_Node000012"><a xlink:title=" ">
<path fill="none" stroke="#63b8ff" d="M338.65,-68.44C322.51,-68.55 306.37,-68.65 293.05,-68.74"/>
<polygon fill="#63b8ff" stroke="#63b8ff" points="338.71,-71.94 348.68,-68.38 338.66,-64.94 338.71,-71.94"/>
</a>
</g>
</g>
<!-- Node11 -->
<g id="Node000011" class="node">
<title>Node11</title>
<g id="a_Node000011"><a xlink:href="initialization_8c.html#a2bed034b4a40d49d0765d1ce741bd8a9" target="_top" xlink:title=" ">
<polygon fill="white" stroke="#666666" points="163,-77.44 86,-77.44 86,-58.44 163,-58.44 163,-77.44"/>
<text text-anchor="middle" x="124.5" y="-65.44" font-family="Helvetica,sans-Serif" font-size="10.00">initialization</text>
</a>
</g>
</g>
<!-- Node10&#45;&gt;Node11 -->
<g id="edge10_Node000010_Node000011" class="edge">
<title>Node10&#45;&gt;Node11</title>
<g id="a_edge10_Node000010_Node000011"><a xlink:title=" ">
<path fill="none" stroke="#63b8ff" d="M216.06,-93.62C197.65,-88.4 176.52,-82.41 159.3,-77.53"/>
<polygon fill="#63b8ff" stroke="#63b8ff" points="215.11,-96.99 225.69,-96.35 217.02,-90.26 215.11,-96.99"/>
</a>
</g>
</g>
<!-- Node11&#45;&gt;Node7 -->
<g id="edge11_Node000011_Node000007" class="edge">
<title>Node11&#45;&gt;Node7</title>
<g id="a_edge11_Node000011_Node000007"><a xlink:title=" ">
<path fill="none" stroke="#63b8ff" d="M75.65,-76.39C63.41,-78.55 50.92,-80.75 41.03,-82.49"/>
<polygon fill="#63b8ff" stroke="#63b8ff" points="76.57,-79.78 85.81,-74.59 75.35,-72.88 76.57,-79.78"/>
</a>
</g>
</g>
<!-- Node13&#45;&gt;Node11 -->
<g id="edge15_Node000013_Node000011" class="edge">
<title>Node13&#45;&gt;Node11</title>
<g id="a_edge15_Node000013_Node000011"><a xlink:title=" ">
<path fill="none" stroke="#63b8ff" d="M365.15,-34.3C322.93,-37.45 261.36,-42.9 208,-50.94 193.25,-53.16 177.16,-56.31 163.13,-59.3"/>
<polygon fill="#63b8ff" stroke="#63b8ff" points="365.47,-37.78 375.19,-33.56 364.96,-30.8 365.47,-37.78"/>
</a>
</g>
</g>
<!-- Node14&#45;&gt;Node11 -->
<g id="edge18_Node000014_Node000011" class="edge">
<title>Node14&#45;&gt;Node11</title>
<g id="a_edge18_Node000014_Node000011"><a xlink:title=" ">
<path fill="none" stroke="#63b8ff" d="M646.81,-6.54C554.95,1 362.56,9.31 208,-33.94 185.77,-40.16 161.47,-50.66 145.04,-58.35"/>
<polygon fill="#63b8ff" stroke="#63b8ff" points="646.72,-10.04 656.98,-7.4 647.31,-3.07 646.72,-10.04"/>
</a>
</g>
</g>
</g>
</svg>
