<?xml version="1.0" encoding="UTF-8" standalone="no"?>
<!DOCTYPE svg PUBLIC "-//W3C//DTD SVG 1.1//EN"
 "http://www.w3.org/Graphics/SVG/1.1/DTD/svg11.dtd">
<!-- Generated by graphviz version 2.43.0 (0)
 -->
<!-- Title: OmegaMatter Pages: 1 -->
<svg width="373pt" height="27pt"
 viewBox="0.00 0.00 373.00 27.00" xmlns="http://www.w3.org/2000/svg" xmlns:xlink="http://www.w3.org/1999/xlink">
<g id="graph0" class="graph" transform="scale(1 1) rotate(0) translate(4 23)">
<title>OmegaMatter</title>
<!-- Node1 -->
<g id="Node000001" class="node">
<title>Node1</title>
<g id="a_Node000001"><a xlink:title=" ">
<polygon fill="#999999" stroke="#666666" points="84,-19 0,-19 0,0 84,0 84,-19"/>
<text text-anchor="middle" x="42" y="-7" font-family="Helvetica,sans-Serif" font-size="10.00">OmegaMatter</text>
</a>
</g>
</g>
<!-- Node2 -->
<g id="Node000002" class="node">
<title>Node2</title>
<g id="a_Node000002"><a xlink:href="cosmo_8c.html#a23ab46a1787abb61a8685d7c8f06cdd4" target="_top" xlink:title=" ">
<polygon fill="white" stroke="#666666" points="149,-19 120,-19 120,0 149,0 149,-19"/>
<text text-anchor="middle" x="134.5" y="-7" font-family="Helvetica,sans-Serif" font-size="10.00">Ez</text>
</a>
</g>
</g>
<!-- Node1&#45;&gt;Node2 -->
<g id="edge1_Node000001_Node000002" class="edge">
<title>Node1&#45;&gt;Node2</title>
<g id="a_edge1_Node000001_Node000002"><a xlink:title=" ">
<path fill="none" stroke="#63b8ff" d="M84.01,-9.5C92.79,-9.5 101.77,-9.5 109.64,-9.5"/>
<polygon fill="#63b8ff" stroke="#63b8ff" points="109.88,-13 119.88,-9.5 109.88,-6 109.88,-13"/>
</a>
</g>
</g>
<!-- Node3 -->
<g id="Node000003" class="node">
<title>Node3</title>
<g id="a_Node000003"><a xlink:href="cosmo_8c.html#a911e9ce363c4662ce531c65885519f7a" target="_top" xlink:title=" ">
<polygon fill="white" stroke="#666666" points="236,-19 185,-19 185,0 236,0 236,-19"/>
<text text-anchor="middle" x="210.5" y="-7" font-family="Helvetica,sans-Serif" font-size="10.00">Hubble</text>
</a>
</g>
</g>
<!-- Node2&#45;&gt;Node3 -->
<g id="edge2_Node000002_Node000003" class="edge">
<title>Node2&#45;&gt;Node3</title>
<g id="a_edge2_Node000002_Node000003"><a xlink:title=" ">
<path fill="none" stroke="#63b8ff" d="M149.07,-9.5C156.35,-9.5 165.68,-9.5 174.82,-9.5"/>
<polygon fill="#63b8ff" stroke="#63b8ff" points="174.94,-13 184.94,-9.5 174.94,-6 174.94,-13"/>
</a>
</g>
</g>
<!-- Node4 -->
<g id="Node000004" class="node">
<title>Node4</title>
<g id="a_Node000004"><a xlink:href="cosmo_8c.html#a6341f5394ed17a00dc77c5519b292ae3" target="_top" xlink:title=" ">
<polygon fill="white" stroke="#666666" points="365,-19 272,-19 272,0 365,0 365,-19"/>
<text text-anchor="middle" x="318.5" y="-7" font-family="Helvetica,sans-Serif" font-size="10.00">my_spline_eval</text>
</a>
</g>
</g>
<!-- Node3&#45;&gt;Node4 -->
<g id="edge3_Node000003_Node000004" class="edge">
<title>Node3&#45;&gt;Node4</title>
<g id="a_edge3_Node000003_Node000004"><a xlink:title=" ">
<path fill="none" stroke="#63b8ff" d="M236.08,-9.5C243.82,-9.5 252.69,-9.5 261.68,-9.5"/>
<polygon fill="#63b8ff" stroke="#63b8ff" points="261.82,-13 271.82,-9.5 261.82,-6 261.82,-13"/>
</a>
</g>
</g>
</g>
</svg>
