<?xml version="1.0" encoding="UTF-8" standalone="no"?>
<!DOCTYPE svg PUBLIC "-//W3C//DTD SVG 1.1//EN"
 "http://www.w3.org/Graphics/SVG/1.1/DTD/svg11.dtd">
<!-- Generated by graphviz version 2.43.0 (0)
 -->
<!-- Title: IntegrandForDisplVariance Pages: 1 -->
<svg width="641pt" height="175pt"
 viewBox="0.00 0.00 641.00 175.00" xmlns="http://www.w3.org/2000/svg" xmlns:xlink="http://www.w3.org/1999/xlink">
<g id="graph0" class="graph" transform="scale(1 1) rotate(0) translate(4 171)">
<title>IntegrandForDisplVariance</title>
<!-- Node1 -->
<g id="Node000001" class="node">
<title>Node1</title>
<g id="a_Node000001"><a xlink:title=" ">
<polygon fill="#999999" stroke="#666666" points="145,-93 0,-93 0,-74 145,-74 145,-93"/>
<text text-anchor="middle" x="72.5" y="-81" font-family="Helvetica,sans-Serif" font-size="10.00">IntegrandForDisplVariance</text>
</a>
</g>
</g>
<!-- Node2 -->
<g id="Node000002" class="node">
<title>Node2</title>
<g id="a_Node000002"><a xlink:href="cosmo_8c.html#a9fbcf5b69c272e801cf320cf814b23c4" target="_top" xlink:title=" ">
<polygon fill="white" stroke="#666666" points="271.5,-148 187.5,-148 187.5,-129 271.5,-129 271.5,-148"/>
<text text-anchor="middle" x="229.5" y="-136" font-family="Helvetica,sans-Serif" font-size="10.00">GrowingMode</text>
</a>
</g>
</g>
<!-- Node1&#45;&gt;Node2 -->
<g id="edge1_Node000001_Node000002" class="edge">
<title>Node1&#45;&gt;Node2</title>
<g id="a_edge1_Node000001_Node000002"><a xlink:title=" ">
<path fill="none" stroke="#63b8ff" d="M100.5,-93.08C125.87,-102.08 164.03,-115.62 192.09,-125.58"/>
<polygon fill="#63b8ff" stroke="#63b8ff" points="190.96,-128.89 201.55,-128.94 193.3,-122.29 190.96,-128.89"/>
</a>
</g>
</g>
<!-- Node5 -->
<g id="Node000005" class="node">
<title>Node5</title>
<g id="a_Node000005"><a xlink:href="cosmo_8c.html#adb3827724e24c320717073266dbfac4c" target="_top" xlink:title=" ">
<polygon fill="white" stroke="#666666" points="276,-93 183,-93 183,-74 276,-74 276,-93"/>
<text text-anchor="middle" x="229.5" y="-81" font-family="Helvetica,sans-Serif" font-size="10.00">PowerSpectrum</text>
</a>
</g>
</g>
<!-- Node1&#45;&gt;Node5 -->
<g id="edge4_Node000001_Node000005" class="edge">
<title>Node1&#45;&gt;Node5</title>
<g id="a_edge4_Node000001_Node000005"><a xlink:title=" ">
<path fill="none" stroke="#63b8ff" d="M145.1,-83.5C154.34,-83.5 163.69,-83.5 172.62,-83.5"/>
<polygon fill="#63b8ff" stroke="#63b8ff" points="172.88,-87 182.88,-83.5 172.88,-80 172.88,-87"/>
</a>
</g>
</g>
<!-- Node12 -->
<g id="Node000012" class="node">
<title>Node12</title>
<g id="a_Node000012"><a xlink:href="cosmo_8c.html#a9817ba0d254db24f71f8d7ab242b4fba" target="_top" xlink:title=" ">
<polygon fill="white" stroke="#666666" points="278,-56 181,-56 181,-37 278,-37 278,-56"/>
<text text-anchor="middle" x="229.5" y="-44" font-family="Helvetica,sans-Serif" font-size="10.00">WindowFunction</text>
</a>
</g>
</g>
<!-- Node1&#45;&gt;Node12 -->
<g id="edge12_Node000001_Node000012" class="edge">
<title>Node1&#45;&gt;Node12</title>
<g id="a_edge12_Node000001_Node000012"><a xlink:title=" ">
<path fill="none" stroke="#63b8ff" d="M113.42,-73.97C133.32,-69.22 157.58,-63.43 178.69,-58.39"/>
<polygon fill="#63b8ff" stroke="#63b8ff" points="179.54,-61.79 188.45,-56.06 177.91,-54.98 179.54,-61.79"/>
</a>
</g>
</g>
<!-- Node3 -->
<g id="Node000003" class="node">
<title>Node3</title>
<g id="a_Node000003"><a xlink:href="cosmo_8c.html#a8847e5b8ea1f9c458c8bf9e5f36837a9" target="_top" xlink:title=" ">
<polygon fill="white" stroke="#666666" points="429,-167 324,-167 324,-148 429,-148 429,-167"/>
<text text-anchor="middle" x="376.5" y="-155" font-family="Helvetica,sans-Serif" font-size="10.00">InterpolateGrowth</text>
</a>
</g>
</g>
<!-- Node2&#45;&gt;Node3 -->
<g id="edge2_Node000002_Node000003" class="edge">
<title>Node2&#45;&gt;Node3</title>
<g id="a_edge2_Node000002_Node000003"><a xlink:title=" ">
<path fill="none" stroke="#63b8ff" d="M271.66,-143.89C284.73,-145.61 299.49,-147.54 313.68,-149.4"/>
<polygon fill="#63b8ff" stroke="#63b8ff" points="313.52,-152.91 323.89,-150.74 314.43,-145.97 313.52,-152.91"/>
</a>
</g>
</g>
<!-- Node4 -->
<g id="Node000004" class="node">
<title>Node4</title>
<g id="a_Node000004"><a xlink:href="cosmo_8c.html#a6341f5394ed17a00dc77c5519b292ae3" target="_top" xlink:title=" ">
<polygon fill="white" stroke="#666666" points="568,-148 475,-148 475,-129 568,-129 568,-148"/>
<text text-anchor="middle" x="521.5" y="-136" font-family="Helvetica,sans-Serif" font-size="10.00">my_spline_eval</text>
</a>
</g>
</g>
<!-- Node3&#45;&gt;Node4 -->
<g id="edge3_Node000003_Node000004" class="edge">
<title>Node3&#45;&gt;Node4</title>
<g id="a_edge3_Node000003_Node000004"><a xlink:title=" ">
<path fill="none" stroke="#63b8ff" d="M429.13,-150.64C440.64,-149.11 452.89,-147.48 464.56,-145.93"/>
<polygon fill="#63b8ff" stroke="#63b8ff" points="465.19,-149.38 474.64,-144.59 464.27,-142.44 465.19,-149.38"/>
</a>
</g>
</g>
<!-- Node6 -->
<g id="Node000006" class="node">
<title>Node6</title>
<g id="a_Node000006"><a xlink:href="cosmo_8c.html#a27427d60987e3e074ad1d7215080dc69" target="_top" xlink:title=" ">
<polygon fill="white" stroke="#666666" points="439,-93 314,-93 314,-74 439,-74 439,-93"/>
<text text-anchor="middle" x="376.5" y="-81" font-family="Helvetica,sans-Serif" font-size="10.00">PowerSpec_Efstathiou</text>
</a>
</g>
</g>
<!-- Node5&#45;&gt;Node6 -->
<g id="edge5_Node000005_Node000006" class="edge">
<title>Node5&#45;&gt;Node6</title>
<g id="a_edge5_Node000005_Node000006"><a xlink:title=" ">
<path fill="none" stroke="#63b8ff" d="M276.38,-83.5C285.09,-83.5 294.4,-83.5 303.69,-83.5"/>
<polygon fill="#63b8ff" stroke="#63b8ff" points="303.74,-87 313.74,-83.5 303.74,-80 303.74,-87"/>
</a>
</g>
</g>
<!-- Node7 -->
<g id="Node000007" class="node">
<title>Node7</title>
<g id="a_Node000007"><a xlink:href="cosmo_8c.html#a4b4d5c5ca327f59df1eba21a73e62113" target="_top" xlink:title=" ">
<polygon fill="white" stroke="#666666" points="421,-56 332,-56 332,-37 421,-37 421,-56"/>
<text text-anchor="middle" x="376.5" y="-44" font-family="Helvetica,sans-Serif" font-size="10.00">PowerSpec_EH</text>
</a>
</g>
</g>
<!-- Node5&#45;&gt;Node7 -->
<g id="edge6_Node000005_Node000007" class="edge">
<title>Node5&#45;&gt;Node7</title>
<g id="a_edge6_Node000005_Node000007"><a xlink:title=" ">
<path fill="none" stroke="#63b8ff" d="M267.84,-73.97C286.21,-69.29 308.54,-63.59 328.1,-58.6"/>
<polygon fill="#63b8ff" stroke="#63b8ff" points="329.21,-61.92 338.03,-56.06 327.48,-55.14 329.21,-61.92"/>
</a>
</g>
</g>
<!-- Node10 -->
<g id="Node000010" class="node">
<title>Node10</title>
<g id="a_Node000010"><a xlink:href="cosmo_8c.html#a6d04017af6090db607768f47976b88b8" target="_top" xlink:title=" ">
<polygon fill="white" stroke="#666666" points="439,-19 314,-19 314,0 439,0 439,-19"/>
<text text-anchor="middle" x="376.5" y="-7" font-family="Helvetica,sans-Serif" font-size="10.00">PowerSpec_PowerLaw</text>
</a>
</g>
</g>
<!-- Node5&#45;&gt;Node10 -->
<g id="edge9_Node000005_Node000010" class="edge">
<title>Node5&#45;&gt;Node10</title>
<g id="a_edge9_Node000005_Node000010"><a xlink:title=" ">
<path fill="none" stroke="#63b8ff" d="M261.61,-73.96C267.28,-71.6 272.99,-68.79 278,-65.5 297.18,-52.91 294.43,-40.48 314,-28.5 317.39,-26.43 321.02,-24.56 324.76,-22.89"/>
<polygon fill="#63b8ff" stroke="#63b8ff" points="326.24,-26.07 334.23,-19.11 323.64,-19.57 326.24,-26.07"/>
</a>
</g>
</g>
<!-- Node11 -->
<g id="Node000011" class="node">
<title>Node11</title>
<g id="a_Node000011"><a xlink:href="cosmo_8c.html#a428d6d001b5eb57f3f17d85699dd67f5" target="_top" xlink:title=" ">
<polygon fill="white" stroke="#666666" points="437.5,-130 315.5,-130 315.5,-111 437.5,-111 437.5,-130"/>
<text text-anchor="middle" x="376.5" y="-118" font-family="Helvetica,sans-Serif" font-size="10.00">PowerSpec_Tabulated</text>
</a>
</g>
</g>
<!-- Node5&#45;&gt;Node11 -->
<g id="edge10_Node000005_Node000011" class="edge">
<title>Node5&#45;&gt;Node11</title>
<g id="a_edge10_Node000005_Node000011"><a xlink:title=" ">
<path fill="none" stroke="#63b8ff" d="M267.84,-93.03C286.21,-97.71 308.54,-103.41 328.1,-108.4"/>
<polygon fill="#63b8ff" stroke="#63b8ff" points="327.48,-111.86 338.03,-110.94 329.21,-105.08 327.48,-111.86"/>
</a>
</g>
</g>
<!-- Node8 -->
<g id="Node000008" class="node">
<title>Node8</title>
<g id="a_Node000008"><a xlink:href="cosmo_8c.html#a5c6dbdd7fd7c206feb0554bc93b2436c" target="_top" xlink:title=" ">
<polygon fill="white" stroke="#666666" points="553.5,-56 489.5,-56 489.5,-37 553.5,-37 553.5,-56"/>
<text text-anchor="middle" x="521.5" y="-44" font-family="Helvetica,sans-Serif" font-size="10.00">transf_EH</text>
</a>
</g>
</g>
<!-- Node7&#45;&gt;Node8 -->
<g id="edge7_Node000007_Node000008" class="edge">
<title>Node7&#45;&gt;Node8</title>
<g id="a_edge7_Node000007_Node000008"><a xlink:title=" ">
<path fill="none" stroke="#63b8ff" d="M421.18,-46.5C439.67,-46.5 461.1,-46.5 479.3,-46.5"/>
<polygon fill="#63b8ff" stroke="#63b8ff" points="479.33,-50 489.33,-46.5 479.33,-43 479.33,-50"/>
</a>
</g>
</g>
<!-- Node9 -->
<g id="Node000009" class="node">
<title>Node9</title>
<g id="a_Node000009"><a xlink:href="cosmo_8c.html#a57dfb02fcd17e35fad40c836ba4d4160" target="_top" xlink:title=" ">
<polygon fill="white" stroke="#666666" points="633,-56 604,-56 604,-37 633,-37 633,-56"/>
<text text-anchor="middle" x="618.5" y="-44" font-family="Helvetica,sans-Serif" font-size="10.00">T0</text>
</a>
</g>
</g>
<!-- Node8&#45;&gt;Node9 -->
<g id="edge8_Node000008_Node000009" class="edge">
<title>Node8&#45;&gt;Node9</title>
<g id="a_edge8_Node000008_Node000009"><a xlink:title=" ">
<path fill="none" stroke="#63b8ff" d="M553.61,-46.5C566.53,-46.5 581.31,-46.5 593.39,-46.5"/>
<polygon fill="#63b8ff" stroke="#63b8ff" points="593.6,-50 603.6,-46.5 593.6,-43 593.6,-50"/>
</a>
</g>
</g>
<!-- Node11&#45;&gt;Node4 -->
<g id="edge11_Node000011_Node000004" class="edge">
<title>Node11&#45;&gt;Node4</title>
<g id="a_edge11_Node000011_Node000004"><a xlink:title=" ">
<path fill="none" stroke="#63b8ff" d="M437.73,-128.08C446.62,-129.2 455.74,-130.35 464.54,-131.46"/>
<polygon fill="#63b8ff" stroke="#63b8ff" points="464.32,-134.96 474.68,-132.73 465.2,-128.01 464.32,-134.96"/>
</a>
</g>
</g>
</g>
</svg>
