<?xml version="1.0" encoding="UTF-8" standalone="no"?>
<!DOCTYPE svg PUBLIC "-//W3C//DTD SVG 1.1//EN"
 "http://www.w3.org/Graphics/SVG/1.1/DTD/svg11.dtd">
<!-- Generated by graphviz version 2.43.0 (0)
 -->
<!-- Title: GrowingMode_3LPT_1 Pages: 1 -->
<svg width="402pt" height="27pt"
 viewBox="0.00 0.00 402.00 27.00" xmlns="http://www.w3.org/2000/svg" xmlns:xlink="http://www.w3.org/1999/xlink">
<g id="graph0" class="graph" transform="scale(1 1) rotate(0) translate(4 23)">
<title>GrowingMode_3LPT_1</title>
<!-- Node1 -->
<g id="Node000001" class="node">
<title>Node1</title>
<g id="a_Node000001"><a xlink:title=" ">
<polygon fill="#999999" stroke="#666666" points="124,-19 0,-19 0,0 124,0 124,-19"/>
<text text-anchor="middle" x="62" y="-7" font-family="Helvetica,sans-Serif" font-size="10.00">GrowingMode_3LPT_1</text>
</a>
</g>
</g>
<!-- Node2 -->
<g id="Node000002" class="node">
<title>Node2</title>
<g id="a_Node000002"><a xlink:href="cosmo_8c.html#a8847e5b8ea1f9c458c8bf9e5f36837a9" target="_top" xlink:title=" ">
<polygon fill="white" stroke="#666666" points="265,-19 160,-19 160,0 265,0 265,-19"/>
<text text-anchor="middle" x="212.5" y="-7" font-family="Helvetica,sans-Serif" font-size="10.00">InterpolateGrowth</text>
</a>
</g>
</g>
<!-- Node1&#45;&gt;Node2 -->
<g id="edge1_Node000001_Node000002" class="edge">
<title>Node1&#45;&gt;Node2</title>
<g id="a_edge1_Node000001_Node000002"><a xlink:title=" ">
<path fill="none" stroke="#63b8ff" d="M124.26,-9.5C132.66,-9.5 141.3,-9.5 149.72,-9.5"/>
<polygon fill="#63b8ff" stroke="#63b8ff" points="149.84,-13 159.84,-9.5 149.84,-6 149.84,-13"/>
</a>
</g>
</g>
<!-- Node3 -->
<g id="Node000003" class="node">
<title>Node3</title>
<g id="a_Node000003"><a xlink:href="cosmo_8c.html#a6341f5394ed17a00dc77c5519b292ae3" target="_top" xlink:title=" ">
<polygon fill="white" stroke="#666666" points="394,-19 301,-19 301,0 394,0 394,-19"/>
<text text-anchor="middle" x="347.5" y="-7" font-family="Helvetica,sans-Serif" font-size="10.00">my_spline_eval</text>
</a>
</g>
</g>
<!-- Node2&#45;&gt;Node3 -->
<g id="edge2_Node000002_Node000003" class="edge">
<title>Node2&#45;&gt;Node3</title>
<g id="a_edge2_Node000002_Node000003"><a xlink:title=" ">
<path fill="none" stroke="#63b8ff" d="M265.3,-9.5C273.6,-9.5 282.22,-9.5 290.6,-9.5"/>
<polygon fill="#63b8ff" stroke="#63b8ff" points="290.68,-13 300.68,-9.5 290.68,-6 290.68,-13"/>
</a>
</g>
</g>
</g>
</svg>
