<?xml version="1.0" encoding="UTF-8" standalone="no"?>
<!DOCTYPE svg PUBLIC "-//W3C//DTD SVG 1.1//EN"
 "http://www.w3.org/Graphics/SVG/1.1/DTD/svg11.dtd">
<!-- Generated by graphviz version 2.43.0 (0)
 -->
<!-- Title: ComovingDistance Pages: 1 -->
<svg width="991pt" height="464pt"
 viewBox="0.00 0.00 991.00 463.50" xmlns="http://www.w3.org/2000/svg" xmlns:xlink="http://www.w3.org/1999/xlink">
<g id="graph0" class="graph" transform="scale(1 1) rotate(0) translate(4 459.5)">
<title>ComovingDistance</title>
<!-- Node1 -->
<g id="Node000001" class="node">
<title>Node1</title>
<g id="a_Node000001"><a xlink:title=" ">
<polygon fill="#999999" stroke="#666666" points="983,-191.5 874,-191.5 874,-172.5 983,-172.5 983,-191.5"/>
<text text-anchor="middle" x="928.5" y="-179.5" font-family="Helvetica,sans-Serif" font-size="10.00">ComovingDistance</text>
</a>
</g>
</g>
<!-- Node2 -->
<g id="Node000002" class="node">
<title>Node2</title>
<g id="a_Node000002"><a xlink:href="fragment_8c.html#aabb4533acf454a2edcad5fe0ad385df8" target="_top" xlink:title=" ">
<polygon fill="white" stroke="#666666" points="838,-418.5 702,-418.5 702,-399.5 838,-399.5 838,-418.5"/>
<text text-anchor="middle" x="770" y="-406.5" font-family="Helvetica,sans-Serif" font-size="10.00">compute_Nhalos_in_PLC</text>
</a>
</g>
</g>
<!-- Node1&#45;&gt;Node2 -->
<g id="edge1_Node000001_Node000002" class="edge">
<title>Node1&#45;&gt;Node2</title>
<g id="a_edge1_Node000001_Node000002"><a xlink:title=" ">
<path fill="none" stroke="#63b8ff" d="M924.75,-201.64C917.92,-242.85 896.33,-338.8 838,-390 833.55,-393.91 828.34,-397.02 822.84,-399.49"/>
<polygon fill="#63b8ff" stroke="#63b8ff" points="928.24,-201.96 926.3,-191.54 921.32,-200.9 928.24,-201.96"/>
</a>
</g>
</g>
<!-- Node7 -->
<g id="Node000007" class="node">
<title>Node7</title>
<g id="a_Node000007"><a xlink:href="build__groups_8c.html#a69a7cc51af8af468a60cbbd2894fdb46" target="_top" xlink:title=" ">
<polygon fill="white" stroke="#666666" points="812.5,-248.5 727.5,-248.5 727.5,-229.5 812.5,-229.5 812.5,-248.5"/>
<text text-anchor="middle" x="770" y="-236.5" font-family="Helvetica,sans-Serif" font-size="10.00">condition_PLC</text>
</a>
</g>
</g>
<!-- Node1&#45;&gt;Node7 -->
<g id="edge6_Node000001_Node000007" class="edge">
<title>Node1&#45;&gt;Node7</title>
<g id="a_edge6_Node000001_Node000007"><a xlink:title=" ">
<path fill="none" stroke="#63b8ff" d="M891.63,-195.07C862.86,-205.54 823.15,-220.01 797.28,-229.43"/>
<polygon fill="#63b8ff" stroke="#63b8ff" points="893.11,-198.25 901.31,-191.54 890.71,-191.67 893.11,-198.25"/>
</a>
</g>
</g>
<!-- Node13 -->
<g id="Node000013" class="node">
<title>Node13</title>
<g id="a_Node000013"><a xlink:href="cosmo_8c.html#a3a0180bde4b72af08dbd201d59d3ec77" target="_top" xlink:title=" ">
<polygon fill="white" stroke="#666666" points="659.5,-153.5 514.5,-153.5 514.5,-134.5 659.5,-134.5 659.5,-153.5"/>
<text text-anchor="middle" x="587" y="-141.5" font-family="Helvetica,sans-Serif" font-size="10.00">InverseComovingDistance</text>
</a>
</g>
</g>
<!-- Node1&#45;&gt;Node13 -->
<g id="edge15_Node000001_Node000013" class="edge">
<title>Node1&#45;&gt;Node13</title>
<g id="a_edge15_Node000001_Node000013"><a xlink:title=" ">
<path fill="none" stroke="#63b8ff" d="M863.61,-171.53C855.01,-170.26 846.3,-169.05 838,-168 777.98,-160.43 709.58,-154.02 659.52,-149.73"/>
<polygon fill="#63b8ff" stroke="#63b8ff" points="863.21,-175.01 873.62,-173.04 864.25,-168.09 863.21,-175.01"/>
</a>
</g>
</g>
<!-- Node14 -->
<g id="Node000014" class="node">
<title>Node14</title>
<g id="a_Node000014"><a xlink:href="write__mass__maps_8c.html#a523d76e3e01c2ce2c7d973cf5ad60cb6" target="_top" xlink:title=" ">
<polygon fill="white" stroke="#666666" points="472,-172.5 306,-172.5 306,-153.5 472,-153.5 472,-172.5"/>
<text text-anchor="middle" x="389" y="-160.5" font-family="Helvetica,sans-Serif" font-size="10.00">mass_maps_process_segment</text>
</a>
</g>
</g>
<!-- Node1&#45;&gt;Node14 -->
<g id="edge21_Node000001_Node000014" class="edge">
<title>Node1&#45;&gt;Node14</title>
<g id="a_edge21_Node000001_Node000014"><a xlink:title=" ">
<path fill="none" stroke="#63b8ff" d="M863.98,-179.75C766.42,-176.31 579.7,-169.71 472.03,-165.9"/>
<polygon fill="#63b8ff" stroke="#63b8ff" points="863.88,-183.25 874,-180.11 864.13,-176.26 863.88,-183.25"/>
</a>
</g>
</g>
<!-- Node15 -->
<g id="Node000015" class="node">
<title>Node15</title>
<g id="a_Node000015"><a xlink:href="write__mass__maps_8c.html#ac3825e2d85cbf594cebf8e61d1174374" target="_top" xlink:title=" ">
<polygon fill="white" stroke="#666666" points="837,-380.5 703,-380.5 703,-361.5 837,-361.5 837,-380.5"/>
<text text-anchor="middle" x="770" y="-368.5" font-family="Helvetica,sans-Serif" font-size="10.00">mass_maps_init_sheets</text>
</a>
</g>
</g>
<!-- Node1&#45;&gt;Node15 -->
<g id="edge18_Node000001_Node000015" class="edge">
<title>Node1&#45;&gt;Node15</title>
<g id="a_edge18_Node000001_Node000015"><a xlink:title=" ">
<path fill="none" stroke="#63b8ff" d="M919.99,-201.21C907.11,-232.13 878.28,-293.48 838,-333 825.5,-345.27 808.24,-354.93 794.38,-361.44"/>
<polygon fill="#63b8ff" stroke="#63b8ff" points="923.36,-202.21 923.87,-191.62 916.87,-199.58 923.36,-202.21"/>
</a>
</g>
</g>
<!-- Node16 -->
<g id="Node000016" class="node">
<title>Node16</title>
<g id="a_Node000016"><a xlink:href="write__mass__maps_8c.html#a2d603e513b049c4750dbd9e8ed809b9d" target="_top" xlink:title=" ">
<polygon fill="white" stroke="#666666" points="828.5,-30 711.5,-30 711.5,0 828.5,0 828.5,-30"/>
<text text-anchor="start" x="719.5" y="-18" font-family="Helvetica,sans-Serif" font-size="10.00">mass_maps_particle</text>
<text text-anchor="middle" x="770" y="-7" font-family="Helvetica,sans-Serif" font-size="10.00">_sign_change</text>
</a>
</g>
</g>
<!-- Node1&#45;&gt;Node16 -->
<g id="edge20_Node000001_Node000016" class="edge">
<title>Node1&#45;&gt;Node16</title>
<g id="a_edge20_Node000001_Node000016"><a xlink:title=" ">
<path fill="none" stroke="#63b8ff" d="M920.44,-163.03C908.2,-132.63 880.25,-73.01 838,-39 833.77,-35.59 829.01,-32.64 824.03,-30.1"/>
<polygon fill="#63b8ff" stroke="#63b8ff" points="917.22,-164.41 924.11,-172.47 923.75,-161.88 917.22,-164.41"/>
</a>
</g>
</g>
<!-- Node17 -->
<g id="Node000017" class="node">
<title>Node17</title>
<g id="a_Node000017"><a xlink:href="write__mass__maps_8c.html#a7159652dd5f768d3494af76431c811b7" target="_top" xlink:title=" ">
<polygon fill="white" stroke="#666666" points="836,-78 704,-78 704,-48 836,-48 836,-78"/>
<text text-anchor="start" x="712" y="-66" font-family="Helvetica,sans-Serif" font-size="10.00">mass_maps_replication</text>
<text text-anchor="middle" x="770" y="-55" font-family="Helvetica,sans-Serif" font-size="10.00">_chi_bounds</text>
</a>
</g>
</g>
<!-- Node1&#45;&gt;Node17 -->
<g id="edge22_Node000001_Node000017" class="edge">
<title>Node1&#45;&gt;Node17</title>
<g id="a_edge22_Node000001_Node000017"><a xlink:title=" ">
<path fill="none" stroke="#63b8ff" d="M913.67,-164.53C897.32,-144.81 868.45,-112.76 838,-92 830.25,-86.72 821.38,-82.06 812.69,-78.12"/>
<polygon fill="#63b8ff" stroke="#63b8ff" points="911.05,-166.86 920.07,-172.41 916.48,-162.44 911.05,-166.86"/>
</a>
</g>
</g>
<!-- Node18 -->
<g id="Node000018" class="node">
<title>Node18</title>
<g id="a_Node000018"><a xlink:href="write__mass__maps_8c.html#a9a969f3af5ada3d2f71e9581732559ce" target="_top" xlink:title=" ">
<polygon fill="white" stroke="#666666" points="666,-116 508,-116 508,-86 666,-86 666,-116"/>
<text text-anchor="start" x="516" y="-104" font-family="Helvetica,sans-Serif" font-size="10.00">mass_maps_select_segment</text>
<text text-anchor="middle" x="587" y="-93" font-family="Helvetica,sans-Serif" font-size="10.00">_replications</text>
</a>
</g>
</g>
<!-- Node1&#45;&gt;Node18 -->
<g id="edge25_Node000001_Node000018" class="edge">
<title>Node1&#45;&gt;Node18</title>
<g id="a_edge25_Node000001_Node000018"><a xlink:title=" ">
<path fill="none" stroke="#63b8ff" d="M894.53,-168.88C877.79,-162.56 857.02,-155.23 838,-150 781.18,-134.37 715.77,-121.73 666.12,-113.21"/>
<polygon fill="#63b8ff" stroke="#63b8ff" points="893.29,-172.15 903.88,-172.46 895.79,-165.61 893.29,-172.15"/>
</a>
</g>
</g>
<!-- Node19 -->
<g id="Node000019" class="node">
<title>Node19</title>
<g id="a_Node000019"><a xlink:href="initialization_8c.html#a6a2aae0d1d7f4a81e2ee08ec87312de8" target="_top" xlink:title=" ">
<polygon fill="white" stroke="#666666" points="795.5,-323.5 744.5,-323.5 744.5,-304.5 795.5,-304.5 795.5,-323.5"/>
<text text-anchor="middle" x="770" y="-311.5" font-family="Helvetica,sans-Serif" font-size="10.00">set_plc</text>
</a>
</g>
</g>
<!-- Node1&#45;&gt;Node19 -->
<g id="edge26_Node000001_Node000019" class="edge">
<title>Node1&#45;&gt;Node19</title>
<g id="a_edge26_Node000001_Node000019"><a xlink:title=" ">
<path fill="none" stroke="#63b8ff" d="M908.17,-198.49C890.07,-213.91 862.25,-237.57 838,-258 818.75,-274.21 796.3,-292.95 782.88,-304.11"/>
<polygon fill="#63b8ff" stroke="#63b8ff" points="910.88,-200.78 916.22,-191.63 906.34,-195.45 910.88,-200.78"/>
</a>
</g>
</g>
<!-- Node3 -->
<g id="Node000003" class="node">
<title>Node3</title>
<g id="a_Node000003"><a xlink:href="fragment_8c.html#a1d88ab9fbf839def20a948fed5095970" target="_top" xlink:title=" ">
<polygon fill="white" stroke="#666666" points="639.5,-455.5 534.5,-455.5 534.5,-436.5 639.5,-436.5 639.5,-455.5"/>
<text text-anchor="middle" x="587" y="-443.5" font-family="Helvetica,sans-Serif" font-size="10.00">estimate_file_size</text>
</a>
</g>
</g>
<!-- Node2&#45;&gt;Node3 -->
<g id="edge2_Node000002_Node000003" class="edge">
<title>Node2&#45;&gt;Node3</title>
<g id="a_edge2_Node000002_Node000003"><a xlink:title=" ">
<path fill="none" stroke="#63b8ff" d="M712.33,-420.58C687.39,-425.68 658.45,-431.6 634.77,-436.44"/>
<polygon fill="#63b8ff" stroke="#63b8ff" points="713.29,-423.96 722.39,-418.53 711.89,-417.1 713.29,-423.96"/>
</a>
</g>
</g>
<!-- Node6 -->
<g id="Node000006" class="node">
<title>Node6</title>
<g id="a_Node000006"><a xlink:href="write__halos_8c.html#a9c1d2f1df77a66a8e31b7d19251f39ac" target="_top" xlink:title=" ">
<polygon fill="white" stroke="#666666" points="619.5,-418.5 554.5,-418.5 554.5,-399.5 619.5,-399.5 619.5,-418.5"/>
<text text-anchor="middle" x="587" y="-406.5" font-family="Helvetica,sans-Serif" font-size="10.00">write_PLC</text>
</a>
</g>
</g>
<!-- Node2&#45;&gt;Node6 -->
<g id="edge5_Node000002_Node000006" class="edge">
<title>Node2&#45;&gt;Node6</title>
<g id="a_edge5_Node000002_Node000006"><a xlink:title=" ">
<path fill="none" stroke="#63b8ff" d="M691.84,-409C666.45,-409 639.62,-409 619.6,-409"/>
<polygon fill="#63b8ff" stroke="#63b8ff" points="691.86,-412.5 701.86,-409 691.86,-405.5 691.86,-412.5"/>
</a>
</g>
</g>
<!-- Node4 -->
<g id="Node000004" class="node">
<title>Node4</title>
<g id="a_Node000004"><a xlink:href="initialization_8c.html#a2bed034b4a40d49d0765d1ce741bd8a9" target="_top" xlink:title=" ">
<polygon fill="white" stroke="#666666" points="427.5,-361.5 350.5,-361.5 350.5,-342.5 427.5,-342.5 427.5,-361.5"/>
<text text-anchor="middle" x="389" y="-349.5" font-family="Helvetica,sans-Serif" font-size="10.00">initialization</text>
</a>
</g>
</g>
<!-- Node3&#45;&gt;Node4 -->
<g id="edge3_Node000003_Node000004" class="edge">
<title>Node3&#45;&gt;Node4</title>
<g id="a_edge3_Node000003_Node000004"><a xlink:title=" ">
<path fill="none" stroke="#63b8ff" d="M524.73,-434.01C518.99,-432.25 513.33,-430.25 508,-428 466.02,-410.28 422.41,-377.89 401.95,-361.72"/>
<polygon fill="#63b8ff" stroke="#63b8ff" points="523.85,-437.4 534.43,-436.76 525.76,-430.66 523.85,-437.4"/>
</a>
</g>
</g>
<!-- Node5 -->
<g id="Node000005" class="node">
<title>Node5</title>
<g id="a_Node000005"><a xlink:href="pinocchio_8c.html#a647f21a28344e1d9c643f4115516d7c9" target="_top" xlink:title=" ">
<polygon fill="white" stroke="#666666" points="41,-304.5 0,-304.5 0,-285.5 41,-285.5 41,-304.5"/>
<text text-anchor="middle" x="20.5" y="-292.5" font-family="Helvetica,sans-Serif" font-size="10.00">main</text>
</a>
</g>
</g>
<!-- Node4&#45;&gt;Node5 -->
<g id="edge4_Node000004_Node000005" class="edge">
<title>Node4&#45;&gt;Node5</title>
<g id="a_edge4_Node000004_Node000005"><a xlink:title=" ">
<path fill="none" stroke="#63b8ff" d="M340.19,-344.56C258.96,-331.93 97.36,-306.8 41.24,-298.07"/>
<polygon fill="#63b8ff" stroke="#63b8ff" points="339.74,-348.04 350.16,-346.11 340.82,-341.12 339.74,-348.04"/>
</a>
</g>
</g>
<!-- Node8 -->
<g id="Node000008" class="node">
<title>Node8</title>
<g id="a_Node000008"><a xlink:href="build__groups_8c.html#a4df1001cc86732388d8ecf04e3372827" target="_top" xlink:title=" ">
<polygon fill="white" stroke="#666666" points="428.5,-266.5 349.5,-266.5 349.5,-247.5 428.5,-247.5 428.5,-266.5"/>
<text text-anchor="middle" x="389" y="-254.5" font-family="Helvetica,sans-Serif" font-size="10.00">build_groups</text>
</a>
</g>
</g>
<!-- Node7&#45;&gt;Node8 -->
<g id="edge7_Node000007_Node000008" class="edge">
<title>Node7&#45;&gt;Node8</title>
<g id="a_edge7_Node000007_Node000008"><a xlink:title=" ">
<path fill="none" stroke="#63b8ff" d="M739.77,-252.56C719.54,-261.18 691.74,-271.52 666,-276 582.25,-290.59 482.37,-275.92 428.7,-265.48"/>
<polygon fill="#63b8ff" stroke="#63b8ff" points="741.28,-255.72 749.05,-248.51 738.48,-249.31 741.28,-255.72"/>
</a>
</g>
</g>
<!-- Node11 -->
<g id="Node000011" class="node">
<title>Node11</title>
<g id="a_Node000011"><a xlink:href="build__groups_8c.html#a2df593120b6334c80adfd6ac44b0762b" target="_top" xlink:title=" ">
<polygon fill="white" stroke="#666666" points="623.5,-266.5 550.5,-266.5 550.5,-247.5 623.5,-247.5 623.5,-266.5"/>
<text text-anchor="middle" x="587" y="-254.5" font-family="Helvetica,sans-Serif" font-size="10.00">condition_F</text>
</a>
</g>
</g>
<!-- Node7&#45;&gt;Node11 -->
<g id="edge11_Node000007_Node000011" class="edge">
<title>Node7&#45;&gt;Node11</title>
<g id="a_edge11_Node000007_Node000011"><a xlink:title=" ">
<path fill="none" stroke="#63b8ff" d="M717.19,-244.15C687.2,-247.13 650.23,-250.81 623.53,-253.47"/>
<polygon fill="#63b8ff" stroke="#63b8ff" points="717.87,-247.6 727.47,-243.13 717.18,-240.64 717.87,-247.6"/>
</a>
</g>
</g>
<!-- Node12 -->
<g id="Node000012" class="node">
<title>Node12</title>
<g id="a_Node000012"><a xlink:href="build__groups_8c.html#a86827bbf037c84cece9492cbbb3cbaef" target="_top" xlink:title=" ">
<polygon fill="white" stroke="#666666" points="619.5,-229.5 554.5,-229.5 554.5,-210.5 619.5,-210.5 619.5,-229.5"/>
<text text-anchor="middle" x="587" y="-217.5" font-family="Helvetica,sans-Serif" font-size="10.00">find_brent</text>
</a>
</g>
</g>
<!-- Node7&#45;&gt;Node12 -->
<g id="edge13_Node000007_Node000012" class="edge">
<title>Node7&#45;&gt;Node12</title>
<g id="a_edge13_Node000007_Node000012"><a xlink:title=" ">
<path fill="none" stroke="#63b8ff" d="M717.14,-233.56C685.71,-230.26 646.63,-226.15 619.74,-223.33"/>
<polygon fill="#63b8ff" stroke="#63b8ff" points="717.16,-237.08 727.47,-234.64 717.9,-230.12 717.16,-237.08"/>
</a>
</g>
</g>
<!-- Node9 -->
<g id="Node000009" class="node">
<title>Node9</title>
<g id="a_Node000009"><a xlink:href="fragment_8c.html#ac2bb250921932f90f7b0939d1181b66d" target="_top" xlink:title=" ">
<polygon fill="white" stroke="#666666" points="270,-266.5 208,-266.5 208,-247.5 270,-247.5 270,-266.5"/>
<text text-anchor="middle" x="239" y="-254.5" font-family="Helvetica,sans-Serif" font-size="10.00">fragment</text>
</a>
</g>
</g>
<!-- Node8&#45;&gt;Node9 -->
<g id="edge8_Node000008_Node000009" class="edge">
<title>Node8&#45;&gt;Node9</title>
<g id="a_edge8_Node000008_Node000009"><a xlink:title=" ">
<path fill="none" stroke="#63b8ff" d="M338.96,-257C316.25,-257 289.98,-257 270.22,-257"/>
<polygon fill="#63b8ff" stroke="#63b8ff" points="339.11,-260.5 349.11,-257 339.11,-253.5 339.11,-260.5"/>
</a>
</g>
</g>
<!-- Node10 -->
<g id="Node000010" class="node">
<title>Node10</title>
<g id="a_Node000010"><a xlink:href="fragment_8c.html#ae3aa75d17cbc170e60f4f48c4a2ffdf5" target="_top" xlink:title=" ">
<polygon fill="white" stroke="#666666" points="172,-285.5 77,-285.5 77,-266.5 172,-266.5 172,-285.5"/>
<text text-anchor="middle" x="124.5" y="-273.5" font-family="Helvetica,sans-Serif" font-size="10.00">fragment_driver</text>
</a>
</g>
</g>
<!-- Node9&#45;&gt;Node10 -->
<g id="edge9_Node000009_Node000010" class="edge">
<title>Node9&#45;&gt;Node10</title>
<g id="a_edge9_Node000009_Node000010"><a xlink:title=" ">
<path fill="none" stroke="#63b8ff" d="M197.73,-263.8C189.47,-265.2 180.72,-266.67 172.26,-268.1"/>
<polygon fill="#63b8ff" stroke="#63b8ff" points="198.57,-267.21 207.85,-262.09 197.41,-260.31 198.57,-267.21"/>
</a>
</g>
</g>
<!-- Node10&#45;&gt;Node5 -->
<g id="edge10_Node000010_Node000005" class="edge">
<title>Node10&#45;&gt;Node5</title>
<g id="a_edge10_Node000010_Node000005"><a xlink:title=" ">
<path fill="none" stroke="#63b8ff" d="M66.91,-286.54C57.67,-288.26 48.67,-289.94 41.16,-291.34"/>
<polygon fill="#63b8ff" stroke="#63b8ff" points="67.79,-289.94 76.98,-284.67 66.51,-283.06 67.79,-289.94"/>
</a>
</g>
</g>
<!-- Node11&#45;&gt;Node8 -->
<g id="edge12_Node000011_Node000008" class="edge">
<title>Node11&#45;&gt;Node8</title>
<g id="a_edge12_Node000011_Node000008"><a xlink:title=" ">
<path fill="none" stroke="#63b8ff" d="M539.96,-257C506.14,-257 460.71,-257 428.74,-257"/>
<polygon fill="#63b8ff" stroke="#63b8ff" points="540.05,-260.5 550.05,-257 540.05,-253.5 540.05,-260.5"/>
</a>
</g>
</g>
<!-- Node12&#45;&gt;Node8 -->
<g id="edge14_Node000012_Node000008" class="edge">
<title>Node12&#45;&gt;Node8</title>
<g id="a_edge14_Node000012_Node000008"><a xlink:title=" ">
<path fill="none" stroke="#63b8ff" d="M543.93,-227.94C509.74,-234.4 461.89,-243.43 428.65,-249.7"/>
<polygon fill="#63b8ff" stroke="#63b8ff" points="544.9,-231.32 554.07,-226.03 543.6,-224.44 544.9,-231.32"/>
</a>
</g>
</g>
<!-- Node13&#45;&gt;Node14 -->
<g id="edge16_Node000013_Node000014" class="edge">
<title>Node13&#45;&gt;Node14</title>
<g id="a_edge16_Node000013_Node000014"><a xlink:title=" ">
<path fill="none" stroke="#63b8ff" d="M504.28,-151.92C493.62,-152.96 482.69,-154.01 472.02,-155.05"/>
<polygon fill="#63b8ff" stroke="#63b8ff" points="504.79,-155.39 514.41,-150.94 504.12,-148.42 504.79,-155.39"/>
</a>
</g>
</g>
<!-- Node14&#45;&gt;Node9 -->
<g id="edge17_Node000014_Node000009" class="edge">
<title>Node14&#45;&gt;Node9</title>
<g id="a_edge17_Node000014_Node000009"><a xlink:title=" ">
<path fill="none" stroke="#63b8ff" d="M364.21,-178.11C333.44,-197.65 280.78,-231.1 255.05,-247.44"/>
<polygon fill="#63b8ff" stroke="#63b8ff" points="366.43,-180.85 372.99,-172.53 362.68,-174.94 366.43,-180.85"/>
</a>
</g>
</g>
<!-- Node15&#45;&gt;Node4 -->
<g id="edge19_Node000015_Node000004" class="edge">
<title>Node15&#45;&gt;Node4</title>
<g id="a_edge19_Node000015_Node000004"><a xlink:title=" ">
<path fill="none" stroke="#63b8ff" d="M692.92,-367.19C612.57,-363.16 489.19,-356.97 427.64,-353.89"/>
<polygon fill="#63b8ff" stroke="#63b8ff" points="692.82,-370.69 702.98,-367.69 693.17,-363.69 692.82,-370.69"/>
</a>
</g>
</g>
<!-- Node17&#45;&gt;Node18 -->
<g id="edge23_Node000017_Node000018" class="edge">
<title>Node17&#45;&gt;Node18</title>
<g id="a_edge23_Node000017_Node000018"><a xlink:title=" ">
<path fill="none" stroke="#63b8ff" d="M694,-78.75C682.61,-81.14 670.88,-83.6 659.56,-85.98"/>
<polygon fill="#63b8ff" stroke="#63b8ff" points="694.84,-82.15 703.91,-76.67 693.4,-75.29 694.84,-82.15"/>
</a>
</g>
</g>
<!-- Node18&#45;&gt;Node14 -->
<g id="edge24_Node000018_Node000014" class="edge">
<title>Node18&#45;&gt;Node14</title>
<g id="a_edge24_Node000018_Node000014"><a xlink:title=" ">
<path fill="none" stroke="#63b8ff" d="M526.9,-119.1C520.51,-121.08 514.12,-123.07 508,-125 477.82,-134.5 443.39,-145.62 419.55,-153.37"/>
<polygon fill="#63b8ff" stroke="#63b8ff" points="528.35,-122.31 536.87,-116.01 526.28,-115.62 528.35,-122.31"/>
</a>
</g>
</g>
<!-- Node19&#45;&gt;Node4 -->
<g id="edge27_Node000019_Node000004" class="edge">
<title>Node19&#45;&gt;Node4</title>
<g id="a_edge27_Node000019_Node000004"><a xlink:title=" ">
<path fill="none" stroke="#63b8ff" d="M734.19,-317.49C662.94,-324.63 500.98,-340.87 427.5,-348.24"/>
<polygon fill="#63b8ff" stroke="#63b8ff" points="734.82,-320.94 744.42,-316.46 734.13,-313.98 734.82,-320.94"/>
</a>
</g>
</g>
</g>
</svg>
