<?xml version="1.0" encoding="UTF-8" standalone="no"?>
<!DOCTYPE svg PUBLIC "-//W3C//DTD SVG 1.1//EN"
 "http://www.w3.org/Graphics/SVG/1.1/DTD/svg11.dtd">
<!-- Generated by graphviz version 2.43.0 (0)
 -->
<!-- Title: ComputeDisplVariance Pages: 1 -->
<svg width="805pt" height="175pt"
 viewBox="0.00 0.00 805.00 175.00" xmlns="http://www.w3.org/2000/svg" xmlns:xlink="http://www.w3.org/1999/xlink">
<g id="graph0" class="graph" transform="scale(1 1) rotate(0) translate(4 171)">
<title>ComputeDisplVariance</title>
<!-- Node1 -->
<g id="Node000001" class="node">
<title>Node1</title>
<g id="a_Node000001"><a xlink:title=" ">
<polygon fill="#999999" stroke="#666666" points="128,-93 0,-93 0,-74 128,-74 128,-93"/>
<text text-anchor="middle" x="64" y="-81" font-family="Helvetica,sans-Serif" font-size="10.00">ComputeDisplVariance</text>
</a>
</g>
</g>
<!-- Node2 -->
<g id="Node000002" class="node">
<title>Node2</title>
<g id="a_Node000002"><a xlink:href="cosmo_8c.html#ac6c0324ea8a0998e51c2ed54864ef24c" target="_top" xlink:title=" ">
<polygon fill="white" stroke="#666666" points="309,-93 164,-93 164,-74 309,-74 309,-93"/>
<text text-anchor="middle" x="236.5" y="-81" font-family="Helvetica,sans-Serif" font-size="10.00">IntegrandForDisplVariance</text>
</a>
</g>
</g>
<!-- Node1&#45;&gt;Node2 -->
<g id="edge1_Node000001_Node000002" class="edge">
<title>Node1&#45;&gt;Node2</title>
<g id="a_edge1_Node000001_Node000002"><a xlink:title=" ">
<path fill="none" stroke="#63b8ff" d="M128,-83.5C136.39,-83.5 145.09,-83.5 153.73,-83.5"/>
<polygon fill="#63b8ff" stroke="#63b8ff" points="153.84,-87 163.84,-83.5 153.84,-80 153.84,-87"/>
</a>
</g>
</g>
<!-- Node3 -->
<g id="Node000003" class="node">
<title>Node3</title>
<g id="a_Node000003"><a xlink:href="cosmo_8c.html#a9fbcf5b69c272e801cf320cf814b23c4" target="_top" xlink:title=" ">
<polygon fill="white" stroke="#666666" points="435.5,-148 351.5,-148 351.5,-129 435.5,-129 435.5,-148"/>
<text text-anchor="middle" x="393.5" y="-136" font-family="Helvetica,sans-Serif" font-size="10.00">GrowingMode</text>
</a>
</g>
</g>
<!-- Node2&#45;&gt;Node3 -->
<g id="edge2_Node000002_Node000003" class="edge">
<title>Node2&#45;&gt;Node3</title>
<g id="a_edge2_Node000002_Node000003"><a xlink:title=" ">
<path fill="none" stroke="#63b8ff" d="M264.5,-93.08C289.87,-102.08 328.03,-115.62 356.09,-125.58"/>
<polygon fill="#63b8ff" stroke="#63b8ff" points="354.96,-128.89 365.55,-128.94 357.3,-122.29 354.96,-128.89"/>
</a>
</g>
</g>
<!-- Node6 -->
<g id="Node000006" class="node">
<title>Node6</title>
<g id="a_Node000006"><a xlink:href="cosmo_8c.html#adb3827724e24c320717073266dbfac4c" target="_top" xlink:title=" ">
<polygon fill="white" stroke="#666666" points="440,-93 347,-93 347,-74 440,-74 440,-93"/>
<text text-anchor="middle" x="393.5" y="-81" font-family="Helvetica,sans-Serif" font-size="10.00">PowerSpectrum</text>
</a>
</g>
</g>
<!-- Node2&#45;&gt;Node6 -->
<g id="edge5_Node000002_Node000006" class="edge">
<title>Node2&#45;&gt;Node6</title>
<g id="a_edge5_Node000002_Node000006"><a xlink:title=" ">
<path fill="none" stroke="#63b8ff" d="M309.1,-83.5C318.34,-83.5 327.69,-83.5 336.62,-83.5"/>
<polygon fill="#63b8ff" stroke="#63b8ff" points="336.88,-87 346.88,-83.5 336.88,-80 336.88,-87"/>
</a>
</g>
</g>
<!-- Node13 -->
<g id="Node000013" class="node">
<title>Node13</title>
<g id="a_Node000013"><a xlink:href="cosmo_8c.html#a9817ba0d254db24f71f8d7ab242b4fba" target="_top" xlink:title=" ">
<polygon fill="white" stroke="#666666" points="442,-56 345,-56 345,-37 442,-37 442,-56"/>
<text text-anchor="middle" x="393.5" y="-44" font-family="Helvetica,sans-Serif" font-size="10.00">WindowFunction</text>
</a>
</g>
</g>
<!-- Node2&#45;&gt;Node13 -->
<g id="edge13_Node000002_Node000013" class="edge">
<title>Node2&#45;&gt;Node13</title>
<g id="a_edge13_Node000002_Node000013"><a xlink:title=" ">
<path fill="none" stroke="#63b8ff" d="M277.42,-73.97C297.32,-69.22 321.58,-63.43 342.69,-58.39"/>
<polygon fill="#63b8ff" stroke="#63b8ff" points="343.54,-61.79 352.45,-56.06 341.91,-54.98 343.54,-61.79"/>
</a>
</g>
</g>
<!-- Node4 -->
<g id="Node000004" class="node">
<title>Node4</title>
<g id="a_Node000004"><a xlink:href="cosmo_8c.html#a8847e5b8ea1f9c458c8bf9e5f36837a9" target="_top" xlink:title=" ">
<polygon fill="white" stroke="#666666" points="593,-167 488,-167 488,-148 593,-148 593,-167"/>
<text text-anchor="middle" x="540.5" y="-155" font-family="Helvetica,sans-Serif" font-size="10.00">InterpolateGrowth</text>
</a>
</g>
</g>
<!-- Node3&#45;&gt;Node4 -->
<g id="edge3_Node000003_Node000004" class="edge">
<title>Node3&#45;&gt;Node4</title>
<g id="a_edge3_Node000003_Node000004"><a xlink:title=" ">
<path fill="none" stroke="#63b8ff" d="M435.66,-143.89C448.73,-145.61 463.49,-147.54 477.68,-149.4"/>
<polygon fill="#63b8ff" stroke="#63b8ff" points="477.52,-152.91 487.89,-150.74 478.43,-145.97 477.52,-152.91"/>
</a>
</g>
</g>
<!-- Node5 -->
<g id="Node000005" class="node">
<title>Node5</title>
<g id="a_Node000005"><a xlink:href="cosmo_8c.html#a6341f5394ed17a00dc77c5519b292ae3" target="_top" xlink:title=" ">
<polygon fill="white" stroke="#666666" points="732,-148 639,-148 639,-129 732,-129 732,-148"/>
<text text-anchor="middle" x="685.5" y="-136" font-family="Helvetica,sans-Serif" font-size="10.00">my_spline_eval</text>
</a>
</g>
</g>
<!-- Node4&#45;&gt;Node5 -->
<g id="edge4_Node000004_Node000005" class="edge">
<title>Node4&#45;&gt;Node5</title>
<g id="a_edge4_Node000004_Node000005"><a xlink:title=" ">
<path fill="none" stroke="#63b8ff" d="M593.13,-150.64C604.64,-149.11 616.89,-147.48 628.56,-145.93"/>
<polygon fill="#63b8ff" stroke="#63b8ff" points="629.19,-149.38 638.64,-144.59 628.27,-142.44 629.19,-149.38"/>
</a>
</g>
</g>
<!-- Node7 -->
<g id="Node000007" class="node">
<title>Node7</title>
<g id="a_Node000007"><a xlink:href="cosmo_8c.html#a27427d60987e3e074ad1d7215080dc69" target="_top" xlink:title=" ">
<polygon fill="white" stroke="#666666" points="603,-93 478,-93 478,-74 603,-74 603,-93"/>
<text text-anchor="middle" x="540.5" y="-81" font-family="Helvetica,sans-Serif" font-size="10.00">PowerSpec_Efstathiou</text>
</a>
</g>
</g>
<!-- Node6&#45;&gt;Node7 -->
<g id="edge6_Node000006_Node000007" class="edge">
<title>Node6&#45;&gt;Node7</title>
<g id="a_edge6_Node000006_Node000007"><a xlink:title=" ">
<path fill="none" stroke="#63b8ff" d="M440.38,-83.5C449.09,-83.5 458.4,-83.5 467.69,-83.5"/>
<polygon fill="#63b8ff" stroke="#63b8ff" points="467.74,-87 477.74,-83.5 467.74,-80 467.74,-87"/>
</a>
</g>
</g>
<!-- Node8 -->
<g id="Node000008" class="node">
<title>Node8</title>
<g id="a_Node000008"><a xlink:href="cosmo_8c.html#a4b4d5c5ca327f59df1eba21a73e62113" target="_top" xlink:title=" ">
<polygon fill="white" stroke="#666666" points="585,-56 496,-56 496,-37 585,-37 585,-56"/>
<text text-anchor="middle" x="540.5" y="-44" font-family="Helvetica,sans-Serif" font-size="10.00">PowerSpec_EH</text>
</a>
</g>
</g>
<!-- Node6&#45;&gt;Node8 -->
<g id="edge7_Node000006_Node000008" class="edge">
<title>Node6&#45;&gt;Node8</title>
<g id="a_edge7_Node000006_Node000008"><a xlink:title=" ">
<path fill="none" stroke="#63b8ff" d="M431.84,-73.97C450.21,-69.29 472.54,-63.59 492.1,-58.6"/>
<polygon fill="#63b8ff" stroke="#63b8ff" points="493.21,-61.92 502.03,-56.06 491.48,-55.14 493.21,-61.92"/>
</a>
</g>
</g>
<!-- Node11 -->
<g id="Node000011" class="node">
<title>Node11</title>
<g id="a_Node000011"><a xlink:href="cosmo_8c.html#a6d04017af6090db607768f47976b88b8" target="_top" xlink:title=" ">
<polygon fill="white" stroke="#666666" points="603,-19 478,-19 478,0 603,0 603,-19"/>
<text text-anchor="middle" x="540.5" y="-7" font-family="Helvetica,sans-Serif" font-size="10.00">PowerSpec_PowerLaw</text>
</a>
</g>
</g>
<!-- Node6&#45;&gt;Node11 -->
<g id="edge10_Node000006_Node000011" class="edge">
<title>Node6&#45;&gt;Node11</title>
<g id="a_edge10_Node000006_Node000011"><a xlink:title=" ">
<path fill="none" stroke="#63b8ff" d="M425.61,-73.96C431.28,-71.6 436.99,-68.79 442,-65.5 461.18,-52.91 458.43,-40.48 478,-28.5 481.39,-26.43 485.02,-24.56 488.76,-22.89"/>
<polygon fill="#63b8ff" stroke="#63b8ff" points="490.24,-26.07 498.23,-19.11 487.64,-19.57 490.24,-26.07"/>
</a>
</g>
</g>
<!-- Node12 -->
<g id="Node000012" class="node">
<title>Node12</title>
<g id="a_Node000012"><a xlink:href="cosmo_8c.html#a428d6d001b5eb57f3f17d85699dd67f5" target="_top" xlink:title=" ">
<polygon fill="white" stroke="#666666" points="601.5,-130 479.5,-130 479.5,-111 601.5,-111 601.5,-130"/>
<text text-anchor="middle" x="540.5" y="-118" font-family="Helvetica,sans-Serif" font-size="10.00">PowerSpec_Tabulated</text>
</a>
</g>
</g>
<!-- Node6&#45;&gt;Node12 -->
<g id="edge11_Node000006_Node000012" class="edge">
<title>Node6&#45;&gt;Node12</title>
<g id="a_edge11_Node000006_Node000012"><a xlink:title=" ">
<path fill="none" stroke="#63b8ff" d="M431.84,-93.03C450.21,-97.71 472.54,-103.41 492.1,-108.4"/>
<polygon fill="#63b8ff" stroke="#63b8ff" points="491.48,-111.86 502.03,-110.94 493.21,-105.08 491.48,-111.86"/>
</a>
</g>
</g>
<!-- Node9 -->
<g id="Node000009" class="node">
<title>Node9</title>
<g id="a_Node000009"><a xlink:href="cosmo_8c.html#a5c6dbdd7fd7c206feb0554bc93b2436c" target="_top" xlink:title=" ">
<polygon fill="white" stroke="#666666" points="717.5,-56 653.5,-56 653.5,-37 717.5,-37 717.5,-56"/>
<text text-anchor="middle" x="685.5" y="-44" font-family="Helvetica,sans-Serif" font-size="10.00">transf_EH</text>
</a>
</g>
</g>
<!-- Node8&#45;&gt;Node9 -->
<g id="edge8_Node000008_Node000009" class="edge">
<title>Node8&#45;&gt;Node9</title>
<g id="a_edge8_Node000008_Node000009"><a xlink:title=" ">
<path fill="none" stroke="#63b8ff" d="M585.18,-46.5C603.67,-46.5 625.1,-46.5 643.3,-46.5"/>
<polygon fill="#63b8ff" stroke="#63b8ff" points="643.33,-50 653.33,-46.5 643.33,-43 643.33,-50"/>
</a>
</g>
</g>
<!-- Node10 -->
<g id="Node000010" class="node">
<title>Node10</title>
<g id="a_Node000010"><a xlink:href="cosmo_8c.html#a57dfb02fcd17e35fad40c836ba4d4160" target="_top" xlink:title=" ">
<polygon fill="white" stroke="#666666" points="797,-56 768,-56 768,-37 797,-37 797,-56"/>
<text text-anchor="middle" x="782.5" y="-44" font-family="Helvetica,sans-Serif" font-size="10.00">T0</text>
</a>
</g>
</g>
<!-- Node9&#45;&gt;Node10 -->
<g id="edge9_Node000009_Node000010" class="edge">
<title>Node9&#45;&gt;Node10</title>
<g id="a_edge9_Node000009_Node000010"><a xlink:title=" ">
<path fill="none" stroke="#63b8ff" d="M717.61,-46.5C730.53,-46.5 745.31,-46.5 757.39,-46.5"/>
<polygon fill="#63b8ff" stroke="#63b8ff" points="757.6,-50 767.6,-46.5 757.6,-43 757.6,-50"/>
</a>
</g>
</g>
<!-- Node12&#45;&gt;Node5 -->
<g id="edge12_Node000012_Node000005" class="edge">
<title>Node12&#45;&gt;Node5</title>
<g id="a_edge12_Node000012_Node000005"><a xlink:title=" ">
<path fill="none" stroke="#63b8ff" d="M601.73,-128.08C610.62,-129.2 619.74,-130.35 628.54,-131.46"/>
<polygon fill="#63b8ff" stroke="#63b8ff" points="628.32,-134.96 638.68,-132.73 629.2,-128.01 628.32,-134.96"/>
</a>
</g>
</g>
</g>
</svg>
