<?xml version="1.0" encoding="UTF-8" standalone="no"?>
<!DOCTYPE svg PUBLIC "-//W3C//DTD SVG 1.1//EN"
 "http://www.w3.org/Graphics/SVG/1.1/DTD/svg11.dtd">
<!-- Generated by graphviz version 2.43.0 (0)
 -->
<!-- Title: PowerSpectrum Pages: 1 -->
<svg width="456pt" height="138pt"
 viewBox="0.00 0.00 456.00 138.00" xmlns="http://www.w3.org/2000/svg" xmlns:xlink="http://www.w3.org/1999/xlink">
<g id="graph0" class="graph" transform="scale(1 1) rotate(0) translate(4 134)">
<title>PowerSpectrum</title>
<!-- Node1 -->
<g id="Node000001" class="node">
<title>Node1</title>
<g id="a_Node000001"><a xlink:title=" ">
<polygon fill="#999999" stroke="#666666" points="93,-74 0,-74 0,-55 93,-55 93,-74"/>
<text text-anchor="middle" x="46.5" y="-62" font-family="Helvetica,sans-Serif" font-size="10.00">PowerSpectrum</text>
</a>
</g>
</g>
<!-- Node2 -->
<g id="Node000002" class="node">
<title>Node2</title>
<g id="a_Node000002"><a xlink:href="cosmo_8c.html#a27427d60987e3e074ad1d7215080dc69" target="_top" xlink:title=" ">
<polygon fill="white" stroke="#666666" points="254,-130 129,-130 129,-111 254,-111 254,-130"/>
<text text-anchor="middle" x="191.5" y="-118" font-family="Helvetica,sans-Serif" font-size="10.00">PowerSpec_Efstathiou</text>
</a>
</g>
</g>
<!-- Node1&#45;&gt;Node2 -->
<g id="edge1_Node000001_Node000002" class="edge">
<title>Node1&#45;&gt;Node2</title>
<g id="a_edge1_Node000001_Node000002"><a xlink:title=" ">
<path fill="none" stroke="#63b8ff" d="M65.93,-74.07C82.23,-82.3 106.8,-94.13 129,-102.5 134.07,-104.41 139.45,-106.25 144.82,-107.97"/>
<polygon fill="#63b8ff" stroke="#63b8ff" points="143.84,-111.33 154.43,-110.93 145.9,-104.64 143.84,-111.33"/>
</a>
</g>
</g>
<!-- Node3 -->
<g id="Node000003" class="node">
<title>Node3</title>
<g id="a_Node000003"><a xlink:href="cosmo_8c.html#a4b4d5c5ca327f59df1eba21a73e62113" target="_top" xlink:title=" ">
<polygon fill="white" stroke="#666666" points="236,-93 147,-93 147,-74 236,-74 236,-93"/>
<text text-anchor="middle" x="191.5" y="-81" font-family="Helvetica,sans-Serif" font-size="10.00">PowerSpec_EH</text>
</a>
</g>
</g>
<!-- Node1&#45;&gt;Node3 -->
<g id="edge2_Node000001_Node000003" class="edge">
<title>Node1&#45;&gt;Node3</title>
<g id="a_edge2_Node000001_Node000003"><a xlink:title=" ">
<path fill="none" stroke="#63b8ff" d="M93.14,-70.56C106.95,-72.4 122.25,-74.43 136.55,-76.33"/>
<polygon fill="#63b8ff" stroke="#63b8ff" points="136.38,-79.84 146.76,-77.69 137.3,-72.9 136.38,-79.84"/>
</a>
</g>
</g>
<!-- Node6 -->
<g id="Node000006" class="node">
<title>Node6</title>
<g id="a_Node000006"><a xlink:href="cosmo_8c.html#a6d04017af6090db607768f47976b88b8" target="_top" xlink:title=" ">
<polygon fill="white" stroke="#666666" points="254,-56 129,-56 129,-37 254,-37 254,-56"/>
<text text-anchor="middle" x="191.5" y="-44" font-family="Helvetica,sans-Serif" font-size="10.00">PowerSpec_PowerLaw</text>
</a>
</g>
</g>
<!-- Node1&#45;&gt;Node6 -->
<g id="edge5_Node000001_Node000006" class="edge">
<title>Node1&#45;&gt;Node6</title>
<g id="a_edge5_Node000001_Node000006"><a xlink:title=" ">
<path fill="none" stroke="#63b8ff" d="M93.14,-58.76C101.31,-57.73 109.99,-56.63 118.68,-55.54"/>
<polygon fill="#63b8ff" stroke="#63b8ff" points="119.38,-58.98 128.86,-54.26 118.5,-52.04 119.38,-58.98"/>
</a>
</g>
</g>
<!-- Node7 -->
<g id="Node000007" class="node">
<title>Node7</title>
<g id="a_Node000007"><a xlink:href="cosmo_8c.html#a428d6d001b5eb57f3f17d85699dd67f5" target="_top" xlink:title=" ">
<polygon fill="white" stroke="#666666" points="252.5,-19 130.5,-19 130.5,0 252.5,0 252.5,-19"/>
<text text-anchor="middle" x="191.5" y="-7" font-family="Helvetica,sans-Serif" font-size="10.00">PowerSpec_Tabulated</text>
</a>
</g>
</g>
<!-- Node1&#45;&gt;Node7 -->
<g id="edge6_Node000001_Node000007" class="edge">
<title>Node1&#45;&gt;Node7</title>
<g id="a_edge6_Node000001_Node000007"><a xlink:title=" ">
<path fill="none" stroke="#63b8ff" d="M66.61,-54.89C82.92,-46.92 107.15,-35.61 129,-27.5 134.15,-25.59 139.6,-23.74 145.05,-22.01"/>
<polygon fill="#63b8ff" stroke="#63b8ff" points="146.24,-25.31 154.77,-19.03 144.18,-18.62 146.24,-25.31"/>
</a>
</g>
</g>
<!-- Node4 -->
<g id="Node000004" class="node">
<title>Node4</title>
<g id="a_Node000004"><a xlink:href="cosmo_8c.html#a5c6dbdd7fd7c206feb0554bc93b2436c" target="_top" xlink:title=" ">
<polygon fill="white" stroke="#666666" points="368.5,-93 304.5,-93 304.5,-74 368.5,-74 368.5,-93"/>
<text text-anchor="middle" x="336.5" y="-81" font-family="Helvetica,sans-Serif" font-size="10.00">transf_EH</text>
</a>
</g>
</g>
<!-- Node3&#45;&gt;Node4 -->
<g id="edge3_Node000003_Node000004" class="edge">
<title>Node3&#45;&gt;Node4</title>
<g id="a_edge3_Node000003_Node000004"><a xlink:title=" ">
<path fill="none" stroke="#63b8ff" d="M236.18,-83.5C254.67,-83.5 276.1,-83.5 294.3,-83.5"/>
<polygon fill="#63b8ff" stroke="#63b8ff" points="294.33,-87 304.33,-83.5 294.33,-80 294.33,-87"/>
</a>
</g>
</g>
<!-- Node5 -->
<g id="Node000005" class="node">
<title>Node5</title>
<g id="a_Node000005"><a xlink:href="cosmo_8c.html#a57dfb02fcd17e35fad40c836ba4d4160" target="_top" xlink:title=" ">
<polygon fill="white" stroke="#666666" points="448,-93 419,-93 419,-74 448,-74 448,-93"/>
<text text-anchor="middle" x="433.5" y="-81" font-family="Helvetica,sans-Serif" font-size="10.00">T0</text>
</a>
</g>
</g>
<!-- Node4&#45;&gt;Node5 -->
<g id="edge4_Node000004_Node000005" class="edge">
<title>Node4&#45;&gt;Node5</title>
<g id="a_edge4_Node000004_Node000005"><a xlink:title=" ">
<path fill="none" stroke="#63b8ff" d="M368.61,-83.5C381.53,-83.5 396.31,-83.5 408.39,-83.5"/>
<polygon fill="#63b8ff" stroke="#63b8ff" points="408.6,-87 418.6,-83.5 408.6,-80 408.6,-87"/>
</a>
</g>
</g>
<!-- Node8 -->
<g id="Node000008" class="node">
<title>Node8</title>
<g id="a_Node000008"><a xlink:href="cosmo_8c.html#a6341f5394ed17a00dc77c5519b292ae3" target="_top" xlink:title=" ">
<polygon fill="white" stroke="#666666" points="383,-19 290,-19 290,0 383,0 383,-19"/>
<text text-anchor="middle" x="336.5" y="-7" font-family="Helvetica,sans-Serif" font-size="10.00">my_spline_eval</text>
</a>
</g>
</g>
<!-- Node7&#45;&gt;Node8 -->
<g id="edge7_Node000007_Node000008" class="edge">
<title>Node7&#45;&gt;Node8</title>
<g id="a_edge7_Node000007_Node000008"><a xlink:title=" ">
<path fill="none" stroke="#63b8ff" d="M252.73,-9.5C261.62,-9.5 270.74,-9.5 279.54,-9.5"/>
<polygon fill="#63b8ff" stroke="#63b8ff" points="279.68,-13 289.68,-9.5 279.68,-6 279.68,-13"/>
</a>
</g>
</g>
</g>
</svg>
