<?xml version="1.0" encoding="UTF-8" standalone="no"?>
<!DOCTYPE svg PUBLIC "-//W3C//DTD SVG 1.1//EN"
 "http://www.w3.org/Graphics/SVG/1.1/DTD/svg11.dtd">
<!-- Generated by graphviz version 2.43.0 (0)
 -->
<!-- Title: initialize_MassVariance Pages: 1 -->
<svg width="973pt" height="175pt"
 viewBox="0.00 0.00 973.00 175.00" xmlns="http://www.w3.org/2000/svg" xmlns:xlink="http://www.w3.org/1999/xlink">
<g id="graph0" class="graph" transform="scale(1 1) rotate(0) translate(4 171)">
<title>initialize_MassVariance</title>
<!-- Node1 -->
<g id="Node000001" class="node">
<title>Node1</title>
<g id="a_Node000001"><a xlink:title=" ">
<polygon fill="#999999" stroke="#666666" points="131,-92 0,-92 0,-73 131,-73 131,-92"/>
<text text-anchor="middle" x="65.5" y="-80" font-family="Helvetica,sans-Serif" font-size="10.00">initialize_MassVariance</text>
</a>
</g>
</g>
<!-- Node2 -->
<g id="Node000002" class="node">
<title>Node2</title>
<g id="a_Node000002"><a xlink:href="cosmo_8c.html#a19951793de40040dd4581e4f62dc70ed" target="_top" xlink:title=" ">
<polygon fill="white" stroke="#666666" points="295,-111 167,-111 167,-92 295,-92 295,-111"/>
<text text-anchor="middle" x="231" y="-99" font-family="Helvetica,sans-Serif" font-size="10.00">ComputeDisplVariance</text>
</a>
</g>
</g>
<!-- Node1&#45;&gt;Node2 -->
<g id="edge1_Node000001_Node000002" class="edge">
<title>Node1&#45;&gt;Node2</title>
<g id="a_edge1_Node000001_Node000002"><a xlink:title=" ">
<path fill="none" stroke="#63b8ff" d="M131.12,-90.01C139.59,-90.99 148.31,-92.01 156.91,-93.01"/>
<polygon fill="#63b8ff" stroke="#63b8ff" points="156.58,-96.49 166.92,-94.17 157.39,-89.54 156.58,-96.49"/>
</a>
</g>
</g>
<!-- Node15 -->
<g id="Node000015" class="node">
<title>Node15</title>
<g id="a_Node000015"><a xlink:href="cosmo_8c.html#ab20739d74ee8f4246073637e01d6a305" target="_top" xlink:title=" ">
<polygon fill="white" stroke="#666666" points="295,-74 167,-74 167,-55 295,-55 295,-74"/>
<text text-anchor="middle" x="231" y="-62" font-family="Helvetica,sans-Serif" font-size="10.00">ComputeMassVariance</text>
</a>
</g>
</g>
<!-- Node1&#45;&gt;Node15 -->
<g id="edge15_Node000001_Node000015" class="edge">
<title>Node1&#45;&gt;Node15</title>
<g id="a_edge15_Node000001_Node000015"><a xlink:title=" ">
<path fill="none" stroke="#63b8ff" d="M131.12,-75.39C139.59,-74.45 148.31,-73.49 156.91,-72.55"/>
<polygon fill="#63b8ff" stroke="#63b8ff" points="157.36,-76.02 166.92,-71.44 156.6,-69.06 157.36,-76.02"/>
</a>
</g>
</g>
<!-- Node3 -->
<g id="Node000003" class="node">
<title>Node3</title>
<g id="a_Node000003"><a xlink:href="cosmo_8c.html#ac6c0324ea8a0998e51c2ed54864ef24c" target="_top" xlink:title=" ">
<polygon fill="white" stroke="#666666" points="476.5,-111 331.5,-111 331.5,-92 476.5,-92 476.5,-111"/>
<text text-anchor="middle" x="404" y="-99" font-family="Helvetica,sans-Serif" font-size="10.00">IntegrandForDisplVariance</text>
</a>
</g>
</g>
<!-- Node2&#45;&gt;Node3 -->
<g id="edge2_Node000002_Node000003" class="edge">
<title>Node2&#45;&gt;Node3</title>
<g id="a_edge2_Node000002_Node000003"><a xlink:title=" ">
<path fill="none" stroke="#63b8ff" d="M295.19,-101.5C303.67,-101.5 312.46,-101.5 321.2,-101.5"/>
<polygon fill="#63b8ff" stroke="#63b8ff" points="321.42,-105 331.42,-101.5 321.42,-98 321.42,-105"/>
</a>
</g>
</g>
<!-- Node4 -->
<g id="Node000004" class="node">
<title>Node4</title>
<g id="a_Node000004"><a xlink:href="cosmo_8c.html#a9fbcf5b69c272e801cf320cf814b23c4" target="_top" xlink:title=" ">
<polygon fill="white" stroke="#666666" points="603.5,-130 519.5,-130 519.5,-111 603.5,-111 603.5,-130"/>
<text text-anchor="middle" x="561.5" y="-118" font-family="Helvetica,sans-Serif" font-size="10.00">GrowingMode</text>
</a>
</g>
</g>
<!-- Node3&#45;&gt;Node4 -->
<g id="edge3_Node000003_Node000004" class="edge">
<title>Node3&#45;&gt;Node4</title>
<g id="a_edge3_Node000003_Node000004"><a xlink:title=" ">
<path fill="none" stroke="#63b8ff" d="M476.83,-110.28C487.7,-111.6 498.71,-112.95 509.03,-114.21"/>
<polygon fill="#63b8ff" stroke="#63b8ff" points="508.73,-117.7 519.08,-115.44 509.58,-110.75 508.73,-117.7"/>
</a>
</g>
</g>
<!-- Node7 -->
<g id="Node000007" class="node">
<title>Node7</title>
<g id="a_Node000007"><a xlink:href="cosmo_8c.html#adb3827724e24c320717073266dbfac4c" target="_top" xlink:title=" ">
<polygon fill="white" stroke="#666666" points="608,-93 515,-93 515,-74 608,-74 608,-93"/>
<text text-anchor="middle" x="561.5" y="-81" font-family="Helvetica,sans-Serif" font-size="10.00">PowerSpectrum</text>
</a>
</g>
</g>
<!-- Node3&#45;&gt;Node7 -->
<g id="edge6_Node000003_Node000007" class="edge">
<title>Node3&#45;&gt;Node7</title>
<g id="a_edge6_Node000003_Node000007"><a xlink:title=" ">
<path fill="none" stroke="#63b8ff" d="M476.83,-93.18C486.2,-92.1 495.68,-91 504.73,-89.96"/>
<polygon fill="#63b8ff" stroke="#63b8ff" points="505.2,-93.42 514.73,-88.8 504.4,-86.47 505.2,-93.42"/>
</a>
</g>
</g>
<!-- Node14 -->
<g id="Node000014" class="node">
<title>Node14</title>
<g id="a_Node000014"><a xlink:href="cosmo_8c.html#a9817ba0d254db24f71f8d7ab242b4fba" target="_top" xlink:title=" ">
<polygon fill="white" stroke="#666666" points="610,-56 513,-56 513,-37 610,-37 610,-56"/>
<text text-anchor="middle" x="561.5" y="-44" font-family="Helvetica,sans-Serif" font-size="10.00">WindowFunction</text>
</a>
</g>
</g>
<!-- Node3&#45;&gt;Node14 -->
<g id="edge14_Node000003_Node000014" class="edge">
<title>Node3&#45;&gt;Node14</title>
<g id="a_edge14_Node000003_Node000014"><a xlink:title=" ">
<path fill="none" stroke="#63b8ff" d="M449.63,-91.96C458.8,-89.55 468.3,-86.72 477,-83.5 493.78,-77.29 496.68,-72.83 513,-65.5 517.12,-63.65 521.48,-61.78 525.82,-59.98"/>
<polygon fill="#63b8ff" stroke="#63b8ff" points="527.25,-63.18 535.19,-56.17 524.61,-56.7 527.25,-63.18"/>
</a>
</g>
</g>
<!-- Node5 -->
<g id="Node000005" class="node">
<title>Node5</title>
<g id="a_Node000005"><a xlink:href="cosmo_8c.html#a8847e5b8ea1f9c458c8bf9e5f36837a9" target="_top" xlink:title=" ">
<polygon fill="white" stroke="#666666" points="761,-167 656,-167 656,-148 761,-148 761,-167"/>
<text text-anchor="middle" x="708.5" y="-155" font-family="Helvetica,sans-Serif" font-size="10.00">InterpolateGrowth</text>
</a>
</g>
</g>
<!-- Node4&#45;&gt;Node5 -->
<g id="edge4_Node000004_Node000005" class="edge">
<title>Node4&#45;&gt;Node5</title>
<g id="a_edge4_Node000004_Node000005"><a xlink:title=" ">
<path fill="none" stroke="#63b8ff" d="M599.84,-130.03C618.21,-134.71 640.54,-140.41 660.1,-145.4"/>
<polygon fill="#63b8ff" stroke="#63b8ff" points="659.48,-148.86 670.03,-147.94 661.21,-142.08 659.48,-148.86"/>
</a>
</g>
</g>
<!-- Node6 -->
<g id="Node000006" class="node">
<title>Node6</title>
<g id="a_Node000006"><a xlink:href="cosmo_8c.html#a6341f5394ed17a00dc77c5519b292ae3" target="_top" xlink:title=" ">
<polygon fill="white" stroke="#666666" points="900,-130 807,-130 807,-111 900,-111 900,-130"/>
<text text-anchor="middle" x="853.5" y="-118" font-family="Helvetica,sans-Serif" font-size="10.00">my_spline_eval</text>
</a>
</g>
</g>
<!-- Node5&#45;&gt;Node6 -->
<g id="edge5_Node000005_Node000006" class="edge">
<title>Node5&#45;&gt;Node6</title>
<g id="a_edge5_Node000005_Node000006"><a xlink:title=" ">
<path fill="none" stroke="#63b8ff" d="M746.33,-147.97C764.37,-143.3 786.29,-137.63 805.52,-132.65"/>
<polygon fill="#63b8ff" stroke="#63b8ff" points="806.5,-136.02 815.3,-130.12 804.74,-129.24 806.5,-136.02"/>
</a>
</g>
</g>
<!-- Node8 -->
<g id="Node000008" class="node">
<title>Node8</title>
<g id="a_Node000008"><a xlink:href="cosmo_8c.html#a27427d60987e3e074ad1d7215080dc69" target="_top" xlink:title=" ">
<polygon fill="white" stroke="#666666" points="771,-56 646,-56 646,-37 771,-37 771,-56"/>
<text text-anchor="middle" x="708.5" y="-44" font-family="Helvetica,sans-Serif" font-size="10.00">PowerSpec_Efstathiou</text>
</a>
</g>
</g>
<!-- Node7&#45;&gt;Node8 -->
<g id="edge7_Node000007_Node000008" class="edge">
<title>Node7&#45;&gt;Node8</title>
<g id="a_edge7_Node000007_Node000008"><a xlink:title=" ">
<path fill="none" stroke="#63b8ff" d="M599.84,-73.97C618.21,-69.29 640.54,-63.59 660.1,-58.6"/>
<polygon fill="#63b8ff" stroke="#63b8ff" points="661.21,-61.92 670.03,-56.06 659.48,-55.14 661.21,-61.92"/>
</a>
</g>
</g>
<!-- Node9 -->
<g id="Node000009" class="node">
<title>Node9</title>
<g id="a_Node000009"><a xlink:href="cosmo_8c.html#a4b4d5c5ca327f59df1eba21a73e62113" target="_top" xlink:title=" ">
<polygon fill="white" stroke="#666666" points="753,-19 664,-19 664,0 753,0 753,-19"/>
<text text-anchor="middle" x="708.5" y="-7" font-family="Helvetica,sans-Serif" font-size="10.00">PowerSpec_EH</text>
</a>
</g>
</g>
<!-- Node7&#45;&gt;Node9 -->
<g id="edge8_Node000007_Node000009" class="edge">
<title>Node7&#45;&gt;Node9</title>
<g id="a_edge8_Node000007_Node000009"><a xlink:title=" ">
<path fill="none" stroke="#63b8ff" d="M593.9,-73.91C599.48,-71.57 605.08,-68.77 610,-65.5 629.37,-52.61 626.15,-39.63 646,-27.5 648.67,-25.87 651.49,-24.38 654.4,-23.02"/>
<polygon fill="#63b8ff" stroke="#63b8ff" points="656,-26.15 663.92,-19.11 653.34,-19.67 656,-26.15"/>
</a>
</g>
</g>
<!-- Node12 -->
<g id="Node000012" class="node">
<title>Node12</title>
<g id="a_Node000012"><a xlink:href="cosmo_8c.html#a6d04017af6090db607768f47976b88b8" target="_top" xlink:title=" ">
<polygon fill="white" stroke="#666666" points="771,-130 646,-130 646,-111 771,-111 771,-130"/>
<text text-anchor="middle" x="708.5" y="-118" font-family="Helvetica,sans-Serif" font-size="10.00">PowerSpec_PowerLaw</text>
</a>
</g>
</g>
<!-- Node7&#45;&gt;Node12 -->
<g id="edge11_Node000007_Node000012" class="edge">
<title>Node7&#45;&gt;Node12</title>
<g id="a_edge11_Node000007_Node000012"><a xlink:title=" ">
<path fill="none" stroke="#63b8ff" d="M599.84,-93.03C618.21,-97.71 640.54,-103.41 660.1,-108.4"/>
<polygon fill="#63b8ff" stroke="#63b8ff" points="659.48,-111.86 670.03,-110.94 661.21,-105.08 659.48,-111.86"/>
</a>
</g>
</g>
<!-- Node13 -->
<g id="Node000013" class="node">
<title>Node13</title>
<g id="a_Node000013"><a xlink:href="cosmo_8c.html#a428d6d001b5eb57f3f17d85699dd67f5" target="_top" xlink:title=" ">
<polygon fill="white" stroke="#666666" points="769.5,-93 647.5,-93 647.5,-74 769.5,-74 769.5,-93"/>
<text text-anchor="middle" x="708.5" y="-81" font-family="Helvetica,sans-Serif" font-size="10.00">PowerSpec_Tabulated</text>
</a>
</g>
</g>
<!-- Node7&#45;&gt;Node13 -->
<g id="edge12_Node000007_Node000013" class="edge">
<title>Node7&#45;&gt;Node13</title>
<g id="a_edge12_Node000007_Node000013"><a xlink:title=" ">
<path fill="none" stroke="#63b8ff" d="M608.38,-83.5C617.55,-83.5 627.39,-83.5 637.17,-83.5"/>
<polygon fill="#63b8ff" stroke="#63b8ff" points="637.32,-87 647.32,-83.5 637.32,-80 637.32,-87"/>
</a>
</g>
</g>
<!-- Node10 -->
<g id="Node000010" class="node">
<title>Node10</title>
<g id="a_Node000010"><a xlink:href="cosmo_8c.html#a5c6dbdd7fd7c206feb0554bc93b2436c" target="_top" xlink:title=" ">
<polygon fill="white" stroke="#666666" points="885.5,-19 821.5,-19 821.5,0 885.5,0 885.5,-19"/>
<text text-anchor="middle" x="853.5" y="-7" font-family="Helvetica,sans-Serif" font-size="10.00">transf_EH</text>
</a>
</g>
</g>
<!-- Node9&#45;&gt;Node10 -->
<g id="edge9_Node000009_Node000010" class="edge">
<title>Node9&#45;&gt;Node10</title>
<g id="a_edge9_Node000009_Node000010"><a xlink:title=" ">
<path fill="none" stroke="#63b8ff" d="M753.18,-9.5C771.67,-9.5 793.1,-9.5 811.3,-9.5"/>
<polygon fill="#63b8ff" stroke="#63b8ff" points="811.33,-13 821.33,-9.5 811.33,-6 811.33,-13"/>
</a>
</g>
</g>
<!-- Node11 -->
<g id="Node000011" class="node">
<title>Node11</title>
<g id="a_Node000011"><a xlink:href="cosmo_8c.html#a57dfb02fcd17e35fad40c836ba4d4160" target="_top" xlink:title=" ">
<polygon fill="white" stroke="#666666" points="965,-19 936,-19 936,0 965,0 965,-19"/>
<text text-anchor="middle" x="950.5" y="-7" font-family="Helvetica,sans-Serif" font-size="10.00">T0</text>
</a>
</g>
</g>
<!-- Node10&#45;&gt;Node11 -->
<g id="edge10_Node000010_Node000011" class="edge">
<title>Node10&#45;&gt;Node11</title>
<g id="a_edge10_Node000010_Node000011"><a xlink:title=" ">
<path fill="none" stroke="#63b8ff" d="M885.61,-9.5C898.53,-9.5 913.31,-9.5 925.39,-9.5"/>
<polygon fill="#63b8ff" stroke="#63b8ff" points="925.6,-13 935.6,-9.5 925.6,-6 925.6,-13"/>
</a>
</g>
</g>
<!-- Node13&#45;&gt;Node6 -->
<g id="edge13_Node000013_Node000006" class="edge">
<title>Node13&#45;&gt;Node6</title>
<g id="a_edge13_Node000013_Node000006"><a xlink:title=" ">
<path fill="none" stroke="#63b8ff" d="M746.33,-93.03C764.37,-97.7 786.29,-103.37 805.52,-108.35"/>
<polygon fill="#63b8ff" stroke="#63b8ff" points="804.74,-111.76 815.3,-110.88 806.5,-104.98 804.74,-111.76"/>
</a>
</g>
</g>
<!-- Node16 -->
<g id="Node000016" class="node">
<title>Node16</title>
<g id="a_Node000016"><a xlink:href="cosmo_8c.html#acc3f98f9efcc34eeb5447d1bf317dbe8" target="_top" xlink:title=" ">
<polygon fill="white" stroke="#666666" points="477,-74 331,-74 331,-55 477,-55 477,-74"/>
<text text-anchor="middle" x="404" y="-62" font-family="Helvetica,sans-Serif" font-size="10.00">IntegrandForMassVariance</text>
</a>
</g>
</g>
<!-- Node15&#45;&gt;Node16 -->
<g id="edge16_Node000015_Node000016" class="edge">
<title>Node15&#45;&gt;Node16</title>
<g id="a_edge16_Node000015_Node000016"><a xlink:title=" ">
<path fill="none" stroke="#63b8ff" d="M295.19,-64.5C303.53,-64.5 312.18,-64.5 320.78,-64.5"/>
<polygon fill="#63b8ff" stroke="#63b8ff" points="320.84,-68 330.84,-64.5 320.84,-61 320.84,-68"/>
</a>
</g>
</g>
<!-- Node16&#45;&gt;Node4 -->
<g id="edge17_Node000016_Node000004" class="edge">
<title>Node16&#45;&gt;Node4</title>
<g id="a_edge17_Node000016_Node000004"><a xlink:title=" ">
<path fill="none" stroke="#63b8ff" d="M447.77,-74.07C457.52,-76.72 467.73,-79.88 477,-83.5 493.86,-90.07 496.51,-95.06 513,-102.5 516.6,-104.13 520.4,-105.74 524.22,-107.28"/>
<polygon fill="#63b8ff" stroke="#63b8ff" points="523.05,-110.58 533.63,-110.98 525.6,-104.07 523.05,-110.58"/>
</a>
</g>
</g>
<!-- Node16&#45;&gt;Node7 -->
<g id="edge18_Node000016_Node000007" class="edge">
<title>Node16&#45;&gt;Node7</title>
<g id="a_edge18_Node000016_Node000007"><a xlink:title=" ">
<path fill="none" stroke="#63b8ff" d="M477.29,-73.33C486.41,-74.45 495.63,-75.57 504.45,-76.65"/>
<polygon fill="#63b8ff" stroke="#63b8ff" points="504.23,-80.15 514.58,-77.89 505.08,-73.2 504.23,-80.15"/>
</a>
</g>
</g>
<!-- Node16&#45;&gt;Node14 -->
<g id="edge19_Node000016_Node000014" class="edge">
<title>Node16&#45;&gt;Node14</title>
<g id="a_edge19_Node000016_Node000014"><a xlink:title=" ">
<path fill="none" stroke="#63b8ff" d="M477.29,-56.13C485.86,-55.14 494.52,-54.14 502.85,-53.17"/>
<polygon fill="#63b8ff" stroke="#63b8ff" points="503.28,-56.65 512.81,-52.02 502.48,-49.69 503.28,-56.65"/>
</a>
</g>
</g>
</g>
</svg>
