<?xml version="1.0" encoding="UTF-8" standalone="no"?>
<!DOCTYPE svg PUBLIC "-//W3C//DTD SVG 1.1//EN"
 "http://www.w3.org/Graphics/SVG/1.1/DTD/svg11.dtd">
<!-- Generated by graphviz version 2.43.0 (0)
 -->
<!-- Title: system_of_ODEs_small Pages: 1 -->
<svg width="549pt" height="64pt"
 viewBox="0.00 0.00 549.00 64.00" xmlns="http://www.w3.org/2000/svg" xmlns:xlink="http://www.w3.org/1999/xlink">
<g id="graph0" class="graph" transform="scale(1 1) rotate(0) translate(4 60)">
<title>system_of_ODEs_small</title>
<!-- Node1 -->
<g id="Node000001" class="node">
<title>Node1</title>
<g id="a_Node000001"><a xlink:title=" ">
<polygon fill="#999999" stroke="#666666" points="131,-37 0,-37 0,-18 131,-18 131,-37"/>
<text text-anchor="middle" x="65.5" y="-25" font-family="Helvetica,sans-Serif" font-size="10.00">system_of_ODEs_small</text>
</a>
</g>
</g>
<!-- Node2 -->
<g id="Node000002" class="node">
<title>Node2</title>
<g id="a_Node000002"><a xlink:href="cosmo_8c.html#a445fb83b1fea3dc80e9d163d14e7591f" target="_top" xlink:title=" ">
<polygon fill="white" stroke="#666666" points="241,-37 167,-37 167,-18 241,-18 241,-37"/>
<text text-anchor="middle" x="204" y="-25" font-family="Helvetica,sans-Serif" font-size="10.00">Ez2_from_a</text>
</a>
</g>
</g>
<!-- Node1&#45;&gt;Node2 -->
<g id="edge1_Node000001_Node000002" class="edge">
<title>Node1&#45;&gt;Node2</title>
<g id="a_edge1_Node000001_Node000002"><a xlink:title=" ">
<path fill="none" stroke="#63b8ff" d="M131.15,-27.5C139.78,-27.5 148.48,-27.5 156.7,-27.5"/>
<polygon fill="#63b8ff" stroke="#63b8ff" points="156.83,-31 166.82,-27.5 156.82,-24 156.83,-31"/>
</a>
</g>
</g>
<!-- Node3 -->
<g id="Node000003" class="node">
<title>Node3</title>
<g id="a_Node000003"><a xlink:href="cosmo_8c.html#ac7fbe724feedc1cb5b0afe20117b5f8d" target="_top" xlink:title=" ">
<polygon fill="white" stroke="#666666" points="325,-56 277,-56 277,-37 325,-37 325,-56"/>
<text text-anchor="middle" x="301" y="-44" font-family="Helvetica,sans-Serif" font-size="10.00">a_to_z</text>
</a>
</g>
</g>
<!-- Node2&#45;&gt;Node3 -->
<g id="edge2_Node000002_Node000003" class="edge">
<title>Node2&#45;&gt;Node3</title>
<g id="a_edge2_Node000002_Node000003"><a xlink:title=" ">
<path fill="none" stroke="#63b8ff" d="M241.19,-34.74C249.59,-36.42 258.5,-38.2 266.77,-39.85"/>
<polygon fill="#63b8ff" stroke="#63b8ff" points="266.33,-43.34 276.82,-41.86 267.7,-36.47 266.33,-43.34"/>
</a>
</g>
</g>
<!-- Node4 -->
<g id="Node000004" class="node">
<title>Node4</title>
<g id="a_Node000004"><a xlink:href="cosmo_8c.html#a23ab46a1787abb61a8685d7c8f06cdd4" target="_top" xlink:title=" ">
<polygon fill="white" stroke="#666666" points="315.5,-19 286.5,-19 286.5,0 315.5,0 315.5,-19"/>
<text text-anchor="middle" x="301" y="-7" font-family="Helvetica,sans-Serif" font-size="10.00">Ez</text>
</a>
</g>
</g>
<!-- Node2&#45;&gt;Node4 -->
<g id="edge3_Node000002_Node000004" class="edge">
<title>Node2&#45;&gt;Node4</title>
<g id="a_edge3_Node000002_Node000004"><a xlink:title=" ">
<path fill="none" stroke="#63b8ff" d="M241.19,-20.64C252.86,-18.43 265.5,-16.04 276.07,-14.03"/>
<polygon fill="#63b8ff" stroke="#63b8ff" points="277.02,-17.42 286.19,-12.12 275.71,-10.54 277.02,-17.42"/>
</a>
</g>
</g>
<!-- Node5 -->
<g id="Node000005" class="node">
<title>Node5</title>
<g id="a_Node000005"><a xlink:href="cosmo_8c.html#a911e9ce363c4662ce531c65885519f7a" target="_top" xlink:title=" ">
<polygon fill="white" stroke="#666666" points="412,-19 361,-19 361,0 412,0 412,-19"/>
<text text-anchor="middle" x="386.5" y="-7" font-family="Helvetica,sans-Serif" font-size="10.00">Hubble</text>
</a>
</g>
</g>
<!-- Node4&#45;&gt;Node5 -->
<g id="edge4_Node000004_Node000005" class="edge">
<title>Node4&#45;&gt;Node5</title>
<g id="a_edge4_Node000004_Node000005"><a xlink:title=" ">
<path fill="none" stroke="#63b8ff" d="M315.79,-9.5C325.34,-9.5 338.51,-9.5 350.83,-9.5"/>
<polygon fill="#63b8ff" stroke="#63b8ff" points="350.88,-13 360.88,-9.5 350.88,-6 350.88,-13"/>
</a>
</g>
</g>
<!-- Node6 -->
<g id="Node000006" class="node">
<title>Node6</title>
<g id="a_Node000006"><a xlink:href="cosmo_8c.html#a6341f5394ed17a00dc77c5519b292ae3" target="_top" xlink:title=" ">
<polygon fill="white" stroke="#666666" points="541,-19 448,-19 448,0 541,0 541,-19"/>
<text text-anchor="middle" x="494.5" y="-7" font-family="Helvetica,sans-Serif" font-size="10.00">my_spline_eval</text>
</a>
</g>
</g>
<!-- Node5&#45;&gt;Node6 -->
<g id="edge5_Node000005_Node000006" class="edge">
<title>Node5&#45;&gt;Node6</title>
<g id="a_edge5_Node000005_Node000006"><a xlink:title=" ">
<path fill="none" stroke="#63b8ff" d="M412.08,-9.5C419.82,-9.5 428.69,-9.5 437.68,-9.5"/>
<polygon fill="#63b8ff" stroke="#63b8ff" points="437.82,-13 447.82,-9.5 437.82,-6 437.82,-13"/>
</a>
</g>
</g>
</g>
</svg>
