<?xml version="1.0" encoding="UTF-8" standalone="no"?>
<!DOCTYPE svg PUBLIC "-//W3C//DTD SVG 1.1//EN"
 "http://www.w3.org/Graphics/SVG/1.1/DTD/svg11.dtd">
<!-- Generated by graphviz version 2.43.0 (0)
 -->
<!-- Title: SizeForMass Pages: 1 -->
<svg width="884pt" height="133pt"
 viewBox="0.00 0.00 884.00 133.18" xmlns="http://www.w3.org/2000/svg" xmlns:xlink="http://www.w3.org/1999/xlink">
<g id="graph0" class="graph" transform="scale(1 1) rotate(0) translate(4 129.18)">
<title>SizeForMass</title>
<!-- Node1 -->
<g id="Node000001" class="node">
<title>Node1</title>
<g id="a_Node000001"><a xlink:title=" ">
<polygon fill="#999999" stroke="#666666" points="876,-68.18 799,-68.18 799,-49.18 876,-49.18 876,-68.18"/>
<text text-anchor="middle" x="837.5" y="-56.18" font-family="Helvetica,sans-Serif" font-size="10.00">SizeForMass</text>
</a>
</g>
</g>
<!-- Node2 -->
<g id="Node000002" class="node">
<title>Node2</title>
<g id="a_Node000002"><a xlink:href="cosmo_8c.html#a3e2faa009164fa657b79bf92bbfbb407" target="_top" xlink:title=" ">
<polygon fill="white" stroke="#666666" points="763,-68.18 640,-68.18 640,-49.18 763,-49.18 763,-68.18"/>
<text text-anchor="middle" x="701.5" y="-56.18" font-family="Helvetica,sans-Serif" font-size="10.00">AnalyticMassFunction</text>
</a>
</g>
</g>
<!-- Node1&#45;&gt;Node2 -->
<g id="edge1_Node000001_Node000002" class="edge">
<title>Node1&#45;&gt;Node2</title>
<g id="a_edge1_Node000001_Node000002"><a xlink:title=" ">
<path fill="none" stroke="#63b8ff" d="M788.65,-58.68C780.41,-58.68 771.75,-58.68 763.22,-58.68"/>
<polygon fill="#63b8ff" stroke="#63b8ff" points="788.82,-62.18 798.82,-58.68 788.82,-55.18 788.82,-62.18"/>
</a>
</g>
</g>
<!-- Node3 -->
<g id="Node000003" class="node">
<title>Node3</title>
<g id="a_Node000003"><a xlink:href="write__halos_8c.html#ab389015c0ee0675c3eff2f503405bde8" target="_top" xlink:title=" ">
<polygon fill="white" stroke="#666666" points="601.5,-106.18 523.5,-106.18 523.5,-87.18 601.5,-87.18 601.5,-106.18"/>
<text text-anchor="middle" x="562.5" y="-94.18" font-family="Helvetica,sans-Serif" font-size="10.00">compute_mf</text>
</a>
</g>
</g>
<!-- Node1&#45;&gt;Node3 -->
<g id="edge16_Node000001_Node000003" class="edge">
<title>Node1&#45;&gt;Node3</title>
<g id="a_edge16_Node000001_Node000003"><a xlink:title=" ">
<path fill="none" stroke="#63b8ff" d="M794.29,-70.81C784.11,-73.39 773.22,-75.88 763,-77.68 707.32,-87.46 641.94,-92.48 601.61,-94.84"/>
<polygon fill="#63b8ff" stroke="#63b8ff" points="795.39,-74.14 804.18,-68.21 793.62,-67.36 795.39,-74.14"/>
</a>
</g>
</g>
<!-- Node13 -->
<g id="Node000013" class="node">
<title>Node13</title>
<g id="a_Node000013"><a xlink:href="initialization_8c.html#abe8fa4db80318b7343e51fa9f70ab92f" target="_top" xlink:title=" ">
<polygon fill="white" stroke="#666666" points="604,-30.18 521,-30.18 521,-11.18 604,-11.18 604,-30.18"/>
<text text-anchor="middle" x="562.5" y="-18.18" font-family="Helvetica,sans-Serif" font-size="10.00">set_subboxes</text>
</a>
</g>
</g>
<!-- Node1&#45;&gt;Node13 -->
<g id="edge17_Node000001_Node000013" class="edge">
<title>Node1&#45;&gt;Node13</title>
<g id="a_edge17_Node000001_Node000013"><a xlink:title=" ">
<path fill="none" stroke="#63b8ff" d="M792.2,-46.77C782.62,-44.49 772.51,-42.31 763,-40.68 708.45,-31.31 644.7,-25.87 604.23,-23.08"/>
<polygon fill="#63b8ff" stroke="#63b8ff" points="791.39,-50.17 801.94,-49.16 793.06,-43.37 791.39,-50.17"/>
</a>
</g>
</g>
<!-- Node2&#45;&gt;Node3 -->
<g id="edge2_Node000002_Node000003" class="edge">
<title>Node2&#45;&gt;Node3</title>
<g id="a_edge2_Node000002_Node000003"><a xlink:title=" ">
<path fill="none" stroke="#63b8ff" d="M656.09,-71C637.27,-76.22 615.66,-82.21 598.06,-87.09"/>
<polygon fill="#63b8ff" stroke="#63b8ff" points="657.23,-74.31 665.93,-68.27 655.36,-67.57 657.23,-74.31"/>
</a>
</g>
</g>
<!-- Node8 -->
<g id="Node000008" class="node">
<title>Node8</title>
<g id="a_Node000008"><a xlink:href="fragment_8c.html#a167c76ec9c64d91e440bec86963419bb" target="_top" xlink:title=" ">
<polygon fill="white" stroke="#666666" points="604,-68.18 521,-68.18 521,-49.18 604,-49.18 604,-68.18"/>
<text text-anchor="middle" x="562.5" y="-56.18" font-family="Helvetica,sans-Serif" font-size="10.00">Integrand_MF</text>
</a>
</g>
</g>
<!-- Node2&#45;&gt;Node8 -->
<g id="edge7_Node000002_Node000008" class="edge">
<title>Node2&#45;&gt;Node8</title>
<g id="a_edge7_Node000002_Node000008"><a xlink:title=" ">
<path fill="none" stroke="#63b8ff" d="M629.44,-58.68C620.77,-58.68 612.15,-58.68 604.15,-58.68"/>
<polygon fill="#63b8ff" stroke="#63b8ff" points="629.61,-62.18 639.61,-58.68 629.61,-55.18 629.61,-62.18"/>
</a>
</g>
</g>
<!-- Node2&#45;&gt;Node13 -->
<g id="edge14_Node000002_Node000013" class="edge">
<title>Node2&#45;&gt;Node13</title>
<g id="a_edge14_Node000002_Node000013"><a xlink:title=" ">
<path fill="none" stroke="#63b8ff" d="M656.09,-46.36C637.27,-41.14 615.66,-35.15 598.06,-30.26"/>
<polygon fill="#63b8ff" stroke="#63b8ff" points="655.36,-49.79 665.93,-49.09 657.23,-43.04 655.36,-49.79"/>
</a>
</g>
</g>
<!-- Node4 -->
<g id="Node000004" class="node">
<title>Node4</title>
<g id="a_Node000004"><a xlink:href="build__groups_8c.html#a4df1001cc86732388d8ecf04e3372827" target="_top" xlink:title=" ">
<polygon fill="white" stroke="#666666" points="456.5,-125.18 377.5,-125.18 377.5,-106.18 456.5,-106.18 456.5,-125.18"/>
<text text-anchor="middle" x="417" y="-113.18" font-family="Helvetica,sans-Serif" font-size="10.00">build_groups</text>
</a>
</g>
</g>
<!-- Node3&#45;&gt;Node4 -->
<g id="edge3_Node000003_Node000004" class="edge">
<title>Node3&#45;&gt;Node4</title>
<g id="a_edge3_Node000003_Node000004"><a xlink:title=" ">
<path fill="none" stroke="#63b8ff" d="M513.45,-103.04C495.01,-105.48 474.22,-108.23 456.76,-110.55"/>
<polygon fill="#63b8ff" stroke="#63b8ff" points="513.97,-106.5 523.42,-101.72 513.05,-99.56 513.97,-106.5"/>
</a>
</g>
</g>
<!-- Node5 -->
<g id="Node000005" class="node">
<title>Node5</title>
<g id="a_Node000005"><a xlink:href="fragment_8c.html#ac2bb250921932f90f7b0939d1181b66d" target="_top" xlink:title=" ">
<polygon fill="white" stroke="#666666" points="291.5,-124.18 229.5,-124.18 229.5,-105.18 291.5,-105.18 291.5,-124.18"/>
<text text-anchor="middle" x="260.5" y="-112.18" font-family="Helvetica,sans-Serif" font-size="10.00">fragment</text>
</a>
</g>
</g>
<!-- Node4&#45;&gt;Node5 -->
<g id="edge4_Node000004_Node000005" class="edge">
<title>Node4&#45;&gt;Node5</title>
<g id="a_edge4_Node000004_Node000005"><a xlink:title=" ">
<path fill="none" stroke="#63b8ff" d="M367.14,-115.36C342.46,-115.2 313.29,-115.01 291.86,-114.87"/>
<polygon fill="#63b8ff" stroke="#63b8ff" points="367.39,-118.86 377.41,-115.43 367.43,-111.86 367.39,-118.86"/>
</a>
</g>
</g>
<!-- Node6 -->
<g id="Node000006" class="node">
<title>Node6</title>
<g id="a_Node000006"><a xlink:href="fragment_8c.html#ae3aa75d17cbc170e60f4f48c4a2ffdf5" target="_top" xlink:title=" ">
<polygon fill="white" stroke="#666666" points="172,-123.18 77,-123.18 77,-104.18 172,-104.18 172,-123.18"/>
<text text-anchor="middle" x="124.5" y="-111.18" font-family="Helvetica,sans-Serif" font-size="10.00">fragment_driver</text>
</a>
</g>
</g>
<!-- Node5&#45;&gt;Node6 -->
<g id="edge5_Node000005_Node000006" class="edge">
<title>Node5&#45;&gt;Node6</title>
<g id="a_edge5_Node000005_Node000006"><a xlink:title=" ">
<path fill="none" stroke="#63b8ff" d="M219.06,-114.38C204.24,-114.27 187.36,-114.14 172.05,-114.03"/>
<polygon fill="#63b8ff" stroke="#63b8ff" points="219.4,-117.88 229.43,-114.45 219.45,-110.88 219.4,-117.88"/>
</a>
</g>
</g>
<!-- Node7 -->
<g id="Node000007" class="node">
<title>Node7</title>
<g id="a_Node000007"><a xlink:href="pinocchio_8c.html#a647f21a28344e1d9c643f4115516d7c9" target="_top" xlink:title=" ">
<polygon fill="white" stroke="#666666" points="41,-104.18 0,-104.18 0,-85.18 41,-85.18 41,-104.18"/>
<text text-anchor="middle" x="20.5" y="-92.18" font-family="Helvetica,sans-Serif" font-size="10.00">main</text>
</a>
</g>
</g>
<!-- Node6&#45;&gt;Node7 -->
<g id="edge6_Node000006_Node000007" class="edge">
<title>Node6&#45;&gt;Node7</title>
<g id="a_edge6_Node000006_Node000007"><a xlink:title=" ">
<path fill="none" stroke="#63b8ff" d="M66.91,-103.14C57.67,-101.42 48.67,-99.74 41.16,-98.34"/>
<polygon fill="#63b8ff" stroke="#63b8ff" points="66.51,-106.62 76.98,-105.01 67.79,-99.74 66.51,-106.62"/>
</a>
</g>
</g>
<!-- Node9 -->
<g id="Node000009" class="node">
<title>Node9</title>
<g id="a_Node000009"><a xlink:href="fragment_8c.html#aabb4533acf454a2edcad5fe0ad385df8" target="_top" xlink:title=" ">
<polygon fill="white" stroke="#666666" points="485,-49.18 349,-49.18 349,-30.18 485,-30.18 485,-49.18"/>
<text text-anchor="middle" x="417" y="-37.18" font-family="Helvetica,sans-Serif" font-size="10.00">compute_Nhalos_in_PLC</text>
</a>
</g>
</g>
<!-- Node8&#45;&gt;Node9 -->
<g id="edge8_Node000008_Node000009" class="edge">
<title>Node8&#45;&gt;Node9</title>
<g id="a_edge8_Node000008_Node000009"><a xlink:title=" ">
<path fill="none" stroke="#63b8ff" d="M510.59,-51.94C502.35,-50.85 493.72,-49.7 485.17,-48.57"/>
<polygon fill="#63b8ff" stroke="#63b8ff" points="510.39,-55.44 520.76,-53.28 511.31,-48.5 510.39,-55.44"/>
</a>
</g>
</g>
<!-- Node10 -->
<g id="Node000010" class="node">
<title>Node10</title>
<g id="a_Node000010"><a xlink:href="fragment_8c.html#a1d88ab9fbf839def20a948fed5095970" target="_top" xlink:title=" ">
<polygon fill="white" stroke="#666666" points="313,-86.18 208,-86.18 208,-67.18 313,-67.18 313,-86.18"/>
<text text-anchor="middle" x="260.5" y="-74.18" font-family="Helvetica,sans-Serif" font-size="10.00">estimate_file_size</text>
</a>
</g>
</g>
<!-- Node8&#45;&gt;Node10 -->
<g id="edge13_Node000008_Node000010" class="edge">
<title>Node8&#45;&gt;Node10</title>
<g id="a_edge13_Node000008_Node000010"><a xlink:title=" ">
<path fill="none" stroke="#63b8ff" d="M510.52,-61.74C455.55,-65.04 368.52,-70.26 313.25,-73.57"/>
<polygon fill="#63b8ff" stroke="#63b8ff" points="510.96,-65.22 520.73,-61.12 510.54,-58.23 510.96,-65.22"/>
</a>
</g>
</g>
<!-- Node9&#45;&gt;Node10 -->
<g id="edge9_Node000009_Node000010" class="edge">
<title>Node9&#45;&gt;Node10</title>
<g id="a_edge9_Node000009_Node000010"><a xlink:title=" ">
<path fill="none" stroke="#63b8ff" d="M366.2,-51.6C345.25,-56.62 321.19,-62.38 301.42,-67.12"/>
<polygon fill="#63b8ff" stroke="#63b8ff" points="367.3,-54.94 376.21,-49.21 365.67,-48.13 367.3,-54.94"/>
</a>
</g>
</g>
<!-- Node12 -->
<g id="Node000012" class="node">
<title>Node12</title>
<g id="a_Node000012"><a xlink:href="write__halos_8c.html#a9c1d2f1df77a66a8e31b7d19251f39ac" target="_top" xlink:title=" ">
<polygon fill="white" stroke="#666666" points="293,-49.18 228,-49.18 228,-30.18 293,-30.18 293,-49.18"/>
<text text-anchor="middle" x="260.5" y="-37.18" font-family="Helvetica,sans-Serif" font-size="10.00">write_PLC</text>
</a>
</g>
</g>
<!-- Node9&#45;&gt;Node12 -->
<g id="edge12_Node000009_Node000012" class="edge">
<title>Node9&#45;&gt;Node12</title>
<g id="a_edge12_Node000009_Node000012"><a xlink:title=" ">
<path fill="none" stroke="#63b8ff" d="M338.65,-39.68C322.51,-39.68 306.37,-39.68 293.05,-39.68"/>
<polygon fill="#63b8ff" stroke="#63b8ff" points="338.68,-43.18 348.68,-39.68 338.68,-36.18 338.68,-43.18"/>
</a>
</g>
</g>
<!-- Node11 -->
<g id="Node000011" class="node">
<title>Node11</title>
<g id="a_Node000011"><a xlink:href="initialization_8c.html#a2bed034b4a40d49d0765d1ce741bd8a9" target="_top" xlink:title=" ">
<polygon fill="white" stroke="#666666" points="163,-86.18 86,-86.18 86,-67.18 163,-67.18 163,-86.18"/>
<text text-anchor="middle" x="124.5" y="-74.18" font-family="Helvetica,sans-Serif" font-size="10.00">initialization</text>
</a>
</g>
</g>
<!-- Node10&#45;&gt;Node11 -->
<g id="edge10_Node000010_Node000011" class="edge">
<title>Node10&#45;&gt;Node11</title>
<g id="a_edge10_Node000010_Node000011"><a xlink:title=" ">
<path fill="none" stroke="#63b8ff" d="M197.45,-76.68C185.7,-76.68 173.75,-76.68 163.05,-76.68"/>
<polygon fill="#63b8ff" stroke="#63b8ff" points="197.69,-80.18 207.69,-76.68 197.69,-73.18 197.69,-80.18"/>
</a>
</g>
</g>
<!-- Node11&#45;&gt;Node7 -->
<g id="edge11_Node000011_Node000007" class="edge">
<title>Node11&#45;&gt;Node7</title>
<g id="a_edge11_Node000011_Node000007"><a xlink:title=" ">
<path fill="none" stroke="#63b8ff" d="M75.65,-85.12C63.41,-87.28 50.92,-89.49 41.03,-91.23"/>
<polygon fill="#63b8ff" stroke="#63b8ff" points="76.57,-88.51 85.81,-83.33 75.35,-81.62 76.57,-88.51"/>
</a>
</g>
</g>
<!-- Node13&#45;&gt;Node11 -->
<g id="edge15_Node000013_Node000011" class="edge">
<title>Node13&#45;&gt;Node11</title>
<g id="a_edge15_Node000013_Node000011"><a xlink:title=" ">
<path fill="none" stroke="#63b8ff" d="M510.57,-11.5C440.61,-0.94 311.65,11.18 208,-20.68 178.55,-29.73 150.17,-53.27 135.61,-66.77"/>
<polygon fill="#63b8ff" stroke="#63b8ff" points="510.45,-15.03 520.87,-13.11 511.53,-8.11 510.45,-15.03"/>
</a>
</g>
</g>
</g>
</svg>
