<?xml version="1.0" encoding="UTF-8" standalone="no"?>
<!DOCTYPE svg PUBLIC "-//W3C//DTD SVG 1.1//EN"
 "http://www.w3.org/Graphics/SVG/1.1/DTD/svg11.dtd">
<!-- Generated by graphviz version 2.43.0 (0)
 -->
<!-- Title: PowerSpec_Efstathiou Pages: 1 -->
<svg width="1134pt" height="136pt"
 viewBox="0.00 0.00 1134.00 135.94" xmlns="http://www.w3.org/2000/svg" xmlns:xlink="http://www.w3.org/1999/xlink">
<g id="graph0" class="graph" transform="scale(1 1) rotate(0) translate(4 131.94)">
<title>PowerSpec_Efstathiou</title>
<!-- Node1 -->
<g id="Node000001" class="node">
<title>Node1</title>
<g id="a_Node000001"><a xlink:title=" ">
<polygon fill="#999999" stroke="#666666" points="1126,-70.94 1001,-70.94 1001,-51.94 1126,-51.94 1126,-70.94"/>
<text text-anchor="middle" x="1063.5" y="-58.94" font-family="Helvetica,sans-Serif" font-size="10.00">PowerSpec_Efstathiou</text>
</a>
</g>
</g>
<!-- Node2 -->
<g id="Node000002" class="node">
<title>Node2</title>
<g id="a_Node000002"><a xlink:href="cosmo_8c.html#adb3827724e24c320717073266dbfac4c" target="_top" xlink:title=" ">
<polygon fill="white" stroke="#666666" points="965,-70.94 872,-70.94 872,-51.94 965,-51.94 965,-70.94"/>
<text text-anchor="middle" x="918.5" y="-58.94" font-family="Helvetica,sans-Serif" font-size="10.00">PowerSpectrum</text>
</a>
</g>
</g>
<!-- Node1&#45;&gt;Node2 -->
<g id="edge1_Node000001_Node000002" class="edge">
<title>Node1&#45;&gt;Node2</title>
<g id="a_edge1_Node000001_Node000002"><a xlink:title=" ">
<path fill="none" stroke="#63b8ff" d="M990.49,-61.44C981.85,-61.44 973.22,-61.44 965.1,-61.44"/>
<polygon fill="#63b8ff" stroke="#63b8ff" points="990.61,-64.94 1000.61,-61.44 990.61,-57.94 990.61,-64.94"/>
</a>
</g>
</g>
<!-- Node3 -->
<g id="Node000003" class="node">
<title>Node3</title>
<g id="a_Node000003"><a xlink:href="GenIC_8c.html#ace74d9b7762a8d706af2c979428094e5" target="_top" xlink:title=" ">
<polygon fill="white" stroke="#666666" points="801,-126.94 725,-126.94 725,-107.94 801,-107.94 801,-126.94"/>
<text text-anchor="middle" x="763" y="-114.94" font-family="Helvetica,sans-Serif" font-size="10.00">GenIC_large</text>
</a>
</g>
</g>
<!-- Node2&#45;&gt;Node3 -->
<g id="edge2_Node000002_Node000003" class="edge">
<title>Node2&#45;&gt;Node3</title>
<g id="a_edge2_Node000002_Node000003"><a xlink:title=" ">
<path fill="none" stroke="#63b8ff" d="M890.4,-75.67C874.8,-83.45 854.64,-92.83 836,-99.44 824.83,-103.4 812.39,-106.83 801.03,-109.61"/>
<polygon fill="#63b8ff" stroke="#63b8ff" points="892.14,-78.71 899.47,-71.06 888.97,-72.47 892.14,-78.71"/>
</a>
</g>
</g>
<!-- Node7 -->
<g id="Node000007" class="node">
<title>Node7</title>
<g id="a_Node000007"><a xlink:href="cosmo_8c.html#a53b1cc7220c453661866a82f48ce0fb5" target="_top" xlink:title=" ">
<polygon fill="white" stroke="#666666" points="307,-51.94 190,-51.94 190,-32.94 307,-32.94 307,-51.94"/>
<text text-anchor="middle" x="248.5" y="-39.94" font-family="Helvetica,sans-Serif" font-size="10.00">initialize_cosmology</text>
</a>
</g>
</g>
<!-- Node2&#45;&gt;Node7 -->
<g id="edge6_Node000002_Node000007" class="edge">
<title>Node2&#45;&gt;Node7</title>
<g id="a_edge6_Node000002_Node000007"><a xlink:title=" ">
<path fill="none" stroke="#63b8ff" d="M892.31,-47.03C876.65,-38.93 855.8,-29.61 836,-25.44 621.61,19.81 561.23,-5.76 343,-25.44 326.4,-26.93 308.35,-29.89 292.57,-32.93"/>
<polygon fill="#63b8ff" stroke="#63b8ff" points="890.86,-50.23 901.33,-51.87 894.17,-44.06 890.86,-50.23"/>
</a>
</g>
</g>
<!-- Node8 -->
<g id="Node000008" class="node">
<title>Node8</title>
<g id="a_Node000008"><a xlink:href="cosmo_8c.html#ac6c0324ea8a0998e51c2ed54864ef24c" target="_top" xlink:title=" ">
<polygon fill="white" stroke="#666666" points="835.5,-89.94 690.5,-89.94 690.5,-70.94 835.5,-70.94 835.5,-89.94"/>
<text text-anchor="middle" x="763" y="-77.94" font-family="Helvetica,sans-Serif" font-size="10.00">IntegrandForDisplVariance</text>
</a>
</g>
</g>
<!-- Node2&#45;&gt;Node8 -->
<g id="edge8_Node000002_Node000008" class="edge">
<title>Node2&#45;&gt;Node8</title>
<g id="a_edge8_Node000002_Node000008"><a xlink:title=" ">
<path fill="none" stroke="#63b8ff" d="M861.73,-68.34C853.25,-69.39 844.39,-70.48 835.63,-71.57"/>
<polygon fill="#63b8ff" stroke="#63b8ff" points="862.37,-71.79 871.86,-67.08 861.51,-64.84 862.37,-71.79"/>
</a>
</g>
</g>
<!-- Node11 -->
<g id="Node000011" class="node">
<title>Node11</title>
<g id="a_Node000011"><a xlink:href="cosmo_8c.html#acc3f98f9efcc34eeb5447d1bf317dbe8" target="_top" xlink:title=" ">
<polygon fill="white" stroke="#666666" points="836,-52.94 690,-52.94 690,-33.94 836,-33.94 836,-52.94"/>
<text text-anchor="middle" x="763" y="-40.94" font-family="Helvetica,sans-Serif" font-size="10.00">IntegrandForMassVariance</text>
</a>
</g>
</g>
<!-- Node2&#45;&gt;Node11 -->
<g id="edge13_Node000002_Node000011" class="edge">
<title>Node2&#45;&gt;Node11</title>
<g id="a_edge13_Node000002_Node000011"><a xlink:title=" ">
<path fill="none" stroke="#63b8ff" d="M861.89,-54.91C853.54,-53.94 844.84,-52.91 836.21,-51.9"/>
<polygon fill="#63b8ff" stroke="#63b8ff" points="861.52,-58.39 871.86,-56.08 862.34,-51.44 861.52,-58.39"/>
</a>
</g>
</g>
<!-- Node4 -->
<g id="Node000004" class="node">
<title>Node4</title>
<g id="a_Node000004"><a xlink:href="initialization_8c.html#a8a3bde5900dc3319906753b030d91c3a" target="_top" xlink:title=" ">
<polygon fill="white" stroke="#666666" points="303.5,-127.94 193.5,-127.94 193.5,-108.94 303.5,-108.94 303.5,-127.94"/>
<text text-anchor="middle" x="248.5" y="-115.94" font-family="Helvetica,sans-Serif" font-size="10.00">generate_densities</text>
</a>
</g>
</g>
<!-- Node3&#45;&gt;Node4 -->
<g id="edge3_Node000003_Node000004" class="edge">
<title>Node3&#45;&gt;Node4</title>
<g id="a_edge3_Node000003_Node000004"><a xlink:title=" ">
<path fill="none" stroke="#63b8ff" d="M714.52,-117.53C619.12,-117.71 404.74,-118.13 303.9,-118.33"/>
<polygon fill="#63b8ff" stroke="#63b8ff" points="714.74,-121.03 724.73,-117.51 714.72,-114.03 714.74,-121.03"/>
</a>
</g>
</g>
<!-- Node5 -->
<g id="Node000005" class="node">
<title>Node5</title>
<g id="a_Node000005"><a xlink:href="initialization_8c.html#a2bed034b4a40d49d0765d1ce741bd8a9" target="_top" xlink:title=" ">
<polygon fill="white" stroke="#666666" points="154,-89.94 77,-89.94 77,-70.94 154,-70.94 154,-89.94"/>
<text text-anchor="middle" x="115.5" y="-77.94" font-family="Helvetica,sans-Serif" font-size="10.00">initialization</text>
</a>
</g>
</g>
<!-- Node4&#45;&gt;Node5 -->
<g id="edge4_Node000004_Node000005" class="edge">
<title>Node4&#45;&gt;Node5</title>
<g id="a_edge4_Node000004_Node000005"><a xlink:title=" ">
<path fill="none" stroke="#63b8ff" d="M204.79,-106.04C186.85,-100.84 166.3,-94.88 149.55,-90.02"/>
<polygon fill="#63b8ff" stroke="#63b8ff" points="203.86,-109.42 214.44,-108.85 205.81,-102.7 203.86,-109.42"/>
</a>
</g>
</g>
<!-- Node6 -->
<g id="Node000006" class="node">
<title>Node6</title>
<g id="a_Node000006"><a xlink:href="pinocchio_8c.html#a647f21a28344e1d9c643f4115516d7c9" target="_top" xlink:title=" ">
<polygon fill="white" stroke="#666666" points="41,-89.94 0,-89.94 0,-70.94 41,-70.94 41,-89.94"/>
<text text-anchor="middle" x="20.5" y="-77.94" font-family="Helvetica,sans-Serif" font-size="10.00">main</text>
</a>
</g>
</g>
<!-- Node5&#45;&gt;Node6 -->
<g id="edge5_Node000005_Node000006" class="edge">
<title>Node5&#45;&gt;Node6</title>
<g id="a_edge5_Node000005_Node000006"><a xlink:title=" ">
<path fill="none" stroke="#63b8ff" d="M66.73,-80.44C57.65,-80.44 48.63,-80.44 41.06,-80.44"/>
<polygon fill="#63b8ff" stroke="#63b8ff" points="66.94,-83.94 76.94,-80.44 66.94,-76.94 66.94,-83.94"/>
</a>
</g>
</g>
<!-- Node7&#45;&gt;Node5 -->
<g id="edge7_Node000007_Node000005" class="edge">
<title>Node7&#45;&gt;Node5</title>
<g id="a_edge7_Node000007_Node000005"><a xlink:title=" ">
<path fill="none" stroke="#63b8ff" d="M204.79,-54.83C186.85,-60.03 166.3,-65.99 149.55,-70.85"/>
<polygon fill="#63b8ff" stroke="#63b8ff" points="205.81,-58.17 214.44,-52.02 203.86,-51.45 205.81,-58.17"/>
</a>
</g>
</g>
<!-- Node9 -->
<g id="Node000009" class="node">
<title>Node9</title>
<g id="a_Node000009"><a xlink:href="cosmo_8c.html#a19951793de40040dd4581e4f62dc70ed" target="_top" xlink:title=" ">
<polygon fill="white" stroke="#666666" points="654,-89.94 526,-89.94 526,-70.94 654,-70.94 654,-89.94"/>
<text text-anchor="middle" x="590" y="-77.94" font-family="Helvetica,sans-Serif" font-size="10.00">ComputeDisplVariance</text>
</a>
</g>
</g>
<!-- Node8&#45;&gt;Node9 -->
<g id="edge9_Node000008_Node000009" class="edge">
<title>Node8&#45;&gt;Node9</title>
<g id="a_edge9_Node000008_Node000009"><a xlink:title=" ">
<path fill="none" stroke="#63b8ff" d="M680.21,-80.44C671.43,-80.44 662.6,-80.44 654.08,-80.44"/>
<polygon fill="#63b8ff" stroke="#63b8ff" points="680.47,-83.94 690.47,-80.44 680.47,-76.94 680.47,-83.94"/>
</a>
</g>
</g>
<!-- Node10 -->
<g id="Node000010" class="node">
<title>Node10</title>
<g id="a_Node000010"><a xlink:href="cosmo_8c.html#a23d3873ee5e46a5db96b3d8adbb83766" target="_top" xlink:title=" ">
<polygon fill="white" stroke="#666666" points="482,-89.94 351,-89.94 351,-70.94 482,-70.94 482,-89.94"/>
<text text-anchor="middle" x="416.5" y="-77.94" font-family="Helvetica,sans-Serif" font-size="10.00">initialize_MassVariance</text>
</a>
</g>
</g>
<!-- Node9&#45;&gt;Node10 -->
<g id="edge10_Node000009_Node000010" class="edge">
<title>Node9&#45;&gt;Node10</title>
<g id="a_edge10_Node000009_Node000010"><a xlink:title=" ">
<path fill="none" stroke="#63b8ff" d="M515.51,-80.44C504.38,-80.44 492.97,-80.44 482.05,-80.44"/>
<polygon fill="#63b8ff" stroke="#63b8ff" points="515.63,-83.94 525.63,-80.44 515.63,-76.94 515.63,-83.94"/>
</a>
</g>
</g>
<!-- Node10&#45;&gt;Node5 -->
<g id="edge11_Node000010_Node000005" class="edge">
<title>Node10&#45;&gt;Node5</title>
<g id="a_edge11_Node000010_Node000005"><a xlink:title=" ">
<path fill="none" stroke="#63b8ff" d="M340.9,-80.44C281.45,-80.44 200.69,-80.44 154.02,-80.44"/>
<polygon fill="#63b8ff" stroke="#63b8ff" points="340.99,-83.94 350.99,-80.44 340.99,-76.94 340.99,-83.94"/>
</a>
</g>
</g>
<!-- Node10&#45;&gt;Node7 -->
<g id="edge12_Node000010_Node000007" class="edge">
<title>Node10&#45;&gt;Node7</title>
<g id="a_edge12_Node000010_Node000007"><a xlink:title=" ">
<path fill="none" stroke="#63b8ff" d="M363.85,-68.61C340.44,-63.25 313.14,-57 291.09,-51.96"/>
<polygon fill="#63b8ff" stroke="#63b8ff" points="363.08,-72.03 373.61,-70.85 364.64,-65.2 363.08,-72.03"/>
</a>
</g>
</g>
<!-- Node12 -->
<g id="Node000012" class="node">
<title>Node12</title>
<g id="a_Node000012"><a xlink:href="cosmo_8c.html#ab20739d74ee8f4246073637e01d6a305" target="_top" xlink:title=" ">
<polygon fill="white" stroke="#666666" points="654,-52.94 526,-52.94 526,-33.94 654,-33.94 654,-52.94"/>
<text text-anchor="middle" x="590" y="-40.94" font-family="Helvetica,sans-Serif" font-size="10.00">ComputeMassVariance</text>
</a>
</g>
</g>
<!-- Node11&#45;&gt;Node12 -->
<g id="edge14_Node000011_Node000012" class="edge">
<title>Node11&#45;&gt;Node12</title>
<g id="a_edge14_Node000011_Node000012"><a xlink:title=" ">
<path fill="none" stroke="#63b8ff" d="M679.9,-43.44C671.28,-43.44 662.62,-43.44 654.26,-43.44"/>
<polygon fill="#63b8ff" stroke="#63b8ff" points="679.98,-46.94 689.98,-43.44 679.98,-39.94 679.98,-46.94"/>
</a>
</g>
</g>
<!-- Node12&#45;&gt;Node10 -->
<g id="edge15_Node000012_Node000010" class="edge">
<title>Node12&#45;&gt;Node10</title>
<g id="a_edge15_Node000012_Node000010"><a xlink:title=" ">
<path fill="none" stroke="#63b8ff" d="M534.99,-55.09C511.43,-60.17 484.15,-66.06 461.81,-70.87"/>
<polygon fill="#63b8ff" stroke="#63b8ff" points="535.8,-58.49 544.83,-52.96 534.32,-51.65 535.8,-58.49"/>
</a>
</g>
</g>
<!-- Node13 -->
<g id="Node000013" class="node">
<title>Node13</title>
<g id="a_Node000013"><a xlink:href="cosmo_8c.html#a6f4e126cbaf9d48005e02434c2605ff1" target="_top" xlink:title=" ">
<polygon fill="white" stroke="#666666" points="490,-52.94 343,-52.94 343,-33.94 490,-33.94 490,-52.94"/>
<text text-anchor="middle" x="416.5" y="-40.94" font-family="Helvetica,sans-Serif" font-size="10.00">normalize_PowerSpectrum</text>
</a>
</g>
</g>
<!-- Node12&#45;&gt;Node13 -->
<g id="edge16_Node000012_Node000013" class="edge">
<title>Node12&#45;&gt;Node13</title>
<g id="a_edge16_Node000012_Node000013"><a xlink:title=" ">
<path fill="none" stroke="#63b8ff" d="M515.49,-43.44C507.1,-43.44 498.55,-43.44 490.16,-43.44"/>
<polygon fill="#63b8ff" stroke="#63b8ff" points="515.63,-46.94 525.63,-43.44 515.63,-39.94 515.63,-46.94"/>
</a>
</g>
</g>
<!-- Node13&#45;&gt;Node7 -->
<g id="edge17_Node000013_Node000007" class="edge">
<title>Node13&#45;&gt;Node7</title>
<g id="a_edge17_Node000013_Node000007"><a xlink:title=" ">
<path fill="none" stroke="#63b8ff" d="M332.57,-42.94C323.94,-42.88 315.3,-42.83 307.04,-42.78"/>
<polygon fill="#63b8ff" stroke="#63b8ff" points="332.67,-46.44 342.69,-43 332.71,-39.44 332.67,-46.44"/>
</a>
</g>
</g>
</g>
</svg>
