<?xml version="1.0" encoding="UTF-8" standalone="no"?>
<!DOCTYPE svg PUBLIC "-//W3C//DTD SVG 1.1//EN"
 "http://www.w3.org/Graphics/SVG/1.1/DTD/svg11.dtd">
<!-- Generated by graphviz version 2.43.0 (0)
 -->
<!-- Title: ComputeMassVariance Pages: 1 -->
<svg width="806pt" height="175pt"
 viewBox="0.00 0.00 806.00 175.00" xmlns="http://www.w3.org/2000/svg" xmlns:xlink="http://www.w3.org/1999/xlink">
<g id="graph0" class="graph" transform="scale(1 1) rotate(0) translate(4 171)">
<title>ComputeMassVariance</title>
<!-- Node1 -->
<g id="Node000001" class="node">
<title>Node1</title>
<g id="a_Node000001"><a xlink:title=" ">
<polygon fill="#999999" stroke="#666666" points="128,-93 0,-93 0,-74 128,-74 128,-93"/>
<text text-anchor="middle" x="64" y="-81" font-family="Helvetica,sans-Serif" font-size="10.00">ComputeMassVariance</text>
</a>
</g>
</g>
<!-- Node2 -->
<g id="Node000002" class="node">
<title>Node2</title>
<g id="a_Node000002"><a xlink:href="cosmo_8c.html#acc3f98f9efcc34eeb5447d1bf317dbe8" target="_top" xlink:title=" ">
<polygon fill="white" stroke="#666666" points="310,-93 164,-93 164,-74 310,-74 310,-93"/>
<text text-anchor="middle" x="237" y="-81" font-family="Helvetica,sans-Serif" font-size="10.00">IntegrandForMassVariance</text>
</a>
</g>
</g>
<!-- Node1&#45;&gt;Node2 -->
<g id="edge1_Node000001_Node000002" class="edge">
<title>Node1&#45;&gt;Node2</title>
<g id="a_edge1_Node000001_Node000002"><a xlink:title=" ">
<path fill="none" stroke="#63b8ff" d="M128.19,-83.5C136.53,-83.5 145.18,-83.5 153.78,-83.5"/>
<polygon fill="#63b8ff" stroke="#63b8ff" points="153.84,-87 163.84,-83.5 153.84,-80 153.84,-87"/>
</a>
</g>
</g>
<!-- Node3 -->
<g id="Node000003" class="node">
<title>Node3</title>
<g id="a_Node000003"><a xlink:href="cosmo_8c.html#a9fbcf5b69c272e801cf320cf814b23c4" target="_top" xlink:title=" ">
<polygon fill="white" stroke="#666666" points="436.5,-148 352.5,-148 352.5,-129 436.5,-129 436.5,-148"/>
<text text-anchor="middle" x="394.5" y="-136" font-family="Helvetica,sans-Serif" font-size="10.00">GrowingMode</text>
</a>
</g>
</g>
<!-- Node2&#45;&gt;Node3 -->
<g id="edge2_Node000002_Node000003" class="edge">
<title>Node2&#45;&gt;Node3</title>
<g id="a_edge2_Node000002_Node000003"><a xlink:title=" ">
<path fill="none" stroke="#63b8ff" d="M265.09,-93.08C290.54,-102.08 328.82,-115.62 356.97,-125.58"/>
<polygon fill="#63b8ff" stroke="#63b8ff" points="355.87,-128.9 366.46,-128.94 358.2,-122.3 355.87,-128.9"/>
</a>
</g>
</g>
<!-- Node6 -->
<g id="Node000006" class="node">
<title>Node6</title>
<g id="a_Node000006"><a xlink:href="cosmo_8c.html#adb3827724e24c320717073266dbfac4c" target="_top" xlink:title=" ">
<polygon fill="white" stroke="#666666" points="441,-93 348,-93 348,-74 441,-74 441,-93"/>
<text text-anchor="middle" x="394.5" y="-81" font-family="Helvetica,sans-Serif" font-size="10.00">PowerSpectrum</text>
</a>
</g>
</g>
<!-- Node2&#45;&gt;Node6 -->
<g id="edge5_Node000002_Node000006" class="edge">
<title>Node2&#45;&gt;Node6</title>
<g id="a_edge5_Node000002_Node000006"><a xlink:title=" ">
<path fill="none" stroke="#63b8ff" d="M310.29,-83.5C319.41,-83.5 328.63,-83.5 337.45,-83.5"/>
<polygon fill="#63b8ff" stroke="#63b8ff" points="337.58,-87 347.58,-83.5 337.58,-80 337.58,-87"/>
</a>
</g>
</g>
<!-- Node13 -->
<g id="Node000013" class="node">
<title>Node13</title>
<g id="a_Node000013"><a xlink:href="cosmo_8c.html#a9817ba0d254db24f71f8d7ab242b4fba" target="_top" xlink:title=" ">
<polygon fill="white" stroke="#666666" points="443,-56 346,-56 346,-37 443,-37 443,-56"/>
<text text-anchor="middle" x="394.5" y="-44" font-family="Helvetica,sans-Serif" font-size="10.00">WindowFunction</text>
</a>
</g>
</g>
<!-- Node2&#45;&gt;Node13 -->
<g id="edge13_Node000002_Node000013" class="edge">
<title>Node2&#45;&gt;Node13</title>
<g id="a_edge13_Node000002_Node000013"><a xlink:title=" ">
<path fill="none" stroke="#63b8ff" d="M278.05,-73.97C298.01,-69.22 322.35,-63.43 343.53,-58.39"/>
<polygon fill="#63b8ff" stroke="#63b8ff" points="344.4,-61.78 353.32,-56.06 342.78,-54.97 344.4,-61.78"/>
</a>
</g>
</g>
<!-- Node4 -->
<g id="Node000004" class="node">
<title>Node4</title>
<g id="a_Node000004"><a xlink:href="cosmo_8c.html#a8847e5b8ea1f9c458c8bf9e5f36837a9" target="_top" xlink:title=" ">
<polygon fill="white" stroke="#666666" points="594,-167 489,-167 489,-148 594,-148 594,-167"/>
<text text-anchor="middle" x="541.5" y="-155" font-family="Helvetica,sans-Serif" font-size="10.00">InterpolateGrowth</text>
</a>
</g>
</g>
<!-- Node3&#45;&gt;Node4 -->
<g id="edge3_Node000003_Node000004" class="edge">
<title>Node3&#45;&gt;Node4</title>
<g id="a_edge3_Node000003_Node000004"><a xlink:title=" ">
<path fill="none" stroke="#63b8ff" d="M436.66,-143.89C449.73,-145.61 464.49,-147.54 478.68,-149.4"/>
<polygon fill="#63b8ff" stroke="#63b8ff" points="478.52,-152.91 488.89,-150.74 479.43,-145.97 478.52,-152.91"/>
</a>
</g>
</g>
<!-- Node5 -->
<g id="Node000005" class="node">
<title>Node5</title>
<g id="a_Node000005"><a xlink:href="cosmo_8c.html#a6341f5394ed17a00dc77c5519b292ae3" target="_top" xlink:title=" ">
<polygon fill="white" stroke="#666666" points="733,-148 640,-148 640,-129 733,-129 733,-148"/>
<text text-anchor="middle" x="686.5" y="-136" font-family="Helvetica,sans-Serif" font-size="10.00">my_spline_eval</text>
</a>
</g>
</g>
<!-- Node4&#45;&gt;Node5 -->
<g id="edge4_Node000004_Node000005" class="edge">
<title>Node4&#45;&gt;Node5</title>
<g id="a_edge4_Node000004_Node000005"><a xlink:title=" ">
<path fill="none" stroke="#63b8ff" d="M594.13,-150.64C605.64,-149.11 617.89,-147.48 629.56,-145.93"/>
<polygon fill="#63b8ff" stroke="#63b8ff" points="630.19,-149.38 639.64,-144.59 629.27,-142.44 630.19,-149.38"/>
</a>
</g>
</g>
<!-- Node7 -->
<g id="Node000007" class="node">
<title>Node7</title>
<g id="a_Node000007"><a xlink:href="cosmo_8c.html#a27427d60987e3e074ad1d7215080dc69" target="_top" xlink:title=" ">
<polygon fill="white" stroke="#666666" points="604,-93 479,-93 479,-74 604,-74 604,-93"/>
<text text-anchor="middle" x="541.5" y="-81" font-family="Helvetica,sans-Serif" font-size="10.00">PowerSpec_Efstathiou</text>
</a>
</g>
</g>
<!-- Node6&#45;&gt;Node7 -->
<g id="edge6_Node000006_Node000007" class="edge">
<title>Node6&#45;&gt;Node7</title>
<g id="a_edge6_Node000006_Node000007"><a xlink:title=" ">
<path fill="none" stroke="#63b8ff" d="M441.38,-83.5C450.09,-83.5 459.4,-83.5 468.69,-83.5"/>
<polygon fill="#63b8ff" stroke="#63b8ff" points="468.74,-87 478.74,-83.5 468.74,-80 468.74,-87"/>
</a>
</g>
</g>
<!-- Node8 -->
<g id="Node000008" class="node">
<title>Node8</title>
<g id="a_Node000008"><a xlink:href="cosmo_8c.html#a4b4d5c5ca327f59df1eba21a73e62113" target="_top" xlink:title=" ">
<polygon fill="white" stroke="#666666" points="586,-56 497,-56 497,-37 586,-37 586,-56"/>
<text text-anchor="middle" x="541.5" y="-44" font-family="Helvetica,sans-Serif" font-size="10.00">PowerSpec_EH</text>
</a>
</g>
</g>
<!-- Node6&#45;&gt;Node8 -->
<g id="edge7_Node000006_Node000008" class="edge">
<title>Node6&#45;&gt;Node8</title>
<g id="a_edge7_Node000006_Node000008"><a xlink:title=" ">
<path fill="none" stroke="#63b8ff" d="M432.84,-73.97C451.21,-69.29 473.54,-63.59 493.1,-58.6"/>
<polygon fill="#63b8ff" stroke="#63b8ff" points="494.21,-61.92 503.03,-56.06 492.48,-55.14 494.21,-61.92"/>
</a>
</g>
</g>
<!-- Node11 -->
<g id="Node000011" class="node">
<title>Node11</title>
<g id="a_Node000011"><a xlink:href="cosmo_8c.html#a6d04017af6090db607768f47976b88b8" target="_top" xlink:title=" ">
<polygon fill="white" stroke="#666666" points="604,-19 479,-19 479,0 604,0 604,-19"/>
<text text-anchor="middle" x="541.5" y="-7" font-family="Helvetica,sans-Serif" font-size="10.00">PowerSpec_PowerLaw</text>
</a>
</g>
</g>
<!-- Node6&#45;&gt;Node11 -->
<g id="edge10_Node000006_Node000011" class="edge">
<title>Node6&#45;&gt;Node11</title>
<g id="a_edge10_Node000006_Node000011"><a xlink:title=" ">
<path fill="none" stroke="#63b8ff" d="M426.61,-73.96C432.28,-71.6 437.99,-68.79 443,-65.5 462.18,-52.91 459.43,-40.48 479,-28.5 482.39,-26.43 486.02,-24.56 489.76,-22.89"/>
<polygon fill="#63b8ff" stroke="#63b8ff" points="491.24,-26.07 499.23,-19.11 488.64,-19.57 491.24,-26.07"/>
</a>
</g>
</g>
<!-- Node12 -->
<g id="Node000012" class="node">
<title>Node12</title>
<g id="a_Node000012"><a xlink:href="cosmo_8c.html#a428d6d001b5eb57f3f17d85699dd67f5" target="_top" xlink:title=" ">
<polygon fill="white" stroke="#666666" points="602.5,-130 480.5,-130 480.5,-111 602.5,-111 602.5,-130"/>
<text text-anchor="middle" x="541.5" y="-118" font-family="Helvetica,sans-Serif" font-size="10.00">PowerSpec_Tabulated</text>
</a>
</g>
</g>
<!-- Node6&#45;&gt;Node12 -->
<g id="edge11_Node000006_Node000012" class="edge">
<title>Node6&#45;&gt;Node12</title>
<g id="a_edge11_Node000006_Node000012"><a xlink:title=" ">
<path fill="none" stroke="#63b8ff" d="M432.84,-93.03C451.21,-97.71 473.54,-103.41 493.1,-108.4"/>
<polygon fill="#63b8ff" stroke="#63b8ff" points="492.48,-111.86 503.03,-110.94 494.21,-105.08 492.48,-111.86"/>
</a>
</g>
</g>
<!-- Node9 -->
<g id="Node000009" class="node">
<title>Node9</title>
<g id="a_Node000009"><a xlink:href="cosmo_8c.html#a5c6dbdd7fd7c206feb0554bc93b2436c" target="_top" xlink:title=" ">
<polygon fill="white" stroke="#666666" points="718.5,-56 654.5,-56 654.5,-37 718.5,-37 718.5,-56"/>
<text text-anchor="middle" x="686.5" y="-44" font-family="Helvetica,sans-Serif" font-size="10.00">transf_EH</text>
</a>
</g>
</g>
<!-- Node8&#45;&gt;Node9 -->
<g id="edge8_Node000008_Node000009" class="edge">
<title>Node8&#45;&gt;Node9</title>
<g id="a_edge8_Node000008_Node000009"><a xlink:title=" ">
<path fill="none" stroke="#63b8ff" d="M586.18,-46.5C604.67,-46.5 626.1,-46.5 644.3,-46.5"/>
<polygon fill="#63b8ff" stroke="#63b8ff" points="644.33,-50 654.33,-46.5 644.33,-43 644.33,-50"/>
</a>
</g>
</g>
<!-- Node10 -->
<g id="Node000010" class="node">
<title>Node10</title>
<g id="a_Node000010"><a xlink:href="cosmo_8c.html#a57dfb02fcd17e35fad40c836ba4d4160" target="_top" xlink:title=" ">
<polygon fill="white" stroke="#666666" points="798,-56 769,-56 769,-37 798,-37 798,-56"/>
<text text-anchor="middle" x="783.5" y="-44" font-family="Helvetica,sans-Serif" font-size="10.00">T0</text>
</a>
</g>
</g>
<!-- Node9&#45;&gt;Node10 -->
<g id="edge9_Node000009_Node000010" class="edge">
<title>Node9&#45;&gt;Node10</title>
<g id="a_edge9_Node000009_Node000010"><a xlink:title=" ">
<path fill="none" stroke="#63b8ff" d="M718.61,-46.5C731.53,-46.5 746.31,-46.5 758.39,-46.5"/>
<polygon fill="#63b8ff" stroke="#63b8ff" points="758.6,-50 768.6,-46.5 758.6,-43 758.6,-50"/>
</a>
</g>
</g>
<!-- Node12&#45;&gt;Node5 -->
<g id="edge12_Node000012_Node000005" class="edge">
<title>Node12&#45;&gt;Node5</title>
<g id="a_edge12_Node000012_Node000005"><a xlink:title=" ">
<path fill="none" stroke="#63b8ff" d="M602.73,-128.08C611.62,-129.2 620.74,-130.35 629.54,-131.46"/>
<polygon fill="#63b8ff" stroke="#63b8ff" points="629.32,-134.96 639.68,-132.73 630.2,-128.01 629.32,-134.96"/>
</a>
</g>
</g>
</g>
</svg>
