<?xml version="1.0" encoding="UTF-8" standalone="no"?>
<!DOCTYPE svg PUBLIC "-//W3C//DTD SVG 1.1//EN"
 "http://www.w3.org/Graphics/SVG/1.1/DTD/svg11.dtd">
<!-- Generated by graphviz version 2.43.0 (0)
 -->
<!-- Title: GrowingMode_2LPT Pages: 1 -->
<svg width="1274pt" height="518pt"
 viewBox="0.00 0.00 1274.00 518.00" xmlns="http://www.w3.org/2000/svg" xmlns:xlink="http://www.w3.org/1999/xlink">
<g id="graph0" class="graph" transform="scale(1 1) rotate(0) translate(4 514)">
<title>GrowingMode_2LPT</title>
<!-- Node1 -->
<g id="Node000001" class="node">
<title>Node1</title>
<g id="a_Node000001"><a xlink:title=" ">
<polygon fill="#999999" stroke="#666666" points="1266,-454 1153,-454 1153,-435 1266,-435 1266,-454"/>
<text text-anchor="middle" x="1209.5" y="-442" font-family="Helvetica,sans-Serif" font-size="10.00">GrowingMode_2LPT</text>
</a>
</g>
</g>
<!-- Node2 -->
<g id="Node000002" class="node">
<title>Node2</title>
<g id="a_Node000002"><a xlink:href="fmax-pfft_8c.html#a7852a9463984d6a264677376fa61cfb8" target="_top" xlink:title=" ">
<polygon fill="white" stroke="#666666" points="1115.5,-510 1001.5,-510 1001.5,-491 1115.5,-491 1115.5,-510"/>
<text text-anchor="middle" x="1058.5" y="-498" font-family="Helvetica,sans-Serif" font-size="10.00">compute_derivative</text>
</a>
</g>
</g>
<!-- Node1&#45;&gt;Node2 -->
<g id="edge1_Node000001_Node000002" class="edge">
<title>Node1&#45;&gt;Node2</title>
<g id="a_edge1_Node000001_Node000002"><a xlink:title=" ">
<path fill="none" stroke="#63b8ff" d="M1177.67,-458.12C1160.06,-465.69 1137.46,-475.07 1117,-482.5 1108.94,-485.43 1100.14,-488.33 1091.91,-490.92"/>
<polygon fill="#63b8ff" stroke="#63b8ff" points="1179.12,-461.31 1186.9,-454.12 1176.33,-454.88 1179.12,-461.31"/>
</a>
</g>
</g>
<!-- Node3 -->
<g id="Node000003" class="node">
<title>Node3</title>
<g id="a_Node000003"><a xlink:href="cosmo_8c.html#a53b1cc7220c453661866a82f48ce0fb5" target="_top" xlink:title=" ">
<polygon fill="white" stroke="#666666" points="1117,-473 1000,-473 1000,-454 1117,-454 1117,-473"/>
<text text-anchor="middle" x="1058.5" y="-461" font-family="Helvetica,sans-Serif" font-size="10.00">initialize_cosmology</text>
</a>
</g>
</g>
<!-- Node1&#45;&gt;Node3 -->
<g id="edge2_Node000001_Node000003" class="edge">
<title>Node1&#45;&gt;Node3</title>
<g id="a_edge2_Node000001_Node000003"><a xlink:title=" ">
<path fill="none" stroke="#63b8ff" d="M1142.44,-452.92C1134.03,-454 1125.47,-455.09 1117.21,-456.14"/>
<polygon fill="#63b8ff" stroke="#63b8ff" points="1143.12,-456.37 1152.59,-451.63 1142.23,-449.42 1143.12,-456.37"/>
</a>
</g>
</g>
<!-- Node6 -->
<g id="Node000006" class="node">
<title>Node6</title>
<g id="a_Node000006"><a xlink:href="fmax_8c.html#a72efd560c328a83b2542556a516633e3" target="_top" xlink:title=" ">
<polygon fill="white" stroke="#666666" points="487,-435 321,-435 321,-416 487,-416 487,-435"/>
<text text-anchor="middle" x="404" y="-423" font-family="Helvetica,sans-Serif" font-size="10.00">scale_products_displacements</text>
</a>
</g>
</g>
<!-- Node1&#45;&gt;Node6 -->
<g id="edge5_Node000001_Node000006" class="edge">
<title>Node1&#45;&gt;Node6</title>
<g id="a_edge5_Node000001_Node000006"><a xlink:title=" ">
<path fill="none" stroke="#63b8ff" d="M1142.66,-438.07C1080.45,-432.56 984.47,-425.5 901,-425.5 901,-425.5 901,-425.5 733.5,-425.5 649.52,-425.5 553.47,-425.5 487.01,-425.5"/>
<polygon fill="#63b8ff" stroke="#63b8ff" points="1142.46,-441.57 1152.73,-438.98 1143.09,-434.6 1142.46,-441.57"/>
</a>
</g>
</g>
<!-- Node9 -->
<g id="Node000009" class="node">
<title>Node9</title>
<g id="a_Node000009"><a xlink:href="build__groups_8c.html#a7d0a825b630d787e82f2aad789794b1b" target="_top" xlink:title=" ">
<polygon fill="white" stroke="#666666" points="1093.5,-342 1023.5,-342 1023.5,-323 1093.5,-323 1093.5,-342"/>
<text text-anchor="middle" x="1058.5" y="-330" font-family="Helvetica,sans-Serif" font-size="10.00">set_weight</text>
</a>
</g>
</g>
<!-- Node1&#45;&gt;Node9 -->
<g id="edge9_Node000001_Node000009" class="edge">
<title>Node1&#45;&gt;Node9</title>
<g id="a_edge9_Node000001_Node000009"><a xlink:title=" ">
<path fill="none" stroke="#63b8ff" d="M1187.72,-428.88C1156.36,-405.31 1097.88,-361.35 1072.17,-342.02"/>
<polygon fill="#63b8ff" stroke="#63b8ff" points="1185.7,-431.74 1195.8,-434.95 1189.91,-426.14 1185.7,-431.74"/>
</a>
</g>
</g>
<!-- Node4 -->
<g id="Node000004" class="node">
<title>Node4</title>
<g id="a_Node000004"><a xlink:href="initialization_8c.html#a2bed034b4a40d49d0765d1ce741bd8a9" target="_top" xlink:title=" ">
<polygon fill="white" stroke="#666666" points="285,-468 208,-468 208,-449 285,-449 285,-468"/>
<text text-anchor="middle" x="246.5" y="-456" font-family="Helvetica,sans-Serif" font-size="10.00">initialization</text>
</a>
</g>
</g>
<!-- Node3&#45;&gt;Node4 -->
<g id="edge3_Node000003_Node000004" class="edge">
<title>Node3&#45;&gt;Node4</title>
<g id="a_edge3_Node000003_Node000004"><a xlink:title=" ">
<path fill="none" stroke="#63b8ff" d="M989.77,-463.5C924.61,-463.5 823.32,-463.5 735.5,-463.5 735.5,-463.5 735.5,-463.5 577,-463.5 471.16,-463.5 346.22,-460.89 285.05,-459.44"/>
<polygon fill="#63b8ff" stroke="#63b8ff" points="989.92,-467 999.91,-463.5 989.91,-460 989.92,-467"/>
</a>
</g>
</g>
<!-- Node5 -->
<g id="Node000005" class="node">
<title>Node5</title>
<g id="a_Node000005"><a xlink:href="pinocchio_8c.html#a647f21a28344e1d9c643f4115516d7c9" target="_top" xlink:title=" ">
<polygon fill="white" stroke="#666666" points="41,-435 0,-435 0,-416 41,-416 41,-435"/>
<text text-anchor="middle" x="20.5" y="-423" font-family="Helvetica,sans-Serif" font-size="10.00">main</text>
</a>
</g>
</g>
<!-- Node4&#45;&gt;Node5 -->
<g id="edge4_Node000004_Node000005" class="edge">
<title>Node4&#45;&gt;Node5</title>
<g id="a_edge4_Node000004_Node000005"><a xlink:title=" ">
<path fill="none" stroke="#63b8ff" d="M197.75,-451.47C149.01,-444.28 75.74,-433.49 41.04,-428.38"/>
<polygon fill="#63b8ff" stroke="#63b8ff" points="197.35,-454.94 207.75,-452.94 198.37,-448.02 197.35,-454.94"/>
</a>
</g>
</g>
<!-- Node7 -->
<g id="Node000007" class="node">
<title>Node7</title>
<g id="a_Node000007"><a xlink:href="fragment_8c.html#ac2bb250921932f90f7b0939d1181b66d" target="_top" xlink:title=" ">
<polygon fill="white" stroke="#666666" points="277.5,-397 215.5,-397 215.5,-378 277.5,-378 277.5,-397"/>
<text text-anchor="middle" x="246.5" y="-385" font-family="Helvetica,sans-Serif" font-size="10.00">fragment</text>
</a>
</g>
</g>
<!-- Node6&#45;&gt;Node7 -->
<g id="edge6_Node000006_Node000007" class="edge">
<title>Node6&#45;&gt;Node7</title>
<g id="a_edge6_Node000006_Node000007"><a xlink:title=" ">
<path fill="none" stroke="#63b8ff" d="M351.01,-413.66C341.04,-411.33 330.69,-408.87 321,-406.5 306.79,-403.02 291.09,-398.98 277.85,-395.53"/>
<polygon fill="#63b8ff" stroke="#63b8ff" points="350.28,-417.09 360.81,-415.94 351.87,-410.27 350.28,-417.09"/>
</a>
</g>
</g>
<!-- Node8 -->
<g id="Node000008" class="node">
<title>Node8</title>
<g id="a_Node000008"><a xlink:href="fragment_8c.html#ae3aa75d17cbc170e60f4f48c4a2ffdf5" target="_top" xlink:title=" ">
<polygon fill="white" stroke="#666666" points="172,-416 77,-416 77,-397 172,-397 172,-416"/>
<text text-anchor="middle" x="124.5" y="-404" font-family="Helvetica,sans-Serif" font-size="10.00">fragment_driver</text>
</a>
</g>
</g>
<!-- Node7&#45;&gt;Node8 -->
<g id="edge7_Node000007_Node000008" class="edge">
<title>Node7&#45;&gt;Node8</title>
<g id="a_edge7_Node000007_Node000008"><a xlink:title=" ">
<path fill="none" stroke="#63b8ff" d="M205.01,-393.91C194.45,-395.58 182.98,-397.4 172.13,-399.12"/>
<polygon fill="#63b8ff" stroke="#63b8ff" points="205.89,-397.32 215.22,-392.29 204.79,-390.4 205.89,-397.32"/>
</a>
</g>
</g>
<!-- Node8&#45;&gt;Node5 -->
<g id="edge8_Node000008_Node000005" class="edge">
<title>Node8&#45;&gt;Node5</title>
<g id="a_edge8_Node000008_Node000005"><a xlink:title=" ">
<path fill="none" stroke="#63b8ff" d="M66.91,-417.04C57.67,-418.76 48.67,-420.44 41.16,-421.84"/>
<polygon fill="#63b8ff" stroke="#63b8ff" points="67.79,-420.44 76.98,-415.17 66.51,-413.56 67.79,-420.44"/>
</a>
</g>
</g>
<!-- Node10 -->
<g id="Node000010" class="node">
<title>Node10</title>
<g id="a_Node000010"><a xlink:href="write__mass__maps_8c.html#a6b5d12b44e4049d35c9576ce5d2500ff" target="_top" xlink:title=" ">
<polygon fill="white" stroke="#666666" points="964,-383.5 836,-383.5 836,-353.5 964,-353.5 964,-383.5"/>
<text text-anchor="start" x="844" y="-371.5" font-family="Helvetica,sans-Serif" font-size="10.00">mass_maps_set_point</text>
<text text-anchor="middle" x="900" y="-360.5" font-family="Helvetica,sans-Serif" font-size="10.00">_from_products_global</text>
</a>
</g>
</g>
<!-- Node9&#45;&gt;Node10 -->
<g id="edge10_Node000009_Node000010" class="edge">
<title>Node9&#45;&gt;Node10</title>
<g id="a_edge10_Node000009_Node000010"><a xlink:title=" ">
<path fill="none" stroke="#63b8ff" d="M1013.03,-342.73C997.87,-346.22 980.61,-350.19 964.26,-353.95"/>
<polygon fill="#63b8ff" stroke="#63b8ff" points="1014.19,-346.05 1023.16,-340.4 1012.63,-339.23 1014.19,-346.05"/>
</a>
</g>
</g>
<!-- Node12 -->
<g id="Node000012" class="node">
<title>Node12</title>
<g id="a_Node000012"><a xlink:href="build__groups_8c.html#a8ca8a2e49b8887203360635eb02ee79e" target="_top" xlink:title=" ">
<polygon fill="white" stroke="#666666" points="926,-228 874,-228 874,-209 926,-209 926,-228"/>
<text text-anchor="middle" x="900" y="-216" font-family="Helvetica,sans-Serif" font-size="10.00">set_obj</text>
</a>
</g>
</g>
<!-- Node9&#45;&gt;Node12 -->
<g id="edge13_Node000009_Node000012" class="edge">
<title>Node9&#45;&gt;Node12</title>
<g id="a_edge13_Node000009_Node000012"><a xlink:title=" ">
<path fill="none" stroke="#63b8ff" d="M1035.98,-316.82C1003.14,-292.9 941.48,-247.99 914.37,-228.24"/>
<polygon fill="#63b8ff" stroke="#63b8ff" points="1034.28,-319.92 1044.43,-322.98 1038.4,-314.26 1034.28,-319.92"/>
</a>
</g>
</g>
<!-- Node24 -->
<g id="Node000024" class="node">
<title>Node24</title>
<g id="a_Node000024"><a xlink:href="build__groups_8c.html#a731742e418b2f14b59093e9849636362" target="_top" xlink:title=" ">
<polygon fill="white" stroke="#666666" points="931,-320 869,-320 869,-301 931,-301 931,-320"/>
<text text-anchor="middle" x="900" y="-308" font-family="Helvetica,sans-Serif" font-size="10.00">set_point</text>
</a>
</g>
</g>
<!-- Node9&#45;&gt;Node24 -->
<g id="edge38_Node000009_Node000024" class="edge">
<title>Node9&#45;&gt;Node24</title>
<g id="a_edge38_Node000009_Node000024"><a xlink:title=" ">
<path fill="none" stroke="#63b8ff" d="M1013.07,-326.25C986.82,-322.56 954.28,-317.99 931.04,-314.72"/>
<polygon fill="#63b8ff" stroke="#63b8ff" points="1012.77,-329.75 1023.16,-327.67 1013.74,-322.81 1012.77,-329.75"/>
</a>
</g>
</g>
<!-- Node11 -->
<g id="Node000011" class="node">
<title>Node11</title>
<g id="a_Node000011"><a xlink:href="write__mass__maps_8c.html#a523d76e3e01c2ce2c7d973cf5ad60cb6" target="_top" xlink:title=" ">
<polygon fill="white" stroke="#666666" points="487,-397 321,-397 321,-378 487,-378 487,-397"/>
<text text-anchor="middle" x="404" y="-385" font-family="Helvetica,sans-Serif" font-size="10.00">mass_maps_process_segment</text>
</a>
</g>
</g>
<!-- Node10&#45;&gt;Node11 -->
<g id="edge11_Node000010_Node000011" class="edge">
<title>Node10&#45;&gt;Node11</title>
<g id="a_edge11_Node000010_Node000011"><a xlink:title=" ">
<path fill="none" stroke="#63b8ff" d="M825.76,-371.32C735.32,-374.8 581.89,-380.7 487.42,-384.33"/>
<polygon fill="#63b8ff" stroke="#63b8ff" points="826.07,-374.81 835.93,-370.93 825.81,-367.81 826.07,-374.81"/>
</a>
</g>
</g>
<!-- Node11&#45;&gt;Node7 -->
<g id="edge12_Node000011_Node000007" class="edge">
<title>Node11&#45;&gt;Node7</title>
<g id="a_edge12_Node000011_Node000007"><a xlink:title=" ">
<path fill="none" stroke="#63b8ff" d="M310.62,-387.5C298.73,-387.5 287.31,-387.5 277.53,-387.5"/>
<polygon fill="#63b8ff" stroke="#63b8ff" points="310.7,-391 320.7,-387.5 310.7,-384 310.7,-391"/>
</a>
</g>
</g>
<!-- Node13 -->
<g id="Node000013" class="node">
<title>Node13</title>
<g id="a_Node000013"><a xlink:href="build__groups_8c.html#a530b060f5cb84e65a11f345fffd25bd0" target="_top" xlink:title=" ">
<polygon fill="white" stroke="#666666" points="765.5,-320 703.5,-320 703.5,-301 765.5,-301 765.5,-320"/>
<text text-anchor="middle" x="734.5" y="-308" font-family="Helvetica,sans-Serif" font-size="10.00">accretion</text>
</a>
</g>
</g>
<!-- Node12&#45;&gt;Node13 -->
<g id="edge14_Node000012_Node000013" class="edge">
<title>Node12&#45;&gt;Node13</title>
<g id="a_edge14_Node000012_Node000013"><a xlink:title=" ">
<path fill="none" stroke="#63b8ff" d="M881.38,-234.89C862.56,-251.59 831.2,-277.16 800,-292.5 789.25,-297.78 776.71,-301.73 765.56,-304.56"/>
<polygon fill="#63b8ff" stroke="#63b8ff" points="883.8,-237.42 888.88,-228.12 879.11,-232.23 883.8,-237.42"/>
</a>
</g>
</g>
<!-- Node16 -->
<g id="Node000016" class="node">
<title>Node16</title>
<g id="a_Node000016"><a xlink:href="build__groups_8c.html#af69f24bb7de71a95c009a1ec9b9d9081" target="_top" xlink:title=" ">
<polygon fill="white" stroke="#666666" points="800,-283 669,-283 669,-264 800,-264 800,-283"/>
<text text-anchor="middle" x="734.5" y="-271" font-family="Helvetica,sans-Serif" font-size="10.00">condition_for_accretion</text>
</a>
</g>
</g>
<!-- Node12&#45;&gt;Node16 -->
<g id="edge19_Node000012_Node000016" class="edge">
<title>Node12&#45;&gt;Node16</title>
<g id="a_edge19_Node000012_Node000016"><a xlink:title=" ">
<path fill="none" stroke="#63b8ff" d="M865.75,-231.74C846.65,-239.14 822.14,-248.29 800,-255.5 790.94,-258.45 781.06,-261.36 771.82,-263.95"/>
<polygon fill="#63b8ff" stroke="#63b8ff" points="867.15,-234.95 875.2,-228.05 864.61,-228.43 867.15,-234.95"/>
</a>
</g>
</g>
<!-- Node17 -->
<g id="Node000017" class="node">
<title>Node17</title>
<g id="a_Node000017"><a xlink:href="build__groups_8c.html#ac7da2c9afeba949ceefcfd46146d5067" target="_top" xlink:title=" ">
<polygon fill="white" stroke="#666666" points="797.5,-209 671.5,-209 671.5,-190 797.5,-190 797.5,-209"/>
<text text-anchor="middle" x="734.5" y="-197" font-family="Helvetica,sans-Serif" font-size="10.00">condition_for_merging</text>
</a>
</g>
</g>
<!-- Node12&#45;&gt;Node17 -->
<g id="edge22_Node000012_Node000017" class="edge">
<title>Node12&#45;&gt;Node17</title>
<g id="a_edge22_Node000012_Node000017"><a xlink:title=" ">
<path fill="none" stroke="#63b8ff" d="M863.7,-214.4C844.47,-212.16 820.12,-209.33 797.81,-206.74"/>
<polygon fill="#63b8ff" stroke="#63b8ff" points="863.47,-217.9 873.81,-215.57 864.28,-210.94 863.47,-217.9"/>
</a>
</g>
</g>
<!-- Node18 -->
<g id="Node000018" class="node">
<title>Node18</title>
<g id="a_Node000018"><a xlink:href="build__groups_8c.html#a69a7cc51af8af468a60cbbd2894fdb46" target="_top" xlink:title=" ">
<polygon fill="white" stroke="#666666" points="777,-76 692,-76 692,-57 777,-57 777,-76"/>
<text text-anchor="middle" x="734.5" y="-64" font-family="Helvetica,sans-Serif" font-size="10.00">condition_PLC</text>
</a>
</g>
</g>
<!-- Node12&#45;&gt;Node18 -->
<g id="edge25_Node000012_Node000018" class="edge">
<title>Node12&#45;&gt;Node18</title>
<g id="a_edge25_Node000012_Node000018"><a xlink:title=" ">
<path fill="none" stroke="#63b8ff" d="M885.47,-200.78C867.47,-177.89 833.96,-137.54 800,-108.5 785.17,-95.82 766.28,-83.94 752.78,-76.08"/>
<polygon fill="#63b8ff" stroke="#63b8ff" points="882.88,-203.16 891.78,-208.91 888.41,-198.86 882.88,-203.16"/>
</a>
</g>
</g>
<!-- Node21 -->
<g id="Node000021" class="node">
<title>Node21</title>
<g id="a_Node000021"><a xlink:href="build__groups_8c.html#ac1deaf6b88e43b32cf38f79488b5d54f" target="_top" xlink:title=" ">
<polygon fill="white" stroke="#666666" points="777.5,-246 691.5,-246 691.5,-227 777.5,-227 777.5,-246"/>
<text text-anchor="middle" x="734.5" y="-234" font-family="Helvetica,sans-Serif" font-size="10.00">merge_groups</text>
</a>
</g>
</g>
<!-- Node12&#45;&gt;Node21 -->
<g id="edge31_Node000012_Node000021" class="edge">
<title>Node12&#45;&gt;Node21</title>
<g id="a_edge31_Node000012_Node000021"><a xlink:title=" ">
<path fill="none" stroke="#63b8ff" d="M863.57,-222.4C838.31,-225.18 804.23,-228.93 777.58,-231.87"/>
<polygon fill="#63b8ff" stroke="#63b8ff" points="864.25,-225.85 873.81,-221.27 863.49,-218.89 864.25,-225.85"/>
</a>
</g>
</g>
<!-- Node22 -->
<g id="Node000022" class="node">
<title>Node22</title>
<g id="a_Node000022"><a xlink:href="build__groups_8c.html#adaafe9165f4f93104de87c14939d2c60" target="_top" xlink:title=" ">
<polygon fill="white" stroke="#666666" points="610.5,-169 545.5,-169 545.5,-150 610.5,-150 610.5,-169"/>
<text text-anchor="middle" x="578" y="-157" font-family="Helvetica,sans-Serif" font-size="10.00">store_PLC</text>
</a>
</g>
</g>
<!-- Node12&#45;&gt;Node22 -->
<g id="edge34_Node000012_Node000022" class="edge">
<title>Node12&#45;&gt;Node22</title>
<g id="a_edge34_Node000012_Node000022"><a xlink:title=" ">
<path fill="none" stroke="#63b8ff" d="M868.79,-204.88C849.5,-196.77 823.74,-187.02 800,-181.5 733.71,-166.09 653.78,-161.47 610.52,-160.09"/>
<polygon fill="#63b8ff" stroke="#63b8ff" points="867.68,-208.21 878.25,-208.94 870.44,-201.78 867.68,-208.21"/>
</a>
</g>
</g>
<!-- Node23 -->
<g id="Node000023" class="node">
<title>Node23</title>
<g id="a_Node000023"><a xlink:href="write__halos_8c.html#a4ae40bdaead20fb1a2a22663d299b9e7" target="_top" xlink:title=" ">
<polygon fill="white" stroke="#666666" points="619.5,-132 536.5,-132 536.5,-113 619.5,-113 619.5,-132"/>
<text text-anchor="middle" x="578" y="-120" font-family="Helvetica,sans-Serif" font-size="10.00">write_catalog</text>
</a>
</g>
</g>
<!-- Node12&#45;&gt;Node23 -->
<g id="edge36_Node000012_Node000023" class="edge">
<title>Node12&#45;&gt;Node23</title>
<g id="a_edge36_Node000012_Node000023"><a xlink:title=" ">
<path fill="none" stroke="#63b8ff" d="M878.4,-202.76C859.17,-188.88 829.14,-169.24 800,-158.5 739.63,-136.25 664.95,-127.72 619.7,-124.47"/>
<polygon fill="#63b8ff" stroke="#63b8ff" points="876.55,-205.74 886.68,-208.86 880.71,-200.11 876.55,-205.74"/>
</a>
</g>
</g>
<!-- Node14 -->
<g id="Node000014" class="node">
<title>Node14</title>
<g id="a_Node000014"><a xlink:href="build__groups_8c.html#a4df1001cc86732388d8ecf04e3372827" target="_top" xlink:title=" ">
<polygon fill="white" stroke="#666666" points="443.5,-188 364.5,-188 364.5,-169 443.5,-169 443.5,-188"/>
<text text-anchor="middle" x="404" y="-176" font-family="Helvetica,sans-Serif" font-size="10.00">build_groups</text>
</a>
</g>
</g>
<!-- Node13&#45;&gt;Node14 -->
<g id="edge15_Node000013_Node000014" class="edge">
<title>Node13&#45;&gt;Node14</title>
<g id="a_edge15_Node000013_Node000014"><a xlink:title=" ">
<path fill="none" stroke="#63b8ff" d="M693.31,-319.87C649.39,-328.02 577.97,-335.09 523,-310.5 464.92,-284.52 423.61,-214.25 409.93,-188.3"/>
<polygon fill="#63b8ff" stroke="#63b8ff" points="694.18,-323.26 703.32,-317.9 692.83,-316.39 694.18,-323.26"/>
</a>
</g>
</g>
<!-- Node15 -->
<g id="Node000015" class="node">
<title>Node15</title>
<g id="a_Node000015"><a xlink:href="build__groups_8c.html#a4c36038b339975ce63e8ac2c89f55208" target="_top" xlink:title=" ">
<polygon fill="white" stroke="#666666" points="633,-283 523,-283 523,-264 633,-264 633,-283"/>
<text text-anchor="middle" x="578" y="-271" font-family="Helvetica,sans-Serif" font-size="10.00">quick_build_groups</text>
</a>
</g>
</g>
<!-- Node13&#45;&gt;Node15 -->
<g id="edge17_Node000013_Node000015" class="edge">
<title>Node13&#45;&gt;Node15</title>
<g id="a_edge17_Node000013_Node000015"><a xlink:title=" ">
<path fill="none" stroke="#63b8ff" d="M693.55,-300.93C670.54,-295.42 641.72,-288.52 618.74,-283.02"/>
<polygon fill="#63b8ff" stroke="#63b8ff" points="692.8,-304.35 703.34,-303.28 694.43,-297.55 692.8,-304.35"/>
</a>
</g>
</g>
<!-- Node14&#45;&gt;Node7 -->
<g id="edge16_Node000014_Node000007" class="edge">
<title>Node14&#45;&gt;Node7</title>
<g id="a_edge16_Node000014_Node000007"><a xlink:title=" ">
<path fill="none" stroke="#63b8ff" d="M389.75,-196.31C358.08,-238.87 278.82,-345.4 254.63,-377.92"/>
<polygon fill="#63b8ff" stroke="#63b8ff" points="392.75,-198.14 395.91,-188.02 387.14,-193.96 392.75,-198.14"/>
</a>
</g>
</g>
<!-- Node15&#45;&gt;Node7 -->
<g id="edge18_Node000015_Node000007" class="edge">
<title>Node15&#45;&gt;Node7</title>
<g id="a_edge18_Node000015_Node000007"><a xlink:title=" ">
<path fill="none" stroke="#63b8ff" d="M539.78,-286.38C473,-309.48 334.31,-357.46 275.18,-377.92"/>
<polygon fill="#63b8ff" stroke="#63b8ff" points="541.17,-289.6 549.47,-283.02 538.88,-282.99 541.17,-289.6"/>
</a>
</g>
</g>
<!-- Node16&#45;&gt;Node14 -->
<g id="edge20_Node000016_Node000014" class="edge">
<title>Node16&#45;&gt;Node14</title>
<g id="a_edge20_Node000016_Node000014"><a xlink:title=" ">
<path fill="none" stroke="#63b8ff" d="M682.57,-285.04C666.77,-288.1 649.24,-290.98 633,-292.5 584.32,-297.06 568.33,-310.82 523,-292.5 469.12,-270.73 426.18,-211.26 410.96,-188"/>
<polygon fill="#63b8ff" stroke="#63b8ff" points="683.56,-288.41 692.67,-283.01 682.18,-281.55 683.56,-288.41"/>
</a>
</g>
</g>
<!-- Node16&#45;&gt;Node15 -->
<g id="edge21_Node000016_Node000015" class="edge">
<title>Node16&#45;&gt;Node15</title>
<g id="a_edge21_Node000016_Node000015"><a xlink:title=" ">
<path fill="none" stroke="#63b8ff" d="M658.76,-273.5C650.1,-273.5 641.4,-273.5 633.09,-273.5"/>
<polygon fill="#63b8ff" stroke="#63b8ff" points="658.87,-277 668.87,-273.5 658.87,-270 658.87,-277"/>
</a>
</g>
</g>
<!-- Node17&#45;&gt;Node14 -->
<g id="edge23_Node000017_Node000014" class="edge">
<title>Node17&#45;&gt;Node14</title>
<g id="a_edge23_Node000017_Node000014"><a xlink:title=" ">
<path fill="none" stroke="#63b8ff" d="M661.26,-194.88C594.28,-190.6 497.16,-184.39 443.78,-180.98"/>
<polygon fill="#63b8ff" stroke="#63b8ff" points="661.12,-198.38 671.33,-195.53 661.57,-191.39 661.12,-198.38"/>
</a>
</g>
</g>
<!-- Node17&#45;&gt;Node15 -->
<g id="edge24_Node000017_Node000015" class="edge">
<title>Node17&#45;&gt;Node15</title>
<g id="a_edge24_Node000017_Node000015"><a xlink:title=" ">
<path fill="none" stroke="#63b8ff" d="M685.14,-212.23C679.62,-214.13 674.14,-216.22 669,-218.5 640.04,-231.35 609.12,-251.95 592.12,-263.96"/>
<polygon fill="#63b8ff" stroke="#63b8ff" points="686.61,-215.44 695.05,-209.03 684.46,-208.77 686.61,-215.44"/>
</a>
</g>
</g>
<!-- Node18&#45;&gt;Node14 -->
<g id="edge26_Node000018_Node000014" class="edge">
<title>Node18&#45;&gt;Node14</title>
<g id="a_edge26_Node000018_Node000014"><a xlink:title=" ">
<path fill="none" stroke="#63b8ff" d="M681.69,-56.11C637.81,-49.7 574.06,-46.12 523,-66.5 469.75,-87.75 426.75,-145.72 411.23,-168.82"/>
<polygon fill="#63b8ff" stroke="#63b8ff" points="681.42,-59.61 691.85,-57.69 682.5,-52.69 681.42,-59.61"/>
</a>
</g>
</g>
<!-- Node19 -->
<g id="Node000019" class="node">
<title>Node19</title>
<g id="a_Node000019"><a xlink:href="build__groups_8c.html#a2df593120b6334c80adfd6ac44b0762b" target="_top" xlink:title=" ">
<polygon fill="white" stroke="#666666" points="614.5,-19 541.5,-19 541.5,0 614.5,0 614.5,-19"/>
<text text-anchor="middle" x="578" y="-7" font-family="Helvetica,sans-Serif" font-size="10.00">condition_F</text>
</a>
</g>
</g>
<!-- Node18&#45;&gt;Node19 -->
<g id="edge27_Node000018_Node000019" class="edge">
<title>Node18&#45;&gt;Node19</title>
<g id="a_edge27_Node000018_Node000019"><a xlink:title=" ">
<path fill="none" stroke="#63b8ff" d="M698.09,-53.43C669.69,-42.96 630.49,-28.49 604.94,-19.07"/>
<polygon fill="#63b8ff" stroke="#63b8ff" points="697.05,-56.78 707.64,-56.96 699.47,-50.21 697.05,-56.78"/>
</a>
</g>
</g>
<!-- Node20 -->
<g id="Node000020" class="node">
<title>Node20</title>
<g id="a_Node000020"><a xlink:href="build__groups_8c.html#a86827bbf037c84cece9492cbbb3cbaef" target="_top" xlink:title=" ">
<polygon fill="white" stroke="#666666" points="610.5,-95 545.5,-95 545.5,-76 610.5,-76 610.5,-95"/>
<text text-anchor="middle" x="578" y="-83" font-family="Helvetica,sans-Serif" font-size="10.00">find_brent</text>
</a>
</g>
</g>
<!-- Node18&#45;&gt;Node20 -->
<g id="edge29_Node000018_Node000020" class="edge">
<title>Node18&#45;&gt;Node20</title>
<g id="a_edge29_Node000018_Node000020"><a xlink:title=" ">
<path fill="none" stroke="#63b8ff" d="M681.51,-72.89C657.98,-75.79 630.95,-79.11 610.55,-81.62"/>
<polygon fill="#63b8ff" stroke="#63b8ff" points="682.19,-76.34 691.69,-71.64 681.34,-69.39 682.19,-76.34"/>
</a>
</g>
</g>
<!-- Node19&#45;&gt;Node14 -->
<g id="edge28_Node000019_Node000014" class="edge">
<title>Node19&#45;&gt;Node14</title>
<g id="a_edge28_Node000019_Node000014"><a xlink:title=" ">
<path fill="none" stroke="#63b8ff" d="M539.77,-23.25C533.89,-26.2 528.08,-29.61 523,-33.5 469.89,-74.12 425.85,-143.26 410.67,-168.72"/>
<polygon fill="#63b8ff" stroke="#63b8ff" points="541.36,-26.37 548.98,-19.01 538.43,-20.02 541.36,-26.37"/>
</a>
</g>
</g>
<!-- Node20&#45;&gt;Node14 -->
<g id="edge30_Node000020_Node000014" class="edge">
<title>Node20&#45;&gt;Node14</title>
<g id="a_edge30_Node000020_Node000014"><a xlink:title=" ">
<path fill="none" stroke="#63b8ff" d="M536.52,-98.63C531.9,-100.46 527.31,-102.42 523,-104.5 482.92,-123.82 439.5,-153.6 418.24,-168.82"/>
<polygon fill="#63b8ff" stroke="#63b8ff" points="537.83,-101.88 545.96,-95.1 535.37,-95.33 537.83,-101.88"/>
</a>
</g>
</g>
<!-- Node21&#45;&gt;Node14 -->
<g id="edge32_Node000021_Node000014" class="edge">
<title>Node21&#45;&gt;Node14</title>
<g id="a_edge32_Node000021_Node000014"><a xlink:title=" ">
<path fill="none" stroke="#63b8ff" d="M681.3,-229.11C638.63,-222.87 576.77,-213.4 523,-203.5 496.43,-198.61 466.68,-192.3 443.69,-187.24"/>
<polygon fill="#63b8ff" stroke="#63b8ff" points="681.05,-232.61 691.45,-230.58 682.06,-225.68 681.05,-232.61"/>
</a>
</g>
</g>
<!-- Node21&#45;&gt;Node15 -->
<g id="edge33_Node000021_Node000015" class="edge">
<title>Node21&#45;&gt;Node15</title>
<g id="a_edge33_Node000021_Node000015"><a xlink:title=" ">
<path fill="none" stroke="#63b8ff" d="M683.7,-248.43C662.75,-253.44 638.69,-259.21 618.92,-263.94"/>
<polygon fill="#63b8ff" stroke="#63b8ff" points="684.8,-251.76 693.71,-246.03 683.17,-244.95 684.8,-251.76"/>
</a>
</g>
</g>
<!-- Node22&#45;&gt;Node14 -->
<g id="edge35_Node000022_Node000014" class="edge">
<title>Node22&#45;&gt;Node14</title>
<g id="a_edge35_Node000022_Node000014"><a xlink:title=" ">
<path fill="none" stroke="#63b8ff" d="M535.2,-164.12C507.28,-167.2 470.81,-171.23 443.57,-174.24"/>
<polygon fill="#63b8ff" stroke="#63b8ff" points="535.9,-167.56 545.45,-162.98 535.13,-160.6 535.9,-167.56"/>
</a>
</g>
</g>
<!-- Node23&#45;&gt;Node14 -->
<g id="edge37_Node000023_Node000014" class="edge">
<title>Node23&#45;&gt;Node14</title>
<g id="a_edge37_Node000023_Node000014"><a xlink:title=" ">
<path fill="none" stroke="#63b8ff" d="M537.66,-135.31C506.14,-145.57 462.65,-159.73 434.18,-169"/>
<polygon fill="#63b8ff" stroke="#63b8ff" points="539.01,-138.55 547.43,-132.13 536.84,-131.89 539.01,-138.55"/>
</a>
</g>
</g>
<!-- Node24&#45;&gt;Node13 -->
<g id="edge39_Node000024_Node000013" class="edge">
<title>Node24&#45;&gt;Node13</title>
<g id="a_edge39_Node000024_Node000013"><a xlink:title=" ">
<path fill="none" stroke="#63b8ff" d="M858.5,-310.5C829.76,-310.5 791.81,-310.5 765.71,-310.5"/>
<polygon fill="#63b8ff" stroke="#63b8ff" points="858.63,-314 868.63,-310.5 858.63,-307 858.63,-314"/>
</a>
</g>
</g>
<!-- Node24&#45;&gt;Node16 -->
<g id="edge40_Node000024_Node000016" class="edge">
<title>Node24&#45;&gt;Node16</title>
<g id="a_edge40_Node000024_Node000016"><a xlink:title=" ">
<path fill="none" stroke="#63b8ff" d="M858.88,-301.42C834.24,-295.85 802.74,-288.72 777.73,-283.06"/>
<polygon fill="#63b8ff" stroke="#63b8ff" points="858.1,-304.83 868.63,-303.63 859.65,-298.01 858.1,-304.83"/>
</a>
</g>
</g>
</g>
</svg>
