<?xml version="1.0" encoding="UTF-8" standalone="no"?>
<!DOCTYPE svg PUBLIC "-//W3C//DTD SVG 1.1//EN"
 "http://www.w3.org/Graphics/SVG/1.1/DTD/svg11.dtd">
<!-- Generated by graphviz version 2.43.0 (0)
 -->
<!-- Title: InverseGrowingMode Pages: 1 -->
<svg width="732pt" height="27pt"
 viewBox="0.00 0.00 732.00 27.00" xmlns="http://www.w3.org/2000/svg" xmlns:xlink="http://www.w3.org/1999/xlink">
<g id="graph0" class="graph" transform="scale(1 1) rotate(0) translate(4 23)">
<title>InverseGrowingMode</title>
<!-- Node1 -->
<g id="Node000001" class="node">
<title>Node1</title>
<g id="a_Node000001"><a xlink:title=" ">
<polygon fill="#999999" stroke="#666666" points="724,-19 604,-19 604,0 724,0 724,-19"/>
<text text-anchor="middle" x="664" y="-7" font-family="Helvetica,sans-Serif" font-size="10.00">InverseGrowingMode</text>
</a>
</g>
</g>
<!-- Node2 -->
<g id="Node000002" class="node">
<title>Node2</title>
<g id="a_Node000002"><a xlink:href="collapse__times_8c.html#a17f64ed25a27688514593ecaed77105a" target="_top" xlink:title=" ">
<polygon fill="white" stroke="#666666" points="568,-19 539,-19 539,0 568,0 568,-19"/>
<text text-anchor="middle" x="553.5" y="-7" font-family="Helvetica,sans-Serif" font-size="10.00">ell</text>
</a>
</g>
</g>
<!-- Node1&#45;&gt;Node2 -->
<g id="edge1_Node000001_Node000002" class="edge">
<title>Node1&#45;&gt;Node2</title>
<g id="a_edge1_Node000001_Node000002"><a xlink:title=" ">
<path fill="none" stroke="#63b8ff" d="M593.98,-9.5C584.14,-9.5 575.01,-9.5 568.02,-9.5"/>
<polygon fill="#63b8ff" stroke="#63b8ff" points="593.99,-13 603.99,-9.5 593.99,-6 593.99,-13"/>
</a>
</g>
</g>
<!-- Node3 -->
<g id="Node000003" class="node">
<title>Node3</title>
<g id="a_Node000003"><a xlink:href="collapse__times_8c.html#a6b93e952f9a470157498b9a72ea1e22f" target="_top" xlink:title=" ">
<polygon fill="white" stroke="#666666" points="503,-19 377,-19 377,0 503,0 503,-19"/>
<text text-anchor="middle" x="440" y="-7" font-family="Helvetica,sans-Serif" font-size="10.00">inverse_collapse_time</text>
</a>
</g>
</g>
<!-- Node2&#45;&gt;Node3 -->
<g id="edge2_Node000002_Node000003" class="edge">
<title>Node2&#45;&gt;Node3</title>
<g id="a_edge2_Node000002_Node000003"><a xlink:title=" ">
<path fill="none" stroke="#63b8ff" d="M528.65,-9.5C521.04,-9.5 512.23,-9.5 503.2,-9.5"/>
<polygon fill="#63b8ff" stroke="#63b8ff" points="528.83,-13 538.83,-9.5 528.83,-6 528.83,-13"/>
</a>
</g>
</g>
<!-- Node4 -->
<g id="Node000004" class="node">
<title>Node4</title>
<g id="a_Node000004"><a xlink:href="collapse__times_8c.html#a7de3cd9744dabc41d67e31ed8c5928de" target="_top" xlink:title=" ">
<polygon fill="white" stroke="#666666" points="341,-19 203,-19 203,0 341,0 341,-19"/>
<text text-anchor="middle" x="272" y="-7" font-family="Helvetica,sans-Serif" font-size="10.00">compute_collapse_times</text>
</a>
</g>
</g>
<!-- Node3&#45;&gt;Node4 -->
<g id="edge3_Node000003_Node000004" class="edge">
<title>Node3&#45;&gt;Node4</title>
<g id="a_edge3_Node000003_Node000004"><a xlink:title=" ">
<path fill="none" stroke="#63b8ff" d="M366.54,-9.5C358.12,-9.5 349.56,-9.5 341.2,-9.5"/>
<polygon fill="#63b8ff" stroke="#63b8ff" points="366.72,-13 376.72,-9.5 366.72,-6 366.72,-13"/>
</a>
</g>
</g>
<!-- Node5 -->
<g id="Node000005" class="node">
<title>Node5</title>
<g id="a_Node000005"><a xlink:href="fmax_8c.html#ac6c918d99a0517c1106d2b330c087f8a" target="_top" xlink:title=" ">
<polygon fill="white" stroke="#666666" points="167,-19 77,-19 77,0 167,0 167,-19"/>
<text text-anchor="middle" x="122" y="-7" font-family="Helvetica,sans-Serif" font-size="10.00">compute_fmax</text>
</a>
</g>
</g>
<!-- Node4&#45;&gt;Node5 -->
<g id="edge4_Node000004_Node000005" class="edge">
<title>Node4&#45;&gt;Node5</title>
<g id="a_edge4_Node000004_Node000005"><a xlink:title=" ">
<path fill="none" stroke="#63b8ff" d="M192.52,-9.5C183.91,-9.5 175.38,-9.5 167.4,-9.5"/>
<polygon fill="#63b8ff" stroke="#63b8ff" points="192.63,-13 202.63,-9.5 192.63,-6 192.63,-13"/>
</a>
</g>
</g>
<!-- Node6 -->
<g id="Node000006" class="node">
<title>Node6</title>
<g id="a_Node000006"><a xlink:href="pinocchio_8c.html#a647f21a28344e1d9c643f4115516d7c9" target="_top" xlink:title=" ">
<polygon fill="white" stroke="#666666" points="41,-19 0,-19 0,0 41,0 41,-19"/>
<text text-anchor="middle" x="20.5" y="-7" font-family="Helvetica,sans-Serif" font-size="10.00">main</text>
</a>
</g>
</g>
<!-- Node5&#45;&gt;Node6 -->
<g id="edge5_Node000005_Node000006" class="edge">
<title>Node5&#45;&gt;Node6</title>
<g id="a_edge5_Node000005_Node000006"><a xlink:title=" ">
<path fill="none" stroke="#63b8ff" d="M66.52,-9.5C57.46,-9.5 48.6,-9.5 41.18,-9.5"/>
<polygon fill="#63b8ff" stroke="#63b8ff" points="66.78,-13 76.78,-9.5 66.78,-6 66.78,-13"/>
</a>
</g>
</g>
</g>
</svg>
