<?xml version="1.0" encoding="UTF-8" standalone="no"?>
<!DOCTYPE svg PUBLIC "-//W3C//DTD SVG 1.1//EN"
 "http://www.w3.org/Graphics/SVG/1.1/DTD/svg11.dtd">
<!-- Generated by graphviz version 2.43.0 (0)
 -->
<!-- Title: jac Pages: 1 -->
<svg width="796pt" height="65pt"
 viewBox="0.00 0.00 796.00 65.00" xmlns="http://www.w3.org/2000/svg" xmlns:xlink="http://www.w3.org/1999/xlink">
<g id="graph0" class="graph" transform="scale(1 1) rotate(0) translate(4 61)">
<title>jac</title>
<!-- Node1 -->
<g id="Node000001" class="node">
<title>Node1</title>
<g id="a_Node000001"><a xlink:title=" ">
<polygon fill="#999999" stroke="#666666" points="788,-37 757,-37 757,-18 788,-18 788,-37"/>
<text text-anchor="middle" x="772.5" y="-25" font-family="Helvetica,sans-Serif" font-size="10.00">jac</text>
</a>
</g>
</g>
<!-- Node2 -->
<g id="Node000002" class="node">
<title>Node2</title>
<g id="a_Node000002"><a xlink:href="collapse__times_8c.html#a5a4ca2ffca6643912e7efcad849494a8" target="_top" xlink:title=" ">
<polygon fill="white" stroke="#666666" points="688,-56 637,-56 637,-37 688,-37 688,-56"/>
<text text-anchor="middle" x="662.5" y="-44" font-family="Helvetica,sans-Serif" font-size="10.00">ell_sng</text>
</a>
</g>
</g>
<!-- Node1&#45;&gt;Node2 -->
<g id="edge1_Node000001_Node000002" class="edge">
<title>Node1&#45;&gt;Node2</title>
<g id="a_edge1_Node000001_Node000002"><a xlink:title=" ">
<path fill="none" stroke="#63b8ff" d="M746.87,-31.83C729.28,-34.93 705.73,-39.07 688.15,-42.16"/>
<polygon fill="#63b8ff" stroke="#63b8ff" points="747.69,-35.24 756.93,-30.06 746.48,-28.35 747.69,-35.24"/>
</a>
</g>
</g>
<!-- Node8 -->
<g id="Node000008" class="node">
<title>Node8</title>
<g id="a_Node000008"><a xlink:href="cosmo_8c.html#a53b1cc7220c453661866a82f48ce0fb5" target="_top" xlink:title=" ">
<polygon fill="white" stroke="#666666" points="721,-19 604,-19 604,0 721,0 721,-19"/>
<text text-anchor="middle" x="662.5" y="-7" font-family="Helvetica,sans-Serif" font-size="10.00">initialize_cosmology</text>
</a>
</g>
</g>
<!-- Node1&#45;&gt;Node8 -->
<g id="edge7_Node000001_Node000008" class="edge">
<title>Node1&#45;&gt;Node8</title>
<g id="a_edge7_Node000001_Node000008"><a xlink:title=" ">
<path fill="none" stroke="#63b8ff" d="M747.01,-23.42C739.11,-22.1 729.99,-20.58 720.74,-19.04"/>
<polygon fill="#63b8ff" stroke="#63b8ff" points="746.5,-26.88 756.93,-25.07 747.65,-19.98 746.5,-26.88"/>
</a>
</g>
</g>
<!-- Node3 -->
<g id="Node000003" class="node">
<title>Node3</title>
<g id="a_Node000003"><a xlink:href="collapse__times_8c.html#a17f64ed25a27688514593ecaed77105a" target="_top" xlink:title=" ">
<polygon fill="white" stroke="#666666" points="568,-57 539,-57 539,-38 568,-38 568,-57"/>
<text text-anchor="middle" x="553.5" y="-45" font-family="Helvetica,sans-Serif" font-size="10.00">ell</text>
</a>
</g>
</g>
<!-- Node2&#45;&gt;Node3 -->
<g id="edge2_Node000002_Node000003" class="edge">
<title>Node2&#45;&gt;Node3</title>
<g id="a_edge2_Node000002_Node000003"><a xlink:title=" ">
<path fill="none" stroke="#63b8ff" d="M626.93,-46.82C606.94,-47.01 582.89,-47.23 568.15,-47.37"/>
<polygon fill="#63b8ff" stroke="#63b8ff" points="626.99,-50.32 636.95,-46.73 626.92,-43.32 626.99,-50.32"/>
</a>
</g>
</g>
<!-- Node4 -->
<g id="Node000004" class="node">
<title>Node4</title>
<g id="a_Node000004"><a xlink:href="collapse__times_8c.html#a6b93e952f9a470157498b9a72ea1e22f" target="_top" xlink:title=" ">
<polygon fill="white" stroke="#666666" points="503,-57 377,-57 377,-38 503,-38 503,-57"/>
<text text-anchor="middle" x="440" y="-45" font-family="Helvetica,sans-Serif" font-size="10.00">inverse_collapse_time</text>
</a>
</g>
</g>
<!-- Node3&#45;&gt;Node4 -->
<g id="edge3_Node000003_Node000004" class="edge">
<title>Node3&#45;&gt;Node4</title>
<g id="a_edge3_Node000003_Node000004"><a xlink:title=" ">
<path fill="none" stroke="#63b8ff" d="M528.65,-47.5C521.04,-47.5 512.23,-47.5 503.2,-47.5"/>
<polygon fill="#63b8ff" stroke="#63b8ff" points="528.83,-51 538.83,-47.5 528.83,-44 528.83,-51"/>
</a>
</g>
</g>
<!-- Node5 -->
<g id="Node000005" class="node">
<title>Node5</title>
<g id="a_Node000005"><a xlink:href="collapse__times_8c.html#a7de3cd9744dabc41d67e31ed8c5928de" target="_top" xlink:title=" ">
<polygon fill="white" stroke="#666666" points="341,-57 203,-57 203,-38 341,-38 341,-57"/>
<text text-anchor="middle" x="272" y="-45" font-family="Helvetica,sans-Serif" font-size="10.00">compute_collapse_times</text>
</a>
</g>
</g>
<!-- Node4&#45;&gt;Node5 -->
<g id="edge4_Node000004_Node000005" class="edge">
<title>Node4&#45;&gt;Node5</title>
<g id="a_edge4_Node000004_Node000005"><a xlink:title=" ">
<path fill="none" stroke="#63b8ff" d="M366.54,-47.5C358.12,-47.5 349.56,-47.5 341.2,-47.5"/>
<polygon fill="#63b8ff" stroke="#63b8ff" points="366.72,-51 376.72,-47.5 366.72,-44 366.72,-51"/>
</a>
</g>
</g>
<!-- Node6 -->
<g id="Node000006" class="node">
<title>Node6</title>
<g id="a_Node000006"><a xlink:href="fmax_8c.html#ac6c918d99a0517c1106d2b330c087f8a" target="_top" xlink:title=" ">
<polygon fill="white" stroke="#666666" points="167,-57 77,-57 77,-38 167,-38 167,-57"/>
<text text-anchor="middle" x="122" y="-45" font-family="Helvetica,sans-Serif" font-size="10.00">compute_fmax</text>
</a>
</g>
</g>
<!-- Node5&#45;&gt;Node6 -->
<g id="edge5_Node000005_Node000006" class="edge">
<title>Node5&#45;&gt;Node6</title>
<g id="a_edge5_Node000005_Node000006"><a xlink:title=" ">
<path fill="none" stroke="#63b8ff" d="M192.52,-47.5C183.91,-47.5 175.38,-47.5 167.4,-47.5"/>
<polygon fill="#63b8ff" stroke="#63b8ff" points="192.63,-51 202.63,-47.5 192.63,-44 192.63,-51"/>
</a>
</g>
</g>
<!-- Node7 -->
<g id="Node000007" class="node">
<title>Node7</title>
<g id="a_Node000007"><a xlink:href="pinocchio_8c.html#a647f21a28344e1d9c643f4115516d7c9" target="_top" xlink:title=" ">
<polygon fill="white" stroke="#666666" points="41,-38 0,-38 0,-19 41,-19 41,-38"/>
<text text-anchor="middle" x="20.5" y="-26" font-family="Helvetica,sans-Serif" font-size="10.00">main</text>
</a>
</g>
</g>
<!-- Node6&#45;&gt;Node7 -->
<g id="edge6_Node000006_Node000007" class="edge">
<title>Node6&#45;&gt;Node7</title>
<g id="a_edge6_Node000006_Node000007"><a xlink:title=" ">
<path fill="none" stroke="#63b8ff" d="M66.81,-37.15C57.65,-35.4 48.68,-33.69 41.18,-32.26"/>
<polygon fill="#63b8ff" stroke="#63b8ff" points="66.3,-40.62 76.78,-39.06 67.61,-33.74 66.3,-40.62"/>
</a>
</g>
</g>
<!-- Node9 -->
<g id="Node000009" class="node">
<title>Node9</title>
<g id="a_Node000009"><a xlink:href="initialization_8c.html#a2bed034b4a40d49d0765d1ce741bd8a9" target="_top" xlink:title=" ">
<polygon fill="white" stroke="#666666" points="478.5,-19 401.5,-19 401.5,0 478.5,0 478.5,-19"/>
<text text-anchor="middle" x="440" y="-7" font-family="Helvetica,sans-Serif" font-size="10.00">initialization</text>
</a>
</g>
</g>
<!-- Node8&#45;&gt;Node9 -->
<g id="edge8_Node000008_Node000009" class="edge">
<title>Node8&#45;&gt;Node9</title>
<g id="a_edge8_Node000008_Node000009"><a xlink:title=" ">
<path fill="none" stroke="#63b8ff" d="M593.41,-9.5C555.6,-9.5 509.99,-9.5 478.57,-9.5"/>
<polygon fill="#63b8ff" stroke="#63b8ff" points="593.85,-13 603.85,-9.5 593.85,-6 593.85,-13"/>
</a>
</g>
</g>
<!-- Node9&#45;&gt;Node7 -->
<g id="edge9_Node000009_Node000007" class="edge">
<title>Node9&#45;&gt;Node7</title>
<g id="a_edge9_Node000009_Node000007"><a xlink:title=" ">
<path fill="none" stroke="#63b8ff" d="M391.14,-11.68C299.83,-15.83 104.29,-24.73 41.41,-27.59"/>
<polygon fill="#63b8ff" stroke="#63b8ff" points="391.38,-15.17 401.21,-11.22 391.06,-8.18 391.38,-15.17"/>
</a>
</g>
</g>
</g>
</svg>
