<?xml version="1.0" encoding="UTF-8" standalone="no"?>
<!DOCTYPE svg PUBLIC "-//W3C//DTD SVG 1.1//EN"
 "http://www.w3.org/Graphics/SVG/1.1/DTD/svg11.dtd">
<!-- Generated by graphviz version 2.43.0 (0)
 -->
<!-- Title: keep_data Pages: 1 -->
<svg width="360pt" height="253pt"
 viewBox="0.00 0.00 360.00 253.00" xmlns="http://www.w3.org/2000/svg" xmlns:xlink="http://www.w3.org/1999/xlink">
<g id="graph0" class="graph" transform="scale(1 1) rotate(0) translate(4 249)">
<title>keep_data</title>
<!-- Node1 -->
<g id="Node000001" class="node">
<title>Node1</title>
<g id="a_Node000001"><a xlink:title=" ">
<polygon fill="#999999" stroke="#666666" points="67,-114 0,-114 0,-95 67,-95 67,-114"/>
<text text-anchor="middle" x="33.5" y="-102" font-family="Helvetica,sans-Serif" font-size="10.00">keep_data</text>
</a>
</g>
</g>
<!-- Node2 -->
<g id="Node000002" class="node">
<title>Node2</title>
<g id="a_Node000002"><a xlink:href="distribute_8c.html#afde0fc2eef0e002ff1c05d932f432484" target="_top" xlink:title=" ">
<polygon fill="white" stroke="#666666" points="193.5,-209 107.5,-209 107.5,-190 193.5,-190 193.5,-209"/>
<text text-anchor="middle" x="150.5" y="-197" font-family="Helvetica,sans-Serif" font-size="10.00">build_distmap</text>
</a>
</g>
</g>
<!-- Node1&#45;&gt;Node2 -->
<g id="edge1_Node000001_Node000002" class="edge">
<title>Node1&#45;&gt;Node2</title>
<g id="a_edge1_Node000001_Node000002"><a xlink:title=" ">
<path fill="none" stroke="#63b8ff" d="M42.09,-114.2C53.92,-128.85 77.99,-156.89 103,-175.5 107.65,-178.96 112.86,-182.18 118.07,-185.07"/>
<polygon fill="#63b8ff" stroke="#63b8ff" points="116.85,-188.38 127.33,-189.9 120.08,-182.17 116.85,-188.38"/>
</a>
</g>
</g>
<!-- Node6 -->
<g id="Node000006" class="node">
<title>Node6</title>
<g id="a_Node000006"><a xlink:href="distribute_8c.html#abbd2d286e036d25a126ec6cf1f31c941" target="_top" xlink:title=" ">
<polygon fill="white" stroke="#666666" points="352,-171 234,-171 234,-152 352,-152 352,-171"/>
<text text-anchor="middle" x="293" y="-159" font-family="Helvetica,sans-Serif" font-size="10.00">subbox_space_index</text>
</a>
</g>
</g>
<!-- Node1&#45;&gt;Node6 -->
<g id="edge9_Node000001_Node000006" class="edge">
<title>Node1&#45;&gt;Node6</title>
<g id="a_edge9_Node000001_Node000006"><a xlink:title=" ">
<path fill="none" stroke="#63b8ff" d="M67.11,-111.72C110.38,-121.3 187.29,-138.32 238.96,-149.76"/>
<polygon fill="#63b8ff" stroke="#63b8ff" points="238.42,-153.22 248.94,-151.97 239.94,-146.39 238.42,-153.22"/>
</a>
</g>
</g>
<!-- Node7 -->
<g id="Node000007" class="node">
<title>Node7</title>
<g id="a_Node000007"><a xlink:href="distribute_8c.html#a4d95de047b98fe33b47a61c40b2ede31" target="_top" xlink:title=" ">
<polygon fill="white" stroke="#666666" points="339.5,-95 246.5,-95 246.5,-76 339.5,-76 339.5,-95"/>
<text text-anchor="middle" x="293" y="-83" font-family="Helvetica,sans-Serif" font-size="10.00">fft_space_index</text>
</a>
</g>
</g>
<!-- Node1&#45;&gt;Node7 -->
<g id="edge6_Node000001_Node000007" class="edge">
<title>Node1&#45;&gt;Node7</title>
<g id="a_edge6_Node000001_Node000007"><a xlink:title=" ">
<path fill="none" stroke="#63b8ff" d="M67.17,-106.41C100.24,-107.89 152.81,-109.02 198,-104.5 213.08,-102.99 229.31,-100.15 243.98,-97.12"/>
<polygon fill="#63b8ff" stroke="#63b8ff" points="244.8,-100.53 253.85,-95.01 243.33,-93.68 244.8,-100.53"/>
</a>
</g>
</g>
<!-- Node8 -->
<g id="Node000008" class="node">
<title>Node8</title>
<g id="a_Node000008"><a xlink:href="distribute_8c.html#aa31a58531b988d322a30b72ad29e8991" target="_top" xlink:title=" ">
<polygon fill="white" stroke="#666666" points="340.5,-58 245.5,-58 245.5,-39 340.5,-39 340.5,-58"/>
<text text-anchor="middle" x="293" y="-46" font-family="Helvetica,sans-Serif" font-size="10.00">get_distmap_bit</text>
</a>
</g>
</g>
<!-- Node1&#45;&gt;Node8 -->
<g id="edge7_Node000001_Node000008" class="edge">
<title>Node1&#45;&gt;Node8</title>
<g id="a_edge7_Node000001_Node000008"><a xlink:title=" ">
<path fill="none" stroke="#63b8ff" d="M48.21,-94.97C61.55,-86.23 82.71,-73.72 103,-67.5 145.94,-54.32 196.68,-49.79 234.78,-48.43"/>
<polygon fill="#63b8ff" stroke="#63b8ff" points="235.27,-51.92 245.17,-48.13 235.07,-44.92 235.27,-51.92"/>
</a>
</g>
</g>
<!-- Node9 -->
<g id="Node000009" class="node">
<title>Node9</title>
<g id="a_Node000009"><a xlink:href="distribute_8c.html#af5d6c46b78cd787fc8880e4001855038" target="_top" xlink:title=" ">
<polygon fill="white" stroke="#666666" points="187.5,-19 113.5,-19 113.5,0 187.5,0 187.5,-19"/>
<text text-anchor="middle" x="150.5" y="-7" font-family="Helvetica,sans-Serif" font-size="10.00">intersection</text>
</a>
</g>
</g>
<!-- Node1&#45;&gt;Node9 -->
<g id="edge8_Node000001_Node000009" class="edge">
<title>Node1&#45;&gt;Node9</title>
<g id="a_edge8_Node000001_Node000009"><a xlink:title=" ">
<path fill="none" stroke="#63b8ff" d="M42.09,-94.8C53.92,-80.15 77.99,-52.11 103,-33.5 107.65,-30.04 112.86,-26.82 118.07,-23.93"/>
<polygon fill="#63b8ff" stroke="#63b8ff" points="120.08,-26.83 127.33,-19.1 116.85,-20.62 120.08,-26.83"/>
</a>
</g>
</g>
<!-- Node10 -->
<g id="Node000010" class="node">
<title>Node10</title>
<g id="a_Node000010"><a xlink:href="distribute_8c.html#a50009926ecbe697042edccbf5964f815" target="_top" xlink:title=" ">
<polygon fill="white" stroke="#666666" points="198,-95 103,-95 103,-76 198,-76 198,-95"/>
<text text-anchor="middle" x="150.5" y="-83" font-family="Helvetica,sans-Serif" font-size="10.00">update_distmap</text>
</a>
</g>
</g>
<!-- Node1&#45;&gt;Node10 -->
<g id="edge10_Node000001_Node000010" class="edge">
<title>Node1&#45;&gt;Node10</title>
<g id="a_edge10_Node000001_Node000010"><a xlink:title=" ">
<path fill="none" stroke="#63b8ff" d="M67.15,-99.11C75.07,-97.8 83.77,-96.36 92.46,-94.92"/>
<polygon fill="#63b8ff" stroke="#63b8ff" points="93.31,-98.33 102.61,-93.25 92.17,-91.42 93.31,-98.33"/>
</a>
</g>
</g>
<!-- Node3 -->
<g id="Node000003" class="node">
<title>Node3</title>
<g id="a_Node000003"><a xlink:href="fragment_8c.html#a205fd5be9b3d5d3ac4067536e37359b9" target="_top" xlink:title=" ">
<polygon fill="white" stroke="#666666" points="331.5,-245 254.5,-245 254.5,-226 331.5,-226 331.5,-245"/>
<text text-anchor="middle" x="293" y="-233" font-family="Helvetica,sans-Serif" font-size="10.00">get_map_bit</text>
</a>
</g>
</g>
<!-- Node2&#45;&gt;Node3 -->
<g id="edge2_Node000002_Node000003" class="edge">
<title>Node2&#45;&gt;Node3</title>
<g id="a_edge2_Node000002_Node000003"><a xlink:title=" ">
<path fill="none" stroke="#63b8ff" d="M188.78,-209.05C205.93,-213.45 226.47,-218.71 244.69,-223.38"/>
<polygon fill="#63b8ff" stroke="#63b8ff" points="243.99,-226.81 254.54,-225.9 245.72,-220.03 243.99,-226.81"/>
</a>
</g>
</g>
<!-- Node4 -->
<g id="Node000004" class="node">
<title>Node4</title>
<g id="a_Node000004"><a xlink:href="fragment_8c.html#a8641bd67208d499a59e24a0ba7721cc9" target="_top" xlink:title=" ">
<polygon fill="white" stroke="#666666" points="337.5,-208 248.5,-208 248.5,-189 337.5,-189 337.5,-208"/>
<text text-anchor="middle" x="293" y="-196" font-family="Helvetica,sans-Serif" font-size="10.00">get_mapup_bit</text>
</a>
</g>
</g>
<!-- Node2&#45;&gt;Node4 -->
<g id="edge3_Node000002_Node000004" class="edge">
<title>Node2&#45;&gt;Node4</title>
<g id="a_edge3_Node000002_Node000004"><a xlink:title=" ">
<path fill="none" stroke="#63b8ff" d="M193.65,-199.2C207.71,-199.1 223.56,-198.99 238.37,-198.88"/>
<polygon fill="#63b8ff" stroke="#63b8ff" points="238.44,-202.38 248.41,-198.81 238.39,-195.38 238.44,-202.38"/>
</a>
</g>
</g>
<!-- Node5 -->
<g id="Node000005" class="node">
<title>Node5</title>
<g id="a_Node000005"><a xlink:href="distribute_8c.html#a5951fbca4cf1908cabe187d4aae920d4" target="_top" xlink:title=" ">
<polygon fill="white" stroke="#666666" points="340.5,-133 245.5,-133 245.5,-114 340.5,-114 340.5,-133"/>
<text text-anchor="middle" x="293" y="-121" font-family="Helvetica,sans-Serif" font-size="10.00">set_distmap_bit</text>
</a>
</g>
</g>
<!-- Node2&#45;&gt;Node5 -->
<g id="edge4_Node000002_Node000005" class="edge">
<title>Node2&#45;&gt;Node5</title>
<g id="a_edge4_Node000002_Node000005"><a xlink:title=" ">
<path fill="none" stroke="#63b8ff" d="M163.45,-189.89C178.96,-177.77 207.22,-156.91 234,-143.5 239,-141 244.39,-138.68 249.8,-136.58"/>
<polygon fill="#63b8ff" stroke="#63b8ff" points="251.29,-139.76 259.47,-133.03 248.88,-133.18 251.29,-139.76"/>
</a>
</g>
</g>
<!-- Node2&#45;&gt;Node6 -->
<g id="edge5_Node000002_Node000006" class="edge">
<title>Node2&#45;&gt;Node6</title>
<g id="a_edge5_Node000002_Node000006"><a xlink:title=" ">
<path fill="none" stroke="#63b8ff" d="M186.95,-189.91C205.09,-185.01 227.37,-178.98 246.73,-173.74"/>
<polygon fill="#63b8ff" stroke="#63b8ff" points="247.82,-177.08 256.56,-171.09 245.99,-170.32 247.82,-177.08"/>
</a>
</g>
</g>
<!-- Node10&#45;&gt;Node5 -->
<g id="edge13_Node000010_Node000005" class="edge">
<title>Node10&#45;&gt;Node5</title>
<g id="a_edge13_Node000010_Node000005"><a xlink:title=" ">
<path fill="none" stroke="#63b8ff" d="M186.95,-95.09C205.09,-99.99 227.37,-106.02 246.73,-111.26"/>
<polygon fill="#63b8ff" stroke="#63b8ff" points="245.99,-114.68 256.56,-113.91 247.82,-107.92 245.99,-114.68"/>
</a>
</g>
</g>
<!-- Node10&#45;&gt;Node7 -->
<g id="edge11_Node000010_Node000007" class="edge">
<title>Node10&#45;&gt;Node7</title>
<g id="a_edge11_Node000010_Node000007"><a xlink:title=" ">
<path fill="none" stroke="#63b8ff" d="M198.28,-85.5C210.38,-85.5 223.53,-85.5 236.05,-85.5"/>
<polygon fill="#63b8ff" stroke="#63b8ff" points="236.37,-89 246.37,-85.5 236.37,-82 236.37,-89"/>
</a>
</g>
</g>
<!-- Node10&#45;&gt;Node8 -->
<g id="edge12_Node000010_Node000008" class="edge">
<title>Node10&#45;&gt;Node8</title>
<g id="a_edge12_Node000010_Node000008"><a xlink:title=" ">
<path fill="none" stroke="#63b8ff" d="M187.68,-75.97C205.33,-71.33 226.75,-65.68 245.59,-60.72"/>
<polygon fill="#63b8ff" stroke="#63b8ff" points="246.67,-64.06 255.45,-58.12 244.89,-57.29 246.67,-64.06"/>
</a>
</g>
</g>
</g>
</svg>
