<?xml version="1.0" encoding="UTF-8" standalone="no"?>
<!DOCTYPE svg PUBLIC "-//W3C//DTD SVG 1.1//EN"
 "http://www.w3.org/Graphics/SVG/1.1/DTD/svg11.dtd">
<!-- Generated by graphviz version 2.43.0 (0)
 -->
<!-- Title: build_distmap Pages: 1 -->
<svg width="248pt" height="138pt"
 viewBox="0.00 0.00 248.00 138.00" xmlns="http://www.w3.org/2000/svg" xmlns:xlink="http://www.w3.org/1999/xlink">
<g id="graph0" class="graph" transform="scale(1 1) rotate(0) translate(4 134)">
<title>build_distmap</title>
<!-- Node1 -->
<g id="Node000001" class="node">
<title>Node1</title>
<g id="a_Node000001"><a xlink:title=" ">
<polygon fill="#999999" stroke="#666666" points="86,-74 0,-74 0,-55 86,-55 86,-74"/>
<text text-anchor="middle" x="43" y="-62" font-family="Helvetica,sans-Serif" font-size="10.00">build_distmap</text>
</a>
</g>
</g>
<!-- Node2 -->
<g id="Node000002" class="node">
<title>Node2</title>
<g id="a_Node000002"><a xlink:href="fragment_8c.html#a205fd5be9b3d5d3ac4067536e37359b9" target="_top" xlink:title=" ">
<polygon fill="white" stroke="#666666" points="219.5,-130 142.5,-130 142.5,-111 219.5,-111 219.5,-130"/>
<text text-anchor="middle" x="181" y="-118" font-family="Helvetica,sans-Serif" font-size="10.00">get_map_bit</text>
</a>
</g>
</g>
<!-- Node1&#45;&gt;Node2 -->
<g id="edge1_Node000001_Node000002" class="edge">
<title>Node1&#45;&gt;Node2</title>
<g id="a_edge1_Node000001_Node000002"><a xlink:title=" ">
<path fill="none" stroke="#63b8ff" d="M61.62,-74.04C77.21,-82.25 100.71,-94.07 122,-102.5 126.72,-104.37 131.71,-106.17 136.71,-107.87"/>
<polygon fill="#63b8ff" stroke="#63b8ff" points="135.67,-111.21 146.27,-110.98 137.85,-104.55 135.67,-111.21"/>
</a>
</g>
</g>
<!-- Node3 -->
<g id="Node000003" class="node">
<title>Node3</title>
<g id="a_Node000003"><a xlink:href="fragment_8c.html#a8641bd67208d499a59e24a0ba7721cc9" target="_top" xlink:title=" ">
<polygon fill="white" stroke="#666666" points="225.5,-93 136.5,-93 136.5,-74 225.5,-74 225.5,-93"/>
<text text-anchor="middle" x="181" y="-81" font-family="Helvetica,sans-Serif" font-size="10.00">get_mapup_bit</text>
</a>
</g>
</g>
<!-- Node1&#45;&gt;Node3 -->
<g id="edge2_Node000001_Node000003" class="edge">
<title>Node1&#45;&gt;Node3</title>
<g id="a_edge2_Node000001_Node000003"><a xlink:title=" ">
<path fill="none" stroke="#63b8ff" d="M86.29,-70.41C98.96,-72.18 113.04,-74.14 126.34,-76"/>
<polygon fill="#63b8ff" stroke="#63b8ff" points="125.94,-79.48 136.33,-77.4 126.91,-72.55 125.94,-79.48"/>
</a>
</g>
</g>
<!-- Node4 -->
<g id="Node000004" class="node">
<title>Node4</title>
<g id="a_Node000004"><a xlink:href="distribute_8c.html#a5951fbca4cf1908cabe187d4aae920d4" target="_top" xlink:title=" ">
<polygon fill="white" stroke="#666666" points="228.5,-56 133.5,-56 133.5,-37 228.5,-37 228.5,-56"/>
<text text-anchor="middle" x="181" y="-44" font-family="Helvetica,sans-Serif" font-size="10.00">set_distmap_bit</text>
</a>
</g>
</g>
<!-- Node1&#45;&gt;Node4 -->
<g id="edge3_Node000001_Node000004" class="edge">
<title>Node1&#45;&gt;Node4</title>
<g id="a_edge3_Node000001_Node000004"><a xlink:title=" ">
<path fill="none" stroke="#63b8ff" d="M86.29,-58.9C97.98,-57.36 110.87,-55.65 123.24,-54.01"/>
<polygon fill="#63b8ff" stroke="#63b8ff" points="124.03,-57.44 133.48,-52.66 123.11,-50.5 124.03,-57.44"/>
</a>
</g>
</g>
<!-- Node5 -->
<g id="Node000005" class="node">
<title>Node5</title>
<g id="a_Node000005"><a xlink:href="distribute_8c.html#abbd2d286e036d25a126ec6cf1f31c941" target="_top" xlink:title=" ">
<polygon fill="white" stroke="#666666" points="240,-19 122,-19 122,0 240,0 240,-19"/>
<text text-anchor="middle" x="181" y="-7" font-family="Helvetica,sans-Serif" font-size="10.00">subbox_space_index</text>
</a>
</g>
</g>
<!-- Node1&#45;&gt;Node5 -->
<g id="edge4_Node000001_Node000005" class="edge">
<title>Node1&#45;&gt;Node5</title>
<g id="a_edge4_Node000001_Node000005"><a xlink:title=" ">
<path fill="none" stroke="#63b8ff" d="M62.96,-55C78.6,-47.34 101.46,-36.57 122,-28.5 127.43,-26.36 133.21,-24.27 138.94,-22.29"/>
<polygon fill="#63b8ff" stroke="#63b8ff" points="140.09,-25.6 148.46,-19.1 137.86,-18.96 140.09,-25.6"/>
</a>
</g>
</g>
</g>
</svg>
