<?xml version="1.0" encoding="UTF-8" standalone="no"?>
<!DOCTYPE svg PUBLIC "-//W3C//DTD SVG 1.1//EN"
 "http://www.w3.org/Graphics/SVG/1.1/DTD/svg11.dtd">
<!-- Generated by graphviz version 2.43.0 (0)
 -->
<!-- Title: get_distmap_bit Pages: 1 -->
<svg width="742pt" height="118pt"
 viewBox="0.00 0.00 742.00 118.24" xmlns="http://www.w3.org/2000/svg" xmlns:xlink="http://www.w3.org/1999/xlink">
<g id="graph0" class="graph" transform="scale(1 1) rotate(0) translate(4 114.24)">
<title>get_distmap_bit</title>
<!-- Node1 -->
<g id="Node000001" class="node">
<title>Node1</title>
<g id="a_Node000001"><a xlink:title=" ">
<polygon fill="#999999" stroke="#666666" points="734,-53.24 639,-53.24 639,-34.24 734,-34.24 734,-53.24"/>
<text text-anchor="middle" x="686.5" y="-41.24" font-family="Helvetica,sans-Serif" font-size="10.00">get_distmap_bit</text>
</a>
</g>
</g>
<!-- Node2 -->
<g id="Node000002" class="node">
<title>Node2</title>
<g id="a_Node000002"><a xlink:href="distribute_8c.html#a7d48a3cef549c5bda383743398e9dfb3" target="_top" xlink:title=" ">
<polygon fill="white" stroke="#666666" points="472,-71.24 405,-71.24 405,-52.24 472,-52.24 472,-71.24"/>
<text text-anchor="middle" x="438.5" y="-59.24" font-family="Helvetica,sans-Serif" font-size="10.00">keep_data</text>
</a>
</g>
</g>
<!-- Node1&#45;&gt;Node2 -->
<g id="edge1_Node000001_Node000002" class="edge">
<title>Node1&#45;&gt;Node2</title>
<g id="a_edge1_Node000001_Node000002"><a xlink:title=" ">
<path fill="none" stroke="#63b8ff" d="M628.89,-47.88C580.33,-51.43 512.05,-56.43 472.12,-59.35"/>
<polygon fill="#63b8ff" stroke="#63b8ff" points="629.22,-51.36 638.94,-47.14 628.71,-44.38 629.22,-51.36"/>
</a>
</g>
</g>
<!-- Node7 -->
<g id="Node000007" class="node">
<title>Node7</title>
<g id="a_Node000007"><a xlink:href="distribute_8c.html#a7de0d29ea4b0b2d59957cecfa394d497" target="_top" xlink:title=" ">
<polygon fill="white" stroke="#666666" points="588,-110.24 523,-110.24 523,-91.24 588,-91.24 588,-110.24"/>
<text text-anchor="middle" x="555.5" y="-98.24" font-family="Helvetica,sans-Serif" font-size="10.00">recv_data</text>
</a>
</g>
</g>
<!-- Node1&#45;&gt;Node7 -->
<g id="edge6_Node000001_Node000007" class="edge">
<title>Node1&#45;&gt;Node7</title>
<g id="a_edge6_Node000001_Node000007"><a xlink:title=" ">
<path fill="none" stroke="#63b8ff" d="M654.68,-57.35C631.08,-67.78 599.12,-81.91 578.16,-91.16"/>
<polygon fill="#63b8ff" stroke="#63b8ff" points="656.18,-60.52 663.91,-53.28 653.35,-54.12 656.18,-60.52"/>
</a>
</g>
</g>
<!-- Node8 -->
<g id="Node000008" class="node">
<title>Node8</title>
<g id="a_Node000008"><a xlink:href="distribute_8c.html#a772168f45ab8b74e9f8e0df43db9afb8" target="_top" xlink:title=" ">
<polygon fill="white" stroke="#666666" points="472,-34.24 405,-34.24 405,-15.24 472,-15.24 472,-34.24"/>
<text text-anchor="middle" x="438.5" y="-22.24" font-family="Helvetica,sans-Serif" font-size="10.00">send_data</text>
</a>
</g>
</g>
<!-- Node1&#45;&gt;Node8 -->
<g id="edge8_Node000001_Node000008" class="edge">
<title>Node1&#45;&gt;Node8</title>
<g id="a_edge8_Node000001_Node000008"><a xlink:title=" ">
<path fill="none" stroke="#63b8ff" d="M660.97,-29.02C645.06,-20.36 623.54,-10.24 603,-5.74 561.76,3.31 549.84,-0.04 508,-5.74 494.3,-7.6 479.48,-11.47 467.14,-15.23"/>
<polygon fill="#63b8ff" stroke="#63b8ff" points="659.66,-32.3 670.09,-34.17 663.1,-26.21 659.66,-32.3"/>
</a>
</g>
</g>
<!-- Node9 -->
<g id="Node000009" class="node">
<title>Node9</title>
<g id="a_Node000009"><a xlink:href="distribute_8c.html#a50009926ecbe697042edccbf5964f815" target="_top" xlink:title=" ">
<polygon fill="white" stroke="#666666" points="603,-34.24 508,-34.24 508,-15.24 603,-15.24 603,-34.24"/>
<text text-anchor="middle" x="555.5" y="-22.24" font-family="Helvetica,sans-Serif" font-size="10.00">update_distmap</text>
</a>
</g>
</g>
<!-- Node1&#45;&gt;Node9 -->
<g id="edge10_Node000001_Node000009" class="edge">
<title>Node1&#45;&gt;Node9</title>
<g id="a_edge10_Node000001_Node000009"><a xlink:title=" ">
<path fill="none" stroke="#63b8ff" d="M628.9,-35.4C620.25,-34.12 611.4,-32.82 603,-31.58"/>
<polygon fill="#63b8ff" stroke="#63b8ff" points="628.52,-38.88 638.93,-36.88 629.54,-31.96 628.52,-38.88"/>
</a>
</g>
</g>
<!-- Node3 -->
<g id="Node000003" class="node">
<title>Node3</title>
<g id="a_Node000003"><a xlink:href="distribute_8c.html#af6270be45d7dae978d369017a83b25cc" target="_top" xlink:title=" ">
<polygon fill="white" stroke="#666666" points="369,-71.24 306,-71.24 306,-52.24 369,-52.24 369,-71.24"/>
<text text-anchor="middle" x="337.5" y="-59.24" font-family="Helvetica,sans-Serif" font-size="10.00">distribute</text>
</a>
</g>
</g>
<!-- Node2&#45;&gt;Node3 -->
<g id="edge2_Node000002_Node000003" class="edge">
<title>Node2&#45;&gt;Node3</title>
<g id="a_edge2_Node000002_Node000003"><a xlink:title=" ">
<path fill="none" stroke="#63b8ff" d="M394.57,-61.74C386.01,-61.74 377.19,-61.74 369.14,-61.74"/>
<polygon fill="#63b8ff" stroke="#63b8ff" points="394.81,-65.24 404.81,-61.74 394.81,-58.24 394.81,-65.24"/>
</a>
</g>
</g>
<!-- Node4 -->
<g id="Node000004" class="node">
<title>Node4</title>
<g id="a_Node000004"><a xlink:href="fragment_8c.html#ac2bb250921932f90f7b0939d1181b66d" target="_top" xlink:title=" ">
<polygon fill="white" stroke="#666666" points="270,-71.24 208,-71.24 208,-52.24 270,-52.24 270,-71.24"/>
<text text-anchor="middle" x="239" y="-59.24" font-family="Helvetica,sans-Serif" font-size="10.00">fragment</text>
</a>
</g>
</g>
<!-- Node3&#45;&gt;Node4 -->
<g id="edge3_Node000003_Node000004" class="edge">
<title>Node3&#45;&gt;Node4</title>
<g id="a_edge3_Node000003_Node000004"><a xlink:title=" ">
<path fill="none" stroke="#63b8ff" d="M295.69,-61.74C287.08,-61.74 278.13,-61.74 270,-61.74"/>
<polygon fill="#63b8ff" stroke="#63b8ff" points="295.97,-65.24 305.97,-61.74 295.97,-58.24 295.97,-65.24"/>
</a>
</g>
</g>
<!-- Node5 -->
<g id="Node000005" class="node">
<title>Node5</title>
<g id="a_Node000005"><a xlink:href="fragment_8c.html#ae3aa75d17cbc170e60f4f48c4a2ffdf5" target="_top" xlink:title=" ">
<polygon fill="white" stroke="#666666" points="172,-71.24 77,-71.24 77,-52.24 172,-52.24 172,-71.24"/>
<text text-anchor="middle" x="124.5" y="-59.24" font-family="Helvetica,sans-Serif" font-size="10.00">fragment_driver</text>
</a>
</g>
</g>
<!-- Node4&#45;&gt;Node5 -->
<g id="edge4_Node000004_Node000005" class="edge">
<title>Node4&#45;&gt;Node5</title>
<g id="a_edge4_Node000004_Node000005"><a xlink:title=" ">
<path fill="none" stroke="#63b8ff" d="M197.73,-61.74C189.47,-61.74 180.72,-61.74 172.26,-61.74"/>
<polygon fill="#63b8ff" stroke="#63b8ff" points="197.85,-65.24 207.85,-61.74 197.85,-58.24 197.85,-65.24"/>
</a>
</g>
</g>
<!-- Node6 -->
<g id="Node000006" class="node">
<title>Node6</title>
<g id="a_Node000006"><a xlink:href="pinocchio_8c.html#a647f21a28344e1d9c643f4115516d7c9" target="_top" xlink:title=" ">
<polygon fill="white" stroke="#666666" points="41,-71.24 0,-71.24 0,-52.24 41,-52.24 41,-71.24"/>
<text text-anchor="middle" x="20.5" y="-59.24" font-family="Helvetica,sans-Serif" font-size="10.00">main</text>
</a>
</g>
</g>
<!-- Node5&#45;&gt;Node6 -->
<g id="edge5_Node000005_Node000006" class="edge">
<title>Node5&#45;&gt;Node6</title>
<g id="a_edge5_Node000005_Node000006"><a xlink:title=" ">
<path fill="none" stroke="#63b8ff" d="M66.91,-61.74C57.67,-61.74 48.67,-61.74 41.16,-61.74"/>
<polygon fill="#63b8ff" stroke="#63b8ff" points="66.98,-65.24 76.98,-61.74 66.98,-58.24 66.98,-65.24"/>
</a>
</g>
</g>
<!-- Node7&#45;&gt;Node3 -->
<g id="edge7_Node000007_Node000003" class="edge">
<title>Node7&#45;&gt;Node3</title>
<g id="a_edge7_Node000007_Node000003"><a xlink:title=" ">
<path fill="none" stroke="#63b8ff" d="M512.62,-96.78C482.5,-93.53 441,-88.24 405,-80.74 392.89,-78.21 379.76,-74.64 368.39,-71.28"/>
<polygon fill="#63b8ff" stroke="#63b8ff" points="512.47,-100.28 522.78,-97.84 513.19,-93.32 512.47,-100.28"/>
</a>
</g>
</g>
<!-- Node8&#45;&gt;Node3 -->
<g id="edge9_Node000008_Node000003" class="edge">
<title>Node8&#45;&gt;Node3</title>
<g id="a_edge9_Node000008_Node000003"><a xlink:title=" ">
<path fill="none" stroke="#63b8ff" d="M402.3,-37.89C389.75,-42.58 375.86,-47.77 364.25,-52.11"/>
<polygon fill="#63b8ff" stroke="#63b8ff" points="403.86,-41.04 412.01,-34.26 401.41,-34.49 403.86,-41.04"/>
</a>
</g>
</g>
<!-- Node9&#45;&gt;Node2 -->
<g id="edge11_Node000009_Node000002" class="edge">
<title>Node9&#45;&gt;Node2</title>
<g id="a_edge11_Node000009_Node000002"><a xlink:title=" ">
<path fill="none" stroke="#63b8ff" d="M515.33,-37.34C500.31,-42.17 483.43,-47.6 469.41,-52.11"/>
<polygon fill="#63b8ff" stroke="#63b8ff" points="516.44,-40.66 524.88,-34.26 514.29,-33.99 516.44,-40.66"/>
</a>
</g>
</g>
<!-- Node9&#45;&gt;Node8 -->
<g id="edge12_Node000009_Node000008" class="edge">
<title>Node9&#45;&gt;Node8</title>
<g id="a_edge12_Node000009_Node000008"><a xlink:title=" ">
<path fill="none" stroke="#63b8ff" d="M497.55,-24.74C488.83,-24.74 480.1,-24.74 472.15,-24.74"/>
<polygon fill="#63b8ff" stroke="#63b8ff" points="497.73,-28.24 507.73,-24.74 497.73,-21.24 497.73,-28.24"/>
</a>
</g>
</g>
</g>
</svg>
