<?xml version="1.0" encoding="UTF-8" standalone="no"?>
<!DOCTYPE svg PUBLIC "-//W3C//DTD SVG 1.1//EN"
 "http://www.w3.org/Graphics/SVG/1.1/DTD/svg11.dtd">
<!-- Generated by graphviz version 2.43.0 (0)
 -->
<!-- Title: update_distmap Pages: 1 -->
<svg width="234pt" height="101pt"
 viewBox="0.00 0.00 234.00 101.00" xmlns="http://www.w3.org/2000/svg" xmlns:xlink="http://www.w3.org/1999/xlink">
<g id="graph0" class="graph" transform="scale(1 1) rotate(0) translate(4 97)">
<title>update_distmap</title>
<!-- Node1 -->
<g id="Node000001" class="node">
<title>Node1</title>
<g id="a_Node000001"><a xlink:title=" ">
<polygon fill="#999999" stroke="#666666" points="95,-56 0,-56 0,-37 95,-37 95,-56"/>
<text text-anchor="middle" x="47.5" y="-44" font-family="Helvetica,sans-Serif" font-size="10.00">update_distmap</text>
</a>
</g>
</g>
<!-- Node2 -->
<g id="Node000002" class="node">
<title>Node2</title>
<g id="a_Node000002"><a xlink:href="distribute_8c.html#a4d95de047b98fe33b47a61c40b2ede31" target="_top" xlink:title=" ">
<polygon fill="white" stroke="#666666" points="225,-93 132,-93 132,-74 225,-74 225,-93"/>
<text text-anchor="middle" x="178.5" y="-81" font-family="Helvetica,sans-Serif" font-size="10.00">fft_space_index</text>
</a>
</g>
</g>
<!-- Node1&#45;&gt;Node2 -->
<g id="edge1_Node000001_Node000002" class="edge">
<title>Node1&#45;&gt;Node2</title>
<g id="a_edge1_Node000001_Node000002"><a xlink:title=" ">
<path fill="none" stroke="#63b8ff" d="M81.72,-56.03C97.7,-60.61 117.05,-66.16 134.17,-71.07"/>
<polygon fill="#63b8ff" stroke="#63b8ff" points="133.37,-74.48 143.94,-73.88 135.3,-67.75 133.37,-74.48"/>
</a>
</g>
</g>
<!-- Node3 -->
<g id="Node000003" class="node">
<title>Node3</title>
<g id="a_Node000003"><a xlink:href="distribute_8c.html#aa31a58531b988d322a30b72ad29e8991" target="_top" xlink:title=" ">
<polygon fill="white" stroke="#666666" points="226,-56 131,-56 131,-37 226,-37 226,-56"/>
<text text-anchor="middle" x="178.5" y="-44" font-family="Helvetica,sans-Serif" font-size="10.00">get_distmap_bit</text>
</a>
</g>
</g>
<!-- Node1&#45;&gt;Node3 -->
<g id="edge2_Node000001_Node000003" class="edge">
<title>Node1&#45;&gt;Node3</title>
<g id="a_edge2_Node000001_Node000003"><a xlink:title=" ">
<path fill="none" stroke="#63b8ff" d="M95.07,-46.5C103.48,-46.5 112.32,-46.5 120.97,-46.5"/>
<polygon fill="#63b8ff" stroke="#63b8ff" points="121,-50 131,-46.5 121,-43 121,-50"/>
</a>
</g>
</g>
<!-- Node4 -->
<g id="Node000004" class="node">
<title>Node4</title>
<g id="a_Node000004"><a xlink:href="distribute_8c.html#a5951fbca4cf1908cabe187d4aae920d4" target="_top" xlink:title=" ">
<polygon fill="white" stroke="#666666" points="226,-19 131,-19 131,0 226,0 226,-19"/>
<text text-anchor="middle" x="178.5" y="-7" font-family="Helvetica,sans-Serif" font-size="10.00">set_distmap_bit</text>
</a>
</g>
</g>
<!-- Node1&#45;&gt;Node4 -->
<g id="edge3_Node000001_Node000004" class="edge">
<title>Node1&#45;&gt;Node4</title>
<g id="a_edge3_Node000001_Node000004"><a xlink:title=" ">
<path fill="none" stroke="#63b8ff" d="M81.72,-36.97C97.7,-32.39 117.05,-26.84 134.17,-21.93"/>
<polygon fill="#63b8ff" stroke="#63b8ff" points="135.3,-25.25 143.94,-19.12 133.37,-18.52 135.3,-25.25"/>
</a>
</g>
</g>
</g>
</svg>
