<?xml version="1.0" encoding="UTF-8" standalone="no"?>
<!DOCTYPE svg PUBLIC "-//W3C//DTD SVG 1.1//EN"
 "http://www.w3.org/Graphics/SVG/1.1/DTD/svg11.dtd">
<!-- Generated by graphviz version 2.43.0 (0)
 -->
<!-- Title: intersection Pages: 1 -->
<svg width="605pt" height="138pt"
 viewBox="0.00 0.00 605.00 138.00" xmlns="http://www.w3.org/2000/svg" xmlns:xlink="http://www.w3.org/1999/xlink">
<g id="graph0" class="graph" transform="scale(1 1) rotate(0) translate(4 134)">
<title>intersection</title>
<!-- Node1 -->
<g id="Node000001" class="node">
<title>Node1</title>
<g id="a_Node000001"><a xlink:title=" ">
<polygon fill="#999999" stroke="#666666" points="597,-74 523,-74 523,-55 597,-55 597,-74"/>
<text text-anchor="middle" x="560" y="-62" font-family="Helvetica,sans-Serif" font-size="10.00">intersection</text>
</a>
</g>
</g>
<!-- Node2 -->
<g id="Node000002" class="node">
<title>Node2</title>
<g id="a_Node000002"><a xlink:href="distribute_8c.html#a7d48a3cef549c5bda383743398e9dfb3" target="_top" xlink:title=" ">
<polygon fill="white" stroke="#666666" points="487,-130 420,-130 420,-111 487,-111 487,-130"/>
<text text-anchor="middle" x="453.5" y="-118" font-family="Helvetica,sans-Serif" font-size="10.00">keep_data</text>
</a>
</g>
</g>
<!-- Node1&#45;&gt;Node2 -->
<g id="edge1_Node000001_Node000002" class="edge">
<title>Node1&#45;&gt;Node2</title>
<g id="a_edge1_Node000001_Node000002"><a xlink:title=" ">
<path fill="none" stroke="#63b8ff" d="M531.87,-79.04C513.17,-89.06 488.83,-102.1 472.49,-110.86"/>
<polygon fill="#63b8ff" stroke="#63b8ff" points="533.64,-82.06 540.8,-74.25 530.33,-75.89 533.64,-82.06"/>
</a>
</g>
</g>
<!-- Node7 -->
<g id="Node000007" class="node">
<title>Node7</title>
<g id="a_Node000007"><a xlink:href="distribute_8c.html#a7de0d29ea4b0b2d59957cecfa394d497" target="_top" xlink:title=" ">
<polygon fill="white" stroke="#666666" points="486,-93 421,-93 421,-74 486,-74 486,-93"/>
<text text-anchor="middle" x="453.5" y="-81" font-family="Helvetica,sans-Serif" font-size="10.00">recv_data</text>
</a>
</g>
</g>
<!-- Node1&#45;&gt;Node7 -->
<g id="edge6_Node000001_Node000007" class="edge">
<title>Node1&#45;&gt;Node7</title>
<g id="a_edge6_Node000001_Node000007"><a xlink:title=" ">
<path fill="none" stroke="#63b8ff" d="M512.76,-72.91C503.77,-74.54 494.55,-76.22 486.16,-77.74"/>
<polygon fill="#63b8ff" stroke="#63b8ff" points="513.53,-76.32 522.74,-71.09 512.28,-69.44 513.53,-76.32"/>
</a>
</g>
</g>
<!-- Node8 -->
<g id="Node000008" class="node">
<title>Node8</title>
<g id="a_Node000008"><a xlink:href="distribute_8c.html#a772168f45ab8b74e9f8e0df43db9afb8" target="_top" xlink:title=" ">
<polygon fill="white" stroke="#666666" points="487,-56 420,-56 420,-37 487,-37 487,-56"/>
<text text-anchor="middle" x="453.5" y="-44" font-family="Helvetica,sans-Serif" font-size="10.00">send_data</text>
</a>
</g>
</g>
<!-- Node1&#45;&gt;Node8 -->
<g id="edge8_Node000001_Node000008" class="edge">
<title>Node1&#45;&gt;Node8</title>
<g id="a_edge8_Node000001_Node000008"><a xlink:title=" ">
<path fill="none" stroke="#63b8ff" d="M512.78,-56.54C504.15,-55.05 495.31,-53.53 487.19,-52.13"/>
<polygon fill="#63b8ff" stroke="#63b8ff" points="512.3,-60.01 522.74,-58.25 513.48,-53.11 512.3,-60.01"/>
</a>
</g>
</g>
<!-- Node9 -->
<g id="Node000009" class="node">
<title>Node9</title>
<g id="a_Node000009"><a xlink:href="initialization_8c.html#a6a2aae0d1d7f4a81e2ee08ec87312de8" target="_top" xlink:title=" ">
<polygon fill="white" stroke="#666666" points="479,-19 428,-19 428,0 479,0 479,-19"/>
<text text-anchor="middle" x="453.5" y="-7" font-family="Helvetica,sans-Serif" font-size="10.00">set_plc</text>
</a>
</g>
</g>
<!-- Node1&#45;&gt;Node9 -->
<g id="edge10_Node000001_Node000009" class="edge">
<title>Node1&#45;&gt;Node9</title>
<g id="a_edge10_Node000001_Node000009"><a xlink:title=" ">
<path fill="none" stroke="#63b8ff" d="M531.93,-50.25C513.35,-40.47 489.2,-27.76 472.84,-19.16"/>
<polygon fill="#63b8ff" stroke="#63b8ff" points="530.32,-53.36 540.8,-54.92 533.58,-47.16 530.32,-53.36"/>
</a>
</g>
</g>
<!-- Node3 -->
<g id="Node000003" class="node">
<title>Node3</title>
<g id="a_Node000003"><a xlink:href="distribute_8c.html#af6270be45d7dae978d369017a83b25cc" target="_top" xlink:title=" ">
<polygon fill="white" stroke="#666666" points="384,-92 321,-92 321,-73 384,-73 384,-92"/>
<text text-anchor="middle" x="352.5" y="-80" font-family="Helvetica,sans-Serif" font-size="10.00">distribute</text>
</a>
</g>
</g>
<!-- Node2&#45;&gt;Node3 -->
<g id="edge2_Node000002_Node000003" class="edge">
<title>Node2&#45;&gt;Node3</title>
<g id="a_edge2_Node000002_Node000003"><a xlink:title=" ">
<path fill="none" stroke="#63b8ff" d="M417.94,-107.24C404.95,-102.25 390.43,-96.68 378.47,-92.09"/>
<polygon fill="#63b8ff" stroke="#63b8ff" points="416.93,-110.6 427.52,-110.91 419.44,-104.06 416.93,-110.6"/>
</a>
</g>
</g>
<!-- Node4 -->
<g id="Node000004" class="node">
<title>Node4</title>
<g id="a_Node000004"><a xlink:href="fragment_8c.html#ac2bb250921932f90f7b0939d1181b66d" target="_top" xlink:title=" ">
<polygon fill="white" stroke="#666666" points="277.5,-91 215.5,-91 215.5,-72 277.5,-72 277.5,-91"/>
<text text-anchor="middle" x="246.5" y="-79" font-family="Helvetica,sans-Serif" font-size="10.00">fragment</text>
</a>
</g>
</g>
<!-- Node3&#45;&gt;Node4 -->
<g id="edge3_Node000003_Node000004" class="edge">
<title>Node3&#45;&gt;Node4</title>
<g id="a_edge3_Node000003_Node000004"><a xlink:title=" ">
<path fill="none" stroke="#63b8ff" d="M310.58,-82.11C299.57,-82 287.86,-81.89 277.56,-81.79"/>
<polygon fill="#63b8ff" stroke="#63b8ff" points="310.83,-85.61 320.86,-82.21 310.89,-78.61 310.83,-85.61"/>
</a>
</g>
</g>
<!-- Node5 -->
<g id="Node000005" class="node">
<title>Node5</title>
<g id="a_Node000005"><a xlink:href="fragment_8c.html#ae3aa75d17cbc170e60f4f48c4a2ffdf5" target="_top" xlink:title=" ">
<polygon fill="white" stroke="#666666" points="172,-90 77,-90 77,-71 172,-71 172,-90"/>
<text text-anchor="middle" x="124.5" y="-78" font-family="Helvetica,sans-Serif" font-size="10.00">fragment_driver</text>
</a>
</g>
</g>
<!-- Node4&#45;&gt;Node5 -->
<g id="edge4_Node000004_Node000005" class="edge">
<title>Node4&#45;&gt;Node5</title>
<g id="a_edge4_Node000004_Node000005"><a xlink:title=" ">
<path fill="none" stroke="#63b8ff" d="M205.01,-81.16C194.45,-81.07 182.98,-80.98 172.13,-80.89"/>
<polygon fill="#63b8ff" stroke="#63b8ff" points="205.19,-84.66 215.22,-81.25 205.25,-77.66 205.19,-84.66"/>
</a>
</g>
</g>
<!-- Node6 -->
<g id="Node000006" class="node">
<title>Node6</title>
<g id="a_Node000006"><a xlink:href="pinocchio_8c.html#a647f21a28344e1d9c643f4115516d7c9" target="_top" xlink:title=" ">
<polygon fill="white" stroke="#666666" points="41,-69 0,-69 0,-50 41,-50 41,-69"/>
<text text-anchor="middle" x="20.5" y="-57" font-family="Helvetica,sans-Serif" font-size="10.00">main</text>
</a>
</g>
</g>
<!-- Node5&#45;&gt;Node6 -->
<g id="edge5_Node000005_Node000006" class="edge">
<title>Node5&#45;&gt;Node6</title>
<g id="a_edge5_Node000005_Node000006"><a xlink:title=" ">
<path fill="none" stroke="#63b8ff" d="M67.38,-68.95C57.92,-67 48.7,-65.1 41.03,-63.52"/>
<polygon fill="#63b8ff" stroke="#63b8ff" points="66.77,-72.39 77.28,-70.98 68.19,-65.54 66.77,-72.39"/>
</a>
</g>
</g>
<!-- Node7&#45;&gt;Node3 -->
<g id="edge7_Node000007_Node000003" class="edge">
<title>Node7&#45;&gt;Node3</title>
<g id="a_edge7_Node000007_Node000003"><a xlink:title=" ">
<path fill="none" stroke="#63b8ff" d="M410.67,-83.08C401.77,-82.99 392.52,-82.89 384.12,-82.81"/>
<polygon fill="#63b8ff" stroke="#63b8ff" points="410.87,-86.58 420.9,-83.18 410.94,-79.58 410.87,-86.58"/>
</a>
</g>
</g>
<!-- Node8&#45;&gt;Node3 -->
<g id="edge9_Node000008_Node000003" class="edge">
<title>Node8&#45;&gt;Node3</title>
<g id="a_edge9_Node000008_Node000003"><a xlink:title=" ">
<path fill="none" stroke="#63b8ff" d="M416.78,-59.49C404.6,-63.92 391.21,-68.79 379.89,-72.9"/>
<polygon fill="#63b8ff" stroke="#63b8ff" points="418.03,-62.76 426.23,-56.05 415.64,-56.18 418.03,-62.76"/>
</a>
</g>
</g>
<!-- Node10 -->
<g id="Node000010" class="node">
<title>Node10</title>
<g id="a_Node000010"><a xlink:href="initialization_8c.html#a2bed034b4a40d49d0765d1ce741bd8a9" target="_top" xlink:title=" ">
<polygon fill="white" stroke="#666666" points="285,-46 208,-46 208,-27 285,-27 285,-46"/>
<text text-anchor="middle" x="246.5" y="-34" font-family="Helvetica,sans-Serif" font-size="10.00">initialization</text>
</a>
</g>
</g>
<!-- Node9&#45;&gt;Node10 -->
<g id="edge11_Node000009_Node000010" class="edge">
<title>Node9&#45;&gt;Node10</title>
<g id="a_edge11_Node000009_Node000010"><a xlink:title=" ">
<path fill="none" stroke="#63b8ff" d="M417.52,-14.11C380.72,-18.95 322.99,-26.56 285.19,-31.54"/>
<polygon fill="#63b8ff" stroke="#63b8ff" points="418.31,-17.53 427.77,-12.76 417.4,-10.59 418.31,-17.53"/>
</a>
</g>
</g>
<!-- Node10&#45;&gt;Node6 -->
<g id="edge12_Node000010_Node000006" class="edge">
<title>Node10&#45;&gt;Node6</title>
<g id="a_edge12_Node000010_Node000006"><a xlink:title=" ">
<path fill="none" stroke="#63b8ff" d="M197.75,-41.4C149.01,-46.41 75.74,-53.93 41.04,-57.49"/>
<polygon fill="#63b8ff" stroke="#63b8ff" points="198.16,-44.88 207.75,-40.38 197.45,-37.92 198.16,-44.88"/>
</a>
</g>
</g>
</g>
</svg>
