<?xml version="1.0" encoding="UTF-8" standalone="no"?>
<!DOCTYPE svg PUBLIC "-//W3C//DTD SVG 1.1//EN"
 "http://www.w3.org/Graphics/SVG/1.1/DTD/svg11.dtd">
<!-- Generated by graphviz version 2.43.0 (0)
 -->
<!-- Title: set_distmap_bit Pages: 1 -->
<svg width="742pt" height="101pt"
 viewBox="0.00 0.00 742.00 101.00" xmlns="http://www.w3.org/2000/svg" xmlns:xlink="http://www.w3.org/1999/xlink">
<g id="graph0" class="graph" transform="scale(1 1) rotate(0) translate(4 97)">
<title>set_distmap_bit</title>
<!-- Node1 -->
<g id="Node000001" class="node">
<title>Node1</title>
<g id="a_Node000001"><a xlink:title=" ">
<polygon fill="#999999" stroke="#666666" points="734,-55 639,-55 639,-36 734,-36 734,-55"/>
<text text-anchor="middle" x="686.5" y="-43" font-family="Helvetica,sans-Serif" font-size="10.00">set_distmap_bit</text>
</a>
</g>
</g>
<!-- Node2 -->
<g id="Node000002" class="node">
<title>Node2</title>
<g id="a_Node000002"><a xlink:href="distribute_8c.html#afde0fc2eef0e002ff1c05d932f432484" target="_top" xlink:title=" ">
<polygon fill="white" stroke="#666666" points="598.5,-74 512.5,-74 512.5,-55 598.5,-55 598.5,-74"/>
<text text-anchor="middle" x="555.5" y="-62" font-family="Helvetica,sans-Serif" font-size="10.00">build_distmap</text>
</a>
</g>
</g>
<!-- Node1&#45;&gt;Node2 -->
<g id="edge1_Node000001_Node000002" class="edge">
<title>Node1&#45;&gt;Node2</title>
<g id="a_edge1_Node000001_Node000002"><a xlink:title=" ">
<path fill="none" stroke="#63b8ff" d="M628.91,-53.83C618.77,-55.33 608.37,-56.86 598.72,-58.28"/>
<polygon fill="#63b8ff" stroke="#63b8ff" points="629.54,-57.28 638.93,-52.36 628.52,-50.35 629.54,-57.28"/>
</a>
</g>
</g>
<!-- Node9 -->
<g id="Node000009" class="node">
<title>Node9</title>
<g id="a_Node000009"><a xlink:href="distribute_8c.html#a50009926ecbe697042edccbf5964f815" target="_top" xlink:title=" ">
<polygon fill="white" stroke="#666666" points="603,-37 508,-37 508,-18 603,-18 603,-37"/>
<text text-anchor="middle" x="555.5" y="-25" font-family="Helvetica,sans-Serif" font-size="10.00">update_distmap</text>
</a>
</g>
</g>
<!-- Node1&#45;&gt;Node9 -->
<g id="edge9_Node000001_Node000009" class="edge">
<title>Node1&#45;&gt;Node9</title>
<g id="a_edge9_Node000001_Node000009"><a xlink:title=" ">
<path fill="none" stroke="#63b8ff" d="M628.9,-37.6C620.25,-36.4 611.4,-35.16 603,-33.99"/>
<polygon fill="#63b8ff" stroke="#63b8ff" points="628.54,-41.09 638.93,-39 629.51,-34.15 628.54,-41.09"/>
</a>
</g>
</g>
<!-- Node3 -->
<g id="Node000003" class="node">
<title>Node3</title>
<g id="a_Node000003"><a xlink:href="distribute_8c.html#a7d48a3cef549c5bda383743398e9dfb3" target="_top" xlink:title=" ">
<polygon fill="white" stroke="#666666" points="472,-56 405,-56 405,-37 472,-37 472,-56"/>
<text text-anchor="middle" x="438.5" y="-44" font-family="Helvetica,sans-Serif" font-size="10.00">keep_data</text>
</a>
</g>
</g>
<!-- Node2&#45;&gt;Node3 -->
<g id="edge2_Node000002_Node000003" class="edge">
<title>Node2&#45;&gt;Node3</title>
<g id="a_edge2_Node000002_Node000003"><a xlink:title=" ">
<path fill="none" stroke="#63b8ff" d="M502.26,-56.32C492.06,-54.73 481.64,-53.1 472.3,-51.63"/>
<polygon fill="#63b8ff" stroke="#63b8ff" points="501.91,-59.81 512.33,-57.9 502.99,-52.9 501.91,-59.81"/>
</a>
</g>
</g>
<!-- Node8 -->
<g id="Node000008" class="node">
<title>Node8</title>
<g id="a_Node000008"><a xlink:href="distribute_8c.html#a7de0d29ea4b0b2d59957cecfa394d497" target="_top" xlink:title=" ">
<polygon fill="white" stroke="#666666" points="471,-93 406,-93 406,-74 471,-74 471,-93"/>
<text text-anchor="middle" x="438.5" y="-81" font-family="Helvetica,sans-Serif" font-size="10.00">recv_data</text>
</a>
</g>
</g>
<!-- Node2&#45;&gt;Node8 -->
<g id="edge7_Node000002_Node000008" class="edge">
<title>Node2&#45;&gt;Node8</title>
<g id="a_edge7_Node000002_Node000008"><a xlink:title=" ">
<path fill="none" stroke="#63b8ff" d="M502.29,-73.13C491.69,-74.88 480.84,-76.67 471.21,-78.26"/>
<polygon fill="#63b8ff" stroke="#63b8ff" points="503.04,-76.55 512.33,-71.47 501.89,-69.64 503.04,-76.55"/>
</a>
</g>
</g>
<!-- Node4 -->
<g id="Node000004" class="node">
<title>Node4</title>
<g id="a_Node000004"><a xlink:href="distribute_8c.html#af6270be45d7dae978d369017a83b25cc" target="_top" xlink:title=" ">
<polygon fill="white" stroke="#666666" points="369,-56 306,-56 306,-37 369,-37 369,-56"/>
<text text-anchor="middle" x="337.5" y="-44" font-family="Helvetica,sans-Serif" font-size="10.00">distribute</text>
</a>
</g>
</g>
<!-- Node3&#45;&gt;Node4 -->
<g id="edge3_Node000003_Node000004" class="edge">
<title>Node3&#45;&gt;Node4</title>
<g id="a_edge3_Node000003_Node000004"><a xlink:title=" ">
<path fill="none" stroke="#63b8ff" d="M394.57,-46.5C386.01,-46.5 377.19,-46.5 369.14,-46.5"/>
<polygon fill="#63b8ff" stroke="#63b8ff" points="394.81,-50 404.81,-46.5 394.81,-43 394.81,-50"/>
</a>
</g>
</g>
<!-- Node5 -->
<g id="Node000005" class="node">
<title>Node5</title>
<g id="a_Node000005"><a xlink:href="fragment_8c.html#ac2bb250921932f90f7b0939d1181b66d" target="_top" xlink:title=" ">
<polygon fill="white" stroke="#666666" points="270,-56 208,-56 208,-37 270,-37 270,-56"/>
<text text-anchor="middle" x="239" y="-44" font-family="Helvetica,sans-Serif" font-size="10.00">fragment</text>
</a>
</g>
</g>
<!-- Node4&#45;&gt;Node5 -->
<g id="edge4_Node000004_Node000005" class="edge">
<title>Node4&#45;&gt;Node5</title>
<g id="a_edge4_Node000004_Node000005"><a xlink:title=" ">
<path fill="none" stroke="#63b8ff" d="M295.69,-46.5C287.08,-46.5 278.13,-46.5 270,-46.5"/>
<polygon fill="#63b8ff" stroke="#63b8ff" points="295.97,-50 305.97,-46.5 295.97,-43 295.97,-50"/>
</a>
</g>
</g>
<!-- Node6 -->
<g id="Node000006" class="node">
<title>Node6</title>
<g id="a_Node000006"><a xlink:href="fragment_8c.html#ae3aa75d17cbc170e60f4f48c4a2ffdf5" target="_top" xlink:title=" ">
<polygon fill="white" stroke="#666666" points="172,-56 77,-56 77,-37 172,-37 172,-56"/>
<text text-anchor="middle" x="124.5" y="-44" font-family="Helvetica,sans-Serif" font-size="10.00">fragment_driver</text>
</a>
</g>
</g>
<!-- Node5&#45;&gt;Node6 -->
<g id="edge5_Node000005_Node000006" class="edge">
<title>Node5&#45;&gt;Node6</title>
<g id="a_edge5_Node000005_Node000006"><a xlink:title=" ">
<path fill="none" stroke="#63b8ff" d="M197.73,-46.5C189.47,-46.5 180.72,-46.5 172.26,-46.5"/>
<polygon fill="#63b8ff" stroke="#63b8ff" points="197.85,-50 207.85,-46.5 197.85,-43 197.85,-50"/>
</a>
</g>
</g>
<!-- Node7 -->
<g id="Node000007" class="node">
<title>Node7</title>
<g id="a_Node000007"><a xlink:href="pinocchio_8c.html#a647f21a28344e1d9c643f4115516d7c9" target="_top" xlink:title=" ">
<polygon fill="white" stroke="#666666" points="41,-56 0,-56 0,-37 41,-37 41,-56"/>
<text text-anchor="middle" x="20.5" y="-44" font-family="Helvetica,sans-Serif" font-size="10.00">main</text>
</a>
</g>
</g>
<!-- Node6&#45;&gt;Node7 -->
<g id="edge6_Node000006_Node000007" class="edge">
<title>Node6&#45;&gt;Node7</title>
<g id="a_edge6_Node000006_Node000007"><a xlink:title=" ">
<path fill="none" stroke="#63b8ff" d="M66.91,-46.5C57.67,-46.5 48.67,-46.5 41.16,-46.5"/>
<polygon fill="#63b8ff" stroke="#63b8ff" points="66.98,-50 76.98,-46.5 66.98,-43 66.98,-50"/>
</a>
</g>
</g>
<!-- Node8&#45;&gt;Node4 -->
<g id="edge8_Node000008_Node000004" class="edge">
<title>Node8&#45;&gt;Node4</title>
<g id="a_edge8_Node000008_Node000004"><a xlink:title=" ">
<path fill="none" stroke="#63b8ff" d="M402.3,-70.34C389.75,-65.65 375.86,-60.46 364.25,-56.12"/>
<polygon fill="#63b8ff" stroke="#63b8ff" points="401.41,-73.75 412.01,-73.97 403.86,-67.19 401.41,-73.75"/>
</a>
</g>
</g>
<!-- Node9&#45;&gt;Node3 -->
<g id="edge10_Node000009_Node000003" class="edge">
<title>Node9&#45;&gt;Node3</title>
<g id="a_edge10_Node000009_Node000003"><a xlink:title=" ">
<path fill="none" stroke="#63b8ff" d="M497.83,-36.86C489.02,-38.32 480.18,-39.78 472.15,-41.11"/>
<polygon fill="#63b8ff" stroke="#63b8ff" points="498.43,-40.31 507.73,-35.23 497.29,-33.4 498.43,-40.31"/>
</a>
</g>
</g>
<!-- Node10 -->
<g id="Node000010" class="node">
<title>Node10</title>
<g id="a_Node000010"><a xlink:href="distribute_8c.html#a772168f45ab8b74e9f8e0df43db9afb8" target="_top" xlink:title=" ">
<polygon fill="white" stroke="#666666" points="472,-19 405,-19 405,0 472,0 472,-19"/>
<text text-anchor="middle" x="438.5" y="-7" font-family="Helvetica,sans-Serif" font-size="10.00">send_data</text>
</a>
</g>
</g>
<!-- Node9&#45;&gt;Node10 -->
<g id="edge11_Node000009_Node000010" class="edge">
<title>Node9&#45;&gt;Node10</title>
<g id="a_edge11_Node000009_Node000010"><a xlink:title=" ">
<path fill="none" stroke="#63b8ff" d="M497.83,-18.63C489.02,-17.25 480.18,-15.87 472.15,-14.61"/>
<polygon fill="#63b8ff" stroke="#63b8ff" points="497.3,-22.09 507.73,-20.18 498.39,-15.17 497.3,-22.09"/>
</a>
</g>
</g>
<!-- Node10&#45;&gt;Node4 -->
<g id="edge12_Node000010_Node000004" class="edge">
<title>Node10&#45;&gt;Node4</title>
<g id="a_edge12_Node000010_Node000004"><a xlink:title=" ">
<path fill="none" stroke="#63b8ff" d="M402.3,-22.66C389.75,-27.35 375.86,-32.54 364.25,-36.88"/>
<polygon fill="#63b8ff" stroke="#63b8ff" points="403.86,-25.81 412.01,-19.03 401.41,-19.25 403.86,-25.81"/>
</a>
</g>
</g>
</g>
</svg>
