<?xml version="1.0" encoding="UTF-8" standalone="no"?>
<!DOCTYPE svg PUBLIC "-//W3C//DTD SVG 1.1//EN"
 "http://www.w3.org/Graphics/SVG/1.1/DTD/svg11.dtd">
<!-- Generated by graphviz version 2.43.0 (0)
 -->
<!-- Title: recv_data Pages: 1 -->
<svg width="358pt" height="213pt"
 viewBox="0.00 0.00 358.00 213.00" xmlns="http://www.w3.org/2000/svg" xmlns:xlink="http://www.w3.org/1999/xlink">
<g id="graph0" class="graph" transform="scale(1 1) rotate(0) translate(4 209)">
<title>recv_data</title>
<!-- Node1 -->
<g id="Node000001" class="node">
<title>Node1</title>
<g id="a_Node000001"><a xlink:title=" ">
<polygon fill="#999999" stroke="#666666" points="65,-75 0,-75 0,-56 65,-56 65,-75"/>
<text text-anchor="middle" x="32.5" y="-63" font-family="Helvetica,sans-Serif" font-size="10.00">recv_data</text>
</a>
</g>
</g>
<!-- Node2 -->
<g id="Node000002" class="node">
<title>Node2</title>
<g id="a_Node000002"><a xlink:href="distribute_8c.html#afde0fc2eef0e002ff1c05d932f432484" target="_top" xlink:title=" ">
<polygon fill="white" stroke="#666666" points="191.5,-132 105.5,-132 105.5,-113 191.5,-113 191.5,-132"/>
<text text-anchor="middle" x="148.5" y="-120" font-family="Helvetica,sans-Serif" font-size="10.00">build_distmap</text>
</a>
</g>
</g>
<!-- Node1&#45;&gt;Node2 -->
<g id="edge1_Node000001_Node000002" class="edge">
<title>Node1&#45;&gt;Node2</title>
<g id="a_edge1_Node000001_Node000002"><a xlink:title=" ">
<path fill="none" stroke="#63b8ff" d="M52.58,-75.04C70.83,-84.16 98.57,-98.03 119.35,-108.43"/>
<polygon fill="#63b8ff" stroke="#63b8ff" points="117.85,-111.59 128.36,-112.93 120.98,-105.33 117.85,-111.59"/>
</a>
</g>
</g>
<!-- Node6 -->
<g id="Node000006" class="node">
<title>Node6</title>
<g id="a_Node000006"><a xlink:href="distribute_8c.html#abbd2d286e036d25a126ec6cf1f31c941" target="_top" xlink:title=" ">
<polygon fill="white" stroke="#666666" points="350,-94 232,-94 232,-75 350,-75 350,-94"/>
<text text-anchor="middle" x="291" y="-82" font-family="Helvetica,sans-Serif" font-size="10.00">subbox_space_index</text>
</a>
</g>
</g>
<!-- Node1&#45;&gt;Node6 -->
<g id="edge8_Node000001_Node000006" class="edge">
<title>Node1&#45;&gt;Node6</title>
<g id="a_edge8_Node000001_Node000006"><a xlink:title=" ">
<path fill="none" stroke="#63b8ff" d="M65.21,-67.85C104.02,-70.72 170.83,-75.67 221.55,-79.43"/>
<polygon fill="#63b8ff" stroke="#63b8ff" points="221.56,-82.94 231.79,-80.19 222.08,-75.96 221.56,-82.94"/>
</a>
</g>
</g>
<!-- Node7 -->
<g id="Node000007" class="node">
<title>Node7</title>
<g id="a_Node000007"><a xlink:href="distribute_8c.html#aa31a58531b988d322a30b72ad29e8991" target="_top" xlink:title=" ">
<polygon fill="white" stroke="#666666" points="196,-56 101,-56 101,-37 196,-37 196,-56"/>
<text text-anchor="middle" x="148.5" y="-44" font-family="Helvetica,sans-Serif" font-size="10.00">get_distmap_bit</text>
</a>
</g>
</g>
<!-- Node1&#45;&gt;Node7 -->
<g id="edge6_Node000001_Node000007" class="edge">
<title>Node1&#45;&gt;Node7</title>
<g id="a_edge6_Node000001_Node000007"><a xlink:title=" ">
<path fill="none" stroke="#63b8ff" d="M65.26,-60.21C73.3,-58.87 82.18,-57.39 91.04,-55.91"/>
<polygon fill="#63b8ff" stroke="#63b8ff" points="91.71,-59.35 101,-54.25 90.56,-52.44 91.71,-59.35"/>
</a>
</g>
</g>
<!-- Node8 -->
<g id="Node000008" class="node">
<title>Node8</title>
<g id="a_Node000008"><a xlink:href="distribute_8c.html#af5d6c46b78cd787fc8880e4001855038" target="_top" xlink:title=" ">
<polygon fill="white" stroke="#666666" points="185.5,-19 111.5,-19 111.5,0 185.5,0 185.5,-19"/>
<text text-anchor="middle" x="148.5" y="-7" font-family="Helvetica,sans-Serif" font-size="10.00">intersection</text>
</a>
</g>
</g>
<!-- Node1&#45;&gt;Node8 -->
<g id="edge7_Node000001_Node000008" class="edge">
<title>Node1&#45;&gt;Node8</title>
<g id="a_edge7_Node000001_Node000008"><a xlink:title=" ">
<path fill="none" stroke="#63b8ff" d="M48.98,-55.94C62.45,-47.83 82.64,-36.17 101,-27.5 104.33,-25.93 107.83,-24.38 111.36,-22.9"/>
<polygon fill="#63b8ff" stroke="#63b8ff" points="112.71,-26.13 120.67,-19.13 110.08,-19.64 112.71,-26.13"/>
</a>
</g>
</g>
<!-- Node3 -->
<g id="Node000003" class="node">
<title>Node3</title>
<g id="a_Node000003"><a xlink:href="fragment_8c.html#a205fd5be9b3d5d3ac4067536e37359b9" target="_top" xlink:title=" ">
<polygon fill="white" stroke="#666666" points="329.5,-205 252.5,-205 252.5,-186 329.5,-186 329.5,-205"/>
<text text-anchor="middle" x="291" y="-193" font-family="Helvetica,sans-Serif" font-size="10.00">get_map_bit</text>
</a>
</g>
</g>
<!-- Node2&#45;&gt;Node3 -->
<g id="edge2_Node000002_Node000003" class="edge">
<title>Node2&#45;&gt;Node3</title>
<g id="a_edge2_Node000002_Node000003"><a xlink:title=" ">
<path fill="none" stroke="#63b8ff" d="M161.41,-132.06C176.89,-144.08 205.11,-164.7 232,-177.5 235.8,-179.31 239.83,-180.99 243.92,-182.55"/>
<polygon fill="#63b8ff" stroke="#63b8ff" points="242.9,-185.9 253.5,-185.93 245.23,-179.3 242.9,-185.9"/>
</a>
</g>
</g>
<!-- Node4 -->
<g id="Node000004" class="node">
<title>Node4</title>
<g id="a_Node000004"><a xlink:href="fragment_8c.html#a8641bd67208d499a59e24a0ba7721cc9" target="_top" xlink:title=" ">
<polygon fill="white" stroke="#666666" points="335.5,-168 246.5,-168 246.5,-149 335.5,-149 335.5,-168"/>
<text text-anchor="middle" x="291" y="-156" font-family="Helvetica,sans-Serif" font-size="10.00">get_mapup_bit</text>
</a>
</g>
</g>
<!-- Node2&#45;&gt;Node4 -->
<g id="edge3_Node000002_Node000004" class="edge">
<title>Node2&#45;&gt;Node4</title>
<g id="a_edge3_Node000002_Node000004"><a xlink:title=" ">
<path fill="none" stroke="#63b8ff" d="M186.78,-132.05C203.93,-136.45 224.47,-141.71 242.69,-146.38"/>
<polygon fill="#63b8ff" stroke="#63b8ff" points="241.99,-149.81 252.54,-148.9 243.72,-143.03 241.99,-149.81"/>
</a>
</g>
</g>
<!-- Node5 -->
<g id="Node000005" class="node">
<title>Node5</title>
<g id="a_Node000005"><a xlink:href="distribute_8c.html#a5951fbca4cf1908cabe187d4aae920d4" target="_top" xlink:title=" ">
<polygon fill="white" stroke="#666666" points="338.5,-131 243.5,-131 243.5,-112 338.5,-112 338.5,-131"/>
<text text-anchor="middle" x="291" y="-119" font-family="Helvetica,sans-Serif" font-size="10.00">set_distmap_bit</text>
</a>
</g>
</g>
<!-- Node2&#45;&gt;Node5 -->
<g id="edge4_Node000002_Node000005" class="edge">
<title>Node2&#45;&gt;Node5</title>
<g id="a_edge4_Node000002_Node000005"><a xlink:title=" ">
<path fill="none" stroke="#63b8ff" d="M191.65,-122.2C204.67,-122.11 219.22,-122 233.05,-121.91"/>
<polygon fill="#63b8ff" stroke="#63b8ff" points="233.48,-125.4 243.46,-121.83 233.43,-118.4 233.48,-125.4"/>
</a>
</g>
</g>
<!-- Node2&#45;&gt;Node6 -->
<g id="edge5_Node000002_Node000006" class="edge">
<title>Node2&#45;&gt;Node6</title>
<g id="a_edge5_Node000002_Node000006"><a xlink:title=" ">
<path fill="none" stroke="#63b8ff" d="M184.95,-112.91C203.09,-108.01 225.37,-101.98 244.73,-96.74"/>
<polygon fill="#63b8ff" stroke="#63b8ff" points="245.82,-100.08 254.56,-94.09 243.99,-93.32 245.82,-100.08"/>
</a>
</g>
</g>
</g>
</svg>
