<?xml version="1.0" encoding="UTF-8" standalone="no"?>
<!DOCTYPE svg PUBLIC "-//W3C//DTD SVG 1.1//EN"
 "http://www.w3.org/Graphics/SVG/1.1/DTD/svg11.dtd">
<!-- Generated by graphviz version 2.43.0 (0)
 -->
<!-- Title: send_data_back Pages: 1 -->
<svg width="739pt" height="46pt"
 viewBox="0.00 0.00 739.00 46.00" xmlns="http://www.w3.org/2000/svg" xmlns:xlink="http://www.w3.org/1999/xlink">
<g id="graph0" class="graph" transform="scale(1 1) rotate(0) translate(4 42)">
<title>send_data_back</title>
<!-- Node1 -->
<g id="Node000001" class="node">
<title>Node1</title>
<g id="a_Node000001"><a xlink:title=" ">
<polygon fill="#999999" stroke="#666666" points="731,-38 636,-38 636,-19 731,-19 731,-38"/>
<text text-anchor="middle" x="683.5" y="-26" font-family="Helvetica,sans-Serif" font-size="10.00">send_data_back</text>
</a>
</g>
</g>
<!-- Node2 -->
<g id="Node000002" class="node">
<title>Node2</title>
<g id="a_Node000002"><a xlink:href="distribute_8c.html#a2c0d0f371c1eb7f5edb3f35ff4b05d9d" target="_top" xlink:title=" ">
<polygon fill="white" stroke="#666666" points="600,-38 508,-38 508,-19 600,-19 600,-38"/>
<text text-anchor="middle" x="554" y="-26" font-family="Helvetica,sans-Serif" font-size="10.00">distribute_back</text>
</a>
</g>
</g>
<!-- Node1&#45;&gt;Node2 -->
<g id="edge1_Node000001_Node000002" class="edge">
<title>Node1&#45;&gt;Node2</title>
<g id="a_edge1_Node000001_Node000002"><a xlink:title=" ">
<path fill="none" stroke="#63b8ff" d="M625.48,-28.5C616.96,-28.5 608.27,-28.5 600.05,-28.5"/>
<polygon fill="#63b8ff" stroke="#63b8ff" points="625.75,-32 635.75,-28.5 625.75,-25 625.75,-32"/>
</a>
</g>
</g>
<!-- Node3 -->
<g id="Node000003" class="node">
<title>Node3</title>
<g id="a_Node000003"><a xlink:href="fragment_8c.html#ac2bb250921932f90f7b0939d1181b66d" target="_top" xlink:title=" ">
<polygon fill="white" stroke="#666666" points="270,-38 208,-38 208,-19 270,-19 270,-38"/>
<text text-anchor="middle" x="239" y="-26" font-family="Helvetica,sans-Serif" font-size="10.00">fragment</text>
</a>
</g>
</g>
<!-- Node2&#45;&gt;Node3 -->
<g id="edge2_Node000002_Node000003" class="edge">
<title>Node2&#45;&gt;Node3</title>
<g id="a_edge2_Node000002_Node000003"><a xlink:title=" ">
<path fill="none" stroke="#63b8ff" d="M497.55,-28.5C431.19,-28.5 322.48,-28.5 270.09,-28.5"/>
<polygon fill="#63b8ff" stroke="#63b8ff" points="497.82,-32 507.82,-28.5 497.82,-25 497.82,-32"/>
</a>
</g>
</g>
<!-- Node6 -->
<g id="Node000006" class="node">
<title>Node6</title>
<g id="a_Node000006"><a xlink:href="write__mass__maps_8c.html#a523d76e3e01c2ce2c7d973cf5ad60cb6" target="_top" xlink:title=" ">
<polygon fill="white" stroke="#666666" points="472,-19 306,-19 306,0 472,0 472,-19"/>
<text text-anchor="middle" x="389" y="-7" font-family="Helvetica,sans-Serif" font-size="10.00">mass_maps_process_segment</text>
</a>
</g>
</g>
<!-- Node2&#45;&gt;Node6 -->
<g id="edge5_Node000002_Node000006" class="edge">
<title>Node2&#45;&gt;Node6</title>
<g id="a_edge5_Node000002_Node000006"><a xlink:title=" ">
<path fill="none" stroke="#63b8ff" d="M497.62,-22.04C489.24,-21.07 480.46,-20.04 471.68,-19.02"/>
<polygon fill="#63b8ff" stroke="#63b8ff" points="497.26,-25.53 507.6,-23.21 498.07,-18.57 497.26,-25.53"/>
</a>
</g>
</g>
<!-- Node4 -->
<g id="Node000004" class="node">
<title>Node4</title>
<g id="a_Node000004"><a xlink:href="fragment_8c.html#ae3aa75d17cbc170e60f4f48c4a2ffdf5" target="_top" xlink:title=" ">
<polygon fill="white" stroke="#666666" points="172,-38 77,-38 77,-19 172,-19 172,-38"/>
<text text-anchor="middle" x="124.5" y="-26" font-family="Helvetica,sans-Serif" font-size="10.00">fragment_driver</text>
</a>
</g>
</g>
<!-- Node3&#45;&gt;Node4 -->
<g id="edge3_Node000003_Node000004" class="edge">
<title>Node3&#45;&gt;Node4</title>
<g id="a_edge3_Node000003_Node000004"><a xlink:title=" ">
<path fill="none" stroke="#63b8ff" d="M197.73,-28.5C189.47,-28.5 180.72,-28.5 172.26,-28.5"/>
<polygon fill="#63b8ff" stroke="#63b8ff" points="197.85,-32 207.85,-28.5 197.85,-25 197.85,-32"/>
</a>
</g>
</g>
<!-- Node5 -->
<g id="Node000005" class="node">
<title>Node5</title>
<g id="a_Node000005"><a xlink:href="pinocchio_8c.html#a647f21a28344e1d9c643f4115516d7c9" target="_top" xlink:title=" ">
<polygon fill="white" stroke="#666666" points="41,-38 0,-38 0,-19 41,-19 41,-38"/>
<text text-anchor="middle" x="20.5" y="-26" font-family="Helvetica,sans-Serif" font-size="10.00">main</text>
</a>
</g>
</g>
<!-- Node4&#45;&gt;Node5 -->
<g id="edge4_Node000004_Node000005" class="edge">
<title>Node4&#45;&gt;Node5</title>
<g id="a_edge4_Node000004_Node000005"><a xlink:title=" ">
<path fill="none" stroke="#63b8ff" d="M66.91,-28.5C57.67,-28.5 48.67,-28.5 41.16,-28.5"/>
<polygon fill="#63b8ff" stroke="#63b8ff" points="66.98,-32 76.98,-28.5 66.98,-25 66.98,-32"/>
</a>
</g>
</g>
<!-- Node6&#45;&gt;Node3 -->
<g id="edge6_Node000006_Node000003" class="edge">
<title>Node6&#45;&gt;Node3</title>
<g id="a_edge6_Node000006_Node000003"><a xlink:title=" ">
<path fill="none" stroke="#63b8ff" d="M303.49,-20.35C291.56,-21.88 280.01,-23.36 270.1,-24.64"/>
<polygon fill="#63b8ff" stroke="#63b8ff" points="304.09,-23.8 313.57,-19.06 303.2,-16.86 304.09,-23.8"/>
</a>
</g>
</g>
</g>
</svg>
