<?xml version="1.0" encoding="UTF-8" standalone="no"?>
<!DOCTYPE svg PUBLIC "-//W3C//DTD SVG 1.1//EN"
 "http://www.w3.org/Graphics/SVG/1.1/DTD/svg11.dtd">
<!-- Generated by graphviz version 2.43.0 (0)
 -->
<!-- Title: send_data Pages: 1 -->
<svg width="337pt" height="140pt"
 viewBox="0.00 0.00 337.00 140.00" xmlns="http://www.w3.org/2000/svg" xmlns:xlink="http://www.w3.org/1999/xlink">
<g id="graph0" class="graph" transform="scale(1 1) rotate(0) translate(4 136)">
<title>send_data</title>
<!-- Node1 -->
<g id="Node000001" class="node">
<title>Node1</title>
<g id="a_Node000001"><a xlink:title=" ">
<polygon fill="#999999" stroke="#666666" points="67,-76 0,-76 0,-57 67,-57 67,-76"/>
<text text-anchor="middle" x="33.5" y="-64" font-family="Helvetica,sans-Serif" font-size="10.00">send_data</text>
</a>
</g>
</g>
<!-- Node2 -->
<g id="Node000002" class="node">
<title>Node2</title>
<g id="a_Node000002"><a xlink:href="distribute_8c.html#a4d95de047b98fe33b47a61c40b2ede31" target="_top" xlink:title=" ">
<polygon fill="white" stroke="#666666" points="328,-132 235,-132 235,-113 328,-113 328,-132"/>
<text text-anchor="middle" x="281.5" y="-120" font-family="Helvetica,sans-Serif" font-size="10.00">fft_space_index</text>
</a>
</g>
</g>
<!-- Node1&#45;&gt;Node2 -->
<g id="edge1_Node000001_Node000002" class="edge">
<title>Node1&#45;&gt;Node2</title>
<g id="a_edge1_Node000001_Node000002"><a xlink:title=" ">
<path fill="none" stroke="#63b8ff" d="M47.92,-76.12C61.21,-85.1 82.5,-98.07 103,-104.5 142.54,-116.9 189.24,-121.25 224.8,-122.58"/>
<polygon fill="#63b8ff" stroke="#63b8ff" points="224.89,-126.09 235,-122.9 225.11,-119.09 224.89,-126.09"/>
</a>
</g>
</g>
<!-- Node3 -->
<g id="Node000003" class="node">
<title>Node3</title>
<g id="a_Node000003"><a xlink:href="distribute_8c.html#aa31a58531b988d322a30b72ad29e8991" target="_top" xlink:title=" ">
<polygon fill="white" stroke="#666666" points="329,-58 234,-58 234,-39 329,-39 329,-58"/>
<text text-anchor="middle" x="281.5" y="-46" font-family="Helvetica,sans-Serif" font-size="10.00">get_distmap_bit</text>
</a>
</g>
</g>
<!-- Node1&#45;&gt;Node3 -->
<g id="edge2_Node000001_Node000003" class="edge">
<title>Node1&#45;&gt;Node3</title>
<g id="a_edge2_Node000001_Node000003"><a xlink:title=" ">
<path fill="none" stroke="#63b8ff" d="M67.17,-64.11C107.07,-61.19 175.23,-56.2 223.77,-52.65"/>
<polygon fill="#63b8ff" stroke="#63b8ff" points="224.09,-56.14 233.81,-51.92 223.58,-49.16 224.09,-56.14"/>
</a>
</g>
</g>
<!-- Node4 -->
<g id="Node000004" class="node">
<title>Node4</title>
<g id="a_Node000004"><a xlink:href="distribute_8c.html#af5d6c46b78cd787fc8880e4001855038" target="_top" xlink:title=" ">
<polygon fill="white" stroke="#666666" points="187.5,-19 113.5,-19 113.5,0 187.5,0 187.5,-19"/>
<text text-anchor="middle" x="150.5" y="-7" font-family="Helvetica,sans-Serif" font-size="10.00">intersection</text>
</a>
</g>
</g>
<!-- Node1&#45;&gt;Node4 -->
<g id="edge3_Node000001_Node000004" class="edge">
<title>Node1&#45;&gt;Node4</title>
<g id="a_edge3_Node000001_Node000004"><a xlink:title=" ">
<path fill="none" stroke="#63b8ff" d="M53.75,-56.96C72.16,-47.84 100.14,-33.97 121.11,-23.57"/>
<polygon fill="#63b8ff" stroke="#63b8ff" points="122.78,-26.65 130.19,-19.07 119.67,-20.38 122.78,-26.65"/>
</a>
</g>
</g>
<!-- Node5 -->
<g id="Node000005" class="node">
<title>Node5</title>
<g id="a_Node000005"><a xlink:href="distribute_8c.html#a50009926ecbe697042edccbf5964f815" target="_top" xlink:title=" ">
<polygon fill="white" stroke="#666666" points="198,-95 103,-95 103,-76 198,-76 198,-95"/>
<text text-anchor="middle" x="150.5" y="-83" font-family="Helvetica,sans-Serif" font-size="10.00">update_distmap</text>
</a>
</g>
</g>
<!-- Node1&#45;&gt;Node5 -->
<g id="edge4_Node000001_Node000005" class="edge">
<title>Node1&#45;&gt;Node5</title>
<g id="a_edge4_Node000001_Node000005"><a xlink:title=" ">
<path fill="none" stroke="#63b8ff" d="M67.15,-71.89C75.07,-73.2 83.77,-74.64 92.46,-76.08"/>
<polygon fill="#63b8ff" stroke="#63b8ff" points="92.17,-79.58 102.61,-77.75 93.31,-72.67 92.17,-79.58"/>
</a>
</g>
</g>
<!-- Node5&#45;&gt;Node2 -->
<g id="edge5_Node000005_Node000002" class="edge">
<title>Node5&#45;&gt;Node2</title>
<g id="a_edge5_Node000005_Node000002"><a xlink:title=" ">
<path fill="none" stroke="#63b8ff" d="M184.72,-95.03C200.7,-99.61 220.05,-105.16 237.17,-110.07"/>
<polygon fill="#63b8ff" stroke="#63b8ff" points="236.37,-113.48 246.94,-112.88 238.3,-106.75 236.37,-113.48"/>
</a>
</g>
</g>
<!-- Node5&#45;&gt;Node3 -->
<g id="edge6_Node000005_Node000003" class="edge">
<title>Node5&#45;&gt;Node3</title>
<g id="a_edge6_Node000005_Node000003"><a xlink:title=" ">
<path fill="none" stroke="#63b8ff" d="M184.72,-75.97C200.7,-71.39 220.05,-65.84 237.17,-60.93"/>
<polygon fill="#63b8ff" stroke="#63b8ff" points="238.3,-64.25 246.94,-58.12 236.37,-57.52 238.3,-64.25"/>
</a>
</g>
</g>
<!-- Node6 -->
<g id="Node000006" class="node">
<title>Node6</title>
<g id="a_Node000006"><a xlink:href="distribute_8c.html#a5951fbca4cf1908cabe187d4aae920d4" target="_top" xlink:title=" ">
<polygon fill="white" stroke="#666666" points="329,-95 234,-95 234,-76 329,-76 329,-95"/>
<text text-anchor="middle" x="281.5" y="-83" font-family="Helvetica,sans-Serif" font-size="10.00">set_distmap_bit</text>
</a>
</g>
</g>
<!-- Node5&#45;&gt;Node6 -->
<g id="edge7_Node000005_Node000006" class="edge">
<title>Node5&#45;&gt;Node6</title>
<g id="a_edge7_Node000005_Node000006"><a xlink:title=" ">
<path fill="none" stroke="#63b8ff" d="M198.07,-85.5C206.48,-85.5 215.32,-85.5 223.97,-85.5"/>
<polygon fill="#63b8ff" stroke="#63b8ff" points="224,-89 234,-85.5 224,-82 224,-89"/>
</a>
</g>
</g>
</g>
</svg>
