<?xml version="1.0" encoding="UTF-8" standalone="no"?>
<!DOCTYPE svg PUBLIC "-//W3C//DTD SVG 1.1//EN"
 "http://www.w3.org/Graphics/SVG/1.1/DTD/svg11.dtd">
<!-- Generated by graphviz version 2.43.0 (0)
 -->
<!-- Title: distribute_back Pages: 1 -->
<svg width="231pt" height="101pt"
 viewBox="0.00 0.00 231.00 101.00" xmlns="http://www.w3.org/2000/svg" xmlns:xlink="http://www.w3.org/1999/xlink">
<g id="graph0" class="graph" transform="scale(1 1) rotate(0) translate(4 97)">
<title>distribute_back</title>
<!-- Node1 -->
<g id="Node000001" class="node">
<title>Node1</title>
<g id="a_Node000001"><a xlink:title=" ">
<polygon fill="#999999" stroke="#666666" points="92,-56 0,-56 0,-37 92,-37 92,-56"/>
<text text-anchor="middle" x="46" y="-44" font-family="Helvetica,sans-Serif" font-size="10.00">distribute_back</text>
</a>
</g>
</g>
<!-- Node2 -->
<g id="Node000002" class="node">
<title>Node2</title>
<g id="a_Node000002"><a xlink:href="distribute_8c.html#abfbb26857e985d0316d1ecf0c5e07d88" target="_top" xlink:title=" ">
<polygon fill="white" stroke="#666666" points="223,-93 128,-93 128,-74 223,-74 223,-93"/>
<text text-anchor="middle" x="175.5" y="-81" font-family="Helvetica,sans-Serif" font-size="10.00">keep_data_back</text>
</a>
</g>
</g>
<!-- Node1&#45;&gt;Node2 -->
<g id="edge1_Node000001_Node000002" class="edge">
<title>Node1&#45;&gt;Node2</title>
<g id="a_edge1_Node000001_Node000002"><a xlink:title=" ">
<path fill="none" stroke="#63b8ff" d="M79.83,-56.03C95.62,-60.61 114.75,-66.16 131.67,-71.07"/>
<polygon fill="#63b8ff" stroke="#63b8ff" points="130.75,-74.45 141.33,-73.88 132.71,-67.73 130.75,-74.45"/>
</a>
</g>
</g>
<!-- Node3 -->
<g id="Node000003" class="node">
<title>Node3</title>
<g id="a_Node000003"><a xlink:href="distribute_8c.html#a040a9beb10f71ddf875bbc4041297bac" target="_top" xlink:title=" ">
<polygon fill="white" stroke="#666666" points="222,-56 129,-56 129,-37 222,-37 222,-56"/>
<text text-anchor="middle" x="175.5" y="-44" font-family="Helvetica,sans-Serif" font-size="10.00">recv_data_back</text>
</a>
</g>
</g>
<!-- Node1&#45;&gt;Node3 -->
<g id="edge2_Node000001_Node000003" class="edge">
<title>Node1&#45;&gt;Node3</title>
<g id="a_edge2_Node000001_Node000003"><a xlink:title=" ">
<path fill="none" stroke="#63b8ff" d="M92.31,-46.5C100.85,-46.5 109.87,-46.5 118.69,-46.5"/>
<polygon fill="#63b8ff" stroke="#63b8ff" points="118.91,-50 128.91,-46.5 118.91,-43 118.91,-50"/>
</a>
</g>
</g>
<!-- Node4 -->
<g id="Node000004" class="node">
<title>Node4</title>
<g id="a_Node000004"><a xlink:href="distribute_8c.html#a702eef922060fa6ba032a337ce1683c8" target="_top" xlink:title=" ">
<polygon fill="white" stroke="#666666" points="223,-19 128,-19 128,0 223,0 223,-19"/>
<text text-anchor="middle" x="175.5" y="-7" font-family="Helvetica,sans-Serif" font-size="10.00">send_data_back</text>
</a>
</g>
</g>
<!-- Node1&#45;&gt;Node4 -->
<g id="edge3_Node000001_Node000004" class="edge">
<title>Node1&#45;&gt;Node4</title>
<g id="a_edge3_Node000001_Node000004"><a xlink:title=" ">
<path fill="none" stroke="#63b8ff" d="M79.83,-36.97C95.62,-32.39 114.75,-26.84 131.67,-21.93"/>
<polygon fill="#63b8ff" stroke="#63b8ff" points="132.71,-25.27 141.33,-19.12 130.75,-18.55 132.71,-25.27"/>
</a>
</g>
</g>
</g>
</svg>
