<?xml version="1.0" encoding="UTF-8" standalone="no"?>
<!DOCTYPE svg PUBLIC "-//W3C//DTD SVG 1.1//EN"
 "http://www.w3.org/Graphics/SVG/1.1/DTD/svg11.dtd">
<!-- Generated by graphviz version 2.43.0 (0)
 -->
<!-- Title: write_in_cvector Pages: 1 -->
<svg width="985pt" height="132pt"
 viewBox="0.00 0.00 985.00 131.50" xmlns="http://www.w3.org/2000/svg" xmlns:xlink="http://www.w3.org/1999/xlink">
<g id="graph0" class="graph" transform="scale(1 1) rotate(0) translate(4 127.5)">
<title>write_in_cvector</title>
<!-- Node1 -->
<g id="Node000001" class="node">
<title>Node1</title>
<g id="a_Node000001"><a xlink:title=" ">
<polygon fill="#999999" stroke="#666666" points="977,-66.5 880,-66.5 880,-47.5 977,-47.5 977,-66.5"/>
<text text-anchor="middle" x="928.5" y="-54.5" font-family="Helvetica,sans-Serif" font-size="10.00">write_in_cvector</text>
</a>
</g>
</g>
<!-- Node2 -->
<g id="Node000002" class="node">
<title>Node2</title>
<g id="a_Node000002"><a xlink:href="fmax_8c.html#a4b416954b6cbbc2372b9560e677b4014" target="_top" xlink:title=" ">
<polygon fill="white" stroke="#666666" points="844,-123.5 701,-123.5 701,-104.5 844,-104.5 844,-123.5"/>
<text text-anchor="middle" x="772.5" y="-111.5" font-family="Helvetica,sans-Serif" font-size="10.00">compute_first_derivatives</text>
</a>
</g>
</g>
<!-- Node1&#45;&gt;Node2 -->
<g id="edge1_Node000001_Node000002" class="edge">
<title>Node1&#45;&gt;Node2</title>
<g id="a_edge1_Node000001_Node000002"><a xlink:title=" ">
<path fill="none" stroke="#63b8ff" d="M894.66,-70.4C879.33,-76.55 860.8,-83.82 844,-90 830.53,-94.95 815.49,-100.12 802.77,-104.39"/>
<polygon fill="#63b8ff" stroke="#63b8ff" points="896.25,-73.53 904.22,-66.55 893.64,-67.04 896.25,-73.53"/>
</a>
</g>
</g>
<!-- Node5 -->
<g id="Node000005" class="node">
<title>Node5</title>
<g id="a_Node000005"><a xlink:href="pinocchio_8c.html#a647f21a28344e1d9c643f4115516d7c9" target="_top" xlink:title=" ">
<polygon fill="white" stroke="#666666" points="41,-66.5 0,-66.5 0,-47.5 41,-47.5 41,-66.5"/>
<text text-anchor="middle" x="20.5" y="-54.5" font-family="Helvetica,sans-Serif" font-size="10.00">main</text>
</a>
</g>
</g>
<!-- Node1&#45;&gt;Node5 -->
<g id="edge15_Node000001_Node000005" class="edge">
<title>Node1&#45;&gt;Node5</title>
<g id="a_edge15_Node000001_Node000005"><a xlink:title=" ">
<path fill="none" stroke="#63b8ff" d="M883.62,-44.88C819.06,-28.14 694.47,0 586.5,0 586.5,0 586.5,0 252,0 171.82,0 80.42,-32.9 41.13,-48.71"/>
<polygon fill="#63b8ff" stroke="#63b8ff" points="882.89,-48.3 893.45,-47.46 884.67,-41.53 882.89,-48.3"/>
</a>
</g>
</g>
<!-- Node8 -->
<g id="Node000008" class="node">
<title>Node8</title>
<g id="a_Node000008"><a xlink:href="LPT_8c.html#acd2ff0573cb91e413fb17c10768b35bc" target="_top" xlink:title=" ">
<polygon fill="white" stroke="#666666" points="664.5,-85.5 506.5,-85.5 506.5,-66.5 664.5,-66.5 664.5,-85.5"/>
<text text-anchor="middle" x="585.5" y="-73.5" font-family="Helvetica,sans-Serif" font-size="10.00">compute_LPT_displacements</text>
</a>
</g>
</g>
<!-- Node1&#45;&gt;Node8 -->
<g id="edge11_Node000001_Node000008" class="edge">
<title>Node1&#45;&gt;Node8</title>
<g id="a_edge11_Node000001_Node000008"><a xlink:title=" ">
<path fill="none" stroke="#63b8ff" d="M869.56,-60.23C813.21,-63.37 727.19,-68.16 664.77,-71.64"/>
<polygon fill="#63b8ff" stroke="#63b8ff" points="869.94,-63.71 879.73,-59.66 869.55,-56.72 869.94,-63.71"/>
</a>
</g>
</g>
<!-- Node9 -->
<g id="Node000009" class="node">
<title>Node9</title>
<g id="a_Node000009"><a xlink:href="fmax_8c.html#af7e353ab4ac1e19ecf80743eaef23fb4" target="_top" xlink:title=" ">
<polygon fill="white" stroke="#666666" points="665,-47.5 506,-47.5 506,-28.5 665,-28.5 665,-47.5"/>
<text text-anchor="middle" x="585.5" y="-35.5" font-family="Helvetica,sans-Serif" font-size="10.00">compute_second_derivatives</text>
</a>
</g>
</g>
<!-- Node1&#45;&gt;Node9 -->
<g id="edge12_Node000001_Node000009" class="edge">
<title>Node1&#45;&gt;Node9</title>
<g id="a_edge12_Node000001_Node000009"><a xlink:title=" ">
<path fill="none" stroke="#63b8ff" d="M869.58,-53.77C813.32,-50.64 727.5,-45.86 665.1,-42.38"/>
<polygon fill="#63b8ff" stroke="#63b8ff" points="869.55,-57.28 879.73,-54.34 869.94,-50.29 869.55,-57.28"/>
</a>
</g>
</g>
<!-- Node3 -->
<g id="Node000003" class="node">
<title>Node3</title>
<g id="a_Node000003"><a xlink:href="fmax_8c.html#a83dfe236a507bb220f824c7a5f8a0fc8" target="_top" xlink:title=" ">
<polygon fill="white" stroke="#666666" points="470,-85.5 334,-85.5 334,-66.5 470,-66.5 470,-85.5"/>
<text text-anchor="middle" x="402" y="-73.5" font-family="Helvetica,sans-Serif" font-size="10.00">compute_displacements</text>
</a>
</g>
</g>
<!-- Node2&#45;&gt;Node3 -->
<g id="edge2_Node000002_Node000003" class="edge">
<title>Node2&#45;&gt;Node3</title>
<g id="a_edge2_Node000002_Node000003"><a xlink:title=" ">
<path fill="none" stroke="#63b8ff" d="M690.55,-110.54C637.84,-107.72 567.67,-102.87 506,-95 487.06,-92.58 466.33,-88.95 448.46,-85.51"/>
<polygon fill="#63b8ff" stroke="#63b8ff" points="690.69,-114.05 700.86,-111.08 691.05,-107.06 690.69,-114.05"/>
</a>
</g>
</g>
<!-- Node2&#45;&gt;Node8 -->
<g id="edge9_Node000002_Node000008" class="edge">
<title>Node2&#45;&gt;Node8</title>
<g id="a_edge9_Node000002_Node000008"><a xlink:title=" ">
<path fill="none" stroke="#63b8ff" d="M714.98,-102.39C688.67,-96.99 657.76,-90.64 632.85,-85.52"/>
<polygon fill="#63b8ff" stroke="#63b8ff" points="714.32,-105.83 724.82,-104.41 715.73,-98.97 714.32,-105.83"/>
</a>
</g>
</g>
<!-- Node4 -->
<g id="Node000004" class="node">
<title>Node4</title>
<g id="a_Node000004"><a xlink:href="fmax_8c.html#ac6c918d99a0517c1106d2b330c087f8a" target="_top" xlink:title=" ">
<polygon fill="white" stroke="#666666" points="298,-47.5 208,-47.5 208,-28.5 298,-28.5 298,-47.5"/>
<text text-anchor="middle" x="253" y="-35.5" font-family="Helvetica,sans-Serif" font-size="10.00">compute_fmax</text>
</a>
</g>
</g>
<!-- Node3&#45;&gt;Node4 -->
<g id="edge3_Node000003_Node000004" class="edge">
<title>Node3&#45;&gt;Node4</title>
<g id="a_edge3_Node000003_Node000004"><a xlink:title=" ">
<path fill="none" stroke="#63b8ff" d="M354.15,-63.89C333.67,-58.6 310.01,-52.48 290.83,-47.52"/>
<polygon fill="#63b8ff" stroke="#63b8ff" points="353.35,-67.3 363.91,-66.41 355.1,-60.52 353.35,-67.3"/>
</a>
</g>
</g>
<!-- Node3&#45;&gt;Node5 -->
<g id="edge8_Node000003_Node000005" class="edge">
<title>Node3&#45;&gt;Node5</title>
<g id="a_edge8_Node000003_Node000005"><a xlink:title=" ">
<path fill="none" stroke="#63b8ff" d="M357.38,-88.09C294.05,-103.53 173.62,-124.91 77,-95 59.15,-89.48 41.93,-76.01 31.53,-66.69"/>
<polygon fill="#63b8ff" stroke="#63b8ff" points="358.57,-91.4 367.42,-85.57 356.87,-84.61 358.57,-91.4"/>
</a>
</g>
</g>
<!-- Node6 -->
<g id="Node000006" class="node">
<title>Node6</title>
<g id="a_Node000006"><a xlink:href="fragment_8c.html#ac2bb250921932f90f7b0939d1181b66d" target="_top" xlink:title=" ">
<polygon fill="white" stroke="#666666" points="284,-85.5 222,-85.5 222,-66.5 284,-66.5 284,-85.5"/>
<text text-anchor="middle" x="253" y="-73.5" font-family="Helvetica,sans-Serif" font-size="10.00">fragment</text>
</a>
</g>
</g>
<!-- Node3&#45;&gt;Node6 -->
<g id="edge5_Node000003_Node000006" class="edge">
<title>Node3&#45;&gt;Node6</title>
<g id="a_edge5_Node000003_Node000006"><a xlink:title=" ">
<path fill="none" stroke="#63b8ff" d="M323.72,-76C309.68,-76 295.81,-76 284.2,-76"/>
<polygon fill="#63b8ff" stroke="#63b8ff" points="323.95,-79.5 333.95,-76 323.95,-72.5 323.95,-79.5"/>
</a>
</g>
</g>
<!-- Node4&#45;&gt;Node5 -->
<g id="edge4_Node000004_Node000005" class="edge">
<title>Node4&#45;&gt;Node5</title>
<g id="a_edge4_Node000004_Node000005"><a xlink:title=" ">
<path fill="none" stroke="#63b8ff" d="M197.78,-42.47C147.54,-46.61 75.55,-52.54 41.2,-55.38"/>
<polygon fill="#63b8ff" stroke="#63b8ff" points="198.15,-45.95 207.83,-41.64 197.58,-38.97 198.15,-45.95"/>
</a>
</g>
</g>
<!-- Node7 -->
<g id="Node000007" class="node">
<title>Node7</title>
<g id="a_Node000007"><a xlink:href="fragment_8c.html#ae3aa75d17cbc170e60f4f48c4a2ffdf5" target="_top" xlink:title=" ">
<polygon fill="white" stroke="#666666" points="172,-85.5 77,-85.5 77,-66.5 172,-66.5 172,-85.5"/>
<text text-anchor="middle" x="124.5" y="-73.5" font-family="Helvetica,sans-Serif" font-size="10.00">fragment_driver</text>
</a>
</g>
</g>
<!-- Node6&#45;&gt;Node7 -->
<g id="edge6_Node000006_Node000007" class="edge">
<title>Node6&#45;&gt;Node7</title>
<g id="a_edge6_Node000006_Node000007"><a xlink:title=" ">
<path fill="none" stroke="#63b8ff" d="M211.59,-76C199.1,-76 185.24,-76 172.36,-76"/>
<polygon fill="#63b8ff" stroke="#63b8ff" points="211.7,-79.5 221.7,-76 211.7,-72.5 211.7,-79.5"/>
</a>
</g>
</g>
<!-- Node7&#45;&gt;Node5 -->
<g id="edge7_Node000007_Node000005" class="edge">
<title>Node7&#45;&gt;Node5</title>
<g id="a_edge7_Node000007_Node000005"><a xlink:title=" ">
<path fill="none" stroke="#63b8ff" d="M66.91,-65.46C57.67,-63.74 48.67,-62.06 41.16,-60.66"/>
<polygon fill="#63b8ff" stroke="#63b8ff" points="66.51,-68.94 76.98,-67.33 67.79,-62.06 66.51,-68.94"/>
</a>
</g>
</g>
<!-- Node8&#45;&gt;Node3 -->
<g id="edge10_Node000008_Node000003" class="edge">
<title>Node8&#45;&gt;Node3</title>
<g id="a_edge10_Node000008_Node000003"><a xlink:title=" ">
<path fill="none" stroke="#63b8ff" d="M496.21,-76C487.43,-76 478.62,-76 470.12,-76"/>
<polygon fill="#63b8ff" stroke="#63b8ff" points="496.47,-79.5 506.47,-76 496.47,-72.5 496.47,-79.5"/>
</a>
</g>
</g>
<!-- Node9&#45;&gt;Node3 -->
<g id="edge13_Node000009_Node000003" class="edge">
<title>Node9&#45;&gt;Node3</title>
<g id="a_edge13_Node000009_Node000003"><a xlink:title=" ">
<path fill="none" stroke="#63b8ff" d="M528.71,-49.68C502.97,-55.07 472.8,-61.39 448.47,-66.48"/>
<polygon fill="#63b8ff" stroke="#63b8ff" points="529.63,-53.06 538.7,-47.59 528.19,-46.21 529.63,-53.06"/>
</a>
</g>
</g>
<!-- Node9&#45;&gt;Node4 -->
<g id="edge14_Node000009_Node000004" class="edge">
<title>Node9&#45;&gt;Node4</title>
<g id="a_edge14_Node000009_Node000004"><a xlink:title=" ">
<path fill="none" stroke="#63b8ff" d="M495.68,-38C431.82,-38 348.43,-38 298.17,-38"/>
<polygon fill="#63b8ff" stroke="#63b8ff" points="495.76,-41.5 505.76,-38 495.76,-34.5 495.76,-41.5"/>
</a>
</g>
</g>
</g>
</svg>
