<?xml version="1.0" encoding="UTF-8" standalone="no"?>
<!DOCTYPE svg PUBLIC "-//W3C//DTD SVG 1.1//EN"
 "http://www.w3.org/Graphics/SVG/1.1/DTD/svg11.dtd">
<!-- Generated by graphviz version 2.43.0 (0)
 -->
<!-- Title: write_from_rvector Pages: 1 -->
<svg width="819pt" height="134pt"
 viewBox="0.00 0.00 819.00 133.53" xmlns="http://www.w3.org/2000/svg" xmlns:xlink="http://www.w3.org/1999/xlink">
<g id="graph0" class="graph" transform="scale(1 1) rotate(0) translate(4 129.53)">
<title>write_from_rvector</title>
<!-- Node1 -->
<g id="Node000001" class="node">
<title>Node1</title>
<g id="a_Node000001"><a xlink:title=" ">
<polygon fill="#999999" stroke="#666666" points="811,-49.53 701,-49.53 701,-30.53 811,-30.53 811,-49.53"/>
<text text-anchor="middle" x="756" y="-37.53" font-family="Helvetica,sans-Serif" font-size="10.00">write_from_rvector</text>
</a>
</g>
</g>
<!-- Node2 -->
<g id="Node000002" class="node">
<title>Node2</title>
<g id="a_Node000002"><a xlink:href="fmax_8c.html#af7e353ab4ac1e19ecf80743eaef23fb4" target="_top" xlink:title=" ">
<polygon fill="white" stroke="#666666" points="665,-87.53 506,-87.53 506,-68.53 665,-68.53 665,-87.53"/>
<text text-anchor="middle" x="585.5" y="-75.53" font-family="Helvetica,sans-Serif" font-size="10.00">compute_second_derivatives</text>
</a>
</g>
</g>
<!-- Node1&#45;&gt;Node2 -->
<g id="edge1_Node000001_Node000002" class="edge">
<title>Node1&#45;&gt;Node2</title>
<g id="a_edge1_Node000001_Node000002"><a xlink:title=" ">
<path fill="none" stroke="#63b8ff" d="M702.57,-51.86C678.81,-57.22 651.1,-63.47 628.71,-68.51"/>
<polygon fill="#63b8ff" stroke="#63b8ff" points="703.5,-55.24 712.48,-49.62 701.96,-48.41 703.5,-55.24"/>
</a>
</g>
</g>
<!-- Node5 -->
<g id="Node000005" class="node">
<title>Node5</title>
<g id="a_Node000005"><a xlink:href="pinocchio_8c.html#a647f21a28344e1d9c643f4115516d7c9" target="_top" xlink:title=" ">
<polygon fill="white" stroke="#666666" points="41,-68.53 0,-68.53 0,-49.53 41,-49.53 41,-68.53"/>
<text text-anchor="middle" x="20.5" y="-56.53" font-family="Helvetica,sans-Serif" font-size="10.00">main</text>
</a>
</g>
</g>
<!-- Node1&#45;&gt;Node5 -->
<g id="edge10_Node000001_Node000005" class="edge">
<title>Node1&#45;&gt;Node5</title>
<g id="a_edge10_Node000001_Node000005"><a xlink:title=" ">
<path fill="none" stroke="#63b8ff" d="M690.88,-28.92C620.5,-17.71 504.06,-2.03 403,-2.03 403,-2.03 403,-2.03 252,-2.03 173.77,-2.03 150.38,6.1 77,-21.03 59.7,-27.44 42.61,-40.41 32.06,-49.41"/>
<polygon fill="#63b8ff" stroke="#63b8ff" points="690.49,-32.41 700.92,-30.54 691.61,-25.5 690.49,-32.41"/>
</a>
</g>
</g>
<!-- Node3 -->
<g id="Node000003" class="node">
<title>Node3</title>
<g id="a_Node000003"><a xlink:href="fmax_8c.html#a83dfe236a507bb220f824c7a5f8a0fc8" target="_top" xlink:title=" ">
<polygon fill="white" stroke="#666666" points="470,-87.53 334,-87.53 334,-68.53 470,-68.53 470,-87.53"/>
<text text-anchor="middle" x="402" y="-75.53" font-family="Helvetica,sans-Serif" font-size="10.00">compute_displacements</text>
</a>
</g>
</g>
<!-- Node2&#45;&gt;Node3 -->
<g id="edge2_Node000002_Node000003" class="edge">
<title>Node2&#45;&gt;Node3</title>
<g id="a_edge2_Node000002_Node000003"><a xlink:title=" ">
<path fill="none" stroke="#63b8ff" d="M495.79,-78.03C487.12,-78.03 478.42,-78.03 470.01,-78.03"/>
<polygon fill="#63b8ff" stroke="#63b8ff" points="495.95,-81.53 505.95,-78.03 495.95,-74.53 495.95,-81.53"/>
</a>
</g>
</g>
<!-- Node4 -->
<g id="Node000004" class="node">
<title>Node4</title>
<g id="a_Node000004"><a xlink:href="fmax_8c.html#ac6c918d99a0517c1106d2b330c087f8a" target="_top" xlink:title=" ">
<polygon fill="white" stroke="#666666" points="298,-125.53 208,-125.53 208,-106.53 298,-106.53 298,-125.53"/>
<text text-anchor="middle" x="253" y="-113.53" font-family="Helvetica,sans-Serif" font-size="10.00">compute_fmax</text>
</a>
</g>
</g>
<!-- Node2&#45;&gt;Node4 -->
<g id="edge9_Node000002_Node000004" class="edge">
<title>Node2&#45;&gt;Node4</title>
<g id="a_edge9_Node000002_Node000004"><a xlink:title=" ">
<path fill="none" stroke="#63b8ff" d="M521.91,-89.31C505.09,-92.1 486.89,-94.89 470,-97.03 410.81,-104.54 342.11,-110.03 298.37,-113.13"/>
<polygon fill="#63b8ff" stroke="#63b8ff" points="522.9,-92.69 532.18,-87.58 521.74,-85.79 522.9,-92.69"/>
</a>
</g>
</g>
<!-- Node3&#45;&gt;Node4 -->
<g id="edge3_Node000003_Node000004" class="edge">
<title>Node3&#45;&gt;Node4</title>
<g id="a_edge3_Node000003_Node000004"><a xlink:title=" ">
<path fill="none" stroke="#63b8ff" d="M354.15,-90.15C333.67,-95.44 310.01,-101.56 290.83,-106.51"/>
<polygon fill="#63b8ff" stroke="#63b8ff" points="355.1,-93.52 363.91,-87.62 353.35,-86.74 355.1,-93.52"/>
</a>
</g>
</g>
<!-- Node3&#45;&gt;Node5 -->
<g id="edge8_Node000003_Node000005" class="edge">
<title>Node3&#45;&gt;Node5</title>
<g id="a_edge8_Node000003_Node000005"><a xlink:title=" ">
<path fill="none" stroke="#63b8ff" d="M323.5,-74.15C234.19,-69.68 93.07,-62.62 41.34,-60.03"/>
<polygon fill="#63b8ff" stroke="#63b8ff" points="323.43,-77.66 333.59,-74.66 323.78,-70.66 323.43,-77.66"/>
</a>
</g>
</g>
<!-- Node6 -->
<g id="Node000006" class="node">
<title>Node6</title>
<g id="a_Node000006"><a xlink:href="fragment_8c.html#ac2bb250921932f90f7b0939d1181b66d" target="_top" xlink:title=" ">
<polygon fill="white" stroke="#666666" points="284,-49.53 222,-49.53 222,-30.53 284,-30.53 284,-49.53"/>
<text text-anchor="middle" x="253" y="-37.53" font-family="Helvetica,sans-Serif" font-size="10.00">fragment</text>
</a>
</g>
</g>
<!-- Node3&#45;&gt;Node6 -->
<g id="edge5_Node000003_Node000006" class="edge">
<title>Node3&#45;&gt;Node6</title>
<g id="a_edge5_Node000003_Node000006"><a xlink:title=" ">
<path fill="none" stroke="#63b8ff" d="M354.04,-65.89C331.14,-59.98 304.28,-53.03 284.16,-47.83"/>
<polygon fill="#63b8ff" stroke="#63b8ff" points="353.35,-69.33 363.91,-68.45 355.1,-62.55 353.35,-69.33"/>
</a>
</g>
</g>
<!-- Node4&#45;&gt;Node5 -->
<g id="edge4_Node000004_Node000005" class="edge">
<title>Node4&#45;&gt;Node5</title>
<g id="a_edge4_Node000004_Node000005"><a xlink:title=" ">
<path fill="none" stroke="#63b8ff" d="M197.63,-114.16C162.4,-111.6 115.99,-105.67 77,-92.03 61.34,-86.56 45.24,-76.39 34.44,-68.78"/>
<polygon fill="#63b8ff" stroke="#63b8ff" points="197.51,-117.66 207.72,-114.82 197.97,-110.67 197.51,-117.66"/>
</a>
</g>
</g>
<!-- Node7 -->
<g id="Node000007" class="node">
<title>Node7</title>
<g id="a_Node000007"><a xlink:href="fragment_8c.html#ae3aa75d17cbc170e60f4f48c4a2ffdf5" target="_top" xlink:title=" ">
<polygon fill="white" stroke="#666666" points="172,-49.53 77,-49.53 77,-30.53 172,-30.53 172,-49.53"/>
<text text-anchor="middle" x="124.5" y="-37.53" font-family="Helvetica,sans-Serif" font-size="10.00">fragment_driver</text>
</a>
</g>
</g>
<!-- Node6&#45;&gt;Node7 -->
<g id="edge6_Node000006_Node000007" class="edge">
<title>Node6&#45;&gt;Node7</title>
<g id="a_edge6_Node000006_Node000007"><a xlink:title=" ">
<path fill="none" stroke="#63b8ff" d="M211.59,-40.03C199.1,-40.03 185.24,-40.03 172.36,-40.03"/>
<polygon fill="#63b8ff" stroke="#63b8ff" points="211.7,-43.53 221.7,-40.03 211.7,-36.53 211.7,-43.53"/>
</a>
</g>
</g>
<!-- Node7&#45;&gt;Node5 -->
<g id="edge7_Node000007_Node000005" class="edge">
<title>Node7&#45;&gt;Node5</title>
<g id="a_edge7_Node000007_Node000005"><a xlink:title=" ">
<path fill="none" stroke="#63b8ff" d="M66.91,-50.58C57.67,-52.3 48.67,-53.97 41.16,-55.37"/>
<polygon fill="#63b8ff" stroke="#63b8ff" points="67.79,-53.97 76.98,-48.7 66.51,-47.09 67.79,-53.97"/>
</a>
</g>
</g>
</g>
</svg>
