<?xml version="1.0" encoding="UTF-8" standalone="no"?>
<!DOCTYPE svg PUBLIC "-//W3C//DTD SVG 1.1//EN"
 "http://www.w3.org/Graphics/SVG/1.1/DTD/svg11.dtd">
<!-- Generated by graphviz version 2.43.0 (0)
 -->
<!-- Title: fmax.c Pages: 1 -->
<svg width="1438pt" height="137pt"
 viewBox="0.00 0.00 1437.50 137.00" xmlns="http://www.w3.org/2000/svg" xmlns:xlink="http://www.w3.org/1999/xlink">
<g id="graph0" class="graph" transform="scale(1 1) rotate(0) translate(4 133)">
<title>fmax.c</title>
<!-- Node1 -->
<g id="Node000001" class="node">
<title>Node1</title>
<g id="a_Node000001"><a xlink:title=" ">
<polygon fill="#999999" stroke="#666666" points="677.5,-129 627.5,-129 627.5,-110 677.5,-110 677.5,-129"/>
<text text-anchor="middle" x="652.5" y="-117" font-family="Helvetica,sans-Serif" font-size="10.00">fmax.c</text>
</a>
</g>
</g>
<!-- Node2 -->
<g id="Node000002" class="node">
<title>Node2</title>
<g id="a_Node000002"><a xlink:href="pinocchio_8h.html" target="_top" xlink:title=" ">
<polygon fill="white" stroke="#666666" points="645.5,-74 573.5,-74 573.5,-55 645.5,-55 645.5,-74"/>
<text text-anchor="middle" x="609.5" y="-62" font-family="Helvetica,sans-Serif" font-size="10.00">pinocchio.h</text>
</a>
</g>
</g>
<!-- Node1&#45;&gt;Node2 -->
<g id="edge1_Node000001_Node000002" class="edge">
<title>Node1&#45;&gt;Node2</title>
<g id="a_edge1_Node000001_Node000002"><a xlink:title=" ">
<path fill="none" stroke="#63b8ff" d="M645.4,-109.75C639.33,-102.26 630.41,-91.28 622.99,-82.13"/>
<polygon fill="#63b8ff" stroke="#63b8ff" points="625.49,-79.65 616.47,-74.09 620.05,-84.06 625.49,-79.65"/>
</a>
</g>
</g>
<!-- Node19 -->
<g id="Node000019" class="node">
<title>Node19</title>
<g id="a_Node000019"><a xlink:title=" ">
<polygon fill="#e0e0e0" stroke="#999999" points="727.5,-74 663.5,-74 663.5,-55 727.5,-55 727.5,-74"/>
<text text-anchor="middle" x="695.5" y="-62" font-family="Helvetica,sans-Serif" font-size="10.00">sys/stat.h</text>
</a>
</g>
</g>
<!-- Node1&#45;&gt;Node19 -->
<g id="edge18_Node000001_Node000019" class="edge">
<title>Node1&#45;&gt;Node19</title>
<g id="a_edge18_Node000001_Node000019"><a xlink:title=" ">
<path fill="none" stroke="#63b8ff" d="M659.6,-109.75C665.67,-102.26 674.59,-91.28 682.01,-82.13"/>
<polygon fill="#63b8ff" stroke="#63b8ff" points="684.95,-84.06 688.53,-74.09 679.51,-79.65 684.95,-84.06"/>
</a>
</g>
</g>
<!-- Node3 -->
<g id="Node000003" class="node">
<title>Node3</title>
<g id="a_Node000003"><a xlink:title=" ">
<polygon fill="#e0e0e0" stroke="#999999" points="53,-19 0,-19 0,0 53,0 53,-19"/>
<text text-anchor="middle" x="26.5" y="-7" font-family="Helvetica,sans-Serif" font-size="10.00">stdlib.h</text>
</a>
</g>
</g>
<!-- Node2&#45;&gt;Node3 -->
<g id="edge2_Node000002_Node000003" class="edge">
<title>Node2&#45;&gt;Node3</title>
<g id="a_edge2_Node000002_Node000003"><a xlink:title=" ">
<path fill="none" stroke="#63b8ff" d="M573.44,-62.44C487.02,-59.51 261.22,-49.49 63.15,-18.83"/>
<polygon fill="#63b8ff" stroke="#63b8ff" points="63.57,-15.36 53.15,-17.26 62.48,-22.27 63.57,-15.36"/>
</a>
</g>
</g>
<!-- Node4 -->
<g id="Node000004" class="node">
<title>Node4</title>
<g id="a_Node000004"><a xlink:title=" ">
<polygon fill="#e0e0e0" stroke="#999999" points="121.5,-19 71.5,-19 71.5,0 121.5,0 121.5,-19"/>
<text text-anchor="middle" x="96.5" y="-7" font-family="Helvetica,sans-Serif" font-size="10.00">stdio.h</text>
</a>
</g>
</g>
<!-- Node2&#45;&gt;Node4 -->
<g id="edge3_Node000002_Node000004" class="edge">
<title>Node2&#45;&gt;Node4</title>
<g id="a_edge3_Node000002_Node000004"><a xlink:title=" ">
<path fill="none" stroke="#63b8ff" d="M573.2,-62.02C494.43,-58.39 301.86,-47.35 131.55,-18.92"/>
<polygon fill="#63b8ff" stroke="#63b8ff" points="132.1,-15.46 121.66,-17.24 130.94,-22.36 132.1,-15.46"/>
</a>
</g>
</g>
<!-- Node5 -->
<g id="Node000005" class="node">
<title>Node5</title>
<g id="a_Node000005"><a xlink:title=" ">
<polygon fill="#e0e0e0" stroke="#999999" points="191,-19 140,-19 140,0 191,0 191,-19"/>
<text text-anchor="middle" x="165.5" y="-7" font-family="Helvetica,sans-Serif" font-size="10.00">math.h</text>
</a>
</g>
</g>
<!-- Node2&#45;&gt;Node5 -->
<g id="edge4_Node000002_Node000005" class="edge">
<title>Node2&#45;&gt;Node5</title>
<g id="a_edge4_Node000002_Node000005"><a xlink:title=" ">
<path fill="none" stroke="#63b8ff" d="M573.44,-61.16C503.52,-56.28 344.52,-43.52 200.91,-18.83"/>
<polygon fill="#63b8ff" stroke="#63b8ff" points="201.49,-15.38 191.03,-17.11 200.28,-22.27 201.49,-15.38"/>
</a>
</g>
</g>
<!-- Node6 -->
<g id="Node000006" class="node">
<title>Node6</title>
<g id="a_Node000006"><a xlink:title=" ">
<polygon fill="#e0e0e0" stroke="#999999" points="253.5,-19 209.5,-19 209.5,0 253.5,0 253.5,-19"/>
<text text-anchor="middle" x="231.5" y="-7" font-family="Helvetica,sans-Serif" font-size="10.00">mpi.h</text>
</a>
</g>
</g>
<!-- Node2&#45;&gt;Node6 -->
<g id="edge5_Node000002_Node000006" class="edge">
<title>Node2&#45;&gt;Node6</title>
<g id="a_edge5_Node000002_Node000006"><a xlink:title=" ">
<path fill="none" stroke="#63b8ff" d="M573.26,-60.54C511.57,-55.13 382.09,-42.21 263.72,-18.99"/>
<polygon fill="#63b8ff" stroke="#63b8ff" points="264.25,-15.53 253.76,-17.01 262.89,-22.39 264.25,-15.53"/>
</a>
</g>
</g>
<!-- Node7 -->
<g id="Node000007" class="node">
<title>Node7</title>
<g id="a_Node000007"><a xlink:title=" ">
<polygon fill="#e0e0e0" stroke="#999999" points="325,-19 272,-19 272,0 325,0 325,-19"/>
<text text-anchor="middle" x="298.5" y="-7" font-family="Helvetica,sans-Serif" font-size="10.00">string.h</text>
</a>
</g>
</g>
<!-- Node2&#45;&gt;Node7 -->
<g id="edge6_Node000002_Node000007" class="edge">
<title>Node2&#45;&gt;Node7</title>
<g id="a_edge6_Node000002_Node000007"><a xlink:title=" ">
<path fill="none" stroke="#63b8ff" d="M573.32,-58.49C522.44,-51.25 426.69,-36.97 335.17,-19"/>
<polygon fill="#63b8ff" stroke="#63b8ff" points="335.68,-15.54 325.19,-17.03 334.32,-22.4 335.68,-15.54"/>
</a>
</g>
</g>
<!-- Node8 -->
<g id="Node000008" class="node">
<title>Node8</title>
<g id="a_Node000008"><a xlink:title=" ">
<polygon fill="#e0e0e0" stroke="#999999" points="391.5,-19 343.5,-19 343.5,0 391.5,0 391.5,-19"/>
<text text-anchor="middle" x="367.5" y="-7" font-family="Helvetica,sans-Serif" font-size="10.00">time.h</text>
</a>
</g>
</g>
<!-- Node2&#45;&gt;Node8 -->
<g id="edge7_Node000002_Node000008" class="edge">
<title>Node2&#45;&gt;Node8</title>
<g id="a_edge7_Node000002_Node000008"><a xlink:title=" ">
<path fill="none" stroke="#63b8ff" d="M573.15,-56.25C533.33,-48.19 467.36,-34.54 401.36,-19.12"/>
<polygon fill="#63b8ff" stroke="#63b8ff" points="402.16,-15.72 391.62,-16.84 400.56,-22.53 402.16,-15.72"/>
</a>
</g>
</g>
<!-- Node9 -->
<g id="Node000009" class="node">
<title>Node9</title>
<g id="a_Node000009"><a xlink:title=" ">
<polygon fill="#e0e0e0" stroke="#999999" points="497.5,-19 409.5,-19 409.5,0 497.5,0 497.5,-19"/>
<text text-anchor="middle" x="453.5" y="-7" font-family="Helvetica,sans-Serif" font-size="10.00">gsl/gsl_errno.h</text>
</a>
</g>
</g>
<!-- Node2&#45;&gt;Node9 -->
<g id="edge8_Node000002_Node000009" class="edge">
<title>Node2&#45;&gt;Node9</title>
<g id="a_edge8_Node000002_Node000009"><a xlink:title=" ">
<path fill="none" stroke="#63b8ff" d="M584.44,-54.98C558.47,-46.16 517.69,-32.31 488.54,-22.41"/>
<polygon fill="#63b8ff" stroke="#63b8ff" points="489.35,-18.99 478.76,-19.08 487.1,-25.61 489.35,-18.99"/>
</a>
</g>
</g>
<!-- Node10 -->
<g id="Node000010" class="node">
<title>Node10</title>
<g id="a_Node000010"><a xlink:title=" ">
<polygon fill="#e0e0e0" stroke="#999999" points="603.5,-19 515.5,-19 515.5,0 603.5,0 603.5,-19"/>
<text text-anchor="middle" x="559.5" y="-7" font-family="Helvetica,sans-Serif" font-size="10.00">gsl/gsl_math.h</text>
</a>
</g>
</g>
<!-- Node2&#45;&gt;Node10 -->
<g id="edge9_Node000002_Node000010" class="edge">
<title>Node2&#45;&gt;Node10</title>
<g id="a_edge9_Node000002_Node000010"><a xlink:title=" ">
<path fill="none" stroke="#63b8ff" d="M601.24,-54.75C594.04,-47.11 583.39,-35.82 574.65,-26.56"/>
<polygon fill="#63b8ff" stroke="#63b8ff" points="577.01,-23.96 567.6,-19.09 571.92,-28.76 577.01,-23.96"/>
</a>
</g>
</g>
<!-- Node11 -->
<g id="Node000011" class="node">
<title>Node11</title>
<g id="a_Node000011"><a xlink:title=" ">
<polygon fill="#e0e0e0" stroke="#999999" points="699.5,-19 621.5,-19 621.5,0 699.5,0 699.5,-19"/>
<text text-anchor="middle" x="660.5" y="-7" font-family="Helvetica,sans-Serif" font-size="10.00">gsl/gsl_rng.h</text>
</a>
</g>
</g>
<!-- Node2&#45;&gt;Node11 -->
<g id="edge10_Node000002_Node000011" class="edge">
<title>Node2&#45;&gt;Node11</title>
<g id="a_edge10_Node000002_Node000011"><a xlink:title=" ">
<path fill="none" stroke="#63b8ff" d="M617.92,-54.75C625.27,-47.11 636.13,-35.82 645.04,-26.56"/>
<polygon fill="#63b8ff" stroke="#63b8ff" points="647.82,-28.72 652.24,-19.09 642.78,-23.87 647.82,-28.72"/>
</a>
</g>
</g>
<!-- Node12 -->
<g id="Node000012" class="node">
<title>Node12</title>
<g id="a_Node000012"><a xlink:title=" ">
<polygon fill="#e0e0e0" stroke="#999999" points="813.5,-19 717.5,-19 717.5,0 813.5,0 813.5,-19"/>
<text text-anchor="middle" x="765.5" y="-7" font-family="Helvetica,sans-Serif" font-size="10.00">gsl/gsl_randist.h</text>
</a>
</g>
</g>
<!-- Node2&#45;&gt;Node12 -->
<g id="edge11_Node000002_Node000012" class="edge">
<title>Node2&#45;&gt;Node12</title>
<g id="a_edge11_Node000002_Node000012"><a xlink:title=" ">
<path fill="none" stroke="#63b8ff" d="M634.56,-54.98C660.53,-46.16 701.31,-32.31 730.46,-22.41"/>
<polygon fill="#63b8ff" stroke="#63b8ff" points="731.9,-25.61 740.24,-19.08 729.65,-18.99 731.9,-25.61"/>
</a>
</g>
</g>
<!-- Node13 -->
<g id="Node000013" class="node">
<title>Node13</title>
<g id="a_Node000013"><a xlink:title=" ">
<polygon fill="#e0e0e0" stroke="#999999" points="919,-19 832,-19 832,0 919,0 919,-19"/>
<text text-anchor="middle" x="875.5" y="-7" font-family="Helvetica,sans-Serif" font-size="10.00">gsl/gsl_roots.h</text>
</a>
</g>
</g>
<!-- Node2&#45;&gt;Node13 -->
<g id="edge12_Node000002_Node000013" class="edge">
<title>Node2&#45;&gt;Node13</title>
<g id="a_edge12_Node000002_Node000013"><a xlink:title=" ">
<path fill="none" stroke="#63b8ff" d="M645.65,-56.3C691.33,-47.2 770.29,-31.46 822.72,-21.02"/>
<polygon fill="#63b8ff" stroke="#63b8ff" points="823.71,-24.39 832.83,-19 822.34,-17.52 823.71,-24.39"/>
</a>
</g>
</g>
<!-- Node14 -->
<g id="Node000014" class="node">
<title>Node14</title>
<g id="a_Node000014"><a xlink:title=" ">
<polygon fill="#e0e0e0" stroke="#999999" points="1053.5,-19 937.5,-19 937.5,0 1053.5,0 1053.5,-19"/>
<text text-anchor="middle" x="995.5" y="-7" font-family="Helvetica,sans-Serif" font-size="10.00">gsl/gsl_integration.h</text>
</a>
</g>
</g>
<!-- Node2&#45;&gt;Node14 -->
<g id="edge13_Node000002_Node000014" class="edge">
<title>Node2&#45;&gt;Node14</title>
<g id="a_edge13_Node000002_Node000014"><a xlink:title=" ">
<path fill="none" stroke="#63b8ff" d="M645.82,-56.46C648.75,-55.94 651.67,-55.45 654.5,-55 680.75,-50.81 835.48,-30.92 927.24,-19.2"/>
<polygon fill="#63b8ff" stroke="#63b8ff" points="927.81,-22.65 937.29,-17.91 926.92,-15.71 927.81,-22.65"/>
</a>
</g>
</g>
<!-- Node15 -->
<g id="Node000015" class="node">
<title>Node15</title>
<g id="a_Node000015"><a xlink:title=" ">
<polygon fill="#e0e0e0" stroke="#999999" points="1167,-19 1072,-19 1072,0 1167,0 1167,-19"/>
<text text-anchor="middle" x="1119.5" y="-7" font-family="Helvetica,sans-Serif" font-size="10.00">gsl/gsl_odeiv2.h</text>
</a>
</g>
</g>
<!-- Node2&#45;&gt;Node15 -->
<g id="edge14_Node000002_Node000015" class="edge">
<title>Node2&#45;&gt;Node15</title>
<g id="a_edge14_Node000002_Node000015"><a xlink:title=" ">
<path fill="none" stroke="#63b8ff" d="M645.8,-56.33C648.74,-55.84 651.66,-55.39 654.5,-55 831.57,-30.53 879.99,-40.07 1061.77,-19"/>
<polygon fill="#63b8ff" stroke="#63b8ff" points="1062.42,-22.45 1071.94,-17.81 1061.6,-15.5 1062.42,-22.45"/>
</a>
</g>
</g>
<!-- Node16 -->
<g id="Node000016" class="node">
<title>Node16</title>
<g id="a_Node000016"><a xlink:title=" ">
<polygon fill="#e0e0e0" stroke="#999999" points="1277.5,-19 1185.5,-19 1185.5,0 1277.5,0 1277.5,-19"/>
<text text-anchor="middle" x="1231.5" y="-7" font-family="Helvetica,sans-Serif" font-size="10.00">gsl/gsl_spline.h</text>
</a>
</g>
</g>
<!-- Node2&#45;&gt;Node16 -->
<g id="edge15_Node000002_Node000016" class="edge">
<title>Node2&#45;&gt;Node16</title>
<g id="a_edge15_Node000002_Node000016"><a xlink:title=" ">
<path fill="none" stroke="#63b8ff" d="M645.79,-56.27C648.73,-55.79 651.66,-55.36 654.5,-55 881.89,-25.79 943.64,-44.24 1175.24,-19.04"/>
<polygon fill="#63b8ff" stroke="#63b8ff" points="1175.77,-22.5 1185.32,-17.93 1175,-15.54 1175.77,-22.5"/>
</a>
</g>
</g>
<!-- Node17 -->
<g id="Node000017" class="node">
<title>Node17</title>
<g id="a_Node000017"><a xlink:title=" ">
<polygon fill="#e0e0e0" stroke="#999999" points="1369,-19 1296,-19 1296,0 1369,0 1369,-19"/>
<text text-anchor="middle" x="1332.5" y="-7" font-family="Helvetica,sans-Serif" font-size="10.00">fftw3&#45;mpi.h</text>
</a>
</g>
</g>
<!-- Node2&#45;&gt;Node17 -->
<g id="edge16_Node000002_Node000017" class="edge">
<title>Node2&#45;&gt;Node17</title>
<g id="a_edge16_Node000002_Node000017"><a xlink:title=" ">
<path fill="none" stroke="#63b8ff" d="M645.79,-56.23C648.73,-55.77 651.66,-55.35 654.5,-55 930.49,-21.22 1005.42,-51.89 1285.84,-18.89"/>
<polygon fill="#63b8ff" stroke="#63b8ff" points="1286.39,-22.35 1295.91,-17.69 1285.56,-15.4 1286.39,-22.35"/>
</a>
</g>
</g>
<!-- Node18 -->
<g id="Node000018" class="node">
<title>Node18</title>
<g id="a_Node000018"><a xlink:title=" ">
<polygon fill="#e0e0e0" stroke="#999999" points="1429.5,-19 1387.5,-19 1387.5,0 1429.5,0 1429.5,-19"/>
<text text-anchor="middle" x="1408.5" y="-7" font-family="Helvetica,sans-Serif" font-size="10.00">pfft.h</text>
</a>
</g>
</g>
<!-- Node2&#45;&gt;Node18 -->
<g id="edge17_Node000002_Node000018" class="edge">
<title>Node2&#45;&gt;Node18</title>
<g id="a_edge17_Node000002_Node000018"><a xlink:title=" ">
<path fill="none" stroke="#63b8ff" d="M645.78,-56.2C648.72,-55.75 651.66,-55.34 654.5,-55 971.15,-17.4 1058.8,-70.14 1377.35,-18.77"/>
<polygon fill="#63b8ff" stroke="#63b8ff" points="1378.02,-22.21 1387.33,-17.14 1376.9,-15.3 1378.02,-22.21"/>
</a>
</g>
</g>
</g>
</svg>
