<?xml version="1.0" encoding="UTF-8" standalone="no"?>
<!DOCTYPE svg PUBLIC "-//W3C//DTD SVG 1.1//EN"
 "http://www.w3.org/Graphics/SVG/1.1/DTD/svg11.dtd">
<!-- Generated by graphviz version 2.43.0 (0)
 -->
<!-- Title: compute_derivative Pages: 1 -->
<svg width="265pt" height="101pt"
 viewBox="0.00 0.00 265.00 101.00" xmlns="http://www.w3.org/2000/svg" xmlns:xlink="http://www.w3.org/1999/xlink">
<g id="graph0" class="graph" transform="scale(1 1) rotate(0) translate(4 97)">
<title>compute_derivative</title>
<!-- Node1 -->
<g id="Node000001" class="node">
<title>Node1</title>
<g id="a_Node000001"><a xlink:title=" ">
<polygon fill="#999999" stroke="#666666" points="114,-56 0,-56 0,-37 114,-37 114,-56"/>
<text text-anchor="middle" x="57" y="-44" font-family="Helvetica,sans-Serif" font-size="10.00">compute_derivative</text>
</a>
</g>
</g>
<!-- Node2 -->
<g id="Node000002" class="node">
<title>Node2</title>
<g id="a_Node000002"><a xlink:href="fmax_8c.html#a76000ea6ddfd81a9d6cf317d53f54378" target="_top" xlink:title=" ">
<polygon fill="white" stroke="#666666" points="224.5,-93 182.5,-93 182.5,-74 224.5,-74 224.5,-93"/>
<text text-anchor="middle" x="203.5" y="-81" font-family="Helvetica,sans-Serif" font-size="10.00">fdate</text>
</a>
</g>
</g>
<!-- Node1&#45;&gt;Node2 -->
<g id="edge1_Node000001_Node000002" class="edge">
<title>Node1&#45;&gt;Node2</title>
<g id="a_edge1_Node000001_Node000002"><a xlink:title=" ">
<path fill="none" stroke="#63b8ff" d="M95.21,-56.03C119.18,-62.17 149.93,-70.04 172.37,-75.78"/>
<polygon fill="#63b8ff" stroke="#63b8ff" points="171.78,-79.25 182.34,-78.34 173.52,-72.47 171.78,-79.25"/>
</a>
</g>
</g>
<!-- Node3 -->
<g id="Node000003" class="node">
<title>Node3</title>
<g id="a_Node000003"><a xlink:href="fmax-fftw_8c.html#a0a0b99548967fb246932282f353e5d80" target="_top" xlink:title=" ">
<polygon fill="white" stroke="#666666" points="251,-56 156,-56 156,-37 251,-37 251,-56"/>
<text text-anchor="middle" x="203.5" y="-44" font-family="Helvetica,sans-Serif" font-size="10.00">greens_function</text>
</a>
</g>
</g>
<!-- Node1&#45;&gt;Node3 -->
<g id="edge2_Node000001_Node000003" class="edge">
<title>Node1&#45;&gt;Node3</title>
<g id="a_edge2_Node000001_Node000003"><a xlink:title=" ">
<path fill="none" stroke="#63b8ff" d="M114.28,-46.5C124.62,-46.5 135.42,-46.5 145.78,-46.5"/>
<polygon fill="#63b8ff" stroke="#63b8ff" points="145.95,-50 155.95,-46.5 145.95,-43 145.95,-50"/>
</a>
</g>
</g>
<!-- Node4 -->
<g id="Node000004" class="node">
<title>Node4</title>
<g id="a_Node000004"><a xlink:href="fmax-fftw_8c.html#a9b00c4c92bd36a79d29b634244174f38" target="_top" xlink:title=" ">
<polygon fill="white" stroke="#666666" points="257,-19 150,-19 150,0 257,0 257,-19"/>
<text text-anchor="middle" x="203.5" y="-7" font-family="Helvetica,sans-Serif" font-size="10.00">reverse_transform</text>
</a>
</g>
</g>
<!-- Node1&#45;&gt;Node4 -->
<g id="edge3_Node000001_Node000004" class="edge">
<title>Node1&#45;&gt;Node4</title>
<g id="a_edge3_Node000001_Node000004"><a xlink:title=" ">
<path fill="none" stroke="#63b8ff" d="M95.21,-36.97C113.51,-32.29 135.77,-26.59 155.26,-21.6"/>
<polygon fill="#63b8ff" stroke="#63b8ff" points="156.34,-24.93 165.16,-19.06 154.61,-18.15 156.34,-24.93"/>
</a>
</g>
</g>
</g>
</svg>
