<?xml version="1.0" encoding="UTF-8" standalone="no"?>
<!DOCTYPE svg PUBLIC "-//W3C//DTD SVG 1.1//EN"
 "http://www.w3.org/Graphics/SVG/1.1/DTD/svg11.dtd">
<!-- Generated by graphviz version 2.43.0 (0)
 -->
<!-- Title: compute_displacements Pages: 1 -->
<svg width="826pt" height="359pt"
 viewBox="0.00 0.00 826.00 358.85" xmlns="http://www.w3.org/2000/svg" xmlns:xlink="http://www.w3.org/1999/xlink">
<g id="graph0" class="graph" transform="scale(1 1) rotate(0) translate(4 354.85)">
<title>compute_displacements</title>
<!-- Node1 -->
<g id="Node000001" class="node">
<title>Node1</title>
<g id="a_Node000001"><a xlink:title=" ">
<polygon fill="#999999" stroke="#666666" points="136,-243.78 0,-243.78 0,-224.78 136,-224.78 136,-243.78"/>
<text text-anchor="middle" x="68" y="-231.78" font-family="Helvetica,sans-Serif" font-size="10.00">compute_displacements</text>
</a>
</g>
</g>
<!-- Node2 -->
<g id="Node000002" class="node">
<title>Node2</title>
<g id="a_Node000002"><a xlink:href="fmax_8c.html#a4b416954b6cbbc2372b9560e677b4014" target="_top" xlink:title=" ">
<polygon fill="white" stroke="#666666" points="517,-196.78 374,-196.78 374,-177.78 517,-177.78 517,-196.78"/>
<text text-anchor="middle" x="445.5" y="-184.78" font-family="Helvetica,sans-Serif" font-size="10.00">compute_first_derivatives</text>
</a>
</g>
</g>
<!-- Node1&#45;&gt;Node2 -->
<g id="edge1_Node000001_Node000002" class="edge">
<title>Node1&#45;&gt;Node2</title>
<g id="a_edge1_Node000001_Node000002"><a xlink:title=" ">
<path fill="none" stroke="#63b8ff" d="M136.13,-225.87C199.84,-217.9 295.68,-205.9 363.58,-197.4"/>
<polygon fill="#63b8ff" stroke="#63b8ff" points="364.32,-200.84 373.8,-196.12 363.45,-193.89 364.32,-200.84"/>
</a>
</g>
</g>
<!-- Node4 -->
<g id="Node000004" class="node">
<title>Node4</title>
<g id="a_Node000004"><a xlink:href="fmax_8c.html#a76000ea6ddfd81a9d6cf317d53f54378" target="_top" xlink:title=" ">
<polygon fill="white" stroke="#666666" points="785.5,-207.78 743.5,-207.78 743.5,-188.78 785.5,-188.78 785.5,-207.78"/>
<text text-anchor="middle" x="764.5" y="-195.78" font-family="Helvetica,sans-Serif" font-size="10.00">fdate</text>
</a>
</g>
</g>
<!-- Node1&#45;&gt;Node4 -->
<g id="edge22_Node000001_Node000004" class="edge">
<title>Node1&#45;&gt;Node4</title>
<g id="a_edge22_Node000001_Node000004"><a xlink:title=" ">
<path fill="none" stroke="#63b8ff" d="M87.82,-243.9C165.13,-282.03 464.22,-415.49 675,-312.28 715.51,-292.44 742.8,-244.14 755.44,-217.21"/>
<polygon fill="#63b8ff" stroke="#63b8ff" points="758.66,-218.59 759.56,-208.04 752.27,-215.72 758.66,-218.59"/>
</a>
</g>
</g>
<!-- Node9 -->
<g id="Node000009" class="node">
<title>Node9</title>
<g id="a_Node000009"><a xlink:href="LPT_8c.html#acd2ff0573cb91e413fb17c10768b35bc" target="_top" xlink:title=" ">
<polygon fill="white" stroke="#666666" points="330,-149.78 172,-149.78 172,-130.78 330,-130.78 330,-149.78"/>
<text text-anchor="middle" x="251" y="-137.78" font-family="Helvetica,sans-Serif" font-size="10.00">compute_LPT_displacements</text>
</a>
</g>
</g>
<!-- Node1&#45;&gt;Node9 -->
<g id="edge9_Node000001_Node000009" class="edge">
<title>Node1&#45;&gt;Node9</title>
<g id="a_edge9_Node000001_Node000009"><a xlink:title=" ">
<path fill="none" stroke="#63b8ff" d="M87.35,-224.75C119.2,-208.21 184.86,-174.1 222.29,-154.67"/>
<polygon fill="#63b8ff" stroke="#63b8ff" points="224.34,-157.55 231.6,-149.83 221.11,-151.33 224.34,-157.55"/>
</a>
</g>
</g>
<!-- Node13 -->
<g id="Node000013" class="node">
<title>Node13</title>
<g id="a_Node000013"><a xlink:href="fmax_8c.html#af7e353ab4ac1e19ecf80743eaef23fb4" target="_top" xlink:title=" ">
<polygon fill="white" stroke="#666666" points="525,-272.78 366,-272.78 366,-253.78 525,-253.78 525,-272.78"/>
<text text-anchor="middle" x="445.5" y="-260.78" font-family="Helvetica,sans-Serif" font-size="10.00">compute_second_derivatives</text>
</a>
</g>
</g>
<!-- Node1&#45;&gt;Node13 -->
<g id="edge17_Node000001_Node000013" class="edge">
<title>Node1&#45;&gt;Node13</title>
<g id="a_edge17_Node000001_Node000013"><a xlink:title=" ">
<path fill="none" stroke="#63b8ff" d="M136.13,-239.46C197.43,-244.19 288.48,-251.23 355.76,-256.42"/>
<polygon fill="#63b8ff" stroke="#63b8ff" points="355.69,-259.93 365.93,-257.21 356.23,-252.95 355.69,-259.93"/>
</a>
</g>
</g>
<!-- Node3 -->
<g id="Node000003" class="node">
<title>Node3</title>
<g id="a_Node000003"><a xlink:href="fmax-fftw_8c.html#a7852a9463984d6a264677376fa61cfb8" target="_top" xlink:title=" ">
<polygon fill="white" stroke="#666666" points="675,-83.78 561,-83.78 561,-64.78 675,-64.78 675,-83.78"/>
<text text-anchor="middle" x="618" y="-71.78" font-family="Helvetica,sans-Serif" font-size="10.00">compute_derivative</text>
</a>
</g>
</g>
<!-- Node2&#45;&gt;Node3 -->
<g id="edge2_Node000002_Node000003" class="edge">
<title>Node2&#45;&gt;Node3</title>
<g id="a_edge2_Node000002_Node000003"><a xlink:title=" ">
<path fill="none" stroke="#63b8ff" d="M502.88,-177.73C510.59,-175.26 518.18,-172.17 525,-168.28 544.93,-156.91 544.96,-147.68 561,-131.28 574.24,-117.74 589.28,-102.43 600.44,-91.09"/>
<polygon fill="#63b8ff" stroke="#63b8ff" points="602.95,-93.53 607.47,-83.94 597.96,-88.62 602.95,-93.53"/>
</a>
</g>
</g>
<!-- Node2&#45;&gt;Node4 -->
<g id="edge6_Node000002_Node000004" class="edge">
<title>Node2&#45;&gt;Node4</title>
<g id="a_edge6_Node000002_Node000004"><a xlink:title=" ">
<path fill="none" stroke="#63b8ff" d="M517.25,-189.73C585.08,-192.08 684.22,-195.52 733.45,-197.23"/>
<polygon fill="#63b8ff" stroke="#63b8ff" points="733.33,-200.73 743.45,-197.58 733.58,-193.74 733.33,-200.73"/>
</a>
</g>
</g>
<!-- Node7 -->
<g id="Node000007" class="node">
<title>Node7</title>
<g id="a_Node000007"><a xlink:href="fmax-pfft_8c.html#a2c52d2665e8222b82fc13fb46b58f7fe" target="_top" xlink:title=" ">
<polygon fill="white" stroke="#666666" points="673,-170.28 563,-170.28 563,-140.28 673,-140.28 673,-170.28"/>
<text text-anchor="start" x="571" y="-158.28" font-family="Helvetica,sans-Serif" font-size="10.00">write_from_rvector</text>
<text text-anchor="middle" x="618" y="-147.28" font-family="Helvetica,sans-Serif" font-size="10.00">_to_products</text>
</a>
</g>
</g>
<!-- Node2&#45;&gt;Node7 -->
<g id="edge7_Node000002_Node000007" class="edge">
<title>Node2&#45;&gt;Node7</title>
<g id="a_edge7_Node000002_Node000007"><a xlink:title=" ">
<path fill="none" stroke="#63b8ff" d="M497.19,-177.76C514.67,-174.48 534.48,-170.76 552.88,-167.31"/>
<polygon fill="#63b8ff" stroke="#63b8ff" points="553.76,-170.71 562.94,-165.42 552.47,-163.83 553.76,-170.71"/>
</a>
</g>
</g>
<!-- Node8 -->
<g id="Node000008" class="node">
<title>Node8</title>
<g id="a_Node000008"><a xlink:href="fmax-fftw_8c.html#a7059752d6936489370334baac9522bf9" target="_top" xlink:title=" ">
<polygon fill="white" stroke="#666666" points="666.5,-245.78 569.5,-245.78 569.5,-226.78 666.5,-226.78 666.5,-245.78"/>
<text text-anchor="middle" x="618" y="-233.78" font-family="Helvetica,sans-Serif" font-size="10.00">write_in_cvector</text>
</a>
</g>
</g>
<!-- Node2&#45;&gt;Node8 -->
<g id="edge8_Node000002_Node000008" class="edge">
<title>Node2&#45;&gt;Node8</title>
<g id="a_edge8_Node000002_Node000008"><a xlink:title=" ">
<path fill="none" stroke="#63b8ff" d="M479.78,-196.84C506.65,-204.56 544.67,-215.49 573.87,-223.88"/>
<polygon fill="#63b8ff" stroke="#63b8ff" points="573.23,-227.34 583.81,-226.74 575.16,-220.61 573.23,-227.34"/>
</a>
</g>
</g>
<!-- Node3&#45;&gt;Node4 -->
<g id="edge3_Node000003_Node000004" class="edge">
<title>Node3&#45;&gt;Node4</title>
<g id="a_edge3_Node000003_Node000004"><a xlink:title=" ">
<path fill="none" stroke="#63b8ff" d="M647.92,-83.83C657.04,-87.57 666.85,-92.39 675,-98.28 707.23,-121.56 735.99,-158.53 751.47,-180.39"/>
<polygon fill="#63b8ff" stroke="#63b8ff" points="748.69,-182.53 757.26,-188.76 754.45,-178.54 748.69,-182.53"/>
</a>
</g>
</g>
<!-- Node5 -->
<g id="Node000005" class="node">
<title>Node5</title>
<g id="a_Node000005"><a xlink:href="fmax-fftw_8c.html#a0a0b99548967fb246932282f353e5d80" target="_top" xlink:title=" ">
<polygon fill="white" stroke="#666666" points="812,-102.78 717,-102.78 717,-83.78 812,-83.78 812,-102.78"/>
<text text-anchor="middle" x="764.5" y="-90.78" font-family="Helvetica,sans-Serif" font-size="10.00">greens_function</text>
</a>
</g>
</g>
<!-- Node3&#45;&gt;Node5 -->
<g id="edge4_Node000003_Node000005" class="edge">
<title>Node3&#45;&gt;Node5</title>
<g id="a_edge4_Node000003_Node000005"><a xlink:title=" ">
<path fill="none" stroke="#63b8ff" d="M675.28,-81.68C685.62,-83.04 696.42,-84.46 706.78,-85.82"/>
<polygon fill="#63b8ff" stroke="#63b8ff" points="706.58,-89.32 716.95,-87.16 707.49,-82.38 706.58,-89.32"/>
</a>
</g>
</g>
<!-- Node6 -->
<g id="Node000006" class="node">
<title>Node6</title>
<g id="a_Node000006"><a xlink:href="fmax-fftw_8c.html#a9b00c4c92bd36a79d29b634244174f38" target="_top" xlink:title=" ">
<polygon fill="white" stroke="#666666" points="818,-65.78 711,-65.78 711,-46.78 818,-46.78 818,-65.78"/>
<text text-anchor="middle" x="764.5" y="-53.78" font-family="Helvetica,sans-Serif" font-size="10.00">reverse_transform</text>
</a>
</g>
</g>
<!-- Node3&#45;&gt;Node6 -->
<g id="edge5_Node000003_Node000006" class="edge">
<title>Node3&#45;&gt;Node6</title>
<g id="a_edge5_Node000003_Node000006"><a xlink:title=" ">
<path fill="none" stroke="#63b8ff" d="M675.28,-67.27C683.62,-66.23 692.26,-65.15 700.72,-64.1"/>
<polygon fill="#63b8ff" stroke="#63b8ff" points="701.43,-67.54 710.92,-62.83 700.56,-60.59 701.43,-67.54"/>
</a>
</g>
</g>
<!-- Node9&#45;&gt;Node2 -->
<g id="edge11_Node000009_Node000002" class="edge">
<title>Node9&#45;&gt;Node2</title>
<g id="a_edge11_Node000009_Node000002"><a xlink:title=" ">
<path fill="none" stroke="#63b8ff" d="M290.77,-149.83C312.82,-155.26 340.95,-162.17 366,-168.28 375.4,-170.57 385.44,-173.01 395.09,-175.34"/>
<polygon fill="#63b8ff" stroke="#63b8ff" points="394.42,-178.78 404.96,-177.73 396.07,-171.98 394.42,-178.78"/>
</a>
</g>
</g>
<!-- Node9&#45;&gt;Node3 -->
<g id="edge10_Node000009_Node000003" class="edge">
<title>Node9&#45;&gt;Node3</title>
<g id="a_edge10_Node000009_Node000003"><a xlink:title=" ">
<path fill="none" stroke="#63b8ff" d="M257.28,-130.5C271.18,-105.94 311.49,-41.94 366,-18.28 430.82,9.87 456.96,0.8 525,-18.28 552.44,-25.97 579.82,-44.36 597.48,-57.97"/>
<polygon fill="#63b8ff" stroke="#63b8ff" points="595.78,-61.09 605.78,-64.58 600.14,-55.61 595.78,-61.09"/>
</a>
</g>
</g>
<!-- Node9&#45;&gt;Node4 -->
<g id="edge12_Node000009_Node000004" class="edge">
<title>Node9&#45;&gt;Node4</title>
<g id="a_edge12_Node000009_Node000004"><a xlink:title=" ">
<path fill="none" stroke="#63b8ff" d="M291.53,-130.77C367.99,-114.25 540.44,-86.08 675,-131.28 704.2,-141.08 731.44,-164.76 747.78,-181.17"/>
<polygon fill="#63b8ff" stroke="#63b8ff" points="745.43,-183.77 754.89,-188.55 750.47,-178.92 745.43,-183.77"/>
</a>
</g>
</g>
<!-- Node9&#45;&gt;Node8 -->
<g id="edge15_Node000009_Node000008" class="edge">
<title>Node9&#45;&gt;Node8</title>
<g id="a_edge15_Node000009_Node000008"><a xlink:title=" ">
<path fill="none" stroke="#63b8ff" d="M264.87,-149.91C285.18,-164.57 326.43,-192.14 366,-205.28 429.87,-226.48 507.24,-233.41 559.05,-235.55"/>
<polygon fill="#63b8ff" stroke="#63b8ff" points="558.94,-239.05 569.06,-235.92 559.19,-232.05 558.94,-239.05"/>
</a>
</g>
</g>
<!-- Node10 -->
<g id="Node000010" class="node">
<title>Node10</title>
<g id="a_Node000010"><a xlink:href="fmax-fftw_8c.html#a986b79719798da4550ae914f5fa77483" target="_top" xlink:title=" ">
<polygon fill="white" stroke="#666666" points="499,-159.78 392,-159.78 392,-140.78 499,-140.78 499,-159.78"/>
<text text-anchor="middle" x="445.5" y="-147.78" font-family="Helvetica,sans-Serif" font-size="10.00">forward_transform</text>
</a>
</g>
</g>
<!-- Node9&#45;&gt;Node10 -->
<g id="edge13_Node000009_Node000010" class="edge">
<title>Node9&#45;&gt;Node10</title>
<g id="a_edge13_Node000009_Node000010"><a xlink:title=" ">
<path fill="none" stroke="#63b8ff" d="M330.02,-144.33C347.28,-145.23 365.35,-146.16 381.91,-147.02"/>
<polygon fill="#63b8ff" stroke="#63b8ff" points="381.83,-150.53 392,-147.55 382.19,-143.53 381.83,-150.53"/>
</a>
</g>
</g>
<!-- Node11 -->
<g id="Node000011" class="node">
<title>Node11</title>
<g id="a_Node000011"><a xlink:href="fmax-fftw_8c.html#a5888f79e8dc110c60e7c37890778bc3b" target="_top" xlink:title=" ">
<polygon fill="white" stroke="#666666" points="501,-83.78 390,-83.78 390,-64.78 501,-64.78 501,-83.78"/>
<text text-anchor="middle" x="445.5" y="-71.78" font-family="Helvetica,sans-Serif" font-size="10.00">write_from_cvector</text>
</a>
</g>
</g>
<!-- Node9&#45;&gt;Node11 -->
<g id="edge14_Node000009_Node000011" class="edge">
<title>Node9&#45;&gt;Node11</title>
<g id="a_edge14_Node000009_Node000011"><a xlink:title=" ">
<path fill="none" stroke="#63b8ff" d="M276.76,-130.69C299.76,-121.91 335.02,-108.71 366,-98.28 377.71,-94.33 390.5,-90.31 402.28,-86.71"/>
<polygon fill="#63b8ff" stroke="#63b8ff" points="403.35,-90.04 411.91,-83.79 401.32,-83.34 403.35,-90.04"/>
</a>
</g>
</g>
<!-- Node12 -->
<g id="Node000012" class="node">
<title>Node12</title>
<g id="a_Node000012"><a xlink:href="fmax-fftw_8c.html#a8740927f784d6e43197124100c9215fb" target="_top" xlink:title=" ">
<polygon fill="white" stroke="#666666" points="493,-46.78 398,-46.78 398,-27.78 493,-27.78 493,-46.78"/>
<text text-anchor="middle" x="445.5" y="-34.78" font-family="Helvetica,sans-Serif" font-size="10.00">write_in_rvector</text>
</a>
</g>
</g>
<!-- Node9&#45;&gt;Node12 -->
<g id="edge16_Node000009_Node000012" class="edge">
<title>Node9&#45;&gt;Node12</title>
<g id="a_edge16_Node000009_Node000012"><a xlink:title=" ">
<path fill="none" stroke="#63b8ff" d="M261.75,-130.72C280.36,-113.03 322.98,-75.17 366,-55.28 372.88,-52.09 380.37,-49.45 387.9,-47.26"/>
<polygon fill="#63b8ff" stroke="#63b8ff" points="389.01,-50.59 397.78,-44.64 387.22,-43.83 389.01,-50.59"/>
</a>
</g>
</g>
<!-- Node13&#45;&gt;Node3 -->
<g id="edge18_Node000013_Node000003" class="edge">
<title>Node13&#45;&gt;Node3</title>
<g id="a_edge18_Node000013_Node000003"><a xlink:title=" ">
<path fill="none" stroke="#63b8ff" d="M464.03,-253.72C481.34,-243.57 507.67,-226.12 525,-205.28 548.38,-177.15 539.91,-161.16 561,-131.28 571.66,-116.17 586.39,-101.35 598.07,-90.61"/>
<polygon fill="#63b8ff" stroke="#63b8ff" points="600.48,-93.15 605.58,-83.87 595.8,-87.94 600.48,-93.15"/>
</a>
</g>
</g>
<!-- Node13&#45;&gt;Node4 -->
<g id="edge19_Node000013_Node000004" class="edge">
<title>Node13&#45;&gt;Node4</title>
<g id="a_edge19_Node000013_Node000004"><a xlink:title=" ">
<path fill="none" stroke="#63b8ff" d="M467.36,-272.83C508.79,-290.36 603.6,-323.12 675,-292.28 710.65,-276.88 738.58,-239.27 752.91,-216.56"/>
<polygon fill="#63b8ff" stroke="#63b8ff" points="756,-218.22 758.2,-207.85 750.02,-214.58 756,-218.22"/>
</a>
</g>
</g>
<!-- Node13&#45;&gt;Node8 -->
<g id="edge21_Node000013_Node000008" class="edge">
<title>Node13&#45;&gt;Node8</title>
<g id="a_edge21_Node000013_Node000008"><a xlink:title=" ">
<path fill="none" stroke="#63b8ff" d="M506.61,-253.76C523.68,-251.05 542.23,-248.12 559.16,-245.44"/>
<polygon fill="#63b8ff" stroke="#63b8ff" points="560.14,-248.82 569.47,-243.8 559.04,-241.91 560.14,-248.82"/>
</a>
</g>
</g>
<!-- Node14 -->
<g id="Node000014" class="node">
<title>Node14</title>
<g id="a_Node000014"><a xlink:href="fmax-fftw_8c.html#a2b33f3af0a53380680cd2014715d2f88" target="_top" xlink:title=" ">
<polygon fill="white" stroke="#666666" points="673,-282.78 563,-282.78 563,-263.78 673,-263.78 673,-282.78"/>
<text text-anchor="middle" x="618" y="-270.78" font-family="Helvetica,sans-Serif" font-size="10.00">write_from_rvector</text>
</a>
</g>
</g>
<!-- Node13&#45;&gt;Node14 -->
<g id="edge20_Node000013_Node000014" class="edge">
<title>Node13&#45;&gt;Node14</title>
<g id="a_edge20_Node000013_Node000014"><a xlink:title=" ">
<path fill="none" stroke="#63b8ff" d="M525.26,-267.9C534.52,-268.44 543.88,-268.99 552.9,-269.52"/>
<polygon fill="#63b8ff" stroke="#63b8ff" points="552.73,-273.01 562.92,-270.1 553.14,-266.02 552.73,-273.01"/>
</a>
</g>
</g>
</g>
</svg>
