<?xml version="1.0" encoding="UTF-8" standalone="no"?>
<!DOCTYPE svg PUBLIC "-//W3C//DTD SVG 1.1//EN"
 "http://www.w3.org/Graphics/SVG/1.1/DTD/svg11.dtd">
<!-- Generated by graphviz version 2.43.0 (0)
 -->
<!-- Title: write_from_cvector Pages: 1 -->
<svg width="791pt" height="103pt"
 viewBox="0.00 0.00 791.00 103.00" xmlns="http://www.w3.org/2000/svg" xmlns:xlink="http://www.w3.org/1999/xlink">
<g id="graph0" class="graph" transform="scale(1 1) rotate(0) translate(4 99)">
<title>write_from_cvector</title>
<!-- Node1 -->
<g id="Node000001" class="node">
<title>Node1</title>
<g id="a_Node000001"><a xlink:title=" ">
<polygon fill="#999999" stroke="#666666" points="783,-57 672,-57 672,-38 783,-38 783,-57"/>
<text text-anchor="middle" x="727.5" y="-45" font-family="Helvetica,sans-Serif" font-size="10.00">write_from_cvector</text>
</a>
</g>
</g>
<!-- Node2 -->
<g id="Node000002" class="node">
<title>Node2</title>
<g id="a_Node000002"><a xlink:href="LPT_8c.html#acd2ff0573cb91e413fb17c10768b35bc" target="_top" xlink:title=" ">
<polygon fill="white" stroke="#666666" points="636,-57 478,-57 478,-38 636,-38 636,-57"/>
<text text-anchor="middle" x="557" y="-45" font-family="Helvetica,sans-Serif" font-size="10.00">compute_LPT_displacements</text>
</a>
</g>
</g>
<!-- Node1&#45;&gt;Node2 -->
<g id="edge1_Node000001_Node000002" class="edge">
<title>Node1&#45;&gt;Node2</title>
<g id="a_edge1_Node000001_Node000002"><a xlink:title=" ">
<path fill="none" stroke="#63b8ff" d="M661.78,-47.5C653.44,-47.5 644.83,-47.5 636.3,-47.5"/>
<polygon fill="#63b8ff" stroke="#63b8ff" points="661.79,-51 671.79,-47.5 661.79,-44 661.79,-51"/>
</a>
</g>
</g>
<!-- Node3 -->
<g id="Node000003" class="node">
<title>Node3</title>
<g id="a_Node000003"><a xlink:href="fmax_8c.html#a83dfe236a507bb220f824c7a5f8a0fc8" target="_top" xlink:title=" ">
<polygon fill="white" stroke="#666666" points="442,-57 306,-57 306,-38 442,-38 442,-57"/>
<text text-anchor="middle" x="374" y="-45" font-family="Helvetica,sans-Serif" font-size="10.00">compute_displacements</text>
</a>
</g>
</g>
<!-- Node2&#45;&gt;Node3 -->
<g id="edge2_Node000002_Node000003" class="edge">
<title>Node2&#45;&gt;Node3</title>
<g id="a_edge2_Node000002_Node000003"><a xlink:title=" ">
<path fill="none" stroke="#63b8ff" d="M467.78,-47.5C459.12,-47.5 450.42,-47.5 442.02,-47.5"/>
<polygon fill="#63b8ff" stroke="#63b8ff" points="467.93,-51 477.93,-47.5 467.93,-44 467.93,-51"/>
</a>
</g>
</g>
<!-- Node4 -->
<g id="Node000004" class="node">
<title>Node4</title>
<g id="a_Node000004"><a xlink:href="fmax_8c.html#ac6c918d99a0517c1106d2b330c087f8a" target="_top" xlink:title=" ">
<polygon fill="white" stroke="#666666" points="169.5,-95 79.5,-95 79.5,-76 169.5,-76 169.5,-95"/>
<text text-anchor="middle" x="124.5" y="-83" font-family="Helvetica,sans-Serif" font-size="10.00">compute_fmax</text>
</a>
</g>
</g>
<!-- Node3&#45;&gt;Node4 -->
<g id="edge3_Node000003_Node000004" class="edge">
<title>Node3&#45;&gt;Node4</title>
<g id="a_edge3_Node000003_Node000004"><a xlink:title=" ">
<path fill="none" stroke="#63b8ff" d="M300.86,-58.58C258.41,-65.09 206.1,-73.12 169.71,-78.71"/>
<polygon fill="#63b8ff" stroke="#63b8ff" points="301.51,-62.02 310.86,-57.04 300.45,-55.1 301.51,-62.02"/>
</a>
</g>
</g>
<!-- Node5 -->
<g id="Node000005" class="node">
<title>Node5</title>
<g id="a_Node000005"><a xlink:href="pinocchio_8c.html#a647f21a28344e1d9c643f4115516d7c9" target="_top" xlink:title=" ">
<polygon fill="white" stroke="#666666" points="41,-57 0,-57 0,-38 41,-38 41,-57"/>
<text text-anchor="middle" x="20.5" y="-45" font-family="Helvetica,sans-Serif" font-size="10.00">main</text>
</a>
</g>
</g>
<!-- Node3&#45;&gt;Node5 -->
<g id="edge8_Node000003_Node000005" class="edge">
<title>Node3&#45;&gt;Node5</title>
<g id="a_edge8_Node000003_Node000005"><a xlink:title=" ">
<path fill="none" stroke="#63b8ff" d="M295.59,-47.5C213.39,-47.5 88.88,-47.5 41.11,-47.5"/>
<polygon fill="#63b8ff" stroke="#63b8ff" points="295.64,-51 305.64,-47.5 295.64,-44 295.64,-51"/>
</a>
</g>
</g>
<!-- Node6 -->
<g id="Node000006" class="node">
<title>Node6</title>
<g id="a_Node000006"><a xlink:href="fragment_8c.html#ac2bb250921932f90f7b0939d1181b66d" target="_top" xlink:title=" ">
<polygon fill="white" stroke="#666666" points="270,-19 208,-19 208,0 270,0 270,-19"/>
<text text-anchor="middle" x="239" y="-7" font-family="Helvetica,sans-Serif" font-size="10.00">fragment</text>
</a>
</g>
</g>
<!-- Node3&#45;&gt;Node6 -->
<g id="edge5_Node000003_Node000006" class="edge">
<title>Node3&#45;&gt;Node6</title>
<g id="a_edge5_Node000003_Node000006"><a xlink:title=" ">
<path fill="none" stroke="#63b8ff" d="M329.63,-35.11C310.26,-29.57 287.91,-23.19 270.37,-18.18"/>
<polygon fill="#63b8ff" stroke="#63b8ff" points="328.86,-38.53 339.44,-37.91 330.78,-31.8 328.86,-38.53"/>
</a>
</g>
</g>
<!-- Node4&#45;&gt;Node5 -->
<g id="edge4_Node000004_Node000005" class="edge">
<title>Node4&#45;&gt;Node5</title>
<g id="a_edge4_Node000004_Node000005"><a xlink:title=" ">
<path fill="none" stroke="#63b8ff" d="M88.28,-72.38C72.49,-66.5 54.46,-59.78 41.11,-54.81"/>
<polygon fill="#63b8ff" stroke="#63b8ff" points="87.17,-75.7 97.76,-75.91 89.61,-69.14 87.17,-75.7"/>
</a>
</g>
</g>
<!-- Node7 -->
<g id="Node000007" class="node">
<title>Node7</title>
<g id="a_Node000007"><a xlink:href="fragment_8c.html#ae3aa75d17cbc170e60f4f48c4a2ffdf5" target="_top" xlink:title=" ">
<polygon fill="white" stroke="#666666" points="172,-19 77,-19 77,0 172,0 172,-19"/>
<text text-anchor="middle" x="124.5" y="-7" font-family="Helvetica,sans-Serif" font-size="10.00">fragment_driver</text>
</a>
</g>
</g>
<!-- Node6&#45;&gt;Node7 -->
<g id="edge6_Node000006_Node000007" class="edge">
<title>Node6&#45;&gt;Node7</title>
<g id="a_edge6_Node000006_Node000007"><a xlink:title=" ">
<path fill="none" stroke="#63b8ff" d="M197.73,-9.5C189.47,-9.5 180.72,-9.5 172.26,-9.5"/>
<polygon fill="#63b8ff" stroke="#63b8ff" points="197.85,-13 207.85,-9.5 197.85,-6 197.85,-13"/>
</a>
</g>
</g>
<!-- Node7&#45;&gt;Node5 -->
<g id="edge7_Node000007_Node000005" class="edge">
<title>Node7&#45;&gt;Node5</title>
<g id="a_edge7_Node000007_Node000005"><a xlink:title=" ">
<path fill="none" stroke="#63b8ff" d="M88.28,-22.62C72.49,-28.5 54.46,-35.22 41.11,-40.19"/>
<polygon fill="#63b8ff" stroke="#63b8ff" points="89.61,-25.86 97.76,-19.09 87.17,-19.3 89.61,-25.86"/>
</a>
</g>
</g>
</g>
</svg>
