<?xml version="1.0" encoding="UTF-8" standalone="no"?>
<!DOCTYPE svg PUBLIC "-//W3C//DTD SVG 1.1//EN"
 "http://www.w3.org/Graphics/SVG/1.1/DTD/svg11.dtd">
<!-- Generated by graphviz version 2.43.0 (0)
 -->
<!-- Title: reverse_transform Pages: 1 -->
<svg width="1145pt" height="134pt"
 viewBox="0.00 0.00 1145.00 133.53" xmlns="http://www.w3.org/2000/svg" xmlns:xlink="http://www.w3.org/1999/xlink">
<g id="graph0" class="graph" transform="scale(1 1) rotate(0) translate(4 129.53)">
<title>reverse_transform</title>
<!-- Node1 -->
<g id="Node000001" class="node">
<title>Node1</title>
<g id="a_Node000001"><a xlink:title=" ">
<polygon fill="#999999" stroke="#666666" points="1137,-30.53 1030,-30.53 1030,-11.53 1137,-11.53 1137,-30.53"/>
<text text-anchor="middle" x="1083.5" y="-18.53" font-family="Helvetica,sans-Serif" font-size="10.00">reverse_transform</text>
</a>
</g>
</g>
<!-- Node2 -->
<g id="Node000002" class="node">
<title>Node2</title>
<g id="a_Node000002"><a xlink:href="fmax-fftw_8c.html#a7852a9463984d6a264677376fa61cfb8" target="_top" xlink:title=" ">
<polygon fill="white" stroke="#666666" points="994,-68.53 880,-68.53 880,-49.53 994,-49.53 994,-68.53"/>
<text text-anchor="middle" x="937" y="-56.53" font-family="Helvetica,sans-Serif" font-size="10.00">compute_derivative</text>
</a>
</g>
</g>
<!-- Node1&#45;&gt;Node2 -->
<g id="edge1_Node000001_Node000002" class="edge">
<title>Node1&#45;&gt;Node2</title>
<g id="a_edge1_Node000001_Node000002"><a xlink:title=" ">
<path fill="none" stroke="#63b8ff" d="M1036.17,-33.22C1016.11,-38.49 992.97,-44.58 974.2,-49.51"/>
<polygon fill="#63b8ff" stroke="#63b8ff" points="1037.26,-36.55 1046.04,-30.62 1035.48,-29.78 1037.26,-36.55"/>
</a>
</g>
</g>
<!-- Node6 -->
<g id="Node000006" class="node">
<title>Node6</title>
<g id="a_Node000006"><a xlink:href="pinocchio_8c.html#a647f21a28344e1d9c643f4115516d7c9" target="_top" xlink:title=" ">
<polygon fill="white" stroke="#666666" points="41,-68.53 0,-68.53 0,-49.53 41,-49.53 41,-68.53"/>
<text text-anchor="middle" x="20.5" y="-56.53" font-family="Helvetica,sans-Serif" font-size="10.00">main</text>
</a>
</g>
</g>
<!-- Node1&#45;&gt;Node6 -->
<g id="edge16_Node000001_Node000006" class="edge">
<title>Node1&#45;&gt;Node6</title>
<g id="a_edge16_Node000001_Node000006"><a xlink:title=" ">
<path fill="none" stroke="#63b8ff" d="M1019.72,-14.91C957.34,-9.36 858.91,-2.03 773.5,-2.03 773.5,-2.03 773.5,-2.03 252,-2.03 173.77,-2.03 150.38,6.1 77,-21.03 59.7,-27.44 42.61,-40.41 32.06,-49.41"/>
<polygon fill="#63b8ff" stroke="#63b8ff" points="1019.52,-18.4 1029.8,-15.82 1020.15,-11.43 1019.52,-18.4"/>
</a>
</g>
</g>
<!-- Node3 -->
<g id="Node000003" class="node">
<title>Node3</title>
<g id="a_Node000003"><a xlink:href="fmax_8c.html#a4b416954b6cbbc2372b9560e677b4014" target="_top" xlink:title=" ">
<polygon fill="white" stroke="#666666" points="844,-87.53 701,-87.53 701,-68.53 844,-68.53 844,-87.53"/>
<text text-anchor="middle" x="772.5" y="-75.53" font-family="Helvetica,sans-Serif" font-size="10.00">compute_first_derivatives</text>
</a>
</g>
</g>
<!-- Node2&#45;&gt;Node3 -->
<g id="edge2_Node000002_Node000003" class="edge">
<title>Node2&#45;&gt;Node3</title>
<g id="a_edge2_Node000002_Node000003"><a xlink:title=" ">
<path fill="none" stroke="#63b8ff" d="M869.53,-66.81C861.14,-67.79 852.54,-68.79 844.09,-69.78"/>
<polygon fill="#63b8ff" stroke="#63b8ff" points="870.1,-70.26 879.62,-65.63 869.28,-63.31 870.1,-70.26"/>
</a>
</g>
</g>
<!-- Node9 -->
<g id="Node000009" class="node">
<title>Node9</title>
<g id="a_Node000009"><a xlink:href="LPT_8c.html#acd2ff0573cb91e413fb17c10768b35bc" target="_top" xlink:title=" ">
<polygon fill="white" stroke="#666666" points="664.5,-49.53 506.5,-49.53 506.5,-30.53 664.5,-30.53 664.5,-49.53"/>
<text text-anchor="middle" x="585.5" y="-37.53" font-family="Helvetica,sans-Serif" font-size="10.00">compute_LPT_displacements</text>
</a>
</g>
</g>
<!-- Node2&#45;&gt;Node9 -->
<g id="edge12_Node000002_Node000009" class="edge">
<title>Node2&#45;&gt;Node9</title>
<g id="a_edge12_Node000002_Node000009"><a xlink:title=" ">
<path fill="none" stroke="#63b8ff" d="M869.63,-55.43C811.28,-52.25 726.28,-47.63 664.66,-44.28"/>
<polygon fill="#63b8ff" stroke="#63b8ff" points="869.67,-58.93 879.85,-55.98 870.05,-51.94 869.67,-58.93"/>
</a>
</g>
</g>
<!-- Node10 -->
<g id="Node000010" class="node">
<title>Node10</title>
<g id="a_Node000010"><a xlink:href="fmax_8c.html#af7e353ab4ac1e19ecf80743eaef23fb4" target="_top" xlink:title=" ">
<polygon fill="white" stroke="#666666" points="665,-125.53 506,-125.53 506,-106.53 665,-106.53 665,-125.53"/>
<text text-anchor="middle" x="585.5" y="-113.53" font-family="Helvetica,sans-Serif" font-size="10.00">compute_second_derivatives</text>
</a>
</g>
</g>
<!-- Node2&#45;&gt;Node10 -->
<g id="edge13_Node000002_Node000010" class="edge">
<title>Node2&#45;&gt;Node10</title>
<g id="a_edge13_Node000002_Node000010"><a xlink:title=" ">
<path fill="none" stroke="#63b8ff" d="M908.65,-73.03C890.74,-81.51 866.56,-91.69 844,-97.03 785.12,-110.99 716.73,-115.51 665.23,-116.67"/>
<polygon fill="#63b8ff" stroke="#63b8ff" points="910.43,-76.06 917.9,-68.54 907.38,-69.76 910.43,-76.06"/>
</a>
</g>
</g>
<!-- Node4 -->
<g id="Node000004" class="node">
<title>Node4</title>
<g id="a_Node000004"><a xlink:href="fmax_8c.html#a83dfe236a507bb220f824c7a5f8a0fc8" target="_top" xlink:title=" ">
<polygon fill="white" stroke="#666666" points="470,-87.53 334,-87.53 334,-68.53 470,-68.53 470,-87.53"/>
<text text-anchor="middle" x="402" y="-75.53" font-family="Helvetica,sans-Serif" font-size="10.00">compute_displacements</text>
</a>
</g>
</g>
<!-- Node3&#45;&gt;Node4 -->
<g id="edge3_Node000003_Node000004" class="edge">
<title>Node3&#45;&gt;Node4</title>
<g id="a_edge3_Node000003_Node000004"><a xlink:title=" ">
<path fill="none" stroke="#63b8ff" d="M690.52,-78.03C624.48,-78.03 532.29,-78.03 470.27,-78.03"/>
<polygon fill="#63b8ff" stroke="#63b8ff" points="690.89,-81.53 700.89,-78.03 690.89,-74.53 690.89,-81.53"/>
</a>
</g>
</g>
<!-- Node3&#45;&gt;Node9 -->
<g id="edge10_Node000003_Node000009" class="edge">
<title>Node3&#45;&gt;Node9</title>
<g id="a_edge10_Node000003_Node000009"><a xlink:title=" ">
<path fill="none" stroke="#63b8ff" d="M714.98,-66.43C688.67,-61.02 657.76,-54.67 632.85,-49.55"/>
<polygon fill="#63b8ff" stroke="#63b8ff" points="714.32,-69.86 724.82,-68.45 715.73,-63.01 714.32,-69.86"/>
</a>
</g>
</g>
<!-- Node5 -->
<g id="Node000005" class="node">
<title>Node5</title>
<g id="a_Node000005"><a xlink:href="fmax_8c.html#ac6c918d99a0517c1106d2b330c087f8a" target="_top" xlink:title=" ">
<polygon fill="white" stroke="#666666" points="298,-125.53 208,-125.53 208,-106.53 298,-106.53 298,-125.53"/>
<text text-anchor="middle" x="253" y="-113.53" font-family="Helvetica,sans-Serif" font-size="10.00">compute_fmax</text>
</a>
</g>
</g>
<!-- Node4&#45;&gt;Node5 -->
<g id="edge4_Node000004_Node000005" class="edge">
<title>Node4&#45;&gt;Node5</title>
<g id="a_edge4_Node000004_Node000005"><a xlink:title=" ">
<path fill="none" stroke="#63b8ff" d="M354.15,-90.15C333.67,-95.44 310.01,-101.56 290.83,-106.51"/>
<polygon fill="#63b8ff" stroke="#63b8ff" points="355.1,-93.52 363.91,-87.62 353.35,-86.74 355.1,-93.52"/>
</a>
</g>
</g>
<!-- Node4&#45;&gt;Node6 -->
<g id="edge9_Node000004_Node000006" class="edge">
<title>Node4&#45;&gt;Node6</title>
<g id="a_edge9_Node000004_Node000006"><a xlink:title=" ">
<path fill="none" stroke="#63b8ff" d="M323.5,-74.15C234.19,-69.68 93.07,-62.62 41.34,-60.03"/>
<polygon fill="#63b8ff" stroke="#63b8ff" points="323.43,-77.66 333.59,-74.66 323.78,-70.66 323.43,-77.66"/>
</a>
</g>
</g>
<!-- Node7 -->
<g id="Node000007" class="node">
<title>Node7</title>
<g id="a_Node000007"><a xlink:href="fragment_8c.html#ac2bb250921932f90f7b0939d1181b66d" target="_top" xlink:title=" ">
<polygon fill="white" stroke="#666666" points="284,-49.53 222,-49.53 222,-30.53 284,-30.53 284,-49.53"/>
<text text-anchor="middle" x="253" y="-37.53" font-family="Helvetica,sans-Serif" font-size="10.00">fragment</text>
</a>
</g>
</g>
<!-- Node4&#45;&gt;Node7 -->
<g id="edge6_Node000004_Node000007" class="edge">
<title>Node4&#45;&gt;Node7</title>
<g id="a_edge6_Node000004_Node000007"><a xlink:title=" ">
<path fill="none" stroke="#63b8ff" d="M354.04,-65.89C331.14,-59.98 304.28,-53.03 284.16,-47.83"/>
<polygon fill="#63b8ff" stroke="#63b8ff" points="353.35,-69.33 363.91,-68.45 355.1,-62.55 353.35,-69.33"/>
</a>
</g>
</g>
<!-- Node5&#45;&gt;Node6 -->
<g id="edge5_Node000005_Node000006" class="edge">
<title>Node5&#45;&gt;Node6</title>
<g id="a_edge5_Node000005_Node000006"><a xlink:title=" ">
<path fill="none" stroke="#63b8ff" d="M197.63,-114.16C162.4,-111.6 115.99,-105.67 77,-92.03 61.34,-86.56 45.24,-76.39 34.44,-68.78"/>
<polygon fill="#63b8ff" stroke="#63b8ff" points="197.51,-117.66 207.72,-114.82 197.97,-110.67 197.51,-117.66"/>
</a>
</g>
</g>
<!-- Node8 -->
<g id="Node000008" class="node">
<title>Node8</title>
<g id="a_Node000008"><a xlink:href="fragment_8c.html#ae3aa75d17cbc170e60f4f48c4a2ffdf5" target="_top" xlink:title=" ">
<polygon fill="white" stroke="#666666" points="172,-49.53 77,-49.53 77,-30.53 172,-30.53 172,-49.53"/>
<text text-anchor="middle" x="124.5" y="-37.53" font-family="Helvetica,sans-Serif" font-size="10.00">fragment_driver</text>
</a>
</g>
</g>
<!-- Node7&#45;&gt;Node8 -->
<g id="edge7_Node000007_Node000008" class="edge">
<title>Node7&#45;&gt;Node8</title>
<g id="a_edge7_Node000007_Node000008"><a xlink:title=" ">
<path fill="none" stroke="#63b8ff" d="M211.59,-40.03C199.1,-40.03 185.24,-40.03 172.36,-40.03"/>
<polygon fill="#63b8ff" stroke="#63b8ff" points="211.7,-43.53 221.7,-40.03 211.7,-36.53 211.7,-43.53"/>
</a>
</g>
</g>
<!-- Node8&#45;&gt;Node6 -->
<g id="edge8_Node000008_Node000006" class="edge">
<title>Node8&#45;&gt;Node6</title>
<g id="a_edge8_Node000008_Node000006"><a xlink:title=" ">
<path fill="none" stroke="#63b8ff" d="M66.91,-50.58C57.67,-52.3 48.67,-53.97 41.16,-55.37"/>
<polygon fill="#63b8ff" stroke="#63b8ff" points="67.79,-53.97 76.98,-48.7 66.51,-47.09 67.79,-53.97"/>
</a>
</g>
</g>
<!-- Node9&#45;&gt;Node4 -->
<g id="edge11_Node000009_Node000004" class="edge">
<title>Node9&#45;&gt;Node4</title>
<g id="a_edge11_Node000009_Node000004"><a xlink:title=" ">
<path fill="none" stroke="#63b8ff" d="M528.71,-51.72C502.97,-57.1 472.8,-63.42 448.47,-68.51"/>
<polygon fill="#63b8ff" stroke="#63b8ff" points="529.63,-55.1 538.7,-49.62 528.19,-48.25 529.63,-55.1"/>
</a>
</g>
</g>
<!-- Node10&#45;&gt;Node4 -->
<g id="edge14_Node000010_Node000004" class="edge">
<title>Node10&#45;&gt;Node4</title>
<g id="a_edge14_Node000010_Node000004"><a xlink:title=" ">
<path fill="none" stroke="#63b8ff" d="M528.71,-104.35C502.97,-98.96 472.8,-92.65 448.47,-87.55"/>
<polygon fill="#63b8ff" stroke="#63b8ff" points="528.19,-107.82 538.7,-106.45 529.63,-100.97 528.19,-107.82"/>
</a>
</g>
</g>
<!-- Node10&#45;&gt;Node5 -->
<g id="edge15_Node000010_Node000005" class="edge">
<title>Node10&#45;&gt;Node5</title>
<g id="a_edge15_Node000010_Node000005"><a xlink:title=" ">
<path fill="none" stroke="#63b8ff" d="M495.68,-116.03C431.82,-116.03 348.43,-116.03 298.17,-116.03"/>
<polygon fill="#63b8ff" stroke="#63b8ff" points="495.76,-119.53 505.76,-116.03 495.76,-112.53 495.76,-119.53"/>
</a>
</g>
</g>
</g>
</svg>
