<?xml version="1.0" encoding="UTF-8" standalone="no"?>
<!DOCTYPE svg PUBLIC "-//W3C//DTD SVG 1.1//EN"
 "http://www.w3.org/Graphics/SVG/1.1/DTD/svg11.dtd">
<!-- Generated by graphviz version 2.43.0 (0)
 -->
<!-- Title: greens_function Pages: 1 -->
<svg width="1133pt" height="103pt"
 viewBox="0.00 0.00 1133.00 103.00" xmlns="http://www.w3.org/2000/svg" xmlns:xlink="http://www.w3.org/1999/xlink">
<g id="graph0" class="graph" transform="scale(1 1) rotate(0) translate(4 99)">
<title>greens_function</title>
<!-- Node1 -->
<g id="Node000001" class="node">
<title>Node1</title>
<g id="a_Node000001"><a xlink:title=" ">
<polygon fill="#999999" stroke="#666666" points="1125,-57 1030,-57 1030,-38 1125,-38 1125,-57"/>
<text text-anchor="middle" x="1077.5" y="-45" font-family="Helvetica,sans-Serif" font-size="10.00">greens_function</text>
</a>
</g>
</g>
<!-- Node2 -->
<g id="Node000002" class="node">
<title>Node2</title>
<g id="a_Node000002"><a xlink:href="fmax-fftw_8c.html#a7852a9463984d6a264677376fa61cfb8" target="_top" xlink:title=" ">
<polygon fill="white" stroke="#666666" points="994,-57 880,-57 880,-38 994,-38 994,-57"/>
<text text-anchor="middle" x="937" y="-45" font-family="Helvetica,sans-Serif" font-size="10.00">compute_derivative</text>
</a>
</g>
</g>
<!-- Node1&#45;&gt;Node2 -->
<g id="edge1_Node000001_Node000002" class="edge">
<title>Node1&#45;&gt;Node2</title>
<g id="a_edge1_Node000001_Node000002"><a xlink:title=" ">
<path fill="none" stroke="#63b8ff" d="M1019.85,-47.5C1011.39,-47.5 1002.68,-47.5 994.23,-47.5"/>
<polygon fill="#63b8ff" stroke="#63b8ff" points="1020,-51 1030,-47.5 1020,-44 1020,-51"/>
</a>
</g>
</g>
<!-- Node3 -->
<g id="Node000003" class="node">
<title>Node3</title>
<g id="a_Node000003"><a xlink:href="fmax_8c.html#a4b416954b6cbbc2372b9560e677b4014" target="_top" xlink:title=" ">
<polygon fill="white" stroke="#666666" points="844,-95 701,-95 701,-76 844,-76 844,-95"/>
<text text-anchor="middle" x="772.5" y="-83" font-family="Helvetica,sans-Serif" font-size="10.00">compute_first_derivatives</text>
</a>
</g>
</g>
<!-- Node2&#45;&gt;Node3 -->
<g id="edge2_Node000002_Node000003" class="edge">
<title>Node2&#45;&gt;Node3</title>
<g id="a_edge2_Node000002_Node000003"><a xlink:title=" ">
<path fill="none" stroke="#63b8ff" d="M885.13,-59.4C862.29,-64.74 835.7,-70.95 814.21,-75.98"/>
<polygon fill="#63b8ff" stroke="#63b8ff" points="886.05,-62.77 894.99,-57.09 884.46,-55.96 886.05,-62.77"/>
</a>
</g>
</g>
<!-- Node9 -->
<g id="Node000009" class="node">
<title>Node9</title>
<g id="a_Node000009"><a xlink:href="LPT_8c.html#acd2ff0573cb91e413fb17c10768b35bc" target="_top" xlink:title=" ">
<polygon fill="white" stroke="#666666" points="664.5,-57 506.5,-57 506.5,-38 664.5,-38 664.5,-57"/>
<text text-anchor="middle" x="585.5" y="-45" font-family="Helvetica,sans-Serif" font-size="10.00">compute_LPT_displacements</text>
</a>
</g>
</g>
<!-- Node2&#45;&gt;Node9 -->
<g id="edge12_Node000002_Node000009" class="edge">
<title>Node2&#45;&gt;Node9</title>
<g id="a_edge12_Node000002_Node000009"><a xlink:title=" ">
<path fill="none" stroke="#63b8ff" d="M869.63,-47.5C811.28,-47.5 726.28,-47.5 664.66,-47.5"/>
<polygon fill="#63b8ff" stroke="#63b8ff" points="869.85,-51 879.85,-47.5 869.85,-44 869.85,-51"/>
</a>
</g>
</g>
<!-- Node10 -->
<g id="Node000010" class="node">
<title>Node10</title>
<g id="a_Node000010"><a xlink:href="fmax_8c.html#af7e353ab4ac1e19ecf80743eaef23fb4" target="_top" xlink:title=" ">
<polygon fill="white" stroke="#666666" points="665,-19 506,-19 506,0 665,0 665,-19"/>
<text text-anchor="middle" x="585.5" y="-7" font-family="Helvetica,sans-Serif" font-size="10.00">compute_second_derivatives</text>
</a>
</g>
</g>
<!-- Node2&#45;&gt;Node10 -->
<g id="edge13_Node000002_Node000010" class="edge">
<title>Node2&#45;&gt;Node10</title>
<g id="a_edge13_Node000002_Node000010"><a xlink:title=" ">
<path fill="none" stroke="#63b8ff" d="M869.67,-40.29C811.52,-33.97 726.89,-24.76 665.31,-18.07"/>
<polygon fill="#63b8ff" stroke="#63b8ff" points="869.53,-43.79 879.85,-41.39 870.28,-36.83 869.53,-43.79"/>
</a>
</g>
</g>
<!-- Node4 -->
<g id="Node000004" class="node">
<title>Node4</title>
<g id="a_Node000004"><a xlink:href="fmax_8c.html#a83dfe236a507bb220f824c7a5f8a0fc8" target="_top" xlink:title=" ">
<polygon fill="white" stroke="#666666" points="470,-57 334,-57 334,-38 470,-38 470,-57"/>
<text text-anchor="middle" x="402" y="-45" font-family="Helvetica,sans-Serif" font-size="10.00">compute_displacements</text>
</a>
</g>
</g>
<!-- Node3&#45;&gt;Node4 -->
<g id="edge3_Node000003_Node000004" class="edge">
<title>Node3&#45;&gt;Node4</title>
<g id="a_edge3_Node000003_Node000004"><a xlink:title=" ">
<path fill="none" stroke="#63b8ff" d="M690.55,-82.04C637.84,-79.22 567.67,-74.37 506,-66.5 487.06,-64.08 466.33,-60.45 448.46,-57.01"/>
<polygon fill="#63b8ff" stroke="#63b8ff" points="690.69,-85.55 700.86,-82.58 691.05,-78.56 690.69,-85.55"/>
</a>
</g>
</g>
<!-- Node3&#45;&gt;Node9 -->
<g id="edge10_Node000003_Node000009" class="edge">
<title>Node3&#45;&gt;Node9</title>
<g id="a_edge10_Node000003_Node000009"><a xlink:title=" ">
<path fill="none" stroke="#63b8ff" d="M714.98,-73.89C688.67,-68.49 657.76,-62.14 632.85,-57.02"/>
<polygon fill="#63b8ff" stroke="#63b8ff" points="714.32,-77.33 724.82,-75.91 715.73,-70.47 714.32,-77.33"/>
</a>
</g>
</g>
<!-- Node5 -->
<g id="Node000005" class="node">
<title>Node5</title>
<g id="a_Node000005"><a xlink:href="fmax_8c.html#ac6c918d99a0517c1106d2b330c087f8a" target="_top" xlink:title=" ">
<polygon fill="white" stroke="#666666" points="298,-19 208,-19 208,0 298,0 298,-19"/>
<text text-anchor="middle" x="253" y="-7" font-family="Helvetica,sans-Serif" font-size="10.00">compute_fmax</text>
</a>
</g>
</g>
<!-- Node4&#45;&gt;Node5 -->
<g id="edge4_Node000004_Node000005" class="edge">
<title>Node4&#45;&gt;Node5</title>
<g id="a_edge4_Node000004_Node000005"><a xlink:title=" ">
<path fill="none" stroke="#63b8ff" d="M354.15,-35.39C333.67,-30.1 310.01,-23.98 290.83,-19.02"/>
<polygon fill="#63b8ff" stroke="#63b8ff" points="353.35,-38.8 363.91,-37.91 355.1,-32.02 353.35,-38.8"/>
</a>
</g>
</g>
<!-- Node6 -->
<g id="Node000006" class="node">
<title>Node6</title>
<g id="a_Node000006"><a xlink:href="pinocchio_8c.html#a647f21a28344e1d9c643f4115516d7c9" target="_top" xlink:title=" ">
<polygon fill="white" stroke="#666666" points="41,-57 0,-57 0,-38 41,-38 41,-57"/>
<text text-anchor="middle" x="20.5" y="-45" font-family="Helvetica,sans-Serif" font-size="10.00">main</text>
</a>
</g>
</g>
<!-- Node4&#45;&gt;Node6 -->
<g id="edge9_Node000004_Node000006" class="edge">
<title>Node4&#45;&gt;Node6</title>
<g id="a_edge9_Node000004_Node000006"><a xlink:title=" ">
<path fill="none" stroke="#63b8ff" d="M323.5,-47.5C234.19,-47.5 93.07,-47.5 41.34,-47.5"/>
<polygon fill="#63b8ff" stroke="#63b8ff" points="323.59,-51 333.59,-47.5 323.59,-44 323.59,-51"/>
</a>
</g>
</g>
<!-- Node7 -->
<g id="Node000007" class="node">
<title>Node7</title>
<g id="a_Node000007"><a xlink:href="fragment_8c.html#ac2bb250921932f90f7b0939d1181b66d" target="_top" xlink:title=" ">
<polygon fill="white" stroke="#666666" points="284,-95 222,-95 222,-76 284,-76 284,-95"/>
<text text-anchor="middle" x="253" y="-83" font-family="Helvetica,sans-Serif" font-size="10.00">fragment</text>
</a>
</g>
</g>
<!-- Node4&#45;&gt;Node7 -->
<g id="edge6_Node000004_Node000007" class="edge">
<title>Node4&#45;&gt;Node7</title>
<g id="a_edge6_Node000004_Node000007"><a xlink:title=" ">
<path fill="none" stroke="#63b8ff" d="M354.04,-59.64C331.14,-65.56 304.28,-72.5 284.16,-77.7"/>
<polygon fill="#63b8ff" stroke="#63b8ff" points="355.1,-62.98 363.91,-57.09 353.35,-56.2 355.1,-62.98"/>
</a>
</g>
</g>
<!-- Node5&#45;&gt;Node6 -->
<g id="edge5_Node000005_Node000006" class="edge">
<title>Node5&#45;&gt;Node6</title>
<g id="a_edge5_Node000005_Node000006"><a xlink:title=" ">
<path fill="none" stroke="#63b8ff" d="M197.97,-15.34C163.25,-19.48 117.28,-25.68 77,-33.5 65,-35.83 51.72,-39.15 41.16,-41.98"/>
<polygon fill="#63b8ff" stroke="#63b8ff" points="198.38,-18.82 207.91,-14.18 197.57,-11.87 198.38,-18.82"/>
</a>
</g>
</g>
<!-- Node8 -->
<g id="Node000008" class="node">
<title>Node8</title>
<g id="a_Node000008"><a xlink:href="fragment_8c.html#ae3aa75d17cbc170e60f4f48c4a2ffdf5" target="_top" xlink:title=" ">
<polygon fill="white" stroke="#666666" points="172,-95 77,-95 77,-76 172,-76 172,-95"/>
<text text-anchor="middle" x="124.5" y="-83" font-family="Helvetica,sans-Serif" font-size="10.00">fragment_driver</text>
</a>
</g>
</g>
<!-- Node7&#45;&gt;Node8 -->
<g id="edge7_Node000007_Node000008" class="edge">
<title>Node7&#45;&gt;Node8</title>
<g id="a_edge7_Node000007_Node000008"><a xlink:title=" ">
<path fill="none" stroke="#63b8ff" d="M211.59,-85.5C199.1,-85.5 185.24,-85.5 172.36,-85.5"/>
<polygon fill="#63b8ff" stroke="#63b8ff" points="211.7,-89 221.7,-85.5 211.7,-82 211.7,-89"/>
</a>
</g>
</g>
<!-- Node8&#45;&gt;Node6 -->
<g id="edge8_Node000008_Node000006" class="edge">
<title>Node8&#45;&gt;Node6</title>
<g id="a_edge8_Node000008_Node000006"><a xlink:title=" ">
<path fill="none" stroke="#63b8ff" d="M88.28,-72.38C72.49,-66.5 54.46,-59.78 41.11,-54.81"/>
<polygon fill="#63b8ff" stroke="#63b8ff" points="87.17,-75.7 97.76,-75.91 89.61,-69.14 87.17,-75.7"/>
</a>
</g>
</g>
<!-- Node9&#45;&gt;Node4 -->
<g id="edge11_Node000009_Node000004" class="edge">
<title>Node9&#45;&gt;Node4</title>
<g id="a_edge11_Node000009_Node000004"><a xlink:title=" ">
<path fill="none" stroke="#63b8ff" d="M496.21,-47.5C487.43,-47.5 478.62,-47.5 470.12,-47.5"/>
<polygon fill="#63b8ff" stroke="#63b8ff" points="496.47,-51 506.47,-47.5 496.47,-44 496.47,-51"/>
</a>
</g>
</g>
<!-- Node10&#45;&gt;Node4 -->
<g id="edge14_Node000010_Node000004" class="edge">
<title>Node10&#45;&gt;Node4</title>
<g id="a_edge14_Node000010_Node000004"><a xlink:title=" ">
<path fill="none" stroke="#63b8ff" d="M528.71,-21.18C502.97,-26.57 472.8,-32.89 448.47,-37.98"/>
<polygon fill="#63b8ff" stroke="#63b8ff" points="529.63,-24.56 538.7,-19.09 528.19,-17.71 529.63,-24.56"/>
</a>
</g>
</g>
<!-- Node10&#45;&gt;Node5 -->
<g id="edge15_Node000010_Node000005" class="edge">
<title>Node10&#45;&gt;Node5</title>
<g id="a_edge15_Node000010_Node000005"><a xlink:title=" ">
<path fill="none" stroke="#63b8ff" d="M495.68,-9.5C431.82,-9.5 348.43,-9.5 298.17,-9.5"/>
<polygon fill="#63b8ff" stroke="#63b8ff" points="495.76,-13 505.76,-9.5 495.76,-6 495.76,-13"/>
</a>
</g>
</g>
</g>
</svg>
