<?xml version="1.0" encoding="UTF-8" standalone="no"?>
<!DOCTYPE svg PUBLIC "-//W3C//DTD SVG 1.1//EN"
 "http://www.w3.org/Graphics/SVG/1.1/DTD/svg11.dtd">
<!-- Generated by graphviz version 2.43.0 (0)
 -->
<!-- Title: compute_second_derivatives Pages: 1 -->
<svg width="460pt" height="138pt"
 viewBox="0.00 0.00 460.00 138.00" xmlns="http://www.w3.org/2000/svg" xmlns:xlink="http://www.w3.org/1999/xlink">
<g id="graph0" class="graph" transform="scale(1 1) rotate(0) translate(4 134)">
<title>compute_second_derivatives</title>
<!-- Node1 -->
<g id="Node000001" class="node">
<title>Node1</title>
<g id="a_Node000001"><a xlink:title=" ">
<polygon fill="#999999" stroke="#666666" points="159,-74 0,-74 0,-55 159,-55 159,-74"/>
<text text-anchor="middle" x="79.5" y="-62" font-family="Helvetica,sans-Serif" font-size="10.00">compute_second_derivatives</text>
</a>
</g>
</g>
<!-- Node2 -->
<g id="Node000002" class="node">
<title>Node2</title>
<g id="a_Node000002"><a xlink:href="fmax-fftw_8c.html#a7852a9463984d6a264677376fa61cfb8" target="_top" xlink:title=" ">
<polygon fill="white" stroke="#666666" points="309,-93 195,-93 195,-74 309,-74 309,-93"/>
<text text-anchor="middle" x="252" y="-81" font-family="Helvetica,sans-Serif" font-size="10.00">compute_derivative</text>
</a>
</g>
</g>
<!-- Node1&#45;&gt;Node2 -->
<g id="edge1_Node000001_Node000002" class="edge">
<title>Node1&#45;&gt;Node2</title>
<g id="a_edge1_Node000001_Node000002"><a xlink:title=" ">
<path fill="none" stroke="#63b8ff" d="M159.26,-73.28C167.82,-74.23 176.47,-75.19 184.86,-76.13"/>
<polygon fill="#63b8ff" stroke="#63b8ff" points="184.61,-79.62 194.94,-77.25 185.39,-72.67 184.61,-79.62"/>
</a>
</g>
</g>
<!-- Node3 -->
<g id="Node000003" class="node">
<title>Node3</title>
<g id="a_Node000003"><a xlink:href="fmax_8c.html#a76000ea6ddfd81a9d6cf317d53f54378" target="_top" xlink:title=" ">
<polygon fill="white" stroke="#666666" points="419.5,-130 377.5,-130 377.5,-111 419.5,-111 419.5,-130"/>
<text text-anchor="middle" x="398.5" y="-118" font-family="Helvetica,sans-Serif" font-size="10.00">fdate</text>
</a>
</g>
</g>
<!-- Node1&#45;&gt;Node3 -->
<g id="edge5_Node000001_Node000003" class="edge">
<title>Node1&#45;&gt;Node3</title>
<g id="a_edge5_Node000001_Node000003"><a xlink:title=" ">
<path fill="none" stroke="#63b8ff" d="M104.18,-74.16C127.03,-83.04 162.8,-95.82 195,-102.5 255.31,-115.01 327.49,-118.83 367.33,-119.99"/>
<polygon fill="#63b8ff" stroke="#63b8ff" points="367.36,-123.49 377.44,-120.25 367.54,-116.5 367.36,-123.49"/>
</a>
</g>
</g>
<!-- Node6 -->
<g id="Node000006" class="node">
<title>Node6</title>
<g id="a_Node000006"><a xlink:href="fmax-fftw_8c.html#a2b33f3af0a53380680cd2014715d2f88" target="_top" xlink:title=" ">
<polygon fill="white" stroke="#666666" points="307,-56 197,-56 197,-37 307,-37 307,-56"/>
<text text-anchor="middle" x="252" y="-44" font-family="Helvetica,sans-Serif" font-size="10.00">write_from_rvector</text>
</a>
</g>
</g>
<!-- Node1&#45;&gt;Node6 -->
<g id="edge6_Node000001_Node000006" class="edge">
<title>Node1&#45;&gt;Node6</title>
<g id="a_edge6_Node000001_Node000006"><a xlink:title=" ">
<path fill="none" stroke="#63b8ff" d="M159.26,-56.18C168.52,-55.21 177.88,-54.22 186.9,-53.27"/>
<polygon fill="#63b8ff" stroke="#63b8ff" points="187.34,-56.74 196.92,-52.21 186.6,-49.78 187.34,-56.74"/>
</a>
</g>
</g>
<!-- Node7 -->
<g id="Node000007" class="node">
<title>Node7</title>
<g id="a_Node000007"><a xlink:href="fmax-fftw_8c.html#a7059752d6936489370334baac9522bf9" target="_top" xlink:title=" ">
<polygon fill="white" stroke="#666666" points="300.5,-19 203.5,-19 203.5,0 300.5,0 300.5,-19"/>
<text text-anchor="middle" x="252" y="-7" font-family="Helvetica,sans-Serif" font-size="10.00">write_in_cvector</text>
</a>
</g>
</g>
<!-- Node1&#45;&gt;Node7 -->
<g id="edge7_Node000001_Node000007" class="edge">
<title>Node1&#45;&gt;Node7</title>
<g id="a_edge7_Node000001_Node000007"><a xlink:title=" ">
<path fill="none" stroke="#63b8ff" d="M110.15,-54.9C133.26,-47.43 166.17,-36.79 195,-27.5 200.35,-25.78 205.98,-23.96 211.53,-22.18"/>
<polygon fill="#63b8ff" stroke="#63b8ff" points="212.9,-25.41 221.35,-19.02 210.76,-18.75 212.9,-25.41"/>
</a>
</g>
</g>
<!-- Node2&#45;&gt;Node3 -->
<g id="edge2_Node000002_Node000003" class="edge">
<title>Node2&#45;&gt;Node3</title>
<g id="a_edge2_Node000002_Node000003"><a xlink:title=" ">
<path fill="none" stroke="#63b8ff" d="M290.21,-93.03C314.18,-99.17 344.93,-107.04 367.37,-112.78"/>
<polygon fill="#63b8ff" stroke="#63b8ff" points="366.78,-116.25 377.34,-115.34 368.52,-109.47 366.78,-116.25"/>
</a>
</g>
</g>
<!-- Node4 -->
<g id="Node000004" class="node">
<title>Node4</title>
<g id="a_Node000004"><a xlink:href="fmax-fftw_8c.html#a0a0b99548967fb246932282f353e5d80" target="_top" xlink:title=" ">
<polygon fill="white" stroke="#666666" points="446,-93 351,-93 351,-74 446,-74 446,-93"/>
<text text-anchor="middle" x="398.5" y="-81" font-family="Helvetica,sans-Serif" font-size="10.00">greens_function</text>
</a>
</g>
</g>
<!-- Node2&#45;&gt;Node4 -->
<g id="edge3_Node000002_Node000004" class="edge">
<title>Node2&#45;&gt;Node4</title>
<g id="a_edge3_Node000002_Node000004"><a xlink:title=" ">
<path fill="none" stroke="#63b8ff" d="M309.28,-83.5C319.62,-83.5 330.42,-83.5 340.78,-83.5"/>
<polygon fill="#63b8ff" stroke="#63b8ff" points="340.95,-87 350.95,-83.5 340.95,-80 340.95,-87"/>
</a>
</g>
</g>
<!-- Node5 -->
<g id="Node000005" class="node">
<title>Node5</title>
<g id="a_Node000005"><a xlink:href="fmax-fftw_8c.html#a9b00c4c92bd36a79d29b634244174f38" target="_top" xlink:title=" ">
<polygon fill="white" stroke="#666666" points="452,-56 345,-56 345,-37 452,-37 452,-56"/>
<text text-anchor="middle" x="398.5" y="-44" font-family="Helvetica,sans-Serif" font-size="10.00">reverse_transform</text>
</a>
</g>
</g>
<!-- Node2&#45;&gt;Node5 -->
<g id="edge4_Node000002_Node000005" class="edge">
<title>Node2&#45;&gt;Node5</title>
<g id="a_edge4_Node000002_Node000005"><a xlink:title=" ">
<path fill="none" stroke="#63b8ff" d="M290.21,-73.97C308.51,-69.29 330.77,-63.59 350.26,-58.6"/>
<polygon fill="#63b8ff" stroke="#63b8ff" points="351.34,-61.93 360.16,-56.06 349.61,-55.15 351.34,-61.93"/>
</a>
</g>
</g>
</g>
</svg>
