<?xml version="1.0" encoding="UTF-8" standalone="no"?>
<!DOCTYPE svg PUBLIC "-//W3C//DTD SVG 1.1//EN"
 "http://www.w3.org/Graphics/SVG/1.1/DTD/svg11.dtd">
<!-- Generated by graphviz version 2.43.0 (0)
 -->
<!-- Title: compute_second_derivatives Pages: 1 -->
<svg width="673pt" height="103pt"
 viewBox="0.00 0.00 673.00 103.00" xmlns="http://www.w3.org/2000/svg" xmlns:xlink="http://www.w3.org/1999/xlink">
<g id="graph0" class="graph" transform="scale(1 1) rotate(0) translate(4 99)">
<title>compute_second_derivatives</title>
<!-- Node1 -->
<g id="Node000001" class="node">
<title>Node1</title>
<g id="a_Node000001"><a xlink:title=" ">
<polygon fill="#999999" stroke="#666666" points="665,-76 506,-76 506,-57 665,-57 665,-76"/>
<text text-anchor="middle" x="585.5" y="-64" font-family="Helvetica,sans-Serif" font-size="10.00">compute_second_derivatives</text>
</a>
</g>
</g>
<!-- Node2 -->
<g id="Node000002" class="node">
<title>Node2</title>
<g id="a_Node000002"><a xlink:href="fmax_8c.html#a83dfe236a507bb220f824c7a5f8a0fc8" target="_top" xlink:title=" ">
<polygon fill="white" stroke="#666666" points="470,-57 334,-57 334,-38 470,-38 470,-57"/>
<text text-anchor="middle" x="402" y="-45" font-family="Helvetica,sans-Serif" font-size="10.00">compute_displacements</text>
</a>
</g>
</g>
<!-- Node1&#45;&gt;Node2 -->
<g id="edge1_Node000001_Node000002" class="edge">
<title>Node1&#45;&gt;Node2</title>
<g id="a_edge1_Node000001_Node000002"><a xlink:title=" ">
<path fill="none" stroke="#63b8ff" d="M495.79,-57.21C487.12,-56.31 478.42,-55.39 470.01,-54.51"/>
<polygon fill="#63b8ff" stroke="#63b8ff" points="495.64,-60.72 505.95,-58.28 496.37,-53.75 495.64,-60.72"/>
</a>
</g>
</g>
<!-- Node3 -->
<g id="Node000003" class="node">
<title>Node3</title>
<g id="a_Node000003"><a xlink:href="fmax_8c.html#ac6c918d99a0517c1106d2b330c087f8a" target="_top" xlink:title=" ">
<polygon fill="white" stroke="#666666" points="298,-95 208,-95 208,-76 298,-76 298,-95"/>
<text text-anchor="middle" x="253" y="-83" font-family="Helvetica,sans-Serif" font-size="10.00">compute_fmax</text>
</a>
</g>
</g>
<!-- Node1&#45;&gt;Node3 -->
<g id="edge8_Node000001_Node000003" class="edge">
<title>Node1&#45;&gt;Node3</title>
<g id="a_edge8_Node000001_Node000003"><a xlink:title=" ">
<path fill="none" stroke="#63b8ff" d="M495.68,-71.61C431.82,-75.28 348.43,-80.07 298.17,-82.96"/>
<polygon fill="#63b8ff" stroke="#63b8ff" points="495.97,-75.1 505.76,-71.03 495.57,-68.11 495.97,-75.1"/>
</a>
</g>
</g>
<!-- Node2&#45;&gt;Node3 -->
<g id="edge2_Node000002_Node000003" class="edge">
<title>Node2&#45;&gt;Node3</title>
<g id="a_edge2_Node000002_Node000003"><a xlink:title=" ">
<path fill="none" stroke="#63b8ff" d="M354.15,-59.61C333.67,-64.9 310.01,-71.02 290.83,-75.98"/>
<polygon fill="#63b8ff" stroke="#63b8ff" points="355.1,-62.98 363.91,-57.09 353.35,-56.2 355.1,-62.98"/>
</a>
</g>
</g>
<!-- Node4 -->
<g id="Node000004" class="node">
<title>Node4</title>
<g id="a_Node000004"><a xlink:href="pinocchio_8c.html#a647f21a28344e1d9c643f4115516d7c9" target="_top" xlink:title=" ">
<polygon fill="white" stroke="#666666" points="41,-57 0,-57 0,-38 41,-38 41,-57"/>
<text text-anchor="middle" x="20.5" y="-45" font-family="Helvetica,sans-Serif" font-size="10.00">main</text>
</a>
</g>
</g>
<!-- Node2&#45;&gt;Node4 -->
<g id="edge7_Node000002_Node000004" class="edge">
<title>Node2&#45;&gt;Node4</title>
<g id="a_edge7_Node000002_Node000004"><a xlink:title=" ">
<path fill="none" stroke="#63b8ff" d="M323.5,-47.5C234.19,-47.5 93.07,-47.5 41.34,-47.5"/>
<polygon fill="#63b8ff" stroke="#63b8ff" points="323.59,-51 333.59,-47.5 323.59,-44 323.59,-51"/>
</a>
</g>
</g>
<!-- Node5 -->
<g id="Node000005" class="node">
<title>Node5</title>
<g id="a_Node000005"><a xlink:href="fragment_8c.html#ac2bb250921932f90f7b0939d1181b66d" target="_top" xlink:title=" ">
<polygon fill="white" stroke="#666666" points="284,-19 222,-19 222,0 284,0 284,-19"/>
<text text-anchor="middle" x="253" y="-7" font-family="Helvetica,sans-Serif" font-size="10.00">fragment</text>
</a>
</g>
</g>
<!-- Node2&#45;&gt;Node5 -->
<g id="edge4_Node000002_Node000005" class="edge">
<title>Node2&#45;&gt;Node5</title>
<g id="a_edge4_Node000002_Node000005"><a xlink:title=" ">
<path fill="none" stroke="#63b8ff" d="M354.04,-35.36C331.14,-29.44 304.28,-22.5 284.16,-17.3"/>
<polygon fill="#63b8ff" stroke="#63b8ff" points="353.35,-38.8 363.91,-37.91 355.1,-32.02 353.35,-38.8"/>
</a>
</g>
</g>
<!-- Node3&#45;&gt;Node4 -->
<g id="edge3_Node000003_Node000004" class="edge">
<title>Node3&#45;&gt;Node4</title>
<g id="a_edge3_Node000003_Node000004"><a xlink:title=" ">
<path fill="none" stroke="#63b8ff" d="M197.97,-79.66C163.25,-75.52 117.28,-69.32 77,-61.5 65,-59.17 51.72,-55.85 41.16,-53.02"/>
<polygon fill="#63b8ff" stroke="#63b8ff" points="197.57,-83.13 207.91,-80.82 198.38,-76.18 197.57,-83.13"/>
</a>
</g>
</g>
<!-- Node6 -->
<g id="Node000006" class="node">
<title>Node6</title>
<g id="a_Node000006"><a xlink:href="fragment_8c.html#ae3aa75d17cbc170e60f4f48c4a2ffdf5" target="_top" xlink:title=" ">
<polygon fill="white" stroke="#666666" points="172,-19 77,-19 77,0 172,0 172,-19"/>
<text text-anchor="middle" x="124.5" y="-7" font-family="Helvetica,sans-Serif" font-size="10.00">fragment_driver</text>
</a>
</g>
</g>
<!-- Node5&#45;&gt;Node6 -->
<g id="edge5_Node000005_Node000006" class="edge">
<title>Node5&#45;&gt;Node6</title>
<g id="a_edge5_Node000005_Node000006"><a xlink:title=" ">
<path fill="none" stroke="#63b8ff" d="M211.59,-9.5C199.1,-9.5 185.24,-9.5 172.36,-9.5"/>
<polygon fill="#63b8ff" stroke="#63b8ff" points="211.7,-13 221.7,-9.5 211.7,-6 211.7,-13"/>
</a>
</g>
</g>
<!-- Node6&#45;&gt;Node4 -->
<g id="edge6_Node000006_Node000004" class="edge">
<title>Node6&#45;&gt;Node4</title>
<g id="a_edge6_Node000006_Node000004"><a xlink:title=" ">
<path fill="none" stroke="#63b8ff" d="M88.28,-22.62C72.49,-28.5 54.46,-35.22 41.11,-40.19"/>
<polygon fill="#63b8ff" stroke="#63b8ff" points="89.61,-25.86 97.76,-19.09 87.17,-19.3 89.61,-25.86"/>
</a>
</g>
</g>
</g>
</svg>
