<?xml version="1.0" encoding="UTF-8" standalone="no"?>
<!DOCTYPE svg PUBLIC "-//W3C//DTD SVG 1.1//EN"
 "http://www.w3.org/Graphics/SVG/1.1/DTD/svg11.dtd">
<!-- Generated by graphviz version 2.43.0 (0)
 -->
<!-- Title: count_peaks Pages: 1 -->
<svg width="334pt" height="27pt"
 viewBox="0.00 0.00 334.00 27.00" xmlns="http://www.w3.org/2000/svg" xmlns:xlink="http://www.w3.org/1999/xlink">
<g id="graph0" class="graph" transform="scale(1 1) rotate(0) translate(4 23)">
<title>count_peaks</title>
<!-- Node1 -->
<g id="Node000001" class="node">
<title>Node1</title>
<g id="a_Node000001"><a xlink:title=" ">
<polygon fill="#999999" stroke="#666666" points="78,-19 0,-19 0,0 78,0 78,-19"/>
<text text-anchor="middle" x="39" y="-7" font-family="Helvetica,sans-Serif" font-size="10.00">count_peaks</text>
</a>
</g>
</g>
<!-- Node2 -->
<g id="Node000002" class="node">
<title>Node2</title>
<g id="a_Node000002"><a xlink:href="fragment_8c.html#af8ce3c7516f316b4e0420bae9e26fe49" target="_top" xlink:title=" ">
<polygon fill="white" stroke="#666666" points="193,-19 114,-19 114,0 193,0 193,-19"/>
<text text-anchor="middle" x="153.5" y="-7" font-family="Helvetica,sans-Serif" font-size="10.00">find_location</text>
</a>
</g>
</g>
<!-- Node1&#45;&gt;Node2 -->
<g id="edge1_Node000001_Node000002" class="edge">
<title>Node1&#45;&gt;Node2</title>
<g id="a_edge1_Node000001_Node000002"><a xlink:title=" ">
<path fill="none" stroke="#63b8ff" d="M78.09,-9.5C86.24,-9.5 94.97,-9.5 103.48,-9.5"/>
<polygon fill="#63b8ff" stroke="#63b8ff" points="103.69,-13 113.69,-9.5 103.69,-6 103.69,-13"/>
</a>
</g>
</g>
<!-- Node3 -->
<g id="Node000003" class="node">
<title>Node3</title>
<g id="a_Node000003"><a xlink:href="fragment_8c.html#acc57f162dbd5b7979bbf7af93ef7ac97" target="_top" xlink:title=" ">
<polygon fill="white" stroke="#666666" points="326,-19 229,-19 229,0 326,0 326,-19"/>
<text text-anchor="middle" x="277.5" y="-7" font-family="Helvetica,sans-Serif" font-size="10.00">compare_search</text>
</a>
</g>
</g>
<!-- Node2&#45;&gt;Node3 -->
<g id="edge2_Node000002_Node000003" class="edge">
<title>Node2&#45;&gt;Node3</title>
<g id="a_edge2_Node000002_Node000003"><a xlink:title=" ">
<path fill="none" stroke="#63b8ff" d="M193.1,-9.5C201.23,-9.5 209.97,-9.5 218.63,-9.5"/>
<polygon fill="#63b8ff" stroke="#63b8ff" points="218.72,-13 228.72,-9.5 218.72,-6 218.72,-13"/>
</a>
</g>
</g>
</g>
</svg>
