<?xml version="1.0" encoding="UTF-8" standalone="no"?>
<!DOCTYPE svg PUBLIC "-//W3C//DTD SVG 1.1//EN"
 "http://www.w3.org/Graphics/SVG/1.1/DTD/svg11.dtd">
<!-- Generated by graphviz version 2.43.0 (0)
 -->
<!-- Title: create_map Pages: 1 -->
<svg width="388pt" height="27pt"
 viewBox="0.00 0.00 388.00 27.00" xmlns="http://www.w3.org/2000/svg" xmlns:xlink="http://www.w3.org/1999/xlink">
<g id="graph0" class="graph" transform="scale(1 1) rotate(0) translate(4 23)">
<title>create_map</title>
<!-- Node1 -->
<g id="Node000001" class="node">
<title>Node1</title>
<g id="a_Node000001"><a xlink:title=" ">
<polygon fill="#999999" stroke="#666666" points="380,-19 306,-19 306,0 380,0 380,-19"/>
<text text-anchor="middle" x="343" y="-7" font-family="Helvetica,sans-Serif" font-size="10.00">create_map</text>
</a>
</g>
</g>
<!-- Node2 -->
<g id="Node000002" class="node">
<title>Node2</title>
<g id="a_Node000002"><a xlink:href="fragment_8c.html#ac2bb250921932f90f7b0939d1181b66d" target="_top" xlink:title=" ">
<polygon fill="white" stroke="#666666" points="270,-19 208,-19 208,0 270,0 270,-19"/>
<text text-anchor="middle" x="239" y="-7" font-family="Helvetica,sans-Serif" font-size="10.00">fragment</text>
</a>
</g>
</g>
<!-- Node1&#45;&gt;Node2 -->
<g id="edge1_Node000001_Node000002" class="edge">
<title>Node1&#45;&gt;Node2</title>
<g id="a_edge1_Node000001_Node000002"><a xlink:title=" ">
<path fill="none" stroke="#63b8ff" d="M295.69,-9.5C286.99,-9.5 278.11,-9.5 270.07,-9.5"/>
<polygon fill="#63b8ff" stroke="#63b8ff" points="295.75,-13 305.75,-9.5 295.75,-6 295.75,-13"/>
</a>
</g>
</g>
<!-- Node3 -->
<g id="Node000003" class="node">
<title>Node3</title>
<g id="a_Node000003"><a xlink:href="fragment_8c.html#ae3aa75d17cbc170e60f4f48c4a2ffdf5" target="_top" xlink:title=" ">
<polygon fill="white" stroke="#666666" points="172,-19 77,-19 77,0 172,0 172,-19"/>
<text text-anchor="middle" x="124.5" y="-7" font-family="Helvetica,sans-Serif" font-size="10.00">fragment_driver</text>
</a>
</g>
</g>
<!-- Node2&#45;&gt;Node3 -->
<g id="edge2_Node000002_Node000003" class="edge">
<title>Node2&#45;&gt;Node3</title>
<g id="a_edge2_Node000002_Node000003"><a xlink:title=" ">
<path fill="none" stroke="#63b8ff" d="M197.73,-9.5C189.47,-9.5 180.72,-9.5 172.26,-9.5"/>
<polygon fill="#63b8ff" stroke="#63b8ff" points="197.85,-13 207.85,-9.5 197.85,-6 197.85,-13"/>
</a>
</g>
</g>
<!-- Node4 -->
<g id="Node000004" class="node">
<title>Node4</title>
<g id="a_Node000004"><a xlink:href="pinocchio_8c.html#a647f21a28344e1d9c643f4115516d7c9" target="_top" xlink:title=" ">
<polygon fill="white" stroke="#666666" points="41,-19 0,-19 0,0 41,0 41,-19"/>
<text text-anchor="middle" x="20.5" y="-7" font-family="Helvetica,sans-Serif" font-size="10.00">main</text>
</a>
</g>
</g>
<!-- Node3&#45;&gt;Node4 -->
<g id="edge3_Node000003_Node000004" class="edge">
<title>Node3&#45;&gt;Node4</title>
<g id="a_edge3_Node000003_Node000004"><a xlink:title=" ">
<path fill="none" stroke="#63b8ff" d="M66.91,-9.5C57.67,-9.5 48.67,-9.5 41.16,-9.5"/>
<polygon fill="#63b8ff" stroke="#63b8ff" points="66.98,-13 76.98,-9.5 66.98,-6 66.98,-13"/>
</a>
</g>
</g>
</g>
</svg>
