<?xml version="1.0" encoding="UTF-8" standalone="no"?>
<!DOCTYPE svg PUBLIC "-//W3C//DTD SVG 1.1//EN"
 "http://www.w3.org/Graphics/SVG/1.1/DTD/svg11.dtd">
<!-- Generated by graphviz version 2.43.0 (0)
 -->
<!-- Title: index_compare_F Pages: 1 -->
<svg width="559pt" height="46pt"
 viewBox="0.00 0.00 559.00 46.00" xmlns="http://www.w3.org/2000/svg" xmlns:xlink="http://www.w3.org/1999/xlink">
<g id="graph0" class="graph" transform="scale(1 1) rotate(0) translate(4 42)">
<title>index_compare_F</title>
<!-- Node1 -->
<g id="Node000001" class="node">
<title>Node1</title>
<g id="a_Node000001"><a xlink:title=" ">
<polygon fill="#999999" stroke="#666666" points="551,-38 448,-38 448,-19 551,-19 551,-38"/>
<text text-anchor="middle" x="499.5" y="-26" font-family="Helvetica,sans-Serif" font-size="10.00">index_compare_F</text>
</a>
</g>
</g>
<!-- Node2 -->
<g id="Node000002" class="node">
<title>Node2</title>
<g id="a_Node000002"><a xlink:href="fragment_8c.html#ac2bb250921932f90f7b0939d1181b66d" target="_top" xlink:title=" ">
<polygon fill="white" stroke="#666666" points="270,-38 208,-38 208,-19 270,-19 270,-38"/>
<text text-anchor="middle" x="239" y="-26" font-family="Helvetica,sans-Serif" font-size="10.00">fragment</text>
</a>
</g>
</g>
<!-- Node1&#45;&gt;Node2 -->
<g id="edge1_Node000001_Node000002" class="edge">
<title>Node1&#45;&gt;Node2</title>
<g id="a_edge1_Node000001_Node000002"><a xlink:title=" ">
<path fill="none" stroke="#63b8ff" d="M437.5,-28.5C384.8,-28.5 310.88,-28.5 270.06,-28.5"/>
<polygon fill="#63b8ff" stroke="#63b8ff" points="437.74,-32 447.74,-28.5 437.74,-25 437.74,-32"/>
</a>
</g>
</g>
<!-- Node5 -->
<g id="Node000005" class="node">
<title>Node5</title>
<g id="a_Node000005"><a xlink:href="fragment_8c.html#a4a4d467cbeff77fee09b93864c8589c0" target="_top" xlink:title=" ">
<polygon fill="white" stroke="#666666" points="412,-19 306,-19 306,0 412,0 412,-19"/>
<text text-anchor="middle" x="359" y="-7" font-family="Helvetica,sans-Serif" font-size="10.00">sort_and_organize</text>
</a>
</g>
</g>
<!-- Node1&#45;&gt;Node5 -->
<g id="edge4_Node000001_Node000005" class="edge">
<title>Node1&#45;&gt;Node5</title>
<g id="a_edge4_Node000001_Node000005"><a xlink:title=" ">
<path fill="none" stroke="#63b8ff" d="M437.8,-20.17C429.26,-19 420.54,-17.8 412.17,-16.66"/>
<polygon fill="#63b8ff" stroke="#63b8ff" points="437.33,-23.64 447.71,-21.53 438.28,-16.71 437.33,-23.64"/>
</a>
</g>
</g>
<!-- Node3 -->
<g id="Node000003" class="node">
<title>Node3</title>
<g id="a_Node000003"><a xlink:href="fragment_8c.html#ae3aa75d17cbc170e60f4f48c4a2ffdf5" target="_top" xlink:title=" ">
<polygon fill="white" stroke="#666666" points="172,-38 77,-38 77,-19 172,-19 172,-38"/>
<text text-anchor="middle" x="124.5" y="-26" font-family="Helvetica,sans-Serif" font-size="10.00">fragment_driver</text>
</a>
</g>
</g>
<!-- Node2&#45;&gt;Node3 -->
<g id="edge2_Node000002_Node000003" class="edge">
<title>Node2&#45;&gt;Node3</title>
<g id="a_edge2_Node000002_Node000003"><a xlink:title=" ">
<path fill="none" stroke="#63b8ff" d="M197.73,-28.5C189.47,-28.5 180.72,-28.5 172.26,-28.5"/>
<polygon fill="#63b8ff" stroke="#63b8ff" points="197.85,-32 207.85,-28.5 197.85,-25 197.85,-32"/>
</a>
</g>
</g>
<!-- Node4 -->
<g id="Node000004" class="node">
<title>Node4</title>
<g id="a_Node000004"><a xlink:href="pinocchio_8c.html#a647f21a28344e1d9c643f4115516d7c9" target="_top" xlink:title=" ">
<polygon fill="white" stroke="#666666" points="41,-38 0,-38 0,-19 41,-19 41,-38"/>
<text text-anchor="middle" x="20.5" y="-26" font-family="Helvetica,sans-Serif" font-size="10.00">main</text>
</a>
</g>
</g>
<!-- Node3&#45;&gt;Node4 -->
<g id="edge3_Node000003_Node000004" class="edge">
<title>Node3&#45;&gt;Node4</title>
<g id="a_edge3_Node000003_Node000004"><a xlink:title=" ">
<path fill="none" stroke="#63b8ff" d="M66.91,-28.5C57.67,-28.5 48.67,-28.5 41.16,-28.5"/>
<polygon fill="#63b8ff" stroke="#63b8ff" points="66.98,-32 76.98,-28.5 66.98,-25 66.98,-32"/>
</a>
</g>
</g>
<!-- Node5&#45;&gt;Node2 -->
<g id="edge5_Node000005_Node000002" class="edge">
<title>Node5&#45;&gt;Node2</title>
<g id="a_edge5_Node000005_Node000002"><a xlink:title=" ">
<path fill="none" stroke="#63b8ff" d="M295.83,-19.51C286.9,-20.95 278.07,-22.37 270.16,-23.64"/>
<polygon fill="#63b8ff" stroke="#63b8ff" points="296.58,-22.93 305.9,-17.89 295.47,-16.02 296.58,-22.93"/>
</a>
</g>
</g>
</g>
</svg>
