<?xml version="1.0" encoding="UTF-8" standalone="no"?>
<!DOCTYPE svg PUBLIC "-//W3C//DTD SVG 1.1//EN"
 "http://www.w3.org/Graphics/SVG/1.1/DTD/svg11.dtd">
<!-- Generated by graphviz version 2.43.0 (0)
 -->
<!-- Title: sort_and_organize Pages: 1 -->
<svg width="253pt" height="175pt"
 viewBox="0.00 0.00 253.00 175.00" xmlns="http://www.w3.org/2000/svg" xmlns:xlink="http://www.w3.org/1999/xlink">
<g id="graph0" class="graph" transform="scale(1 1) rotate(0) translate(4 171)">
<title>sort_and_organize</title>
<!-- Node1 -->
<g id="Node000001" class="node">
<title>Node1</title>
<g id="a_Node000001"><a xlink:title=" ">
<polygon fill="#999999" stroke="#666666" points="106,-93 0,-93 0,-74 106,-74 106,-93"/>
<text text-anchor="middle" x="53" y="-81" font-family="Helvetica,sans-Serif" font-size="10.00">sort_and_organize</text>
</a>
</g>
</g>
<!-- Node2 -->
<g id="Node000002" class="node">
<title>Node2</title>
<g id="a_Node000002"><a xlink:href="fmax_8c.html#a76000ea6ddfd81a9d6cf317d53f54378" target="_top" xlink:title=" ">
<polygon fill="white" stroke="#666666" points="214.5,-167 172.5,-167 172.5,-148 214.5,-148 214.5,-167"/>
<text text-anchor="middle" x="193.5" y="-155" font-family="Helvetica,sans-Serif" font-size="10.00">fdate</text>
</a>
</g>
</g>
<!-- Node1&#45;&gt;Node2 -->
<g id="edge1_Node000001_Node000002" class="edge">
<title>Node1&#45;&gt;Node2</title>
<g id="a_edge1_Node000001_Node000002"><a xlink:title=" ">
<path fill="none" stroke="#63b8ff" d="M66.88,-93C83.56,-105.01 113.85,-125.74 142,-139.5 148.52,-142.69 155.75,-145.6 162.65,-148.11"/>
<polygon fill="#63b8ff" stroke="#63b8ff" points="161.82,-151.53 172.41,-151.49 164.11,-144.91 161.82,-151.53"/>
</a>
</g>
</g>
<!-- Node3 -->
<g id="Node000003" class="node">
<title>Node3</title>
<g id="a_Node000003"><a xlink:href="fragment_8c.html#aab372d4bc36a356caffb20feaa39ba79" target="_top" xlink:title=" ">
<polygon fill="white" stroke="#666666" points="245,-130 142,-130 142,-111 245,-111 245,-130"/>
<text text-anchor="middle" x="193.5" y="-118" font-family="Helvetica,sans-Serif" font-size="10.00">index_compare_F</text>
</a>
</g>
</g>
<!-- Node1&#45;&gt;Node3 -->
<g id="edge2_Node000001_Node000003" class="edge">
<title>Node1&#45;&gt;Node3</title>
<g id="a_edge2_Node000001_Node000003"><a xlink:title=" ">
<path fill="none" stroke="#63b8ff" d="M89.67,-93.03C107.06,-97.67 128.18,-103.32 146.75,-108.28"/>
<polygon fill="#63b8ff" stroke="#63b8ff" points="145.91,-111.68 156.47,-110.88 147.71,-104.91 145.91,-111.68"/>
</a>
</g>
</g>
<!-- Node4 -->
<g id="Node000004" class="node">
<title>Node4</title>
<g id="a_Node000004"><a xlink:href="fragment_8c.html#a9ce7fe54d8d91f09f896cf6af95d8909" target="_top" xlink:title=" ">
<polygon fill="white" stroke="#666666" points="245,-93 142,-93 142,-74 245,-74 245,-93"/>
<text text-anchor="middle" x="193.5" y="-81" font-family="Helvetica,sans-Serif" font-size="10.00">index_compare_P</text>
</a>
</g>
</g>
<!-- Node1&#45;&gt;Node4 -->
<g id="edge3_Node000001_Node000004" class="edge">
<title>Node1&#45;&gt;Node4</title>
<g id="a_edge3_Node000001_Node000004"><a xlink:title=" ">
<path fill="none" stroke="#63b8ff" d="M106.36,-83.5C114.64,-83.5 123.26,-83.5 131.71,-83.5"/>
<polygon fill="#63b8ff" stroke="#63b8ff" points="131.9,-87 141.9,-83.5 131.9,-80 131.9,-87"/>
</a>
</g>
</g>
<!-- Node5 -->
<g id="Node000005" class="node">
<title>Node5</title>
<g id="a_Node000005"><a xlink:href="fragment_8c.html#a867a976fb9f5647411c8544921581285" target="_top" xlink:title=" ">
<polygon fill="white" stroke="#666666" points="219.5,-56 167.5,-56 167.5,-37 219.5,-37 219.5,-56"/>
<text text-anchor="middle" x="193.5" y="-44" font-family="Helvetica,sans-Serif" font-size="10.00">reorder</text>
</a>
</g>
</g>
<!-- Node1&#45;&gt;Node5 -->
<g id="edge4_Node000001_Node000005" class="edge">
<title>Node1&#45;&gt;Node5</title>
<g id="a_edge4_Node000001_Node000005"><a xlink:title=" ">
<path fill="none" stroke="#63b8ff" d="M89.67,-73.97C110.61,-68.38 136.95,-61.34 157.73,-55.79"/>
<polygon fill="#63b8ff" stroke="#63b8ff" points="158.68,-59.16 167.44,-53.2 156.87,-52.39 158.68,-59.16"/>
</a>
</g>
</g>
<!-- Node6 -->
<g id="Node000006" class="node">
<title>Node6</title>
<g id="a_Node000006"><a xlink:href="fragment_8c.html#a2b757ee64e56bfd09240bc064edbc2d7" target="_top" xlink:title=" ">
<polygon fill="white" stroke="#666666" points="238,-19 149,-19 149,0 238,0 238,-19"/>
<text text-anchor="middle" x="193.5" y="-7" font-family="Helvetica,sans-Serif" font-size="10.00">reorder_nofrag</text>
</a>
</g>
</g>
<!-- Node1&#45;&gt;Node6 -->
<g id="edge5_Node000001_Node000006" class="edge">
<title>Node1&#45;&gt;Node6</title>
<g id="a_edge5_Node000001_Node000006"><a xlink:title=" ">
<path fill="none" stroke="#63b8ff" d="M67.53,-73.85C84.4,-62.11 114.38,-42.16 142,-28.5 146.03,-26.51 150.32,-24.59 154.64,-22.8"/>
<polygon fill="#63b8ff" stroke="#63b8ff" points="156.02,-26.02 164.03,-19.08 153.45,-19.51 156.02,-26.02"/>
</a>
</g>
</g>
</g>
</svg>
