<?xml version="1.0" encoding="UTF-8" standalone="no"?>
<!DOCTYPE svg PUBLIC "-//W3C//DTD SVG 1.1//EN"
 "http://www.w3.org/Graphics/SVG/1.1/DTD/svg11.dtd">
<!-- Generated by graphviz version 2.43.0 (0)
 -->
<!-- Title: Integrand_MF Pages: 1 -->
<svg width="667pt" height="160pt"
 viewBox="0.00 0.00 667.00 160.26" xmlns="http://www.w3.org/2000/svg" xmlns:xlink="http://www.w3.org/1999/xlink">
<g id="graph0" class="graph" transform="scale(1 1) rotate(0) translate(4 156.26)">
<title>Integrand_MF</title>
<!-- Node1 -->
<g id="Node000001" class="node">
<title>Node1</title>
<g id="a_Node000001"><a xlink:title=" ">
<polygon fill="#999999" stroke="#666666" points="83,-95 0,-95 0,-76 83,-76 83,-95"/>
<text text-anchor="middle" x="41.5" y="-83" font-family="Helvetica,sans-Serif" font-size="10.00">Integrand_MF</text>
</a>
</g>
</g>
<!-- Node2 -->
<g id="Node000002" class="node">
<title>Node2</title>
<g id="a_Node000002"><a xlink:href="cosmo_8c.html#a3e2faa009164fa657b79bf92bbfbb407" target="_top" xlink:title=" ">
<polygon fill="white" stroke="#666666" points="242,-95 119,-95 119,-76 242,-76 242,-95"/>
<text text-anchor="middle" x="180.5" y="-83" font-family="Helvetica,sans-Serif" font-size="10.00">AnalyticMassFunction</text>
</a>
</g>
</g>
<!-- Node1&#45;&gt;Node2 -->
<g id="edge1_Node000001_Node000002" class="edge">
<title>Node1&#45;&gt;Node2</title>
<g id="a_edge1_Node000001_Node000002"><a xlink:title=" ">
<path fill="none" stroke="#63b8ff" d="M83.23,-85.5C91.28,-85.5 99.95,-85.5 108.67,-85.5"/>
<polygon fill="#63b8ff" stroke="#63b8ff" points="108.89,-89 118.89,-85.5 108.89,-82 108.89,-89"/>
</a>
</g>
</g>
<!-- Node3 -->
<g id="Node000003" class="node">
<title>Node3</title>
<g id="a_Node000003"><a xlink:href="cosmo_8c.html#a7e6c85650740115e3cf73cca408cfc5a" target="_top" xlink:title=" ">
<polygon fill="white" stroke="#666666" points="530,-151 425,-151 425,-132 530,-132 530,-151"/>
<text text-anchor="middle" x="477.5" y="-139" font-family="Helvetica,sans-Serif" font-size="10.00">dMassVariance_dr</text>
</a>
</g>
</g>
<!-- Node2&#45;&gt;Node3 -->
<g id="edge2_Node000002_Node000003" class="edge">
<title>Node2&#45;&gt;Node3</title>
<g id="a_edge2_Node000002_Node000003"><a xlink:title=" ">
<path fill="none" stroke="#63b8ff" d="M193.35,-95.21C210.68,-108.7 244.52,-132.49 278,-141.5 322.69,-153.53 375.13,-152.94 414.88,-149.65"/>
<polygon fill="#63b8ff" stroke="#63b8ff" points="415.31,-153.13 424.96,-148.74 414.68,-146.16 415.31,-153.13"/>
</a>
</g>
</g>
<!-- Node5 -->
<g id="Node000005" class="node">
<title>Node5</title>
<g id="a_Node000005"><a xlink:href="cosmo_8c.html#a673892897db42773951bd46f397f914b" target="_top" xlink:title=" ">
<polygon fill="white" stroke="#666666" points="389,-132 278,-132 278,-113 389,-113 389,-132"/>
<text text-anchor="middle" x="333.5" y="-120" font-family="Helvetica,sans-Serif" font-size="10.00">dOmega_dVariance</text>
</a>
</g>
</g>
<!-- Node2&#45;&gt;Node5 -->
<g id="edge4_Node000002_Node000005" class="edge">
<title>Node2&#45;&gt;Node5</title>
<g id="a_edge4_Node000002_Node000005"><a xlink:title=" ">
<path fill="none" stroke="#63b8ff" d="M220.39,-95.03C239.69,-99.76 263.2,-105.52 283.69,-110.54"/>
<polygon fill="#63b8ff" stroke="#63b8ff" points="282.94,-113.96 293.48,-112.94 284.6,-107.16 282.94,-113.96"/>
</a>
</g>
</g>
<!-- Node6 -->
<g id="Node000006" class="node">
<title>Node6</title>
<g id="a_Node000006"><a xlink:href="cosmo_8c.html#a9fbcf5b69c272e801cf320cf814b23c4" target="_top" xlink:title=" ">
<polygon fill="white" stroke="#666666" points="375.5,-95 291.5,-95 291.5,-76 375.5,-76 375.5,-95"/>
<text text-anchor="middle" x="333.5" y="-83" font-family="Helvetica,sans-Serif" font-size="10.00">GrowingMode</text>
</a>
</g>
</g>
<!-- Node2&#45;&gt;Node6 -->
<g id="edge5_Node000002_Node000006" class="edge">
<title>Node2&#45;&gt;Node6</title>
<g id="a_edge5_Node000002_Node000006"><a xlink:title=" ">
<path fill="none" stroke="#63b8ff" d="M242.05,-85.5C255,-85.5 268.56,-85.5 281.12,-85.5"/>
<polygon fill="#63b8ff" stroke="#63b8ff" points="281.4,-89 291.4,-85.5 281.4,-82 281.4,-89"/>
</a>
</g>
</g>
<!-- Node8 -->
<g id="Node000008" class="node">
<title>Node8</title>
<g id="a_Node000008"><a xlink:href="cosmo_8c.html#aa47020606869257e46b3a4f9071504d0" target="_top" xlink:title=" ">
<polygon fill="white" stroke="#666666" points="519.5,-58 435.5,-58 435.5,-39 519.5,-39 519.5,-58"/>
<text text-anchor="middle" x="477.5" y="-46" font-family="Helvetica,sans-Serif" font-size="10.00">MassVariance</text>
</a>
</g>
</g>
<!-- Node2&#45;&gt;Node8 -->
<g id="edge8_Node000002_Node000008" class="edge">
<title>Node2&#45;&gt;Node8</title>
<g id="a_edge8_Node000002_Node000008"><a xlink:title=" ">
<path fill="none" stroke="#63b8ff" d="M225.05,-75.93C241.57,-72.56 260.59,-69 278,-66.5 327.79,-59.36 385.03,-54.53 425.21,-51.68"/>
<polygon fill="#63b8ff" stroke="#63b8ff" points="425.56,-55.16 435.3,-50.98 425.08,-48.18 425.56,-55.16"/>
</a>
</g>
</g>
<!-- Node9 -->
<g id="Node000009" class="node">
<title>Node9</title>
<g id="a_Node000009"><a xlink:href="cosmo_8c.html#a66b5b059ca665289d407e13f98e6ff9a" target="_top" xlink:title=" ">
<polygon fill="white" stroke="#666666" points="372,-19 295,-19 295,0 372,0 372,-19"/>
<text text-anchor="middle" x="333.5" y="-7" font-family="Helvetica,sans-Serif" font-size="10.00">SizeForMass</text>
</a>
</g>
</g>
<!-- Node2&#45;&gt;Node9 -->
<g id="edge10_Node000002_Node000009" class="edge">
<title>Node2&#45;&gt;Node9</title>
<g id="a_edge10_Node000002_Node000009"><a xlink:title=" ">
<path fill="none" stroke="#63b8ff" d="M198.37,-75.88C217.47,-65.12 249.62,-47.37 278,-33.5 285.09,-30.04 292.79,-26.5 300.12,-23.25"/>
<polygon fill="#63b8ff" stroke="#63b8ff" points="302.02,-26.24 309.78,-19.03 299.21,-19.83 302.02,-26.24"/>
</a>
</g>
</g>
<!-- Node4 -->
<g id="Node000004" class="node">
<title>Node4</title>
<g id="a_Node000004"><a xlink:href="cosmo_8c.html#a6341f5394ed17a00dc77c5519b292ae3" target="_top" xlink:title=" ">
<polygon fill="white" stroke="#666666" points="659,-95 566,-95 566,-76 659,-76 659,-95"/>
<text text-anchor="middle" x="612.5" y="-83" font-family="Helvetica,sans-Serif" font-size="10.00">my_spline_eval</text>
</a>
</g>
</g>
<!-- Node3&#45;&gt;Node4 -->
<g id="edge3_Node000003_Node000004" class="edge">
<title>Node3&#45;&gt;Node4</title>
<g id="a_edge3_Node000003_Node000004"><a xlink:title=" ">
<path fill="none" stroke="#63b8ff" d="M501.36,-131.87C522.9,-122.8 555.38,-109.13 579.5,-98.98"/>
<polygon fill="#63b8ff" stroke="#63b8ff" points="581.08,-102.11 588.93,-95 578.36,-95.66 581.08,-102.11"/>
</a>
</g>
</g>
<!-- Node7 -->
<g id="Node000007" class="node">
<title>Node7</title>
<g id="a_Node000007"><a xlink:href="cosmo_8c.html#a8847e5b8ea1f9c458c8bf9e5f36837a9" target="_top" xlink:title=" ">
<polygon fill="white" stroke="#666666" points="530,-95 425,-95 425,-76 530,-76 530,-95"/>
<text text-anchor="middle" x="477.5" y="-83" font-family="Helvetica,sans-Serif" font-size="10.00">InterpolateGrowth</text>
</a>
</g>
</g>
<!-- Node6&#45;&gt;Node7 -->
<g id="edge6_Node000006_Node000007" class="edge">
<title>Node6&#45;&gt;Node7</title>
<g id="a_edge6_Node000006_Node000007"><a xlink:title=" ">
<path fill="none" stroke="#63b8ff" d="M375.57,-85.5C387.84,-85.5 401.57,-85.5 414.86,-85.5"/>
<polygon fill="#63b8ff" stroke="#63b8ff" points="414.9,-89 424.9,-85.5 414.9,-82 414.9,-89"/>
</a>
</g>
</g>
<!-- Node7&#45;&gt;Node4 -->
<g id="edge7_Node000007_Node000004" class="edge">
<title>Node7&#45;&gt;Node4</title>
<g id="a_edge7_Node000007_Node000004"><a xlink:title=" ">
<path fill="none" stroke="#63b8ff" d="M530.3,-85.5C538.6,-85.5 547.22,-85.5 555.6,-85.5"/>
<polygon fill="#63b8ff" stroke="#63b8ff" points="555.68,-89 565.68,-85.5 555.68,-82 555.68,-89"/>
</a>
</g>
</g>
<!-- Node8&#45;&gt;Node4 -->
<g id="edge9_Node000008_Node000004" class="edge">
<title>Node8&#45;&gt;Node4</title>
<g id="a_edge9_Node000008_Node000004"><a xlink:title=" ">
<path fill="none" stroke="#63b8ff" d="M512.75,-58.03C529.22,-62.61 549.18,-68.16 566.82,-73.07"/>
<polygon fill="#63b8ff" stroke="#63b8ff" points="566.33,-76.57 576.9,-75.88 568.21,-69.82 566.33,-76.57"/>
</a>
</g>
</g>
</g>
</svg>
