<?xml version="1.0" encoding="UTF-8" standalone="no"?>
<!DOCTYPE svg PUBLIC "-//W3C//DTD SVG 1.1//EN"
 "http://www.w3.org/Graphics/SVG/1.1/DTD/svg11.dtd">
<!-- Generated by graphviz version 2.43.0 (0)
 -->
<!-- Title: compute_Nhalos_in_PLC Pages: 1 -->
<svg width="839pt" height="211pt"
 viewBox="0.00 0.00 839.00 211.00" xmlns="http://www.w3.org/2000/svg" xmlns:xlink="http://www.w3.org/1999/xlink">
<g id="graph0" class="graph" transform="scale(1 1) rotate(0) translate(4 207)">
<title>compute_Nhalos_in_PLC</title>
<!-- Node1 -->
<g id="Node000001" class="node">
<title>Node1</title>
<g id="a_Node000001"><a xlink:title=" ">
<polygon fill="#999999" stroke="#666666" points="136,-160 0,-160 0,-141 136,-141 136,-160"/>
<text text-anchor="middle" x="68" y="-148" font-family="Helvetica,sans-Serif" font-size="10.00">compute_Nhalos_in_PLC</text>
</a>
</g>
</g>
<!-- Node2 -->
<g id="Node000002" class="node">
<title>Node2</title>
<g id="a_Node000002"><a xlink:href="cosmo_8c.html#aa3beda8770f3f4e1b00e486bb647edc5" target="_top" xlink:title=" ">
<polygon fill="white" stroke="#666666" points="407,-203 298,-203 298,-184 407,-184 407,-203"/>
<text text-anchor="middle" x="352.5" y="-191" font-family="Helvetica,sans-Serif" font-size="10.00">ComovingDistance</text>
</a>
</g>
</g>
<!-- Node1&#45;&gt;Node2 -->
<g id="edge1_Node000001_Node000002" class="edge">
<title>Node1&#45;&gt;Node2</title>
<g id="a_edge1_Node000001_Node000002"><a xlink:title=" ">
<path fill="none" stroke="#63b8ff" d="M131.7,-160.04C178.04,-167.1 240.92,-176.67 287.55,-183.77"/>
<polygon fill="#63b8ff" stroke="#63b8ff" points="287.13,-187.24 297.54,-185.29 288.18,-180.32 287.13,-187.24"/>
</a>
</g>
</g>
<!-- Node4 -->
<g id="Node000004" class="node">
<title>Node4</title>
<g id="a_Node000004"><a xlink:href="fragment_8c.html#a167c76ec9c64d91e440bec86963419bb" target="_top" xlink:title=" ">
<polygon fill="white" stroke="#666666" points="255,-141 172,-141 172,-122 255,-122 255,-141"/>
<text text-anchor="middle" x="213.5" y="-129" font-family="Helvetica,sans-Serif" font-size="10.00">Integrand_MF</text>
</a>
</g>
</g>
<!-- Node1&#45;&gt;Node4 -->
<g id="edge3_Node000001_Node000004" class="edge">
<title>Node1&#45;&gt;Node4</title>
<g id="a_edge3_Node000001_Node000004"><a xlink:title=" ">
<path fill="none" stroke="#63b8ff" d="M136.13,-141.61C144.84,-140.46 153.64,-139.29 162.02,-138.18"/>
<polygon fill="#63b8ff" stroke="#63b8ff" points="162.54,-141.65 172,-136.86 161.62,-134.71 162.54,-141.65"/>
</a>
</g>
</g>
<!-- Node3 -->
<g id="Node000003" class="node">
<title>Node3</title>
<g id="a_Node000003"><a xlink:href="cosmo_8c.html#a6341f5394ed17a00dc77c5519b292ae3" target="_top" xlink:title=" ">
<polygon fill="white" stroke="#666666" points="831,-132 738,-132 738,-113 831,-113 831,-132"/>
<text text-anchor="middle" x="784.5" y="-120" font-family="Helvetica,sans-Serif" font-size="10.00">my_spline_eval</text>
</a>
</g>
</g>
<!-- Node2&#45;&gt;Node3 -->
<g id="edge2_Node000002_Node000003" class="edge">
<title>Node2&#45;&gt;Node3</title>
<g id="a_edge2_Node000002_Node000003"><a xlink:title=" ">
<path fill="none" stroke="#63b8ff" d="M407.05,-194.04C476.34,-193.48 600.25,-188.15 702,-160.5 721.71,-155.14 742.56,-145.34 758.24,-137.03"/>
<polygon fill="#63b8ff" stroke="#63b8ff" points="760.17,-139.96 767.28,-132.1 756.82,-133.81 760.17,-139.96"/>
</a>
</g>
</g>
<!-- Node5 -->
<g id="Node000005" class="node">
<title>Node5</title>
<g id="a_Node000005"><a xlink:href="cosmo_8c.html#a3e2faa009164fa657b79bf92bbfbb407" target="_top" xlink:title=" ">
<polygon fill="white" stroke="#666666" points="414,-104 291,-104 291,-85 414,-85 414,-104"/>
<text text-anchor="middle" x="352.5" y="-92" font-family="Helvetica,sans-Serif" font-size="10.00">AnalyticMassFunction</text>
</a>
</g>
</g>
<!-- Node4&#45;&gt;Node5 -->
<g id="edge4_Node000004_Node000005" class="edge">
<title>Node4&#45;&gt;Node5</title>
<g id="a_edge4_Node000004_Node000005"><a xlink:title=" ">
<path fill="none" stroke="#63b8ff" d="M249.78,-121.97C266.91,-117.35 287.69,-111.73 305.99,-106.79"/>
<polygon fill="#63b8ff" stroke="#63b8ff" points="307.12,-110.11 315.86,-104.12 305.3,-103.35 307.12,-110.11"/>
</a>
</g>
</g>
<!-- Node6 -->
<g id="Node000006" class="node">
<title>Node6</title>
<g id="a_Node000006"><a xlink:href="cosmo_8c.html#a7e6c85650740115e3cf73cca408cfc5a" target="_top" xlink:title=" ">
<polygon fill="white" stroke="#666666" points="702,-151 597,-151 597,-132 702,-132 702,-151"/>
<text text-anchor="middle" x="649.5" y="-139" font-family="Helvetica,sans-Serif" font-size="10.00">dMassVariance_dr</text>
</a>
</g>
</g>
<!-- Node5&#45;&gt;Node6 -->
<g id="edge5_Node000005_Node000006" class="edge">
<title>Node5&#45;&gt;Node6</title>
<g id="a_edge5_Node000005_Node000006"><a xlink:title=" ">
<path fill="none" stroke="#63b8ff" d="M367.76,-104.03C385.94,-115.56 418.77,-134.3 450,-141.5 494.95,-151.86 547.16,-151.39 586.75,-148.58"/>
<polygon fill="#63b8ff" stroke="#63b8ff" points="587.09,-152.06 596.79,-147.8 586.55,-145.08 587.09,-152.06"/>
</a>
</g>
</g>
<!-- Node7 -->
<g id="Node000007" class="node">
<title>Node7</title>
<g id="a_Node000007"><a xlink:href="cosmo_8c.html#a673892897db42773951bd46f397f914b" target="_top" xlink:title=" ">
<polygon fill="white" stroke="#666666" points="561,-132 450,-132 450,-113 561,-113 561,-132"/>
<text text-anchor="middle" x="505.5" y="-120" font-family="Helvetica,sans-Serif" font-size="10.00">dOmega_dVariance</text>
</a>
</g>
</g>
<!-- Node5&#45;&gt;Node7 -->
<g id="edge7_Node000005_Node000007" class="edge">
<title>Node5&#45;&gt;Node7</title>
<g id="a_edge7_Node000005_Node000007"><a xlink:title=" ">
<path fill="none" stroke="#63b8ff" d="M405.04,-104.06C417.31,-106.33 430.52,-108.78 443.18,-111.13"/>
<polygon fill="#63b8ff" stroke="#63b8ff" points="442.72,-114.6 453.19,-112.99 443.99,-107.72 442.72,-114.6"/>
</a>
</g>
</g>
<!-- Node8 -->
<g id="Node000008" class="node">
<title>Node8</title>
<g id="a_Node000008"><a xlink:href="cosmo_8c.html#a9fbcf5b69c272e801cf320cf814b23c4" target="_top" xlink:title=" ">
<polygon fill="white" stroke="#666666" points="547.5,-95 463.5,-95 463.5,-76 547.5,-76 547.5,-95"/>
<text text-anchor="middle" x="505.5" y="-83" font-family="Helvetica,sans-Serif" font-size="10.00">GrowingMode</text>
</a>
</g>
</g>
<!-- Node5&#45;&gt;Node8 -->
<g id="edge8_Node000005_Node000008" class="edge">
<title>Node5&#45;&gt;Node8</title>
<g id="a_edge8_Node000005_Node000008"><a xlink:title=" ">
<path fill="none" stroke="#63b8ff" d="M414.05,-90.89C427,-90.12 440.56,-89.31 453.12,-88.56"/>
<polygon fill="#63b8ff" stroke="#63b8ff" points="453.63,-92.04 463.4,-87.95 453.21,-85.05 453.63,-92.04"/>
</a>
</g>
</g>
<!-- Node10 -->
<g id="Node000010" class="node">
<title>Node10</title>
<g id="a_Node000010"><a xlink:href="cosmo_8c.html#aa47020606869257e46b3a4f9071504d0" target="_top" xlink:title=" ">
<polygon fill="white" stroke="#666666" points="691.5,-67 607.5,-67 607.5,-48 691.5,-48 691.5,-67"/>
<text text-anchor="middle" x="649.5" y="-55" font-family="Helvetica,sans-Serif" font-size="10.00">MassVariance</text>
</a>
</g>
</g>
<!-- Node5&#45;&gt;Node10 -->
<g id="edge11_Node000005_Node000010" class="edge">
<title>Node5&#45;&gt;Node10</title>
<g id="a_edge11_Node000005_Node000010"><a xlink:title=" ">
<path fill="none" stroke="#63b8ff" d="M380.14,-84.92C399.3,-78.48 425.9,-70.48 450,-66.5 499.47,-58.32 556.75,-56.53 597.03,-56.51"/>
<polygon fill="#63b8ff" stroke="#63b8ff" points="597.13,-60.01 607.15,-56.54 597.16,-53.01 597.13,-60.01"/>
</a>
</g>
</g>
<!-- Node11 -->
<g id="Node000011" class="node">
<title>Node11</title>
<g id="a_Node000011"><a xlink:href="cosmo_8c.html#a66b5b059ca665289d407e13f98e6ff9a" target="_top" xlink:title=" ">
<polygon fill="white" stroke="#666666" points="544,-19 467,-19 467,0 544,0 544,-19"/>
<text text-anchor="middle" x="505.5" y="-7" font-family="Helvetica,sans-Serif" font-size="10.00">SizeForMass</text>
</a>
</g>
</g>
<!-- Node5&#45;&gt;Node11 -->
<g id="edge13_Node000005_Node000011" class="edge">
<title>Node5&#45;&gt;Node11</title>
<g id="a_edge13_Node000005_Node000011"><a xlink:title=" ">
<path fill="none" stroke="#63b8ff" d="M367.17,-84.94C385.53,-72.32 419.38,-49.8 450,-33.5 456.78,-29.89 464.21,-26.36 471.34,-23.16"/>
<polygon fill="#63b8ff" stroke="#63b8ff" points="473.03,-26.24 480.8,-19.03 470.23,-19.82 473.03,-26.24"/>
</a>
</g>
</g>
<!-- Node6&#45;&gt;Node3 -->
<g id="edge6_Node000006_Node000003" class="edge">
<title>Node6&#45;&gt;Node3</title>
<g id="a_edge6_Node000006_Node000003"><a xlink:title=" ">
<path fill="none" stroke="#63b8ff" d="M702.3,-134.1C710.6,-132.91 719.22,-131.68 727.6,-130.49"/>
<polygon fill="#63b8ff" stroke="#63b8ff" points="728.28,-133.92 737.68,-129.05 727.29,-126.99 728.28,-133.92"/>
</a>
</g>
</g>
<!-- Node9 -->
<g id="Node000009" class="node">
<title>Node9</title>
<g id="a_Node000009"><a xlink:href="cosmo_8c.html#a8847e5b8ea1f9c458c8bf9e5f36837a9" target="_top" xlink:title=" ">
<polygon fill="white" stroke="#666666" points="702,-104 597,-104 597,-85 702,-85 702,-104"/>
<text text-anchor="middle" x="649.5" y="-92" font-family="Helvetica,sans-Serif" font-size="10.00">InterpolateGrowth</text>
</a>
</g>
</g>
<!-- Node8&#45;&gt;Node9 -->
<g id="edge9_Node000008_Node000009" class="edge">
<title>Node8&#45;&gt;Node9</title>
<g id="a_edge9_Node000008_Node000009"><a xlink:title=" ">
<path fill="none" stroke="#63b8ff" d="M547.57,-88.1C559.84,-88.88 573.57,-89.75 586.86,-90.59"/>
<polygon fill="#63b8ff" stroke="#63b8ff" points="586.7,-94.09 596.9,-91.23 587.14,-87.1 586.7,-94.09"/>
</a>
</g>
</g>
<!-- Node9&#45;&gt;Node3 -->
<g id="edge10_Node000009_Node000003" class="edge">
<title>Node9&#45;&gt;Node3</title>
<g id="a_edge10_Node000009_Node000003"><a xlink:title=" ">
<path fill="none" stroke="#63b8ff" d="M695.9,-104.06C706.38,-106.27 717.65,-108.64 728.5,-110.92"/>
<polygon fill="#63b8ff" stroke="#63b8ff" points="727.8,-114.35 738.31,-112.99 729.24,-107.5 727.8,-114.35"/>
</a>
</g>
</g>
<!-- Node10&#45;&gt;Node3 -->
<g id="edge12_Node000010_Node000003" class="edge">
<title>Node10&#45;&gt;Node3</title>
<g id="a_edge12_Node000010_Node000003"><a xlink:title=" ">
<path fill="none" stroke="#63b8ff" d="M680.83,-67.04C687.88,-69.55 695.28,-72.42 702,-75.5 722.36,-84.83 744.28,-97.64 760.26,-107.54"/>
<polygon fill="#63b8ff" stroke="#63b8ff" points="758.59,-110.62 768.92,-112.98 762.32,-104.69 758.59,-110.62"/>
</a>
</g>
</g>
</g>
</svg>
