<?xml version="1.0" encoding="UTF-8" standalone="no"?>
<!DOCTYPE svg PUBLIC "-//W3C//DTD SVG 1.1//EN"
 "http://www.w3.org/Graphics/SVG/1.1/DTD/svg11.dtd">
<!-- Generated by graphviz version 2.43.0 (0)
 -->
<!-- Title: generate_seeds_plane Pages: 1 -->
<svg width="453pt" height="212pt"
 viewBox="0.00 0.00 453.00 212.00" xmlns="http://www.w3.org/2000/svg" xmlns:xlink="http://www.w3.org/1999/xlink">
<g id="graph0" class="graph" transform="scale(1 1) rotate(0) translate(4 208)">
<title>generate_seeds_plane</title>
<!-- Node1 -->
<g id="Node000001" class="node">
<title>Node1</title>
<g id="a_Node000001"><a xlink:title=" ">
<polygon fill="#999999" stroke="#666666" points="126,-111 0,-111 0,-92 126,-92 126,-111"/>
<text text-anchor="middle" x="63" y="-99" font-family="Helvetica,sans-Serif" font-size="10.00">generate_seeds_plane</text>
</a>
</g>
</g>
<!-- Node2 -->
<g id="Node000002" class="node">
<title>Node2</title>
<g id="a_Node000002"><a xlink:href="GenIC_8c.html#ac4f37dfc0a3340a3fa8137370d0bad62" target="_top" xlink:title=" ">
<polygon fill="white" stroke="#666666" points="299,-204 172,-204 172,-185 299,-185 299,-204"/>
<text text-anchor="middle" x="235.5" y="-192" font-family="Helvetica,sans-Serif" font-size="10.00">copy_seeds_subregion</text>
</a>
</g>
</g>
<!-- Node1&#45;&gt;Node2 -->
<g id="edge1_Node000001_Node000002" class="edge">
<title>Node1&#45;&gt;Node2</title>
<g id="a_edge1_Node000001_Node000002"><a xlink:title=" ">
<path fill="none" stroke="#63b8ff" d="M73.65,-111.12C90.25,-127.12 125.89,-159.14 162,-176.5 166.05,-178.45 170.34,-180.2 174.72,-181.77"/>
<polygon fill="#63b8ff" stroke="#63b8ff" points="173.82,-185.16 184.41,-184.93 175.99,-178.51 173.82,-185.16"/>
</a>
</g>
</g>
<!-- Node3 -->
<g id="Node000003" class="node">
<title>Node3</title>
<g id="a_Node000003"><a xlink:href="GenIC_8c.html#a3001936d84070a65781394452c3c1d14" target="_top" xlink:title=" ">
<polygon fill="white" stroke="#666666" points="309,-167 162,-167 162,-148 309,-148 309,-167"/>
<text text-anchor="middle" x="235.5" y="-155" font-family="Helvetica,sans-Serif" font-size="10.00">generate_seeds_subregion</text>
</a>
</g>
</g>
<!-- Node1&#45;&gt;Node3 -->
<g id="edge2_Node000001_Node000003" class="edge">
<title>Node1&#45;&gt;Node3</title>
<g id="a_edge2_Node000001_Node000003"><a xlink:title=" ">
<path fill="none" stroke="#63b8ff" d="M86.29,-111.07C105.97,-119.3 135.56,-131.13 162,-139.5 168.48,-141.55 175.34,-143.52 182.17,-145.35"/>
<polygon fill="#63b8ff" stroke="#63b8ff" points="181.52,-148.79 192.08,-147.92 183.28,-142.02 181.52,-148.79"/>
</a>
</g>
</g>
<!-- Node6 -->
<g id="Node000006" class="node">
<title>Node6</title>
<g id="a_Node000006"><a xlink:href="GenIC_8c.html#aa7958440b1decb2373adf2e5f86908b3" target="_top" xlink:title=" ">
<polygon fill="white" stroke="#666666" points="297,-130 174,-130 174,-111 297,-111 297,-130"/>
<text text-anchor="middle" x="235.5" y="-118" font-family="Helvetica,sans-Serif" font-size="10.00">get_plane_subregions</text>
</a>
</g>
</g>
<!-- Node1&#45;&gt;Node6 -->
<g id="edge5_Node000001_Node000006" class="edge">
<title>Node1&#45;&gt;Node6</title>
<g id="a_edge5_Node000001_Node000006"><a xlink:title=" ">
<path fill="none" stroke="#63b8ff" d="M126.04,-108.41C138.36,-109.79 151.38,-111.24 163.96,-112.64"/>
<polygon fill="#63b8ff" stroke="#63b8ff" points="163.61,-116.12 173.93,-113.75 164.38,-109.16 163.61,-116.12"/>
</a>
</g>
</g>
<!-- Node7 -->
<g id="Node000007" class="node">
<title>Node7</title>
<g id="a_Node000007"><a xlink:href="GenIC_8c.html#a08854ea2be1000d21b14ffc6d7679ef5" target="_top" xlink:title=" ">
<polygon fill="white" stroke="#666666" points="265.5,-93 205.5,-93 205.5,-74 265.5,-74 265.5,-93"/>
<text text-anchor="middle" x="235.5" y="-81" font-family="Helvetica,sans-Serif" font-size="10.00">quadrant</text>
</a>
</g>
</g>
<!-- Node1&#45;&gt;Node7 -->
<g id="edge6_Node000001_Node000007" class="edge">
<title>Node1&#45;&gt;Node7</title>
<g id="a_edge6_Node000001_Node000007"><a xlink:title=" ">
<path fill="none" stroke="#63b8ff" d="M126.04,-94.95C149.06,-92.52 174.54,-89.83 195.01,-87.67"/>
<polygon fill="#63b8ff" stroke="#63b8ff" points="195.64,-91.12 205.22,-86.59 194.91,-84.16 195.64,-91.12"/>
</a>
</g>
</g>
<!-- Node8 -->
<g id="Node000008" class="node">
<title>Node8</title>
<g id="a_Node000008"><a xlink:href="GenIC_8c.html#a255d2c165e83af520628e77faa4d0b8d" target="_top" xlink:title=" ">
<polygon fill="white" stroke="#666666" points="269,-56 202,-56 202,-37 269,-37 269,-56"/>
<text text-anchor="middle" x="235.5" y="-44" font-family="Helvetica,sans-Serif" font-size="10.00">symmetry</text>
</a>
</g>
</g>
<!-- Node1&#45;&gt;Node8 -->
<g id="edge7_Node000001_Node000008" class="edge">
<title>Node1&#45;&gt;Node8</title>
<g id="a_edge7_Node000001_Node000008"><a xlink:title=" ">
<path fill="none" stroke="#63b8ff" d="M87.94,-91.97C107.65,-84.31 136.41,-73.53 162,-65.5 171.68,-62.46 182.2,-59.51 192.13,-56.87"/>
<polygon fill="#63b8ff" stroke="#63b8ff" points="193.03,-60.26 201.83,-54.35 191.27,-53.48 193.03,-60.26"/>
</a>
</g>
</g>
<!-- Node9 -->
<g id="Node000009" class="node">
<title>Node9</title>
<g id="a_Node000009"><a xlink:href="GenIC_8c.html#a102bf0015048ef1f5aa4dfdb3b98c244" target="_top" xlink:title=" ">
<polygon fill="white" stroke="#666666" points="294.5,-19 176.5,-19 176.5,0 294.5,0 294.5,-19"/>
<text text-anchor="middle" x="235.5" y="-7" font-family="Helvetica,sans-Serif" font-size="10.00">transpose_subregion</text>
</a>
</g>
</g>
<!-- Node1&#45;&gt;Node9 -->
<g id="edge8_Node000001_Node000009" class="edge">
<title>Node1&#45;&gt;Node9</title>
<g id="a_edge8_Node000001_Node000009"><a xlink:title=" ">
<path fill="none" stroke="#63b8ff" d="M74,-91.95C90.82,-76.39 126.44,-45.6 162,-28.5 166.91,-26.14 172.15,-24.04 177.49,-22.18"/>
<polygon fill="#63b8ff" stroke="#63b8ff" points="178.69,-25.48 187.15,-19.1 176.55,-18.81 178.69,-25.48"/>
</a>
</g>
</g>
<!-- Node4 -->
<g id="Node000004" class="node">
<title>Node4</title>
<g id="a_Node000004"><a xlink:href="GenIC_8c.html#a8c56fa39fb49a9db9972c7484b538dab" target="_top" xlink:title=" ">
<polygon fill="white" stroke="#666666" points="445,-185 345,-185 345,-166 445,-166 445,-185"/>
<text text-anchor="middle" x="395" y="-173" font-family="Helvetica,sans-Serif" font-size="10.00">cmp_map_points</text>
</a>
</g>
</g>
<!-- Node3&#45;&gt;Node4 -->
<g id="edge3_Node000003_Node000004" class="edge">
<title>Node3&#45;&gt;Node4</title>
<g id="a_edge3_Node000003_Node000004"><a xlink:title=" ">
<path fill="none" stroke="#63b8ff" d="M309.26,-165.82C317.85,-166.8 326.54,-167.79 334.92,-168.75"/>
<polygon fill="#63b8ff" stroke="#63b8ff" points="334.61,-172.24 344.95,-169.89 335.41,-165.28 334.61,-172.24"/>
</a>
</g>
</g>
<!-- Node5 -->
<g id="Node000005" class="node">
<title>Node5</title>
<g id="a_Node000005"><a xlink:href="GenIC_8c.html#ad0a445cf14ffdf7ca488dadcc381e1df" target="_top" xlink:title=" ">
<polygon fill="white" stroke="#666666" points="424.5,-148 365.5,-148 365.5,-129 424.5,-129 424.5,-148"/>
<text text-anchor="middle" x="395" y="-136" font-family="Helvetica,sans-Serif" font-size="10.00">get_map</text>
</a>
</g>
</g>
<!-- Node3&#45;&gt;Node5 -->
<g id="edge4_Node000003_Node000005" class="edge">
<title>Node3&#45;&gt;Node5</title>
<g id="a_edge4_Node000003_Node000005"><a xlink:title=" ">
<path fill="none" stroke="#63b8ff" d="M309.26,-148.72C325.06,-146.82 341.18,-144.87 355.06,-143.2"/>
<polygon fill="#63b8ff" stroke="#63b8ff" points="355.69,-146.65 365.2,-141.97 354.86,-139.7 355.69,-146.65"/>
</a>
</g>
</g>
</g>
</svg>
