<?xml version="1.0" encoding="UTF-8" standalone="no"?>
<!DOCTYPE svg PUBLIC "-//W3C//DTD SVG 1.1//EN"
 "http://www.w3.org/Graphics/SVG/1.1/DTD/svg11.dtd">
<!-- Generated by graphviz version 2.43.0 (0)
 -->
<!-- Title: generate_seeds_subregion Pages: 1 -->
<svg width="291pt" height="64pt"
 viewBox="0.00 0.00 291.00 64.00" xmlns="http://www.w3.org/2000/svg" xmlns:xlink="http://www.w3.org/1999/xlink">
<g id="graph0" class="graph" transform="scale(1 1) rotate(0) translate(4 60)">
<title>generate_seeds_subregion</title>
<!-- Node1 -->
<g id="Node000001" class="node">
<title>Node1</title>
<g id="a_Node000001"><a xlink:title=" ">
<polygon fill="#999999" stroke="#666666" points="147,-37 0,-37 0,-18 147,-18 147,-37"/>
<text text-anchor="middle" x="73.5" y="-25" font-family="Helvetica,sans-Serif" font-size="10.00">generate_seeds_subregion</text>
</a>
</g>
</g>
<!-- Node2 -->
<g id="Node000002" class="node">
<title>Node2</title>
<g id="a_Node000002"><a xlink:href="GenIC_8c.html#a8c56fa39fb49a9db9972c7484b538dab" target="_top" xlink:title=" ">
<polygon fill="white" stroke="#666666" points="283,-56 183,-56 183,-37 283,-37 283,-56"/>
<text text-anchor="middle" x="233" y="-44" font-family="Helvetica,sans-Serif" font-size="10.00">cmp_map_points</text>
</a>
</g>
</g>
<!-- Node1&#45;&gt;Node2 -->
<g id="edge1_Node000001_Node000002" class="edge">
<title>Node1&#45;&gt;Node2</title>
<g id="a_edge1_Node000001_Node000002"><a xlink:title=" ">
<path fill="none" stroke="#63b8ff" d="M147.26,-36.28C155.85,-37.31 164.54,-38.36 172.92,-39.37"/>
<polygon fill="#63b8ff" stroke="#63b8ff" points="172.6,-42.86 182.95,-40.58 173.44,-35.91 172.6,-42.86"/>
</a>
</g>
</g>
<!-- Node3 -->
<g id="Node000003" class="node">
<title>Node3</title>
<g id="a_Node000003"><a xlink:href="GenIC_8c.html#ad0a445cf14ffdf7ca488dadcc381e1df" target="_top" xlink:title=" ">
<polygon fill="white" stroke="#666666" points="262.5,-19 203.5,-19 203.5,0 262.5,0 262.5,-19"/>
<text text-anchor="middle" x="233" y="-7" font-family="Helvetica,sans-Serif" font-size="10.00">get_map</text>
</a>
</g>
</g>
<!-- Node1&#45;&gt;Node3 -->
<g id="edge2_Node000001_Node000003" class="edge">
<title>Node1&#45;&gt;Node3</title>
<g id="a_edge2_Node000001_Node000003"><a xlink:title=" ">
<path fill="none" stroke="#63b8ff" d="M147.26,-19.18C163.06,-17.38 179.18,-15.54 193.06,-13.95"/>
<polygon fill="#63b8ff" stroke="#63b8ff" points="193.66,-17.4 203.2,-12.79 192.87,-10.45 193.66,-17.4"/>
</a>
</g>
</g>
</g>
</svg>
