<?xml version="1.0" encoding="UTF-8" standalone="no"?>
<!DOCTYPE svg PUBLIC "-//W3C//DTD SVG 1.1//EN"
 "http://www.w3.org/Graphics/SVG/1.1/DTD/svg11.dtd">
<!-- Generated by graphviz version 2.43.0 (0)
 -->
<!-- Title: quadrant Pages: 1 -->
<svg width="678pt" height="46pt"
 viewBox="0.00 0.00 678.00 46.00" xmlns="http://www.w3.org/2000/svg" xmlns:xlink="http://www.w3.org/1999/xlink">
<g id="graph0" class="graph" transform="scale(1 1) rotate(0) translate(4 42)">
<title>quadrant</title>
<!-- Node1 -->
<g id="Node000001" class="node">
<title>Node1</title>
<g id="a_Node000001"><a xlink:title=" ">
<polygon fill="#999999" stroke="#666666" points="670,-19 610,-19 610,0 670,0 670,-19"/>
<text text-anchor="middle" x="640" y="-7" font-family="Helvetica,sans-Serif" font-size="10.00">quadrant</text>
</a>
</g>
</g>
<!-- Node2 -->
<g id="Node000002" class="node">
<title>Node2</title>
<g id="a_Node000002"><a xlink:href="GenIC_8c.html#af83e72f221bb7f96137494a869118451" target="_top" xlink:title=" ">
<polygon fill="white" stroke="#666666" points="574,-38 448,-38 448,-19 574,-19 574,-38"/>
<text text-anchor="middle" x="511" y="-26" font-family="Helvetica,sans-Serif" font-size="10.00">generate_seeds_plane</text>
</a>
</g>
</g>
<!-- Node1&#45;&gt;Node2 -->
<g id="edge1_Node000001_Node000002" class="edge">
<title>Node1&#45;&gt;Node2</title>
<g id="a_edge1_Node000001_Node000002"><a xlink:title=" ">
<path fill="none" stroke="#63b8ff" d="M599.9,-15.35C591.73,-16.57 582.91,-17.89 574.14,-19.2"/>
<polygon fill="#63b8ff" stroke="#63b8ff" points="600.49,-18.8 609.86,-13.86 599.46,-11.88 600.49,-18.8"/>
</a>
</g>
</g>
<!-- Node3 -->
<g id="Node000003" class="node">
<title>Node3</title>
<g id="a_Node000003"><a xlink:href="GenIC_8c.html#ace74d9b7762a8d706af2c979428094e5" target="_top" xlink:title=" ">
<polygon fill="white" stroke="#666666" points="412,-19 336,-19 336,0 412,0 412,-19"/>
<text text-anchor="middle" x="374" y="-7" font-family="Helvetica,sans-Serif" font-size="10.00">GenIC_large</text>
</a>
</g>
</g>
<!-- Node1&#45;&gt;Node3 -->
<g id="edge6_Node000001_Node000003" class="edge">
<title>Node1&#45;&gt;Node3</title>
<g id="a_edge6_Node000001_Node000003"><a xlink:title=" ">
<path fill="none" stroke="#63b8ff" d="M599.77,-9.5C549.14,-9.5 461.66,-9.5 412.09,-9.5"/>
<polygon fill="#63b8ff" stroke="#63b8ff" points="599.99,-13 609.99,-9.5 599.99,-6 599.99,-13"/>
</a>
</g>
</g>
<!-- Node2&#45;&gt;Node3 -->
<g id="edge2_Node000002_Node000003" class="edge">
<title>Node2&#45;&gt;Node3</title>
<g id="a_edge2_Node000002_Node000003"><a xlink:title=" ">
<path fill="none" stroke="#63b8ff" d="M437.65,-18.32C428.81,-17.07 420.08,-15.84 412.08,-14.72"/>
<polygon fill="#63b8ff" stroke="#63b8ff" points="437.25,-21.8 447.64,-19.72 438.22,-14.86 437.25,-21.8"/>
</a>
</g>
</g>
<!-- Node4 -->
<g id="Node000004" class="node">
<title>Node4</title>
<g id="a_Node000004"><a xlink:href="initialization_8c.html#a8a3bde5900dc3319906753b030d91c3a" target="_top" xlink:title=" ">
<polygon fill="white" stroke="#666666" points="300,-19 190,-19 190,0 300,0 300,-19"/>
<text text-anchor="middle" x="245" y="-7" font-family="Helvetica,sans-Serif" font-size="10.00">generate_densities</text>
</a>
</g>
</g>
<!-- Node3&#45;&gt;Node4 -->
<g id="edge3_Node000003_Node000004" class="edge">
<title>Node3&#45;&gt;Node4</title>
<g id="a_edge3_Node000003_Node000004"><a xlink:title=" ">
<path fill="none" stroke="#63b8ff" d="M325.71,-9.5C317.45,-9.5 308.79,-9.5 300.35,-9.5"/>
<polygon fill="#63b8ff" stroke="#63b8ff" points="325.92,-13 335.92,-9.5 325.92,-6 325.92,-13"/>
</a>
</g>
</g>
<!-- Node5 -->
<g id="Node000005" class="node">
<title>Node5</title>
<g id="a_Node000005"><a xlink:href="initialization_8c.html#a2bed034b4a40d49d0765d1ce741bd8a9" target="_top" xlink:title=" ">
<polygon fill="white" stroke="#666666" points="154,-19 77,-19 77,0 154,0 154,-19"/>
<text text-anchor="middle" x="115.5" y="-7" font-family="Helvetica,sans-Serif" font-size="10.00">initialization</text>
</a>
</g>
</g>
<!-- Node4&#45;&gt;Node5 -->
<g id="edge4_Node000004_Node000005" class="edge">
<title>Node4&#45;&gt;Node5</title>
<g id="a_edge4_Node000004_Node000005"><a xlink:title=" ">
<path fill="none" stroke="#63b8ff" d="M179.66,-9.5C170.89,-9.5 162.13,-9.5 154.05,-9.5"/>
<polygon fill="#63b8ff" stroke="#63b8ff" points="179.93,-13 189.93,-9.5 179.93,-6 179.93,-13"/>
</a>
</g>
</g>
<!-- Node6 -->
<g id="Node000006" class="node">
<title>Node6</title>
<g id="a_Node000006"><a xlink:href="pinocchio_8c.html#a647f21a28344e1d9c643f4115516d7c9" target="_top" xlink:title=" ">
<polygon fill="white" stroke="#666666" points="41,-19 0,-19 0,0 41,0 41,-19"/>
<text text-anchor="middle" x="20.5" y="-7" font-family="Helvetica,sans-Serif" font-size="10.00">main</text>
</a>
</g>
</g>
<!-- Node5&#45;&gt;Node6 -->
<g id="edge5_Node000005_Node000006" class="edge">
<title>Node5&#45;&gt;Node6</title>
<g id="a_edge5_Node000005_Node000006"><a xlink:title=" ">
<path fill="none" stroke="#63b8ff" d="M66.73,-9.5C57.65,-9.5 48.63,-9.5 41.06,-9.5"/>
<polygon fill="#63b8ff" stroke="#63b8ff" points="66.94,-13 76.94,-9.5 66.94,-6 66.94,-13"/>
</a>
</g>
</g>
</g>
</svg>
