<?xml version="1.0" encoding="UTF-8" standalone="no"?>
<!DOCTYPE svg PUBLIC "-//W3C//DTD SVG 1.1//EN"
 "http://www.w3.org/Graphics/SVG/1.1/DTD/svg11.dtd">
<!-- Generated by graphviz version 2.43.0 (0)
 -->
<!-- Title: generate_densities Pages: 1 -->
<svg width="776pt" height="360pt"
 viewBox="0.00 0.00 776.00 360.00" xmlns="http://www.w3.org/2000/svg" xmlns:xlink="http://www.w3.org/1999/xlink">
<g id="graph0" class="graph" transform="scale(1 1) rotate(0) translate(4 356)">
<title>generate_densities</title>
<!-- Node1 -->
<g id="Node000001" class="node">
<title>Node1</title>
<g id="a_Node000001"><a xlink:title=" ">
<polygon fill="#999999" stroke="#666666" points="110,-250 0,-250 0,-231 110,-231 110,-250"/>
<text text-anchor="middle" x="55" y="-238" font-family="Helvetica,sans-Serif" font-size="10.00">generate_densities</text>
</a>
</g>
</g>
<!-- Node2 -->
<g id="Node000002" class="node">
<title>Node2</title>
<g id="a_Node000002"><a xlink:href="fmax_8c.html#a76000ea6ddfd81a9d6cf317d53f54378" target="_top" xlink:title=" ">
<polygon fill="white" stroke="#666666" points="205,-269 163,-269 163,-250 205,-250 205,-269"/>
<text text-anchor="middle" x="184" y="-257" font-family="Helvetica,sans-Serif" font-size="10.00">fdate</text>
</a>
</g>
</g>
<!-- Node1&#45;&gt;Node2 -->
<g id="edge1_Node000001_Node000002" class="edge">
<title>Node1&#45;&gt;Node2</title>
<g id="a_edge1_Node000001_Node000002"><a xlink:title=" ">
<path fill="none" stroke="#63b8ff" d="M110.23,-248.61C124.76,-250.79 139.96,-253.06 152.69,-254.97"/>
<polygon fill="#63b8ff" stroke="#63b8ff" points="152.32,-258.45 162.73,-256.47 153.36,-251.53 152.32,-258.45"/>
</a>
</g>
</g>
<!-- Node3 -->
<g id="Node000003" class="node">
<title>Node3</title>
<g id="a_Node000003"><a xlink:href="GenIC_8c.html#ace74d9b7762a8d706af2c979428094e5" target="_top" xlink:title=" ">
<polygon fill="white" stroke="#666666" points="222,-232 146,-232 146,-213 222,-213 222,-232"/>
<text text-anchor="middle" x="184" y="-220" font-family="Helvetica,sans-Serif" font-size="10.00">GenIC_large</text>
</a>
</g>
</g>
<!-- Node1&#45;&gt;Node3 -->
<g id="edge2_Node000001_Node000003" class="edge">
<title>Node1&#45;&gt;Node3</title>
<g id="a_edge2_Node000001_Node000003"><a xlink:title=" ">
<path fill="none" stroke="#63b8ff" d="M110.23,-232.81C118.76,-231.6 127.52,-230.36 135.87,-229.18"/>
<polygon fill="#63b8ff" stroke="#63b8ff" points="136.41,-232.64 145.82,-227.77 135.43,-225.71 136.41,-232.64"/>
</a>
</g>
</g>
<!-- Node4 -->
<g id="Node000004" class="node">
<title>Node4</title>
<g id="a_Node000004"><a xlink:href="fmax-pfft_8c.html#a99a90623ed9b9d69b2c94df0c224faa9" target="_top" xlink:title=" ">
<polygon fill="white" stroke="#666666" points="364,-306 278,-306 278,-287 364,-287 364,-306"/>
<text text-anchor="middle" x="321" y="-294" font-family="Helvetica,sans-Serif" font-size="10.00">dump_cvector</text>
</a>
</g>
</g>
<!-- Node3&#45;&gt;Node4 -->
<g id="edge3_Node000003_Node000004" class="edge">
<title>Node3&#45;&gt;Node4</title>
<g id="a_edge3_Node000003_Node000004"><a xlink:title=" ">
<path fill="none" stroke="#63b8ff" d="M206.45,-232.02C211.73,-234.76 217.24,-237.98 222,-241.5 240.45,-255.14 238.33,-266.69 258,-278.5 261.22,-280.43 264.65,-282.17 268.19,-283.72"/>
<polygon fill="#63b8ff" stroke="#63b8ff" points="267.15,-287.07 277.74,-287.43 269.69,-280.55 267.15,-287.07"/>
</a>
</g>
</g>
<!-- Node5 -->
<g id="Node000005" class="node">
<title>Node5</title>
<g id="a_Node000005"><a xlink:href="GenIC_8c.html#a8e0ddb3b581538c81e998fe22fde7108" target="_top" xlink:title=" ">
<polygon fill="white" stroke="#666666" points="373.5,-269 268.5,-269 268.5,-250 373.5,-250 373.5,-269"/>
<text text-anchor="middle" x="321" y="-257" font-family="Helvetica,sans-Serif" font-size="10.00">dump_seed_plane</text>
</a>
</g>
</g>
<!-- Node3&#45;&gt;Node5 -->
<g id="edge4_Node000003_Node000005" class="edge">
<title>Node3&#45;&gt;Node5</title>
<g id="a_edge4_Node000003_Node000005"><a xlink:title=" ">
<path fill="none" stroke="#63b8ff" d="M219.77,-232.03C236.64,-236.65 257.12,-242.27 275.15,-247.21"/>
<polygon fill="#63b8ff" stroke="#63b8ff" points="274.31,-250.61 284.88,-249.88 276.16,-243.86 274.31,-250.61"/>
</a>
</g>
</g>
<!-- Node6 -->
<g id="Node000006" class="node">
<title>Node6</title>
<g id="a_Node000006"><a xlink:href="GenIC_8c.html#af83e72f221bb7f96137494a869118451" target="_top" xlink:title=" ">
<polygon fill="white" stroke="#666666" points="384,-232 258,-232 258,-213 384,-213 384,-232"/>
<text text-anchor="middle" x="321" y="-220" font-family="Helvetica,sans-Serif" font-size="10.00">generate_seeds_plane</text>
</a>
</g>
</g>
<!-- Node3&#45;&gt;Node6 -->
<g id="edge5_Node000003_Node000006" class="edge">
<title>Node3&#45;&gt;Node6</title>
<g id="a_edge5_Node000003_Node000006"><a xlink:title=" ">
<path fill="none" stroke="#63b8ff" d="M222.25,-222.5C230.3,-222.5 239.08,-222.5 247.96,-222.5"/>
<polygon fill="#63b8ff" stroke="#63b8ff" points="248,-226 258,-222.5 248,-219 248,-226"/>
</a>
</g>
</g>
<!-- Node12 -->
<g id="Node000012" class="node">
<title>Node12</title>
<g id="a_Node000012"><a xlink:href="GenIC_8c.html#a08854ea2be1000d21b14ffc6d7679ef5" target="_top" xlink:title=" ">
<polygon fill="white" stroke="#666666" points="523.5,-167 463.5,-167 463.5,-148 523.5,-148 523.5,-167"/>
<text text-anchor="middle" x="493.5" y="-155" font-family="Helvetica,sans-Serif" font-size="10.00">quadrant</text>
</a>
</g>
</g>
<!-- Node3&#45;&gt;Node12 -->
<g id="edge22_Node000003_Node000012" class="edge">
<title>Node3&#45;&gt;Node12</title>
<g id="a_edge22_Node000003_Node000012"><a xlink:title=" ">
<path fill="none" stroke="#63b8ff" d="M222.06,-213.03C233.56,-210.18 246.28,-207.12 258,-204.5 326.38,-189.23 406.5,-173.67 453.17,-164.84"/>
<polygon fill="#63b8ff" stroke="#63b8ff" points="453.99,-168.24 463.17,-162.95 452.69,-161.36 453.99,-168.24"/>
</a>
</g>
</g>
<!-- Node15 -->
<g id="Node000015" class="node">
<title>Node15</title>
<g id="a_Node000015"><a xlink:href="cosmo_8c.html#adb3827724e24c320717073266dbfac4c" target="_top" xlink:title=" ">
<polygon fill="white" stroke="#666666" points="367.5,-93 274.5,-93 274.5,-74 367.5,-74 367.5,-93"/>
<text text-anchor="middle" x="321" y="-81" font-family="Helvetica,sans-Serif" font-size="10.00">PowerSpectrum</text>
</a>
</g>
</g>
<!-- Node3&#45;&gt;Node15 -->
<g id="edge14_Node000003_Node000015" class="edge">
<title>Node3&#45;&gt;Node15</title>
<g id="a_edge14_Node000003_Node000015"><a xlink:title=" ">
<path fill="none" stroke="#63b8ff" d="M194.28,-212.95C216.82,-189.74 274.72,-130.12 303.4,-100.6"/>
<polygon fill="#63b8ff" stroke="#63b8ff" points="306.2,-102.73 310.66,-93.12 301.18,-97.86 306.2,-102.73"/>
</a>
</g>
</g>
<!-- Node7 -->
<g id="Node000007" class="node">
<title>Node7</title>
<g id="a_Node000007"><a xlink:href="GenIC_8c.html#ac4f37dfc0a3340a3fa8137370d0bad62" target="_top" xlink:title=" ">
<polygon fill="white" stroke="#666666" points="557,-352 430,-352 430,-333 557,-333 557,-352"/>
<text text-anchor="middle" x="493.5" y="-340" font-family="Helvetica,sans-Serif" font-size="10.00">copy_seeds_subregion</text>
</a>
</g>
</g>
<!-- Node6&#45;&gt;Node7 -->
<g id="edge6_Node000006_Node000007" class="edge">
<title>Node6&#45;&gt;Node7</title>
<g id="a_edge6_Node000006_Node000007"><a xlink:title=" ">
<path fill="none" stroke="#63b8ff" d="M369.05,-232.03C374.49,-234.5 379.64,-237.6 384,-241.5 413.98,-268.3 389.31,-298.52 420,-324.5 421.36,-325.65 422.79,-326.73 424.26,-327.75"/>
<polygon fill="#63b8ff" stroke="#63b8ff" points="422.79,-330.94 433.21,-332.84 426.25,-324.85 422.79,-330.94"/>
</a>
</g>
</g>
<!-- Node8 -->
<g id="Node000008" class="node">
<title>Node8</title>
<g id="a_Node000008"><a xlink:href="GenIC_8c.html#a3001936d84070a65781394452c3c1d14" target="_top" xlink:title=" ">
<polygon fill="white" stroke="#666666" points="567,-315 420,-315 420,-296 567,-296 567,-315"/>
<text text-anchor="middle" x="493.5" y="-303" font-family="Helvetica,sans-Serif" font-size="10.00">generate_seeds_subregion</text>
</a>
</g>
</g>
<!-- Node6&#45;&gt;Node8 -->
<g id="edge7_Node000006_Node000008" class="edge">
<title>Node6&#45;&gt;Node8</title>
<g id="a_edge7_Node000006_Node000008"><a xlink:title=" ">
<path fill="none" stroke="#63b8ff" d="M365.27,-232.01C371.86,-234.5 378.34,-237.61 384,-241.5 405.4,-256.2 398.21,-273.38 420,-287.5 422.45,-289.09 425.03,-290.53 427.69,-291.85"/>
<polygon fill="#63b8ff" stroke="#63b8ff" points="426.47,-295.14 437.04,-295.87 429.23,-288.7 426.47,-295.14"/>
</a>
</g>
</g>
<!-- Node11 -->
<g id="Node000011" class="node">
<title>Node11</title>
<g id="a_Node000011"><a xlink:href="GenIC_8c.html#aa7958440b1decb2373adf2e5f86908b3" target="_top" xlink:title=" ">
<polygon fill="white" stroke="#666666" points="555,-278 432,-278 432,-259 555,-259 555,-278"/>
<text text-anchor="middle" x="493.5" y="-266" font-family="Helvetica,sans-Serif" font-size="10.00">get_plane_subregions</text>
</a>
</g>
</g>
<!-- Node6&#45;&gt;Node11 -->
<g id="edge10_Node000006_Node000011" class="edge">
<title>Node6&#45;&gt;Node11</title>
<g id="a_edge10_Node000006_Node000011"><a xlink:title=" ">
<path fill="none" stroke="#63b8ff" d="M354.59,-232.12C373.62,-237.66 398.12,-244.66 420,-250.5 427.49,-252.5 435.43,-254.55 443.21,-256.51"/>
<polygon fill="#63b8ff" stroke="#63b8ff" points="442.38,-259.91 452.93,-258.94 444.08,-253.12 442.38,-259.91"/>
</a>
</g>
</g>
<!-- Node6&#45;&gt;Node12 -->
<g id="edge11_Node000006_Node000012" class="edge">
<title>Node6&#45;&gt;Node12</title>
<g id="a_edge11_Node000006_Node000012"><a xlink:title=" ">
<path fill="none" stroke="#63b8ff" d="M340,-212.83C359.34,-202.73 391.2,-186.94 420,-176.5 430.68,-172.63 442.5,-169.19 453.45,-166.34"/>
<polygon fill="#63b8ff" stroke="#63b8ff" points="454.35,-169.72 463.2,-163.89 452.65,-162.93 454.35,-169.72"/>
</a>
</g>
</g>
<!-- Node13 -->
<g id="Node000013" class="node">
<title>Node13</title>
<g id="a_Node000013"><a xlink:href="GenIC_8c.html#a255d2c165e83af520628e77faa4d0b8d" target="_top" xlink:title=" ">
<polygon fill="white" stroke="#666666" points="527,-241 460,-241 460,-222 527,-222 527,-241"/>
<text text-anchor="middle" x="493.5" y="-229" font-family="Helvetica,sans-Serif" font-size="10.00">symmetry</text>
</a>
</g>
</g>
<!-- Node6&#45;&gt;Node13 -->
<g id="edge12_Node000006_Node000013" class="edge">
<title>Node6&#45;&gt;Node13</title>
<g id="a_edge12_Node000006_Node000013"><a xlink:title=" ">
<path fill="none" stroke="#63b8ff" d="M384.04,-225.77C405.93,-226.93 430.03,-228.2 449.94,-229.25"/>
<polygon fill="#63b8ff" stroke="#63b8ff" points="449.77,-232.75 459.94,-229.78 450.14,-225.76 449.77,-232.75"/>
</a>
</g>
</g>
<!-- Node14 -->
<g id="Node000014" class="node">
<title>Node14</title>
<g id="a_Node000014"><a xlink:href="GenIC_8c.html#a102bf0015048ef1f5aa4dfdb3b98c244" target="_top" xlink:title=" ">
<polygon fill="white" stroke="#666666" points="552.5,-204 434.5,-204 434.5,-185 552.5,-185 552.5,-204"/>
<text text-anchor="middle" x="493.5" y="-192" font-family="Helvetica,sans-Serif" font-size="10.00">transpose_subregion</text>
</a>
</g>
</g>
<!-- Node6&#45;&gt;Node14 -->
<g id="edge13_Node000006_Node000014" class="edge">
<title>Node6&#45;&gt;Node14</title>
<g id="a_edge13_Node000006_Node000014"><a xlink:title=" ">
<path fill="none" stroke="#63b8ff" d="M380.2,-212.94C394.47,-210.6 409.86,-208.07 424.54,-205.66"/>
<polygon fill="#63b8ff" stroke="#63b8ff" points="425.26,-209.09 434.56,-204.01 424.13,-202.18 425.26,-209.09"/>
</a>
</g>
</g>
<!-- Node9 -->
<g id="Node000009" class="node">
<title>Node9</title>
<g id="a_Node000009"><a xlink:href="GenIC_8c.html#a8c56fa39fb49a9db9972c7484b538dab" target="_top" xlink:title=" ">
<polygon fill="white" stroke="#666666" points="703,-333 603,-333 603,-314 703,-314 703,-333"/>
<text text-anchor="middle" x="653" y="-321" font-family="Helvetica,sans-Serif" font-size="10.00">cmp_map_points</text>
</a>
</g>
</g>
<!-- Node8&#45;&gt;Node9 -->
<g id="edge8_Node000008_Node000009" class="edge">
<title>Node8&#45;&gt;Node9</title>
<g id="a_edge8_Node000008_Node000009"><a xlink:title=" ">
<path fill="none" stroke="#63b8ff" d="M567.26,-313.82C575.85,-314.8 584.54,-315.79 592.92,-316.75"/>
<polygon fill="#63b8ff" stroke="#63b8ff" points="592.61,-320.24 602.95,-317.89 593.41,-313.28 592.61,-320.24"/>
</a>
</g>
</g>
<!-- Node10 -->
<g id="Node000010" class="node">
<title>Node10</title>
<g id="a_Node000010"><a xlink:href="GenIC_8c.html#ad0a445cf14ffdf7ca488dadcc381e1df" target="_top" xlink:title=" ">
<polygon fill="white" stroke="#666666" points="682.5,-296 623.5,-296 623.5,-277 682.5,-277 682.5,-296"/>
<text text-anchor="middle" x="653" y="-284" font-family="Helvetica,sans-Serif" font-size="10.00">get_map</text>
</a>
</g>
</g>
<!-- Node8&#45;&gt;Node10 -->
<g id="edge9_Node000008_Node000010" class="edge">
<title>Node8&#45;&gt;Node10</title>
<g id="a_edge9_Node000008_Node000010"><a xlink:title=" ">
<path fill="none" stroke="#63b8ff" d="M567.26,-296.72C583.06,-294.82 599.18,-292.87 613.06,-291.2"/>
<polygon fill="#63b8ff" stroke="#63b8ff" points="613.69,-294.65 623.2,-289.97 612.86,-287.7 613.69,-294.65"/>
</a>
</g>
</g>
<!-- Node16 -->
<g id="Node000016" class="node">
<title>Node16</title>
<g id="a_Node000016"><a xlink:href="cosmo_8c.html#a27427d60987e3e074ad1d7215080dc69" target="_top" xlink:title=" ">
<polygon fill="white" stroke="#666666" points="556,-130 431,-130 431,-111 556,-111 556,-130"/>
<text text-anchor="middle" x="493.5" y="-118" font-family="Helvetica,sans-Serif" font-size="10.00">PowerSpec_Efstathiou</text>
</a>
</g>
</g>
<!-- Node15&#45;&gt;Node16 -->
<g id="edge15_Node000015_Node000016" class="edge">
<title>Node15&#45;&gt;Node16</title>
<g id="a_edge15_Node000015_Node000016"><a xlink:title=" ">
<path fill="none" stroke="#63b8ff" d="M365.91,-93.03C388.1,-97.84 415.21,-103.73 438.65,-108.81"/>
<polygon fill="#63b8ff" stroke="#63b8ff" points="437.93,-112.24 448.44,-110.94 439.41,-105.4 437.93,-112.24"/>
</a>
</g>
</g>
<!-- Node17 -->
<g id="Node000017" class="node">
<title>Node17</title>
<g id="a_Node000017"><a xlink:href="cosmo_8c.html#a4b4d5c5ca327f59df1eba21a73e62113" target="_top" xlink:title=" ">
<polygon fill="white" stroke="#666666" points="538,-93 449,-93 449,-74 538,-74 538,-93"/>
<text text-anchor="middle" x="493.5" y="-81" font-family="Helvetica,sans-Serif" font-size="10.00">PowerSpec_EH</text>
</a>
</g>
</g>
<!-- Node15&#45;&gt;Node17 -->
<g id="edge16_Node000015_Node000017" class="edge">
<title>Node15&#45;&gt;Node17</title>
<g id="a_edge16_Node000015_Node000017"><a xlink:title=" ">
<path fill="none" stroke="#63b8ff" d="M367.69,-83.5C389.5,-83.5 415.76,-83.5 438.54,-83.5"/>
<polygon fill="#63b8ff" stroke="#63b8ff" points="438.74,-87 448.74,-83.5 438.74,-80 438.74,-87"/>
</a>
</g>
</g>
<!-- Node20 -->
<g id="Node000020" class="node">
<title>Node20</title>
<g id="a_Node000020"><a xlink:href="cosmo_8c.html#a6d04017af6090db607768f47976b88b8" target="_top" xlink:title=" ">
<polygon fill="white" stroke="#666666" points="556,-56 431,-56 431,-37 556,-37 556,-56"/>
<text text-anchor="middle" x="493.5" y="-44" font-family="Helvetica,sans-Serif" font-size="10.00">PowerSpec_PowerLaw</text>
</a>
</g>
</g>
<!-- Node15&#45;&gt;Node20 -->
<g id="edge19_Node000015_Node000020" class="edge">
<title>Node15&#45;&gt;Node20</title>
<g id="a_edge19_Node000015_Node000020"><a xlink:title=" ">
<path fill="none" stroke="#63b8ff" d="M365.91,-73.97C388.1,-69.16 415.21,-63.27 438.65,-58.19"/>
<polygon fill="#63b8ff" stroke="#63b8ff" points="439.41,-61.6 448.44,-56.06 437.93,-54.76 439.41,-61.6"/>
</a>
</g>
</g>
<!-- Node21 -->
<g id="Node000021" class="node">
<title>Node21</title>
<g id="a_Node000021"><a xlink:href="cosmo_8c.html#a428d6d001b5eb57f3f17d85699dd67f5" target="_top" xlink:title=" ">
<polygon fill="white" stroke="#666666" points="554.5,-19 432.5,-19 432.5,0 554.5,0 554.5,-19"/>
<text text-anchor="middle" x="493.5" y="-7" font-family="Helvetica,sans-Serif" font-size="10.00">PowerSpec_Tabulated</text>
</a>
</g>
</g>
<!-- Node15&#45;&gt;Node21 -->
<g id="edge20_Node000015_Node000021" class="edge">
<title>Node15&#45;&gt;Node21</title>
<g id="a_edge20_Node000015_Node000021"><a xlink:title=" ">
<path fill="none" stroke="#63b8ff" d="M335.98,-73.85C354.45,-61.5 388.35,-40.19 420,-27.5 425.12,-25.45 430.53,-23.58 436.01,-21.9"/>
<polygon fill="#63b8ff" stroke="#63b8ff" points="437.23,-25.19 445.87,-19.06 435.29,-18.46 437.23,-25.19"/>
</a>
</g>
</g>
<!-- Node18 -->
<g id="Node000018" class="node">
<title>Node18</title>
<g id="a_Node000018"><a xlink:href="cosmo_8c.html#a5c6dbdd7fd7c206feb0554bc93b2436c" target="_top" xlink:title=" ">
<polygon fill="white" stroke="#666666" points="685,-93 621,-93 621,-74 685,-74 685,-93"/>
<text text-anchor="middle" x="653" y="-81" font-family="Helvetica,sans-Serif" font-size="10.00">transf_EH</text>
</a>
</g>
</g>
<!-- Node17&#45;&gt;Node18 -->
<g id="edge17_Node000017_Node000018" class="edge">
<title>Node17&#45;&gt;Node18</title>
<g id="a_edge17_Node000017_Node000018"><a xlink:title=" ">
<path fill="none" stroke="#63b8ff" d="M538.37,-83.5C561,-83.5 588.45,-83.5 610.7,-83.5"/>
<polygon fill="#63b8ff" stroke="#63b8ff" points="610.84,-87 620.84,-83.5 610.84,-80 610.84,-87"/>
</a>
</g>
</g>
<!-- Node19 -->
<g id="Node000019" class="node">
<title>Node19</title>
<g id="a_Node000019"><a xlink:href="cosmo_8c.html#a57dfb02fcd17e35fad40c836ba4d4160" target="_top" xlink:title=" ">
<polygon fill="white" stroke="#666666" points="768,-93 739,-93 739,-74 768,-74 768,-93"/>
<text text-anchor="middle" x="753.5" y="-81" font-family="Helvetica,sans-Serif" font-size="10.00">T0</text>
</a>
</g>
</g>
<!-- Node18&#45;&gt;Node19 -->
<g id="edge18_Node000018_Node000019" class="edge">
<title>Node18&#45;&gt;Node19</title>
<g id="a_edge18_Node000018_Node000019"><a xlink:title=" ">
<path fill="none" stroke="#63b8ff" d="M685.17,-83.5C699.26,-83.5 715.64,-83.5 728.72,-83.5"/>
<polygon fill="#63b8ff" stroke="#63b8ff" points="728.8,-87 738.8,-83.5 728.8,-80 728.8,-87"/>
</a>
</g>
</g>
<!-- Node22 -->
<g id="Node000022" class="node">
<title>Node22</title>
<g id="a_Node000022"><a xlink:href="cosmo_8c.html#a6341f5394ed17a00dc77c5519b292ae3" target="_top" xlink:title=" ">
<polygon fill="white" stroke="#666666" points="699.5,-19 606.5,-19 606.5,0 699.5,0 699.5,-19"/>
<text text-anchor="middle" x="653" y="-7" font-family="Helvetica,sans-Serif" font-size="10.00">my_spline_eval</text>
</a>
</g>
</g>
<!-- Node21&#45;&gt;Node22 -->
<g id="edge21_Node000021_Node000022" class="edge">
<title>Node21&#45;&gt;Node22</title>
<g id="a_edge21_Node000021_Node000022"><a xlink:title=" ">
<path fill="none" stroke="#63b8ff" d="M554.94,-9.5C568.36,-9.5 582.53,-9.5 595.77,-9.5"/>
<polygon fill="#63b8ff" stroke="#63b8ff" points="596.15,-13 606.15,-9.5 596.15,-6 596.15,-13"/>
</a>
</g>
</g>
</g>
</svg>
