<?xml version="1.0" encoding="UTF-8" standalone="no"?>
<!DOCTYPE svg PUBLIC "-//W3C//DTD SVG 1.1//EN"
 "http://www.w3.org/Graphics/SVG/1.1/DTD/svg11.dtd">
<!-- Generated by graphviz version 2.43.0 (0)
 -->
<!-- Title: set_smoothing Pages: 1 -->
<svg width="487pt" height="103pt"
 viewBox="0.00 0.00 487.00 103.00" xmlns="http://www.w3.org/2000/svg" xmlns:xlink="http://www.w3.org/1999/xlink">
<g id="graph0" class="graph" transform="scale(1 1) rotate(0) translate(4 99)">
<title>set_smoothing</title>
<!-- Node1 -->
<g id="Node000001" class="node">
<title>Node1</title>
<g id="a_Node000001"><a xlink:title=" ">
<polygon fill="#999999" stroke="#666666" points="89,-57 0,-57 0,-38 89,-38 89,-57"/>
<text text-anchor="middle" x="44.5" y="-45" font-family="Helvetica,sans-Serif" font-size="10.00">set_smoothing</text>
</a>
</g>
</g>
<!-- Node2 -->
<g id="Node000002" class="node">
<title>Node2</title>
<g id="a_Node000002"><a xlink:href="cosmo_8c.html#a9fbcf5b69c272e801cf320cf814b23c4" target="_top" xlink:title=" ">
<polygon fill="white" stroke="#666666" points="209,-95 125,-95 125,-76 209,-76 209,-95"/>
<text text-anchor="middle" x="167" y="-83" font-family="Helvetica,sans-Serif" font-size="10.00">GrowingMode</text>
</a>
</g>
</g>
<!-- Node1&#45;&gt;Node2 -->
<g id="edge1_Node000001_Node000002" class="edge">
<title>Node1&#45;&gt;Node2</title>
<g id="a_edge1_Node000001_Node000002"><a xlink:title=" ">
<path fill="none" stroke="#63b8ff" d="M75.91,-57.09C91.03,-61.86 109.52,-67.69 125.8,-72.82"/>
<polygon fill="#63b8ff" stroke="#63b8ff" points="125.01,-76.24 135.6,-75.91 127.12,-69.57 125.01,-76.24"/>
</a>
</g>
</g>
<!-- Node5 -->
<g id="Node000005" class="node">
<title>Node5</title>
<g id="a_Node000005"><a xlink:href="cosmo_8c.html#aa47020606869257e46b3a4f9071504d0" target="_top" xlink:title=" ">
<polygon fill="white" stroke="#666666" points="339.5,-57 255.5,-57 255.5,-38 339.5,-38 339.5,-57"/>
<text text-anchor="middle" x="297.5" y="-45" font-family="Helvetica,sans-Serif" font-size="10.00">MassVariance</text>
</a>
</g>
</g>
<!-- Node1&#45;&gt;Node5 -->
<g id="edge4_Node000001_Node000005" class="edge">
<title>Node1&#45;&gt;Node5</title>
<g id="a_edge4_Node000001_Node000005"><a xlink:title=" ">
<path fill="none" stroke="#63b8ff" d="M89.22,-47.5C132.7,-47.5 199.39,-47.5 245.31,-47.5"/>
<polygon fill="#63b8ff" stroke="#63b8ff" points="245.36,-51 255.36,-47.5 245.36,-44 245.36,-51"/>
</a>
</g>
</g>
<!-- Node6 -->
<g id="Node000006" class="node">
<title>Node6</title>
<g id="a_Node000006"><a xlink:href="cosmo_8c.html#a2278a470c37392fe1c5d52bd6c493f37" target="_top" xlink:title=" ">
<polygon fill="white" stroke="#666666" points="192,-19 142,-19 142,0 192,0 192,-19"/>
<text text-anchor="middle" x="167" y="-7" font-family="Helvetica,sans-Serif" font-size="10.00">Radius</text>
</a>
</g>
</g>
<!-- Node1&#45;&gt;Node6 -->
<g id="edge6_Node000001_Node000006" class="edge">
<title>Node1&#45;&gt;Node6</title>
<g id="a_edge6_Node000001_Node000006"><a xlink:title=" ">
<path fill="none" stroke="#63b8ff" d="M75.91,-37.91C92.93,-32.54 114.19,-25.84 131.79,-20.29"/>
<polygon fill="#63b8ff" stroke="#63b8ff" points="133.19,-23.52 141.67,-17.17 131.08,-16.84 133.19,-23.52"/>
</a>
</g>
</g>
<!-- Node3 -->
<g id="Node000003" class="node">
<title>Node3</title>
<g id="a_Node000003"><a xlink:href="cosmo_8c.html#a8847e5b8ea1f9c458c8bf9e5f36837a9" target="_top" xlink:title=" ">
<polygon fill="white" stroke="#666666" points="350,-94 245,-94 245,-75 350,-75 350,-94"/>
<text text-anchor="middle" x="297.5" y="-82" font-family="Helvetica,sans-Serif" font-size="10.00">InterpolateGrowth</text>
</a>
</g>
</g>
<!-- Node2&#45;&gt;Node3 -->
<g id="edge2_Node000002_Node000003" class="edge">
<title>Node2&#45;&gt;Node3</title>
<g id="a_edge2_Node000002_Node000003"><a xlink:title=" ">
<path fill="none" stroke="#63b8ff" d="M209.01,-85.18C217.14,-85.12 225.85,-85.05 234.49,-84.98"/>
<polygon fill="#63b8ff" stroke="#63b8ff" points="234.61,-88.48 244.59,-84.9 234.56,-81.48 234.61,-88.48"/>
</a>
</g>
</g>
<!-- Node4 -->
<g id="Node000004" class="node">
<title>Node4</title>
<g id="a_Node000004"><a xlink:href="cosmo_8c.html#a6341f5394ed17a00dc77c5519b292ae3" target="_top" xlink:title=" ">
<polygon fill="white" stroke="#666666" points="479,-57 386,-57 386,-38 479,-38 479,-57"/>
<text text-anchor="middle" x="432.5" y="-45" font-family="Helvetica,sans-Serif" font-size="10.00">my_spline_eval</text>
</a>
</g>
</g>
<!-- Node3&#45;&gt;Node4 -->
<g id="edge3_Node000003_Node000004" class="edge">
<title>Node3&#45;&gt;Node4</title>
<g id="a_edge3_Node000003_Node000004"><a xlink:title=" ">
<path fill="none" stroke="#63b8ff" d="M332.75,-74.97C349.22,-70.39 369.18,-64.84 386.82,-59.93"/>
<polygon fill="#63b8ff" stroke="#63b8ff" points="388.21,-63.18 396.9,-57.12 386.33,-56.43 388.21,-63.18"/>
</a>
</g>
</g>
<!-- Node5&#45;&gt;Node4 -->
<g id="edge5_Node000005_Node000004" class="edge">
<title>Node5&#45;&gt;Node4</title>
<g id="a_edge5_Node000005_Node000004"><a xlink:title=" ">
<path fill="none" stroke="#63b8ff" d="M339.85,-47.5C351.06,-47.5 363.38,-47.5 375.26,-47.5"/>
<polygon fill="#63b8ff" stroke="#63b8ff" points="375.54,-51 385.54,-47.5 375.54,-44 375.54,-51"/>
</a>
</g>
</g>
<!-- Node6&#45;&gt;Node4 -->
<g id="edge7_Node000006_Node000004" class="edge">
<title>Node6&#45;&gt;Node4</title>
<g id="a_edge7_Node000006_Node000004"><a xlink:title=" ">
<path fill="none" stroke="#63b8ff" d="M192.27,-11.06C227.28,-13.54 293.92,-19.07 350,-28.5 361.41,-30.42 373.62,-32.98 385.01,-35.61"/>
<polygon fill="#63b8ff" stroke="#63b8ff" points="384.24,-39.02 394.78,-37.91 385.85,-32.21 384.24,-39.02"/>
</a>
</g>
</g>
</g>
</svg>
