<?xml version="1.0" encoding="UTF-8" standalone="no"?>
<!DOCTYPE svg PUBLIC "-//W3C//DTD SVG 1.1//EN"
 "http://www.w3.org/Graphics/SVG/1.1/DTD/svg11.dtd">
<!-- Generated by graphviz version 2.43.0 (0)
 -->
<!-- Title: initialize_fft Pages: 1 -->
<svg width="313pt" height="27pt"
 viewBox="0.00 0.00 313.00 27.00" xmlns="http://www.w3.org/2000/svg" xmlns:xlink="http://www.w3.org/1999/xlink">
<g id="graph0" class="graph" transform="scale(1 1) rotate(0) translate(4 23)">
<title>initialize_fft</title>
<!-- Node1 -->
<g id="Node000001" class="node">
<title>Node1</title>
<g id="a_Node000001"><a xlink:title=" ">
<polygon fill="#999999" stroke="#666666" points="74,-19 0,-19 0,0 74,0 74,-19"/>
<text text-anchor="middle" x="37" y="-7" font-family="Helvetica,sans-Serif" font-size="10.00">initialize_fft</text>
</a>
</g>
</g>
<!-- Node2 -->
<g id="Node000002" class="node">
<title>Node2</title>
<g id="a_Node000002"><a xlink:href="initialization_8c.html#a1410d2bc51dd0dc8898327d4c556617d" target="_top" xlink:title=" ">
<polygon fill="white" stroke="#666666" points="235,-19 110,-19 110,0 235,0 235,-19"/>
<text text-anchor="middle" x="172.5" y="-7" font-family="Helvetica,sans-Serif" font-size="10.00">set_fft_decomposition</text>
</a>
</g>
</g>
<!-- Node1&#45;&gt;Node2 -->
<g id="edge1_Node000001_Node000002" class="edge">
<title>Node1&#45;&gt;Node2</title>
<g id="a_edge1_Node000001_Node000002"><a xlink:title=" ">
<path fill="none" stroke="#63b8ff" d="M74.13,-9.5C82.15,-9.5 90.93,-9.5 99.82,-9.5"/>
<polygon fill="#63b8ff" stroke="#63b8ff" points="99.88,-13 109.88,-9.5 99.88,-6 99.88,-13"/>
</a>
</g>
</g>
<!-- Node3 -->
<g id="Node000003" class="node">
<title>Node3</title>
<g id="a_Node000003"><a xlink:href="initialization_8c.html#a81c6198c94f1a3c337e7f76a921a11bc" target="_top" xlink:title=" ">
<polygon fill="white" stroke="#666666" points="305,-19 271,-19 271,0 305,0 305,-19"/>
<text text-anchor="middle" x="288" y="-7" font-family="Helvetica,sans-Serif" font-size="10.00">gcd</text>
</a>
</g>
</g>
<!-- Node2&#45;&gt;Node3 -->
<g id="edge2_Node000002_Node000003" class="edge">
<title>Node2&#45;&gt;Node3</title>
<g id="a_edge2_Node000002_Node000003"><a xlink:title=" ">
<path fill="none" stroke="#63b8ff" d="M235.23,-9.5C244.14,-9.5 252.88,-9.5 260.57,-9.5"/>
<polygon fill="#63b8ff" stroke="#63b8ff" points="260.65,-13 270.65,-9.5 260.65,-6 260.65,-13"/>
</a>
</g>
</g>
</g>
</svg>
