<?xml version="1.0" encoding="UTF-8" standalone="no"?>
<!DOCTYPE svg PUBLIC "-//W3C//DTD SVG 1.1//EN"
 "http://www.w3.org/Graphics/SVG/1.1/DTD/svg11.dtd">
<!-- Generated by graphviz version 2.43.0 (0)
 -->
<!-- Title: set_plc Pages: 1 -->
<svg width="509pt" height="177pt"
 viewBox="0.00 0.00 509.00 177.00" xmlns="http://www.w3.org/2000/svg" xmlns:xlink="http://www.w3.org/1999/xlink">
<g id="graph0" class="graph" transform="scale(1 1) rotate(0) translate(4 173)">
<title>set_plc</title>
<!-- Node1 -->
<g id="Node000001" class="node">
<title>Node1</title>
<g id="a_Node000001"><a xlink:title=" ">
<polygon fill="#999999" stroke="#666666" points="51,-94 0,-94 0,-75 51,-75 51,-94"/>
<text text-anchor="middle" x="25.5" y="-82" font-family="Helvetica,sans-Serif" font-size="10.00">set_plc</text>
</a>
</g>
</g>
<!-- Node2 -->
<g id="Node000002" class="node">
<title>Node2</title>
<g id="a_Node000002"><a xlink:href="cosmo_8c.html#aa3beda8770f3f4e1b00e486bb647edc5" target="_top" xlink:title=" ">
<polygon fill="white" stroke="#666666" points="372,-169 263,-169 263,-150 372,-150 372,-169"/>
<text text-anchor="middle" x="317.5" y="-157" font-family="Helvetica,sans-Serif" font-size="10.00">ComovingDistance</text>
</a>
</g>
</g>
<!-- Node1&#45;&gt;Node2 -->
<g id="edge1_Node000001_Node000002" class="edge">
<title>Node1&#45;&gt;Node2</title>
<g id="a_edge1_Node000001_Node000002"><a xlink:title=" ">
<path fill="none" stroke="#63b8ff" d="M33.39,-94.25C43.44,-107.6 63.51,-131.1 87,-141.5 139.26,-164.65 204.75,-167.55 252.38,-165.6"/>
<polygon fill="#63b8ff" stroke="#63b8ff" points="252.75,-169.09 262.56,-165.1 252.4,-162.1 252.75,-169.09"/>
</a>
</g>
</g>
<!-- Node4 -->
<g id="Node000004" class="node">
<title>Node4</title>
<g id="a_Node000004"><a xlink:href="initialization_8c.html#af1c32214624e5f69d7eeeff5559c9923" target="_top" xlink:title=" ">
<polygon fill="white" stroke="#666666" points="227,-132 87,-132 87,-113 227,-113 227,-132"/>
<text text-anchor="middle" x="157" y="-120" font-family="Helvetica,sans-Serif" font-size="10.00">cone_and_cube_intersect</text>
</a>
</g>
</g>
<!-- Node1&#45;&gt;Node4 -->
<g id="edge3_Node000001_Node000004" class="edge">
<title>Node1&#45;&gt;Node4</title>
<g id="a_edge3_Node000001_Node000004"><a xlink:title=" ">
<path fill="none" stroke="#63b8ff" d="M51.16,-91.74C68.82,-96.92 93.04,-104.02 113.75,-110.1"/>
<polygon fill="#63b8ff" stroke="#63b8ff" points="113.01,-113.53 123.59,-112.99 114.98,-106.82 113.01,-113.53"/>
</a>
</g>
</g>
<!-- Node6 -->
<g id="Node000006" class="node">
<title>Node6</title>
<g id="a_Node000006"><a xlink:href="cosmo_8c.html#a8916d062f06c72dfaa104649eafc28e2" target="_top" xlink:title=" ">
<polygon fill="white" stroke="#666666" points="359,-94 276,-94 276,-75 359,-75 359,-94"/>
<text text-anchor="middle" x="317.5" y="-82" font-family="Helvetica,sans-Serif" font-size="10.00">DisplVariance</text>
</a>
</g>
</g>
<!-- Node1&#45;&gt;Node6 -->
<g id="edge5_Node000001_Node000006" class="edge">
<title>Node1&#45;&gt;Node6</title>
<g id="a_edge5_Node000001_Node000006"><a xlink:title=" ">
<path fill="none" stroke="#63b8ff" d="M51.23,-84.5C98.58,-84.5 202.95,-84.5 265.74,-84.5"/>
<polygon fill="#63b8ff" stroke="#63b8ff" points="265.82,-88 275.82,-84.5 265.82,-81 265.82,-88"/>
</a>
</g>
</g>
<!-- Node7 -->
<g id="Node000007" class="node">
<title>Node7</title>
<g id="a_Node000007"><a xlink:href="cosmo_8c.html#a9fbcf5b69c272e801cf320cf814b23c4" target="_top" xlink:title=" ">
<polygon fill="white" stroke="#666666" points="199,-56 115,-56 115,-37 199,-37 199,-56"/>
<text text-anchor="middle" x="157" y="-44" font-family="Helvetica,sans-Serif" font-size="10.00">GrowingMode</text>
</a>
</g>
</g>
<!-- Node1&#45;&gt;Node7 -->
<g id="edge7_Node000001_Node000007" class="edge">
<title>Node1&#45;&gt;Node7</title>
<g id="a_edge7_Node000001_Node000007"><a xlink:title=" ">
<path fill="none" stroke="#63b8ff" d="M51.16,-77.26C68.82,-72.08 93.04,-64.98 113.75,-58.9"/>
<polygon fill="#63b8ff" stroke="#63b8ff" points="114.98,-62.18 123.59,-56.01 113.01,-55.47 114.98,-62.18"/>
</a>
</g>
</g>
<!-- Node9 -->
<g id="Node000009" class="node">
<title>Node9</title>
<g id="a_Node000009"><a xlink:href="distribute_8c.html#af5d6c46b78cd787fc8880e4001855038" target="_top" xlink:title=" ">
<polygon fill="white" stroke="#666666" points="194,-19 120,-19 120,0 194,0 194,-19"/>
<text text-anchor="middle" x="157" y="-7" font-family="Helvetica,sans-Serif" font-size="10.00">intersection</text>
</a>
</g>
</g>
<!-- Node1&#45;&gt;Node9 -->
<g id="edge10_Node000001_Node000009" class="edge">
<title>Node1&#45;&gt;Node9</title>
<g id="a_edge10_Node000001_Node000009"><a xlink:title=" ">
<path fill="none" stroke="#63b8ff" d="M34.02,-74.88C44.51,-62.13 64.78,-39.8 87,-27.5 94.16,-23.54 102.23,-20.42 110.25,-17.98"/>
<polygon fill="#63b8ff" stroke="#63b8ff" points="111.23,-21.34 119.95,-15.32 109.39,-14.59 111.23,-21.34"/>
</a>
</g>
</g>
<!-- Node3 -->
<g id="Node000003" class="node">
<title>Node3</title>
<g id="a_Node000003"><a xlink:href="cosmo_8c.html#a6341f5394ed17a00dc77c5519b292ae3" target="_top" xlink:title=" ">
<polygon fill="white" stroke="#666666" points="501,-94 408,-94 408,-75 501,-75 501,-94"/>
<text text-anchor="middle" x="454.5" y="-82" font-family="Helvetica,sans-Serif" font-size="10.00">my_spline_eval</text>
</a>
</g>
</g>
<!-- Node2&#45;&gt;Node3 -->
<g id="edge2_Node000002_Node000003" class="edge">
<title>Node2&#45;&gt;Node3</title>
<g id="a_edge2_Node000002_Node000003"><a xlink:title=" ">
<path fill="none" stroke="#63b8ff" d="M351.64,-150C358.52,-147.57 365.61,-144.72 372,-141.5 394.63,-130.08 418.11,-113.01 434.02,-100.53"/>
<polygon fill="#63b8ff" stroke="#63b8ff" points="436.4,-103.11 442.03,-94.13 432.03,-97.64 436.4,-103.11"/>
</a>
</g>
</g>
<!-- Node5 -->
<g id="Node000005" class="node">
<title>Node5</title>
<g id="a_Node000005"><a xlink:href="initialization_8c.html#a7a139629bd59be4574de6227d9352861" target="_top" xlink:title=" ">
<polygon fill="white" stroke="#666666" points="339.5,-132 295.5,-132 295.5,-113 339.5,-113 339.5,-132"/>
<text text-anchor="middle" x="317.5" y="-120" font-family="Helvetica,sans-Serif" font-size="10.00">maxF</text>
</a>
</g>
</g>
<!-- Node4&#45;&gt;Node5 -->
<g id="edge4_Node000004_Node000005" class="edge">
<title>Node4&#45;&gt;Node5</title>
<g id="a_edge4_Node000004_Node000005"><a xlink:title=" ">
<path fill="none" stroke="#63b8ff" d="M227.06,-122.5C247.32,-122.5 268.47,-122.5 285.12,-122.5"/>
<polygon fill="#63b8ff" stroke="#63b8ff" points="285.36,-126 295.36,-122.5 285.36,-119 285.36,-126"/>
</a>
</g>
</g>
<!-- Node6&#45;&gt;Node3 -->
<g id="edge6_Node000006_Node000003" class="edge">
<title>Node6&#45;&gt;Node3</title>
<g id="a_edge6_Node000006_Node000003"><a xlink:title=" ">
<path fill="none" stroke="#63b8ff" d="M359,-84.5C371.14,-84.5 384.67,-84.5 397.61,-84.5"/>
<polygon fill="#63b8ff" stroke="#63b8ff" points="397.82,-88 407.82,-84.5 397.82,-81 397.82,-88"/>
</a>
</g>
</g>
<!-- Node8 -->
<g id="Node000008" class="node">
<title>Node8</title>
<g id="a_Node000008"><a xlink:href="cosmo_8c.html#a8847e5b8ea1f9c458c8bf9e5f36837a9" target="_top" xlink:title=" ">
<polygon fill="white" stroke="#666666" points="370,-57 265,-57 265,-38 370,-38 370,-57"/>
<text text-anchor="middle" x="317.5" y="-45" font-family="Helvetica,sans-Serif" font-size="10.00">InterpolateGrowth</text>
</a>
</g>
</g>
<!-- Node7&#45;&gt;Node8 -->
<g id="edge8_Node000007_Node000008" class="edge">
<title>Node7&#45;&gt;Node8</title>
<g id="a_edge8_Node000007_Node000008"><a xlink:title=" ">
<path fill="none" stroke="#63b8ff" d="M199.23,-46.76C216.18,-46.87 236.17,-46.99 254.8,-47.11"/>
<polygon fill="#63b8ff" stroke="#63b8ff" points="254.96,-50.61 264.98,-47.17 255,-43.61 254.96,-50.61"/>
</a>
</g>
</g>
<!-- Node8&#45;&gt;Node3 -->
<g id="edge9_Node000008_Node000003" class="edge">
<title>Node8&#45;&gt;Node3</title>
<g id="a_edge9_Node000008_Node000003"><a xlink:title=" ">
<path fill="none" stroke="#63b8ff" d="M353.27,-57.03C370.14,-61.65 390.62,-67.27 408.65,-72.21"/>
<polygon fill="#63b8ff" stroke="#63b8ff" points="407.81,-75.61 418.38,-74.88 409.66,-68.86 407.81,-75.61"/>
</a>
</g>
</g>
</g>
</svg>
