<?xml version="1.0" encoding="UTF-8" standalone="no"?>
<!DOCTYPE svg PUBLIC "-//W3C//DTD SVG 1.1//EN"
 "http://www.w3.org/Graphics/SVG/1.1/DTD/svg11.dtd">
<!-- Generated by graphviz version 2.43.0 (0)
 -->
<!-- Title: HMF_validation.run_simulation Pages: 1 -->
<svg width="277pt" height="51pt"
 viewBox="0.00 0.00 277.00 50.50" xmlns="http://www.w3.org/2000/svg" xmlns:xlink="http://www.w3.org/1999/xlink">
<g id="graph0" class="graph" transform="scale(1 1) rotate(0) translate(4 46.5)">
<title>HMF_validation.run_simulation</title>
<!-- Node1 -->
<g id="Node000001" class="node">
<title>Node1</title>
<g id="a_Node000001"><a xlink:title=" ">
<polygon fill="#999999" stroke="#666666" points="269,-30 157,-30 157,0 269,0 269,-30"/>
<text text-anchor="start" x="165" y="-18" font-family="Helvetica,sans-Serif" font-size="10.00">HMF_validation.run</text>
<text text-anchor="middle" x="213" y="-7" font-family="Helvetica,sans-Serif" font-size="10.00">_simulation</text>
</a>
</g>
</g>
<!-- Node2 -->
<g id="Node000002" class="node">
<title>Node2</title>
<g id="a_Node000002"><a xlink:href="namespaceHMF__validation.html#ae15e904e9b34e84b99e8dd80d972fe42" target="_top" xlink:title=" ">
<polygon fill="white" stroke="#666666" points="121,-24.5 0,-24.5 0,-5.5 121,-5.5 121,-24.5"/>
<text text-anchor="middle" x="60.5" y="-12.5" font-family="Helvetica,sans-Serif" font-size="10.00">HMF_validation.main</text>
</a>
</g>
</g>
<!-- Node1&#45;&gt;Node2 -->
<g id="edge1_Node000001_Node000002" class="edge">
<title>Node1&#45;&gt;Node2</title>
<g id="a_edge1_Node000001_Node000002"><a xlink:title=" ">
<path fill="none" stroke="#63b8ff" d="M146.63,-15C138.19,-15 129.58,-15 121.24,-15"/>
<polygon fill="#63b8ff" stroke="#63b8ff" points="146.81,-18.5 156.81,-15 146.81,-11.5 146.81,-18.5"/>
</a>
</g>
</g>
<!-- Node2&#45;&gt;Node2 -->
<g id="edge2_Node000002_Node000002" class="edge">
<title>Node2&#45;&gt;Node2</title>
<g id="a_edge2_Node000002_Node000002"><a xlink:title=" ">
<path fill="none" stroke="#63b8ff" d="M88.87,-33.32C87.69,-38.51 78.23,-42.5 60.5,-42.5 33.48,-42.5 25.68,-33.23 37.07,-24.58"/>
<polygon fill="#63b8ff" stroke="#63b8ff" points="91.9,-31.56 83.93,-24.58 85.81,-35.01 91.9,-31.56"/>
</a>
</g>
</g>
</g>
</svg>
