<?xml version="1.0" encoding="UTF-8" standalone="no"?>
<!DOCTYPE svg PUBLIC "-//W3C//DTD SVG 1.1//EN"
 "http://www.w3.org/Graphics/SVG/1.1/DTD/svg11.dtd">
<!-- Generated by graphviz version 2.43.0 (0)
 -->
<!-- Title: HMF_validation.parse_parameters Pages: 1 -->
<svg width="464pt" height="76pt"
 viewBox="0.00 0.00 464.00 75.50" xmlns="http://www.w3.org/2000/svg" xmlns:xlink="http://www.w3.org/1999/xlink">
<g id="graph0" class="graph" transform="scale(1 1) rotate(0) translate(4 71.5)">
<title>HMF_validation.parse_parameters</title>
<!-- Node1 -->
<g id="Node000001" class="node">
<title>Node1</title>
<g id="a_Node000001"><a xlink:title=" ">
<polygon fill="#999999" stroke="#666666" points="456,-51 333,-51 333,-21 456,-21 456,-51"/>
<text text-anchor="start" x="341" y="-39" font-family="Helvetica,sans-Serif" font-size="10.00">HMF_validation.parse</text>
<text text-anchor="middle" x="394.5" y="-28" font-family="Helvetica,sans-Serif" font-size="10.00">_parameters</text>
</a>
</g>
</g>
<!-- Node2 -->
<g id="Node000002" class="node">
<title>Node2</title>
<g id="a_Node000002"><a xlink:href="namespaceHMF__validation.html#ab796729651c2d4f0007633714f8171f6" target="_top" xlink:title=" ">
<polygon fill="white" stroke="#666666" points="297,-67.5 157,-67.5 157,-48.5 297,-48.5 297,-67.5"/>
<text text-anchor="middle" x="227" y="-55.5" font-family="Helvetica,sans-Serif" font-size="10.00">HMF_validation.plot_hmf</text>
</a>
</g>
</g>
<!-- Node1&#45;&gt;Node2 -->
<g id="edge1_Node000001_Node000002" class="edge">
<title>Node1&#45;&gt;Node2</title>
<g id="a_edge1_Node000001_Node000002"><a xlink:title=" ">
<path fill="none" stroke="#63b8ff" d="M322.88,-45.39C314.33,-46.52 305.6,-47.68 297.07,-48.82"/>
<polygon fill="#63b8ff" stroke="#63b8ff" points="323.36,-48.85 332.81,-44.07 322.44,-41.92 323.36,-48.85"/>
</a>
</g>
</g>
<!-- Node4 -->
<g id="Node000004" class="node">
<title>Node4</title>
<g id="a_Node000004"><a xlink:href="namespaceHMF__validation.html#a85a2f26380306e74b047195296dd443f" target="_top" xlink:title=" ">
<polygon fill="white" stroke="#666666" points="283,-30 171,-30 171,0 283,0 283,-30"/>
<text text-anchor="start" x="179" y="-18" font-family="Helvetica,sans-Serif" font-size="10.00">HMF_validation.run</text>
<text text-anchor="middle" x="227" y="-7" font-family="Helvetica,sans-Serif" font-size="10.00">_simulation</text>
</a>
</g>
</g>
<!-- Node1&#45;&gt;Node4 -->
<g id="edge4_Node000001_Node000004" class="edge">
<title>Node1&#45;&gt;Node4</title>
<g id="a_edge4_Node000001_Node000004"><a xlink:title=" ">
<path fill="none" stroke="#63b8ff" d="M322.79,-27.03C309.55,-25.35 295.88,-23.61 283.2,-22"/>
<polygon fill="#63b8ff" stroke="#63b8ff" points="322.45,-30.51 332.81,-28.3 323.33,-23.57 322.45,-30.51"/>
</a>
</g>
</g>
<!-- Node3 -->
<g id="Node000003" class="node">
<title>Node3</title>
<g id="a_Node000003"><a xlink:href="namespaceHMF__validation.html#ae15e904e9b34e84b99e8dd80d972fe42" target="_top" xlink:title=" ">
<polygon fill="white" stroke="#666666" points="121,-45.5 0,-45.5 0,-26.5 121,-26.5 121,-45.5"/>
<text text-anchor="middle" x="60.5" y="-33.5" font-family="Helvetica,sans-Serif" font-size="10.00">HMF_validation.main</text>
</a>
</g>
</g>
<!-- Node2&#45;&gt;Node3 -->
<g id="edge2_Node000002_Node000003" class="edge">
<title>Node2&#45;&gt;Node3</title>
<g id="a_edge2_Node000002_Node000003"><a xlink:title=" ">
<path fill="none" stroke="#63b8ff" d="M146.65,-47.39C138.04,-46.24 129.38,-45.08 121.07,-43.97"/>
<polygon fill="#63b8ff" stroke="#63b8ff" points="146.34,-50.88 156.71,-48.73 147.27,-43.94 146.34,-50.88"/>
</a>
</g>
</g>
<!-- Node3&#45;&gt;Node3 -->
<g id="edge3_Node000003_Node000003" class="edge">
<title>Node3&#45;&gt;Node3</title>
<g id="a_edge3_Node000003_Node000003"><a xlink:title=" ">
<path fill="none" stroke="#63b8ff" d="M91.49,-54.32C90.19,-59.51 79.86,-63.5 60.5,-63.5 31,-63.5 22.47,-54.23 34.91,-45.58"/>
<polygon fill="#63b8ff" stroke="#63b8ff" points="94.32,-52.25 86.09,-45.58 88.37,-55.93 94.32,-52.25"/>
</a>
</g>
</g>
<!-- Node4&#45;&gt;Node3 -->
<g id="edge5_Node000004_Node000003" class="edge">
<title>Node4&#45;&gt;Node3</title>
<g id="a_edge5_Node000004_Node000003"><a xlink:title=" ">
<path fill="none" stroke="#63b8ff" d="M160.49,-23.36C147.48,-25.02 133.9,-26.76 121.1,-28.39"/>
<polygon fill="#63b8ff" stroke="#63b8ff" points="161.29,-26.79 170.77,-22.05 160.4,-19.85 161.29,-26.79"/>
</a>
</g>
</g>
</g>
</svg>
