<?xml version="1.0" encoding="UTF-8" standalone="no"?>
<!DOCTYPE svg PUBLIC "-//W3C//DTD SVG 1.1//EN"
 "http://www.w3.org/Graphics/SVG/1.1/DTD/svg11.dtd">
<!-- Generated by graphviz version 2.43.0 (0)
 -->
<!-- Title: PkCamb.background_scale_factor_grid Pages: 1 -->
<svg width="277pt" height="51pt"
 viewBox="0.00 0.00 277.00 50.50" xmlns="http://www.w3.org/2000/svg" xmlns:xlink="http://www.w3.org/1999/xlink">
<g id="graph0" class="graph" transform="scale(1 1) rotate(0) translate(4 46.5)">
<title>PkCamb.background_scale_factor_grid</title>
<!-- Node1 -->
<g id="Node000001" class="node">
<title>Node1</title>
<g id="a_Node000001"><a xlink:title=" ">
<polygon fill="#999999" stroke="#666666" points="269,-30 121,-30 121,0 269,0 269,-30"/>
<text text-anchor="start" x="129" y="-18" font-family="Helvetica,sans-Serif" font-size="10.00">PkCamb.background_scale</text>
<text text-anchor="middle" x="195" y="-7" font-family="Helvetica,sans-Serif" font-size="10.00">_factor_grid</text>
</a>
</g>
</g>
<!-- Node2 -->
<g id="Node000002" class="node">
<title>Node2</title>
<g id="a_Node000002"><a xlink:href="namespacePkCamb.html#a57c72a39feea316ac739ad721993930a" target="_top" xlink:title=" ">
<polygon fill="white" stroke="#666666" points="85,-24.5 0,-24.5 0,-5.5 85,-5.5 85,-24.5"/>
<text text-anchor="middle" x="42.5" y="-12.5" font-family="Helvetica,sans-Serif" font-size="10.00">PkCamb.main</text>
</a>
</g>
</g>
<!-- Node1&#45;&gt;Node2 -->
<g id="edge1_Node000001_Node000002" class="edge">
<title>Node1&#45;&gt;Node2</title>
<g id="a_edge1_Node000001_Node000002"><a xlink:title=" ">
<path fill="none" stroke="#63b8ff" d="M110.89,-15C102,-15 93.27,-15 85.18,-15"/>
<polygon fill="#63b8ff" stroke="#63b8ff" points="110.95,-18.5 120.95,-15 110.95,-11.5 110.95,-18.5"/>
</a>
</g>
</g>
<!-- Node2&#45;&gt;Node2 -->
<g id="edge2_Node000002_Node000002" class="edge">
<title>Node2&#45;&gt;Node2</title>
<g id="a_edge2_Node000002_Node000002"><a xlink:title=" ">
<path fill="none" stroke="#63b8ff" d="M70.87,-33.32C69.69,-38.51 60.23,-42.5 42.5,-42.5 15.48,-42.5 7.68,-33.23 19.07,-24.58"/>
<polygon fill="#63b8ff" stroke="#63b8ff" points="73.9,-31.56 65.93,-24.58 67.81,-35.01 73.9,-31.56"/>
</a>
</g>
</g>
</g>
</svg>
