<?xml version="1.0" encoding="UTF-8" standalone="no"?>
<!DOCTYPE svg PUBLIC "-//W3C//DTD SVG 1.1//EN"
 "http://www.w3.org/Graphics/SVG/1.1/DTD/svg11.dtd">
<!-- Generated by graphviz version 2.43.0 (0)
 -->
<!-- Title: PkCamb.main Pages: 1 -->
<svg width="277pt" height="76pt"
 viewBox="0.00 0.00 277.00 75.50" xmlns="http://www.w3.org/2000/svg" xmlns:xlink="http://www.w3.org/1999/xlink">
<g id="graph0" class="graph" transform="scale(1 1) rotate(0) translate(4 71.5)">
<title>PkCamb.main</title>
<!-- Node1 -->
<g id="Node000001" class="node">
<title>Node1</title>
<g id="a_Node000001"><a xlink:title=" ">
<polygon fill="#999999" stroke="#666666" points="85,-40 0,-40 0,-21 85,-21 85,-40"/>
<text text-anchor="middle" x="42.5" y="-28" font-family="Helvetica,sans-Serif" font-size="10.00">PkCamb.main</text>
</a>
</g>
</g>
<!-- Node1&#45;&gt;Node1 -->
<g id="edge2_Node000001_Node000001" class="edge">
<title>Node1&#45;&gt;Node1</title>
<g id="a_edge2_Node000001_Node000001"><a xlink:title=" ">
<path fill="none" stroke="#63b8ff" d="M19.07,-40.08C7.68,-48.73 15.48,-58 42.5,-58 60.23,-58 69.69,-54.01 70.87,-48.82"/>
<polygon fill="#63b8ff" stroke="#63b8ff" points="73.9,-47.06 65.93,-40.08 67.81,-50.51 73.9,-47.06"/>
</a>
</g>
</g>
<!-- Node2 -->
<g id="Node000002" class="node">
<title>Node2</title>
<g id="a_Node000002"><a xlink:href="namespacePkCamb.html#aab781e9771cf92522859170e499c322f" target="_top" xlink:title=" ">
<polygon fill="white" stroke="#666666" points="269,-67.5 121,-67.5 121,-37.5 269,-37.5 269,-67.5"/>
<text text-anchor="start" x="129" y="-55.5" font-family="Helvetica,sans-Serif" font-size="10.00">PkCamb.background_scale</text>
<text text-anchor="middle" x="195" y="-44.5" font-family="Helvetica,sans-Serif" font-size="10.00">_factor_grid</text>
</a>
</g>
</g>
<!-- Node1&#45;&gt;Node2 -->
<g id="edge1_Node000001_Node000002" class="edge">
<title>Node1&#45;&gt;Node2</title>
<g id="a_edge1_Node000001_Node000002"><a xlink:title=" ">
<path fill="none" stroke="#63b8ff" d="M85.02,-36.57C93.11,-37.75 101.86,-39.03 110.76,-40.33"/>
<polygon fill="#63b8ff" stroke="#63b8ff" points="110.44,-43.82 120.84,-41.81 111.46,-36.9 110.44,-43.82"/>
</a>
</g>
</g>
<!-- Node3 -->
<g id="Node000003" class="node">
<title>Node3</title>
<g id="a_Node000003"><a xlink:href="namespacePkCamb.html#a620c84b48e64c2517c826ab873baaae5" target="_top" xlink:title=" ">
<polygon fill="white" stroke="#666666" points="262,-19 128,-19 128,0 262,0 262,-19"/>
<text text-anchor="middle" x="195" y="-7" font-family="Helvetica,sans-Serif" font-size="10.00">PkCamb.parse_redshifts</text>
</a>
</g>
</g>
<!-- Node1&#45;&gt;Node3 -->
<g id="edge3_Node000001_Node000003" class="edge">
<title>Node1&#45;&gt;Node3</title>
<g id="a_edge3_Node000001_Node000003"><a xlink:title=" ">
<path fill="none" stroke="#63b8ff" d="M85.02,-24.71C95.25,-23.28 106.53,-21.71 117.83,-20.13"/>
<polygon fill="#63b8ff" stroke="#63b8ff" points="118.33,-23.59 127.75,-18.74 117.36,-16.66 118.33,-23.59"/>
</a>
</g>
</g>
</g>
</svg>
