<?xml version="1.0" encoding="UTF-8" standalone="no"?>
<!DOCTYPE svg PUBLIC "-//W3C//DTD SVG 1.1//EN"
 "http://www.w3.org/Graphics/SVG/1.1/DTD/svg11.dtd">
<!-- Generated by graphviz version 2.43.0 (0)
 -->
<!-- Title: HMF_validation.main Pages: 1 -->
<svg width="495pt" height="164pt"
 viewBox="0.00 0.00 495.00 163.50" xmlns="http://www.w3.org/2000/svg" xmlns:xlink="http://www.w3.org/1999/xlink">
<g id="graph0" class="graph" transform="scale(1 1) rotate(0) translate(4 159.5)">
<title>HMF_validation.main</title>
<!-- Node1 -->
<g id="Node000001" class="node">
<title>Node1</title>
<g id="a_Node000001"><a xlink:title=" ">
<polygon fill="#999999" stroke="#666666" points="121,-118.5 0,-118.5 0,-99.5 121,-99.5 121,-118.5"/>
<text text-anchor="middle" x="60.5" y="-106.5" font-family="Helvetica,sans-Serif" font-size="10.00">HMF_validation.main</text>
</a>
</g>
</g>
<!-- Node1&#45;&gt;Node1 -->
<g id="edge2_Node000001_Node000001" class="edge">
<title>Node1&#45;&gt;Node1</title>
<g id="a_edge2_Node000001_Node000001"><a xlink:title=" ">
<path fill="none" stroke="#63b8ff" d="M33.07,-118.58C19.72,-127.23 28.86,-136.5 60.5,-136.5 81.76,-136.5 92.86,-132.32 93.81,-126.95"/>
<polygon fill="#63b8ff" stroke="#63b8ff" points="96.55,-124.76 87.93,-118.58 90.82,-128.78 96.55,-124.76"/>
</a>
</g>
</g>
<!-- Node2 -->
<g id="Node000002" class="node">
<title>Node2</title>
<g id="a_Node000002"><a xlink:href="namespaceHMF__validation.html#ac11f41f8c66527b58091e626aff09388" target="_top" xlink:title=" ">
<polygon fill="white" stroke="#666666" points="321,-155.5 157,-155.5 157,-136.5 321,-136.5 321,-155.5"/>
<text text-anchor="middle" x="239" y="-143.5" font-family="Helvetica,sans-Serif" font-size="10.00">HMF_validation.compile_code</text>
</a>
</g>
</g>
<!-- Node1&#45;&gt;Node2 -->
<g id="edge1_Node000001_Node000002" class="edge">
<title>Node1&#45;&gt;Node2</title>
<g id="a_edge1_Node000001_Node000002"><a xlink:title=" ">
<path fill="none" stroke="#63b8ff" d="M106.95,-118.53C130.02,-123.36 158.24,-129.28 182.58,-134.38"/>
<polygon fill="#63b8ff" stroke="#63b8ff" points="181.89,-137.81 192.39,-136.44 183.33,-130.96 181.89,-137.81"/>
</a>
</g>
</g>
<!-- Node3 -->
<g id="Node000003" class="node">
<title>Node3</title>
<g id="a_Node000003"><a xlink:href="namespaceHMF__validation.html#ab796729651c2d4f0007633714f8171f6" target="_top" xlink:title=" ">
<polygon fill="white" stroke="#666666" points="309,-118.5 169,-118.5 169,-99.5 309,-99.5 309,-118.5"/>
<text text-anchor="middle" x="239" y="-106.5" font-family="Helvetica,sans-Serif" font-size="10.00">HMF_validation.plot_hmf</text>
</a>
</g>
</g>
<!-- Node1&#45;&gt;Node3 -->
<g id="edge3_Node000001_Node000003" class="edge">
<title>Node1&#45;&gt;Node3</title>
<g id="a_edge3_Node000001_Node000003"><a xlink:title=" ">
<path fill="none" stroke="#63b8ff" d="M121.25,-109C133.33,-109 146.2,-109 158.82,-109"/>
<polygon fill="#63b8ff" stroke="#63b8ff" points="158.87,-112.5 168.87,-109 158.87,-105.5 158.87,-112.5"/>
</a>
</g>
</g>
<!-- Node5 -->
<g id="Node000005" class="node">
<title>Node5</title>
<g id="a_Node000005"><a xlink:href="namespaceHMF__validation.html#a85a2f26380306e74b047195296dd443f" target="_top" xlink:title=" ">
<polygon fill="white" stroke="#666666" points="295,-80 183,-80 183,-50 295,-50 295,-80"/>
<text text-anchor="start" x="191" y="-68" font-family="Helvetica,sans-Serif" font-size="10.00">HMF_validation.run</text>
<text text-anchor="middle" x="239" y="-57" font-family="Helvetica,sans-Serif" font-size="10.00">_simulation</text>
</a>
</g>
</g>
<!-- Node1&#45;&gt;Node5 -->
<g id="edge5_Node000001_Node000005" class="edge">
<title>Node1&#45;&gt;Node5</title>
<g id="a_edge5_Node000001_Node000005"><a xlink:title=" ">
<path fill="none" stroke="#63b8ff" d="M99.8,-99.45C121.1,-94.14 148.18,-87.39 172.72,-81.27"/>
<polygon fill="#63b8ff" stroke="#63b8ff" points="173.84,-84.6 182.69,-78.79 172.14,-77.81 173.84,-84.6"/>
</a>
</g>
</g>
<!-- Node4 -->
<g id="Node000004" class="node">
<title>Node4</title>
<g id="a_Node000004"><a xlink:href="namespaceHMF__validation.html#a52ddbfd7019ac9ba60441fe77d665981" target="_top" xlink:title=" ">
<polygon fill="white" stroke="#666666" points="483.5,-126 360.5,-126 360.5,-96 483.5,-96 483.5,-126"/>
<text text-anchor="start" x="368.5" y="-114" font-family="Helvetica,sans-Serif" font-size="10.00">HMF_validation.parse</text>
<text text-anchor="middle" x="422" y="-103" font-family="Helvetica,sans-Serif" font-size="10.00">_parameters</text>
</a>
</g>
</g>
<!-- Node3&#45;&gt;Node4 -->
<g id="edge4_Node000003_Node000004" class="edge">
<title>Node3&#45;&gt;Node4</title>
<g id="a_edge4_Node000003_Node000004"><a xlink:title=" ">
<path fill="none" stroke="#63b8ff" d="M309.2,-109.76C322.64,-109.91 336.75,-110.07 350.24,-110.22"/>
<polygon fill="#63b8ff" stroke="#63b8ff" points="350.37,-113.72 360.41,-110.33 350.45,-106.72 350.37,-113.72"/>
</a>
</g>
</g>
<!-- Node5&#45;&gt;Node4 -->
<g id="edge7_Node000005_Node000004" class="edge">
<title>Node5&#45;&gt;Node4</title>
<g id="a_edge7_Node000005_Node000004"><a xlink:title=" ">
<path fill="none" stroke="#63b8ff" d="M295.29,-79.05C313.26,-83.62 333.43,-88.74 352.26,-93.53"/>
<polygon fill="#63b8ff" stroke="#63b8ff" points="351.41,-96.93 361.96,-96 353.13,-90.14 351.41,-96.93"/>
</a>
</g>
</g>
<!-- Node6 -->
<g id="Node000006" class="node">
<title>Node6</title>
<g id="a_Node000006"><a xlink:href="namespaceHMF__validation.html#ababa5a1e2ace0afe19ddb0d54fdc8c9f" target="_top" xlink:title=" ">
<polygon fill="white" stroke="#666666" points="481.5,-78 362.5,-78 362.5,-48 481.5,-48 481.5,-78"/>
<text text-anchor="start" x="370.5" y="-66" font-family="Helvetica,sans-Serif" font-size="10.00">HMF_validation.copy</text>
<text text-anchor="middle" x="422" y="-55" font-family="Helvetica,sans-Serif" font-size="10.00">_files</text>
</a>
</g>
</g>
<!-- Node5&#45;&gt;Node6 -->
<g id="edge6_Node000005_Node000006" class="edge">
<title>Node5&#45;&gt;Node6</title>
<g id="a_edge6_Node000005_Node000006"><a xlink:title=" ">
<path fill="none" stroke="#63b8ff" d="M295.29,-64.39C313.27,-64.19 333.44,-63.97 352.28,-63.76"/>
<polygon fill="#63b8ff" stroke="#63b8ff" points="352.32,-67.26 362.28,-63.65 352.24,-60.26 352.32,-67.26"/>
</a>
</g>
</g>
<!-- Node7 -->
<g id="Node000007" class="node">
<title>Node7</title>
<g id="a_Node000007"><a xlink:href="namespaceHMF__validation.html#a9181ca292ecbb8ba0d0c00555d03caa6" target="_top" xlink:title=" ">
<polygon fill="white" stroke="#666666" points="487,-30 357,-30 357,0 487,0 487,-30"/>
<text text-anchor="start" x="365" y="-18" font-family="Helvetica,sans-Serif" font-size="10.00">HMF_validation.update</text>
<text text-anchor="middle" x="422" y="-7" font-family="Helvetica,sans-Serif" font-size="10.00">_param_file</text>
</a>
</g>
</g>
<!-- Node5&#45;&gt;Node7 -->
<g id="edge8_Node000005_Node000007" class="edge">
<title>Node5&#45;&gt;Node7</title>
<g id="a_edge8_Node000005_Node000007"><a xlink:title=" ">
<path fill="none" stroke="#63b8ff" d="M294.31,-50C313.9,-44.58 336.21,-38.42 356.59,-32.79"/>
<polygon fill="#63b8ff" stroke="#63b8ff" points="357.71,-36.11 366.42,-30.08 355.85,-29.37 357.71,-36.11"/>
</a>
</g>
</g>
</g>
</svg>
