<?xml version="1.0" encoding="UTF-8" standalone="no"?>
<!DOCTYPE svg PUBLIC "-//W3C//DTD SVG 1.1//EN"
 "http://www.w3.org/Graphics/SVG/1.1/DTD/svg11.dtd">
<!-- Generated by graphviz version 2.43.0 (0)
 -->
<!-- Title: context.main Pages: 1 -->
<svg width="379pt" height="187pt"
 viewBox="0.00 0.00 379.00 186.50" xmlns="http://www.w3.org/2000/svg" xmlns:xlink="http://www.w3.org/1999/xlink">
<g id="graph0" class="graph" transform="scale(1 1) rotate(0) translate(4 182.5)">
<title>context.main</title>
<!-- Node1 -->
<g id="Node000001" class="node">
<title>Node1</title>
<g id="a_Node000001"><a xlink:title=" ">
<polygon fill="#999999" stroke="#666666" points="81,-104.5 0,-104.5 0,-85.5 81,-85.5 81,-104.5"/>
<text text-anchor="middle" x="40.5" y="-92.5" font-family="Helvetica,sans-Serif" font-size="10.00">context.main</text>
</a>
</g>
</g>
<!-- Node1&#45;&gt;Node1 -->
<g id="edge4_Node000001_Node000001" class="edge">
<title>Node1&#45;&gt;Node1</title>
<g id="a_edge4_Node000001_Node000001"><a xlink:title=" ">
<path fill="none" stroke="#63b8ff" d="M20.15,-104.58C10.26,-113.23 17.04,-122.5 40.5,-122.5 55.53,-122.5 63.71,-118.7 65.05,-113.69"/>
<polygon fill="#63b8ff" stroke="#63b8ff" points="68.22,-112.19 60.85,-104.58 61.86,-115.13 68.22,-112.19"/>
</a>
</g>
</g>
<!-- Node2 -->
<g id="Node000002" class="node">
<title>Node2</title>
<g id="a_Node000002"><a xlink:href="namespacecontext.html#a83a7888a7ea0b315fcab10cd268d021a" target="_top" xlink:title=" ">
<polygon fill="white" stroke="#666666" points="227.5,-178.5 119.5,-178.5 119.5,-159.5 227.5,-159.5 227.5,-178.5"/>
<text text-anchor="middle" x="173.5" y="-166.5" font-family="Helvetica,sans-Serif" font-size="10.00">context.git_ls_files</text>
</a>
</g>
</g>
<!-- Node1&#45;&gt;Node2 -->
<g id="edge1_Node000001_Node000002" class="edge">
<title>Node1&#45;&gt;Node2</title>
<g id="a_edge1_Node000001_Node000002"><a xlink:title=" ">
<path fill="none" stroke="#63b8ff" d="M52.01,-104.55C65.95,-116.8 91.76,-137.99 117,-151 120.35,-152.73 123.9,-154.33 127.51,-155.81"/>
<polygon fill="#63b8ff" stroke="#63b8ff" points="126.57,-159.2 137.16,-159.45 129.04,-152.65 126.57,-159.2"/>
</a>
</g>
</g>
<!-- Node3 -->
<g id="Node000003" class="node">
<title>Node3</title>
<g id="a_Node000003"><a xlink:href="namespacecontext.html#af2dc473ee9cf0fdbb6802fab542ea3cf" target="_top" xlink:title=" ">
<polygon fill="white" stroke="#666666" points="224,-141.5 123,-141.5 123,-122.5 224,-122.5 224,-141.5"/>
<text text-anchor="middle" x="173.5" y="-129.5" font-family="Helvetica,sans-Serif" font-size="10.00">context.is_binary</text>
</a>
</g>
</g>
<!-- Node1&#45;&gt;Node3 -->
<g id="edge2_Node000001_Node000003" class="edge">
<title>Node1&#45;&gt;Node3</title>
<g id="a_edge2_Node000001_Node000003"><a xlink:title=" ">
<path fill="none" stroke="#63b8ff" d="M75.24,-104.53C91.46,-109.11 111.11,-114.66 128.49,-119.57"/>
<polygon fill="#63b8ff" stroke="#63b8ff" points="127.85,-123.03 138.42,-122.38 129.75,-116.29 127.85,-123.03"/>
</a>
</g>
</g>
<!-- Node4 -->
<g id="Node000004" class="node">
<title>Node4</title>
<g id="a_Node000004"><a xlink:href="namespacecontext.html#a651869a56af886efa6283d70ac3d0755" target="_top" xlink:title=" ">
<polygon fill="white" stroke="#666666" points="230,-104.5 117,-104.5 117,-85.5 230,-85.5 230,-104.5"/>
<text text-anchor="middle" x="173.5" y="-92.5" font-family="Helvetica,sans-Serif" font-size="10.00">context.looks_texty</text>
</a>
</g>
</g>
<!-- Node1&#45;&gt;Node4 -->
<g id="edge3_Node000001_Node000004" class="edge">
<title>Node1&#45;&gt;Node4</title>
<g id="a_edge3_Node000001_Node000004"><a xlink:title=" ">
<path fill="none" stroke="#63b8ff" d="M81.16,-95C89.17,-95 97.8,-95 106.43,-95"/>
<polygon fill="#63b8ff" stroke="#63b8ff" points="106.54,-98.5 116.54,-95 106.54,-91.5 106.54,-98.5"/>
</a>
</g>
</g>
<!-- Node5 -->
<g id="Node000005" class="node">
<title>Node5</title>
<g id="a_Node000005"><a xlink:href="namespacecontext.html#a4b94fab29815391a992125f4f5ceb2d8" target="_top" xlink:title=" ">
<polygon fill="white" stroke="#666666" points="227,-67.5 120,-67.5 120,-48.5 227,-48.5 227,-67.5"/>
<text text-anchor="middle" x="173.5" y="-55.5" font-family="Helvetica,sans-Serif" font-size="10.00">context.read_head</text>
</a>
</g>
</g>
<!-- Node1&#45;&gt;Node5 -->
<g id="edge5_Node000001_Node000005" class="edge">
<title>Node1&#45;&gt;Node5</title>
<g id="a_edge5_Node000001_Node000005"><a xlink:title=" ">
<path fill="none" stroke="#63b8ff" d="M75.24,-85.47C91.46,-80.89 111.11,-75.34 128.49,-70.43"/>
<polygon fill="#63b8ff" stroke="#63b8ff" points="129.75,-73.71 138.42,-67.62 127.85,-66.97 129.75,-73.71"/>
</a>
</g>
</g>
<!-- Node7 -->
<g id="Node000007" class="node">
<title>Node7</title>
<g id="a_Node000007"><a xlink:href="namespacecontext.html#af0a1e23c74cdd1c922283ff2f5e6164a" target="_top" xlink:title=" ">
<polygon fill="white" stroke="#666666" points="229,-30 118,-30 118,0 229,0 229,-30"/>
<text text-anchor="start" x="126" y="-18" font-family="Helvetica,sans-Serif" font-size="10.00">context.within_size</text>
<text text-anchor="middle" x="173.5" y="-7" font-family="Helvetica,sans-Serif" font-size="10.00">_limits</text>
</a>
</g>
</g>
<!-- Node1&#45;&gt;Node7 -->
<g id="edge7_Node000001_Node000007" class="edge">
<title>Node1&#45;&gt;Node7</title>
<g id="a_edge7_Node000001_Node000007"><a xlink:title=" ">
<path fill="none" stroke="#63b8ff" d="M53.01,-85.44C67.39,-73.79 93.02,-53.93 117,-40 120.2,-38.14 123.57,-36.32 127,-34.56"/>
<polygon fill="#63b8ff" stroke="#63b8ff" points="128.69,-37.63 136.13,-30.08 125.61,-31.34 128.69,-37.63"/>
</a>
</g>
</g>
<!-- Node6 -->
<g id="Node000006" class="node">
<title>Node6</title>
<g id="a_Node000006"><a xlink:href="namespacecontext.html#a07a4a164922f57d4e3dc1bea8388757a" target="_top" xlink:title=" ">
<polygon fill="white" stroke="#666666" points="371,-67.5 266,-67.5 266,-48.5 371,-48.5 371,-67.5"/>
<text text-anchor="middle" x="318.5" y="-55.5" font-family="Helvetica,sans-Serif" font-size="10.00">context.normalize</text>
</a>
</g>
</g>
<!-- Node5&#45;&gt;Node6 -->
<g id="edge6_Node000005_Node000006" class="edge">
<title>Node5&#45;&gt;Node6</title>
<g id="a_edge6_Node000005_Node000006"><a xlink:title=" ">
<path fill="none" stroke="#63b8ff" d="M227.34,-58C236.57,-58 246.25,-58 255.7,-58"/>
<polygon fill="#63b8ff" stroke="#63b8ff" points="255.83,-61.5 265.83,-58 255.83,-54.5 255.83,-61.5"/>
</a>
</g>
</g>
</g>
</svg>
