<?xml version="1.0" encoding="UTF-8" standalone="no"?>
<!DOCTYPE svg PUBLIC "-//W3C//DTD SVG 1.1//EN"
 "http://www.w3.org/Graphics/SVG/1.1/DTD/svg11.dtd">
<!-- Generated by graphviz version 2.43.0 (0)
 -->
<!-- Title: context.within_size_limits Pages: 1 -->
<svg width="236pt" height="51pt"
 viewBox="0.00 0.00 236.00 50.50" xmlns="http://www.w3.org/2000/svg" xmlns:xlink="http://www.w3.org/1999/xlink">
<g id="graph0" class="graph" transform="scale(1 1) rotate(0) translate(4 46.5)">
<title>context.within_size_limits</title>
<!-- Node1 -->
<g id="Node000001" class="node">
<title>Node1</title>
<g id="a_Node000001"><a xlink:title=" ">
<polygon fill="#999999" stroke="#666666" points="228,-30 117,-30 117,0 228,0 228,-30"/>
<text text-anchor="start" x="125" y="-18" font-family="Helvetica,sans-Serif" font-size="10.00">context.within_size</text>
<text text-anchor="middle" x="172.5" y="-7" font-family="Helvetica,sans-Serif" font-size="10.00">_limits</text>
</a>
</g>
</g>
<!-- Node2 -->
<g id="Node000002" class="node">
<title>Node2</title>
<g id="a_Node000002"><a xlink:href="namespacecontext.html#a4fe17a9fc52a4b81c645f62b03cb0373" target="_top" xlink:title=" ">
<polygon fill="white" stroke="#666666" points="81,-24.5 0,-24.5 0,-5.5 81,-5.5 81,-24.5"/>
<text text-anchor="middle" x="40.5" y="-12.5" font-family="Helvetica,sans-Serif" font-size="10.00">context.main</text>
</a>
</g>
</g>
<!-- Node1&#45;&gt;Node2 -->
<g id="edge1_Node000001_Node000002" class="edge">
<title>Node1&#45;&gt;Node2</title>
<g id="a_edge1_Node000001_Node000002"><a xlink:title=" ">
<path fill="none" stroke="#63b8ff" d="M106.6,-15C97.92,-15 89.25,-15 81.19,-15"/>
<polygon fill="#63b8ff" stroke="#63b8ff" points="106.75,-18.5 116.75,-15 106.75,-11.5 106.75,-18.5"/>
</a>
</g>
</g>
<!-- Node2&#45;&gt;Node2 -->
<g id="edge2_Node000002_Node000002" class="edge">
<title>Node2&#45;&gt;Node2</title>
<g id="a_edge2_Node000002_Node000002"><a xlink:title=" ">
<path fill="none" stroke="#63b8ff" d="M65.05,-33.69C63.71,-38.7 55.53,-42.5 40.5,-42.5 17.04,-42.5 10.26,-33.23 20.15,-24.58"/>
<polygon fill="#63b8ff" stroke="#63b8ff" points="68.22,-32.19 60.85,-24.58 61.86,-35.13 68.22,-32.19"/>
</a>
</g>
</g>
</g>
</svg>
