<?xml version="1.0" encoding="UTF-8" standalone="no"?>
<!DOCTYPE svg PUBLIC "-//W3C//DTD SVG 1.1//EN"
 "http://www.w3.org/Graphics/SVG/1.1/DTD/svg11.dtd">
<!-- Generated by graphviz version 2.43.0 (0)
 -->
<!-- Title: HMF_validation.plot_hmf Pages: 1 -->
<svg width="305pt" height="45pt"
 viewBox="0.00 0.00 305.00 45.00" xmlns="http://www.w3.org/2000/svg" xmlns:xlink="http://www.w3.org/1999/xlink">
<g id="graph0" class="graph" transform="scale(1 1) rotate(0) translate(4 41)">
<title>HMF_validation.plot_hmf</title>
<!-- Node1 -->
<g id="Node000001" class="node">
<title>Node1</title>
<g id="a_Node000001"><a xlink:title=" ">
<polygon fill="#999999" stroke="#666666" points="297,-19 157,-19 157,0 297,0 297,-19"/>
<text text-anchor="middle" x="227" y="-7" font-family="Helvetica,sans-Serif" font-size="10.00">HMF_validation.plot_hmf</text>
</a>
</g>
</g>
<!-- Node2 -->
<g id="Node000002" class="node">
<title>Node2</title>
<g id="a_Node000002"><a xlink:href="namespaceHMF__validation.html#ae15e904e9b34e84b99e8dd80d972fe42" target="_top" xlink:title=" ">
<polygon fill="white" stroke="#666666" points="121,-19 0,-19 0,0 121,0 121,-19"/>
<text text-anchor="middle" x="60.5" y="-7" font-family="Helvetica,sans-Serif" font-size="10.00">HMF_validation.main</text>
</a>
</g>
</g>
<!-- Node1&#45;&gt;Node2 -->
<g id="edge1_Node000001_Node000002" class="edge">
<title>Node1&#45;&gt;Node2</title>
<g id="a_edge1_Node000001_Node000002"><a xlink:title=" ">
<path fill="none" stroke="#63b8ff" d="M146.65,-9.5C138.04,-9.5 129.38,-9.5 121.07,-9.5"/>
<polygon fill="#63b8ff" stroke="#63b8ff" points="146.71,-13 156.71,-9.5 146.71,-6 146.71,-13"/>
</a>
</g>
</g>
<!-- Node2&#45;&gt;Node2 -->
<g id="edge2_Node000002_Node000002" class="edge">
<title>Node2&#45;&gt;Node2</title>
<g id="a_edge2_Node000002_Node000002"><a xlink:title=" ">
<path fill="none" stroke="#63b8ff" d="M91.49,-27.82C90.19,-33.01 79.86,-37 60.5,-37 31,-37 22.47,-27.73 34.91,-19.08"/>
<polygon fill="#63b8ff" stroke="#63b8ff" points="94.32,-25.75 86.09,-19.08 88.37,-29.43 94.32,-25.75"/>
</a>
</g>
</g>
</g>
</svg>
