<?xml version="1.0" encoding="UTF-8" standalone="no"?>
<!DOCTYPE svg PUBLIC "-//W3C//DTD SVG 1.1//EN"
 "http://www.w3.org/Graphics/SVG/1.1/DTD/svg11.dtd">
<!-- Generated by graphviz version 2.43.0 (0)
 -->
<!-- Title: ClCamb.build_cls_shell Pages: 1 -->
<svg width="256pt" height="45pt"
 viewBox="0.00 0.00 256.00 45.00" xmlns="http://www.w3.org/2000/svg" xmlns:xlink="http://www.w3.org/1999/xlink">
<g id="graph0" class="graph" transform="scale(1 1) rotate(0) translate(4 41)">
<title>ClCamb.build_cls_shell</title>
<!-- Node1 -->
<g id="Node000001" class="node">
<title>Node1</title>
<g id="a_Node000001"><a xlink:title=" ">
<polygon fill="#999999" stroke="#666666" points="248,-19 119,-19 119,0 248,0 248,-19"/>
<text text-anchor="middle" x="183.5" y="-7" font-family="Helvetica,sans-Serif" font-size="10.00">ClCamb.build_cls_shell</text>
</a>
</g>
</g>
<!-- Node2 -->
<g id="Node000002" class="node">
<title>Node2</title>
<g id="a_Node000002"><a xlink:href="namespaceClCamb.html#af03e397b7086a27d6034e314683e6450" target="_top" xlink:title=" ">
<polygon fill="white" stroke="#666666" points="83,-19 0,-19 0,0 83,0 83,-19"/>
<text text-anchor="middle" x="41.5" y="-7" font-family="Helvetica,sans-Serif" font-size="10.00">ClCamb.main</text>
</a>
</g>
</g>
<!-- Node1&#45;&gt;Node2 -->
<g id="edge1_Node000001_Node000002" class="edge">
<title>Node1&#45;&gt;Node2</title>
<g id="a_edge1_Node000001_Node000002"><a xlink:title=" ">
<path fill="none" stroke="#63b8ff" d="M108.4,-9.5C99.67,-9.5 91.03,-9.5 83.02,-9.5"/>
<polygon fill="#63b8ff" stroke="#63b8ff" points="108.65,-13 118.65,-9.5 108.65,-6 108.65,-13"/>
</a>
</g>
</g>
<!-- Node2&#45;&gt;Node2 -->
<g id="edge2_Node000002_Node000002" class="edge">
<title>Node2&#45;&gt;Node2</title>
<g id="a_edge2_Node000002_Node000002"><a xlink:title=" ">
<path fill="none" stroke="#63b8ff" d="M67.91,-28.19C66.47,-33.2 57.67,-37 41.5,-37 16.26,-37 8.97,-27.73 19.61,-19.08"/>
<polygon fill="#63b8ff" stroke="#63b8ff" points="70.97,-26.48 63.39,-19.08 64.7,-29.6 70.97,-26.48"/>
</a>
</g>
</g>
</g>
</svg>
