<?xml version="1.0" encoding="UTF-8" standalone="no"?>
<!DOCTYPE svg PUBLIC "-//W3C//DTD SVG 1.1//EN"
 "http://www.w3.org/Graphics/SVG/1.1/DTD/svg11.dtd">
<!-- Generated by graphviz version 2.43.0 (0)
 -->
<!-- Title: compute_Nhalos_in_PLC Pages: 1 -->
<svg width="475pt" height="64pt"
 viewBox="0.00 0.00 475.00 64.00" xmlns="http://www.w3.org/2000/svg" xmlns:xlink="http://www.w3.org/1999/xlink">
<g id="graph0" class="graph" transform="scale(1 1) rotate(0) translate(4 60)">
<title>compute_Nhalos_in_PLC</title>
<!-- Node1 -->
<g id="Node000001" class="node">
<title>Node1</title>
<g id="a_Node000001"><a xlink:title=" ">
<polygon fill="#999999" stroke="#666666" points="467,-37 331,-37 331,-18 467,-18 467,-37"/>
<text text-anchor="middle" x="399" y="-25" font-family="Helvetica,sans-Serif" font-size="10.00">compute_Nhalos_in_PLC</text>
</a>
</g>
</g>
<!-- Node2 -->
<g id="Node000002" class="node">
<title>Node2</title>
<g id="a_Node000002"><a xlink:href="fragment_8c.html#a1d88ab9fbf839def20a948fed5095970" target="_top" xlink:title=" ">
<polygon fill="white" stroke="#666666" points="295,-56 190,-56 190,-37 295,-37 295,-56"/>
<text text-anchor="middle" x="242.5" y="-44" font-family="Helvetica,sans-Serif" font-size="10.00">estimate_file_size</text>
</a>
</g>
</g>
<!-- Node1&#45;&gt;Node2 -->
<g id="edge1_Node000001_Node000002" class="edge">
<title>Node1&#45;&gt;Node2</title>
<g id="a_edge1_Node000001_Node000002"><a xlink:title=" ">
<path fill="none" stroke="#63b8ff" d="M320.62,-37.02C312.02,-38.07 303.42,-39.13 295.26,-40.13"/>
<polygon fill="#63b8ff" stroke="#63b8ff" points="321.19,-40.47 330.68,-35.78 320.33,-33.53 321.19,-40.47"/>
</a>
</g>
</g>
<!-- Node5 -->
<g id="Node000005" class="node">
<title>Node5</title>
<g id="a_Node000005"><a xlink:href="write__halos_8c.html#a9c1d2f1df77a66a8e31b7d19251f39ac" target="_top" xlink:title=" ">
<polygon fill="white" stroke="#666666" points="275,-19 210,-19 210,0 275,0 275,-19"/>
<text text-anchor="middle" x="242.5" y="-7" font-family="Helvetica,sans-Serif" font-size="10.00">write_PLC</text>
</a>
</g>
</g>
<!-- Node1&#45;&gt;Node5 -->
<g id="edge4_Node000001_Node000005" class="edge">
<title>Node1&#45;&gt;Node5</title>
<g id="a_edge4_Node000001_Node000005"><a xlink:title=" ">
<path fill="none" stroke="#63b8ff" d="M320.65,-18.49C304.51,-16.61 288.37,-14.73 275.05,-13.18"/>
<polygon fill="#63b8ff" stroke="#63b8ff" points="320.35,-21.98 330.68,-19.66 321.16,-15.02 320.35,-21.98"/>
</a>
</g>
</g>
<!-- Node3 -->
<g id="Node000003" class="node">
<title>Node3</title>
<g id="a_Node000003"><a xlink:href="initialization_8c.html#a2bed034b4a40d49d0765d1ce741bd8a9" target="_top" xlink:title=" ">
<polygon fill="white" stroke="#666666" points="154,-56 77,-56 77,-37 154,-37 154,-56"/>
<text text-anchor="middle" x="115.5" y="-44" font-family="Helvetica,sans-Serif" font-size="10.00">initialization</text>
</a>
</g>
</g>
<!-- Node2&#45;&gt;Node3 -->
<g id="edge2_Node000002_Node000003" class="edge">
<title>Node2&#45;&gt;Node3</title>
<g id="a_edge2_Node000002_Node000003"><a xlink:title=" ">
<path fill="none" stroke="#63b8ff" d="M179.75,-46.5C171.02,-46.5 162.28,-46.5 154.2,-46.5"/>
<polygon fill="#63b8ff" stroke="#63b8ff" points="179.94,-50 189.94,-46.5 179.94,-43 179.94,-50"/>
</a>
</g>
</g>
<!-- Node4 -->
<g id="Node000004" class="node">
<title>Node4</title>
<g id="a_Node000004"><a xlink:href="pinocchio_8c.html#a647f21a28344e1d9c643f4115516d7c9" target="_top" xlink:title=" ">
<polygon fill="white" stroke="#666666" points="41,-56 0,-56 0,-37 41,-37 41,-56"/>
<text text-anchor="middle" x="20.5" y="-44" font-family="Helvetica,sans-Serif" font-size="10.00">main</text>
</a>
</g>
</g>
<!-- Node3&#45;&gt;Node4 -->
<g id="edge3_Node000003_Node000004" class="edge">
<title>Node3&#45;&gt;Node4</title>
<g id="a_edge3_Node000003_Node000004"><a xlink:title=" ">
<path fill="none" stroke="#63b8ff" d="M66.73,-46.5C57.65,-46.5 48.63,-46.5 41.06,-46.5"/>
<polygon fill="#63b8ff" stroke="#63b8ff" points="66.94,-50 76.94,-46.5 66.94,-43 66.94,-50"/>
</a>
</g>
</g>
</g>
</svg>
