<?xml version="1.0" encoding="UTF-8" standalone="no"?>
<!DOCTYPE svg PUBLIC "-//W3C//DTD SVG 1.1//EN"
 "http://www.w3.org/Graphics/SVG/1.1/DTD/svg11.dtd">
<!-- Generated by graphviz version 2.43.0 (0)
 -->
<!-- Title: mass_maps_process_segment Pages: 1 -->
<svg width="1015pt" height="933pt"
 viewBox="0.00 0.00 1015.00 932.50" xmlns="http://www.w3.org/2000/svg" xmlns:xlink="http://www.w3.org/1999/xlink">
<g id="graph0" class="graph" transform="scale(1 1) rotate(0) translate(4 928.5)">
<title>mass_maps_process_segment</title>
<!-- Node1 -->
<g id="Node000001" class="node">
<title>Node1</title>
<g id="a_Node000001"><a xlink:title=" ">
<polygon fill="#999999" stroke="#666666" points="166,-517 0,-517 0,-498 166,-498 166,-517"/>
<text text-anchor="middle" x="83" y="-505" font-family="Helvetica,sans-Serif" font-size="10.00">mass_maps_process_segment</text>
</a>
</g>
</g>
<!-- Node2 -->
<g id="Node000002" class="node">
<title>Node2</title>
<g id="a_Node000002"><a xlink:href="write__mass__maps_8c.html#a25f83be7403bbb84538aabadd1377dc6" target="_top" xlink:title=" ">
<polygon fill="white" stroke="#666666" points="356,-924.5 228,-924.5 228,-894.5 356,-894.5 356,-924.5"/>
<text text-anchor="start" x="236" y="-912.5" font-family="Helvetica,sans-Serif" font-size="10.00">aabb_distance_bounds</text>
<text text-anchor="middle" x="292" y="-901.5" font-family="Helvetica,sans-Serif" font-size="10.00">_to_point</text>
</a>
</g>
</g>
<!-- Node1&#45;&gt;Node2 -->
<g id="edge1_Node000001_Node000002" class="edge">
<title>Node1&#45;&gt;Node2</title>
<g id="a_edge1_Node000001_Node000002"><a xlink:title=" ">
<path fill="none" stroke="#63b8ff" d="M84.03,-517.18C84.71,-564.25 93.93,-771.49 202,-880.5 206.84,-885.38 212.52,-889.45 218.62,-892.83"/>
<polygon fill="#63b8ff" stroke="#63b8ff" points="217.29,-896.07 227.81,-897.3 220.35,-889.78 217.29,-896.07"/>
</a>
</g>
</g>
<!-- Node3 -->
<g id="Node000003" class="node">
<title>Node3</title>
<g id="a_Node000003"><a xlink:href="cosmo_8c.html#aa3beda8770f3f4e1b00e486bb647edc5" target="_top" xlink:title=" ">
<polygon fill="white" stroke="#666666" points="726.5,-693 617.5,-693 617.5,-674 726.5,-674 726.5,-693"/>
<text text-anchor="middle" x="672" y="-681" font-family="Helvetica,sans-Serif" font-size="10.00">ComovingDistance</text>
</a>
</g>
</g>
<!-- Node1&#45;&gt;Node3 -->
<g id="edge2_Node000001_Node000003" class="edge">
<title>Node1&#45;&gt;Node3</title>
<g id="a_edge2_Node000001_Node000003"><a xlink:title=" ">
<path fill="none" stroke="#63b8ff" d="M87.22,-517.06C97.9,-547.02 135.29,-639.25 202,-675.5 270,-712.45 495.55,-698.94 607.23,-689.53"/>
<polygon fill="#63b8ff" stroke="#63b8ff" points="607.68,-693.01 617.34,-688.67 607.08,-686.03 607.68,-693.01"/>
</a>
</g>
</g>
<!-- Node5 -->
<g id="Node000005" class="node">
<title>Node5</title>
<g id="a_Node000005"><a xlink:href="distribute_8c.html#a2c0d0f371c1eb7f5edb3f35ff4b05d9d" target="_top" xlink:title=" ">
<polygon fill="white" stroke="#666666" points="338,-838 246,-838 246,-819 338,-819 338,-838"/>
<text text-anchor="middle" x="292" y="-826" font-family="Helvetica,sans-Serif" font-size="10.00">distribute_back</text>
</a>
</g>
</g>
<!-- Node1&#45;&gt;Node5 -->
<g id="edge4_Node000001_Node000005" class="edge">
<title>Node1&#45;&gt;Node5</title>
<g id="a_edge4_Node000001_Node000005"><a xlink:title=" ">
<path fill="none" stroke="#63b8ff" d="M84.61,-517.21C87.8,-559.39 106.34,-728.22 202,-809.5 211.41,-817.49 223.36,-822.38 235.43,-825.3"/>
<polygon fill="#63b8ff" stroke="#63b8ff" points="235.05,-828.8 245.54,-827.33 236.43,-821.93 235.05,-828.8"/>
</a>
</g>
</g>
<!-- Node9 -->
<g id="Node000009" class="node">
<title>Node9</title>
<g id="a_Node000009"><a xlink:href="fmax_8c.html#a76000ea6ddfd81a9d6cf317d53f54378" target="_top" xlink:title=" ">
<polygon fill="white" stroke="#666666" points="693,-454 651,-454 651,-435 693,-435 693,-454"/>
<text text-anchor="middle" x="672" y="-442" font-family="Helvetica,sans-Serif" font-size="10.00">fdate</text>
</a>
</g>
</g>
<!-- Node1&#45;&gt;Node9 -->
<g id="edge8_Node000001_Node000009" class="edge">
<title>Node1&#45;&gt;Node9</title>
<g id="a_edge8_Node000001_Node000009"><a xlink:title=" ">
<path fill="none" stroke="#63b8ff" d="M125.31,-497.96C147.87,-493.03 176.35,-487.28 202,-483.5 366.48,-459.23 565.81,-448.9 640.66,-445.69"/>
<polygon fill="#63b8ff" stroke="#63b8ff" points="640.94,-449.18 650.78,-445.26 640.64,-442.18 640.94,-449.18"/>
</a>
</g>
</g>
<!-- Node10 -->
<g id="Node000010" class="node">
<title>Node10</title>
<g id="a_Node000010"><a xlink:href="cosmo_8c.html#a3a0180bde4b72af08dbd201d59d3ec77" target="_top" xlink:title=" ">
<polygon fill="white" stroke="#666666" points="567,-909 422,-909 422,-890 567,-890 567,-909"/>
<text text-anchor="middle" x="494.5" y="-897" font-family="Helvetica,sans-Serif" font-size="10.00">InverseComovingDistance</text>
</a>
</g>
</g>
<!-- Node1&#45;&gt;Node10 -->
<g id="edge9_Node000001_Node000010" class="edge">
<title>Node1&#45;&gt;Node10</title>
<g id="a_edge9_Node000001_Node000010"><a xlink:title=" ">
<path fill="none" stroke="#63b8ff" d="M84.07,-517.23C84.95,-562.75 95.08,-756.22 202,-847.5 217.89,-861.06 331.12,-878.37 411.68,-889.19"/>
<polygon fill="#63b8ff" stroke="#63b8ff" points="411.45,-892.69 421.82,-890.55 412.37,-885.75 411.45,-892.69"/>
</a>
</g>
</g>
<!-- Node11 -->
<g id="Node000011" class="node">
<title>Node11</title>
<g id="a_Node000011"><a xlink:href="write__mass__maps_8c.html#af48c2f2e1f7a068bdf277f6e51dbb687" target="_top" xlink:title=" ">
<polygon fill="white" stroke="#666666" points="571,-416 418,-416 418,-397 571,-397 571,-416"/>
<text text-anchor="middle" x="494.5" y="-404" font-family="Helvetica,sans-Serif" font-size="10.00">mass_maps_axis_pixel_ring</text>
</a>
</g>
</g>
<!-- Node1&#45;&gt;Node11 -->
<g id="edge12_Node000001_Node000011" class="edge">
<title>Node1&#45;&gt;Node11</title>
<g id="a_edge12_Node000001_Node000011"><a xlink:title=" ">
<path fill="none" stroke="#63b8ff" d="M87.51,-497.98C98.77,-469.04 137.11,-382.02 202,-349.5 273.52,-313.65 307.44,-320.5 382,-349.5 402.23,-357.37 399.22,-371.62 418,-382.5 425.61,-386.91 434.13,-390.61 442.63,-393.68"/>
<polygon fill="#63b8ff" stroke="#63b8ff" points="441.57,-397.02 452.16,-396.89 443.8,-390.39 441.57,-397.02"/>
</a>
</g>
</g>
<!-- Node12 -->
<g id="Node000012" class="node">
<title>Node12</title>
<g id="a_Node000012"><a xlink:href="write__mass__maps_8c.html#a53755234b7745056e5c758c8f51c3515" target="_top" xlink:title=" ">
<polygon fill="white" stroke="#666666" points="368,-752.5 216,-752.5 216,-722.5 368,-722.5 368,-752.5"/>
<text text-anchor="start" x="224" y="-740.5" font-family="Helvetica,sans-Serif" font-size="10.00">mass_maps_compute_pixel</text>
<text text-anchor="middle" x="292" y="-729.5" font-family="Helvetica,sans-Serif" font-size="10.00">_from_pos</text>
</a>
</g>
</g>
<!-- Node1&#45;&gt;Node12 -->
<g id="edge13_Node000001_Node000012" class="edge">
<title>Node1&#45;&gt;Node12</title>
<g id="a_edge13_Node000001_Node000012"><a xlink:title=" ">
<path fill="none" stroke="#63b8ff" d="M86.89,-517.12C97.06,-549.26 134.21,-653.97 202,-708.5 206.35,-712 211.14,-715.09 216.17,-717.8"/>
<polygon fill="#63b8ff" stroke="#63b8ff" points="214.91,-721.08 225.44,-722.3 217.97,-714.79 214.91,-721.08"/>
</a>
</g>
</g>
<!-- Node14 -->
<g id="Node000014" class="node">
<title>Node14</title>
<g id="a_Node000014"><a xlink:href="write__mass__maps_8c.html#a4a8b7ba4534601a7ebb1a1f850bd1bc9" target="_top" xlink:title=" ">
<polygon fill="white" stroke="#666666" points="367,-618.5 217,-618.5 217,-588.5 367,-588.5 367,-618.5"/>
<text text-anchor="start" x="225" y="-606.5" font-family="Helvetica,sans-Serif" font-size="10.00">mass_maps_compute_prev</text>
<text text-anchor="middle" x="292" y="-595.5" font-family="Helvetica,sans-Serif" font-size="10.00">_curr_positions</text>
</a>
</g>
</g>
<!-- Node1&#45;&gt;Node14 -->
<g id="edge15_Node000001_Node000014" class="edge">
<title>Node1&#45;&gt;Node14</title>
<g id="a_edge15_Node000001_Node000014"><a xlink:title=" ">
<path fill="none" stroke="#63b8ff" d="M97.12,-517.25C118.22,-532.5 161.43,-562.08 202,-579.5 206.75,-581.54 211.72,-583.45 216.77,-585.22"/>
<polygon fill="#63b8ff" stroke="#63b8ff" points="215.97,-588.64 226.57,-588.47 218.18,-582 215.97,-588.64"/>
</a>
</g>
</g>
<!-- Node15 -->
<g id="Node000015" class="node">
<title>Node15</title>
<g id="a_Node000015"><a xlink:href="write__mass__maps_8c.html#ac1a6a385d9f49d2da8a1273bcace1cb8" target="_top" xlink:title=" ">
<polygon fill="white" stroke="#666666" points="358.5,-570.5 225.5,-570.5 225.5,-540.5 358.5,-540.5 358.5,-570.5"/>
<text text-anchor="start" x="233.5" y="-558.5" font-family="Helvetica,sans-Serif" font-size="10.00">mass_maps_crossing</text>
<text text-anchor="middle" x="292" y="-547.5" font-family="Helvetica,sans-Serif" font-size="10.00">_from_shifted_positions</text>
</a>
</g>
</g>
<!-- Node1&#45;&gt;Node15 -->
<g id="edge16_Node000001_Node000015" class="edge">
<title>Node1&#45;&gt;Node15</title>
<g id="a_edge16_Node000001_Node000015"><a xlink:title=" ">
<path fill="none" stroke="#63b8ff" d="M125.39,-517.1C151.37,-523.12 185.63,-531.07 216.24,-538.17"/>
<polygon fill="#63b8ff" stroke="#63b8ff" points="215.51,-541.59 226.04,-540.44 217.09,-534.77 215.51,-541.59"/>
</a>
</g>
</g>
<!-- Node16 -->
<g id="Node000016" class="node">
<title>Node16</title>
<g id="a_Node000016"><a xlink:href="write__mass__maps_8c.html#a4efc25d2caaa21c6fc9b76fef0c4d291" target="_top" xlink:title=" ">
<polygon fill="white" stroke="#666666" points="354,-522.5 230,-522.5 230,-492.5 354,-492.5 354,-522.5"/>
<text text-anchor="start" x="238" y="-510.5" font-family="Helvetica,sans-Serif" font-size="10.00">mass_maps_disp_hist</text>
<text text-anchor="middle" x="292" y="-499.5" font-family="Helvetica,sans-Serif" font-size="10.00">_on_segment</text>
</a>
</g>
</g>
<!-- Node1&#45;&gt;Node16 -->
<g id="edge17_Node000001_Node000016" class="edge">
<title>Node1&#45;&gt;Node16</title>
<g id="a_edge17_Node000001_Node000016"><a xlink:title=" ">
<path fill="none" stroke="#63b8ff" d="M166.11,-507.5C183.85,-507.5 202.46,-507.5 219.75,-507.5"/>
<polygon fill="#63b8ff" stroke="#63b8ff" points="219.75,-511 229.75,-507.5 219.75,-504 219.75,-511"/>
</a>
</g>
</g>
<!-- Node19 -->
<g id="Node000019" class="node">
<title>Node19</title>
<g id="a_Node000019"><a xlink:href="write__mass__maps_8c.html#ad6660de0d598455a5606246a5a4820a8" target="_top" xlink:title=" ">
<polygon fill="white" stroke="#666666" points="362,-800.5 222,-800.5 222,-770.5 362,-770.5 362,-800.5"/>
<text text-anchor="start" x="230" y="-788.5" font-family="Helvetica,sans-Serif" font-size="10.00">mass_maps_entry_inside</text>
<text text-anchor="middle" x="292" y="-777.5" font-family="Helvetica,sans-Serif" font-size="10.00">_aperture</text>
</a>
</g>
</g>
<!-- Node1&#45;&gt;Node19 -->
<g id="edge21_Node000001_Node000019" class="edge">
<title>Node1&#45;&gt;Node19</title>
<g id="a_edge21_Node000001_Node000019"><a xlink:title=" ">
<path fill="none" stroke="#63b8ff" d="M85.49,-517.07C91.84,-554.54 120.16,-692.62 202,-761.5 205.31,-764.28 208.9,-766.74 212.7,-768.92"/>
<polygon fill="#63b8ff" stroke="#63b8ff" points="211.34,-772.16 221.85,-773.51 214.48,-765.9 211.34,-772.16"/>
</a>
</g>
</g>
<!-- Node20 -->
<g id="Node000020" class="node">
<title>Node20</title>
<g id="a_Node000020"><a xlink:href="write__mass__maps_8c.html#a84e63d9e3e250f5379ace8d794a4561a" target="_top" xlink:title=" ">
<polygon fill="white" stroke="#666666" points="356.5,-436.5 227.5,-436.5 227.5,-406.5 356.5,-406.5 356.5,-436.5"/>
<text text-anchor="start" x="235.5" y="-424.5" font-family="Helvetica,sans-Serif" font-size="10.00">mass_maps_get_group</text>
<text text-anchor="middle" x="292" y="-413.5" font-family="Helvetica,sans-Serif" font-size="10.00">_id_global</text>
</a>
</g>
</g>
<!-- Node1&#45;&gt;Node20 -->
<g id="edge23_Node000001_Node000020" class="edge">
<title>Node1&#45;&gt;Node20</title>
<g id="a_edge23_Node000001_Node000020"><a xlink:title=" ">
<path fill="none" stroke="#63b8ff" d="M102.05,-497.83C124.91,-485.82 165.7,-465.11 202,-450.5 211.27,-446.77 221.23,-443.16 231,-439.82"/>
<polygon fill="#63b8ff" stroke="#63b8ff" points="232.3,-443.08 240.68,-436.59 230.08,-436.44 232.3,-443.08"/>
</a>
</g>
</g>
<!-- Node21 -->
<g id="Node000021" class="node">
<title>Node21</title>
<g id="a_Node000021"><a xlink:href="write__mass__maps_8c.html#a90fd06dbd2abde6f0f6df1fe70995552" target="_top" xlink:title=" ">
<polygon fill="white" stroke="#666666" points="353.5,-388.5 230.5,-388.5 230.5,-358.5 353.5,-358.5 353.5,-388.5"/>
<text text-anchor="start" x="238.5" y="-376.5" font-family="Helvetica,sans-Serif" font-size="10.00">mass_maps_get_zacc</text>
<text text-anchor="middle" x="292" y="-365.5" font-family="Helvetica,sans-Serif" font-size="10.00">_global</text>
</a>
</g>
</g>
<!-- Node1&#45;&gt;Node21 -->
<g id="edge24_Node000001_Node000021" class="edge">
<title>Node1&#45;&gt;Node21</title>
<g id="a_edge24_Node000001_Node000021"><a xlink:title=" ">
<path fill="none" stroke="#63b8ff" d="M91.44,-497.92C108.55,-476.53 153.03,-424.69 202,-397.5 207.83,-394.26 214.12,-391.45 220.56,-388.99"/>
<polygon fill="#63b8ff" stroke="#63b8ff" points="221.8,-392.27 230.08,-385.66 219.48,-385.66 221.8,-392.27"/>
</a>
</g>
</g>
<!-- Node22 -->
<g id="Node000022" class="node">
<title>Node22</title>
<g id="a_Node000022"><a xlink:href="write__mass__maps_8c.html#a5935cb352e2164e79bbabe30af0bd0b7" target="_top" xlink:title=" ">
<polygon fill="white" stroke="#666666" points="377,-265 207,-265 207,-246 377,-246 377,-265"/>
<text text-anchor="middle" x="292" y="-253" font-family="Helvetica,sans-Serif" font-size="10.00">mass_maps_init_healpix_maps</text>
</a>
</g>
</g>
<!-- Node1&#45;&gt;Node22 -->
<g id="edge25_Node000001_Node000022" class="edge">
<title>Node1&#45;&gt;Node22</title>
<g id="a_edge25_Node000001_Node000022"><a xlink:title=" ">
<path fill="none" stroke="#63b8ff" d="M85.82,-497.54C93.02,-461.05 123.14,-333.66 202,-273.5 203.65,-272.25 205.36,-271.07 207.12,-269.97"/>
<polygon fill="#63b8ff" stroke="#63b8ff" points="209.14,-272.87 216.34,-265.1 205.87,-266.68 209.14,-272.87"/>
</a>
</g>
</g>
<!-- Node27 -->
<g id="Node000027" class="node">
<title>Node27</title>
<g id="a_Node000027"><a xlink:href="write__mass__maps_8c.html#aa1c8f3237407e5fb87387727bd9ffd01" target="_top" xlink:title=" ">
<polygon fill="white" stroke="#666666" points="357.5,-302 226.5,-302 226.5,-283 357.5,-283 357.5,-302"/>
<text text-anchor="middle" x="292" y="-290" font-family="Helvetica,sans-Serif" font-size="10.00">mass_maps_map_stats</text>
</a>
</g>
</g>
<!-- Node1&#45;&gt;Node27 -->
<g id="edge33_Node000001_Node000027" class="edge">
<title>Node1&#45;&gt;Node27</title>
<g id="a_edge33_Node000001_Node000027"><a xlink:title=" ">
<path fill="none" stroke="#63b8ff" d="M87.09,-497.79C97.6,-466.32 135.12,-366.34 202,-316.5 207.82,-312.16 214.38,-308.61 221.22,-305.69"/>
<polygon fill="#63b8ff" stroke="#63b8ff" points="222.58,-308.92 230.69,-302.11 220.1,-302.38 222.58,-308.92"/>
</a>
</g>
</g>
<!-- Node28 -->
<g id="Node000028" class="node">
<title>Node28</title>
<g id="a_Node000028"><a xlink:href="write__mass__maps_8c.html#ad2813bf24413a335b369b3f788ccf25a" target="_top" xlink:title=" ">
<polygon fill="white" stroke="#666666" points="565.5,-93 423.5,-93 423.5,-74 565.5,-74 565.5,-93"/>
<text text-anchor="middle" x="494.5" y="-81" font-family="Helvetica,sans-Serif" font-size="10.00">mass_maps_segment_ptr</text>
</a>
</g>
</g>
<!-- Node1&#45;&gt;Node28 -->
<g id="edge34_Node000001_Node000028" class="edge">
<title>Node1&#45;&gt;Node28</title>
<g id="a_edge34_Node000001_Node000028"><a xlink:title=" ">
<path fill="none" stroke="#63b8ff" d="M84.75,-497.91C88.56,-455.42 109.44,-282.08 202,-187.5 258.1,-130.18 347.88,-104.34 412.99,-92.77"/>
<polygon fill="#63b8ff" stroke="#63b8ff" points="413.95,-96.15 423.22,-91.03 412.77,-89.25 413.95,-96.15"/>
</a>
</g>
</g>
<!-- Node29 -->
<g id="Node000029" class="node">
<title>Node29</title>
<g id="a_Node000029"><a xlink:href="write__mass__maps_8c.html#a9a969f3af5ada3d2f71e9581732559ce" target="_top" xlink:title=" ">
<polygon fill="white" stroke="#666666" points="371,-666.5 213,-666.5 213,-636.5 371,-636.5 371,-666.5"/>
<text text-anchor="start" x="221" y="-654.5" font-family="Helvetica,sans-Serif" font-size="10.00">mass_maps_select_segment</text>
<text text-anchor="middle" x="292" y="-643.5" font-family="Helvetica,sans-Serif" font-size="10.00">_replications</text>
</a>
</g>
</g>
<!-- Node1&#45;&gt;Node29 -->
<g id="edge35_Node000001_Node000029" class="edge">
<title>Node1&#45;&gt;Node29</title>
<g id="a_edge35_Node000001_Node000029"><a xlink:title=" ">
<path fill="none" stroke="#63b8ff" d="M90.73,-517.29C107.03,-540.23 151.03,-597.73 202,-627.5 204.99,-629.25 208.12,-630.87 211.33,-632.38"/>
<polygon fill="#63b8ff" stroke="#63b8ff" points="210,-635.62 220.57,-636.33 212.75,-629.18 210,-635.62"/>
</a>
</g>
</g>
<!-- Node31 -->
<g id="Node000031" class="node">
<title>Node31</title>
<g id="a_Node000031"><a xlink:href="write__mass__maps_8c.html#a6b5d12b44e4049d35c9576ce5d2500ff" target="_top" xlink:title=" ">
<polygon fill="white" stroke="#666666" points="356,-73.5 228,-73.5 228,-43.5 356,-43.5 356,-73.5"/>
<text text-anchor="start" x="236" y="-61.5" font-family="Helvetica,sans-Serif" font-size="10.00">mass_maps_set_point</text>
<text text-anchor="middle" x="292" y="-50.5" font-family="Helvetica,sans-Serif" font-size="10.00">_from_products_global</text>
</a>
</g>
</g>
<!-- Node1&#45;&gt;Node31 -->
<g id="edge40_Node000001_Node000031" class="edge">
<title>Node1&#45;&gt;Node31</title>
<g id="a_edge40_Node000001_Node000031"><a xlink:title=" ">
<path fill="none" stroke="#63b8ff" d="M85.01,-497.94C90.12,-453.06 116.43,-260.02 202,-132.5 216.37,-111.08 238.7,-92.54 257.4,-79.38"/>
<polygon fill="#63b8ff" stroke="#63b8ff" points="259.41,-82.24 265.69,-73.71 255.46,-76.46 259.41,-82.24"/>
</a>
</g>
</g>
<!-- Node38 -->
<g id="Node000038" class="node">
<title>Node38</title>
<g id="a_Node000038"><a xlink:href="write__mass__maps_8c.html#a676e5befe139890f50637eb5797ecb93" target="_top" xlink:title=" ">
<polygon fill="white" stroke="#666666" points="382,-216 202,-216 202,-197 382,-197 382,-216"/>
<text text-anchor="middle" x="292" y="-204" font-family="Helvetica,sans-Serif" font-size="10.00">mass_maps_write_segment_map</text>
</a>
</g>
</g>
<!-- Node1&#45;&gt;Node38 -->
<g id="edge51_Node000001_Node000038" class="edge">
<title>Node1&#45;&gt;Node38</title>
<g id="a_edge51_Node000001_Node000038"><a xlink:title=" ">
<path fill="none" stroke="#63b8ff" d="M85.33,-497.99C91.22,-459.43 118.45,-313.19 202,-236.5 209.83,-229.31 219.44,-223.84 229.42,-219.68"/>
<polygon fill="#63b8ff" stroke="#63b8ff" points="230.91,-222.86 239.05,-216.07 228.46,-216.3 230.91,-222.86"/>
</a>
</g>
</g>
<!-- Node4 -->
<g id="Node000004" class="node">
<title>Node4</title>
<g id="a_Node000004"><a xlink:href="cosmo_8c.html#a6341f5394ed17a00dc77c5519b292ae3" target="_top" xlink:title=" ">
<polygon fill="white" stroke="#666666" points="1007,-693 914,-693 914,-674 1007,-674 1007,-693"/>
<text text-anchor="middle" x="960.5" y="-681" font-family="Helvetica,sans-Serif" font-size="10.00">my_spline_eval</text>
</a>
</g>
</g>
<!-- Node3&#45;&gt;Node4 -->
<g id="edge3_Node000003_Node000004" class="edge">
<title>Node3&#45;&gt;Node4</title>
<g id="a_edge3_Node000003_Node000004"><a xlink:title=" ">
<path fill="none" stroke="#63b8ff" d="M726.55,-683.5C777.01,-683.5 852.31,-683.5 903.54,-683.5"/>
<polygon fill="#63b8ff" stroke="#63b8ff" points="903.77,-687 913.77,-683.5 903.77,-680 903.77,-687"/>
</a>
</g>
</g>
<!-- Node6 -->
<g id="Node000006" class="node">
<title>Node6</title>
<g id="a_Node000006"><a xlink:href="distribute_8c.html#abfbb26857e985d0316d1ecf0c5e07d88" target="_top" xlink:title=" ">
<polygon fill="white" stroke="#666666" points="542,-872 447,-872 447,-853 542,-853 542,-872"/>
<text text-anchor="middle" x="494.5" y="-860" font-family="Helvetica,sans-Serif" font-size="10.00">keep_data_back</text>
</a>
</g>
</g>
<!-- Node5&#45;&gt;Node6 -->
<g id="edge5_Node000005_Node000006" class="edge">
<title>Node5&#45;&gt;Node6</title>
<g id="a_edge5_Node000005_Node000006"><a xlink:title=" ">
<path fill="none" stroke="#63b8ff" d="M338.25,-836.17C367.43,-841.12 405.61,-847.6 436.81,-852.89"/>
<polygon fill="#63b8ff" stroke="#63b8ff" points="436.23,-856.34 446.68,-854.56 437.4,-849.44 436.23,-856.34"/>
</a>
</g>
</g>
<!-- Node7 -->
<g id="Node000007" class="node">
<title>Node7</title>
<g id="a_Node000007"><a xlink:href="distribute_8c.html#a040a9beb10f71ddf875bbc4041297bac" target="_top" xlink:title=" ">
<polygon fill="white" stroke="#666666" points="541,-835 448,-835 448,-816 541,-816 541,-835"/>
<text text-anchor="middle" x="494.5" y="-823" font-family="Helvetica,sans-Serif" font-size="10.00">recv_data_back</text>
</a>
</g>
</g>
<!-- Node5&#45;&gt;Node7 -->
<g id="edge6_Node000005_Node000007" class="edge">
<title>Node5&#45;&gt;Node7</title>
<g id="a_edge6_Node000005_Node000007"><a xlink:title=" ">
<path fill="none" stroke="#63b8ff" d="M338.25,-827.82C367.61,-827.38 406.1,-826.81 437.41,-826.34"/>
<polygon fill="#63b8ff" stroke="#63b8ff" points="437.78,-829.83 447.72,-826.18 437.67,-822.84 437.78,-829.83"/>
</a>
</g>
</g>
<!-- Node8 -->
<g id="Node000008" class="node">
<title>Node8</title>
<g id="a_Node000008"><a xlink:href="distribute_8c.html#a702eef922060fa6ba032a337ce1683c8" target="_top" xlink:title=" ">
<polygon fill="white" stroke="#666666" points="542,-798 447,-798 447,-779 542,-779 542,-798"/>
<text text-anchor="middle" x="494.5" y="-786" font-family="Helvetica,sans-Serif" font-size="10.00">send_data_back</text>
</a>
</g>
</g>
<!-- Node5&#45;&gt;Node8 -->
<g id="edge7_Node000005_Node000008" class="edge">
<title>Node5&#45;&gt;Node8</title>
<g id="a_edge7_Node000005_Node000008"><a xlink:title=" ">
<path fill="none" stroke="#63b8ff" d="M338.25,-819.47C367.43,-813.65 405.61,-806.03 436.81,-799.81"/>
<polygon fill="#63b8ff" stroke="#63b8ff" points="437.56,-803.23 446.68,-797.84 436.19,-796.37 437.56,-803.23"/>
</a>
</g>
</g>
<!-- Node10&#45;&gt;Node3 -->
<g id="edge10_Node000010_Node000003" class="edge">
<title>Node10&#45;&gt;Node3</title>
<g id="a_edge10_Node000010_Node000003"><a xlink:title=" ">
<path fill="none" stroke="#63b8ff" d="M557.1,-889.93C562.09,-887.67 566.81,-884.89 571,-881.5 600.03,-857.96 590.32,-838.94 607,-805.5 625.4,-768.61 648.04,-726.08 660.87,-702.24"/>
<polygon fill="#63b8ff" stroke="#63b8ff" points="664.06,-703.7 665.72,-693.23 657.89,-700.38 664.06,-703.7"/>
</a>
</g>
</g>
<!-- Node10&#45;&gt;Node4 -->
<g id="edge11_Node000010_Node000004" class="edge">
<title>Node10&#45;&gt;Node4</title>
<g id="a_edge11_Node000010_Node000004"><a xlink:title=" ">
<path fill="none" stroke="#63b8ff" d="M543.13,-889.96C552.49,-887.58 562.15,-884.76 571,-881.5 715.65,-828.26 875.96,-734.46 935.52,-698.3"/>
<polygon fill="#63b8ff" stroke="#63b8ff" points="937.48,-701.2 944.2,-693 933.84,-695.22 937.48,-701.2"/>
</a>
</g>
</g>
<!-- Node13 -->
<g id="Node000013" class="node">
<title>Node13</title>
<g id="a_Node000013"><a xlink:href="write__mass__maps_8c.html#aa8ff3437aa03d47b2c1939564d9a64f1" target="_top" xlink:title=" ">
<polygon fill="white" stroke="#666666" points="558.5,-760.5 430.5,-760.5 430.5,-730.5 558.5,-730.5 558.5,-760.5"/>
<text text-anchor="start" x="438.5" y="-748.5" font-family="Helvetica,sans-Serif" font-size="10.00">mass_maps_cache_plc</text>
<text text-anchor="middle" x="494.5" y="-737.5" font-family="Helvetica,sans-Serif" font-size="10.00">_basis_and_center</text>
</a>
</g>
</g>
<!-- Node12&#45;&gt;Node13 -->
<g id="edge14_Node000012_Node000013" class="edge">
<title>Node12&#45;&gt;Node13</title>
<g id="a_edge14_Node000012_Node000013"><a xlink:title=" ">
<path fill="none" stroke="#63b8ff" d="M368.23,-740.5C385.16,-741.18 403.11,-741.89 419.97,-742.57"/>
<polygon fill="#63b8ff" stroke="#63b8ff" points="420.18,-746.08 430.31,-742.98 420.46,-739.08 420.18,-746.08"/>
</a>
</g>
</g>
<!-- Node17 -->
<g id="Node000017" class="node">
<title>Node17</title>
<g id="a_Node000017"><a xlink:href="write__mass__maps_8c.html#a587ac34734c302a16779a06fa7f38cad" target="_top" xlink:title=" ">
<polygon fill="white" stroke="#666666" points="558,-550.5 431,-550.5 431,-520.5 558,-520.5 558,-550.5"/>
<text text-anchor="start" x="439" y="-538.5" font-family="Helvetica,sans-Serif" font-size="10.00">mass_maps_disp_hist</text>
<text text-anchor="middle" x="494.5" y="-527.5" font-family="Helvetica,sans-Serif" font-size="10.00">_accumulate_endpoint</text>
</a>
</g>
</g>
<!-- Node16&#45;&gt;Node17 -->
<g id="edge18_Node000016_Node000017" class="edge">
<title>Node16&#45;&gt;Node17</title>
<g id="a_edge18_Node000016_Node000017"><a xlink:title=" ">
<path fill="none" stroke="#63b8ff" d="M354.25,-516.05C375.22,-518.98 398.9,-522.29 420.7,-525.33"/>
<polygon fill="#63b8ff" stroke="#63b8ff" points="420.51,-528.84 430.9,-526.76 421.48,-521.91 420.51,-528.84"/>
</a>
</g>
</g>
<!-- Node18 -->
<g id="Node000018" class="node">
<title>Node18</title>
<g id="a_Node000018"><a xlink:href="write__mass__maps_8c.html#ac4e15b131ee6fb9d8cc58f10a96042cd" target="_top" xlink:title=" ">
<polygon fill="white" stroke="#666666" points="556.5,-502.5 432.5,-502.5 432.5,-472.5 556.5,-472.5 556.5,-502.5"/>
<text text-anchor="start" x="440.5" y="-490.5" font-family="Helvetica,sans-Serif" font-size="10.00">mass_maps_disp_hist</text>
<text text-anchor="middle" x="494.5" y="-479.5" font-family="Helvetica,sans-Serif" font-size="10.00">_write_file</text>
</a>
</g>
</g>
<!-- Node16&#45;&gt;Node18 -->
<g id="edge19_Node000016_Node000018" class="edge">
<title>Node16&#45;&gt;Node18</title>
<g id="a_edge19_Node000016_Node000018"><a xlink:title=" ">
<path fill="none" stroke="#63b8ff" d="M354.25,-501.39C375.72,-499.25 400.02,-496.82 422.24,-494.61"/>
<polygon fill="#63b8ff" stroke="#63b8ff" points="422.68,-498.08 432.28,-493.61 421.99,-491.12 422.68,-498.08"/>
</a>
</g>
</g>
<!-- Node18&#45;&gt;Node9 -->
<g id="edge20_Node000018_Node000009" class="edge">
<title>Node18&#45;&gt;Node9</title>
<g id="a_edge20_Node000018_Node000009"><a xlink:title=" ">
<path fill="none" stroke="#63b8ff" d="M556.88,-472.46C585.34,-465.49 617.88,-457.52 640.91,-451.87"/>
<polygon fill="#63b8ff" stroke="#63b8ff" points="641.89,-455.24 650.77,-449.46 640.23,-448.44 641.89,-455.24"/>
</a>
</g>
</g>
<!-- Node19&#45;&gt;Node13 -->
<g id="edge22_Node000019_Node000013" class="edge">
<title>Node19&#45;&gt;Node13</title>
<g id="a_edge22_Node000019_Node000013"><a xlink:title=" ">
<path fill="none" stroke="#63b8ff" d="M362,-771.73C380.91,-767.96 401.46,-763.86 420.58,-760.05"/>
<polygon fill="#63b8ff" stroke="#63b8ff" points="421.31,-763.47 430.43,-758.08 419.94,-756.61 421.31,-763.47"/>
</a>
</g>
</g>
<!-- Node22&#45;&gt;Node9 -->
<g id="edge26_Node000022_Node000009" class="edge">
<title>Node22&#45;&gt;Node9</title>
<g id="a_edge26_Node000022_Node000009"><a xlink:title=" ">
<path fill="none" stroke="#63b8ff" d="M367.73,-265.01C372.82,-267.31 377.65,-270.11 382,-273.5 411.18,-296.21 389.4,-325.07 418,-348.5 472.28,-392.98 505.93,-361.22 571,-387.5 598.99,-398.81 628.77,-416.62 648.48,-429.32"/>
<polygon fill="#63b8ff" stroke="#63b8ff" points="646.76,-432.37 657.04,-434.92 650.59,-426.52 646.76,-432.37"/>
</a>
</g>
</g>
<!-- Node22&#45;&gt;Node11 -->
<g id="edge27_Node000022_Node000011" class="edge">
<title>Node22&#45;&gt;Node11</title>
<g id="a_edge27_Node000022_Node000011"><a xlink:title=" ">
<path fill="none" stroke="#63b8ff" d="M369.51,-265.04C374.01,-267.36 378.23,-270.15 382,-273.5 420.16,-307.36 381.72,-346.63 418,-382.5 421.97,-386.43 426.59,-389.72 431.54,-392.46"/>
<polygon fill="#63b8ff" stroke="#63b8ff" points="430.21,-395.71 440.75,-396.85 433.23,-389.39 430.21,-395.71"/>
</a>
</g>
</g>
<!-- Node23 -->
<g id="Node000023" class="node">
<title>Node23</title>
<g id="a_Node000023"><a xlink:href="write__mass__maps_8c.html#a544729c08aec453c9512dfb6c8798fe6" target="_top" xlink:title=" ">
<polygon fill="white" stroke="#666666" points="560.5,-303 428.5,-303 428.5,-284 560.5,-284 560.5,-303"/>
<text text-anchor="middle" x="494.5" y="-291" font-family="Helvetica,sans-Serif" font-size="10.00">mass_maps_free_maps</text>
</a>
</g>
</g>
<!-- Node22&#45;&gt;Node23 -->
<g id="edge28_Node000022_Node000023" class="edge">
<title>Node22&#45;&gt;Node23</title>
<g id="a_edge28_Node000022_Node000023"><a xlink:title=" ">
<path fill="none" stroke="#63b8ff" d="M343.34,-265.04C370.63,-270.21 404.54,-276.64 433.23,-282.08"/>
<polygon fill="#63b8ff" stroke="#63b8ff" points="432.67,-285.53 443.14,-283.96 433.97,-278.66 432.67,-285.53"/>
</a>
</g>
</g>
<!-- Node24 -->
<g id="Node000024" class="node">
<title>Node24</title>
<g id="a_Node000024"><a xlink:href="write__mass__maps_8c.html#a7240d4c21b5d0ee79e20f10943ec811b" target="_top" xlink:title=" ">
<polygon fill="white" stroke="#666666" points="560.5,-189.5 428.5,-189.5 428.5,-159.5 560.5,-159.5 560.5,-189.5"/>
<text text-anchor="start" x="436.5" y="-177.5" font-family="Helvetica,sans-Serif" font-size="10.00">mass_maps_ncap_from</text>
<text text-anchor="middle" x="494.5" y="-166.5" font-family="Helvetica,sans-Serif" font-size="10.00">_aperture</text>
</a>
</g>
</g>
<!-- Node22&#45;&gt;Node24 -->
<g id="edge29_Node000022_Node000024" class="edge">
<title>Node22&#45;&gt;Node24</title>
<g id="a_edge29_Node000022_Node000024"><a xlink:title=" ">
<path fill="none" stroke="#63b8ff" d="M322.5,-245.94C339.94,-240.11 362.39,-232.3 382,-224.5 405.59,-215.12 431.49,-203.59 452.39,-193.96"/>
<polygon fill="#63b8ff" stroke="#63b8ff" points="454.01,-197.06 461.61,-189.68 451.07,-190.71 454.01,-197.06"/>
</a>
</g>
</g>
<!-- Node25 -->
<g id="Node000025" class="node">
<title>Node25</title>
<g id="a_Node000025"><a xlink:href="write__mass__maps_8c.html#a5c1fa2c1f31226a3f73d96ccdb7073f6" target="_top" xlink:title=" ">
<polygon fill="white" stroke="#666666" points="737,-229.5 607,-229.5 607,-199.5 737,-199.5 737,-229.5"/>
<text text-anchor="start" x="615" y="-217.5" font-family="Helvetica,sans-Serif" font-size="10.00">mass_maps_npix_from</text>
<text text-anchor="middle" x="672" y="-206.5" font-family="Helvetica,sans-Serif" font-size="10.00">_nside</text>
</a>
</g>
</g>
<!-- Node22&#45;&gt;Node25 -->
<g id="edge31_Node000022_Node000025" class="edge">
<title>Node22&#45;&gt;Node25</title>
<g id="a_edge31_Node000022_Node000025"><a xlink:title=" ">
<path fill="none" stroke="#63b8ff" d="M377.36,-246.35C443.11,-239.22 533.53,-229.41 596.6,-222.57"/>
<polygon fill="#63b8ff" stroke="#63b8ff" points="597.31,-226.01 606.87,-221.46 596.55,-219.05 597.31,-226.01"/>
</a>
</g>
</g>
<!-- Node26 -->
<g id="Node000026" class="node">
<title>Node26</title>
<g id="a_Node000026"><a xlink:href="write__mass__maps_8c.html#a05db3aea9295bd8e953b4d42710e55f6" target="_top" xlink:title=" ">
<polygon fill="white" stroke="#666666" points="570,-340 419,-340 419,-321 570,-321 570,-340"/>
<text text-anchor="middle" x="494.5" y="-328" font-family="Helvetica,sans-Serif" font-size="10.00">mass_maps_zero_all_maps</text>
</a>
</g>
</g>
<!-- Node22&#45;&gt;Node26 -->
<g id="edge32_Node000022_Node000026" class="edge">
<title>Node22&#45;&gt;Node26</title>
<g id="a_edge32_Node000022_Node000026"><a xlink:title=" ">
<path fill="none" stroke="#63b8ff" d="M362.07,-265.02C369.02,-267.28 375.79,-270.06 382,-273.5 402.35,-284.78 397.92,-299.75 418,-311.5 421.84,-313.75 425.95,-315.73 430.19,-317.49"/>
<polygon fill="#63b8ff" stroke="#63b8ff" points="429.02,-320.79 439.62,-320.96 431.44,-314.22 429.02,-320.79"/>
</a>
</g>
</g>
<!-- Node24&#45;&gt;Node25 -->
<g id="edge30_Node000024_Node000025" class="edge">
<title>Node24&#45;&gt;Node25</title>
<g id="a_edge30_Node000024_Node000025"><a xlink:title=" ">
<path fill="none" stroke="#63b8ff" d="M560.85,-189.39C572.57,-192.07 584.87,-194.87 596.82,-197.59"/>
<polygon fill="#63b8ff" stroke="#63b8ff" points="596.24,-201.05 606.76,-199.86 597.79,-194.22 596.24,-201.05"/>
</a>
</g>
</g>
<!-- Node29&#45;&gt;Node3 -->
<g id="edge36_Node000029_Node000003" class="edge">
<title>Node29&#45;&gt;Node3</title>
<g id="a_edge36_Node000029_Node000003"><a xlink:title=" ">
<path fill="none" stroke="#63b8ff" d="M371.32,-658.13C441.21,-664.05 542.29,-672.6 607.32,-678.11"/>
<polygon fill="#63b8ff" stroke="#63b8ff" points="607.18,-681.61 617.44,-678.97 607.77,-674.63 607.18,-681.61"/>
</a>
</g>
</g>
<!-- Node29&#45;&gt;Node9 -->
<g id="edge37_Node000029_Node000009" class="edge">
<title>Node29&#45;&gt;Node9</title>
<g id="a_edge37_Node000029_Node000009"><a xlink:title=" ">
<path fill="none" stroke="#63b8ff" d="M361.22,-636.4C368.41,-633.84 375.47,-630.89 382,-627.5 400.48,-617.9 399.42,-606.92 418,-597.5 480.5,-565.83 511.24,-596.08 571,-559.5 611.22,-534.88 643.91,-488.8 660.06,-463.08"/>
<polygon fill="#63b8ff" stroke="#63b8ff" points="663.19,-464.66 665.42,-454.3 657.22,-461.01 663.19,-464.66"/>
</a>
</g>
</g>
<!-- Node30 -->
<g id="Node000030" class="node">
<title>Node30</title>
<g id="a_Node000030"><a xlink:href="write__mass__maps_8c.html#a7159652dd5f768d3494af76431c811b7" target="_top" xlink:title=" ">
<polygon fill="white" stroke="#666666" points="560.5,-636.5 428.5,-636.5 428.5,-606.5 560.5,-606.5 560.5,-636.5"/>
<text text-anchor="start" x="436.5" y="-624.5" font-family="Helvetica,sans-Serif" font-size="10.00">mass_maps_replication</text>
<text text-anchor="middle" x="494.5" y="-613.5" font-family="Helvetica,sans-Serif" font-size="10.00">_chi_bounds</text>
</a>
</g>
</g>
<!-- Node29&#45;&gt;Node30 -->
<g id="edge38_Node000029_Node000030" class="edge">
<title>Node29&#45;&gt;Node30</title>
<g id="a_edge38_Node000029_Node000030"><a xlink:title=" ">
<path fill="none" stroke="#63b8ff" d="M371.09,-639.82C386.61,-637.49 402.87,-635.06 418.28,-632.75"/>
<polygon fill="#63b8ff" stroke="#63b8ff" points="418.9,-636.2 428.27,-631.26 417.87,-629.28 418.9,-636.2"/>
</a>
</g>
</g>
<!-- Node30&#45;&gt;Node3 -->
<g id="edge39_Node000030_Node000003" class="edge">
<title>Node30&#45;&gt;Node3</title>
<g id="a_edge39_Node000030_Node000003"><a xlink:title=" ">
<path fill="none" stroke="#63b8ff" d="M537.98,-636.51C567.48,-646.93 606.36,-660.67 634.47,-670.59"/>
<polygon fill="#63b8ff" stroke="#63b8ff" points="633.33,-673.9 643.92,-673.93 635.66,-667.3 633.33,-673.9"/>
</a>
</g>
</g>
<!-- Node32 -->
<g id="Node000032" class="node">
<title>Node32</title>
<g id="a_Node000032"><a xlink:href="build__groups_8c.html#a7d0a825b630d787e82f2aad789794b1b" target="_top" xlink:title=" ">
<polygon fill="white" stroke="#666666" points="529.5,-56 459.5,-56 459.5,-37 529.5,-37 529.5,-56"/>
<text text-anchor="middle" x="494.5" y="-44" font-family="Helvetica,sans-Serif" font-size="10.00">set_weight</text>
</a>
</g>
</g>
<!-- Node31&#45;&gt;Node32 -->
<g id="edge41_Node000031_Node000032" class="edge">
<title>Node31&#45;&gt;Node32</title>
<g id="a_edge41_Node000031_Node000032"><a xlink:title=" ">
<path fill="none" stroke="#63b8ff" d="M356.16,-54.72C386.39,-52.91 421.86,-50.79 449.18,-49.15"/>
<polygon fill="#63b8ff" stroke="#63b8ff" points="449.45,-52.64 459.22,-48.55 449.03,-45.66 449.45,-52.64"/>
</a>
</g>
</g>
<!-- Node33 -->
<g id="Node000033" class="node">
<title>Node33</title>
<g id="a_Node000033"><a xlink:href="cosmo_8c.html#a9fbcf5b69c272e801cf320cf814b23c4" target="_top" xlink:title=" ">
<polygon fill="white" stroke="#666666" points="714,-130 630,-130 630,-111 714,-111 714,-130"/>
<text text-anchor="middle" x="672" y="-118" font-family="Helvetica,sans-Serif" font-size="10.00">GrowingMode</text>
</a>
</g>
</g>
<!-- Node32&#45;&gt;Node33 -->
<g id="edge42_Node000032_Node000033" class="edge">
<title>Node32&#45;&gt;Node33</title>
<g id="a_edge42_Node000032_Node000033"><a xlink:title=" ">
<path fill="none" stroke="#63b8ff" d="M529.72,-50.46C543.22,-53.07 558.46,-57.38 571,-64.5 590.95,-75.83 587.37,-89.63 607,-101.5 611.12,-103.99 615.59,-106.18 620.19,-108.09"/>
<polygon fill="#63b8ff" stroke="#63b8ff" points="619.14,-111.43 629.73,-111.63 621.58,-104.87 619.14,-111.43"/>
</a>
</g>
</g>
<!-- Node35 -->
<g id="Node000035" class="node">
<title>Node35</title>
<g id="a_Node000035"><a xlink:href="cosmo_8c.html#a3d4dfa13b4af53acceb7a040e2517499" target="_top" xlink:title=" ">
<polygon fill="white" stroke="#666666" points="728.5,-93 615.5,-93 615.5,-74 728.5,-74 728.5,-93"/>
<text text-anchor="middle" x="672" y="-81" font-family="Helvetica,sans-Serif" font-size="10.00">GrowingMode_2LPT</text>
</a>
</g>
</g>
<!-- Node32&#45;&gt;Node35 -->
<g id="edge45_Node000032_Node000035" class="edge">
<title>Node32&#45;&gt;Node35</title>
<g id="a_edge45_Node000032_Node000035"><a xlink:title=" ">
<path fill="none" stroke="#63b8ff" d="M529.75,-53.72C554.19,-58.87 587.57,-65.91 615.74,-71.85"/>
<polygon fill="#63b8ff" stroke="#63b8ff" points="615.35,-75.34 625.86,-73.98 616.8,-68.5 615.35,-75.34"/>
</a>
</g>
</g>
<!-- Node36 -->
<g id="Node000036" class="node">
<title>Node36</title>
<g id="a_Node000036"><a xlink:href="cosmo_8c.html#a04db96c36d31fd7c7befb810624260fc" target="_top" xlink:title=" ">
<polygon fill="white" stroke="#666666" points="734,-56 610,-56 610,-37 734,-37 734,-56"/>
<text text-anchor="middle" x="672" y="-44" font-family="Helvetica,sans-Serif" font-size="10.00">GrowingMode_3LPT_1</text>
</a>
</g>
</g>
<!-- Node32&#45;&gt;Node36 -->
<g id="edge47_Node000032_Node000036" class="edge">
<title>Node32&#45;&gt;Node36</title>
<g id="a_edge47_Node000032_Node000036"><a xlink:title=" ">
<path fill="none" stroke="#63b8ff" d="M529.75,-46.5C549.66,-46.5 575.49,-46.5 599.62,-46.5"/>
<polygon fill="#63b8ff" stroke="#63b8ff" points="599.83,-50 609.83,-46.5 599.83,-43 599.83,-50"/>
</a>
</g>
</g>
<!-- Node37 -->
<g id="Node000037" class="node">
<title>Node37</title>
<g id="a_Node000037"><a xlink:href="cosmo_8c.html#a9c8d61128a3d0ab4c73354d0ff8011a1" target="_top" xlink:title=" ">
<polygon fill="white" stroke="#666666" points="734,-19 610,-19 610,0 734,0 734,-19"/>
<text text-anchor="middle" x="672" y="-7" font-family="Helvetica,sans-Serif" font-size="10.00">GrowingMode_3LPT_2</text>
</a>
</g>
</g>
<!-- Node32&#45;&gt;Node37 -->
<g id="edge49_Node000032_Node000037" class="edge">
<title>Node32&#45;&gt;Node37</title>
<g id="a_edge49_Node000032_Node000037"><a xlink:title=" ">
<path fill="none" stroke="#63b8ff" d="M529.75,-39.28C554.19,-34.13 587.57,-27.09 615.74,-21.15"/>
<polygon fill="#63b8ff" stroke="#63b8ff" points="616.8,-24.5 625.86,-19.02 615.35,-17.66 616.8,-24.5"/>
</a>
</g>
</g>
<!-- Node34 -->
<g id="Node000034" class="node">
<title>Node34</title>
<g id="a_Node000034"><a xlink:href="cosmo_8c.html#a8847e5b8ea1f9c458c8bf9e5f36837a9" target="_top" xlink:title=" ">
<polygon fill="white" stroke="#666666" points="878,-93 773,-93 773,-74 878,-74 878,-93"/>
<text text-anchor="middle" x="825.5" y="-81" font-family="Helvetica,sans-Serif" font-size="10.00">InterpolateGrowth</text>
</a>
</g>
</g>
<!-- Node33&#45;&gt;Node34 -->
<g id="edge43_Node000033_Node000034" class="edge">
<title>Node33&#45;&gt;Node34</title>
<g id="a_edge43_Node000033_Node000034"><a xlink:title=" ">
<path fill="none" stroke="#63b8ff" d="M712.02,-110.97C731.38,-106.24 754.97,-100.48 775.53,-95.46"/>
<polygon fill="#63b8ff" stroke="#63b8ff" points="776.47,-98.83 785.35,-93.06 774.81,-92.03 776.47,-98.83"/>
</a>
</g>
</g>
<!-- Node34&#45;&gt;Node4 -->
<g id="edge44_Node000034_Node000004" class="edge">
<title>Node34&#45;&gt;Node4</title>
<g id="a_edge44_Node000034_Node000004"><a xlink:title=" ">
<path fill="none" stroke="#63b8ff" d="M828.7,-93.41C843.95,-162.23 934.07,-568.8 955.11,-663.7"/>
<polygon fill="#63b8ff" stroke="#63b8ff" points="951.74,-664.68 957.32,-673.68 958.58,-663.16 951.74,-664.68"/>
</a>
</g>
</g>
<!-- Node35&#45;&gt;Node34 -->
<g id="edge46_Node000035_Node000034" class="edge">
<title>Node35&#45;&gt;Node34</title>
<g id="a_edge46_Node000035_Node000034"><a xlink:title=" ">
<path fill="none" stroke="#63b8ff" d="M728.55,-83.5C739.67,-83.5 751.42,-83.5 762.74,-83.5"/>
<polygon fill="#63b8ff" stroke="#63b8ff" points="762.98,-87 772.98,-83.5 762.98,-80 762.98,-87"/>
</a>
</g>
</g>
<!-- Node36&#45;&gt;Node34 -->
<g id="edge48_Node000036_Node000034" class="edge">
<title>Node36&#45;&gt;Node34</title>
<g id="a_edge48_Node000036_Node000034"><a xlink:title=" ">
<path fill="none" stroke="#63b8ff" d="M712.02,-56.03C731.38,-60.76 754.97,-66.52 775.53,-71.54"/>
<polygon fill="#63b8ff" stroke="#63b8ff" points="774.81,-74.97 785.35,-73.94 776.47,-68.17 774.81,-74.97"/>
</a>
</g>
</g>
<!-- Node37&#45;&gt;Node34 -->
<g id="edge50_Node000037_Node000034" class="edge">
<title>Node37&#45;&gt;Node34</title>
<g id="a_edge50_Node000037_Node000034"><a xlink:title=" ">
<path fill="none" stroke="#63b8ff" d="M713.93,-19.06C721.73,-21.43 729.73,-24.24 737,-27.5 761.38,-38.44 786.85,-55.48 803.98,-67.89"/>
<polygon fill="#63b8ff" stroke="#63b8ff" points="802.01,-70.78 812.13,-73.9 806.16,-65.14 802.01,-70.78"/>
</a>
</g>
</g>
<!-- Node38&#45;&gt;Node9 -->
<g id="edge52_Node000038_Node000009" class="edge">
<title>Node38&#45;&gt;Node9</title>
<g id="a_edge52_Node000038_Node000009"><a xlink:title=" ">
<path fill="none" stroke="#63b8ff" d="M382.28,-210.62C440.88,-217.32 516.48,-233.95 571,-274.5 623.79,-313.76 653.67,-389.84 665.29,-425.36"/>
<polygon fill="#63b8ff" stroke="#63b8ff" points="661.98,-426.51 668.32,-435 668.66,-424.41 661.98,-426.51"/>
</a>
</g>
</g>
<!-- Node38&#45;&gt;Node28 -->
<g id="edge53_Node000038_Node000028" class="edge">
<title>Node38&#45;&gt;Node28</title>
<g id="a_edge53_Node000038_Node000028"><a xlink:title=" ">
<path fill="none" stroke="#63b8ff" d="M320.25,-196.91C339.18,-189.24 364.12,-177.03 382,-160.5 404.28,-139.9 393.5,-120.4 418,-102.5 420.67,-100.55 423.53,-98.79 426.5,-97.22"/>
<polygon fill="#63b8ff" stroke="#63b8ff" points="428.08,-100.35 435.73,-93.02 425.18,-93.98 428.08,-100.35"/>
</a>
</g>
</g>
<!-- Node39 -->
<g id="Node000039" class="node">
<title>Node39</title>
<g id="a_Node000039"><a xlink:href="write__mass__maps_8c.html#a54d3f54bf35c6b10c62eb34f75843afe" target="_top" xlink:title=" ">
<polygon fill="white" stroke="#666666" points="561,-141.5 428,-141.5 428,-111.5 561,-111.5 561,-141.5"/>
<text text-anchor="start" x="436" y="-129.5" font-family="Helvetica,sans-Serif" font-size="10.00">mass_maps_write_filter</text>
<text text-anchor="middle" x="494.5" y="-118.5" font-family="Helvetica,sans-Serif" font-size="10.00">_keywords</text>
</a>
</g>
</g>
<!-- Node38&#45;&gt;Node39 -->
<g id="edge54_Node000038_Node000039" class="edge">
<title>Node38&#45;&gt;Node39</title>
<g id="a_edge54_Node000038_Node000039"><a xlink:title=" ">
<path fill="none" stroke="#63b8ff" d="M312.63,-196.87C337,-185.11 380.01,-165 418,-150.5 423.06,-148.57 428.35,-146.67 433.68,-144.82"/>
<polygon fill="#63b8ff" stroke="#63b8ff" points="434.91,-148.1 443.27,-141.59 432.68,-141.47 434.91,-148.1"/>
</a>
</g>
</g>
</g>
</svg>
