<?xml version="1.0" encoding="UTF-8" standalone="no"?>
<!DOCTYPE svg PUBLIC "-//W3C//DTD SVG 1.1//EN"
 "http://www.w3.org/Graphics/SVG/1.1/DTD/svg11.dtd">
<!-- Generated by graphviz version 2.43.0 (0)
 -->
<!-- Title: WindowFunction Pages: 1 -->
<svg width="977pt" height="64pt"
 viewBox="0.00 0.00 977.00 64.00" xmlns="http://www.w3.org/2000/svg" xmlns:xlink="http://www.w3.org/1999/xlink">
<g id="graph0" class="graph" transform="scale(1 1) rotate(0) translate(4 60)">
<title>WindowFunction</title>
<!-- Node1 -->
<g id="Node000001" class="node">
<title>Node1</title>
<g id="a_Node000001"><a xlink:title=" ">
<polygon fill="#999999" stroke="#666666" points="969,-37 872,-37 872,-18 969,-18 969,-37"/>
<text text-anchor="middle" x="920.5" y="-25" font-family="Helvetica,sans-Serif" font-size="10.00">WindowFunction</text>
</a>
</g>
</g>
<!-- Node2 -->
<g id="Node000002" class="node">
<title>Node2</title>
<g id="a_Node000002"><a xlink:href="cosmo_8c.html#ac6c0324ea8a0998e51c2ed54864ef24c" target="_top" xlink:title=" ">
<polygon fill="white" stroke="#666666" points="835.5,-56 690.5,-56 690.5,-37 835.5,-37 835.5,-56"/>
<text text-anchor="middle" x="763" y="-44" font-family="Helvetica,sans-Serif" font-size="10.00">IntegrandForDisplVariance</text>
</a>
</g>
</g>
<!-- Node1&#45;&gt;Node2 -->
<g id="edge1_Node000001_Node000002" class="edge">
<title>Node1&#45;&gt;Node2</title>
<g id="a_edge1_Node000001_Node000002"><a xlink:title=" ">
<path fill="none" stroke="#63b8ff" d="M862.06,-34.52C853.42,-35.57 844.43,-36.67 835.55,-37.76"/>
<polygon fill="#63b8ff" stroke="#63b8ff" points="862.5,-37.99 872,-33.3 861.65,-31.04 862.5,-37.99"/>
</a>
</g>
</g>
<!-- Node8 -->
<g id="Node000008" class="node">
<title>Node8</title>
<g id="a_Node000008"><a xlink:href="cosmo_8c.html#acc3f98f9efcc34eeb5447d1bf317dbe8" target="_top" xlink:title=" ">
<polygon fill="white" stroke="#666666" points="836,-19 690,-19 690,0 836,0 836,-19"/>
<text text-anchor="middle" x="763" y="-7" font-family="Helvetica,sans-Serif" font-size="10.00">IntegrandForMassVariance</text>
</a>
</g>
</g>
<!-- Node1&#45;&gt;Node8 -->
<g id="edge8_Node000001_Node000008" class="edge">
<title>Node1&#45;&gt;Node8</title>
<g id="a_edge8_Node000001_Node000008"><a xlink:title=" ">
<path fill="none" stroke="#63b8ff" d="M861.94,-20.84C853.53,-19.86 844.78,-18.85 836.12,-17.85"/>
<polygon fill="#63b8ff" stroke="#63b8ff" points="861.66,-24.33 872,-22 862.47,-17.37 861.66,-24.33"/>
</a>
</g>
</g>
<!-- Node3 -->
<g id="Node000003" class="node">
<title>Node3</title>
<g id="a_Node000003"><a xlink:href="cosmo_8c.html#a19951793de40040dd4581e4f62dc70ed" target="_top" xlink:title=" ">
<polygon fill="white" stroke="#666666" points="654,-56 526,-56 526,-37 654,-37 654,-56"/>
<text text-anchor="middle" x="590" y="-44" font-family="Helvetica,sans-Serif" font-size="10.00">ComputeDisplVariance</text>
</a>
</g>
</g>
<!-- Node2&#45;&gt;Node3 -->
<g id="edge2_Node000002_Node000003" class="edge">
<title>Node2&#45;&gt;Node3</title>
<g id="a_edge2_Node000002_Node000003"><a xlink:title=" ">
<path fill="none" stroke="#63b8ff" d="M680.21,-46.5C671.43,-46.5 662.6,-46.5 654.08,-46.5"/>
<polygon fill="#63b8ff" stroke="#63b8ff" points="680.47,-50 690.47,-46.5 680.47,-43 680.47,-50"/>
</a>
</g>
</g>
<!-- Node4 -->
<g id="Node000004" class="node">
<title>Node4</title>
<g id="a_Node000004"><a xlink:href="cosmo_8c.html#a23d3873ee5e46a5db96b3d8adbb83766" target="_top" xlink:title=" ">
<polygon fill="white" stroke="#666666" points="482,-56 351,-56 351,-37 482,-37 482,-56"/>
<text text-anchor="middle" x="416.5" y="-44" font-family="Helvetica,sans-Serif" font-size="10.00">initialize_MassVariance</text>
</a>
</g>
</g>
<!-- Node3&#45;&gt;Node4 -->
<g id="edge3_Node000003_Node000004" class="edge">
<title>Node3&#45;&gt;Node4</title>
<g id="a_edge3_Node000003_Node000004"><a xlink:title=" ">
<path fill="none" stroke="#63b8ff" d="M515.51,-46.5C504.38,-46.5 492.97,-46.5 482.05,-46.5"/>
<polygon fill="#63b8ff" stroke="#63b8ff" points="515.63,-50 525.63,-46.5 515.63,-43 515.63,-50"/>
</a>
</g>
</g>
<!-- Node5 -->
<g id="Node000005" class="node">
<title>Node5</title>
<g id="a_Node000005"><a xlink:href="initialization_8c.html#a2bed034b4a40d49d0765d1ce741bd8a9" target="_top" xlink:title=" ">
<polygon fill="white" stroke="#666666" points="154,-38 77,-38 77,-19 154,-19 154,-38"/>
<text text-anchor="middle" x="115.5" y="-26" font-family="Helvetica,sans-Serif" font-size="10.00">initialization</text>
</a>
</g>
</g>
<!-- Node4&#45;&gt;Node5 -->
<g id="edge4_Node000004_Node000005" class="edge">
<title>Node4&#45;&gt;Node5</title>
<g id="a_edge4_Node000004_Node000005"><a xlink:title=" ">
<path fill="none" stroke="#63b8ff" d="M340.9,-42.01C281.45,-38.43 200.69,-33.57 154.02,-30.76"/>
<polygon fill="#63b8ff" stroke="#63b8ff" points="340.8,-45.51 350.99,-42.62 341.22,-38.52 340.8,-45.51"/>
</a>
</g>
</g>
<!-- Node7 -->
<g id="Node000007" class="node">
<title>Node7</title>
<g id="a_Node000007"><a xlink:href="cosmo_8c.html#a53b1cc7220c453661866a82f48ce0fb5" target="_top" xlink:title=" ">
<polygon fill="white" stroke="#666666" points="307,-19 190,-19 190,0 307,0 307,-19"/>
<text text-anchor="middle" x="248.5" y="-7" font-family="Helvetica,sans-Serif" font-size="10.00">initialize_cosmology</text>
</a>
</g>
</g>
<!-- Node4&#45;&gt;Node7 -->
<g id="edge6_Node000004_Node000007" class="edge">
<title>Node4&#45;&gt;Node7</title>
<g id="a_edge6_Node000004_Node000007"><a xlink:title=" ">
<path fill="none" stroke="#63b8ff" d="M362.92,-34.78C340.19,-29.71 313.92,-23.86 292.39,-19.06"/>
<polygon fill="#63b8ff" stroke="#63b8ff" points="362.23,-38.21 372.75,-36.97 363.75,-31.38 362.23,-38.21"/>
</a>
</g>
</g>
<!-- Node6 -->
<g id="Node000006" class="node">
<title>Node6</title>
<g id="a_Node000006"><a xlink:href="pinocchio_8c.html#a647f21a28344e1d9c643f4115516d7c9" target="_top" xlink:title=" ">
<polygon fill="white" stroke="#666666" points="41,-38 0,-38 0,-19 41,-19 41,-38"/>
<text text-anchor="middle" x="20.5" y="-26" font-family="Helvetica,sans-Serif" font-size="10.00">main</text>
</a>
</g>
</g>
<!-- Node5&#45;&gt;Node6 -->
<g id="edge5_Node000005_Node000006" class="edge">
<title>Node5&#45;&gt;Node6</title>
<g id="a_edge5_Node000005_Node000006"><a xlink:title=" ">
<path fill="none" stroke="#63b8ff" d="M66.73,-28.5C57.65,-28.5 48.63,-28.5 41.06,-28.5"/>
<polygon fill="#63b8ff" stroke="#63b8ff" points="66.94,-32 76.94,-28.5 66.94,-25 66.94,-32"/>
</a>
</g>
</g>
<!-- Node7&#45;&gt;Node5 -->
<g id="edge7_Node000007_Node000005" class="edge">
<title>Node7&#45;&gt;Node5</title>
<g id="a_edge7_Node000007_Node000005"><a xlink:title=" ">
<path fill="none" stroke="#63b8ff" d="M179.72,-19.33C170.91,-20.61 162.15,-21.88 154.08,-23.05"/>
<polygon fill="#63b8ff" stroke="#63b8ff" points="180.27,-22.79 189.66,-17.89 179.26,-15.86 180.27,-22.79"/>
</a>
</g>
</g>
<!-- Node9 -->
<g id="Node000009" class="node">
<title>Node9</title>
<g id="a_Node000009"><a xlink:href="cosmo_8c.html#ab20739d74ee8f4246073637e01d6a305" target="_top" xlink:title=" ">
<polygon fill="white" stroke="#666666" points="654,-19 526,-19 526,0 654,0 654,-19"/>
<text text-anchor="middle" x="590" y="-7" font-family="Helvetica,sans-Serif" font-size="10.00">ComputeMassVariance</text>
</a>
</g>
</g>
<!-- Node8&#45;&gt;Node9 -->
<g id="edge9_Node000008_Node000009" class="edge">
<title>Node8&#45;&gt;Node9</title>
<g id="a_edge9_Node000008_Node000009"><a xlink:title=" ">
<path fill="none" stroke="#63b8ff" d="M679.9,-9.5C671.28,-9.5 662.62,-9.5 654.26,-9.5"/>
<polygon fill="#63b8ff" stroke="#63b8ff" points="679.98,-13 689.98,-9.5 679.98,-6 679.98,-13"/>
</a>
</g>
</g>
<!-- Node9&#45;&gt;Node4 -->
<g id="edge10_Node000009_Node000004" class="edge">
<title>Node9&#45;&gt;Node4</title>
<g id="a_edge10_Node000009_Node000004"><a xlink:title=" ">
<path fill="none" stroke="#63b8ff" d="M534.99,-21.15C511.43,-26.23 484.15,-32.12 461.81,-36.94"/>
<polygon fill="#63b8ff" stroke="#63b8ff" points="535.8,-24.56 544.83,-19.03 534.32,-17.72 535.8,-24.56"/>
</a>
</g>
</g>
<!-- Node10 -->
<g id="Node000010" class="node">
<title>Node10</title>
<g id="a_Node000010"><a xlink:href="cosmo_8c.html#a6f4e126cbaf9d48005e02434c2605ff1" target="_top" xlink:title=" ">
<polygon fill="white" stroke="#666666" points="490,-19 343,-19 343,0 490,0 490,-19"/>
<text text-anchor="middle" x="416.5" y="-7" font-family="Helvetica,sans-Serif" font-size="10.00">normalize_PowerSpectrum</text>
</a>
</g>
</g>
<!-- Node9&#45;&gt;Node10 -->
<g id="edge11_Node000009_Node000010" class="edge">
<title>Node9&#45;&gt;Node10</title>
<g id="a_edge11_Node000009_Node000010"><a xlink:title=" ">
<path fill="none" stroke="#63b8ff" d="M515.49,-9.5C507.1,-9.5 498.55,-9.5 490.16,-9.5"/>
<polygon fill="#63b8ff" stroke="#63b8ff" points="515.63,-13 525.63,-9.5 515.63,-6 515.63,-13"/>
</a>
</g>
</g>
<!-- Node10&#45;&gt;Node7 -->
<g id="edge12_Node000010_Node000007" class="edge">
<title>Node10&#45;&gt;Node7</title>
<g id="a_edge12_Node000010_Node000007"><a xlink:title=" ">
<path fill="none" stroke="#63b8ff" d="M332.57,-9.5C323.94,-9.5 315.3,-9.5 307.04,-9.5"/>
<polygon fill="#63b8ff" stroke="#63b8ff" points="332.69,-13 342.69,-9.5 332.69,-6 332.69,-13"/>
</a>
</g>
</g>
</g>
</svg>
