<?xml version="1.0" encoding="UTF-8" standalone="no"?>
<!DOCTYPE svg PUBLIC "-//W3C//DTD SVG 1.1//EN"
 "http://www.w3.org/Graphics/SVG/1.1/DTD/svg11.dtd">
<!-- Generated by graphviz version 2.43.0 (0)
 -->
<!-- Title: AnalyticMassFunction Pages: 1 -->
<svg width="548pt" height="160pt"
 viewBox="0.00 0.00 548.00 160.26" xmlns="http://www.w3.org/2000/svg" xmlns:xlink="http://www.w3.org/1999/xlink">
<g id="graph0" class="graph" transform="scale(1 1) rotate(0) translate(4 156.26)">
<title>AnalyticMassFunction</title>
<!-- Node1 -->
<g id="Node000001" class="node">
<title>Node1</title>
<g id="a_Node000001"><a xlink:title=" ">
<polygon fill="#999999" stroke="#666666" points="123,-95 0,-95 0,-76 123,-76 123,-95"/>
<text text-anchor="middle" x="61.5" y="-83" font-family="Helvetica,sans-Serif" font-size="10.00">AnalyticMassFunction</text>
</a>
</g>
</g>
<!-- Node2 -->
<g id="Node000002" class="node">
<title>Node2</title>
<g id="a_Node000002"><a xlink:href="cosmo_8c.html#a7e6c85650740115e3cf73cca408cfc5a" target="_top" xlink:title=" ">
<polygon fill="white" stroke="#666666" points="411,-151 306,-151 306,-132 411,-132 411,-151"/>
<text text-anchor="middle" x="358.5" y="-139" font-family="Helvetica,sans-Serif" font-size="10.00">dMassVariance_dr</text>
</a>
</g>
</g>
<!-- Node1&#45;&gt;Node2 -->
<g id="edge1_Node000001_Node000002" class="edge">
<title>Node1&#45;&gt;Node2</title>
<g id="a_edge1_Node000001_Node000002"><a xlink:title=" ">
<path fill="none" stroke="#63b8ff" d="M74.35,-95.21C91.68,-108.7 125.52,-132.49 159,-141.5 203.69,-153.53 256.13,-152.94 295.88,-149.65"/>
<polygon fill="#63b8ff" stroke="#63b8ff" points="296.31,-153.13 305.96,-148.74 295.68,-146.16 296.31,-153.13"/>
</a>
</g>
</g>
<!-- Node4 -->
<g id="Node000004" class="node">
<title>Node4</title>
<g id="a_Node000004"><a xlink:href="cosmo_8c.html#a673892897db42773951bd46f397f914b" target="_top" xlink:title=" ">
<polygon fill="white" stroke="#666666" points="270,-132 159,-132 159,-113 270,-113 270,-132"/>
<text text-anchor="middle" x="214.5" y="-120" font-family="Helvetica,sans-Serif" font-size="10.00">dOmega_dVariance</text>
</a>
</g>
</g>
<!-- Node1&#45;&gt;Node4 -->
<g id="edge3_Node000001_Node000004" class="edge">
<title>Node1&#45;&gt;Node4</title>
<g id="a_edge3_Node000001_Node000004"><a xlink:title=" ">
<path fill="none" stroke="#63b8ff" d="M101.39,-95.03C120.69,-99.76 144.2,-105.52 164.69,-110.54"/>
<polygon fill="#63b8ff" stroke="#63b8ff" points="163.94,-113.96 174.48,-112.94 165.6,-107.16 163.94,-113.96"/>
</a>
</g>
</g>
<!-- Node5 -->
<g id="Node000005" class="node">
<title>Node5</title>
<g id="a_Node000005"><a xlink:href="cosmo_8c.html#a9fbcf5b69c272e801cf320cf814b23c4" target="_top" xlink:title=" ">
<polygon fill="white" stroke="#666666" points="256.5,-95 172.5,-95 172.5,-76 256.5,-76 256.5,-95"/>
<text text-anchor="middle" x="214.5" y="-83" font-family="Helvetica,sans-Serif" font-size="10.00">GrowingMode</text>
</a>
</g>
</g>
<!-- Node1&#45;&gt;Node5 -->
<g id="edge4_Node000001_Node000005" class="edge">
<title>Node1&#45;&gt;Node5</title>
<g id="a_edge4_Node000001_Node000005"><a xlink:title=" ">
<path fill="none" stroke="#63b8ff" d="M123.05,-85.5C136,-85.5 149.56,-85.5 162.12,-85.5"/>
<polygon fill="#63b8ff" stroke="#63b8ff" points="162.4,-89 172.4,-85.5 162.4,-82 162.4,-89"/>
</a>
</g>
</g>
<!-- Node7 -->
<g id="Node000007" class="node">
<title>Node7</title>
<g id="a_Node000007"><a xlink:href="cosmo_8c.html#aa47020606869257e46b3a4f9071504d0" target="_top" xlink:title=" ">
<polygon fill="white" stroke="#666666" points="400.5,-58 316.5,-58 316.5,-39 400.5,-39 400.5,-58"/>
<text text-anchor="middle" x="358.5" y="-46" font-family="Helvetica,sans-Serif" font-size="10.00">MassVariance</text>
</a>
</g>
</g>
<!-- Node1&#45;&gt;Node7 -->
<g id="edge7_Node000001_Node000007" class="edge">
<title>Node1&#45;&gt;Node7</title>
<g id="a_edge7_Node000001_Node000007"><a xlink:title=" ">
<path fill="none" stroke="#63b8ff" d="M106.05,-75.93C122.57,-72.56 141.59,-69 159,-66.5 208.79,-59.36 266.03,-54.53 306.21,-51.68"/>
<polygon fill="#63b8ff" stroke="#63b8ff" points="306.56,-55.16 316.3,-50.98 306.08,-48.18 306.56,-55.16"/>
</a>
</g>
</g>
<!-- Node8 -->
<g id="Node000008" class="node">
<title>Node8</title>
<g id="a_Node000008"><a xlink:href="cosmo_8c.html#a66b5b059ca665289d407e13f98e6ff9a" target="_top" xlink:title=" ">
<polygon fill="white" stroke="#666666" points="253,-19 176,-19 176,0 253,0 253,-19"/>
<text text-anchor="middle" x="214.5" y="-7" font-family="Helvetica,sans-Serif" font-size="10.00">SizeForMass</text>
</a>
</g>
</g>
<!-- Node1&#45;&gt;Node8 -->
<g id="edge9_Node000001_Node000008" class="edge">
<title>Node1&#45;&gt;Node8</title>
<g id="a_edge9_Node000001_Node000008"><a xlink:title=" ">
<path fill="none" stroke="#63b8ff" d="M79.37,-75.88C98.47,-65.12 130.62,-47.37 159,-33.5 166.09,-30.04 173.79,-26.5 181.12,-23.25"/>
<polygon fill="#63b8ff" stroke="#63b8ff" points="183.02,-26.24 190.78,-19.03 180.21,-19.83 183.02,-26.24"/>
</a>
</g>
</g>
<!-- Node3 -->
<g id="Node000003" class="node">
<title>Node3</title>
<g id="a_Node000003"><a xlink:href="cosmo_8c.html#a6341f5394ed17a00dc77c5519b292ae3" target="_top" xlink:title=" ">
<polygon fill="white" stroke="#666666" points="540,-95 447,-95 447,-76 540,-76 540,-95"/>
<text text-anchor="middle" x="493.5" y="-83" font-family="Helvetica,sans-Serif" font-size="10.00">my_spline_eval</text>
</a>
</g>
</g>
<!-- Node2&#45;&gt;Node3 -->
<g id="edge2_Node000002_Node000003" class="edge">
<title>Node2&#45;&gt;Node3</title>
<g id="a_edge2_Node000002_Node000003"><a xlink:title=" ">
<path fill="none" stroke="#63b8ff" d="M382.36,-131.87C403.9,-122.8 436.38,-109.13 460.5,-98.98"/>
<polygon fill="#63b8ff" stroke="#63b8ff" points="462.08,-102.11 469.93,-95 459.36,-95.66 462.08,-102.11"/>
</a>
</g>
</g>
<!-- Node6 -->
<g id="Node000006" class="node">
<title>Node6</title>
<g id="a_Node000006"><a xlink:href="cosmo_8c.html#a8847e5b8ea1f9c458c8bf9e5f36837a9" target="_top" xlink:title=" ">
<polygon fill="white" stroke="#666666" points="411,-95 306,-95 306,-76 411,-76 411,-95"/>
<text text-anchor="middle" x="358.5" y="-83" font-family="Helvetica,sans-Serif" font-size="10.00">InterpolateGrowth</text>
</a>
</g>
</g>
<!-- Node5&#45;&gt;Node6 -->
<g id="edge5_Node000005_Node000006" class="edge">
<title>Node5&#45;&gt;Node6</title>
<g id="a_edge5_Node000005_Node000006"><a xlink:title=" ">
<path fill="none" stroke="#63b8ff" d="M256.57,-85.5C268.84,-85.5 282.57,-85.5 295.86,-85.5"/>
<polygon fill="#63b8ff" stroke="#63b8ff" points="295.9,-89 305.9,-85.5 295.9,-82 295.9,-89"/>
</a>
</g>
</g>
<!-- Node6&#45;&gt;Node3 -->
<g id="edge6_Node000006_Node000003" class="edge">
<title>Node6&#45;&gt;Node3</title>
<g id="a_edge6_Node000006_Node000003"><a xlink:title=" ">
<path fill="none" stroke="#63b8ff" d="M411.3,-85.5C419.6,-85.5 428.22,-85.5 436.6,-85.5"/>
<polygon fill="#63b8ff" stroke="#63b8ff" points="436.68,-89 446.68,-85.5 436.68,-82 436.68,-89"/>
</a>
</g>
</g>
<!-- Node7&#45;&gt;Node3 -->
<g id="edge8_Node000007_Node000003" class="edge">
<title>Node7&#45;&gt;Node3</title>
<g id="a_edge8_Node000007_Node000003"><a xlink:title=" ">
<path fill="none" stroke="#63b8ff" d="M393.75,-58.03C410.22,-62.61 430.18,-68.16 447.82,-73.07"/>
<polygon fill="#63b8ff" stroke="#63b8ff" points="447.33,-76.57 457.9,-75.88 449.21,-69.82 447.33,-76.57"/>
</a>
</g>
</g>
</g>
</svg>
