<?xml version="1.0" encoding="UTF-8" standalone="no"?>
<!DOCTYPE svg PUBLIC "-//W3C//DTD SVG 1.1//EN"
 "http://www.w3.org/Graphics/SVG/1.1/DTD/svg11.dtd">
<!-- Generated by graphviz version 2.43.0 (0)
 -->
<!-- Title: condition_for_accretion Pages: 1 -->
<svg width="773pt" height="176pt"
 viewBox="0.00 0.00 773.00 176.00" xmlns="http://www.w3.org/2000/svg" xmlns:xlink="http://www.w3.org/1999/xlink">
<g id="graph0" class="graph" transform="scale(1 1) rotate(0) translate(4 172)">
<title>condition_for_accretion</title>
<!-- Node1 -->
<g id="Node000001" class="node">
<title>Node1</title>
<g id="a_Node000001"><a xlink:title=" ">
<polygon fill="#999999" stroke="#666666" points="131,-111 0,-111 0,-92 131,-92 131,-111"/>
<text text-anchor="middle" x="65.5" y="-99" font-family="Helvetica,sans-Serif" font-size="10.00">condition_for_accretion</text>
</a>
</g>
</g>
<!-- Node2 -->
<g id="Node000002" class="node">
<title>Node2</title>
<g id="a_Node000002"><a xlink:href="build__groups_8c.html#abb3276e8d440d7dc4a1d969bbae7d5a7" target="_top" xlink:title=" ">
<polygon fill="white" stroke="#666666" points="227,-168 169,-168 169,-149 227,-149 227,-168"/>
<text text-anchor="middle" x="198" y="-156" font-family="Helvetica,sans-Serif" font-size="10.00">distance</text>
</a>
</g>
</g>
<!-- Node1&#45;&gt;Node2 -->
<g id="edge1_Node000001_Node000002" class="edge">
<title>Node1&#45;&gt;Node2</title>
<g id="a_edge1_Node000001_Node000002"><a xlink:title=" ">
<path fill="none" stroke="#63b8ff" d="M88.34,-111.04C109.52,-120.29 141.85,-134.41 165.74,-144.85"/>
<polygon fill="#63b8ff" stroke="#63b8ff" points="164.52,-148.13 175.09,-148.93 167.32,-141.72 164.52,-148.13"/>
</a>
</g>
</g>
<!-- Node4 -->
<g id="Node000004" class="node">
<title>Node4</title>
<g id="a_Node000004"><a xlink:href="build__groups_8c.html#a8ca8a2e49b8887203360635eb02ee79e" target="_top" xlink:title=" ">
<polygon fill="white" stroke="#666666" points="224,-92 172,-92 172,-73 224,-73 224,-92"/>
<text text-anchor="middle" x="198" y="-80" font-family="Helvetica,sans-Serif" font-size="10.00">set_obj</text>
</a>
</g>
</g>
<!-- Node1&#45;&gt;Node4 -->
<g id="edge3_Node000001_Node000004" class="edge">
<title>Node1&#45;&gt;Node4</title>
<g id="a_edge3_Node000001_Node000004"><a xlink:title=" ">
<path fill="none" stroke="#63b8ff" d="M131.37,-92.06C141.87,-90.53 152.39,-89 161.83,-87.62"/>
<polygon fill="#63b8ff" stroke="#63b8ff" points="162.58,-91.05 171.97,-86.14 161.57,-84.12 162.58,-91.05"/>
</a>
</g>
</g>
<!-- Node12 -->
<g id="Node000012" class="node">
<title>Node12</title>
<g id="a_Node000012"><a xlink:href="build__groups_8c.html#a731742e418b2f14b59093e9849636362" target="_top" xlink:title=" ">
<polygon fill="white" stroke="#666666" points="229,-55 167,-55 167,-36 229,-36 229,-55"/>
<text text-anchor="middle" x="198" y="-43" font-family="Helvetica,sans-Serif" font-size="10.00">set_point</text>
</a>
</g>
</g>
<!-- Node1&#45;&gt;Node12 -->
<g id="edge14_Node000001_Node000012" class="edge">
<title>Node1&#45;&gt;Node12</title>
<g id="a_edge14_Node000001_Node000012"><a xlink:title=" ">
<path fill="none" stroke="#63b8ff" d="M88.93,-91.87C110.07,-82.8 141.94,-69.13 165.6,-58.98"/>
<polygon fill="#63b8ff" stroke="#63b8ff" points="167.05,-62.16 174.86,-55 164.29,-55.73 167.05,-62.16"/>
</a>
</g>
</g>
<!-- Node13 -->
<g id="Node000013" class="node">
<title>Node13</title>
<g id="a_Node000013"><a xlink:href="build__groups_8c.html#a2671fec0dc3d042fb488d38f12267cc1" target="_top" xlink:title=" ">
<polygon fill="white" stroke="#666666" points="320.5,-130 279.5,-130 279.5,-111 320.5,-111 320.5,-130"/>
<text text-anchor="middle" x="300" y="-118" font-family="Helvetica,sans-Serif" font-size="10.00">virial</text>
</a>
</g>
</g>
<!-- Node1&#45;&gt;Node13 -->
<g id="edge16_Node000001_Node000013" class="edge">
<title>Node1&#45;&gt;Node13</title>
<g id="a_edge16_Node000001_Node000013"><a xlink:title=" ">
<path fill="none" stroke="#63b8ff" d="M131.26,-106.79C176.37,-110.48 234.43,-115.22 269.07,-118.05"/>
<polygon fill="#63b8ff" stroke="#63b8ff" points="269.19,-121.58 279.45,-118.9 269.76,-114.6 269.19,-121.58"/>
</a>
</g>
</g>
<!-- Node3 -->
<g id="Node000003" class="node">
<title>Node3</title>
<g id="a_Node000003"><a xlink:href="build__groups_8c.html#af25b71527a52752ed24f02b5b4ed6d66" target="_top" xlink:title=" ">
<polygon fill="white" stroke="#666666" points="317.5,-168 282.5,-168 282.5,-149 317.5,-149 317.5,-168"/>
<text text-anchor="middle" x="300" y="-156" font-family="Helvetica,sans-Serif" font-size="10.00">q2x</text>
</a>
</g>
</g>
<!-- Node2&#45;&gt;Node3 -->
<g id="edge2_Node000002_Node000003" class="edge">
<title>Node2&#45;&gt;Node3</title>
<g id="a_edge2_Node000002_Node000003"><a xlink:title=" ">
<path fill="none" stroke="#63b8ff" d="M227.12,-158.5C241.16,-158.5 258.07,-158.5 271.96,-158.5"/>
<polygon fill="#63b8ff" stroke="#63b8ff" points="272.33,-162 282.33,-158.5 272.33,-155 272.33,-162"/>
</a>
</g>
</g>
<!-- Node5 -->
<g id="Node000005" class="node">
<title>Node5</title>
<g id="a_Node000005"><a xlink:href="build__groups_8c.html#a7d0a825b630d787e82f2aad789794b1b" target="_top" xlink:title=" ">
<polygon fill="white" stroke="#666666" points="335,-74 265,-74 265,-55 335,-55 335,-74"/>
<text text-anchor="middle" x="300" y="-62" font-family="Helvetica,sans-Serif" font-size="10.00">set_weight</text>
</a>
</g>
</g>
<!-- Node4&#45;&gt;Node5 -->
<g id="edge4_Node000004_Node000005" class="edge">
<title>Node4&#45;&gt;Node5</title>
<g id="a_edge4_Node000004_Node000005"><a xlink:title=" ">
<path fill="none" stroke="#63b8ff" d="M224.23,-77.96C233.53,-76.28 244.35,-74.34 254.83,-72.45"/>
<polygon fill="#63b8ff" stroke="#63b8ff" points="255.49,-75.89 264.71,-70.67 254.25,-69 255.49,-75.89"/>
</a>
</g>
</g>
<!-- Node6 -->
<g id="Node000006" class="node">
<title>Node6</title>
<g id="a_Node000006"><a xlink:href="cosmo_8c.html#a9fbcf5b69c272e801cf320cf814b23c4" target="_top" xlink:title=" ">
<polygon fill="white" stroke="#666666" points="475,-130 391,-130 391,-111 475,-111 475,-130"/>
<text text-anchor="middle" x="433" y="-118" font-family="Helvetica,sans-Serif" font-size="10.00">GrowingMode</text>
</a>
</g>
</g>
<!-- Node5&#45;&gt;Node6 -->
<g id="edge5_Node000005_Node000006" class="edge">
<title>Node5&#45;&gt;Node6</title>
<g id="a_edge5_Node000005_Node000006"><a xlink:title=" ">
<path fill="none" stroke="#63b8ff" d="M316.38,-74.08C330.26,-82.42 351.45,-94.41 371,-102.5 375.66,-104.43 380.61,-106.24 385.58,-107.92"/>
<polygon fill="#63b8ff" stroke="#63b8ff" points="384.52,-111.26 395.12,-110.98 386.66,-104.59 384.52,-111.26"/>
</a>
</g>
</g>
<!-- Node9 -->
<g id="Node000009" class="node">
<title>Node9</title>
<g id="a_Node000009"><a xlink:href="cosmo_8c.html#a3d4dfa13b4af53acceb7a040e2517499" target="_top" xlink:title=" ">
<polygon fill="white" stroke="#666666" points="489.5,-93 376.5,-93 376.5,-74 489.5,-74 489.5,-93"/>
<text text-anchor="middle" x="433" y="-81" font-family="Helvetica,sans-Serif" font-size="10.00">GrowingMode_2LPT</text>
</a>
</g>
</g>
<!-- Node5&#45;&gt;Node9 -->
<g id="edge8_Node000005_Node000009" class="edge">
<title>Node5&#45;&gt;Node9</title>
<g id="a_edge8_Node000005_Node000009"><a xlink:title=" ">
<path fill="none" stroke="#63b8ff" d="M335.08,-69.44C344.71,-70.84 355.54,-72.41 366.36,-73.98"/>
<polygon fill="#63b8ff" stroke="#63b8ff" points="365.88,-77.45 376.28,-75.42 366.88,-70.52 365.88,-77.45"/>
</a>
</g>
</g>
<!-- Node10 -->
<g id="Node000010" class="node">
<title>Node10</title>
<g id="a_Node000010"><a xlink:href="cosmo_8c.html#a04db96c36d31fd7c7befb810624260fc" target="_top" xlink:title=" ">
<polygon fill="white" stroke="#666666" points="495,-56 371,-56 371,-37 495,-37 495,-56"/>
<text text-anchor="middle" x="433" y="-44" font-family="Helvetica,sans-Serif" font-size="10.00">GrowingMode_3LPT_1</text>
</a>
</g>
</g>
<!-- Node5&#45;&gt;Node10 -->
<g id="edge10_Node000005_Node000010" class="edge">
<title>Node5&#45;&gt;Node10</title>
<g id="a_edge10_Node000005_Node000010"><a xlink:title=" ">
<path fill="none" stroke="#63b8ff" d="M335.08,-59.82C343.06,-58.72 351.87,-57.51 360.81,-56.28"/>
<polygon fill="#63b8ff" stroke="#63b8ff" points="361.51,-59.72 370.94,-54.89 360.55,-52.78 361.51,-59.72"/>
</a>
</g>
</g>
<!-- Node11 -->
<g id="Node000011" class="node">
<title>Node11</title>
<g id="a_Node000011"><a xlink:href="cosmo_8c.html#a9c8d61128a3d0ab4c73354d0ff8011a1" target="_top" xlink:title=" ">
<polygon fill="white" stroke="#666666" points="495,-19 371,-19 371,0 495,0 495,-19"/>
<text text-anchor="middle" x="433" y="-7" font-family="Helvetica,sans-Serif" font-size="10.00">GrowingMode_3LPT_2</text>
</a>
</g>
</g>
<!-- Node5&#45;&gt;Node11 -->
<g id="edge12_Node000005_Node000011" class="edge">
<title>Node5&#45;&gt;Node11</title>
<g id="a_edge12_Node000005_Node000011"><a xlink:title=" ">
<path fill="none" stroke="#63b8ff" d="M316.97,-54.88C330.88,-46.79 351.78,-35.33 371,-27.5 375.67,-25.6 380.62,-23.8 385.6,-22.13"/>
<polygon fill="#63b8ff" stroke="#63b8ff" points="386.68,-25.46 395.14,-19.09 384.55,-18.79 386.68,-25.46"/>
</a>
</g>
</g>
<!-- Node7 -->
<g id="Node000007" class="node">
<title>Node7</title>
<g id="a_Node000007"><a xlink:href="cosmo_8c.html#a8847e5b8ea1f9c458c8bf9e5f36837a9" target="_top" xlink:title=" ">
<polygon fill="white" stroke="#666666" points="636,-74 531,-74 531,-55 636,-55 636,-74"/>
<text text-anchor="middle" x="583.5" y="-62" font-family="Helvetica,sans-Serif" font-size="10.00">InterpolateGrowth</text>
</a>
</g>
</g>
<!-- Node6&#45;&gt;Node7 -->
<g id="edge6_Node000006_Node000007" class="edge">
<title>Node6&#45;&gt;Node7</title>
<g id="a_edge6_Node000006_Node000007"><a xlink:title=" ">
<path fill="none" stroke="#63b8ff" d="M469.08,-110.95C477.63,-108.4 486.7,-105.52 495,-102.5 514.65,-95.36 536.2,-86.03 552.99,-78.39"/>
<polygon fill="#63b8ff" stroke="#63b8ff" points="554.65,-81.48 562.28,-74.13 551.73,-75.12 554.65,-81.48"/>
</a>
</g>
</g>
<!-- Node8 -->
<g id="Node000008" class="node">
<title>Node8</title>
<g id="a_Node000008"><a xlink:href="cosmo_8c.html#a6341f5394ed17a00dc77c5519b292ae3" target="_top" xlink:title=" ">
<polygon fill="white" stroke="#666666" points="765,-74 672,-74 672,-55 765,-55 765,-74"/>
<text text-anchor="middle" x="718.5" y="-62" font-family="Helvetica,sans-Serif" font-size="10.00">my_spline_eval</text>
</a>
</g>
</g>
<!-- Node7&#45;&gt;Node8 -->
<g id="edge7_Node000007_Node000008" class="edge">
<title>Node7&#45;&gt;Node8</title>
<g id="a_edge7_Node000007_Node000008"><a xlink:title=" ">
<path fill="none" stroke="#63b8ff" d="M636.3,-64.5C644.6,-64.5 653.22,-64.5 661.6,-64.5"/>
<polygon fill="#63b8ff" stroke="#63b8ff" points="661.68,-68 671.68,-64.5 661.68,-61 661.68,-68"/>
</a>
</g>
</g>
<!-- Node9&#45;&gt;Node7 -->
<g id="edge9_Node000009_Node000007" class="edge">
<title>Node9&#45;&gt;Node7</title>
<g id="a_edge9_Node000009_Node000007"><a xlink:title=" ">
<path fill="none" stroke="#63b8ff" d="M489.72,-76.37C499.84,-75.08 510.46,-73.72 520.74,-72.4"/>
<polygon fill="#63b8ff" stroke="#63b8ff" points="521.41,-75.84 530.88,-71.1 520.52,-68.9 521.41,-75.84"/>
</a>
</g>
</g>
<!-- Node10&#45;&gt;Node7 -->
<g id="edge11_Node000010_Node000007" class="edge">
<title>Node10&#45;&gt;Node7</title>
<g id="a_edge11_Node000010_Node000007"><a xlink:title=" ">
<path fill="none" stroke="#63b8ff" d="M495.26,-53.93C503.66,-54.94 512.3,-55.99 520.72,-57.01"/>
<polygon fill="#63b8ff" stroke="#63b8ff" points="520.49,-60.51 530.84,-58.24 521.34,-53.56 520.49,-60.51"/>
</a>
</g>
</g>
<!-- Node11&#45;&gt;Node7 -->
<g id="edge13_Node000011_Node000007" class="edge">
<title>Node11&#45;&gt;Node7</title>
<g id="a_edge13_Node000011_Node000007"><a xlink:title=" ">
<path fill="none" stroke="#63b8ff" d="M468.74,-19.01C477.38,-21.58 486.58,-24.49 495,-27.5 514.34,-34.42 535.58,-43.36 552.28,-50.73"/>
<polygon fill="#63b8ff" stroke="#63b8ff" points="550.99,-53.98 561.55,-54.85 553.83,-47.59 550.99,-53.98"/>
</a>
</g>
</g>
<!-- Node12&#45;&gt;Node5 -->
<g id="edge15_Node000012_Node000005" class="edge">
<title>Node12&#45;&gt;Node5</title>
<g id="a_edge15_Node000012_Node000005"><a xlink:title=" ">
<path fill="none" stroke="#63b8ff" d="M229,-51.2C237.11,-52.74 246.05,-54.44 254.76,-56.09"/>
<polygon fill="#63b8ff" stroke="#63b8ff" points="254.33,-59.58 264.81,-58 255.64,-52.7 254.33,-59.58"/>
</a>
</g>
</g>
<!-- Node13&#45;&gt;Node6 -->
<g id="edge17_Node000013_Node000006" class="edge">
<title>Node13&#45;&gt;Node6</title>
<g id="a_edge17_Node000013_Node000006"><a xlink:title=" ">
<path fill="none" stroke="#63b8ff" d="M320.61,-120.5C336.5,-120.5 359.62,-120.5 380.69,-120.5"/>
<polygon fill="#63b8ff" stroke="#63b8ff" points="380.83,-124 390.83,-120.5 380.83,-117 380.83,-124"/>
</a>
</g>
</g>
</g>
</svg>
