<?xml version="1.0" encoding="UTF-8" standalone="no"?>
<!DOCTYPE svg PUBLIC "-//W3C//DTD SVG 1.1//EN"
 "http://www.w3.org/Graphics/SVG/1.1/DTD/svg11.dtd">
<!-- Generated by graphviz version 2.43.0 (0)
 -->
<!-- Title: get_mapup_bit Pages: 1 -->
<svg width="727pt" height="64pt"
 viewBox="0.00 0.00 727.00 64.00" xmlns="http://www.w3.org/2000/svg" xmlns:xlink="http://www.w3.org/1999/xlink">
<g id="graph0" class="graph" transform="scale(1 1) rotate(0) translate(4 60)">
<title>get_mapup_bit</title>
<!-- Node1 -->
<g id="Node000001" class="node">
<title>Node1</title>
<g id="a_Node000001"><a xlink:title=" ">
<polygon fill="#999999" stroke="#666666" points="719,-37 630,-37 630,-18 719,-18 719,-37"/>
<text text-anchor="middle" x="674.5" y="-25" font-family="Helvetica,sans-Serif" font-size="10.00">get_mapup_bit</text>
</a>
</g>
</g>
<!-- Node2 -->
<g id="Node000002" class="node">
<title>Node2</title>
<g id="a_Node000002"><a xlink:href="distribute_8c.html#afde0fc2eef0e002ff1c05d932f432484" target="_top" xlink:title=" ">
<polygon fill="white" stroke="#666666" points="594,-37 508,-37 508,-18 594,-18 594,-37"/>
<text text-anchor="middle" x="551" y="-25" font-family="Helvetica,sans-Serif" font-size="10.00">build_distmap</text>
</a>
</g>
</g>
<!-- Node1&#45;&gt;Node2 -->
<g id="edge1_Node000001_Node000002" class="edge">
<title>Node1&#45;&gt;Node2</title>
<g id="a_edge1_Node000001_Node000002"><a xlink:title=" ">
<path fill="none" stroke="#63b8ff" d="M619.76,-27.5C611.27,-27.5 602.59,-27.5 594.4,-27.5"/>
<polygon fill="#63b8ff" stroke="#63b8ff" points="619.98,-31 629.98,-27.5 619.98,-24 619.98,-31"/>
</a>
</g>
</g>
<!-- Node3 -->
<g id="Node000003" class="node">
<title>Node3</title>
<g id="a_Node000003"><a xlink:href="distribute_8c.html#a7d48a3cef549c5bda383743398e9dfb3" target="_top" xlink:title=" ">
<polygon fill="white" stroke="#666666" points="472,-56 405,-56 405,-37 472,-37 472,-56"/>
<text text-anchor="middle" x="438.5" y="-44" font-family="Helvetica,sans-Serif" font-size="10.00">keep_data</text>
</a>
</g>
</g>
<!-- Node2&#45;&gt;Node3 -->
<g id="edge2_Node000002_Node000003" class="edge">
<title>Node2&#45;&gt;Node3</title>
<g id="a_edge2_Node000002_Node000003"><a xlink:title=" ">
<path fill="none" stroke="#63b8ff" d="M497.78,-36.48C489.06,-37.98 480.24,-39.49 472.19,-40.88"/>
<polygon fill="#63b8ff" stroke="#63b8ff" points="498.65,-39.88 507.91,-34.74 497.46,-32.98 498.65,-39.88"/>
</a>
</g>
</g>
<!-- Node8 -->
<g id="Node000008" class="node">
<title>Node8</title>
<g id="a_Node000008"><a xlink:href="distribute_8c.html#a7de0d29ea4b0b2d59957cecfa394d497" target="_top" xlink:title=" ">
<polygon fill="white" stroke="#666666" points="471,-19 406,-19 406,0 471,0 471,-19"/>
<text text-anchor="middle" x="438.5" y="-7" font-family="Helvetica,sans-Serif" font-size="10.00">recv_data</text>
</a>
</g>
</g>
<!-- Node2&#45;&gt;Node8 -->
<g id="edge7_Node000002_Node000008" class="edge">
<title>Node2&#45;&gt;Node8</title>
<g id="a_edge7_Node000002_Node000008"><a xlink:title=" ">
<path fill="none" stroke="#63b8ff" d="M497.75,-18.99C488.67,-17.51 479.48,-16.01 471.16,-14.66"/>
<polygon fill="#63b8ff" stroke="#63b8ff" points="497.48,-22.49 507.91,-20.64 498.6,-15.58 497.48,-22.49"/>
</a>
</g>
</g>
<!-- Node4 -->
<g id="Node000004" class="node">
<title>Node4</title>
<g id="a_Node000004"><a xlink:href="distribute_8c.html#af6270be45d7dae978d369017a83b25cc" target="_top" xlink:title=" ">
<polygon fill="white" stroke="#666666" points="369,-37 306,-37 306,-18 369,-18 369,-37"/>
<text text-anchor="middle" x="337.5" y="-25" font-family="Helvetica,sans-Serif" font-size="10.00">distribute</text>
</a>
</g>
</g>
<!-- Node3&#45;&gt;Node4 -->
<g id="edge3_Node000003_Node000004" class="edge">
<title>Node3&#45;&gt;Node4</title>
<g id="a_edge3_Node000003_Node000004"><a xlink:title=" ">
<path fill="none" stroke="#63b8ff" d="M394.85,-38.32C386.21,-36.66 377.28,-34.94 369.14,-33.38"/>
<polygon fill="#63b8ff" stroke="#63b8ff" points="394.33,-41.78 404.81,-40.23 395.65,-34.9 394.33,-41.78"/>
</a>
</g>
</g>
<!-- Node5 -->
<g id="Node000005" class="node">
<title>Node5</title>
<g id="a_Node000005"><a xlink:href="fragment_8c.html#ac2bb250921932f90f7b0939d1181b66d" target="_top" xlink:title=" ">
<polygon fill="white" stroke="#666666" points="270,-37 208,-37 208,-18 270,-18 270,-37"/>
<text text-anchor="middle" x="239" y="-25" font-family="Helvetica,sans-Serif" font-size="10.00">fragment</text>
</a>
</g>
</g>
<!-- Node4&#45;&gt;Node5 -->
<g id="edge4_Node000004_Node000005" class="edge">
<title>Node4&#45;&gt;Node5</title>
<g id="a_edge4_Node000004_Node000005"><a xlink:title=" ">
<path fill="none" stroke="#63b8ff" d="M295.69,-27.5C287.08,-27.5 278.13,-27.5 270,-27.5"/>
<polygon fill="#63b8ff" stroke="#63b8ff" points="295.97,-31 305.97,-27.5 295.97,-24 295.97,-31"/>
</a>
</g>
</g>
<!-- Node6 -->
<g id="Node000006" class="node">
<title>Node6</title>
<g id="a_Node000006"><a xlink:href="fragment_8c.html#ae3aa75d17cbc170e60f4f48c4a2ffdf5" target="_top" xlink:title=" ">
<polygon fill="white" stroke="#666666" points="172,-37 77,-37 77,-18 172,-18 172,-37"/>
<text text-anchor="middle" x="124.5" y="-25" font-family="Helvetica,sans-Serif" font-size="10.00">fragment_driver</text>
</a>
</g>
</g>
<!-- Node5&#45;&gt;Node6 -->
<g id="edge5_Node000005_Node000006" class="edge">
<title>Node5&#45;&gt;Node6</title>
<g id="a_edge5_Node000005_Node000006"><a xlink:title=" ">
<path fill="none" stroke="#63b8ff" d="M197.73,-27.5C189.47,-27.5 180.72,-27.5 172.26,-27.5"/>
<polygon fill="#63b8ff" stroke="#63b8ff" points="197.85,-31 207.85,-27.5 197.85,-24 197.85,-31"/>
</a>
</g>
</g>
<!-- Node7 -->
<g id="Node000007" class="node">
<title>Node7</title>
<g id="a_Node000007"><a xlink:href="pinocchio_8c.html#a647f21a28344e1d9c643f4115516d7c9" target="_top" xlink:title=" ">
<polygon fill="white" stroke="#666666" points="41,-37 0,-37 0,-18 41,-18 41,-37"/>
<text text-anchor="middle" x="20.5" y="-25" font-family="Helvetica,sans-Serif" font-size="10.00">main</text>
</a>
</g>
</g>
<!-- Node6&#45;&gt;Node7 -->
<g id="edge6_Node000006_Node000007" class="edge">
<title>Node6&#45;&gt;Node7</title>
<g id="a_edge6_Node000006_Node000007"><a xlink:title=" ">
<path fill="none" stroke="#63b8ff" d="M66.91,-27.5C57.67,-27.5 48.67,-27.5 41.16,-27.5"/>
<polygon fill="#63b8ff" stroke="#63b8ff" points="66.98,-31 76.98,-27.5 66.98,-24 66.98,-31"/>
</a>
</g>
</g>
<!-- Node8&#45;&gt;Node4 -->
<g id="edge8_Node000008_Node000004" class="edge">
<title>Node8&#45;&gt;Node4</title>
<g id="a_edge8_Node000008_Node000004"><a xlink:title=" ">
<path fill="none" stroke="#63b8ff" d="M395.96,-17.05C386.97,-18.69 377.61,-20.39 369.12,-21.93"/>
<polygon fill="#63b8ff" stroke="#63b8ff" points="396.69,-20.48 405.9,-15.24 395.44,-13.59 396.69,-20.48"/>
</a>
</g>
</g>
</g>
</svg>
