<?xml version="1.0" encoding="UTF-8" standalone="no"?>
<!DOCTYPE svg PUBLIC "-//W3C//DTD SVG 1.1//EN"
 "http://www.w3.org/Graphics/SVG/1.1/DTD/svg11.dtd">
<!-- Generated by graphviz version 2.43.0 (0)
 -->
<!-- Title: GenIC_large Pages: 1 -->
<svg width="630pt" height="360pt"
 viewBox="0.00 0.00 630.00 360.00" xmlns="http://www.w3.org/2000/svg" xmlns:xlink="http://www.w3.org/1999/xlink">
<g id="graph0" class="graph" transform="scale(1 1) rotate(0) translate(4 356)">
<title>GenIC_large</title>
<!-- Node1 -->
<g id="Node000001" class="node">
<title>Node1</title>
<g id="a_Node000001"><a xlink:title=" ">
<polygon fill="#999999" stroke="#666666" points="76,-232 0,-232 0,-213 76,-213 76,-232"/>
<text text-anchor="middle" x="38" y="-220" font-family="Helvetica,sans-Serif" font-size="10.00">GenIC_large</text>
</a>
</g>
</g>
<!-- Node2 -->
<g id="Node000002" class="node">
<title>Node2</title>
<g id="a_Node000002"><a xlink:href="fmax-pfft_8c.html#a99a90623ed9b9d69b2c94df0c224faa9" target="_top" xlink:title=" ">
<polygon fill="white" stroke="#666666" points="218,-306 132,-306 132,-287 218,-287 218,-306"/>
<text text-anchor="middle" x="175" y="-294" font-family="Helvetica,sans-Serif" font-size="10.00">dump_cvector</text>
</a>
</g>
</g>
<!-- Node1&#45;&gt;Node2 -->
<g id="edge1_Node000001_Node000002" class="edge">
<title>Node1&#45;&gt;Node2</title>
<g id="a_edge1_Node000001_Node000002"><a xlink:title=" ">
<path fill="none" stroke="#63b8ff" d="M49.04,-232.19C62.39,-244.59 87.2,-265.95 112,-278.5 115.71,-280.38 119.65,-282.09 123.68,-283.65"/>
<polygon fill="#63b8ff" stroke="#63b8ff" points="122.55,-286.96 133.15,-286.99 124.88,-280.36 122.55,-286.96"/>
</a>
</g>
</g>
<!-- Node3 -->
<g id="Node000003" class="node">
<title>Node3</title>
<g id="a_Node000003"><a xlink:href="GenIC_8c.html#a8e0ddb3b581538c81e998fe22fde7108" target="_top" xlink:title=" ">
<polygon fill="white" stroke="#666666" points="227.5,-269 122.5,-269 122.5,-250 227.5,-250 227.5,-269"/>
<text text-anchor="middle" x="175" y="-257" font-family="Helvetica,sans-Serif" font-size="10.00">dump_seed_plane</text>
</a>
</g>
</g>
<!-- Node1&#45;&gt;Node3 -->
<g id="edge2_Node000001_Node000003" class="edge">
<title>Node1&#45;&gt;Node3</title>
<g id="a_edge2_Node000001_Node000003"><a xlink:title=" ">
<path fill="none" stroke="#63b8ff" d="M73.77,-232.03C90.64,-236.65 111.12,-242.27 129.15,-247.21"/>
<polygon fill="#63b8ff" stroke="#63b8ff" points="128.31,-250.61 138.88,-249.88 130.16,-243.86 128.31,-250.61"/>
</a>
</g>
</g>
<!-- Node4 -->
<g id="Node000004" class="node">
<title>Node4</title>
<g id="a_Node000004"><a xlink:href="GenIC_8c.html#af83e72f221bb7f96137494a869118451" target="_top" xlink:title=" ">
<polygon fill="white" stroke="#666666" points="238,-232 112,-232 112,-213 238,-213 238,-232"/>
<text text-anchor="middle" x="175" y="-220" font-family="Helvetica,sans-Serif" font-size="10.00">generate_seeds_plane</text>
</a>
</g>
</g>
<!-- Node1&#45;&gt;Node4 -->
<g id="edge3_Node000001_Node000004" class="edge">
<title>Node1&#45;&gt;Node4</title>
<g id="a_edge3_Node000001_Node000004"><a xlink:title=" ">
<path fill="none" stroke="#63b8ff" d="M76.25,-222.5C84.3,-222.5 93.08,-222.5 101.96,-222.5"/>
<polygon fill="#63b8ff" stroke="#63b8ff" points="102,-226 112,-222.5 102,-219 102,-226"/>
</a>
</g>
</g>
<!-- Node10 -->
<g id="Node000010" class="node">
<title>Node10</title>
<g id="a_Node000010"><a xlink:href="GenIC_8c.html#a08854ea2be1000d21b14ffc6d7679ef5" target="_top" xlink:title=" ">
<polygon fill="white" stroke="#666666" points="377.5,-167 317.5,-167 317.5,-148 377.5,-148 377.5,-167"/>
<text text-anchor="middle" x="347.5" y="-155" font-family="Helvetica,sans-Serif" font-size="10.00">quadrant</text>
</a>
</g>
</g>
<!-- Node1&#45;&gt;Node10 -->
<g id="edge20_Node000001_Node000010" class="edge">
<title>Node1&#45;&gt;Node10</title>
<g id="a_edge20_Node000001_Node000010"><a xlink:title=" ">
<path fill="none" stroke="#63b8ff" d="M76.06,-213.03C87.56,-210.18 100.28,-207.12 112,-204.5 180.38,-189.23 260.5,-173.67 307.17,-164.84"/>
<polygon fill="#63b8ff" stroke="#63b8ff" points="307.99,-168.24 317.17,-162.95 306.69,-161.36 307.99,-168.24"/>
</a>
</g>
</g>
<!-- Node13 -->
<g id="Node000013" class="node">
<title>Node13</title>
<g id="a_Node000013"><a xlink:href="cosmo_8c.html#adb3827724e24c320717073266dbfac4c" target="_top" xlink:title=" ">
<polygon fill="white" stroke="#666666" points="221.5,-93 128.5,-93 128.5,-74 221.5,-74 221.5,-93"/>
<text text-anchor="middle" x="175" y="-81" font-family="Helvetica,sans-Serif" font-size="10.00">PowerSpectrum</text>
</a>
</g>
</g>
<!-- Node1&#45;&gt;Node13 -->
<g id="edge12_Node000001_Node000013" class="edge">
<title>Node1&#45;&gt;Node13</title>
<g id="a_edge12_Node000001_Node000013"><a xlink:title=" ">
<path fill="none" stroke="#63b8ff" d="M48.28,-212.95C70.82,-189.74 128.72,-130.12 157.4,-100.6"/>
<polygon fill="#63b8ff" stroke="#63b8ff" points="160.2,-102.73 164.66,-93.12 155.18,-97.86 160.2,-102.73"/>
</a>
</g>
</g>
<!-- Node5 -->
<g id="Node000005" class="node">
<title>Node5</title>
<g id="a_Node000005"><a xlink:href="GenIC_8c.html#ac4f37dfc0a3340a3fa8137370d0bad62" target="_top" xlink:title=" ">
<polygon fill="white" stroke="#666666" points="411,-352 284,-352 284,-333 411,-333 411,-352"/>
<text text-anchor="middle" x="347.5" y="-340" font-family="Helvetica,sans-Serif" font-size="10.00">copy_seeds_subregion</text>
</a>
</g>
</g>
<!-- Node4&#45;&gt;Node5 -->
<g id="edge4_Node000004_Node000005" class="edge">
<title>Node4&#45;&gt;Node5</title>
<g id="a_edge4_Node000004_Node000005"><a xlink:title=" ">
<path fill="none" stroke="#63b8ff" d="M223.05,-232.03C228.49,-234.5 233.64,-237.6 238,-241.5 267.98,-268.3 243.31,-298.52 274,-324.5 275.36,-325.65 276.79,-326.73 278.26,-327.75"/>
<polygon fill="#63b8ff" stroke="#63b8ff" points="276.79,-330.94 287.21,-332.84 280.25,-324.85 276.79,-330.94"/>
</a>
</g>
</g>
<!-- Node6 -->
<g id="Node000006" class="node">
<title>Node6</title>
<g id="a_Node000006"><a xlink:href="GenIC_8c.html#a3001936d84070a65781394452c3c1d14" target="_top" xlink:title=" ">
<polygon fill="white" stroke="#666666" points="421,-315 274,-315 274,-296 421,-296 421,-315"/>
<text text-anchor="middle" x="347.5" y="-303" font-family="Helvetica,sans-Serif" font-size="10.00">generate_seeds_subregion</text>
</a>
</g>
</g>
<!-- Node4&#45;&gt;Node6 -->
<g id="edge5_Node000004_Node000006" class="edge">
<title>Node4&#45;&gt;Node6</title>
<g id="a_edge5_Node000004_Node000006"><a xlink:title=" ">
<path fill="none" stroke="#63b8ff" d="M219.27,-232.01C225.86,-234.5 232.34,-237.61 238,-241.5 259.4,-256.2 252.21,-273.38 274,-287.5 276.45,-289.09 279.03,-290.53 281.69,-291.85"/>
<polygon fill="#63b8ff" stroke="#63b8ff" points="280.47,-295.14 291.04,-295.87 283.23,-288.7 280.47,-295.14"/>
</a>
</g>
</g>
<!-- Node9 -->
<g id="Node000009" class="node">
<title>Node9</title>
<g id="a_Node000009"><a xlink:href="GenIC_8c.html#aa7958440b1decb2373adf2e5f86908b3" target="_top" xlink:title=" ">
<polygon fill="white" stroke="#666666" points="409,-278 286,-278 286,-259 409,-259 409,-278"/>
<text text-anchor="middle" x="347.5" y="-266" font-family="Helvetica,sans-Serif" font-size="10.00">get_plane_subregions</text>
</a>
</g>
</g>
<!-- Node4&#45;&gt;Node9 -->
<g id="edge8_Node000004_Node000009" class="edge">
<title>Node4&#45;&gt;Node9</title>
<g id="a_edge8_Node000004_Node000009"><a xlink:title=" ">
<path fill="none" stroke="#63b8ff" d="M208.59,-232.12C227.62,-237.66 252.12,-244.66 274,-250.5 281.49,-252.5 289.43,-254.55 297.21,-256.51"/>
<polygon fill="#63b8ff" stroke="#63b8ff" points="296.38,-259.91 306.93,-258.94 298.08,-253.12 296.38,-259.91"/>
</a>
</g>
</g>
<!-- Node4&#45;&gt;Node10 -->
<g id="edge9_Node000004_Node000010" class="edge">
<title>Node4&#45;&gt;Node10</title>
<g id="a_edge9_Node000004_Node000010"><a xlink:title=" ">
<path fill="none" stroke="#63b8ff" d="M194,-212.83C213.34,-202.73 245.2,-186.94 274,-176.5 284.68,-172.63 296.5,-169.19 307.45,-166.34"/>
<polygon fill="#63b8ff" stroke="#63b8ff" points="308.35,-169.72 317.2,-163.89 306.65,-162.93 308.35,-169.72"/>
</a>
</g>
</g>
<!-- Node11 -->
<g id="Node000011" class="node">
<title>Node11</title>
<g id="a_Node000011"><a xlink:href="GenIC_8c.html#a255d2c165e83af520628e77faa4d0b8d" target="_top" xlink:title=" ">
<polygon fill="white" stroke="#666666" points="381,-241 314,-241 314,-222 381,-222 381,-241"/>
<text text-anchor="middle" x="347.5" y="-229" font-family="Helvetica,sans-Serif" font-size="10.00">symmetry</text>
</a>
</g>
</g>
<!-- Node4&#45;&gt;Node11 -->
<g id="edge10_Node000004_Node000011" class="edge">
<title>Node4&#45;&gt;Node11</title>
<g id="a_edge10_Node000004_Node000011"><a xlink:title=" ">
<path fill="none" stroke="#63b8ff" d="M238.04,-225.77C259.93,-226.93 284.03,-228.2 303.94,-229.25"/>
<polygon fill="#63b8ff" stroke="#63b8ff" points="303.77,-232.75 313.94,-229.78 304.14,-225.76 303.77,-232.75"/>
</a>
</g>
</g>
<!-- Node12 -->
<g id="Node000012" class="node">
<title>Node12</title>
<g id="a_Node000012"><a xlink:href="GenIC_8c.html#a102bf0015048ef1f5aa4dfdb3b98c244" target="_top" xlink:title=" ">
<polygon fill="white" stroke="#666666" points="406.5,-204 288.5,-204 288.5,-185 406.5,-185 406.5,-204"/>
<text text-anchor="middle" x="347.5" y="-192" font-family="Helvetica,sans-Serif" font-size="10.00">transpose_subregion</text>
</a>
</g>
</g>
<!-- Node4&#45;&gt;Node12 -->
<g id="edge11_Node000004_Node000012" class="edge">
<title>Node4&#45;&gt;Node12</title>
<g id="a_edge11_Node000004_Node000012"><a xlink:title=" ">
<path fill="none" stroke="#63b8ff" d="M234.2,-212.94C248.47,-210.6 263.86,-208.07 278.54,-205.66"/>
<polygon fill="#63b8ff" stroke="#63b8ff" points="279.26,-209.09 288.56,-204.01 278.13,-202.18 279.26,-209.09"/>
</a>
</g>
</g>
<!-- Node7 -->
<g id="Node000007" class="node">
<title>Node7</title>
<g id="a_Node000007"><a xlink:href="GenIC_8c.html#a8c56fa39fb49a9db9972c7484b538dab" target="_top" xlink:title=" ">
<polygon fill="white" stroke="#666666" points="557,-333 457,-333 457,-314 557,-314 557,-333"/>
<text text-anchor="middle" x="507" y="-321" font-family="Helvetica,sans-Serif" font-size="10.00">cmp_map_points</text>
</a>
</g>
</g>
<!-- Node6&#45;&gt;Node7 -->
<g id="edge6_Node000006_Node000007" class="edge">
<title>Node6&#45;&gt;Node7</title>
<g id="a_edge6_Node000006_Node000007"><a xlink:title=" ">
<path fill="none" stroke="#63b8ff" d="M421.26,-313.82C429.85,-314.8 438.54,-315.79 446.92,-316.75"/>
<polygon fill="#63b8ff" stroke="#63b8ff" points="446.61,-320.24 456.95,-317.89 447.41,-313.28 446.61,-320.24"/>
</a>
</g>
</g>
<!-- Node8 -->
<g id="Node000008" class="node">
<title>Node8</title>
<g id="a_Node000008"><a xlink:href="GenIC_8c.html#ad0a445cf14ffdf7ca488dadcc381e1df" target="_top" xlink:title=" ">
<polygon fill="white" stroke="#666666" points="536.5,-296 477.5,-296 477.5,-277 536.5,-277 536.5,-296"/>
<text text-anchor="middle" x="507" y="-284" font-family="Helvetica,sans-Serif" font-size="10.00">get_map</text>
</a>
</g>
</g>
<!-- Node6&#45;&gt;Node8 -->
<g id="edge7_Node000006_Node000008" class="edge">
<title>Node6&#45;&gt;Node8</title>
<g id="a_edge7_Node000006_Node000008"><a xlink:title=" ">
<path fill="none" stroke="#63b8ff" d="M421.26,-296.72C437.06,-294.82 453.18,-292.87 467.06,-291.2"/>
<polygon fill="#63b8ff" stroke="#63b8ff" points="467.69,-294.65 477.2,-289.97 466.86,-287.7 467.69,-294.65"/>
</a>
</g>
</g>
<!-- Node14 -->
<g id="Node000014" class="node">
<title>Node14</title>
<g id="a_Node000014"><a xlink:href="cosmo_8c.html#a27427d60987e3e074ad1d7215080dc69" target="_top" xlink:title=" ">
<polygon fill="white" stroke="#666666" points="410,-130 285,-130 285,-111 410,-111 410,-130"/>
<text text-anchor="middle" x="347.5" y="-118" font-family="Helvetica,sans-Serif" font-size="10.00">PowerSpec_Efstathiou</text>
</a>
</g>
</g>
<!-- Node13&#45;&gt;Node14 -->
<g id="edge13_Node000013_Node000014" class="edge">
<title>Node13&#45;&gt;Node14</title>
<g id="a_edge13_Node000013_Node000014"><a xlink:title=" ">
<path fill="none" stroke="#63b8ff" d="M219.91,-93.03C242.1,-97.84 269.21,-103.73 292.65,-108.81"/>
<polygon fill="#63b8ff" stroke="#63b8ff" points="291.93,-112.24 302.44,-110.94 293.41,-105.4 291.93,-112.24"/>
</a>
</g>
</g>
<!-- Node15 -->
<g id="Node000015" class="node">
<title>Node15</title>
<g id="a_Node000015"><a xlink:href="cosmo_8c.html#a4b4d5c5ca327f59df1eba21a73e62113" target="_top" xlink:title=" ">
<polygon fill="white" stroke="#666666" points="392,-93 303,-93 303,-74 392,-74 392,-93"/>
<text text-anchor="middle" x="347.5" y="-81" font-family="Helvetica,sans-Serif" font-size="10.00">PowerSpec_EH</text>
</a>
</g>
</g>
<!-- Node13&#45;&gt;Node15 -->
<g id="edge14_Node000013_Node000015" class="edge">
<title>Node13&#45;&gt;Node15</title>
<g id="a_edge14_Node000013_Node000015"><a xlink:title=" ">
<path fill="none" stroke="#63b8ff" d="M221.69,-83.5C243.5,-83.5 269.76,-83.5 292.54,-83.5"/>
<polygon fill="#63b8ff" stroke="#63b8ff" points="292.74,-87 302.74,-83.5 292.74,-80 292.74,-87"/>
</a>
</g>
</g>
<!-- Node18 -->
<g id="Node000018" class="node">
<title>Node18</title>
<g id="a_Node000018"><a xlink:href="cosmo_8c.html#a6d04017af6090db607768f47976b88b8" target="_top" xlink:title=" ">
<polygon fill="white" stroke="#666666" points="410,-56 285,-56 285,-37 410,-37 410,-56"/>
<text text-anchor="middle" x="347.5" y="-44" font-family="Helvetica,sans-Serif" font-size="10.00">PowerSpec_PowerLaw</text>
</a>
</g>
</g>
<!-- Node13&#45;&gt;Node18 -->
<g id="edge17_Node000013_Node000018" class="edge">
<title>Node13&#45;&gt;Node18</title>
<g id="a_edge17_Node000013_Node000018"><a xlink:title=" ">
<path fill="none" stroke="#63b8ff" d="M219.91,-73.97C242.1,-69.16 269.21,-63.27 292.65,-58.19"/>
<polygon fill="#63b8ff" stroke="#63b8ff" points="293.41,-61.6 302.44,-56.06 291.93,-54.76 293.41,-61.6"/>
</a>
</g>
</g>
<!-- Node19 -->
<g id="Node000019" class="node">
<title>Node19</title>
<g id="a_Node000019"><a xlink:href="cosmo_8c.html#a428d6d001b5eb57f3f17d85699dd67f5" target="_top" xlink:title=" ">
<polygon fill="white" stroke="#666666" points="408.5,-19 286.5,-19 286.5,0 408.5,0 408.5,-19"/>
<text text-anchor="middle" x="347.5" y="-7" font-family="Helvetica,sans-Serif" font-size="10.00">PowerSpec_Tabulated</text>
</a>
</g>
</g>
<!-- Node13&#45;&gt;Node19 -->
<g id="edge18_Node000013_Node000019" class="edge">
<title>Node13&#45;&gt;Node19</title>
<g id="a_edge18_Node000013_Node000019"><a xlink:title=" ">
<path fill="none" stroke="#63b8ff" d="M189.98,-73.85C208.45,-61.5 242.35,-40.19 274,-27.5 279.12,-25.45 284.53,-23.58 290.01,-21.9"/>
<polygon fill="#63b8ff" stroke="#63b8ff" points="291.23,-25.19 299.87,-19.06 289.29,-18.46 291.23,-25.19"/>
</a>
</g>
</g>
<!-- Node16 -->
<g id="Node000016" class="node">
<title>Node16</title>
<g id="a_Node000016"><a xlink:href="cosmo_8c.html#a5c6dbdd7fd7c206feb0554bc93b2436c" target="_top" xlink:title=" ">
<polygon fill="white" stroke="#666666" points="539,-93 475,-93 475,-74 539,-74 539,-93"/>
<text text-anchor="middle" x="507" y="-81" font-family="Helvetica,sans-Serif" font-size="10.00">transf_EH</text>
</a>
</g>
</g>
<!-- Node15&#45;&gt;Node16 -->
<g id="edge15_Node000015_Node000016" class="edge">
<title>Node15&#45;&gt;Node16</title>
<g id="a_edge15_Node000015_Node000016"><a xlink:title=" ">
<path fill="none" stroke="#63b8ff" d="M392.37,-83.5C415,-83.5 442.45,-83.5 464.7,-83.5"/>
<polygon fill="#63b8ff" stroke="#63b8ff" points="464.84,-87 474.84,-83.5 464.84,-80 464.84,-87"/>
</a>
</g>
</g>
<!-- Node17 -->
<g id="Node000017" class="node">
<title>Node17</title>
<g id="a_Node000017"><a xlink:href="cosmo_8c.html#a57dfb02fcd17e35fad40c836ba4d4160" target="_top" xlink:title=" ">
<polygon fill="white" stroke="#666666" points="622,-93 593,-93 593,-74 622,-74 622,-93"/>
<text text-anchor="middle" x="607.5" y="-81" font-family="Helvetica,sans-Serif" font-size="10.00">T0</text>
</a>
</g>
</g>
<!-- Node16&#45;&gt;Node17 -->
<g id="edge16_Node000016_Node000017" class="edge">
<title>Node16&#45;&gt;Node17</title>
<g id="a_edge16_Node000016_Node000017"><a xlink:title=" ">
<path fill="none" stroke="#63b8ff" d="M539.17,-83.5C553.26,-83.5 569.64,-83.5 582.72,-83.5"/>
<polygon fill="#63b8ff" stroke="#63b8ff" points="582.8,-87 592.8,-83.5 582.8,-80 582.8,-87"/>
</a>
</g>
</g>
<!-- Node20 -->
<g id="Node000020" class="node">
<title>Node20</title>
<g id="a_Node000020"><a xlink:href="cosmo_8c.html#a6341f5394ed17a00dc77c5519b292ae3" target="_top" xlink:title=" ">
<polygon fill="white" stroke="#666666" points="553.5,-19 460.5,-19 460.5,0 553.5,0 553.5,-19"/>
<text text-anchor="middle" x="507" y="-7" font-family="Helvetica,sans-Serif" font-size="10.00">my_spline_eval</text>
</a>
</g>
</g>
<!-- Node19&#45;&gt;Node20 -->
<g id="edge19_Node000019_Node000020" class="edge">
<title>Node19&#45;&gt;Node20</title>
<g id="a_edge19_Node000019_Node000020"><a xlink:title=" ">
<path fill="none" stroke="#63b8ff" d="M408.94,-9.5C422.36,-9.5 436.53,-9.5 449.77,-9.5"/>
<polygon fill="#63b8ff" stroke="#63b8ff" points="450.15,-13 460.15,-9.5 450.15,-6 450.15,-13"/>
</a>
</g>
</g>
</g>
</svg>
