<?xml version="1.0" encoding="UTF-8" standalone="no"?>
<!DOCTYPE svg PUBLIC "-//W3C//DTD SVG 1.1//EN"
 "http://www.w3.org/Graphics/SVG/1.1/DTD/svg11.dtd">
<!-- Generated by graphviz version 2.43.0 (0)
 -->
<!-- Title: compute_collapse_times Pages: 1 -->
<svg width="1136pt" height="157pt"
 viewBox="0.00 0.00 1136.00 157.00" xmlns="http://www.w3.org/2000/svg" xmlns:xlink="http://www.w3.org/1999/xlink">
<g id="graph0" class="graph" transform="scale(1 1) rotate(0) translate(4 153)">
<title>compute_collapse_times</title>
<!-- Node1 -->
<g id="Node000001" class="node">
<title>Node1</title>
<g id="a_Node000001"><a xlink:title=" ">
<polygon fill="#999999" stroke="#666666" points="138,-37 0,-37 0,-18 138,-18 138,-37"/>
<text text-anchor="middle" x="69" y="-25" font-family="Helvetica,sans-Serif" font-size="10.00">compute_collapse_times</text>
</a>
</g>
</g>
<!-- Node2 -->
<g id="Node000002" class="node">
<title>Node2</title>
<g id="a_Node000002"><a xlink:href="collapse__times_8c.html#a6b93e952f9a470157498b9a72ea1e22f" target="_top" xlink:title=" ">
<polygon fill="white" stroke="#666666" points="300,-37 174,-37 174,-18 300,-18 300,-37"/>
<text text-anchor="middle" x="237" y="-25" font-family="Helvetica,sans-Serif" font-size="10.00">inverse_collapse_time</text>
</a>
</g>
</g>
<!-- Node1&#45;&gt;Node2 -->
<g id="edge1_Node000001_Node000002" class="edge">
<title>Node1&#45;&gt;Node2</title>
<g id="a_edge1_Node000001_Node000002"><a xlink:title=" ">
<path fill="none" stroke="#63b8ff" d="M138.48,-27.5C146.79,-27.5 155.31,-27.5 163.68,-27.5"/>
<polygon fill="#63b8ff" stroke="#63b8ff" points="163.8,-31 173.8,-27.5 163.8,-24 163.8,-31"/>
</a>
</g>
</g>
<!-- Node3 -->
<g id="Node000003" class="node">
<title>Node3</title>
<g id="a_Node000003"><a xlink:href="collapse__times_8c.html#a17f64ed25a27688514593ecaed77105a" target="_top" xlink:title=" ">
<polygon fill="white" stroke="#666666" points="366.5,-56 337.5,-56 337.5,-37 366.5,-37 366.5,-56"/>
<text text-anchor="middle" x="352" y="-44" font-family="Helvetica,sans-Serif" font-size="10.00">ell</text>
</a>
</g>
</g>
<!-- Node2&#45;&gt;Node3 -->
<g id="edge2_Node000002_Node000003" class="edge">
<title>Node2&#45;&gt;Node3</title>
<g id="a_edge2_Node000002_Node000003"><a xlink:title=" ">
<path fill="none" stroke="#63b8ff" d="M294.83,-37.06C306.33,-38.99 317.81,-40.92 327.37,-42.53"/>
<polygon fill="#63b8ff" stroke="#63b8ff" points="326.8,-45.98 337.24,-44.19 327.96,-39.08 326.8,-45.98"/>
</a>
</g>
</g>
<!-- Node15 -->
<g id="Node000015" class="node">
<title>Node15</title>
<g id="a_Node000015"><a xlink:href="collapse__times_8c.html#a17760c8d2a293bcd4a0e8d99444e13ad" target="_top" xlink:title=" ">
<polygon fill="white" stroke="#666666" points="368,-19 336,-19 336,0 368,0 368,-19"/>
<text text-anchor="middle" x="352" y="-7" font-family="Helvetica,sans-Serif" font-size="10.00">ord</text>
</a>
</g>
</g>
<!-- Node2&#45;&gt;Node15 -->
<g id="edge17_Node000002_Node000015" class="edge">
<title>Node2&#45;&gt;Node15</title>
<g id="a_edge17_Node000002_Node000015"><a xlink:title=" ">
<path fill="none" stroke="#63b8ff" d="M297.81,-17.97C307.67,-16.4 317.4,-14.85 325.79,-13.52"/>
<polygon fill="#63b8ff" stroke="#63b8ff" points="326.61,-16.93 335.94,-11.9 325.51,-10.02 326.61,-16.93"/>
</a>
</g>
</g>
<!-- Node4 -->
<g id="Node000004" class="node">
<title>Node4</title>
<g id="a_Node000004"><a xlink:href="collapse__times_8c.html#a5a4ca2ffca6643912e7efcad849494a8" target="_top" xlink:title=" ">
<polygon fill="white" stroke="#666666" points="455,-93 404,-93 404,-74 455,-74 455,-93"/>
<text text-anchor="middle" x="429.5" y="-81" font-family="Helvetica,sans-Serif" font-size="10.00">ell_sng</text>
</a>
</g>
</g>
<!-- Node3&#45;&gt;Node4 -->
<g id="edge3_Node000003_Node000004" class="edge">
<title>Node3&#45;&gt;Node4</title>
<g id="a_edge3_Node000003_Node000004"><a xlink:title=" ">
<path fill="none" stroke="#63b8ff" d="M366.85,-53.29C376.09,-57.82 388.59,-63.94 399.91,-69.49"/>
<polygon fill="#63b8ff" stroke="#63b8ff" points="398.53,-72.71 409.05,-73.97 401.61,-66.43 398.53,-72.71"/>
</a>
</g>
</g>
<!-- Node14 -->
<g id="Node000014" class="node">
<title>Node14</title>
<g id="a_Node000014"><a xlink:href="cosmo_8c.html#a24fd82c25ab80c71b0db9342e53891c3" target="_top" xlink:title=" ">
<polygon fill="white" stroke="#666666" points="858,-42 738,-42 738,-23 858,-23 858,-42"/>
<text text-anchor="middle" x="798" y="-30" font-family="Helvetica,sans-Serif" font-size="10.00">InverseGrowingMode</text>
</a>
</g>
</g>
<!-- Node3&#45;&gt;Node14 -->
<g id="edge15_Node000003_Node000014" class="edge">
<title>Node3&#45;&gt;Node14</title>
<g id="a_edge15_Node000003_Node000014"><a xlink:title=" ">
<path fill="none" stroke="#63b8ff" d="M366.77,-46.07C420.8,-44.36 620.51,-38.06 727.79,-34.68"/>
<polygon fill="#63b8ff" stroke="#63b8ff" points="727.99,-38.18 737.87,-34.36 727.77,-31.18 727.99,-38.18"/>
</a>
</g>
</g>
<!-- Node5 -->
<g id="Node000005" class="node">
<title>Node5</title>
<g id="a_Node000005"><a xlink:href="cosmo_8c.html#a9fbcf5b69c272e801cf320cf814b23c4" target="_top" xlink:title=" ">
<polygon fill="white" stroke="#666666" points="575,-149 491,-149 491,-130 575,-130 575,-149"/>
<text text-anchor="middle" x="533" y="-137" font-family="Helvetica,sans-Serif" font-size="10.00">GrowingMode</text>
</a>
</g>
</g>
<!-- Node4&#45;&gt;Node5 -->
<g id="edge4_Node000004_Node000005" class="edge">
<title>Node4&#45;&gt;Node5</title>
<g id="a_edge4_Node000004_Node000005"><a xlink:title=" ">
<path fill="none" stroke="#63b8ff" d="M444.57,-93.17C456.61,-101.24 474.56,-112.79 491,-121.5 493.73,-122.95 496.6,-124.38 499.5,-125.76"/>
<polygon fill="#63b8ff" stroke="#63b8ff" points="498.18,-129.01 508.73,-129.99 501.1,-122.65 498.18,-129.01"/>
</a>
</g>
</g>
<!-- Node8 -->
<g id="Node000008" class="node">
<title>Node8</title>
<g id="a_Node000008"><a xlink:href="cosmo_8c.html#a90c59eea1bc597d21ec511441cc3c925" target="_top" xlink:title=" ">
<polygon fill="white" stroke="#666666" points="548.5,-112 517.5,-112 517.5,-93 548.5,-93 548.5,-112"/>
<text text-anchor="middle" x="533" y="-100" font-family="Helvetica,sans-Serif" font-size="10.00">jac</text>
</a>
</g>
</g>
<!-- Node4&#45;&gt;Node8 -->
<g id="edge7_Node000004_Node000008" class="edge">
<title>Node4&#45;&gt;Node8</title>
<g id="a_edge7_Node000004_Node000008"><a xlink:title=" ">
<path fill="none" stroke="#63b8ff" d="M455.07,-88.1C470.9,-91.06 491.4,-94.9 507.26,-97.87"/>
<polygon fill="#63b8ff" stroke="#63b8ff" points="506.91,-101.36 517.38,-99.76 508.2,-94.48 506.91,-101.36"/>
</a>
</g>
</g>
<!-- Node9 -->
<g id="Node000009" class="node">
<title>Node9</title>
<g id="a_Node000009"><a xlink:href="collapse__times_8c.html#a16072c1c54a0bc722718884b29bd0409" target="_top" xlink:title=" ">
<polygon fill="white" stroke="#666666" points="570.5,-75 495.5,-75 495.5,-56 570.5,-56 570.5,-75"/>
<text text-anchor="middle" x="533" y="-63" font-family="Helvetica,sans-Serif" font-size="10.00">sng_system</text>
</a>
</g>
</g>
<!-- Node4&#45;&gt;Node9 -->
<g id="edge8_Node000004_Node000009" class="edge">
<title>Node4&#45;&gt;Node9</title>
<g id="a_edge8_Node000004_Node000009"><a xlink:title=" ">
<path fill="none" stroke="#63b8ff" d="M455.07,-79.14C464.23,-77.52 474.95,-75.62 485.44,-73.76"/>
<polygon fill="#63b8ff" stroke="#63b8ff" points="486.13,-77.19 495.36,-72 484.9,-70.3 486.13,-77.19"/>
</a>
</g>
</g>
<!-- Node6 -->
<g id="Node000006" class="node">
<title>Node6</title>
<g id="a_Node000006"><a xlink:href="cosmo_8c.html#a8847e5b8ea1f9c458c8bf9e5f36837a9" target="_top" xlink:title=" ">
<polygon fill="white" stroke="#666666" points="999,-147 894,-147 894,-128 999,-128 999,-147"/>
<text text-anchor="middle" x="946.5" y="-135" font-family="Helvetica,sans-Serif" font-size="10.00">InterpolateGrowth</text>
</a>
</g>
</g>
<!-- Node5&#45;&gt;Node6 -->
<g id="edge5_Node000005_Node000006" class="edge">
<title>Node5&#45;&gt;Node6</title>
<g id="a_edge5_Node000005_Node000006"><a xlink:title=" ">
<path fill="none" stroke="#63b8ff" d="M575.34,-139.3C648,-138.95 798.94,-138.21 883.92,-137.8"/>
<polygon fill="#63b8ff" stroke="#63b8ff" points="883.96,-141.3 893.95,-137.75 883.93,-134.3 883.96,-141.3"/>
</a>
</g>
</g>
<!-- Node7 -->
<g id="Node000007" class="node">
<title>Node7</title>
<g id="a_Node000007"><a xlink:href="cosmo_8c.html#a6341f5394ed17a00dc77c5519b292ae3" target="_top" xlink:title=" ">
<polygon fill="white" stroke="#666666" points="1128,-107 1035,-107 1035,-88 1128,-88 1128,-107"/>
<text text-anchor="middle" x="1081.5" y="-95" font-family="Helvetica,sans-Serif" font-size="10.00">my_spline_eval</text>
</a>
</g>
</g>
<!-- Node6&#45;&gt;Node7 -->
<g id="edge6_Node000006_Node000007" class="edge">
<title>Node6&#45;&gt;Node7</title>
<g id="a_edge6_Node000006_Node000007"><a xlink:title=" ">
<path fill="none" stroke="#63b8ff" d="M979.36,-127.92C997.29,-122.53 1019.88,-115.73 1039.16,-109.93"/>
<polygon fill="#63b8ff" stroke="#63b8ff" points="1040.33,-113.23 1048.9,-107 1038.32,-106.53 1040.33,-113.23"/>
</a>
</g>
</g>
<!-- Node10 -->
<g id="Node000010" class="node">
<title>Node10</title>
<g id="a_Node000010"><a xlink:href="cosmo_8c.html#abe72f217a5a4d0aadeba3d2c733128fb" target="_top" xlink:title=" ">
<polygon fill="white" stroke="#666666" points="702,-112 611,-112 611,-93 702,-93 702,-112"/>
<text text-anchor="middle" x="656.5" y="-100" font-family="Helvetica,sans-Serif" font-size="10.00">OmegaLambda</text>
</a>
</g>
</g>
<!-- Node9&#45;&gt;Node10 -->
<g id="edge9_Node000009_Node000010" class="edge">
<title>Node9&#45;&gt;Node10</title>
<g id="a_edge9_Node000009_Node000010"><a xlink:title=" ">
<path fill="none" stroke="#63b8ff" d="M565.29,-75.03C580.2,-79.57 598.22,-85.06 614.23,-89.93"/>
<polygon fill="#63b8ff" stroke="#63b8ff" points="613.31,-93.31 623.89,-92.88 615.35,-86.61 613.31,-93.31"/>
</a>
</g>
</g>
<!-- Node13 -->
<g id="Node000013" class="node">
<title>Node13</title>
<g id="a_Node000013"><a xlink:href="cosmo_8c.html#a4cb3653cf2125654f8b70d14b2a08dc8" target="_top" xlink:title=" ">
<polygon fill="white" stroke="#666666" points="698.5,-75 614.5,-75 614.5,-56 698.5,-56 698.5,-75"/>
<text text-anchor="middle" x="656.5" y="-63" font-family="Helvetica,sans-Serif" font-size="10.00">OmegaMatter</text>
</a>
</g>
</g>
<!-- Node9&#45;&gt;Node13 -->
<g id="edge13_Node000009_Node000013" class="edge">
<title>Node9&#45;&gt;Node13</title>
<g id="a_edge13_Node000009_Node000013"><a xlink:title=" ">
<path fill="none" stroke="#63b8ff" d="M570.78,-65.5C581.26,-65.5 592.88,-65.5 604.06,-65.5"/>
<polygon fill="#63b8ff" stroke="#63b8ff" points="604.17,-69 614.17,-65.5 604.17,-62 604.17,-69"/>
</a>
</g>
</g>
<!-- Node11 -->
<g id="Node000011" class="node">
<title>Node11</title>
<g id="a_Node000011"><a xlink:href="cosmo_8c.html#a23ab46a1787abb61a8685d7c8f06cdd4" target="_top" xlink:title=" ">
<polygon fill="white" stroke="#666666" points="812.5,-107 783.5,-107 783.5,-88 812.5,-88 812.5,-107"/>
<text text-anchor="middle" x="798" y="-95" font-family="Helvetica,sans-Serif" font-size="10.00">Ez</text>
</a>
</g>
</g>
<!-- Node10&#45;&gt;Node11 -->
<g id="edge10_Node000010_Node000011" class="edge">
<title>Node10&#45;&gt;Node11</title>
<g id="a_edge10_Node000010_Node000011"><a xlink:title=" ">
<path fill="none" stroke="#63b8ff" d="M702.02,-100.9C725.59,-100.06 753.61,-99.06 773.08,-98.36"/>
<polygon fill="#63b8ff" stroke="#63b8ff" points="773.33,-101.85 783.19,-97.99 773.08,-94.86 773.33,-101.85"/>
</a>
</g>
</g>
<!-- Node12 -->
<g id="Node000012" class="node">
<title>Node12</title>
<g id="a_Node000012"><a xlink:href="cosmo_8c.html#a911e9ce363c4662ce531c65885519f7a" target="_top" xlink:title=" ">
<polygon fill="white" stroke="#666666" points="972,-107 921,-107 921,-88 972,-88 972,-107"/>
<text text-anchor="middle" x="946.5" y="-95" font-family="Helvetica,sans-Serif" font-size="10.00">Hubble</text>
</a>
</g>
</g>
<!-- Node11&#45;&gt;Node12 -->
<g id="edge11_Node000011_Node000012" class="edge">
<title>Node11&#45;&gt;Node12</title>
<g id="a_edge11_Node000011_Node000012"><a xlink:title=" ">
<path fill="none" stroke="#63b8ff" d="M812.52,-97.5C834.67,-97.5 879.35,-97.5 910.79,-97.5"/>
<polygon fill="#63b8ff" stroke="#63b8ff" points="910.9,-101 920.9,-97.5 910.9,-94 910.9,-101"/>
</a>
</g>
</g>
<!-- Node12&#45;&gt;Node7 -->
<g id="edge12_Node000012_Node000007" class="edge">
<title>Node12&#45;&gt;Node7</title>
<g id="a_edge12_Node000012_Node000007"><a xlink:title=" ">
<path fill="none" stroke="#63b8ff" d="M972.2,-97.5C987.04,-97.5 1006.53,-97.5 1024.89,-97.5"/>
<polygon fill="#63b8ff" stroke="#63b8ff" points="1024.94,-101 1034.94,-97.5 1024.94,-94 1024.94,-101"/>
</a>
</g>
</g>
<!-- Node13&#45;&gt;Node11 -->
<g id="edge14_Node000013_Node000011" class="edge">
<title>Node13&#45;&gt;Node11</title>
<g id="a_edge14_Node000013_Node000011"><a xlink:title=" ">
<path fill="none" stroke="#63b8ff" d="M698.6,-74.93C722.99,-80.52 753.03,-87.41 773.46,-92.1"/>
<polygon fill="#63b8ff" stroke="#63b8ff" points="772.93,-95.57 783.46,-94.39 774.49,-88.75 772.93,-95.57"/>
</a>
</g>
</g>
<!-- Node14&#45;&gt;Node7 -->
<g id="edge16_Node000014_Node000007" class="edge">
<title>Node14&#45;&gt;Node7</title>
<g id="a_edge16_Node000014_Node000007"><a xlink:title=" ">
<path fill="none" stroke="#63b8ff" d="M840.23,-42.02C890.41,-53.61 975.13,-73.17 1029.39,-85.7"/>
<polygon fill="#63b8ff" stroke="#63b8ff" points="1028.62,-89.11 1039.16,-87.95 1030.2,-82.29 1028.62,-89.11"/>
</a>
</g>
</g>
</g>
</svg>
