<?xml version="1.0" encoding="UTF-8" standalone="no"?>
<!DOCTYPE svg PUBLIC "-//W3C//DTD SVG 1.1//EN"
 "http://www.w3.org/Graphics/SVG/1.1/DTD/svg11.dtd">
<!-- Generated by graphviz version 2.43.0 (0)
 -->
<!-- Title: distribute Pages: 1 -->
<svg width="459pt" height="330pt"
 viewBox="0.00 0.00 459.00 330.07" xmlns="http://www.w3.org/2000/svg" xmlns:xlink="http://www.w3.org/1999/xlink">
<g id="graph0" class="graph" transform="scale(1 1) rotate(0) translate(4 326.07)">
<title>distribute</title>
<!-- Node1 -->
<g id="Node000001" class="node">
<title>Node1</title>
<g id="a_Node000001"><a xlink:title=" ">
<polygon fill="#999999" stroke="#666666" points="63,-170.54 0,-170.54 0,-151.54 63,-151.54 63,-170.54"/>
<text text-anchor="middle" x="31.5" y="-158.54" font-family="Helvetica,sans-Serif" font-size="10.00">distribute</text>
</a>
</g>
</g>
<!-- Node2 -->
<g id="Node000002" class="node">
<title>Node2</title>
<g id="a_Node000002"><a xlink:href="distribute_8c.html#a7d48a3cef549c5bda383743398e9dfb3" target="_top" xlink:title=" ">
<polygon fill="white" stroke="#666666" points="166,-170.54 99,-170.54 99,-151.54 166,-151.54 166,-170.54"/>
<text text-anchor="middle" x="132.5" y="-158.54" font-family="Helvetica,sans-Serif" font-size="10.00">keep_data</text>
</a>
</g>
</g>
<!-- Node1&#45;&gt;Node2 -->
<g id="edge1_Node000001_Node000002" class="edge">
<title>Node1&#45;&gt;Node2</title>
<g id="a_edge1_Node000001_Node000002"><a xlink:title=" ">
<path fill="none" stroke="#63b8ff" d="M63.01,-161.04C71.18,-161.04 80.16,-161.04 88.85,-161.04"/>
<polygon fill="#63b8ff" stroke="#63b8ff" points="88.86,-164.54 98.86,-161.04 88.86,-157.54 88.86,-164.54"/>
</a>
</g>
</g>
<!-- Node12 -->
<g id="Node000012" class="node">
<title>Node12</title>
<g id="a_Node000012"><a xlink:href="distribute_8c.html#a7de0d29ea4b0b2d59957cecfa394d497" target="_top" xlink:title=" ">
<polygon fill="white" stroke="#666666" points="165,-113.54 100,-113.54 100,-94.54 165,-94.54 165,-113.54"/>
<text text-anchor="middle" x="132.5" y="-101.54" font-family="Helvetica,sans-Serif" font-size="10.00">recv_data</text>
</a>
</g>
</g>
<!-- Node1&#45;&gt;Node12 -->
<g id="edge15_Node000001_Node000012" class="edge">
<title>Node1&#45;&gt;Node12</title>
<g id="a_edge15_Node000001_Node000012"><a xlink:title=" ">
<path fill="none" stroke="#63b8ff" d="M49.29,-151.37C64.89,-142.39 88.33,-128.89 106.19,-118.61"/>
<polygon fill="#63b8ff" stroke="#63b8ff" points="108.03,-121.59 114.95,-113.56 104.54,-115.52 108.03,-121.59"/>
</a>
</g>
</g>
<!-- Node13 -->
<g id="Node000013" class="node">
<title>Node13</title>
<g id="a_Node000013"><a xlink:href="distribute_8c.html#a772168f45ab8b74e9f8e0df43db9afb8" target="_top" xlink:title=" ">
<polygon fill="white" stroke="#666666" points="166,-227.54 99,-227.54 99,-208.54 166,-208.54 166,-227.54"/>
<text text-anchor="middle" x="132.5" y="-215.54" font-family="Helvetica,sans-Serif" font-size="10.00">send_data</text>
</a>
</g>
</g>
<!-- Node1&#45;&gt;Node13 -->
<g id="edge20_Node000001_Node000013" class="edge">
<title>Node1&#45;&gt;Node13</title>
<g id="a_edge20_Node000001_Node000013"><a xlink:title=" ">
<path fill="none" stroke="#63b8ff" d="M49.29,-170.71C64.89,-179.69 88.33,-193.18 106.19,-203.46"/>
<polygon fill="#63b8ff" stroke="#63b8ff" points="104.54,-206.55 114.95,-208.51 108.03,-200.49 104.54,-206.55"/>
</a>
</g>
</g>
<!-- Node3 -->
<g id="Node000003" class="node">
<title>Node3</title>
<g id="a_Node000003"><a xlink:href="distribute_8c.html#afde0fc2eef0e002ff1c05d932f432484" target="_top" xlink:title=" ">
<polygon fill="white" stroke="#666666" points="292.5,-75.54 206.5,-75.54 206.5,-56.54 292.5,-56.54 292.5,-75.54"/>
<text text-anchor="middle" x="249.5" y="-63.54" font-family="Helvetica,sans-Serif" font-size="10.00">build_distmap</text>
</a>
</g>
</g>
<!-- Node2&#45;&gt;Node3 -->
<g id="edge2_Node000002_Node000003" class="edge">
<title>Node2&#45;&gt;Node3</title>
<g id="a_edge2_Node000002_Node000003"><a xlink:title=" ">
<path fill="none" stroke="#63b8ff" d="M145.37,-151.23C165.19,-134.86 205.18,-101.82 229.12,-82.04"/>
<polygon fill="#63b8ff" stroke="#63b8ff" points="231.38,-84.72 236.86,-75.65 226.92,-79.32 231.38,-84.72"/>
</a>
</g>
</g>
<!-- Node7 -->
<g id="Node000007" class="node">
<title>Node7</title>
<g id="a_Node000007"><a xlink:href="distribute_8c.html#abbd2d286e036d25a126ec6cf1f31c941" target="_top" xlink:title=" ">
<polygon fill="white" stroke="#666666" points="451,-37.54 333,-37.54 333,-18.54 451,-18.54 451,-37.54"/>
<text text-anchor="middle" x="392" y="-25.54" font-family="Helvetica,sans-Serif" font-size="10.00">subbox_space_index</text>
</a>
</g>
</g>
<!-- Node2&#45;&gt;Node7 -->
<g id="edge10_Node000002_Node000007" class="edge">
<title>Node2&#45;&gt;Node7</title>
<g id="a_edge10_Node000002_Node000007"><a xlink:title=" ">
<path fill="none" stroke="#63b8ff" d="M142.78,-151.3C149.71,-143.72 159.14,-132.71 166,-122.04 185.99,-90.93 171.73,-68.27 202,-47.04 236.57,-22.78 283.85,-18.04 322.47,-19.36"/>
<polygon fill="#63b8ff" stroke="#63b8ff" points="322.44,-22.86 332.6,-19.84 322.78,-15.87 322.44,-22.86"/>
</a>
</g>
</g>
<!-- Node8 -->
<g id="Node000008" class="node">
<title>Node8</title>
<g id="a_Node000008"><a xlink:href="distribute_8c.html#a4d95de047b98fe33b47a61c40b2ede31" target="_top" xlink:title=" ">
<polygon fill="white" stroke="#666666" points="438.5,-303.54 345.5,-303.54 345.5,-284.54 438.5,-284.54 438.5,-303.54"/>
<text text-anchor="middle" x="392" y="-291.54" font-family="Helvetica,sans-Serif" font-size="10.00">fft_space_index</text>
</a>
</g>
</g>
<!-- Node2&#45;&gt;Node8 -->
<g id="edge7_Node000002_Node000008" class="edge">
<title>Node2&#45;&gt;Node8</title>
<g id="a_edge7_Node000002_Node000008"><a xlink:title=" ">
<path fill="none" stroke="#63b8ff" d="M141.56,-170.54C158.03,-189.87 194.61,-232.35 202,-237.04 242.74,-262.87 295.81,-277.52 335.34,-285.49"/>
<polygon fill="#63b8ff" stroke="#63b8ff" points="334.86,-288.96 345.34,-287.42 336.18,-282.08 334.86,-288.96"/>
</a>
</g>
</g>
<!-- Node9 -->
<g id="Node000009" class="node">
<title>Node9</title>
<g id="a_Node000009"><a xlink:href="distribute_8c.html#aa31a58531b988d322a30b72ad29e8991" target="_top" xlink:title=" ">
<polygon fill="white" stroke="#666666" points="439.5,-208.54 344.5,-208.54 344.5,-189.54 439.5,-189.54 439.5,-208.54"/>
<text text-anchor="middle" x="392" y="-196.54" font-family="Helvetica,sans-Serif" font-size="10.00">get_distmap_bit</text>
</a>
</g>
</g>
<!-- Node2&#45;&gt;Node9 -->
<g id="edge8_Node000002_Node000009" class="edge">
<title>Node2&#45;&gt;Node9</title>
<g id="a_edge8_Node000002_Node000009"><a xlink:title=" ">
<path fill="none" stroke="#63b8ff" d="M166.11,-165.85C208.36,-172.08 282.7,-183.05 334.28,-190.67"/>
<polygon fill="#63b8ff" stroke="#63b8ff" points="333.88,-194.14 344.28,-192.14 334.9,-187.22 333.88,-194.14"/>
</a>
</g>
</g>
<!-- Node10 -->
<g id="Node000010" class="node">
<title>Node10</title>
<g id="a_Node000010"><a xlink:href="distribute_8c.html#af5d6c46b78cd787fc8880e4001855038" target="_top" xlink:title=" ">
<polygon fill="white" stroke="#666666" points="286.5,-151.54 212.5,-151.54 212.5,-132.54 286.5,-132.54 286.5,-151.54"/>
<text text-anchor="middle" x="249.5" y="-139.54" font-family="Helvetica,sans-Serif" font-size="10.00">intersection</text>
</a>
</g>
</g>
<!-- Node2&#45;&gt;Node10 -->
<g id="edge9_Node000002_Node000010" class="edge">
<title>Node2&#45;&gt;Node10</title>
<g id="a_edge9_Node000002_Node000010"><a xlink:title=" ">
<path fill="none" stroke="#63b8ff" d="M166.15,-155.64C177.35,-153.79 190.12,-151.68 202.2,-149.69"/>
<polygon fill="#63b8ff" stroke="#63b8ff" points="202.84,-153.13 212.13,-148.04 201.7,-146.22 202.84,-153.13"/>
</a>
</g>
</g>
<!-- Node11 -->
<g id="Node000011" class="node">
<title>Node11</title>
<g id="a_Node000011"><a xlink:href="distribute_8c.html#a50009926ecbe697042edccbf5964f815" target="_top" xlink:title=" ">
<polygon fill="white" stroke="#666666" points="297,-227.54 202,-227.54 202,-208.54 297,-208.54 297,-227.54"/>
<text text-anchor="middle" x="249.5" y="-215.54" font-family="Helvetica,sans-Serif" font-size="10.00">update_distmap</text>
</a>
</g>
</g>
<!-- Node2&#45;&gt;Node11 -->
<g id="edge11_Node000002_Node000011" class="edge">
<title>Node2&#45;&gt;Node11</title>
<g id="a_edge11_Node000002_Node000011"><a xlink:title=" ">
<path fill="none" stroke="#63b8ff" d="M152.75,-170.58C171.16,-179.7 199.14,-193.57 220.11,-203.96"/>
<polygon fill="#63b8ff" stroke="#63b8ff" points="218.67,-207.16 229.19,-208.46 221.78,-200.89 218.67,-207.16"/>
</a>
</g>
</g>
<!-- Node4 -->
<g id="Node000004" class="node">
<title>Node4</title>
<g id="a_Node000004"><a xlink:href="fragment_8c.html#a205fd5be9b3d5d3ac4067536e37359b9" target="_top" xlink:title=" ">
<polygon fill="white" stroke="#666666" points="430.5,-112.54 353.5,-112.54 353.5,-93.54 430.5,-93.54 430.5,-112.54"/>
<text text-anchor="middle" x="392" y="-100.54" font-family="Helvetica,sans-Serif" font-size="10.00">get_map_bit</text>
</a>
</g>
</g>
<!-- Node3&#45;&gt;Node4 -->
<g id="edge3_Node000003_Node000004" class="edge">
<title>Node3&#45;&gt;Node4</title>
<g id="a_edge3_Node000003_Node000004"><a xlink:title=" ">
<path fill="none" stroke="#63b8ff" d="M286.68,-75.56C304.33,-80.21 325.75,-85.85 344.59,-90.81"/>
<polygon fill="#63b8ff" stroke="#63b8ff" points="343.89,-94.25 354.45,-93.41 345.67,-87.48 343.89,-94.25"/>
</a>
</g>
</g>
<!-- Node5 -->
<g id="Node000005" class="node">
<title>Node5</title>
<g id="a_Node000005"><a xlink:href="fragment_8c.html#a8641bd67208d499a59e24a0ba7721cc9" target="_top" xlink:title=" ">
<polygon fill="white" stroke="#666666" points="436.5,-75.54 347.5,-75.54 347.5,-56.54 436.5,-56.54 436.5,-75.54"/>
<text text-anchor="middle" x="392" y="-63.54" font-family="Helvetica,sans-Serif" font-size="10.00">get_mapup_bit</text>
</a>
</g>
</g>
<!-- Node3&#45;&gt;Node5 -->
<g id="edge4_Node000003_Node000005" class="edge">
<title>Node3&#45;&gt;Node5</title>
<g id="a_edge4_Node000003_Node000005"><a xlink:title=" ">
<path fill="none" stroke="#63b8ff" d="M292.65,-66.04C306.71,-66.04 322.56,-66.04 337.37,-66.04"/>
<polygon fill="#63b8ff" stroke="#63b8ff" points="337.41,-69.54 347.41,-66.04 337.41,-62.54 337.41,-69.54"/>
</a>
</g>
</g>
<!-- Node6 -->
<g id="Node000006" class="node">
<title>Node6</title>
<g id="a_Node000006"><a xlink:href="distribute_8c.html#a5951fbca4cf1908cabe187d4aae920d4" target="_top" xlink:title=" ">
<polygon fill="white" stroke="#666666" points="439.5,-170.54 344.5,-170.54 344.5,-151.54 439.5,-151.54 439.5,-170.54"/>
<text text-anchor="middle" x="392" y="-158.54" font-family="Helvetica,sans-Serif" font-size="10.00">set_distmap_bit</text>
</a>
</g>
</g>
<!-- Node3&#45;&gt;Node6 -->
<g id="edge5_Node000003_Node000006" class="edge">
<title>Node3&#45;&gt;Node6</title>
<g id="a_edge5_Node000003_Node000006"><a xlink:title=" ">
<path fill="none" stroke="#63b8ff" d="M271.46,-75.55C279.67,-79.61 289.02,-84.65 297,-90.04 314.5,-101.85 316.29,-108.13 333,-121.04 344.04,-129.56 356.76,-138.43 367.47,-145.64"/>
<polygon fill="#63b8ff" stroke="#63b8ff" points="365.65,-148.64 375.91,-151.27 369.53,-142.81 365.65,-148.64"/>
</a>
</g>
</g>
<!-- Node3&#45;&gt;Node7 -->
<g id="edge6_Node000003_Node000007" class="edge">
<title>Node3&#45;&gt;Node7</title>
<g id="a_edge6_Node000003_Node000007"><a xlink:title=" ">
<path fill="none" stroke="#63b8ff" d="M285.95,-56.45C304.09,-51.54 326.37,-45.52 345.73,-40.28"/>
<polygon fill="#63b8ff" stroke="#63b8ff" points="346.82,-43.61 355.56,-37.62 344.99,-36.85 346.82,-43.61"/>
</a>
</g>
</g>
<!-- Node11&#45;&gt;Node6 -->
<g id="edge14_Node000011_Node000006" class="edge">
<title>Node11&#45;&gt;Node6</title>
<g id="a_edge14_Node000011_Node000006"><a xlink:title=" ">
<path fill="none" stroke="#63b8ff" d="M270.63,-208.4C287.2,-200.62 311.4,-189.58 333,-181.04 339.04,-178.64 345.5,-176.26 351.84,-174.01"/>
<polygon fill="#63b8ff" stroke="#63b8ff" points="353.31,-177.2 361.6,-170.6 351.01,-170.59 353.31,-177.2"/>
</a>
</g>
</g>
<!-- Node11&#45;&gt;Node8 -->
<g id="edge12_Node000011_Node000008" class="edge">
<title>Node11&#45;&gt;Node8</title>
<g id="a_edge12_Node000011_Node000008"><a xlink:title=" ">
<path fill="none" stroke="#63b8ff" d="M268.29,-227.66C292.58,-240.8 336.28,-264.44 364.45,-279.67"/>
<polygon fill="#63b8ff" stroke="#63b8ff" points="362.89,-282.81 373.35,-284.49 366.22,-276.65 362.89,-282.81"/>
</a>
</g>
</g>
<!-- Node11&#45;&gt;Node9 -->
<g id="edge13_Node000011_Node000009" class="edge">
<title>Node11&#45;&gt;Node9</title>
<g id="a_edge13_Node000011_Node000009"><a xlink:title=" ">
<path fill="none" stroke="#63b8ff" d="M297.28,-211.71C309.13,-210.11 321.99,-208.37 334.27,-206.71"/>
<polygon fill="#63b8ff" stroke="#63b8ff" points="334.98,-210.14 344.42,-205.34 334.04,-203.21 334.98,-210.14"/>
</a>
</g>
</g>
<!-- Node12&#45;&gt;Node3 -->
<g id="edge16_Node000012_Node000003" class="edge">
<title>Node12&#45;&gt;Node3</title>
<g id="a_edge16_Node000012_Node000003"><a xlink:title=" ">
<path fill="none" stroke="#63b8ff" d="M162.52,-94.45C176.82,-89.72 194.26,-83.96 209.69,-78.86"/>
<polygon fill="#63b8ff" stroke="#63b8ff" points="211.09,-82.08 219.49,-75.62 208.9,-75.44 211.09,-82.08"/>
</a>
</g>
</g>
<!-- Node12&#45;&gt;Node7 -->
<g id="edge19_Node000012_Node000007" class="edge">
<title>Node12&#45;&gt;Node7</title>
<g id="a_edge19_Node000012_Node000007"><a xlink:title=" ">
<path fill="none" stroke="#63b8ff" d="M137.34,-94.34C145.68,-74.8 167.52,-31.13 202,-14.04 251.22,10.36 316.63,-3.02 356.18,-15.28"/>
<polygon fill="#63b8ff" stroke="#63b8ff" points="355.3,-18.68 365.89,-18.43 357.46,-12.02 355.3,-18.68"/>
</a>
</g>
</g>
<!-- Node12&#45;&gt;Node9 -->
<g id="edge17_Node000012_Node000009" class="edge">
<title>Node12&#45;&gt;Node9</title>
<g id="a_edge17_Node000012_Node000009"><a xlink:title=" ">
<path fill="none" stroke="#63b8ff" d="M165.03,-100.06C200.02,-97.29 256.85,-97.77 297,-123.04 322.36,-138.99 309.37,-161.62 333,-180.04 335.31,-181.84 337.8,-183.47 340.4,-184.95"/>
<polygon fill="#63b8ff" stroke="#63b8ff" points="339.06,-188.19 349.58,-189.43 342.13,-181.9 339.06,-188.19"/>
</a>
</g>
</g>
<!-- Node12&#45;&gt;Node10 -->
<g id="edge18_Node000012_Node000010" class="edge">
<title>Node12&#45;&gt;Node10</title>
<g id="a_edge18_Node000012_Node000010"><a xlink:title=" ">
<path fill="none" stroke="#63b8ff" d="M162.52,-113.63C176.82,-118.35 194.26,-124.11 209.69,-129.21"/>
<polygon fill="#63b8ff" stroke="#63b8ff" points="208.9,-132.64 219.49,-132.45 211.09,-125.99 208.9,-132.64"/>
</a>
</g>
</g>
<!-- Node13&#45;&gt;Node8 -->
<g id="edge21_Node000013_Node000008" class="edge">
<title>Node13&#45;&gt;Node8</title>
<g id="a_edge21_Node000013_Node000008"><a xlink:title=" ">
<path fill="none" stroke="#63b8ff" d="M137.34,-227.73C145.68,-247.27 167.52,-290.95 202,-308.04 251.22,-332.43 316.63,-319.05 356.18,-306.79"/>
<polygon fill="#63b8ff" stroke="#63b8ff" points="357.46,-310.05 365.89,-303.64 355.3,-303.4 357.46,-310.05"/>
</a>
</g>
</g>
<!-- Node13&#45;&gt;Node9 -->
<g id="edge22_Node000013_Node000009" class="edge">
<title>Node13&#45;&gt;Node9</title>
<g id="a_edge22_Node000013_Node000009"><a xlink:title=" ">
<path fill="none" stroke="#63b8ff" d="M161.14,-227.54C173.48,-231.3 188.3,-235.17 202,-237.04 243.84,-242.73 255.55,-245.1 297,-237.04 320.58,-232.45 345.73,-221.95 364.08,-213.15"/>
<polygon fill="#63b8ff" stroke="#63b8ff" points="365.85,-216.18 373.27,-208.62 362.75,-209.91 365.85,-216.18"/>
</a>
</g>
</g>
<!-- Node13&#45;&gt;Node10 -->
<g id="edge23_Node000013_Node000010" class="edge">
<title>Node13&#45;&gt;Node10</title>
<g id="a_edge23_Node000013_Node000010"><a xlink:title=" ">
<path fill="none" stroke="#63b8ff" d="M148.06,-208.41C167.59,-195.5 202.47,-172.45 225.55,-157.2"/>
<polygon fill="#63b8ff" stroke="#63b8ff" points="227.64,-160.02 234.05,-151.58 223.78,-154.18 227.64,-160.02"/>
</a>
</g>
</g>
<!-- Node13&#45;&gt;Node11 -->
<g id="edge24_Node000013_Node000011" class="edge">
<title>Node13&#45;&gt;Node11</title>
<g id="a_edge24_Node000013_Node000011"><a xlink:title=" ">
<path fill="none" stroke="#63b8ff" d="M166.15,-218.04C174.07,-218.04 182.77,-218.04 191.46,-218.04"/>
<polygon fill="#63b8ff" stroke="#63b8ff" points="191.61,-221.54 201.61,-218.04 191.61,-214.54 191.61,-221.54"/>
</a>
</g>
</g>
</g>
</svg>
