<?xml version="1.0" encoding="UTF-8" standalone="no"?>
<!DOCTYPE svg PUBLIC "-//W3C//DTD SVG 1.1//EN"
 "http://www.w3.org/Graphics/SVG/1.1/DTD/svg11.dtd">
<!-- Generated by graphviz version 2.43.0 (0)
 -->
<!-- Title: merge_groups Pages: 1 -->
<svg width="755pt" height="157pt"
 viewBox="0.00 0.00 755.00 157.00" xmlns="http://www.w3.org/2000/svg" xmlns:xlink="http://www.w3.org/1999/xlink">
<g id="graph0" class="graph" transform="scale(1 1) rotate(0) translate(4 153)">
<title>merge_groups</title>
<!-- Node1 -->
<g id="Node000001" class="node">
<title>Node1</title>
<g id="a_Node000001"><a xlink:title=" ">
<polygon fill="#999999" stroke="#666666" points="86,-74 0,-74 0,-55 86,-55 86,-74"/>
<text text-anchor="middle" x="43" y="-62" font-family="Helvetica,sans-Serif" font-size="10.00">merge_groups</text>
</a>
</g>
</g>
<!-- Node2 -->
<g id="Node000002" class="node">
<title>Node2</title>
<g id="a_Node000002"><a xlink:href="build__groups_8c.html#a373d03c1d37c23fc2beda89ed9dc5e5c" target="_top" xlink:title=" ">
<polygon fill="white" stroke="#666666" points="199,-130 134,-130 134,-111 199,-111 199,-130"/>
<text text-anchor="middle" x="166.5" y="-118" font-family="Helvetica,sans-Serif" font-size="10.00">set_group</text>
</a>
</g>
</g>
<!-- Node1&#45;&gt;Node2 -->
<g id="edge1_Node000001_Node000002" class="edge">
<title>Node1&#45;&gt;Node2</title>
<g id="a_edge1_Node000001_Node000002"><a xlink:title=" ">
<path fill="none" stroke="#63b8ff" d="M62.76,-74.04C78.47,-81.93 101.53,-93.29 122,-102.5 125.23,-103.95 128.61,-105.43 132,-106.88"/>
<polygon fill="#63b8ff" stroke="#63b8ff" points="130.88,-110.21 141.46,-110.86 133.59,-103.75 130.88,-110.21"/>
</a>
</g>
</g>
<!-- Node3 -->
<g id="Node000003" class="node">
<title>Node3</title>
<g id="a_Node000003"><a xlink:href="build__groups_8c.html#a8ca8a2e49b8887203360635eb02ee79e" target="_top" xlink:title=" ">
<polygon fill="white" stroke="#666666" points="192.5,-93 140.5,-93 140.5,-74 192.5,-74 192.5,-93"/>
<text text-anchor="middle" x="166.5" y="-81" font-family="Helvetica,sans-Serif" font-size="10.00">set_obj</text>
</a>
</g>
</g>
<!-- Node1&#45;&gt;Node3 -->
<g id="edge2_Node000001_Node000003" class="edge">
<title>Node1&#45;&gt;Node3</title>
<g id="a_edge2_Node000001_Node000003"><a xlink:title=" ">
<path fill="none" stroke="#63b8ff" d="M86.15,-71.09C100.57,-73.35 116.54,-75.84 130.35,-78"/>
<polygon fill="#63b8ff" stroke="#63b8ff" points="130,-81.49 140.42,-79.58 131.08,-74.58 130,-81.49"/>
</a>
</g>
</g>
<!-- Node11 -->
<g id="Node000011" class="node">
<title>Node11</title>
<g id="a_Node000011"><a xlink:href="build__groups_8c.html#a46fdcd7380b956c29fedb74f3967ccbb" target="_top" xlink:title=" ">
<polygon fill="white" stroke="#666666" points="191.5,-56 141.5,-56 141.5,-37 191.5,-37 191.5,-56"/>
<text text-anchor="middle" x="166.5" y="-44" font-family="Helvetica,sans-Serif" font-size="10.00">update</text>
</a>
</g>
</g>
<!-- Node1&#45;&gt;Node11 -->
<g id="edge13_Node000001_Node000011" class="edge">
<title>Node1&#45;&gt;Node11</title>
<g id="a_edge13_Node000001_Node000011"><a xlink:title=" ">
<path fill="none" stroke="#63b8ff" d="M86.15,-58.25C100.9,-56.07 117.27,-53.65 131.28,-51.57"/>
<polygon fill="#63b8ff" stroke="#63b8ff" points="132.1,-54.99 141.48,-50.06 131.08,-48.06 132.1,-54.99"/>
</a>
</g>
</g>
<!-- Node12 -->
<g id="Node000012" class="node">
<title>Node12</title>
<g id="a_Node000012"><a xlink:href="build__groups_8c.html#a26327eb75cfcd12d2bd2062f338e2ae3" target="_top" xlink:title=" ">
<polygon fill="white" stroke="#666666" points="211,-19 122,-19 122,0 211,0 211,-19"/>
<text text-anchor="middle" x="166.5" y="-7" font-family="Helvetica,sans-Serif" font-size="10.00">update_history</text>
</a>
</g>
</g>
<!-- Node1&#45;&gt;Node12 -->
<g id="edge14_Node000001_Node000012" class="edge">
<title>Node1&#45;&gt;Node12</title>
<g id="a_edge14_Node000001_Node000012"><a xlink:title=" ">
<path fill="none" stroke="#63b8ff" d="M64.48,-54.91C80.18,-47.59 102.41,-37.3 122,-28.5 125.89,-26.75 129.99,-24.94 134.04,-23.15"/>
<polygon fill="#63b8ff" stroke="#63b8ff" points="135.58,-26.3 143.33,-19.08 132.77,-19.89 135.58,-26.3"/>
</a>
</g>
</g>
<!-- Node4 -->
<g id="Node000004" class="node">
<title>Node4</title>
<g id="a_Node000004"><a xlink:href="build__groups_8c.html#a7d0a825b630d787e82f2aad789794b1b" target="_top" xlink:title=" ">
<polygon fill="white" stroke="#666666" points="317,-93 247,-93 247,-74 317,-74 317,-93"/>
<text text-anchor="middle" x="282" y="-81" font-family="Helvetica,sans-Serif" font-size="10.00">set_weight</text>
</a>
</g>
</g>
<!-- Node3&#45;&gt;Node4 -->
<g id="edge3_Node000003_Node000004" class="edge">
<title>Node3&#45;&gt;Node4</title>
<g id="a_edge3_Node000003_Node000004"><a xlink:title=" ">
<path fill="none" stroke="#63b8ff" d="M192.69,-83.5C205.64,-83.5 221.8,-83.5 236.74,-83.5"/>
<polygon fill="#63b8ff" stroke="#63b8ff" points="236.84,-87 246.84,-83.5 236.84,-80 236.84,-87"/>
</a>
</g>
</g>
<!-- Node5 -->
<g id="Node000005" class="node">
<title>Node5</title>
<g id="a_Node000005"><a xlink:href="cosmo_8c.html#a9fbcf5b69c272e801cf320cf814b23c4" target="_top" xlink:title=" ">
<polygon fill="white" stroke="#666666" points="457,-149 373,-149 373,-130 457,-130 457,-149"/>
<text text-anchor="middle" x="415" y="-137" font-family="Helvetica,sans-Serif" font-size="10.00">GrowingMode</text>
</a>
</g>
</g>
<!-- Node4&#45;&gt;Node5 -->
<g id="edge4_Node000004_Node000005" class="edge">
<title>Node4&#45;&gt;Node5</title>
<g id="a_edge4_Node000004_Node000005"><a xlink:title=" ">
<path fill="none" stroke="#63b8ff" d="M298.38,-93.08C312.26,-101.42 333.45,-113.41 353,-121.5 357.66,-123.43 362.61,-125.24 367.58,-126.92"/>
<polygon fill="#63b8ff" stroke="#63b8ff" points="366.52,-130.26 377.12,-129.98 368.66,-123.59 366.52,-130.26"/>
</a>
</g>
</g>
<!-- Node8 -->
<g id="Node000008" class="node">
<title>Node8</title>
<g id="a_Node000008"><a xlink:href="cosmo_8c.html#a3d4dfa13b4af53acceb7a040e2517499" target="_top" xlink:title=" ">
<polygon fill="white" stroke="#666666" points="471.5,-112 358.5,-112 358.5,-93 471.5,-93 471.5,-112"/>
<text text-anchor="middle" x="415" y="-100" font-family="Helvetica,sans-Serif" font-size="10.00">GrowingMode_2LPT</text>
</a>
</g>
</g>
<!-- Node4&#45;&gt;Node8 -->
<g id="edge7_Node000004_Node000008" class="edge">
<title>Node4&#45;&gt;Node8</title>
<g id="a_edge7_Node000004_Node000008"><a xlink:title=" ">
<path fill="none" stroke="#63b8ff" d="M317.08,-88.44C326.71,-89.84 337.54,-91.41 348.36,-92.98"/>
<polygon fill="#63b8ff" stroke="#63b8ff" points="347.88,-96.45 358.28,-94.42 348.88,-89.52 347.88,-96.45"/>
</a>
</g>
</g>
<!-- Node9 -->
<g id="Node000009" class="node">
<title>Node9</title>
<g id="a_Node000009"><a xlink:href="cosmo_8c.html#a04db96c36d31fd7c7befb810624260fc" target="_top" xlink:title=" ">
<polygon fill="white" stroke="#666666" points="477,-75 353,-75 353,-56 477,-56 477,-75"/>
<text text-anchor="middle" x="415" y="-63" font-family="Helvetica,sans-Serif" font-size="10.00">GrowingMode_3LPT_1</text>
</a>
</g>
</g>
<!-- Node4&#45;&gt;Node9 -->
<g id="edge9_Node000004_Node000009" class="edge">
<title>Node4&#45;&gt;Node9</title>
<g id="a_edge9_Node000004_Node000009"><a xlink:title=" ">
<path fill="none" stroke="#63b8ff" d="M317.08,-78.82C325.06,-77.72 333.87,-76.51 342.81,-75.28"/>
<polygon fill="#63b8ff" stroke="#63b8ff" points="343.51,-78.72 352.94,-73.89 342.55,-71.78 343.51,-78.72"/>
</a>
</g>
</g>
<!-- Node10 -->
<g id="Node000010" class="node">
<title>Node10</title>
<g id="a_Node000010"><a xlink:href="cosmo_8c.html#a9c8d61128a3d0ab4c73354d0ff8011a1" target="_top" xlink:title=" ">
<polygon fill="white" stroke="#666666" points="477,-38 353,-38 353,-19 477,-19 477,-38"/>
<text text-anchor="middle" x="415" y="-26" font-family="Helvetica,sans-Serif" font-size="10.00">GrowingMode_3LPT_2</text>
</a>
</g>
</g>
<!-- Node4&#45;&gt;Node10 -->
<g id="edge11_Node000004_Node000010" class="edge">
<title>Node4&#45;&gt;Node10</title>
<g id="a_edge11_Node000004_Node000010"><a xlink:title=" ">
<path fill="none" stroke="#63b8ff" d="M299.59,-73.93C313.53,-66.14 334.16,-55.21 353,-47.5 358.46,-45.27 364.28,-43.14 370.08,-41.17"/>
<polygon fill="#63b8ff" stroke="#63b8ff" points="371.33,-44.45 379.75,-38.03 369.16,-37.79 371.33,-44.45"/>
</a>
</g>
</g>
<!-- Node6 -->
<g id="Node000006" class="node">
<title>Node6</title>
<g id="a_Node000006"><a xlink:href="cosmo_8c.html#a8847e5b8ea1f9c458c8bf9e5f36837a9" target="_top" xlink:title=" ">
<polygon fill="white" stroke="#666666" points="618,-93 513,-93 513,-74 618,-74 618,-93"/>
<text text-anchor="middle" x="565.5" y="-81" font-family="Helvetica,sans-Serif" font-size="10.00">InterpolateGrowth</text>
</a>
</g>
</g>
<!-- Node5&#45;&gt;Node6 -->
<g id="edge5_Node000005_Node000006" class="edge">
<title>Node5&#45;&gt;Node6</title>
<g id="a_edge5_Node000005_Node000006"><a xlink:title=" ">
<path fill="none" stroke="#63b8ff" d="M451.08,-129.95C459.63,-127.4 468.7,-124.52 477,-121.5 496.65,-114.36 518.2,-105.03 534.99,-97.39"/>
<polygon fill="#63b8ff" stroke="#63b8ff" points="536.65,-100.48 544.28,-93.13 533.73,-94.12 536.65,-100.48"/>
</a>
</g>
</g>
<!-- Node7 -->
<g id="Node000007" class="node">
<title>Node7</title>
<g id="a_Node000007"><a xlink:href="cosmo_8c.html#a6341f5394ed17a00dc77c5519b292ae3" target="_top" xlink:title=" ">
<polygon fill="white" stroke="#666666" points="747,-93 654,-93 654,-74 747,-74 747,-93"/>
<text text-anchor="middle" x="700.5" y="-81" font-family="Helvetica,sans-Serif" font-size="10.00">my_spline_eval</text>
</a>
</g>
</g>
<!-- Node6&#45;&gt;Node7 -->
<g id="edge6_Node000006_Node000007" class="edge">
<title>Node6&#45;&gt;Node7</title>
<g id="a_edge6_Node000006_Node000007"><a xlink:title=" ">
<path fill="none" stroke="#63b8ff" d="M618.3,-83.5C626.6,-83.5 635.22,-83.5 643.6,-83.5"/>
<polygon fill="#63b8ff" stroke="#63b8ff" points="643.68,-87 653.68,-83.5 643.68,-80 643.68,-87"/>
</a>
</g>
</g>
<!-- Node8&#45;&gt;Node6 -->
<g id="edge8_Node000008_Node000006" class="edge">
<title>Node8&#45;&gt;Node6</title>
<g id="a_edge8_Node000008_Node000006"><a xlink:title=" ">
<path fill="none" stroke="#63b8ff" d="M471.72,-95.37C481.84,-94.08 492.46,-92.72 502.74,-91.4"/>
<polygon fill="#63b8ff" stroke="#63b8ff" points="503.41,-94.84 512.88,-90.1 502.52,-87.9 503.41,-94.84"/>
</a>
</g>
</g>
<!-- Node9&#45;&gt;Node6 -->
<g id="edge10_Node000009_Node000006" class="edge">
<title>Node9&#45;&gt;Node6</title>
<g id="a_edge10_Node000009_Node000006"><a xlink:title=" ">
<path fill="none" stroke="#63b8ff" d="M477.26,-72.93C485.66,-73.94 494.3,-74.99 502.72,-76.01"/>
<polygon fill="#63b8ff" stroke="#63b8ff" points="502.49,-79.51 512.84,-77.24 503.34,-72.56 502.49,-79.51"/>
</a>
</g>
</g>
<!-- Node10&#45;&gt;Node6 -->
<g id="edge12_Node000010_Node000006" class="edge">
<title>Node10&#45;&gt;Node6</title>
<g id="a_edge12_Node000010_Node000006"><a xlink:title=" ">
<path fill="none" stroke="#63b8ff" d="M448.47,-38.03C457.74,-40.91 467.82,-44.19 477,-47.5 495.99,-54.35 516.91,-62.92 533.53,-69.98"/>
<polygon fill="#63b8ff" stroke="#63b8ff" points="532.2,-73.22 542.77,-73.93 534.96,-66.78 532.2,-73.22"/>
</a>
</g>
</g>
</g>
</svg>
