<?xml version="1.0" encoding="UTF-8" standalone="no"?>
<!DOCTYPE svg PUBLIC "-//W3C//DTD SVG 1.1//EN"
 "http://www.w3.org/Graphics/SVG/1.1/DTD/svg11.dtd">
<!-- Generated by graphviz version 2.43.0 (0)
 -->
<!-- Title: compute_first_derivatives Pages: 1 -->
<svg width="444pt" height="150pt"
 viewBox="0.00 0.00 444.00 150.00" xmlns="http://www.w3.org/2000/svg" xmlns:xlink="http://www.w3.org/1999/xlink">
<g id="graph0" class="graph" transform="scale(1 1) rotate(0) translate(4 146)">
<title>compute_first_derivatives</title>
<!-- Node1 -->
<g id="Node000001" class="node">
<title>Node1</title>
<g id="a_Node000001"><a xlink:title=" ">
<polygon fill="#999999" stroke="#666666" points="143,-83 0,-83 0,-64 143,-64 143,-83"/>
<text text-anchor="middle" x="71.5" y="-71" font-family="Helvetica,sans-Serif" font-size="10.00">compute_first_derivatives</text>
</a>
</g>
</g>
<!-- Node2 -->
<g id="Node000002" class="node">
<title>Node2</title>
<g id="a_Node000002"><a xlink:href="fmax-fftw_8c.html#a7852a9463984d6a264677376fa61cfb8" target="_top" xlink:title=" ">
<polygon fill="white" stroke="#666666" points="293,-105 179,-105 179,-86 293,-86 293,-105"/>
<text text-anchor="middle" x="236" y="-93" font-family="Helvetica,sans-Serif" font-size="10.00">compute_derivative</text>
</a>
</g>
</g>
<!-- Node1&#45;&gt;Node2 -->
<g id="edge1_Node000001_Node000002" class="edge">
<title>Node1&#45;&gt;Node2</title>
<g id="a_edge1_Node000001_Node000002"><a xlink:title=" ">
<path fill="none" stroke="#63b8ff" d="M142.83,-83.02C151.46,-84.19 160.26,-85.38 168.83,-86.54"/>
<polygon fill="#63b8ff" stroke="#63b8ff" points="168.37,-90.01 178.75,-87.89 169.31,-83.07 168.37,-90.01"/>
</a>
</g>
</g>
<!-- Node3 -->
<g id="Node000003" class="node">
<title>Node3</title>
<g id="a_Node000003"><a xlink:href="fmax_8c.html#a76000ea6ddfd81a9d6cf317d53f54378" target="_top" xlink:title=" ">
<polygon fill="white" stroke="#666666" points="403.5,-142 361.5,-142 361.5,-123 403.5,-123 403.5,-142"/>
<text text-anchor="middle" x="382.5" y="-130" font-family="Helvetica,sans-Serif" font-size="10.00">fdate</text>
</a>
</g>
</g>
<!-- Node1&#45;&gt;Node3 -->
<g id="edge5_Node000001_Node000003" class="edge">
<title>Node1&#45;&gt;Node3</title>
<g id="a_edge5_Node000001_Node000003"><a xlink:title=" ">
<path fill="none" stroke="#63b8ff" d="M92.39,-83.09C113.39,-92.75 147.74,-107.24 179,-114.5 238.99,-128.43 311.29,-131.73 351.24,-132.42"/>
<polygon fill="#63b8ff" stroke="#63b8ff" points="351.33,-135.92 361.38,-132.55 351.42,-128.92 351.33,-135.92"/>
</a>
</g>
</g>
<!-- Node6 -->
<g id="Node000006" class="node">
<title>Node6</title>
<g id="a_Node000006"><a xlink:href="fmax-pfft_8c.html#a2c52d2665e8222b82fc13fb46b58f7fe" target="_top" xlink:title=" ">
<polygon fill="white" stroke="#666666" points="291,-67.5 181,-67.5 181,-37.5 291,-37.5 291,-67.5"/>
<text text-anchor="start" x="189" y="-55.5" font-family="Helvetica,sans-Serif" font-size="10.00">write_from_rvector</text>
<text text-anchor="middle" x="236" y="-44.5" font-family="Helvetica,sans-Serif" font-size="10.00">_to_products</text>
</a>
</g>
</g>
<!-- Node1&#45;&gt;Node6 -->
<g id="edge6_Node000001_Node000006" class="edge">
<title>Node1&#45;&gt;Node6</title>
<g id="a_edge6_Node000001_Node000006"><a xlink:title=" ">
<path fill="none" stroke="#63b8ff" d="M143.3,-64.35C152.37,-63.18 161.62,-61.98 170.59,-60.82"/>
<polygon fill="#63b8ff" stroke="#63b8ff" points="171.09,-64.29 180.56,-59.54 170.2,-57.35 171.09,-64.29"/>
</a>
</g>
</g>
<!-- Node7 -->
<g id="Node000007" class="node">
<title>Node7</title>
<g id="a_Node000007"><a xlink:href="fmax-fftw_8c.html#a7059752d6936489370334baac9522bf9" target="_top" xlink:title=" ">
<polygon fill="white" stroke="#666666" points="284.5,-19 187.5,-19 187.5,0 284.5,0 284.5,-19"/>
<text text-anchor="middle" x="236" y="-7" font-family="Helvetica,sans-Serif" font-size="10.00">write_in_cvector</text>
</a>
</g>
</g>
<!-- Node1&#45;&gt;Node7 -->
<g id="edge7_Node000001_Node000007" class="edge">
<title>Node1&#45;&gt;Node7</title>
<g id="a_edge7_Node000001_Node000007"><a xlink:title=" ">
<path fill="none" stroke="#63b8ff" d="M93.94,-63.9C115.31,-54.46 149.17,-39.85 179,-28.5 184.47,-26.42 190.28,-24.32 196.01,-22.32"/>
<polygon fill="#63b8ff" stroke="#63b8ff" points="197.18,-25.62 205.5,-19.06 194.91,-19 197.18,-25.62"/>
</a>
</g>
</g>
<!-- Node2&#45;&gt;Node3 -->
<g id="edge2_Node000002_Node000003" class="edge">
<title>Node2&#45;&gt;Node3</title>
<g id="a_edge2_Node000002_Node000003"><a xlink:title=" ">
<path fill="none" stroke="#63b8ff" d="M274.21,-105.03C298.18,-111.17 328.93,-119.04 351.37,-124.78"/>
<polygon fill="#63b8ff" stroke="#63b8ff" points="350.78,-128.25 361.34,-127.34 352.52,-121.47 350.78,-128.25"/>
</a>
</g>
</g>
<!-- Node4 -->
<g id="Node000004" class="node">
<title>Node4</title>
<g id="a_Node000004"><a xlink:href="fmax-fftw_8c.html#a0a0b99548967fb246932282f353e5d80" target="_top" xlink:title=" ">
<polygon fill="white" stroke="#666666" points="430,-105 335,-105 335,-86 430,-86 430,-105"/>
<text text-anchor="middle" x="382.5" y="-93" font-family="Helvetica,sans-Serif" font-size="10.00">greens_function</text>
</a>
</g>
</g>
<!-- Node2&#45;&gt;Node4 -->
<g id="edge3_Node000002_Node000004" class="edge">
<title>Node2&#45;&gt;Node4</title>
<g id="a_edge3_Node000002_Node000004"><a xlink:title=" ">
<path fill="none" stroke="#63b8ff" d="M293.28,-95.5C303.62,-95.5 314.42,-95.5 324.78,-95.5"/>
<polygon fill="#63b8ff" stroke="#63b8ff" points="324.95,-99 334.95,-95.5 324.95,-92 324.95,-99"/>
</a>
</g>
</g>
<!-- Node5 -->
<g id="Node000005" class="node">
<title>Node5</title>
<g id="a_Node000005"><a xlink:href="fmax-fftw_8c.html#a9b00c4c92bd36a79d29b634244174f38" target="_top" xlink:title=" ">
<polygon fill="white" stroke="#666666" points="436,-68 329,-68 329,-49 436,-49 436,-68"/>
<text text-anchor="middle" x="382.5" y="-56" font-family="Helvetica,sans-Serif" font-size="10.00">reverse_transform</text>
</a>
</g>
</g>
<!-- Node2&#45;&gt;Node5 -->
<g id="edge4_Node000002_Node000005" class="edge">
<title>Node2&#45;&gt;Node5</title>
<g id="a_edge4_Node000002_Node000005"><a xlink:title=" ">
<path fill="none" stroke="#63b8ff" d="M274.21,-85.97C292.51,-81.29 314.77,-75.59 334.26,-70.6"/>
<polygon fill="#63b8ff" stroke="#63b8ff" points="335.34,-73.93 344.16,-68.06 333.61,-67.15 335.34,-73.93"/>
</a>
</g>
</g>
</g>
</svg>
