<?xml version="1.0" encoding="UTF-8" standalone="no"?>
<!DOCTYPE svg PUBLIC "-//W3C//DTD SVG 1.1//EN"
 "http://www.w3.org/Graphics/SVG/1.1/DTD/svg11.dtd">
<!-- Generated by graphviz version 2.43.0 (0)
 -->
<!-- Title: dOmega_dVariance Pages: 1 -->
<svg width="918pt" height="140pt"
 viewBox="0.00 0.00 918.00 140.00" xmlns="http://www.w3.org/2000/svg" xmlns:xlink="http://www.w3.org/1999/xlink">
<g id="graph0" class="graph" transform="scale(1 1) rotate(0) translate(4 136)">
<title>dOmega_dVariance</title>
<!-- Node1 -->
<g id="Node000001" class="node">
<title>Node1</title>
<g id="a_Node000001"><a xlink:title=" ">
<polygon fill="#999999" stroke="#666666" points="910,-84 799,-84 799,-65 910,-65 910,-84"/>
<text text-anchor="middle" x="854.5" y="-72" font-family="Helvetica,sans-Serif" font-size="10.00">dOmega_dVariance</text>
</a>
</g>
</g>
<!-- Node2 -->
<g id="Node000002" class="node">
<title>Node2</title>
<g id="a_Node000002"><a xlink:href="cosmo_8c.html#a3e2faa009164fa657b79bf92bbfbb407" target="_top" xlink:title=" ">
<polygon fill="white" stroke="#666666" points="763,-84 640,-84 640,-65 763,-65 763,-84"/>
<text text-anchor="middle" x="701.5" y="-72" font-family="Helvetica,sans-Serif" font-size="10.00">AnalyticMassFunction</text>
</a>
</g>
</g>
<!-- Node1&#45;&gt;Node2 -->
<g id="edge1_Node000001_Node000002" class="edge">
<title>Node1&#45;&gt;Node2</title>
<g id="a_edge1_Node000001_Node000002"><a xlink:title=" ">
<path fill="none" stroke="#63b8ff" d="M788.72,-74.5C780.21,-74.5 771.51,-74.5 763.07,-74.5"/>
<polygon fill="#63b8ff" stroke="#63b8ff" points="788.99,-78 798.99,-74.5 788.99,-71 788.99,-78"/>
</a>
</g>
</g>
<!-- Node3 -->
<g id="Node000003" class="node">
<title>Node3</title>
<g id="a_Node000003"><a xlink:href="write__halos_8c.html#ab389015c0ee0675c3eff2f503405bde8" target="_top" xlink:title=" ">
<polygon fill="white" stroke="#666666" points="601.5,-126 523.5,-126 523.5,-107 601.5,-107 601.5,-126"/>
<text text-anchor="middle" x="562.5" y="-114" font-family="Helvetica,sans-Serif" font-size="10.00">compute_mf</text>
</a>
</g>
</g>
<!-- Node2&#45;&gt;Node3 -->
<g id="edge2_Node000002_Node000003" class="edge">
<title>Node2&#45;&gt;Node3</title>
<g id="a_edge2_Node000002_Node000003"><a xlink:title=" ">
<path fill="none" stroke="#63b8ff" d="M659.61,-87.04C638.9,-93.39 614.14,-100.98 594.94,-106.86"/>
<polygon fill="#63b8ff" stroke="#63b8ff" points="660.88,-90.31 669.41,-84.03 658.83,-83.62 660.88,-90.31"/>
</a>
</g>
</g>
<!-- Node8 -->
<g id="Node000008" class="node">
<title>Node8</title>
<g id="a_Node000008"><a xlink:href="fragment_8c.html#a167c76ec9c64d91e440bec86963419bb" target="_top" xlink:title=" ">
<polygon fill="white" stroke="#666666" points="604,-84 521,-84 521,-65 604,-65 604,-84"/>
<text text-anchor="middle" x="562.5" y="-72" font-family="Helvetica,sans-Serif" font-size="10.00">Integrand_MF</text>
</a>
</g>
</g>
<!-- Node2&#45;&gt;Node8 -->
<g id="edge7_Node000002_Node000008" class="edge">
<title>Node2&#45;&gt;Node8</title>
<g id="a_edge7_Node000002_Node000008"><a xlink:title=" ">
<path fill="none" stroke="#63b8ff" d="M629.44,-74.5C620.77,-74.5 612.15,-74.5 604.15,-74.5"/>
<polygon fill="#63b8ff" stroke="#63b8ff" points="629.61,-78 639.61,-74.5 629.61,-71 629.61,-78"/>
</a>
</g>
</g>
<!-- Node13 -->
<g id="Node000013" class="node">
<title>Node13</title>
<g id="a_Node000013"><a xlink:href="initialization_8c.html#abe8fa4db80318b7343e51fa9f70ab92f" target="_top" xlink:title=" ">
<polygon fill="white" stroke="#666666" points="458.5,-19 375.5,-19 375.5,0 458.5,0 458.5,-19"/>
<text text-anchor="middle" x="417" y="-7" font-family="Helvetica,sans-Serif" font-size="10.00">set_subboxes</text>
</a>
</g>
</g>
<!-- Node2&#45;&gt;Node13 -->
<g id="edge14_Node000002_Node000013" class="edge">
<title>Node2&#45;&gt;Node13</title>
<g id="a_edge14_Node000002_Node000013"><a xlink:title=" ">
<path fill="none" stroke="#63b8ff" d="M649.27,-62.71C594.52,-50.12 508.84,-30.4 458.57,-18.84"/>
<polygon fill="#63b8ff" stroke="#63b8ff" points="648.59,-66.15 659.12,-64.98 650.16,-59.33 648.59,-66.15"/>
</a>
</g>
</g>
<!-- Node4 -->
<g id="Node000004" class="node">
<title>Node4</title>
<g id="a_Node000004"><a xlink:href="build__groups_8c.html#a4df1001cc86732388d8ecf04e3372827" target="_top" xlink:title=" ">
<polygon fill="white" stroke="#666666" points="456.5,-132 377.5,-132 377.5,-113 456.5,-113 456.5,-132"/>
<text text-anchor="middle" x="417" y="-120" font-family="Helvetica,sans-Serif" font-size="10.00">build_groups</text>
</a>
</g>
</g>
<!-- Node3&#45;&gt;Node4 -->
<g id="edge3_Node000003_Node000004" class="edge">
<title>Node3&#45;&gt;Node4</title>
<g id="a_edge3_Node000003_Node000004"><a xlink:title=" ">
<path fill="none" stroke="#63b8ff" d="M513.2,-118.52C494.82,-119.29 474.14,-120.15 456.76,-120.88"/>
<polygon fill="#63b8ff" stroke="#63b8ff" points="513.58,-122.01 523.42,-118.09 513.28,-115.01 513.58,-122.01"/>
</a>
</g>
</g>
<!-- Node5 -->
<g id="Node000005" class="node">
<title>Node5</title>
<g id="a_Node000005"><a xlink:href="fragment_8c.html#ac2bb250921932f90f7b0939d1181b66d" target="_top" xlink:title=" ">
<polygon fill="white" stroke="#666666" points="291.5,-131 229.5,-131 229.5,-112 291.5,-112 291.5,-131"/>
<text text-anchor="middle" x="260.5" y="-119" font-family="Helvetica,sans-Serif" font-size="10.00">fragment</text>
</a>
</g>
</g>
<!-- Node4&#45;&gt;Node5 -->
<g id="edge4_Node000004_Node000005" class="edge">
<title>Node4&#45;&gt;Node5</title>
<g id="a_edge4_Node000004_Node000005"><a xlink:title=" ">
<path fill="none" stroke="#63b8ff" d="M367.14,-122.18C342.46,-122.02 313.29,-121.84 291.86,-121.7"/>
<polygon fill="#63b8ff" stroke="#63b8ff" points="367.39,-125.69 377.41,-122.25 367.43,-118.69 367.39,-125.69"/>
</a>
</g>
</g>
<!-- Node6 -->
<g id="Node000006" class="node">
<title>Node6</title>
<g id="a_Node000006"><a xlink:href="fragment_8c.html#ae3aa75d17cbc170e60f4f48c4a2ffdf5" target="_top" xlink:title=" ">
<polygon fill="white" stroke="#666666" points="172,-131 77,-131 77,-112 172,-112 172,-131"/>
<text text-anchor="middle" x="124.5" y="-119" font-family="Helvetica,sans-Serif" font-size="10.00">fragment_driver</text>
</a>
</g>
</g>
<!-- Node5&#45;&gt;Node6 -->
<g id="edge5_Node000005_Node000006" class="edge">
<title>Node5&#45;&gt;Node6</title>
<g id="a_edge5_Node000005_Node000006"><a xlink:title=" ">
<path fill="none" stroke="#63b8ff" d="M219.06,-121.5C204.24,-121.5 187.36,-121.5 172.05,-121.5"/>
<polygon fill="#63b8ff" stroke="#63b8ff" points="219.43,-125 229.43,-121.5 219.43,-118 219.43,-125"/>
</a>
</g>
</g>
<!-- Node7 -->
<g id="Node000007" class="node">
<title>Node7</title>
<g id="a_Node000007"><a xlink:href="pinocchio_8c.html#a647f21a28344e1d9c643f4115516d7c9" target="_top" xlink:title=" ">
<polygon fill="white" stroke="#666666" points="41,-112 0,-112 0,-93 41,-93 41,-112"/>
<text text-anchor="middle" x="20.5" y="-100" font-family="Helvetica,sans-Serif" font-size="10.00">main</text>
</a>
</g>
</g>
<!-- Node6&#45;&gt;Node7 -->
<g id="edge6_Node000006_Node000007" class="edge">
<title>Node6&#45;&gt;Node7</title>
<g id="a_edge6_Node000006_Node000007"><a xlink:title=" ">
<path fill="none" stroke="#63b8ff" d="M66.91,-110.96C57.67,-109.24 48.67,-107.56 41.16,-106.16"/>
<polygon fill="#63b8ff" stroke="#63b8ff" points="66.51,-114.44 76.98,-112.83 67.79,-107.56 66.51,-114.44"/>
</a>
</g>
</g>
<!-- Node9 -->
<g id="Node000009" class="node">
<title>Node9</title>
<g id="a_Node000009"><a xlink:href="fragment_8c.html#aabb4533acf454a2edcad5fe0ad385df8" target="_top" xlink:title=" ">
<polygon fill="white" stroke="#666666" points="485,-56 349,-56 349,-37 485,-37 485,-56"/>
<text text-anchor="middle" x="417" y="-44" font-family="Helvetica,sans-Serif" font-size="10.00">compute_Nhalos_in_PLC</text>
</a>
</g>
</g>
<!-- Node8&#45;&gt;Node9 -->
<g id="edge8_Node000008_Node000009" class="edge">
<title>Node8&#45;&gt;Node9</title>
<g id="a_edge8_Node000008_Node000009"><a xlink:title=" ">
<path fill="none" stroke="#63b8ff" d="M510.62,-64.57C496.35,-61.79 480.87,-58.77 466.73,-56.01"/>
<polygon fill="#63b8ff" stroke="#63b8ff" points="510.28,-68.07 520.76,-66.55 511.62,-61.2 510.28,-68.07"/>
</a>
</g>
</g>
<!-- Node10 -->
<g id="Node000010" class="node">
<title>Node10</title>
<g id="a_Node000010"><a xlink:href="fragment_8c.html#a1d88ab9fbf839def20a948fed5095970" target="_top" xlink:title=" ">
<polygon fill="white" stroke="#666666" points="313,-94 208,-94 208,-75 313,-75 313,-94"/>
<text text-anchor="middle" x="260.5" y="-82" font-family="Helvetica,sans-Serif" font-size="10.00">estimate_file_size</text>
</a>
</g>
</g>
<!-- Node8&#45;&gt;Node10 -->
<g id="edge13_Node000008_Node000010" class="edge">
<title>Node8&#45;&gt;Node10</title>
<g id="a_edge13_Node000008_Node000010"><a xlink:title=" ">
<path fill="none" stroke="#63b8ff" d="M510.52,-76.2C455.55,-78.03 368.52,-80.93 313.25,-82.77"/>
<polygon fill="#63b8ff" stroke="#63b8ff" points="510.85,-79.69 520.73,-75.86 510.62,-72.69 510.85,-79.69"/>
</a>
</g>
</g>
<!-- Node9&#45;&gt;Node10 -->
<g id="edge9_Node000009_Node000010" class="edge">
<title>Node9&#45;&gt;Node10</title>
<g id="a_edge9_Node000009_Node000010"><a xlink:title=" ">
<path fill="none" stroke="#63b8ff" d="M367.05,-58.54C345.46,-63.85 320.46,-70 300.21,-74.98"/>
<polygon fill="#63b8ff" stroke="#63b8ff" points="368.14,-61.88 377.01,-56.09 366.47,-55.08 368.14,-61.88"/>
</a>
</g>
</g>
<!-- Node12 -->
<g id="Node000012" class="node">
<title>Node12</title>
<g id="a_Node000012"><a xlink:href="write__halos_8c.html#a9c1d2f1df77a66a8e31b7d19251f39ac" target="_top" xlink:title=" ">
<polygon fill="white" stroke="#666666" points="293,-57 228,-57 228,-38 293,-38 293,-57"/>
<text text-anchor="middle" x="260.5" y="-45" font-family="Helvetica,sans-Serif" font-size="10.00">write_PLC</text>
</a>
</g>
</g>
<!-- Node9&#45;&gt;Node12 -->
<g id="edge12_Node000009_Node000012" class="edge">
<title>Node9&#45;&gt;Node12</title>
<g id="a_edge12_Node000009_Node000012"><a xlink:title=" ">
<path fill="none" stroke="#63b8ff" d="M338.65,-47C322.51,-47.11 306.37,-47.21 293.05,-47.3"/>
<polygon fill="#63b8ff" stroke="#63b8ff" points="338.71,-50.5 348.68,-46.94 338.66,-43.5 338.71,-50.5"/>
</a>
</g>
</g>
<!-- Node11 -->
<g id="Node000011" class="node">
<title>Node11</title>
<g id="a_Node000011"><a xlink:href="initialization_8c.html#a2bed034b4a40d49d0765d1ce741bd8a9" target="_top" xlink:title=" ">
<polygon fill="white" stroke="#666666" points="163,-94 86,-94 86,-75 163,-75 163,-94"/>
<text text-anchor="middle" x="124.5" y="-82" font-family="Helvetica,sans-Serif" font-size="10.00">initialization</text>
</a>
</g>
</g>
<!-- Node10&#45;&gt;Node11 -->
<g id="edge10_Node000010_Node000011" class="edge">
<title>Node10&#45;&gt;Node11</title>
<g id="a_edge10_Node000010_Node000011"><a xlink:title=" ">
<path fill="none" stroke="#63b8ff" d="M197.45,-84.5C185.7,-84.5 173.75,-84.5 163.05,-84.5"/>
<polygon fill="#63b8ff" stroke="#63b8ff" points="197.69,-88 207.69,-84.5 197.69,-81 197.69,-88"/>
</a>
</g>
</g>
<!-- Node11&#45;&gt;Node7 -->
<g id="edge11_Node000011_Node000007" class="edge">
<title>Node11&#45;&gt;Node7</title>
<g id="a_edge11_Node000011_Node000007"><a xlink:title=" ">
<path fill="none" stroke="#63b8ff" d="M75.65,-92.94C63.41,-95.1 50.92,-97.31 41.03,-99.05"/>
<polygon fill="#63b8ff" stroke="#63b8ff" points="76.57,-96.34 85.81,-91.15 75.35,-89.44 76.57,-96.34"/>
</a>
</g>
</g>
<!-- Node13&#45;&gt;Node11 -->
<g id="edge15_Node000013_Node000011" class="edge">
<title>Node13&#45;&gt;Node11</title>
<g id="a_edge15_Node000013_Node000011"><a xlink:title=" ">
<path fill="none" stroke="#63b8ff" d="M364.99,-7.15C321.92,-6.79 259.25,-10.16 208,-28.5 178.99,-38.88 150.44,-61.9 135.73,-74.96"/>
<polygon fill="#63b8ff" stroke="#63b8ff" points="365.18,-10.65 375.23,-7.31 365.29,-3.65 365.18,-10.65"/>
</a>
</g>
</g>
</g>
</svg>
