<?xml version="1.0" encoding="UTF-8" standalone="no"?>
<!DOCTYPE svg PUBLIC "-//W3C//DTD SVG 1.1//EN"
 "http://www.w3.org/Graphics/SVG/1.1/DTD/svg11.dtd">
<!-- Generated by graphviz version 2.43.0 (0)
 -->
<!-- Title: set_obj_vel Pages: 1 -->
<svg width="480pt" height="159pt"
 viewBox="0.00 0.00 480.00 159.35" xmlns="http://www.w3.org/2000/svg" xmlns:xlink="http://www.w3.org/1999/xlink">
<g id="graph0" class="graph" transform="scale(1 1) rotate(0) translate(4 155.35)">
<title>set_obj_vel</title>
<!-- Node1 -->
<g id="Node000001" class="node">
<title>Node1</title>
<g id="a_Node000001"><a xlink:title=" ">
<polygon fill="#999999" stroke="#666666" points="72,-77.35 0,-77.35 0,-58.35 72,-58.35 72,-77.35"/>
<text text-anchor="middle" x="36" y="-65.35" font-family="Helvetica,sans-Serif" font-size="10.00">set_obj_vel</text>
</a>
</g>
</g>
<!-- Node2 -->
<g id="Node000002" class="node">
<title>Node2</title>
<g id="a_Node000002"><a xlink:href="cosmo_8c.html#a395fdee07918e6b1298b2002d37aab7f" target="_top" xlink:title=" ">
<polygon fill="white" stroke="#666666" points="182,-151.35 128,-151.35 128,-132.35 182,-132.35 182,-151.35"/>
<text text-anchor="middle" x="155" y="-139.35" font-family="Helvetica,sans-Serif" font-size="10.00">fomega</text>
</a>
</g>
</g>
<!-- Node1&#45;&gt;Node2 -->
<g id="edge1_Node000001_Node000002" class="edge">
<title>Node1&#45;&gt;Node2</title>
<g id="a_edge1_Node000001_Node000002"><a xlink:title=" ">
<path fill="none" stroke="#63b8ff" d="M47.35,-77.64C60.58,-89.76 84.57,-110.42 108,-123.85 111.24,-125.71 114.71,-127.45 118.24,-129.07"/>
<polygon fill="#63b8ff" stroke="#63b8ff" points="117.02,-132.36 127.59,-133.05 119.76,-125.92 117.02,-132.36"/>
</a>
</g>
</g>
<!-- Node5 -->
<g id="Node000005" class="node">
<title>Node5</title>
<g id="a_Node000005"><a xlink:href="cosmo_8c.html#a10bb78a97e9affce82cd0961eaaf6cae" target="_top" xlink:title=" ">
<polygon fill="white" stroke="#666666" points="196.5,-114.35 113.5,-114.35 113.5,-95.35 196.5,-95.35 196.5,-114.35"/>
<text text-anchor="middle" x="155" y="-102.35" font-family="Helvetica,sans-Serif" font-size="10.00">fomega_2LPT</text>
</a>
</g>
</g>
<!-- Node1&#45;&gt;Node5 -->
<g id="edge4_Node000001_Node000005" class="edge">
<title>Node1&#45;&gt;Node5</title>
<g id="a_edge4_Node000001_Node000005"><a xlink:title=" ">
<path fill="none" stroke="#63b8ff" d="M67.13,-77.38C81.35,-81.87 98.52,-87.3 113.82,-92.14"/>
<polygon fill="#63b8ff" stroke="#63b8ff" points="112.98,-95.55 123.57,-95.22 115.09,-88.87 112.98,-95.55"/>
</a>
</g>
</g>
<!-- Node6 -->
<g id="Node000006" class="node">
<title>Node6</title>
<g id="a_Node000006"><a xlink:href="cosmo_8c.html#acf7ff09e2fe05a19bbf0e7c0d5839e52" target="_top" xlink:title=" ">
<polygon fill="white" stroke="#666666" points="202,-77.35 108,-77.35 108,-58.35 202,-58.35 202,-77.35"/>
<text text-anchor="middle" x="155" y="-65.35" font-family="Helvetica,sans-Serif" font-size="10.00">fomega_3LPT_1</text>
</a>
</g>
</g>
<!-- Node1&#45;&gt;Node6 -->
<g id="edge6_Node000001_Node000006" class="edge">
<title>Node1&#45;&gt;Node6</title>
<g id="a_edge6_Node000001_Node000006"><a xlink:title=" ">
<path fill="none" stroke="#63b8ff" d="M72.1,-67.85C80.13,-67.85 88.87,-67.85 97.55,-67.85"/>
<polygon fill="#63b8ff" stroke="#63b8ff" points="97.66,-71.35 107.66,-67.85 97.66,-64.35 97.66,-71.35"/>
</a>
</g>
</g>
<!-- Node7 -->
<g id="Node000007" class="node">
<title>Node7</title>
<g id="a_Node000007"><a xlink:href="cosmo_8c.html#ad3aca2ac8129b437962982600873aa3a" target="_top" xlink:title=" ">
<polygon fill="white" stroke="#666666" points="202,-40.35 108,-40.35 108,-21.35 202,-21.35 202,-40.35"/>
<text text-anchor="middle" x="155" y="-28.35" font-family="Helvetica,sans-Serif" font-size="10.00">fomega_3LPT_2</text>
</a>
</g>
</g>
<!-- Node1&#45;&gt;Node7 -->
<g id="edge8_Node000001_Node000007" class="edge">
<title>Node1&#45;&gt;Node7</title>
<g id="a_edge8_Node000001_Node000007"><a xlink:title=" ">
<path fill="none" stroke="#63b8ff" d="M67.13,-58.32C81.35,-53.82 98.52,-48.39 113.82,-43.55"/>
<polygon fill="#63b8ff" stroke="#63b8ff" points="115.09,-46.83 123.57,-40.47 112.98,-40.15 115.09,-46.83"/>
</a>
</g>
</g>
<!-- Node8 -->
<g id="Node000008" class="node">
<title>Node8</title>
<g id="a_Node000008"><a xlink:href="cosmo_8c.html#a911e9ce363c4662ce531c65885519f7a" target="_top" xlink:title=" ">
<polygon fill="white" stroke="#666666" points="316,-21.35 265,-21.35 265,-2.35 316,-2.35 316,-21.35"/>
<text text-anchor="middle" x="290.5" y="-9.35" font-family="Helvetica,sans-Serif" font-size="10.00">Hubble</text>
</a>
</g>
</g>
<!-- Node1&#45;&gt;Node8 -->
<g id="edge10_Node000001_Node000008" class="edge">
<title>Node1&#45;&gt;Node8</title>
<g id="a_edge10_Node000001_Node000008"><a xlink:title=" ">
<path fill="none" stroke="#63b8ff" d="M45.4,-57.97C57.59,-44.5 81.6,-21.01 108,-11.85 156.84,5.1 217.63,0.32 254.99,-5.29"/>
<polygon fill="#63b8ff" stroke="#63b8ff" points="254.45,-8.75 264.88,-6.88 255.56,-1.84 254.45,-8.75"/>
</a>
</g>
</g>
<!-- Node3 -->
<g id="Node000003" class="node">
<title>Node3</title>
<g id="a_Node000003"><a xlink:href="cosmo_8c.html#a8847e5b8ea1f9c458c8bf9e5f36837a9" target="_top" xlink:title=" ">
<polygon fill="white" stroke="#666666" points="343,-77.35 238,-77.35 238,-58.35 343,-58.35 343,-77.35"/>
<text text-anchor="middle" x="290.5" y="-65.35" font-family="Helvetica,sans-Serif" font-size="10.00">InterpolateGrowth</text>
</a>
</g>
</g>
<!-- Node2&#45;&gt;Node3 -->
<g id="edge2_Node000002_Node000003" class="edge">
<title>Node2&#45;&gt;Node3</title>
<g id="a_edge2_Node000002_Node000003"><a xlink:title=" ">
<path fill="none" stroke="#63b8ff" d="M182.18,-132.63C188.76,-130.03 195.73,-127.04 202,-123.85 225.54,-111.86 250.79,-95.26 268.08,-83.24"/>
<polygon fill="#63b8ff" stroke="#63b8ff" points="270.18,-86.05 276.35,-77.43 266.15,-80.32 270.18,-86.05"/>
</a>
</g>
</g>
<!-- Node4 -->
<g id="Node000004" class="node">
<title>Node4</title>
<g id="a_Node000004"><a xlink:href="cosmo_8c.html#a6341f5394ed17a00dc77c5519b292ae3" target="_top" xlink:title=" ">
<polygon fill="white" stroke="#666666" points="472,-39.35 379,-39.35 379,-20.35 472,-20.35 472,-39.35"/>
<text text-anchor="middle" x="425.5" y="-27.35" font-family="Helvetica,sans-Serif" font-size="10.00">my_spline_eval</text>
</a>
</g>
</g>
<!-- Node3&#45;&gt;Node4 -->
<g id="edge3_Node000003_Node000004" class="edge">
<title>Node3&#45;&gt;Node4</title>
<g id="a_edge3_Node000003_Node000004"><a xlink:title=" ">
<path fill="none" stroke="#63b8ff" d="M325.06,-58.26C342.07,-53.4 362.93,-47.44 381.14,-42.24"/>
<polygon fill="#63b8ff" stroke="#63b8ff" points="382.3,-45.55 390.95,-39.43 380.37,-38.82 382.3,-45.55"/>
</a>
</g>
</g>
<!-- Node5&#45;&gt;Node3 -->
<g id="edge5_Node000005_Node000003" class="edge">
<title>Node5&#45;&gt;Node3</title>
<g id="a_edge5_Node000005_Node000003"><a xlink:title=" ">
<path fill="none" stroke="#63b8ff" d="M190.38,-95.32C206.91,-90.74 226.94,-85.19 244.65,-80.28"/>
<polygon fill="#63b8ff" stroke="#63b8ff" points="246.07,-83.52 254.77,-77.47 244.2,-76.77 246.07,-83.52"/>
</a>
</g>
</g>
<!-- Node6&#45;&gt;Node3 -->
<g id="edge7_Node000006_Node000003" class="edge">
<title>Node6&#45;&gt;Node3</title>
<g id="a_edge7_Node000006_Node000003"><a xlink:title=" ">
<path fill="none" stroke="#63b8ff" d="M202.32,-67.85C210.46,-67.85 219.04,-67.85 227.52,-67.85"/>
<polygon fill="#63b8ff" stroke="#63b8ff" points="227.78,-71.35 237.78,-67.85 227.78,-64.35 227.78,-71.35"/>
</a>
</g>
</g>
<!-- Node7&#45;&gt;Node3 -->
<g id="edge9_Node000007_Node000003" class="edge">
<title>Node7&#45;&gt;Node3</title>
<g id="a_edge9_Node000007_Node000003"><a xlink:title=" ">
<path fill="none" stroke="#63b8ff" d="M190.38,-40.38C206.91,-44.96 226.94,-50.51 244.65,-55.42"/>
<polygon fill="#63b8ff" stroke="#63b8ff" points="244.2,-58.93 254.77,-58.22 246.07,-52.18 244.2,-58.93"/>
</a>
</g>
</g>
<!-- Node8&#45;&gt;Node4 -->
<g id="edge11_Node000008_Node000004" class="edge">
<title>Node8&#45;&gt;Node4</title>
<g id="a_edge11_Node000008_Node000004"><a xlink:title=" ">
<path fill="none" stroke="#63b8ff" d="M316.2,-15.19C331.04,-17.2 350.53,-19.84 368.89,-22.32"/>
<polygon fill="#63b8ff" stroke="#63b8ff" points="368.56,-25.81 378.94,-23.68 369.5,-18.87 368.56,-25.81"/>
</a>
</g>
</g>
</g>
</svg>
