<?xml version="1.0" encoding="UTF-8" standalone="no"?>
<!DOCTYPE svg PUBLIC "-//W3C//DTD SVG 1.1//EN"
 "http://www.w3.org/Graphics/SVG/1.1/DTD/svg11.dtd">
<!-- Generated by graphviz version 2.43.0 (0)
 -->
<!-- Title: set_obj Pages: 1 -->
<svg width="800pt" height="302pt"
 viewBox="0.00 0.00 800.00 302.07" xmlns="http://www.w3.org/2000/svg" xmlns:xlink="http://www.w3.org/1999/xlink">
<g id="graph0" class="graph" transform="scale(1 1) rotate(0) translate(4 298.07)">
<title>set_obj</title>
<!-- Node1 -->
<g id="Node000001" class="node">
<title>Node1</title>
<g id="a_Node000001"><a xlink:title=" ">
<polygon fill="#999999" stroke="#666666" points="792,-180.07 740,-180.07 740,-161.07 792,-161.07 792,-180.07"/>
<text text-anchor="middle" x="766" y="-168.07" font-family="Helvetica,sans-Serif" font-size="10.00">set_obj</text>
</a>
</g>
</g>
<!-- Node2 -->
<g id="Node000002" class="node">
<title>Node2</title>
<g id="a_Node000002"><a xlink:href="build__groups_8c.html#a530b060f5cb84e65a11f345fffd25bd0" target="_top" xlink:title=" ">
<polygon fill="white" stroke="#666666" points="548.5,-183.07 486.5,-183.07 486.5,-164.07 548.5,-164.07 548.5,-183.07"/>
<text text-anchor="middle" x="517.5" y="-171.07" font-family="Helvetica,sans-Serif" font-size="10.00">accretion</text>
</a>
</g>
</g>
<!-- Node1&#45;&gt;Node2 -->
<g id="edge1_Node000001_Node000002" class="edge">
<title>Node1&#45;&gt;Node2</title>
<g id="a_edge1_Node000001_Node000002"><a xlink:title=" ">
<path fill="none" stroke="#63b8ff" d="M729.49,-171.01C680.89,-171.6 594.48,-172.65 548.78,-173.21"/>
<polygon fill="#63b8ff" stroke="#63b8ff" points="729.59,-174.51 739.55,-170.88 729.51,-167.51 729.59,-174.51"/>
</a>
</g>
</g>
<!-- Node8 -->
<g id="Node000008" class="node">
<title>Node8</title>
<g id="a_Node000008"><a xlink:href="build__groups_8c.html#af69f24bb7de71a95c009a1ec9b9d9081" target="_top" xlink:title=" ">
<polygon fill="white" stroke="#666666" points="583,-294.07 452,-294.07 452,-275.07 583,-275.07 583,-294.07"/>
<text text-anchor="middle" x="517.5" y="-282.07" font-family="Helvetica,sans-Serif" font-size="10.00">condition_for_accretion</text>
</a>
</g>
</g>
<!-- Node1&#45;&gt;Node8 -->
<g id="edge8_Node000001_Node000008" class="edge">
<title>Node1&#45;&gt;Node8</title>
<g id="a_edge8_Node000001_Node000008"><a xlink:title=" ">
<path fill="none" stroke="#63b8ff" d="M751.32,-188.52C740.02,-202.17 722.83,-220.45 704,-231.57 666.08,-253.97 618.17,-267.34 580.54,-275.05"/>
<polygon fill="#63b8ff" stroke="#63b8ff" points="754.35,-190.34 757.85,-180.34 748.88,-185.97 754.35,-190.34"/>
</a>
</g>
</g>
<!-- Node9 -->
<g id="Node000009" class="node">
<title>Node9</title>
<g id="a_Node000009"><a xlink:href="build__groups_8c.html#ac7da2c9afeba949ceefcfd46146d5067" target="_top" xlink:title=" ">
<polygon fill="white" stroke="#666666" points="580.5,-257.07 454.5,-257.07 454.5,-238.07 580.5,-238.07 580.5,-257.07"/>
<text text-anchor="middle" x="517.5" y="-245.07" font-family="Helvetica,sans-Serif" font-size="10.00">condition_for_merging</text>
</a>
</g>
</g>
<!-- Node1&#45;&gt;Node9 -->
<g id="edge11_Node000001_Node000009" class="edge">
<title>Node1&#45;&gt;Node9</title>
<g id="a_edge11_Node000001_Node000009"><a xlink:title=" ">
<path fill="none" stroke="#63b8ff" d="M742.4,-185.7C731.24,-192.6 717.33,-200.38 704,-205.57 664.31,-221.05 617.52,-231.59 580.86,-238.25"/>
<polygon fill="#63b8ff" stroke="#63b8ff" points="744.51,-188.51 751.06,-180.19 740.75,-182.61 744.51,-188.51"/>
</a>
</g>
</g>
<!-- Node10 -->
<g id="Node000010" class="node">
<title>Node10</title>
<g id="a_Node000010"><a xlink:href="build__groups_8c.html#a69a7cc51af8af468a60cbbd2894fdb46" target="_top" xlink:title=" ">
<polygon fill="white" stroke="#666666" points="704,-125.07 619,-125.07 619,-106.07 704,-106.07 704,-125.07"/>
<text text-anchor="middle" x="661.5" y="-113.07" font-family="Helvetica,sans-Serif" font-size="10.00">condition_PLC</text>
</a>
</g>
</g>
<!-- Node1&#45;&gt;Node10 -->
<g id="edge14_Node000001_Node000010" class="edge">
<title>Node1&#45;&gt;Node10</title>
<g id="a_edge14_Node000001_Node000010"><a xlink:title=" ">
<path fill="none" stroke="#63b8ff" d="M738.19,-156.19C720.01,-146.43 696.46,-133.8 680.49,-125.23"/>
<polygon fill="#63b8ff" stroke="#63b8ff" points="736.68,-159.35 747.15,-160.99 739.99,-153.18 736.68,-159.35"/>
</a>
</g>
</g>
<!-- Node13 -->
<g id="Node000013" class="node">
<title>Node13</title>
<g id="a_Node000013"><a xlink:href="build__groups_8c.html#ac1deaf6b88e43b32cf38f79488b5d54f" target="_top" xlink:title=" ">
<polygon fill="white" stroke="#666666" points="560.5,-220.07 474.5,-220.07 474.5,-201.07 560.5,-201.07 560.5,-220.07"/>
<text text-anchor="middle" x="517.5" y="-208.07" font-family="Helvetica,sans-Serif" font-size="10.00">merge_groups</text>
</a>
</g>
</g>
<!-- Node1&#45;&gt;Node13 -->
<g id="edge20_Node000001_Node000013" class="edge">
<title>Node1&#45;&gt;Node13</title>
<g id="a_edge20_Node000001_Node000013"><a xlink:title=" ">
<path fill="none" stroke="#63b8ff" d="M729.95,-179.87C721.49,-181.93 712.46,-183.97 704,-185.57 655.15,-194.84 598.43,-201.96 560.7,-206.19"/>
<polygon fill="#63b8ff" stroke="#63b8ff" points="731.05,-183.21 739.91,-177.39 729.36,-176.42 731.05,-183.21"/>
</a>
</g>
</g>
<!-- Node14 -->
<g id="Node000014" class="node">
<title>Node14</title>
<g id="a_Node000014"><a xlink:href="build__groups_8c.html#adaafe9165f4f93104de87c14939d2c60" target="_top" xlink:title=" ">
<polygon fill="white" stroke="#666666" points="694,-21.07 629,-21.07 629,-2.07 694,-2.07 694,-21.07"/>
<text text-anchor="middle" x="661.5" y="-9.07" font-family="Helvetica,sans-Serif" font-size="10.00">store_PLC</text>
</a>
</g>
</g>
<!-- Node1&#45;&gt;Node14 -->
<g id="edge23_Node000001_Node000014" class="edge">
<title>Node1&#45;&gt;Node14</title>
<g id="a_edge23_Node000001_Node000014"><a xlink:title=" ">
<path fill="none" stroke="#63b8ff" d="M757.76,-151.59C747.84,-126.92 728.41,-83.13 704,-50.57 695.58,-39.34 683.73,-28.57 674.85,-21.21"/>
<polygon fill="#63b8ff" stroke="#63b8ff" points="754.51,-152.88 761.42,-160.91 761.03,-150.32 754.51,-152.88"/>
</a>
</g>
</g>
<!-- Node15 -->
<g id="Node000015" class="node">
<title>Node15</title>
<g id="a_Node000015"><a xlink:href="write__halos_8c.html#a4ae40bdaead20fb1a2a22663d299b9e7" target="_top" xlink:title=" ">
<polygon fill="white" stroke="#666666" points="703,-78.07 620,-78.07 620,-59.07 703,-59.07 703,-78.07"/>
<text text-anchor="middle" x="661.5" y="-66.07" font-family="Helvetica,sans-Serif" font-size="10.00">write_catalog</text>
</a>
</g>
</g>
<!-- Node1&#45;&gt;Node15 -->
<g id="edge25_Node000001_Node000015" class="edge">
<title>Node1&#45;&gt;Node15</title>
<g id="a_edge25_Node000001_Node000015"><a xlink:title=" ">
<path fill="none" stroke="#63b8ff" d="M752.17,-152.67C740.57,-137.14 722.52,-114.56 704,-97.57 696.1,-90.33 686.3,-83.4 678.21,-78.13"/>
<polygon fill="#63b8ff" stroke="#63b8ff" points="749.47,-154.9 758.21,-160.9 755.11,-150.76 749.47,-154.9"/>
</a>
</g>
</g>
<!-- Node3 -->
<g id="Node000003" class="node">
<title>Node3</title>
<g id="a_Node000003"><a xlink:href="build__groups_8c.html#a4df1001cc86732388d8ecf04e3372827" target="_top" xlink:title=" ">
<polygon fill="white" stroke="#666666" points="400.5,-165.07 321.5,-165.07 321.5,-146.07 400.5,-146.07 400.5,-165.07"/>
<text text-anchor="middle" x="361" y="-153.07" font-family="Helvetica,sans-Serif" font-size="10.00">build_groups</text>
</a>
</g>
</g>
<!-- Node2&#45;&gt;Node3 -->
<g id="edge2_Node000002_Node000003" class="edge">
<title>Node2&#45;&gt;Node3</title>
<g id="a_edge2_Node000002_Node000003"><a xlink:title=" ">
<path fill="none" stroke="#63b8ff" d="M476.4,-168.9C453.03,-166.18 423.7,-162.76 400.59,-160.07"/>
<polygon fill="#63b8ff" stroke="#63b8ff" points="476.01,-172.38 486.34,-170.06 476.82,-165.43 476.01,-172.38"/>
</a>
</g>
</g>
<!-- Node7 -->
<g id="Node000007" class="node">
<title>Node7</title>
<g id="a_Node000007"><a xlink:href="build__groups_8c.html#a4c36038b339975ce63e8ac2c89f55208" target="_top" xlink:title=" ">
<polygon fill="white" stroke="#666666" points="416,-220.07 306,-220.07 306,-201.07 416,-201.07 416,-220.07"/>
<text text-anchor="middle" x="361" y="-208.07" font-family="Helvetica,sans-Serif" font-size="10.00">quick_build_groups</text>
</a>
</g>
</g>
<!-- Node2&#45;&gt;Node7 -->
<g id="edge6_Node000002_Node000007" class="edge">
<title>Node2&#45;&gt;Node7</title>
<g id="a_edge6_Node000002_Node000007"><a xlink:title=" ">
<path fill="none" stroke="#63b8ff" d="M476.55,-183.14C453.54,-188.65 424.72,-195.56 401.74,-201.06"/>
<polygon fill="#63b8ff" stroke="#63b8ff" points="477.43,-186.53 486.34,-180.8 475.8,-179.72 477.43,-186.53"/>
</a>
</g>
</g>
<!-- Node4 -->
<g id="Node000004" class="node">
<title>Node4</title>
<g id="a_Node000004"><a xlink:href="fragment_8c.html#ac2bb250921932f90f7b0939d1181b66d" target="_top" xlink:title=" ">
<polygon fill="white" stroke="#666666" points="270,-183.07 208,-183.07 208,-164.07 270,-164.07 270,-183.07"/>
<text text-anchor="middle" x="239" y="-171.07" font-family="Helvetica,sans-Serif" font-size="10.00">fragment</text>
</a>
</g>
</g>
<!-- Node3&#45;&gt;Node4 -->
<g id="edge3_Node000003_Node000004" class="edge">
<title>Node3&#45;&gt;Node4</title>
<g id="a_edge3_Node000003_Node000004"><a xlink:title=" ">
<path fill="none" stroke="#63b8ff" d="M311.41,-162.86C297.47,-164.95 282.67,-167.17 270.19,-169.05"/>
<polygon fill="#63b8ff" stroke="#63b8ff" points="312,-166.31 321.37,-161.37 310.96,-159.39 312,-166.31"/>
</a>
</g>
</g>
<!-- Node5 -->
<g id="Node000005" class="node">
<title>Node5</title>
<g id="a_Node000005"><a xlink:href="fragment_8c.html#ae3aa75d17cbc170e60f4f48c4a2ffdf5" target="_top" xlink:title=" ">
<polygon fill="white" stroke="#666666" points="172,-183.07 77,-183.07 77,-164.07 172,-164.07 172,-183.07"/>
<text text-anchor="middle" x="124.5" y="-171.07" font-family="Helvetica,sans-Serif" font-size="10.00">fragment_driver</text>
</a>
</g>
</g>
<!-- Node4&#45;&gt;Node5 -->
<g id="edge4_Node000004_Node000005" class="edge">
<title>Node4&#45;&gt;Node5</title>
<g id="a_edge4_Node000004_Node000005"><a xlink:title=" ">
<path fill="none" stroke="#63b8ff" d="M197.73,-173.57C189.47,-173.57 180.72,-173.57 172.26,-173.57"/>
<polygon fill="#63b8ff" stroke="#63b8ff" points="197.85,-177.07 207.85,-173.57 197.85,-170.07 197.85,-177.07"/>
</a>
</g>
</g>
<!-- Node6 -->
<g id="Node000006" class="node">
<title>Node6</title>
<g id="a_Node000006"><a xlink:href="pinocchio_8c.html#a647f21a28344e1d9c643f4115516d7c9" target="_top" xlink:title=" ">
<polygon fill="white" stroke="#666666" points="41,-183.07 0,-183.07 0,-164.07 41,-164.07 41,-183.07"/>
<text text-anchor="middle" x="20.5" y="-171.07" font-family="Helvetica,sans-Serif" font-size="10.00">main</text>
</a>
</g>
</g>
<!-- Node5&#45;&gt;Node6 -->
<g id="edge5_Node000005_Node000006" class="edge">
<title>Node5&#45;&gt;Node6</title>
<g id="a_edge5_Node000005_Node000006"><a xlink:title=" ">
<path fill="none" stroke="#63b8ff" d="M66.91,-173.57C57.67,-173.57 48.67,-173.57 41.16,-173.57"/>
<polygon fill="#63b8ff" stroke="#63b8ff" points="66.98,-177.07 76.98,-173.57 66.98,-170.07 66.98,-177.07"/>
</a>
</g>
</g>
<!-- Node7&#45;&gt;Node4 -->
<g id="edge7_Node000007_Node000004" class="edge">
<title>Node7&#45;&gt;Node4</title>
<g id="a_edge7_Node000007_Node000004"><a xlink:title=" ">
<path fill="none" stroke="#63b8ff" d="M319.42,-198.06C303.38,-193.12 285.26,-187.53 270.38,-182.94"/>
<polygon fill="#63b8ff" stroke="#63b8ff" points="318.51,-201.44 329.1,-201.05 320.57,-194.75 318.51,-201.44"/>
</a>
</g>
</g>
<!-- Node8&#45;&gt;Node3 -->
<g id="edge9_Node000008_Node000003" class="edge">
<title>Node8&#45;&gt;Node3</title>
<g id="a_edge9_Node000008_Node000003"><a xlink:title=" ">
<path fill="none" stroke="#63b8ff" d="M456.86,-270.16C455.17,-269.05 453.54,-267.86 452,-266.57 423.91,-243.15 439.88,-220.28 416,-192.57 406.21,-181.21 392.15,-171.73 380.84,-165.21"/>
<polygon fill="#63b8ff" stroke="#63b8ff" points="455.33,-273.32 465.79,-275.02 458.68,-267.17 455.33,-273.32"/>
</a>
</g>
</g>
<!-- Node8&#45;&gt;Node7 -->
<g id="edge10_Node000008_Node000007" class="edge">
<title>Node8&#45;&gt;Node7</title>
<g id="a_edge10_Node000008_Node000007"><a xlink:title=" ">
<path fill="none" stroke="#63b8ff" d="M465.86,-271.94C461.11,-270.31 456.42,-268.52 452,-266.57 422.69,-253.68 391.64,-232.44 374.76,-220.16"/>
<polygon fill="#63b8ff" stroke="#63b8ff" points="465.04,-275.35 475.63,-275.06 467.17,-268.68 465.04,-275.35"/>
</a>
</g>
</g>
<!-- Node9&#45;&gt;Node3 -->
<g id="edge12_Node000009_Node000003" class="edge">
<title>Node9&#45;&gt;Node3</title>
<g id="a_edge12_Node000009_Node000003"><a xlink:title=" ">
<path fill="none" stroke="#63b8ff" d="M460.97,-234.2C457.86,-232.8 454.85,-231.27 452,-229.57 432.27,-217.86 433.55,-207.35 416,-192.57 403.83,-182.33 388.82,-172.22 377.72,-165.17"/>
<polygon fill="#63b8ff" stroke="#63b8ff" points="459.91,-237.55 470.5,-237.99 462.5,-231.04 459.91,-237.55"/>
</a>
</g>
</g>
<!-- Node9&#45;&gt;Node7 -->
<g id="edge13_Node000009_Node000007" class="edge">
<title>Node9&#45;&gt;Node7</title>
<g id="a_edge13_Node000009_Node000007"><a xlink:title=" ">
<path fill="none" stroke="#63b8ff" d="M466.7,-235.65C445.75,-230.63 421.69,-224.87 401.92,-220.13"/>
<polygon fill="#63b8ff" stroke="#63b8ff" points="466.17,-239.12 476.71,-238.05 467.8,-232.31 466.17,-239.12"/>
</a>
</g>
</g>
<!-- Node10&#45;&gt;Node3 -->
<g id="edge15_Node000010_Node000003" class="edge">
<title>Node10&#45;&gt;Node3</title>
<g id="a_edge15_Node000010_Node000003"><a xlink:title=" ">
<path fill="none" stroke="#63b8ff" d="M608.75,-110.99C566.2,-108.49 504.58,-107.79 452,-118.57 425.69,-123.97 397.34,-136.94 379.64,-145.99"/>
<polygon fill="#63b8ff" stroke="#63b8ff" points="608.66,-114.5 618.86,-111.64 609.11,-107.51 608.66,-114.5"/>
</a>
</g>
</g>
<!-- Node11 -->
<g id="Node000011" class="node">
<title>Node11</title>
<g id="a_Node000011"><a xlink:href="build__groups_8c.html#a2df593120b6334c80adfd6ac44b0762b" target="_top" xlink:title=" ">
<polygon fill="white" stroke="#666666" points="554,-70.07 481,-70.07 481,-51.07 554,-51.07 554,-70.07"/>
<text text-anchor="middle" x="517.5" y="-58.07" font-family="Helvetica,sans-Serif" font-size="10.00">condition_F</text>
</a>
</g>
</g>
<!-- Node10&#45;&gt;Node11 -->
<g id="edge16_Node000010_Node000011" class="edge">
<title>Node10&#45;&gt;Node11</title>
<g id="a_edge16_Node000010_Node000011"><a xlink:title=" ">
<path fill="none" stroke="#63b8ff" d="M627.62,-102.22C613.86,-96.68 597.69,-90.24 583,-84.57 570.4,-79.71 556.36,-74.47 544.6,-70.12"/>
<polygon fill="#63b8ff" stroke="#63b8ff" points="626.57,-105.57 637.16,-106.07 629.19,-99.08 626.57,-105.57"/>
</a>
</g>
</g>
<!-- Node12 -->
<g id="Node000012" class="node">
<title>Node12</title>
<g id="a_Node000012"><a xlink:href="build__groups_8c.html#a86827bbf037c84cece9492cbbb3cbaef" target="_top" xlink:title=" ">
<polygon fill="white" stroke="#666666" points="550,-146.07 485,-146.07 485,-127.07 550,-127.07 550,-146.07"/>
<text text-anchor="middle" x="517.5" y="-134.07" font-family="Helvetica,sans-Serif" font-size="10.00">find_brent</text>
</a>
</g>
</g>
<!-- Node10&#45;&gt;Node12 -->
<g id="edge18_Node000010_Node000012" class="edge">
<title>Node10&#45;&gt;Node12</title>
<g id="a_edge18_Node000010_Node000012"><a xlink:title=" ">
<path fill="none" stroke="#63b8ff" d="M608.64,-123.24C589.03,-126.14 567.32,-129.35 550.12,-131.9"/>
<polygon fill="#63b8ff" stroke="#63b8ff" points="609.28,-126.69 618.66,-121.76 608.26,-119.76 609.28,-126.69"/>
</a>
</g>
</g>
<!-- Node11&#45;&gt;Node3 -->
<g id="edge17_Node000011_Node000003" class="edge">
<title>Node11&#45;&gt;Node3</title>
<g id="a_edge17_Node000011_Node000003"><a xlink:title=" ">
<path fill="none" stroke="#63b8ff" d="M475.26,-73.73C467.34,-76.86 459.26,-80.5 452,-84.57 420.25,-102.42 387.9,-131.03 372.04,-145.9"/>
<polygon fill="#63b8ff" stroke="#63b8ff" points="476.65,-76.95 484.78,-70.16 474.19,-70.39 476.65,-76.95"/>
</a>
</g>
</g>
<!-- Node12&#45;&gt;Node3 -->
<g id="edge19_Node000012_Node000003" class="edge">
<title>Node12&#45;&gt;Node3</title>
<g id="a_edge19_Node000012_Node000003"><a xlink:title=" ">
<path fill="none" stroke="#63b8ff" d="M474.69,-141.72C451.66,-144.55 423.25,-148.04 400.72,-150.81"/>
<polygon fill="#63b8ff" stroke="#63b8ff" points="475.36,-145.16 484.86,-140.47 474.51,-138.21 475.36,-145.16"/>
</a>
</g>
</g>
<!-- Node13&#45;&gt;Node3 -->
<g id="edge21_Node000013_Node000003" class="edge">
<title>Node13&#45;&gt;Node3</title>
<g id="a_edge21_Node000013_Node000003"><a xlink:title=" ">
<path fill="none" stroke="#63b8ff" d="M469.53,-198.17C463.6,-196.39 457.63,-194.51 452,-192.57 428.04,-184.34 401.26,-173.05 383.19,-165.11"/>
<polygon fill="#63b8ff" stroke="#63b8ff" points="468.85,-201.61 479.43,-201.04 470.8,-194.89 468.85,-201.61"/>
</a>
</g>
</g>
<!-- Node13&#45;&gt;Node7 -->
<g id="edge22_Node000013_Node000007" class="edge">
<title>Node13&#45;&gt;Node7</title>
<g id="a_edge22_Node000013_Node000007"><a xlink:title=" ">
<path fill="none" stroke="#63b8ff" d="M463.88,-210.57C448.46,-210.57 431.58,-210.57 416.08,-210.57"/>
<polygon fill="#63b8ff" stroke="#63b8ff" points="464.28,-214.07 474.28,-210.57 464.28,-207.07 464.28,-214.07"/>
</a>
</g>
</g>
<!-- Node14&#45;&gt;Node3 -->
<g id="edge24_Node000014_Node000003" class="edge">
<title>Node14&#45;&gt;Node3</title>
<g id="a_edge24_Node000014_Node000003"><a xlink:title=" ">
<path fill="none" stroke="#63b8ff" d="M618.63,-3.98C574.24,1.86 503.56,4.64 452,-24.57 402.55,-52.6 374.41,-120.35 365.3,-145.74"/>
<polygon fill="#63b8ff" stroke="#63b8ff" points="618.38,-7.48 628.78,-5.43 619.37,-0.55 618.38,-7.48"/>
</a>
</g>
</g>
<!-- Node15&#45;&gt;Node3 -->
<g id="edge26_Node000015_Node000003" class="edge">
<title>Node15&#45;&gt;Node3</title>
<g id="a_edge26_Node000015_Node000003"><a xlink:title=" ">
<path fill="none" stroke="#63b8ff" d="M631,-55.15C589.04,-38.15 510.71,-14.28 452,-42.57 406.14,-64.68 376.42,-122.78 366.08,-145.89"/>
<polygon fill="#63b8ff" stroke="#63b8ff" points="629.78,-58.43 640.36,-59.07 632.49,-51.98 629.78,-58.43"/>
</a>
</g>
</g>
</g>
</svg>
