<?xml version="1.0" encoding="UTF-8" standalone="no"?>
<!DOCTYPE svg PUBLIC "-//W3C//DTD SVG 1.1//EN"
 "http://www.w3.org/Graphics/SVG/1.1/DTD/svg11.dtd">
<!-- Generated by graphviz version 2.43.0 (0)
 -->
<!-- Title: coord_transformation_cartesian_polar Pages: 1 -->
<svg width="652pt" height="64pt"
 viewBox="0.00 0.00 652.00 64.00" xmlns="http://www.w3.org/2000/svg" xmlns:xlink="http://www.w3.org/1999/xlink">
<g id="graph0" class="graph" transform="scale(1 1) rotate(0) translate(4 60)">
<title>coord_transformation_cartesian_polar</title>
<!-- Node1 -->
<g id="Node000001" class="node">
<title>Node1</title>
<g id="a_Node000001"><a xlink:title=" ">
<polygon fill="#999999" stroke="#666666" points="644,-42.5 522,-42.5 522,-12.5 644,-12.5 644,-42.5"/>
<text text-anchor="start" x="530" y="-30.5" font-family="Helvetica,sans-Serif" font-size="10.00">coord_transformation</text>
<text text-anchor="middle" x="583" y="-19.5" font-family="Helvetica,sans-Serif" font-size="10.00">_cartesian_polar</text>
</a>
</g>
</g>
<!-- Node2 -->
<g id="Node000002" class="node">
<title>Node2</title>
<g id="a_Node000002"><a xlink:href="build__groups_8c.html#adaafe9165f4f93104de87c14939d2c60" target="_top" xlink:title=" ">
<polygon fill="white" stroke="#666666" points="486,-56 421,-56 421,-37 486,-37 486,-56"/>
<text text-anchor="middle" x="453.5" y="-44" font-family="Helvetica,sans-Serif" font-size="10.00">store_PLC</text>
</a>
</g>
</g>
<!-- Node1&#45;&gt;Node2 -->
<g id="edge1_Node000001_Node000002" class="edge">
<title>Node1&#45;&gt;Node2</title>
<g id="a_edge1_Node000001_Node000002"><a xlink:title=" ">
<path fill="none" stroke="#63b8ff" d="M511.81,-37.96C502.82,-39.3 494.01,-40.61 486.1,-41.79"/>
<polygon fill="#63b8ff" stroke="#63b8ff" points="512.61,-41.38 521.98,-36.44 511.58,-34.46 512.61,-41.38"/>
</a>
</g>
</g>
<!-- Node7 -->
<g id="Node000007" class="node">
<title>Node7</title>
<g id="a_Node000007"><a xlink:href="write__halos_8c.html#a9c1d2f1df77a66a8e31b7d19251f39ac" target="_top" xlink:title=" ">
<polygon fill="white" stroke="#666666" points="486,-19 421,-19 421,0 486,0 486,-19"/>
<text text-anchor="middle" x="453.5" y="-7" font-family="Helvetica,sans-Serif" font-size="10.00">write_PLC</text>
</a>
</g>
</g>
<!-- Node1&#45;&gt;Node7 -->
<g id="edge6_Node000001_Node000007" class="edge">
<title>Node1&#45;&gt;Node7</title>
<g id="a_edge6_Node000001_Node000007"><a xlink:title=" ">
<path fill="none" stroke="#63b8ff" d="M511.81,-17.59C502.82,-16.32 494.01,-15.08 486.1,-13.96"/>
<polygon fill="#63b8ff" stroke="#63b8ff" points="511.59,-21.09 521.98,-19.03 512.57,-14.16 511.59,-21.09"/>
</a>
</g>
</g>
<!-- Node3 -->
<g id="Node000003" class="node">
<title>Node3</title>
<g id="a_Node000003"><a xlink:href="build__groups_8c.html#a4df1001cc86732388d8ecf04e3372827" target="_top" xlink:title=" ">
<polygon fill="white" stroke="#666666" points="385,-56 306,-56 306,-37 385,-37 385,-56"/>
<text text-anchor="middle" x="345.5" y="-44" font-family="Helvetica,sans-Serif" font-size="10.00">build_groups</text>
</a>
</g>
</g>
<!-- Node2&#45;&gt;Node3 -->
<g id="edge2_Node000002_Node000003" class="edge">
<title>Node2&#45;&gt;Node3</title>
<g id="a_edge2_Node000002_Node000003"><a xlink:title=" ">
<path fill="none" stroke="#63b8ff" d="M410.92,-46.5C402.45,-46.5 393.58,-46.5 385.21,-46.5"/>
<polygon fill="#63b8ff" stroke="#63b8ff" points="410.98,-50 420.98,-46.5 410.98,-43 410.98,-50"/>
</a>
</g>
</g>
<!-- Node4 -->
<g id="Node000004" class="node">
<title>Node4</title>
<g id="a_Node000004"><a xlink:href="fragment_8c.html#ac2bb250921932f90f7b0939d1181b66d" target="_top" xlink:title=" ">
<polygon fill="white" stroke="#666666" points="270,-56 208,-56 208,-37 270,-37 270,-56"/>
<text text-anchor="middle" x="239" y="-44" font-family="Helvetica,sans-Serif" font-size="10.00">fragment</text>
</a>
</g>
</g>
<!-- Node3&#45;&gt;Node4 -->
<g id="edge3_Node000003_Node000004" class="edge">
<title>Node3&#45;&gt;Node4</title>
<g id="a_edge3_Node000003_Node000004"><a xlink:title=" ">
<path fill="none" stroke="#63b8ff" d="M295.8,-46.5C287.11,-46.5 278.28,-46.5 270.29,-46.5"/>
<polygon fill="#63b8ff" stroke="#63b8ff" points="295.88,-50 305.88,-46.5 295.88,-43 295.88,-50"/>
</a>
</g>
</g>
<!-- Node5 -->
<g id="Node000005" class="node">
<title>Node5</title>
<g id="a_Node000005"><a xlink:href="fragment_8c.html#ae3aa75d17cbc170e60f4f48c4a2ffdf5" target="_top" xlink:title=" ">
<polygon fill="white" stroke="#666666" points="172,-56 77,-56 77,-37 172,-37 172,-56"/>
<text text-anchor="middle" x="124.5" y="-44" font-family="Helvetica,sans-Serif" font-size="10.00">fragment_driver</text>
</a>
</g>
</g>
<!-- Node4&#45;&gt;Node5 -->
<g id="edge4_Node000004_Node000005" class="edge">
<title>Node4&#45;&gt;Node5</title>
<g id="a_edge4_Node000004_Node000005"><a xlink:title=" ">
<path fill="none" stroke="#63b8ff" d="M197.73,-46.5C189.47,-46.5 180.72,-46.5 172.26,-46.5"/>
<polygon fill="#63b8ff" stroke="#63b8ff" points="197.85,-50 207.85,-46.5 197.85,-43 197.85,-50"/>
</a>
</g>
</g>
<!-- Node6 -->
<g id="Node000006" class="node">
<title>Node6</title>
<g id="a_Node000006"><a xlink:href="pinocchio_8c.html#a647f21a28344e1d9c643f4115516d7c9" target="_top" xlink:title=" ">
<polygon fill="white" stroke="#666666" points="41,-56 0,-56 0,-37 41,-37 41,-56"/>
<text text-anchor="middle" x="20.5" y="-44" font-family="Helvetica,sans-Serif" font-size="10.00">main</text>
</a>
</g>
</g>
<!-- Node5&#45;&gt;Node6 -->
<g id="edge5_Node000005_Node000006" class="edge">
<title>Node5&#45;&gt;Node6</title>
<g id="a_edge5_Node000005_Node000006"><a xlink:title=" ">
<path fill="none" stroke="#63b8ff" d="M66.91,-46.5C57.67,-46.5 48.67,-46.5 41.16,-46.5"/>
<polygon fill="#63b8ff" stroke="#63b8ff" points="66.98,-50 76.98,-46.5 66.98,-43 66.98,-50"/>
</a>
</g>
</g>
</g>
</svg>
