<?xml version="1.0" encoding="UTF-8" standalone="no"?>
<!DOCTYPE svg PUBLIC "-//W3C//DTD SVG 1.1//EN"
 "http://www.w3.org/Graphics/SVG/1.1/DTD/svg11.dtd">
<!-- Generated by graphviz version 2.43.0 (0)
 -->
<!-- Title: pinocchio.h Pages: 1 -->
<svg width="1808pt" height="82pt"
 viewBox="0.00 0.00 1807.50 82.00" xmlns="http://www.w3.org/2000/svg" xmlns:xlink="http://www.w3.org/1999/xlink">
<g id="graph0" class="graph" transform="scale(1 1) rotate(0) translate(4 78)">
<title>pinocchio.h</title>
<!-- Node1 -->
<g id="Node000001" class="node">
<title>Node1</title>
<g id="a_Node000001"><a xlink:title=" ">
<polygon fill="#999999" stroke="#666666" points="924,-74 852,-74 852,-55 924,-55 924,-74"/>
<text text-anchor="middle" x="888" y="-62" font-family="Helvetica,sans-Serif" font-size="10.00">pinocchio.h</text>
</a>
</g>
</g>
<!-- Node2 -->
<g id="Node000002" class="node">
<title>Node2</title>
<g id="a_Node000002"><a xlink:href="GenIC_8c.html" target="_top" xlink:title=" ">
<polygon fill="white" stroke="#666666" points="54,-19 0,-19 0,0 54,0 54,-19"/>
<text text-anchor="middle" x="27" y="-7" font-family="Helvetica,sans-Serif" font-size="10.00">GenIC.c</text>
</a>
</g>
</g>
<!-- Node1&#45;&gt;Node2 -->
<g id="edge1_Node000001_Node000002" class="edge">
<title>Node1&#45;&gt;Node2</title>
<g id="a_edge1_Node000001_Node000002"><a xlink:title=" ">
<path fill="none" stroke="#63b8ff" d="M841.96,-63.88C716.36,-64.29 357.48,-61.36 63,-19 60.08,-18.58 57.04,-18.04 54.03,-17.43"/>
<polygon fill="#63b8ff" stroke="#63b8ff" points="842.01,-67.38 851.99,-63.84 841.98,-60.38 842.01,-67.38"/>
</a>
</g>
</g>
<!-- Node3 -->
<g id="Node000003" class="node">
<title>Node3</title>
<g id="a_Node000003"><a xlink:href="LPT_8c.html" target="_top" xlink:title=" ">
<polygon fill="white" stroke="#666666" points="113.5,-19 72.5,-19 72.5,0 113.5,0 113.5,-19"/>
<text text-anchor="middle" x="93" y="-7" font-family="Helvetica,sans-Serif" font-size="10.00">LPT.c</text>
</a>
</g>
</g>
<!-- Node1&#45;&gt;Node3 -->
<g id="edge2_Node000001_Node000003" class="edge">
<title>Node1&#45;&gt;Node3</title>
<g id="a_edge2_Node000001_Node000003"><a xlink:title=" ">
<path fill="none" stroke="#63b8ff" d="M841.61,-62.19C697.92,-57.9 261.57,-43.19 122,-19 119.31,-18.53 116.52,-17.91 113.78,-17.2"/>
<polygon fill="#63b8ff" stroke="#63b8ff" points="841.74,-65.69 851.83,-62.49 841.94,-58.69 841.74,-65.69"/>
</a>
</g>
</g>
<!-- Node4 -->
<g id="Node000004" class="node">
<title>Node4</title>
<g id="a_Node000004"><a xlink:href="ReadParamfile_8c.html" target="_top" xlink:title=" ">
<polygon fill="white" stroke="#666666" points="226.5,-19 131.5,-19 131.5,0 226.5,0 226.5,-19"/>
<text text-anchor="middle" x="179" y="-7" font-family="Helvetica,sans-Serif" font-size="10.00">ReadParamfile.c</text>
</a>
</g>
</g>
<!-- Node1&#45;&gt;Node4 -->
<g id="edge3_Node000001_Node000004" class="edge">
<title>Node1&#45;&gt;Node4</title>
<g id="a_edge3_Node000001_Node000004"><a xlink:title=" ">
<path fill="none" stroke="#63b8ff" d="M841.74,-61.61C734.85,-56.98 462.51,-43.58 236,-19 232.92,-18.67 229.74,-18.29 226.55,-17.88"/>
<polygon fill="#63b8ff" stroke="#63b8ff" points="841.72,-65.12 851.86,-62.05 842.02,-58.12 841.72,-65.12"/>
</a>
</g>
</g>
<!-- Node5 -->
<g id="Node000005" class="node">
<title>Node5</title>
<g id="a_Node000005"><a xlink:href="ReadWhiteNoise_8c.html" target="_top" xlink:title=" ">
<polygon fill="white" stroke="#666666" points="351,-19 245,-19 245,0 351,0 351,-19"/>
<text text-anchor="middle" x="298" y="-7" font-family="Helvetica,sans-Serif" font-size="10.00">ReadWhiteNoise.c</text>
</a>
</g>
</g>
<!-- Node1&#45;&gt;Node5 -->
<g id="edge4_Node000001_Node000005" class="edge">
<title>Node1&#45;&gt;Node5</title>
<g id="a_edge4_Node000001_Node000005"><a xlink:title=" ">
<path fill="none" stroke="#63b8ff" d="M841.68,-60.41C749.71,-54.1 537.62,-38.65 360,-19 357.08,-18.68 354.09,-18.33 351.08,-17.96"/>
<polygon fill="#63b8ff" stroke="#63b8ff" points="841.55,-63.91 851.77,-61.1 842.03,-56.93 841.55,-63.91"/>
</a>
</g>
</g>
<!-- Node6 -->
<g id="Node000006" class="node">
<title>Node6</title>
<g id="a_Node000006"><a xlink:href="allocations_8c.html" target="_top" xlink:title=" ">
<polygon fill="white" stroke="#666666" points="447,-19 369,-19 369,0 447,0 447,-19"/>
<text text-anchor="middle" x="408" y="-7" font-family="Helvetica,sans-Serif" font-size="10.00">allocations.c</text>
</a>
</g>
</g>
<!-- Node1&#45;&gt;Node6 -->
<g id="edge5_Node000001_Node000006" class="edge">
<title>Node1&#45;&gt;Node6</title>
<g id="a_edge5_Node000001_Node000006"><a xlink:title=" ">
<path fill="none" stroke="#63b8ff" d="M841.63,-59.84C762.38,-53.33 595.89,-38.56 456,-19 453.15,-18.6 450.21,-18.16 447.26,-17.69"/>
<polygon fill="#63b8ff" stroke="#63b8ff" points="841.51,-63.34 851.77,-60.66 842.08,-56.36 841.51,-63.34"/>
</a>
</g>
</g>
<!-- Node7 -->
<g id="Node000007" class="node">
<title>Node7</title>
<g id="a_Node000007"><a xlink:href="build__groups_8c.html" target="_top" xlink:title=" ">
<polygon fill="white" stroke="#666666" points="552.5,-19 465.5,-19 465.5,0 552.5,0 552.5,-19"/>
<text text-anchor="middle" x="509" y="-7" font-family="Helvetica,sans-Serif" font-size="10.00">build_groups.c</text>
</a>
</g>
</g>
<!-- Node1&#45;&gt;Node7 -->
<g id="edge6_Node000001_Node000007" class="edge">
<title>Node1&#45;&gt;Node7</title>
<g id="a_edge6_Node000001_Node000007"><a xlink:title=" ">
<path fill="none" stroke="#63b8ff" d="M841.73,-57.53C778.49,-49.29 661.55,-33.78 562,-19 558.96,-18.55 555.82,-18.07 552.66,-17.58"/>
<polygon fill="#63b8ff" stroke="#63b8ff" points="841.41,-61.02 851.78,-58.84 842.31,-54.08 841.41,-61.02"/>
</a>
</g>
</g>
<!-- Node8 -->
<g id="Node000008" class="node">
<title>Node8</title>
<g id="a_Node000008"><a xlink:href="collapse__times_8c.html" target="_top" xlink:title=" ">
<polygon fill="white" stroke="#666666" points="669,-19 571,-19 571,0 669,0 669,-19"/>
<text text-anchor="middle" x="620" y="-7" font-family="Helvetica,sans-Serif" font-size="10.00">collapse_times.c</text>
</a>
</g>
</g>
<!-- Node1&#45;&gt;Node8 -->
<g id="edge7_Node000001_Node000008" class="edge">
<title>Node1&#45;&gt;Node8</title>
<g id="a_edge7_Node000001_Node000008"><a xlink:title=" ">
<path fill="none" stroke="#63b8ff" d="M841.92,-54.39C791.73,-44.46 712.07,-28.71 663.09,-19.02"/>
<polygon fill="#63b8ff" stroke="#63b8ff" points="841.37,-57.85 851.86,-56.35 842.73,-50.98 841.37,-57.85"/>
</a>
</g>
</g>
<!-- Node9 -->
<g id="Node000009" class="node">
<title>Node9</title>
<g id="a_Node000009"><a xlink:href="cosmo_8c.html" target="_top" xlink:title=" ">
<polygon fill="white" stroke="#666666" points="744.5,-19 687.5,-19 687.5,0 744.5,0 744.5,-19"/>
<text text-anchor="middle" x="716" y="-7" font-family="Helvetica,sans-Serif" font-size="10.00">cosmo.c</text>
</a>
</g>
</g>
<!-- Node1&#45;&gt;Node9 -->
<g id="edge8_Node000001_Node000009" class="edge">
<title>Node1&#45;&gt;Node9</title>
<g id="a_edge8_Node000001_Node000009"><a xlink:title=" ">
<path fill="none" stroke="#63b8ff" d="M850.44,-51.93C818.32,-42.03 772.81,-28.01 743.85,-19.08"/>
<polygon fill="#63b8ff" stroke="#63b8ff" points="849.78,-55.38 860.37,-54.98 851.84,-48.69 849.78,-55.38"/>
</a>
</g>
</g>
<!-- Node10 -->
<g id="Node000010" class="node">
<title>Node10</title>
<g id="a_Node000010"><a xlink:href="distribute_8c.html" target="_top" xlink:title=" ">
<polygon fill="white" stroke="#666666" points="833.5,-19 762.5,-19 762.5,0 833.5,0 833.5,-19"/>
<text text-anchor="middle" x="798" y="-7" font-family="Helvetica,sans-Serif" font-size="10.00">distribute.c</text>
</a>
</g>
</g>
<!-- Node1&#45;&gt;Node10 -->
<g id="edge9_Node000001_Node000010" class="edge">
<title>Node1&#45;&gt;Node10</title>
<g id="a_edge9_Node000001_Node000010"><a xlink:title=" ">
<path fill="none" stroke="#63b8ff" d="M864.56,-49.7C848.16,-40.04 826.77,-27.44 812.72,-19.17"/>
<polygon fill="#63b8ff" stroke="#63b8ff" points="863.15,-52.93 873.54,-54.98 866.7,-46.89 863.15,-52.93"/>
</a>
</g>
</g>
<!-- Node11 -->
<g id="Node000011" class="node">
<title>Node11</title>
<g id="a_Node000011"><a xlink:href="fmax-fftw_8c.html" target="_top" xlink:title=" ">
<polygon fill="white" stroke="#666666" points="924,-19 852,-19 852,0 924,0 924,-19"/>
<text text-anchor="middle" x="888" y="-7" font-family="Helvetica,sans-Serif" font-size="10.00">fmax&#45;fftw.c</text>
</a>
</g>
</g>
<!-- Node1&#45;&gt;Node11 -->
<g id="edge10_Node000001_Node000011" class="edge">
<title>Node1&#45;&gt;Node11</title>
<g id="a_edge10_Node000001_Node000011"><a xlink:title=" ">
<path fill="none" stroke="#63b8ff" d="M888,-44.66C888,-35.93 888,-25.99 888,-19.09"/>
<polygon fill="#63b8ff" stroke="#63b8ff" points="884.5,-44.75 888,-54.75 891.5,-44.75 884.5,-44.75"/>
</a>
</g>
</g>
<!-- Node12 -->
<g id="Node000012" class="node">
<title>Node12</title>
<g id="a_Node000012"><a xlink:href="fmax-pfft_8c.html" target="_top" xlink:title=" ">
<polygon fill="white" stroke="#666666" points="1013.5,-19 942.5,-19 942.5,0 1013.5,0 1013.5,-19"/>
<text text-anchor="middle" x="978" y="-7" font-family="Helvetica,sans-Serif" font-size="10.00">fmax&#45;pfft.c</text>
</a>
</g>
</g>
<!-- Node1&#45;&gt;Node12 -->
<g id="edge11_Node000001_Node000012" class="edge">
<title>Node1&#45;&gt;Node12</title>
<g id="a_edge11_Node000001_Node000012"><a xlink:title=" ">
<path fill="none" stroke="#63b8ff" d="M911.44,-49.7C927.84,-40.04 949.23,-27.44 963.28,-19.17"/>
<polygon fill="#63b8ff" stroke="#63b8ff" points="909.3,-46.89 902.46,-54.98 912.85,-52.93 909.3,-46.89"/>
</a>
</g>
</g>
<!-- Node13 -->
<g id="Node000013" class="node">
<title>Node13</title>
<g id="a_Node000013"><a xlink:href="fmax_8c.html" target="_top" xlink:title=" ">
<polygon fill="white" stroke="#666666" points="1082,-19 1032,-19 1032,0 1082,0 1082,-19"/>
<text text-anchor="middle" x="1057" y="-7" font-family="Helvetica,sans-Serif" font-size="10.00">fmax.c</text>
</a>
</g>
</g>
<!-- Node1&#45;&gt;Node13 -->
<g id="edge12_Node000001_Node000013" class="edge">
<title>Node1&#45;&gt;Node13</title>
<g id="a_edge12_Node000001_Node000013"><a xlink:title=" ">
<path fill="none" stroke="#63b8ff" d="M924.73,-51.98C957.13,-41.82 1003.49,-27.28 1031.85,-18.39"/>
<polygon fill="#63b8ff" stroke="#63b8ff" points="923.65,-48.65 915.15,-54.98 925.74,-55.33 923.65,-48.65"/>
</a>
</g>
</g>
<!-- Node14 -->
<g id="Node000014" class="node">
<title>Node14</title>
<g id="a_Node000014"><a xlink:href="fragment_8c.html" target="_top" xlink:title=" ">
<polygon fill="white" stroke="#666666" points="1170,-19 1100,-19 1100,0 1170,0 1170,-19"/>
<text text-anchor="middle" x="1135" y="-7" font-family="Helvetica,sans-Serif" font-size="10.00">fragment.c</text>
</a>
</g>
</g>
<!-- Node1&#45;&gt;Node14 -->
<g id="edge13_Node000001_Node000014" class="edge">
<title>Node1&#45;&gt;Node14</title>
<g id="a_edge13_Node000001_Node000014"><a xlink:title=" ">
<path fill="none" stroke="#63b8ff" d="M934.02,-53.63C982.08,-43.31 1056.4,-27.37 1099.92,-18.03"/>
<polygon fill="#63b8ff" stroke="#63b8ff" points="933.22,-50.22 924.18,-55.74 934.69,-57.06 933.22,-50.22"/>
</a>
</g>
</g>
<!-- Node15 -->
<g id="Node000015" class="node">
<title>Node15</title>
<g id="a_Node000015"><a xlink:href="initialization_8c.html" target="_top" xlink:title=" ">
<polygon fill="white" stroke="#666666" points="1274,-19 1188,-19 1188,0 1274,0 1274,-19"/>
<text text-anchor="middle" x="1231" y="-7" font-family="Helvetica,sans-Serif" font-size="10.00">initialization.c</text>
</a>
</g>
</g>
<!-- Node1&#45;&gt;Node15 -->
<g id="edge14_Node000001_Node000015" class="edge">
<title>Node1&#45;&gt;Node15</title>
<g id="a_edge14_Node000001_Node000015"><a xlink:title=" ">
<path fill="none" stroke="#63b8ff" d="M934.53,-56.54C992,-47.9 1092.75,-32.64 1179,-19 1181.89,-18.54 1184.87,-18.07 1187.88,-17.58"/>
<polygon fill="#63b8ff" stroke="#63b8ff" points="933.68,-53.12 924.31,-58.07 934.72,-60.05 933.68,-53.12"/>
</a>
</g>
</g>
<!-- Node16 -->
<g id="Node000016" class="node">
<title>Node16</title>
<g id="a_Node000016"><a xlink:href="pinocchio_8c.html" target="_top" xlink:title=" ">
<polygon fill="white" stroke="#666666" points="1363.5,-19 1292.5,-19 1292.5,0 1363.5,0 1363.5,-19"/>
<text text-anchor="middle" x="1328" y="-7" font-family="Helvetica,sans-Serif" font-size="10.00">pinocchio.c</text>
</a>
</g>
</g>
<!-- Node1&#45;&gt;Node16 -->
<g id="edge15_Node000001_Node000016" class="edge">
<title>Node1&#45;&gt;Node16</title>
<g id="a_edge15_Node000001_Node000016"><a xlink:title=" ">
<path fill="none" stroke="#63b8ff" d="M934.42,-59.4C1008.39,-52.62 1157.47,-37.9 1283,-19 1285.99,-18.55 1289.08,-18.05 1292.18,-17.52"/>
<polygon fill="#63b8ff" stroke="#63b8ff" points="933.7,-55.95 924.06,-60.34 934.34,-62.92 933.7,-55.95"/>
</a>
</g>
</g>
<!-- Node17 -->
<g id="Node000017" class="node">
<title>Node17</title>
<g id="a_Node000017"><a xlink:href="variables_8c.html" target="_top" xlink:title=" ">
<polygon fill="white" stroke="#666666" points="1452,-19 1382,-19 1382,0 1452,0 1452,-19"/>
<text text-anchor="middle" x="1417" y="-7" font-family="Helvetica,sans-Serif" font-size="10.00">variables.c</text>
</a>
</g>
</g>
<!-- Node1&#45;&gt;Node17 -->
<g id="edge16_Node000001_Node000017" class="edge">
<title>Node1&#45;&gt;Node17</title>
<g id="a_edge16_Node000001_Node000017"><a xlink:title=" ">
<path fill="none" stroke="#63b8ff" d="M934.04,-60.8C1020.41,-55.41 1212.51,-41.81 1373,-19 1375.93,-18.58 1378.95,-18.1 1381.99,-17.59"/>
<polygon fill="#63b8ff" stroke="#63b8ff" points="933.81,-57.31 924.04,-61.42 934.24,-64.3 933.81,-57.31"/>
</a>
</g>
</g>
<!-- Node18 -->
<g id="Node000018" class="node">
<title>Node18</title>
<g id="a_Node000018"><a xlink:href="write__halos_8c.html" target="_top" xlink:title=" ">
<polygon fill="white" stroke="#666666" points="1551.5,-19 1470.5,-19 1470.5,0 1551.5,0 1551.5,-19"/>
<text text-anchor="middle" x="1511" y="-7" font-family="Helvetica,sans-Serif" font-size="10.00">write_halos.c</text>
</a>
</g>
</g>
<!-- Node1&#45;&gt;Node18 -->
<g id="edge17_Node000001_Node000018" class="edge">
<title>Node1&#45;&gt;Node18</title>
<g id="a_edge17_Node000001_Node000018"><a xlink:title=" ">
<path fill="none" stroke="#63b8ff" d="M934.45,-61.33C1032.17,-56.44 1266.09,-43.09 1461,-19 1464.06,-18.62 1467.22,-18.19 1470.39,-17.72"/>
<polygon fill="#63b8ff" stroke="#63b8ff" points="934.13,-57.84 924.32,-61.83 934.48,-64.83 934.13,-57.84"/>
</a>
</g>
</g>
<!-- Node19 -->
<g id="Node000019" class="node">
<title>Node19</title>
<g id="a_Node000019"><a xlink:href="write__mass__maps_8c.html" target="_top" xlink:title=" ">
<polygon fill="white" stroke="#666666" points="1682.5,-19 1569.5,-19 1569.5,0 1682.5,0 1682.5,-19"/>
<text text-anchor="middle" x="1626" y="-7" font-family="Helvetica,sans-Serif" font-size="10.00">write_mass_maps.c</text>
</a>
</g>
</g>
<!-- Node1&#45;&gt;Node19 -->
<g id="edge18_Node000001_Node000019" class="edge">
<title>Node1&#45;&gt;Node19</title>
<g id="a_edge18_Node000001_Node000019"><a xlink:title=" ">
<path fill="none" stroke="#63b8ff" d="M934.2,-61.47C1043.39,-56.44 1325.9,-42.12 1561,-19 1563.72,-18.73 1566.5,-18.44 1569.3,-18.13"/>
<polygon fill="#63b8ff" stroke="#63b8ff" points="934.01,-57.97 924.18,-61.92 934.33,-64.96 934.01,-57.97"/>
</a>
</g>
</g>
<!-- Node20 -->
<g id="Node000020" class="node">
<title>Node20</title>
<g id="a_Node000020"><a xlink:href="write__snapshot_8c.html" target="_top" xlink:title=" ">
<polygon fill="white" stroke="#666666" points="1799.5,-19 1700.5,-19 1700.5,0 1799.5,0 1799.5,-19"/>
<text text-anchor="middle" x="1750" y="-7" font-family="Helvetica,sans-Serif" font-size="10.00">write_snapshot.c</text>
</a>
</g>
</g>
<!-- Node1&#45;&gt;Node20 -->
<g id="edge19_Node000001_Node000020" class="edge">
<title>Node1&#45;&gt;Node20</title>
<g id="a_edge19_Node000001_Node000020"><a xlink:title=" ">
<path fill="none" stroke="#63b8ff" d="M934.37,-62.4C1057.85,-59.14 1404.8,-47.93 1692,-19 1694.73,-18.72 1697.54,-18.41 1700.36,-18.08"/>
<polygon fill="#63b8ff" stroke="#63b8ff" points="934.06,-58.9 924.15,-62.66 934.24,-65.9 934.06,-58.9"/>
</a>
</g>
</g>
</g>
</svg>
