<?xml version="1.0" encoding="UTF-8" standalone="no"?>
<!DOCTYPE svg PUBLIC "-//W3C//DTD SVG 1.1//EN"
 "http://www.w3.org/Graphics/SVG/1.1/DTD/svg11.dtd">
<!-- Generated by graphviz version 2.43.0 (0)
 -->
<!-- Title: initialize_cosmology Pages: 1 -->
<svg width="1196pt" height="664pt"
 viewBox="0.00 0.00 1196.00 663.69" xmlns="http://www.w3.org/2000/svg" xmlns:xlink="http://www.w3.org/1999/xlink">
<g id="graph0" class="graph" transform="scale(1 1) rotate(0) translate(4 659.69)">
<title>initialize_cosmology</title>
<!-- Node1 -->
<g id="Node000001" class="node">
<title>Node1</title>
<g id="a_Node000001"><a xlink:title=" ">
<polygon fill="#999999" stroke="#666666" points="117,-319 0,-319 0,-300 117,-300 117,-319"/>
<text text-anchor="middle" x="58.5" y="-307" font-family="Helvetica,sans-Serif" font-size="10.00">initialize_cosmology</text>
</a>
</g>
</g>
<!-- Node2 -->
<g id="Node000002" class="node">
<title>Node2</title>
<g id="a_Node000002"><a xlink:href="cosmo_8c.html#ab72944c257efd64b18cbf29712033a3d" target="_top" xlink:title=" ">
<polygon fill="white" stroke="#666666" points="657.5,-357 542.5,-357 542.5,-338 657.5,-338 657.5,-357"/>
<text text-anchor="middle" x="600" y="-345" font-family="Helvetica,sans-Serif" font-size="10.00">DE_EquationOfState</text>
</a>
</g>
</g>
<!-- Node1&#45;&gt;Node2 -->
<g id="edge1_Node000001_Node000002" class="edge">
<title>Node1&#45;&gt;Node2</title>
<g id="a_edge1_Node000001_Node000002"><a xlink:title=" ">
<path fill="none" stroke="#63b8ff" d="M117.25,-319.02C129.05,-320.72 141.41,-322.32 153,-323.5 287.13,-337.12 444.79,-343.31 532.15,-345.88"/>
<polygon fill="#63b8ff" stroke="#63b8ff" points="532.1,-349.38 542.19,-346.17 532.3,-342.38 532.1,-349.38"/>
</a>
</g>
</g>
<!-- Node4 -->
<g id="Node000004" class="node">
<title>Node4</title>
<g id="a_Node000004"><a xlink:href="cosmo_8c.html#a9fbcf5b69c272e801cf320cf814b23c4" target="_top" xlink:title=" ">
<polygon fill="white" stroke="#666666" points="813,-545 729,-545 729,-526 813,-526 813,-545"/>
<text text-anchor="middle" x="771" y="-533" font-family="Helvetica,sans-Serif" font-size="10.00">GrowingMode</text>
</a>
</g>
</g>
<!-- Node1&#45;&gt;Node4 -->
<g id="edge3_Node000001_Node000004" class="edge">
<title>Node1&#45;&gt;Node4</title>
<g id="a_edge3_Node000001_Node000004"><a xlink:title=" ">
<path fill="none" stroke="#63b8ff" d="M59.61,-319.08C60.63,-357.13 70.07,-498.3 153,-555.5 248.12,-621.11 558.04,-567.23 673,-555.5 689.28,-553.84 706.86,-550.65 722.52,-547.3"/>
<polygon fill="#63b8ff" stroke="#63b8ff" points="723.5,-550.67 732.5,-545.09 721.98,-543.83 723.5,-550.67"/>
</a>
</g>
</g>
<!-- Node6 -->
<g id="Node000006" class="node">
<title>Node6</title>
<g id="a_Node000006"><a xlink:href="cosmo_8c.html#a3d4dfa13b4af53acceb7a040e2517499" target="_top" xlink:title=" ">
<polygon fill="white" stroke="#666666" points="827.5,-433 714.5,-433 714.5,-414 827.5,-414 827.5,-433"/>
<text text-anchor="middle" x="771" y="-421" font-family="Helvetica,sans-Serif" font-size="10.00">GrowingMode_2LPT</text>
</a>
</g>
</g>
<!-- Node1&#45;&gt;Node6 -->
<g id="edge6_Node000001_Node000006" class="edge">
<title>Node1&#45;&gt;Node6</title>
<g id="a_edge6_Node000001_Node000006"><a xlink:title=" ">
<path fill="none" stroke="#63b8ff" d="M67.58,-319.16C82.47,-336.19 116.1,-371.18 153,-386.5 340.36,-464.28 587.47,-447.36 703.91,-433.19"/>
<polygon fill="#63b8ff" stroke="#63b8ff" points="704.6,-436.63 714.09,-431.92 703.73,-429.69 704.6,-436.63"/>
</a>
</g>
</g>
<!-- Node7 -->
<g id="Node000007" class="node">
<title>Node7</title>
<g id="a_Node000007"><a xlink:href="cosmo_8c.html#a04db96c36d31fd7c7befb810624260fc" target="_top" xlink:title=" ">
<polygon fill="white" stroke="#666666" points="475.5,-395 351.5,-395 351.5,-376 475.5,-376 475.5,-395"/>
<text text-anchor="middle" x="413.5" y="-383" font-family="Helvetica,sans-Serif" font-size="10.00">GrowingMode_3LPT_1</text>
</a>
</g>
</g>
<!-- Node1&#45;&gt;Node7 -->
<g id="edge8_Node000001_Node000007" class="edge">
<title>Node1&#45;&gt;Node7</title>
<g id="a_edge8_Node000001_Node000007"><a xlink:title=" ">
<path fill="none" stroke="#63b8ff" d="M72.63,-319.15C90.02,-331.36 122.12,-351.95 153,-361.5 214.6,-380.55 288.02,-385.83 341.03,-386.76"/>
<polygon fill="#63b8ff" stroke="#63b8ff" points="341.3,-390.27 351.34,-386.89 341.39,-383.27 341.3,-390.27"/>
</a>
</g>
</g>
<!-- Node8 -->
<g id="Node000008" class="node">
<title>Node8</title>
<g id="a_Node000008"><a xlink:href="cosmo_8c.html#a9c8d61128a3d0ab4c73354d0ff8011a1" target="_top" xlink:title=" ">
<polygon fill="white" stroke="#666666" points="833,-470 709,-470 709,-451 833,-451 833,-470"/>
<text text-anchor="middle" x="771" y="-458" font-family="Helvetica,sans-Serif" font-size="10.00">GrowingMode_3LPT_2</text>
</a>
</g>
</g>
<!-- Node1&#45;&gt;Node8 -->
<g id="edge10_Node000001_Node000008" class="edge">
<title>Node1&#45;&gt;Node8</title>
<g id="a_edge10_Node000001_Node000008"><a xlink:title=" ">
<path fill="none" stroke="#63b8ff" d="M64.47,-319.25C76.35,-341.47 108.77,-395.84 153,-420.5 244.69,-471.62 556.48,-467.98 698.49,-463.41"/>
<polygon fill="#63b8ff" stroke="#63b8ff" points="698.95,-466.89 708.83,-463.06 698.72,-459.9 698.95,-466.89"/>
</a>
</g>
</g>
<!-- Node9 -->
<g id="Node000009" class="node">
<title>Node9</title>
<g id="a_Node000009"><a xlink:href="cosmo_8c.html#a23d3873ee5e46a5db96b3d8adbb83766" target="_top" xlink:title=" ">
<polygon fill="white" stroke="#666666" points="292,-546 161,-546 161,-527 292,-527 292,-546"/>
<text text-anchor="middle" x="226.5" y="-534" font-family="Helvetica,sans-Serif" font-size="10.00">initialize_MassVariance</text>
</a>
</g>
</g>
<!-- Node1&#45;&gt;Node9 -->
<g id="edge12_Node000001_Node000009" class="edge">
<title>Node1&#45;&gt;Node9</title>
<g id="a_edge12_Node000001_Node000009"><a xlink:title=" ">
<path fill="none" stroke="#63b8ff" d="M60.81,-319.18C65.86,-352.49 87.15,-463.4 153,-518.5 154.53,-519.78 156.14,-520.97 157.81,-522.08"/>
<polygon fill="#63b8ff" stroke="#63b8ff" points="156.17,-525.17 166.61,-526.96 159.56,-519.05 156.17,-525.17"/>
</a>
</g>
</g>
<!-- Node12 -->
<g id="Node000012" class="node">
<title>Node12</title>
<g id="a_Node000012"><a xlink:href="cosmo_8c.html#adb3827724e24c320717073266dbfac4c" target="_top" xlink:title=" ">
<polygon fill="white" stroke="#666666" points="817.5,-582 724.5,-582 724.5,-563 817.5,-563 817.5,-582"/>
<text text-anchor="middle" x="771" y="-570" font-family="Helvetica,sans-Serif" font-size="10.00">PowerSpectrum</text>
</a>
</g>
</g>
<!-- Node1&#45;&gt;Node12 -->
<g id="edge43_Node000001_Node000012" class="edge">
<title>Node1&#45;&gt;Node12</title>
<g id="a_edge43_Node000001_Node000012"><a xlink:title=" ">
<path fill="none" stroke="#63b8ff" d="M59.3,-319.17C59.04,-359.66 63.98,-516.61 153,-584.5 333.37,-722.06 637.44,-623.87 737.21,-585.79"/>
<polygon fill="#63b8ff" stroke="#63b8ff" points="738.69,-588.97 746.75,-582.1 736.16,-582.45 738.69,-588.97"/>
</a>
</g>
</g>
<!-- Node22 -->
<g id="Node000022" class="node">
<title>Node22</title>
<g id="a_Node000022"><a xlink:href="cosmo_8c.html#a3484c92f432bd181dc72b89bd173fa5e" target="_top" xlink:title=" ">
<polygon fill="white" stroke="#666666" points="296.5,-130 156.5,-130 156.5,-111 296.5,-111 296.5,-130"/>
<text text-anchor="middle" x="226.5" y="-118" font-family="Helvetica,sans-Serif" font-size="10.00">initialize_PowerSpectrum</text>
</a>
</g>
</g>
<!-- Node1&#45;&gt;Node22 -->
<g id="edge30_Node000001_Node000022" class="edge">
<title>Node1&#45;&gt;Node22</title>
<g id="a_edge30_Node000001_Node000022"><a xlink:title=" ">
<path fill="none" stroke="#63b8ff" d="M62.3,-299.68C70.88,-271.3 99.56,-188.38 153,-144.5 158.04,-140.36 163.83,-136.92 169.88,-134.07"/>
<polygon fill="#63b8ff" stroke="#63b8ff" points="171.65,-137.13 179.55,-130.06 168.97,-130.66 171.65,-137.13"/>
</a>
</g>
</g>
<!-- Node24 -->
<g id="Node000024" class="node">
<title>Node24</title>
<g id="a_Node000024"><a xlink:href="cosmo_8c.html#a12e12f1c8543948576eefc9f4cba9363" target="_top" xlink:title=" ">
<polygon fill="white" stroke="#666666" points="491,-168 336,-168 336,-149 491,-149 491,-168"/>
<text text-anchor="middle" x="413.5" y="-156" font-family="Helvetica,sans-Serif" font-size="10.00">IntegrandComovingDistance</text>
</a>
</g>
</g>
<!-- Node1&#45;&gt;Node24 -->
<g id="edge32_Node000001_Node000024" class="edge">
<title>Node1&#45;&gt;Node24</title>
<g id="a_edge32_Node000001_Node000024"><a xlink:title=" ">
<path fill="none" stroke="#63b8ff" d="M63.39,-299.85C73.77,-275.54 104.63,-211.83 153,-184.5 205.13,-155.05 272.64,-149.09 325.73,-150.21"/>
<polygon fill="#63b8ff" stroke="#63b8ff" points="325.71,-153.71 335.81,-150.51 325.92,-146.71 325.71,-153.71"/>
</a>
</g>
</g>
<!-- Node26 -->
<g id="Node000026" class="node">
<title>Node26</title>
<g id="a_Node000026"><a xlink:href="cosmo_8c.html#a115399f71530d142e4eb7f3a2ba838b9" target="_top" xlink:title=" ">
<polygon fill="white" stroke="#666666" points="461.5,-319 365.5,-319 365.5,-300 461.5,-300 461.5,-319"/>
<text text-anchor="middle" x="413.5" y="-307" font-family="Helvetica,sans-Serif" font-size="10.00">IntegrandForEoS</text>
</a>
</g>
</g>
<!-- Node1&#45;&gt;Node26 -->
<g id="edge35_Node000001_Node000026" class="edge">
<title>Node1&#45;&gt;Node26</title>
<g id="a_edge35_Node000001_Node000026"><a xlink:title=" ">
<path fill="none" stroke="#63b8ff" d="M117,-309.5C182.74,-309.5 289.71,-309.5 355.32,-309.5"/>
<polygon fill="#63b8ff" stroke="#63b8ff" points="355.48,-313 365.48,-309.5 355.48,-306 355.48,-313"/>
</a>
</g>
</g>
<!-- Node27 -->
<g id="Node000027" class="node">
<title>Node27</title>
<g id="a_Node000027"><a xlink:href="cosmo_8c.html#a90c59eea1bc597d21ec511441cc3c925" target="_top" xlink:title=" ">
<polygon fill="white" stroke="#666666" points="242,-93 211,-93 211,-74 242,-74 242,-93"/>
<text text-anchor="middle" x="226.5" y="-81" font-family="Helvetica,sans-Serif" font-size="10.00">jac</text>
</a>
</g>
</g>
<!-- Node1&#45;&gt;Node27 -->
<g id="edge37_Node000001_Node000027" class="edge">
<title>Node1&#45;&gt;Node27</title>
<g id="a_edge37_Node000001_Node000027"><a xlink:title=" ">
<path fill="none" stroke="#63b8ff" d="M60.83,-299.87C65.92,-266.71 87.36,-156.32 153,-101.5 166.22,-90.46 185.23,-86.03 200.46,-84.32"/>
<polygon fill="#63b8ff" stroke="#63b8ff" points="201.06,-87.79 210.76,-83.51 200.51,-80.81 201.06,-87.79"/>
</a>
</g>
</g>
<!-- Node28 -->
<g id="Node000028" class="node">
<title>Node28</title>
<g id="a_Node000028"><a xlink:href="cosmo_8c.html#a6f4e126cbaf9d48005e02434c2605ff1" target="_top" xlink:title=" ">
<polygon fill="white" stroke="#666666" points="300,-509 153,-509 153,-490 300,-490 300,-509"/>
<text text-anchor="middle" x="226.5" y="-497" font-family="Helvetica,sans-Serif" font-size="10.00">normalize_PowerSpectrum</text>
</a>
</g>
</g>
<!-- Node1&#45;&gt;Node28 -->
<g id="edge38_Node000001_Node000028" class="edge">
<title>Node1&#45;&gt;Node28</title>
<g id="a_edge38_Node000001_Node000028"><a xlink:title=" ">
<path fill="none" stroke="#63b8ff" d="M62.28,-319.38C70.81,-347.93 99.37,-431.35 153,-475.5 158.04,-479.65 163.82,-483.09 169.87,-485.94"/>
<polygon fill="#63b8ff" stroke="#63b8ff" points="168.96,-489.35 179.54,-489.95 171.64,-482.88 168.96,-489.35"/>
</a>
</g>
</g>
<!-- Node29 -->
<g id="Node000029" class="node">
<title>Node29</title>
<g id="a_Node000029"><a xlink:href="cosmo_8c.html#a4cb3653cf2125654f8b70d14b2a08dc8" target="_top" xlink:title=" ">
<polygon fill="white" stroke="#666666" points="455.5,-207 371.5,-207 371.5,-188 455.5,-188 455.5,-207"/>
<text text-anchor="middle" x="413.5" y="-195" font-family="Helvetica,sans-Serif" font-size="10.00">OmegaMatter</text>
</a>
</g>
</g>
<!-- Node1&#45;&gt;Node29 -->
<g id="edge40_Node000001_Node000029" class="edge">
<title>Node1&#45;&gt;Node29</title>
<g id="a_edge40_Node000001_Node000029"><a xlink:title=" ">
<path fill="none" stroke="#63b8ff" d="M65.54,-299.83C78.62,-279.85 111.76,-234.35 153,-215.5 219.95,-184.9 306.84,-185.97 361.14,-190.79"/>
<polygon fill="#63b8ff" stroke="#63b8ff" points="360.93,-194.28 371.22,-191.76 361.6,-187.31 360.93,-194.28"/>
</a>
</g>
</g>
<!-- Node31 -->
<g id="Node000031" class="node">
<title>Node31</title>
<g id="a_Node000031"><a xlink:href="cosmo_8c.html#abe37fce4f38f558cc115fed7e055f085" target="_top" xlink:title=" ">
<polygon fill="white" stroke="#666666" points="281,-56 172,-56 172,-37 281,-37 281,-56"/>
<text text-anchor="middle" x="226.5" y="-44" font-family="Helvetica,sans-Serif" font-size="10.00">read_TabulatedEoS</text>
</a>
</g>
</g>
<!-- Node1&#45;&gt;Node31 -->
<g id="edge44_Node000001_Node000031" class="edge">
<title>Node1&#45;&gt;Node31</title>
<g id="a_edge44_Node000001_Node000031"><a xlink:title=" ">
<path fill="none" stroke="#63b8ff" d="M60.12,-299.77C63,-262.91 78.36,-130.6 153,-64.5 155.89,-61.94 159.08,-59.74 162.48,-57.83"/>
<polygon fill="#63b8ff" stroke="#63b8ff" points="164.25,-60.87 171.85,-53.48 161.3,-54.52 164.25,-60.87"/>
</a>
</g>
</g>
<!-- Node32 -->
<g id="Node000032" class="node">
<title>Node32</title>
<g id="a_Node000032"><a xlink:href="cosmo_8c.html#a8230fbf1bf76856f37d7f0a321dc4c58" target="_top" xlink:title=" ">
<polygon fill="white" stroke="#666666" points="289,-19 164,-19 164,0 289,0 289,-19"/>
<text text-anchor="middle" x="226.5" y="-7" font-family="Helvetica,sans-Serif" font-size="10.00">read_TabulatedHubble</text>
</a>
</g>
</g>
<!-- Node1&#45;&gt;Node32 -->
<g id="edge45_Node000001_Node000032" class="edge">
<title>Node1&#45;&gt;Node32</title>
<g id="a_edge45_Node000001_Node000032"><a xlink:title=" ">
<path fill="none" stroke="#63b8ff" d="M59.57,-299.74C60.41,-259.54 69.17,-105.12 153,-27.5 154.13,-26.45 155.31,-25.47 156.54,-24.53"/>
<polygon fill="#63b8ff" stroke="#63b8ff" points="158.55,-27.4 165.18,-19.14 154.85,-21.46 158.55,-27.4"/>
</a>
</g>
</g>
<!-- Node33 -->
<g id="Node000033" class="node">
<title>Node33</title>
<g id="a_Node000033"><a xlink:href="cosmo_8c.html#a77c250cf8a223800c68d59981acc9511" target="_top" xlink:title=" ">
<polygon fill="white" stroke="#666666" points="276,-281 177,-281 177,-262 276,-262 276,-281"/>
<text text-anchor="middle" x="226.5" y="-269" font-family="Helvetica,sans-Serif" font-size="10.00">system_of_ODEs</text>
</a>
</g>
</g>
<!-- Node1&#45;&gt;Node33 -->
<g id="edge46_Node000001_Node000033" class="edge">
<title>Node1&#45;&gt;Node33</title>
<g id="a_edge46_Node000001_Node000033"><a xlink:title=" ">
<path fill="none" stroke="#63b8ff" d="M101.39,-299.91C123.39,-294.87 150.55,-288.66 173.85,-283.32"/>
<polygon fill="#63b8ff" stroke="#63b8ff" points="174.95,-286.66 183.91,-281.02 173.38,-279.84 174.95,-286.66"/>
</a>
</g>
</g>
<!-- Node38 -->
<g id="Node000038" class="node">
<title>Node38</title>
<g id="a_Node000038"><a xlink:href="cosmo_8c.html#a3eb3007bd4360ca21a5e3a02d50739a5" target="_top" xlink:title=" ">
<polygon fill="white" stroke="#666666" points="292,-244 161,-244 161,-225 292,-225 292,-244"/>
<text text-anchor="middle" x="226.5" y="-232" font-family="Helvetica,sans-Serif" font-size="10.00">system_of_ODEs_small</text>
</a>
</g>
</g>
<!-- Node1&#45;&gt;Node38 -->
<g id="edge54_Node000001_Node000038" class="edge">
<title>Node1&#45;&gt;Node38</title>
<g id="a_edge54_Node000001_Node000038"><a xlink:title=" ">
<path fill="none" stroke="#63b8ff" d="M72.44,-299.84C89.88,-287.25 122.3,-265.32 153,-252.5 157.81,-250.49 162.9,-248.67 168.07,-247.02"/>
<polygon fill="#63b8ff" stroke="#63b8ff" points="169.43,-250.27 178.03,-244.08 167.44,-243.56 169.43,-250.27"/>
</a>
</g>
</g>
<!-- Node3 -->
<g id="Node000003" class="node">
<title>Node3</title>
<g id="a_Node000003"><a xlink:href="cosmo_8c.html#a6341f5394ed17a00dc77c5519b292ae3" target="_top" xlink:title=" ">
<polygon fill="white" stroke="#666666" points="1123,-357 1030,-357 1030,-338 1123,-338 1123,-357"/>
<text text-anchor="middle" x="1076.5" y="-345" font-family="Helvetica,sans-Serif" font-size="10.00">my_spline_eval</text>
</a>
</g>
</g>
<!-- Node2&#45;&gt;Node3 -->
<g id="edge2_Node000002_Node000003" class="edge">
<title>Node2&#45;&gt;Node3</title>
<g id="a_edge2_Node000002_Node000003"><a xlink:title=" ">
<path fill="none" stroke="#63b8ff" d="M657.76,-347.5C749.43,-347.5 928.94,-347.5 1019.87,-347.5"/>
<polygon fill="#63b8ff" stroke="#63b8ff" points="1019.98,-351 1029.98,-347.5 1019.98,-344 1019.98,-351"/>
</a>
</g>
</g>
<!-- Node5 -->
<g id="Node000005" class="node">
<title>Node5</title>
<g id="a_Node000005"><a xlink:href="cosmo_8c.html#a8847e5b8ea1f9c458c8bf9e5f36837a9" target="_top" xlink:title=" ">
<polygon fill="white" stroke="#666666" points="984,-433 879,-433 879,-414 984,-414 984,-433"/>
<text text-anchor="middle" x="931.5" y="-421" font-family="Helvetica,sans-Serif" font-size="10.00">InterpolateGrowth</text>
</a>
</g>
</g>
<!-- Node4&#45;&gt;Node5 -->
<g id="edge4_Node000004_Node000005" class="edge">
<title>Node4&#45;&gt;Node5</title>
<g id="a_edge4_Node000004_Node000005"><a xlink:title=" ">
<path fill="none" stroke="#63b8ff" d="M813.26,-526.47C820.11,-524.1 826.95,-521.15 833,-517.5 852.64,-505.64 852.58,-496.53 869,-480.5 883.36,-466.49 900.08,-451.04 912.46,-439.77"/>
<polygon fill="#63b8ff" stroke="#63b8ff" points="914.84,-442.33 919.9,-433.02 910.14,-437.15 914.84,-442.33"/>
</a>
</g>
</g>
<!-- Node5&#45;&gt;Node3 -->
<g id="edge5_Node000005_Node000003" class="edge">
<title>Node5&#45;&gt;Node3</title>
<g id="a_edge5_Node000005_Node000003"><a xlink:title=" ">
<path fill="none" stroke="#63b8ff" d="M950.61,-413.87C975.32,-400.74 1019.81,-377.1 1048.47,-361.86"/>
<polygon fill="#63b8ff" stroke="#63b8ff" points="1050.35,-364.83 1057.54,-357.05 1047.06,-358.65 1050.35,-364.83"/>
</a>
</g>
</g>
<!-- Node6&#45;&gt;Node5 -->
<g id="edge7_Node000006_Node000005" class="edge">
<title>Node6&#45;&gt;Node5</title>
<g id="a_edge7_Node000006_Node000005"><a xlink:title=" ">
<path fill="none" stroke="#63b8ff" d="M827.88,-423.5C841.09,-423.5 855.25,-423.5 868.71,-423.5"/>
<polygon fill="#63b8ff" stroke="#63b8ff" points="868.83,-427 878.83,-423.5 868.83,-420 868.83,-427"/>
</a>
</g>
</g>
<!-- Node7&#45;&gt;Node5 -->
<g id="edge9_Node000007_Node000005" class="edge">
<title>Node7&#45;&gt;Node5</title>
<g id="a_edge9_Node000007_Node000005"><a xlink:title=" ">
<path fill="none" stroke="#63b8ff" d="M475.7,-385.85C557.42,-386.9 706.55,-390.87 833,-405.5 847.03,-407.12 862.09,-409.56 876.07,-412.11"/>
<polygon fill="#63b8ff" stroke="#63b8ff" points="875.56,-415.58 886.04,-413.99 876.85,-408.7 875.56,-415.58"/>
</a>
</g>
</g>
<!-- Node8&#45;&gt;Node5 -->
<g id="edge11_Node000008_Node000005" class="edge">
<title>Node8&#45;&gt;Node5</title>
<g id="a_edge11_Node000008_Node000005"><a xlink:title=" ">
<path fill="none" stroke="#63b8ff" d="M812.82,-450.97C833.17,-446.22 857.98,-440.43 879.56,-435.39"/>
<polygon fill="#63b8ff" stroke="#63b8ff" points="880.6,-438.74 889.55,-433.06 879.01,-431.93 880.6,-438.74"/>
</a>
</g>
</g>
<!-- Node10 -->
<g id="Node000010" class="node">
<title>Node10</title>
<g id="a_Node000010"><a xlink:href="cosmo_8c.html#a19951793de40040dd4581e4f62dc70ed" target="_top" xlink:title=" ">
<polygon fill="white" stroke="#666666" points="477.5,-546 349.5,-546 349.5,-527 477.5,-527 477.5,-546"/>
<text text-anchor="middle" x="413.5" y="-534" font-family="Helvetica,sans-Serif" font-size="10.00">ComputeDisplVariance</text>
</a>
</g>
</g>
<!-- Node9&#45;&gt;Node10 -->
<g id="edge13_Node000009_Node000010" class="edge">
<title>Node9&#45;&gt;Node10</title>
<g id="a_edge13_Node000009_Node000010"><a xlink:title=" ">
<path fill="none" stroke="#63b8ff" d="M292.2,-536.5C307.42,-536.5 323.74,-536.5 339.3,-536.5"/>
<polygon fill="#63b8ff" stroke="#63b8ff" points="339.39,-540 349.39,-536.5 339.39,-533 339.39,-540"/>
</a>
</g>
</g>
<!-- Node20 -->
<g id="Node000020" class="node">
<title>Node20</title>
<g id="a_Node000020"><a xlink:href="cosmo_8c.html#ab20739d74ee8f4246073637e01d6a305" target="_top" xlink:title=" ">
<polygon fill="white" stroke="#666666" points="477.5,-509 349.5,-509 349.5,-490 477.5,-490 477.5,-509"/>
<text text-anchor="middle" x="413.5" y="-497" font-family="Helvetica,sans-Serif" font-size="10.00">ComputeMassVariance</text>
</a>
</g>
</g>
<!-- Node9&#45;&gt;Node20 -->
<g id="edge25_Node000009_Node000020" class="edge">
<title>Node9&#45;&gt;Node20</title>
<g id="a_edge25_Node000009_Node000020"><a xlink:title=" ">
<path fill="none" stroke="#63b8ff" d="M275.14,-526.97C299.43,-522.11 329.17,-516.17 354.75,-511.05"/>
<polygon fill="#63b8ff" stroke="#63b8ff" points="355.58,-514.45 364.7,-509.06 354.21,-507.59 355.58,-514.45"/>
</a>
</g>
</g>
<!-- Node11 -->
<g id="Node000011" class="node">
<title>Node11</title>
<g id="a_Node000011"><a xlink:href="cosmo_8c.html#ac6c0324ea8a0998e51c2ed54864ef24c" target="_top" xlink:title=" ">
<polygon fill="white" stroke="#666666" points="672.5,-546 527.5,-546 527.5,-527 672.5,-527 672.5,-546"/>
<text text-anchor="middle" x="600" y="-534" font-family="Helvetica,sans-Serif" font-size="10.00">IntegrandForDisplVariance</text>
</a>
</g>
</g>
<!-- Node10&#45;&gt;Node11 -->
<g id="edge14_Node000010_Node000011" class="edge">
<title>Node10&#45;&gt;Node11</title>
<g id="a_edge14_Node000010_Node000011"><a xlink:title=" ">
<path fill="none" stroke="#63b8ff" d="M477.74,-536.5C490.45,-536.5 503.99,-536.5 517.24,-536.5"/>
<polygon fill="#63b8ff" stroke="#63b8ff" points="517.29,-540 527.29,-536.5 517.29,-533 517.29,-540"/>
</a>
</g>
</g>
<!-- Node11&#45;&gt;Node4 -->
<g id="edge15_Node000011_Node000004" class="edge">
<title>Node11&#45;&gt;Node4</title>
<g id="a_edge15_Node000011_Node000004"><a xlink:title=" ">
<path fill="none" stroke="#63b8ff" d="M672.67,-536.08C688.02,-535.99 703.94,-535.89 718.36,-535.81"/>
<polygon fill="#63b8ff" stroke="#63b8ff" points="718.58,-539.3 728.56,-535.75 718.54,-532.3 718.58,-539.3"/>
</a>
</g>
</g>
<!-- Node11&#45;&gt;Node12 -->
<g id="edge16_Node000011_Node000012" class="edge">
<title>Node11&#45;&gt;Node12</title>
<g id="a_edge16_Node000011_Node000012"><a xlink:title=" ">
<path fill="none" stroke="#63b8ff" d="M645.85,-546.05C667.13,-550.59 692.76,-556.05 715.19,-560.82"/>
<polygon fill="#63b8ff" stroke="#63b8ff" points="714.73,-564.3 725.24,-562.97 716.19,-557.46 714.73,-564.3"/>
</a>
</g>
</g>
<!-- Node19 -->
<g id="Node000019" class="node">
<title>Node19</title>
<g id="a_Node000019"><a xlink:href="cosmo_8c.html#a9817ba0d254db24f71f8d7ab242b4fba" target="_top" xlink:title=" ">
<polygon fill="white" stroke="#666666" points="819.5,-508 722.5,-508 722.5,-489 819.5,-489 819.5,-508"/>
<text text-anchor="middle" x="771" y="-496" font-family="Helvetica,sans-Serif" font-size="10.00">WindowFunction</text>
</a>
</g>
</g>
<!-- Node11&#45;&gt;Node19 -->
<g id="edge24_Node000011_Node000019" class="edge">
<title>Node11&#45;&gt;Node19</title>
<g id="a_edge24_Node000011_Node000019"><a xlink:title=" ">
<path fill="none" stroke="#63b8ff" d="M643.65,-526.91C666.15,-521.85 693.95,-515.6 717.74,-510.25"/>
<polygon fill="#63b8ff" stroke="#63b8ff" points="718.67,-513.63 727.66,-508.02 717.14,-506.8 718.67,-513.63"/>
</a>
</g>
</g>
<!-- Node13 -->
<g id="Node000013" class="node">
<title>Node13</title>
<g id="a_Node000013"><a xlink:href="cosmo_8c.html#a27427d60987e3e074ad1d7215080dc69" target="_top" xlink:title=" ">
<polygon fill="white" stroke="#666666" points="994,-545 869,-545 869,-526 994,-526 994,-545"/>
<text text-anchor="middle" x="931.5" y="-533" font-family="Helvetica,sans-Serif" font-size="10.00">PowerSpec_Efstathiou</text>
</a>
</g>
</g>
<!-- Node12&#45;&gt;Node13 -->
<g id="edge17_Node000012_Node000013" class="edge">
<title>Node12&#45;&gt;Node13</title>
<g id="a_edge17_Node000012_Node000013"><a xlink:title=" ">
<path fill="none" stroke="#63b8ff" d="M812.82,-562.97C833.17,-558.22 857.98,-552.43 879.56,-547.39"/>
<polygon fill="#63b8ff" stroke="#63b8ff" points="880.6,-550.74 889.55,-545.06 879.01,-543.93 880.6,-550.74"/>
</a>
</g>
</g>
<!-- Node14 -->
<g id="Node000014" class="node">
<title>Node14</title>
<g id="a_Node000014"><a xlink:href="cosmo_8c.html#a4b4d5c5ca327f59df1eba21a73e62113" target="_top" xlink:title=" ">
<polygon fill="white" stroke="#666666" points="976,-619 887,-619 887,-600 976,-600 976,-619"/>
<text text-anchor="middle" x="931.5" y="-607" font-family="Helvetica,sans-Serif" font-size="10.00">PowerSpec_EH</text>
</a>
</g>
</g>
<!-- Node12&#45;&gt;Node14 -->
<g id="edge18_Node000012_Node000014" class="edge">
<title>Node12&#45;&gt;Node14</title>
<g id="a_edge18_Node000012_Node000014"><a xlink:title=" ">
<path fill="none" stroke="#63b8ff" d="M812.82,-582.03C833.17,-586.78 857.98,-592.57 879.56,-597.61"/>
<polygon fill="#63b8ff" stroke="#63b8ff" points="879.01,-601.07 889.55,-599.94 880.6,-594.26 879.01,-601.07"/>
</a>
</g>
</g>
<!-- Node17 -->
<g id="Node000017" class="node">
<title>Node17</title>
<g id="a_Node000017"><a xlink:href="cosmo_8c.html#a6d04017af6090db607768f47976b88b8" target="_top" xlink:title=" ">
<polygon fill="white" stroke="#666666" points="994,-508 869,-508 869,-489 994,-489 994,-508"/>
<text text-anchor="middle" x="931.5" y="-496" font-family="Helvetica,sans-Serif" font-size="10.00">PowerSpec_PowerLaw</text>
</a>
</g>
</g>
<!-- Node12&#45;&gt;Node17 -->
<g id="edge21_Node000012_Node000017" class="edge">
<title>Node12&#45;&gt;Node17</title>
<g id="a_edge21_Node000012_Node000017"><a xlink:title=" ">
<path fill="none" stroke="#63b8ff" d="M814.86,-562.91C821.18,-560.64 827.42,-557.87 833,-554.5 852.64,-542.64 849.43,-529.48 869,-517.5 872.39,-515.43 876.02,-513.56 879.76,-511.89"/>
<polygon fill="#63b8ff" stroke="#63b8ff" points="881.24,-515.07 889.23,-508.11 878.64,-508.57 881.24,-515.07"/>
</a>
</g>
</g>
<!-- Node18 -->
<g id="Node000018" class="node">
<title>Node18</title>
<g id="a_Node000018"><a xlink:href="cosmo_8c.html#a428d6d001b5eb57f3f17d85699dd67f5" target="_top" xlink:title=" ">
<polygon fill="white" stroke="#666666" points="992.5,-582 870.5,-582 870.5,-563 992.5,-563 992.5,-582"/>
<text text-anchor="middle" x="931.5" y="-570" font-family="Helvetica,sans-Serif" font-size="10.00">PowerSpec_Tabulated</text>
</a>
</g>
</g>
<!-- Node12&#45;&gt;Node18 -->
<g id="edge22_Node000012_Node000018" class="edge">
<title>Node12&#45;&gt;Node18</title>
<g id="a_edge22_Node000012_Node000018"><a xlink:title=" ">
<path fill="none" stroke="#63b8ff" d="M817.84,-572.5C831.01,-572.5 845.69,-572.5 859.98,-572.5"/>
<polygon fill="#63b8ff" stroke="#63b8ff" points="860.29,-576 870.29,-572.5 860.29,-569 860.29,-576"/>
</a>
</g>
</g>
<!-- Node15 -->
<g id="Node000015" class="node">
<title>Node15</title>
<g id="a_Node000015"><a xlink:href="cosmo_8c.html#a5c6dbdd7fd7c206feb0554bc93b2436c" target="_top" xlink:title=" ">
<polygon fill="white" stroke="#666666" points="1108.5,-619 1044.5,-619 1044.5,-600 1108.5,-600 1108.5,-619"/>
<text text-anchor="middle" x="1076.5" y="-607" font-family="Helvetica,sans-Serif" font-size="10.00">transf_EH</text>
</a>
</g>
</g>
<!-- Node14&#45;&gt;Node15 -->
<g id="edge19_Node000014_Node000015" class="edge">
<title>Node14&#45;&gt;Node15</title>
<g id="a_edge19_Node000014_Node000015"><a xlink:title=" ">
<path fill="none" stroke="#63b8ff" d="M976.18,-609.5C994.67,-609.5 1016.1,-609.5 1034.3,-609.5"/>
<polygon fill="#63b8ff" stroke="#63b8ff" points="1034.33,-613 1044.33,-609.5 1034.33,-606 1034.33,-613"/>
</a>
</g>
</g>
<!-- Node16 -->
<g id="Node000016" class="node">
<title>Node16</title>
<g id="a_Node000016"><a xlink:href="cosmo_8c.html#a57dfb02fcd17e35fad40c836ba4d4160" target="_top" xlink:title=" ">
<polygon fill="white" stroke="#666666" points="1188,-619 1159,-619 1159,-600 1188,-600 1188,-619"/>
<text text-anchor="middle" x="1173.5" y="-607" font-family="Helvetica,sans-Serif" font-size="10.00">T0</text>
</a>
</g>
</g>
<!-- Node15&#45;&gt;Node16 -->
<g id="edge20_Node000015_Node000016" class="edge">
<title>Node15&#45;&gt;Node16</title>
<g id="a_edge20_Node000015_Node000016"><a xlink:title=" ">
<path fill="none" stroke="#63b8ff" d="M1108.61,-609.5C1121.53,-609.5 1136.31,-609.5 1148.39,-609.5"/>
<polygon fill="#63b8ff" stroke="#63b8ff" points="1148.6,-613 1158.6,-609.5 1148.6,-606 1148.6,-613"/>
</a>
</g>
</g>
<!-- Node18&#45;&gt;Node3 -->
<g id="edge23_Node000018_Node000003" class="edge">
<title>Node18&#45;&gt;Node3</title>
<g id="a_edge23_Node000018_Node000003"><a xlink:title=" ">
<path fill="none" stroke="#63b8ff" d="M981.43,-562.85C986.01,-560.62 990.3,-557.88 994,-554.5 1050.04,-503.31 1068.07,-408.72 1073.42,-367.54"/>
<polygon fill="#63b8ff" stroke="#63b8ff" points="1076.92,-367.76 1074.62,-357.42 1069.97,-366.94 1076.92,-367.76"/>
</a>
</g>
</g>
<!-- Node21 -->
<g id="Node000021" class="node">
<title>Node21</title>
<g id="a_Node000021"><a xlink:href="cosmo_8c.html#acc3f98f9efcc34eeb5447d1bf317dbe8" target="_top" xlink:title=" ">
<polygon fill="white" stroke="#666666" points="673,-509 527,-509 527,-490 673,-490 673,-509"/>
<text text-anchor="middle" x="600" y="-497" font-family="Helvetica,sans-Serif" font-size="10.00">IntegrandForMassVariance</text>
</a>
</g>
</g>
<!-- Node20&#45;&gt;Node21 -->
<g id="edge26_Node000020_Node000021" class="edge">
<title>Node20&#45;&gt;Node21</title>
<g id="a_edge26_Node000020_Node000021"><a xlink:title=" ">
<path fill="none" stroke="#63b8ff" d="M477.74,-499.5C490.25,-499.5 503.55,-499.5 516.59,-499.5"/>
<polygon fill="#63b8ff" stroke="#63b8ff" points="516.97,-503 526.97,-499.5 516.97,-496 516.97,-503"/>
</a>
</g>
</g>
<!-- Node21&#45;&gt;Node4 -->
<g id="edge27_Node000021_Node000004" class="edge">
<title>Node21&#45;&gt;Node4</title>
<g id="a_edge27_Node000021_Node000004"><a xlink:title=" ">
<path fill="none" stroke="#63b8ff" d="M645.85,-509.05C668.25,-513.83 695.46,-519.62 718.69,-524.57"/>
<polygon fill="#63b8ff" stroke="#63b8ff" points="718.21,-528.05 728.72,-526.71 719.66,-521.2 718.21,-528.05"/>
</a>
</g>
</g>
<!-- Node21&#45;&gt;Node12 -->
<g id="edge28_Node000021_Node000012" class="edge">
<title>Node21&#45;&gt;Node12</title>
<g id="a_edge28_Node000021_Node000012"><a xlink:title=" ">
<path fill="none" stroke="#63b8ff" d="M651.16,-509.06C658.75,-511.54 666.28,-514.63 673,-518.5 692.62,-529.78 689.55,-542.94 709,-554.5 711.85,-556.19 714.87,-557.73 717.97,-559.14"/>
<polygon fill="#63b8ff" stroke="#63b8ff" points="716.91,-562.49 727.5,-562.95 719.52,-555.99 716.91,-562.49"/>
</a>
</g>
</g>
<!-- Node21&#45;&gt;Node19 -->
<g id="edge29_Node000021_Node000019" class="edge">
<title>Node21&#45;&gt;Node19</title>
<g id="a_edge29_Node000021_Node000019"><a xlink:title=" ">
<path fill="none" stroke="#63b8ff" d="M673.16,-499.07C686.06,-499 699.35,-498.92 711.79,-498.84"/>
<polygon fill="#63b8ff" stroke="#63b8ff" points="712.04,-502.34 722.02,-498.78 712,-495.34 712.04,-502.34"/>
</a>
</g>
</g>
<!-- Node23 -->
<g id="Node000023" class="node">
<title>Node23</title>
<g id="a_Node000023"><a xlink:href="cosmo_8c.html#a1d41d2291f2b23ba6982912f67a73cb7" target="_top" xlink:title=" ">
<polygon fill="white" stroke="#666666" points="465.5,-130 361.5,-130 361.5,-111 465.5,-111 465.5,-130"/>
<text text-anchor="middle" x="413.5" y="-118" font-family="Helvetica,sans-Serif" font-size="10.00">read_Pk_from_file</text>
</a>
</g>
</g>
<!-- Node22&#45;&gt;Node23 -->
<g id="edge31_Node000022_Node000023" class="edge">
<title>Node22&#45;&gt;Node23</title>
<g id="a_edge31_Node000022_Node000023"><a xlink:title=" ">
<path fill="none" stroke="#63b8ff" d="M296.65,-120.5C314.58,-120.5 333.76,-120.5 351.26,-120.5"/>
<polygon fill="#63b8ff" stroke="#63b8ff" points="351.34,-124 361.34,-120.5 351.34,-117 351.34,-124"/>
</a>
</g>
</g>
<!-- Node25 -->
<g id="Node000025" class="node">
<title>Node25</title>
<g id="a_Node000025"><a xlink:href="cosmo_8c.html#a911e9ce363c4662ce531c65885519f7a" target="_top" xlink:title=" ">
<polygon fill="white" stroke="#666666" points="796.5,-207 745.5,-207 745.5,-188 796.5,-188 796.5,-207"/>
<text text-anchor="middle" x="771" y="-195" font-family="Helvetica,sans-Serif" font-size="10.00">Hubble</text>
</a>
</g>
</g>
<!-- Node24&#45;&gt;Node25 -->
<g id="edge33_Node000024_Node000025" class="edge">
<title>Node24&#45;&gt;Node25</title>
<g id="a_edge33_Node000024_Node000025"><a xlink:title=" ">
<path fill="none" stroke="#63b8ff" d="M491.1,-162.09C542.67,-165.08 612.12,-170.21 673,-178.5 693.85,-181.34 716.98,-185.82 735.42,-189.71"/>
<polygon fill="#63b8ff" stroke="#63b8ff" points="734.9,-193.18 745.41,-191.86 736.37,-186.34 734.9,-193.18"/>
</a>
</g>
</g>
<!-- Node25&#45;&gt;Node3 -->
<g id="edge34_Node000025_Node000003" class="edge">
<title>Node25&#45;&gt;Node3</title>
<g id="a_edge34_Node000025_Node000003"><a xlink:title=" ">
<path fill="none" stroke="#63b8ff" d="M796.55,-206.91C838.11,-223.15 924.55,-258.3 994,-295.5 1014.65,-306.56 1037.02,-321.03 1053.08,-331.89"/>
<polygon fill="#63b8ff" stroke="#63b8ff" points="1051.53,-335.06 1061.76,-337.81 1055.48,-329.28 1051.53,-335.06"/>
</a>
</g>
</g>
<!-- Node26&#45;&gt;Node2 -->
<g id="edge36_Node000026_Node000002" class="edge">
<title>Node26&#45;&gt;Node2</title>
<g id="a_edge36_Node000026_Node000002"><a xlink:title=" ">
<path fill="none" stroke="#63b8ff" d="M461.06,-319.09C485.84,-324.19 516.52,-330.51 542.64,-335.89"/>
<polygon fill="#63b8ff" stroke="#63b8ff" points="542.28,-339.39 552.78,-337.98 543.69,-332.53 542.28,-339.39"/>
</a>
</g>
</g>
<!-- Node28&#45;&gt;Node20 -->
<g id="edge39_Node000028_Node000020" class="edge">
<title>Node28&#45;&gt;Node20</title>
<g id="a_edge39_Node000028_Node000020"><a xlink:title=" ">
<path fill="none" stroke="#63b8ff" d="M300.09,-499.5C312.95,-499.5 326.34,-499.5 339.22,-499.5"/>
<polygon fill="#63b8ff" stroke="#63b8ff" points="339.42,-503 349.42,-499.5 339.42,-496 339.42,-503"/>
</a>
</g>
</g>
<!-- Node30 -->
<g id="Node000030" class="node">
<title>Node30</title>
<g id="a_Node000030"><a xlink:href="cosmo_8c.html#a23ab46a1787abb61a8685d7c8f06cdd4" target="_top" xlink:title=" ">
<polygon fill="white" stroke="#666666" points="614.5,-207 585.5,-207 585.5,-188 614.5,-188 614.5,-207"/>
<text text-anchor="middle" x="600" y="-195" font-family="Helvetica,sans-Serif" font-size="10.00">Ez</text>
</a>
</g>
</g>
<!-- Node29&#45;&gt;Node30 -->
<g id="edge41_Node000029_Node000030" class="edge">
<title>Node29&#45;&gt;Node30</title>
<g id="a_edge41_Node000029_Node000030"><a xlink:title=" ">
<path fill="none" stroke="#63b8ff" d="M455.91,-197.5C492.62,-197.5 544.96,-197.5 575.11,-197.5"/>
<polygon fill="#63b8ff" stroke="#63b8ff" points="575.14,-201 585.14,-197.5 575.14,-194 575.14,-201"/>
</a>
</g>
</g>
<!-- Node30&#45;&gt;Node25 -->
<g id="edge42_Node000030_Node000025" class="edge">
<title>Node30&#45;&gt;Node25</title>
<g id="a_edge42_Node000030_Node000025"><a xlink:title=" ">
<path fill="none" stroke="#63b8ff" d="M614.54,-197.5C640.42,-197.5 697.63,-197.5 734.97,-197.5"/>
<polygon fill="#63b8ff" stroke="#63b8ff" points="735.39,-201 745.39,-197.5 735.39,-194 735.39,-201"/>
</a>
</g>
</g>
<!-- Node34 -->
<g id="Node000034" class="node">
<title>Node34</title>
<g id="a_Node000034"><a xlink:href="cosmo_8c.html#ab4c8868992fc24f252c2064899316b3d" target="_top" xlink:title=" ">
<polygon fill="white" stroke="#666666" points="444,-282 383,-282 383,-263 444,-263 444,-282"/>
<text text-anchor="middle" x="413.5" y="-270" font-family="Helvetica,sans-Serif" font-size="10.00">dlnE2_da</text>
</a>
</g>
</g>
<!-- Node33&#45;&gt;Node34 -->
<g id="edge47_Node000033_Node000034" class="edge">
<title>Node33&#45;&gt;Node34</title>
<g id="a_edge47_Node000033_Node000034"><a xlink:title=" ">
<path fill="none" stroke="#63b8ff" d="M276.11,-271.76C306.2,-271.93 344.36,-272.13 372.66,-272.28"/>
<polygon fill="#63b8ff" stroke="#63b8ff" points="372.97,-275.79 382.98,-272.34 373,-268.79 372.97,-275.79"/>
</a>
</g>
</g>
<!-- Node36 -->
<g id="Node000036" class="node">
<title>Node36</title>
<g id="a_Node000036"><a xlink:href="cosmo_8c.html#a445fb83b1fea3dc80e9d163d14e7591f" target="_top" xlink:title=" ">
<polygon fill="white" stroke="#666666" points="450.5,-244 376.5,-244 376.5,-225 450.5,-225 450.5,-244"/>
<text text-anchor="middle" x="413.5" y="-232" font-family="Helvetica,sans-Serif" font-size="10.00">Ez2_from_a</text>
</a>
</g>
</g>
<!-- Node33&#45;&gt;Node36 -->
<g id="edge51_Node000033_Node000036" class="edge">
<title>Node33&#45;&gt;Node36</title>
<g id="a_edge51_Node000033_Node000036"><a xlink:title=" ">
<path fill="none" stroke="#63b8ff" d="M275.14,-261.97C303.27,-256.35 338.7,-249.26 366.53,-243.69"/>
<polygon fill="#63b8ff" stroke="#63b8ff" points="367.29,-247.11 376.41,-241.72 365.92,-240.25 367.29,-247.11"/>
</a>
</g>
</g>
<!-- Node34&#45;&gt;Node2 -->
<g id="edge48_Node000034_Node000002" class="edge">
<title>Node34&#45;&gt;Node2</title>
<g id="a_edge48_Node000034_Node000002"><a xlink:title=" ">
<path fill="none" stroke="#63b8ff" d="M444.08,-275.86C458.81,-278.41 476.53,-282.84 491,-290.5 510.19,-300.65 508.29,-312.49 527,-323.5 534.35,-327.82 542.58,-331.49 550.78,-334.56"/>
<polygon fill="#63b8ff" stroke="#63b8ff" points="549.74,-337.91 560.33,-337.9 552.04,-331.3 549.74,-337.91"/>
</a>
</g>
</g>
<!-- Node34&#45;&gt;Node3 -->
<g id="edge49_Node000034_Node000003" class="edge">
<title>Node34&#45;&gt;Node3</title>
<g id="a_edge49_Node000034_Node000003"><a xlink:title=" ">
<path fill="none" stroke="#63b8ff" d="M444.06,-277.34C466.72,-280.95 498.79,-285.88 527,-289.5 706.79,-312.58 920.61,-333.24 1019.82,-342.44"/>
<polygon fill="#63b8ff" stroke="#63b8ff" points="1019.63,-345.94 1029.91,-343.37 1020.28,-338.97 1019.63,-345.94"/>
</a>
</g>
</g>
<!-- Node35 -->
<g id="Node000035" class="node">
<title>Node35</title>
<g id="a_Node000035"><a xlink:href="cosmo_8c.html#abbdf4cc6d70bc314c73e389cb6ce7d7a" target="_top" xlink:title=" ">
<polygon fill="white" stroke="#666666" points="661.5,-281 538.5,-281 538.5,-262 661.5,-262 661.5,-281"/>
<text text-anchor="middle" x="600" y="-269" font-family="Helvetica,sans-Serif" font-size="10.00">my_spline_eval_deriv</text>
</a>
</g>
</g>
<!-- Node34&#45;&gt;Node35 -->
<g id="edge50_Node000034_Node000035" class="edge">
<title>Node34&#45;&gt;Node35</title>
<g id="a_edge50_Node000034_Node000035"><a xlink:title=" ">
<path fill="none" stroke="#63b8ff" d="M444.14,-272.34C466.83,-272.22 499.09,-272.04 528.29,-271.88"/>
<polygon fill="#63b8ff" stroke="#63b8ff" points="528.49,-275.38 538.47,-271.83 528.46,-268.38 528.49,-275.38"/>
</a>
</g>
</g>
<!-- Node36&#45;&gt;Node30 -->
<g id="edge53_Node000036_Node000030" class="edge">
<title>Node36&#45;&gt;Node30</title>
<g id="a_edge53_Node000036_Node000030"><a xlink:title=" ">
<path fill="none" stroke="#63b8ff" d="M450.51,-227.28C487.28,-219.9 543.34,-208.66 575.01,-202.31"/>
<polygon fill="#63b8ff" stroke="#63b8ff" points="576.01,-205.68 585.13,-200.28 574.63,-198.82 576.01,-205.68"/>
</a>
</g>
</g>
<!-- Node37 -->
<g id="Node000037" class="node">
<title>Node37</title>
<g id="a_Node000037"><a xlink:href="cosmo_8c.html#ac7fbe724feedc1cb5b0afe20117b5f8d" target="_top" xlink:title=" ">
<polygon fill="white" stroke="#666666" points="624,-244 576,-244 576,-225 624,-225 624,-244"/>
<text text-anchor="middle" x="600" y="-232" font-family="Helvetica,sans-Serif" font-size="10.00">a_to_z</text>
</a>
</g>
</g>
<!-- Node36&#45;&gt;Node37 -->
<g id="edge52_Node000036_Node000037" class="edge">
<title>Node36&#45;&gt;Node37</title>
<g id="a_edge52_Node000036_Node000037"><a xlink:title=" ">
<path fill="none" stroke="#63b8ff" d="M450.51,-234.5C483.86,-234.5 533.08,-234.5 565.58,-234.5"/>
<polygon fill="#63b8ff" stroke="#63b8ff" points="565.91,-238 575.91,-234.5 565.91,-231 565.91,-238"/>
</a>
</g>
</g>
<!-- Node38&#45;&gt;Node36 -->
<g id="edge55_Node000038_Node000036" class="edge">
<title>Node38&#45;&gt;Node36</title>
<g id="a_edge55_Node000038_Node000036"><a xlink:title=" ">
<path fill="none" stroke="#63b8ff" d="M292.2,-234.5C316.58,-234.5 343.8,-234.5 366.17,-234.5"/>
<polygon fill="#63b8ff" stroke="#63b8ff" points="366.4,-238 376.4,-234.5 366.4,-231 366.4,-238"/>
</a>
</g>
</g>
</g>
</svg>
