<?xml version="1.0" encoding="UTF-8" standalone="no"?>
<!DOCTYPE svg PUBLIC "-//W3C//DTD SVG 1.1//EN"
 "http://www.w3.org/Graphics/SVG/1.1/DTD/svg11.dtd">
<!-- Generated by graphviz version 2.43.0 (0)
 -->
<!-- Title: accretion Pages: 1 -->
<svg width="707pt" height="138pt"
 viewBox="0.00 0.00 707.00 138.00" xmlns="http://www.w3.org/2000/svg" xmlns:xlink="http://www.w3.org/1999/xlink">
<g id="graph0" class="graph" transform="scale(1 1) rotate(0) translate(4 134)">
<title>accretion</title>
<!-- Node1 -->
<g id="Node000001" class="node">
<title>Node1</title>
<g id="a_Node000001"><a xlink:title=" ">
<polygon fill="#999999" stroke="#666666" points="62,-74 0,-74 0,-55 62,-55 62,-74"/>
<text text-anchor="middle" x="31" y="-62" font-family="Helvetica,sans-Serif" font-size="10.00">accretion</text>
</a>
</g>
</g>
<!-- Node2 -->
<g id="Node000002" class="node">
<title>Node2</title>
<g id="a_Node000002"><a xlink:href="build__groups_8c.html#a373d03c1d37c23fc2beda89ed9dc5e5c" target="_top" xlink:title=" ">
<polygon fill="white" stroke="#666666" points="163,-130 98,-130 98,-111 163,-111 163,-130"/>
<text text-anchor="middle" x="130.5" y="-118" font-family="Helvetica,sans-Serif" font-size="10.00">set_group</text>
</a>
</g>
</g>
<!-- Node1&#45;&gt;Node2 -->
<g id="edge1_Node000001_Node000002" class="edge">
<title>Node1&#45;&gt;Node2</title>
<g id="a_edge1_Node000001_Node000002"><a xlink:title=" ">
<path fill="none" stroke="#63b8ff" d="M48.54,-74.04C61.88,-81.74 81.14,-92.83 98,-102.5 99.95,-103.62 101.98,-104.78 104.01,-105.94"/>
<polygon fill="#63b8ff" stroke="#63b8ff" points="102.4,-109.06 112.82,-110.98 105.88,-102.98 102.4,-109.06"/>
</a>
</g>
</g>
<!-- Node3 -->
<g id="Node000003" class="node">
<title>Node3</title>
<g id="a_Node000003"><a xlink:href="build__groups_8c.html#a8ca8a2e49b8887203360635eb02ee79e" target="_top" xlink:title=" ">
<polygon fill="white" stroke="#666666" points="156.5,-93 104.5,-93 104.5,-74 156.5,-74 156.5,-93"/>
<text text-anchor="middle" x="130.5" y="-81" font-family="Helvetica,sans-Serif" font-size="10.00">set_obj</text>
</a>
</g>
</g>
<!-- Node1&#45;&gt;Node3 -->
<g id="edge2_Node000001_Node000003" class="edge">
<title>Node1&#45;&gt;Node3</title>
<g id="a_edge2_Node000001_Node000003"><a xlink:title=" ">
<path fill="none" stroke="#63b8ff" d="M62.05,-70.36C72.31,-72.36 83.87,-74.61 94.49,-76.68"/>
<polygon fill="#63b8ff" stroke="#63b8ff" points="93.82,-80.11 104.31,-78.59 95.16,-73.24 93.82,-80.11"/>
</a>
</g>
</g>
<!-- Node11 -->
<g id="Node000011" class="node">
<title>Node11</title>
<g id="a_Node000011"><a xlink:href="build__groups_8c.html#a731742e418b2f14b59093e9849636362" target="_top" xlink:title=" ">
<polygon fill="white" stroke="#666666" points="161.5,-56 99.5,-56 99.5,-37 161.5,-37 161.5,-56"/>
<text text-anchor="middle" x="130.5" y="-44" font-family="Helvetica,sans-Serif" font-size="10.00">set_point</text>
</a>
</g>
</g>
<!-- Node1&#45;&gt;Node11 -->
<g id="edge13_Node000001_Node000011" class="edge">
<title>Node1&#45;&gt;Node11</title>
<g id="a_edge13_Node000001_Node000011"><a xlink:title=" ">
<path fill="none" stroke="#63b8ff" d="M62.05,-58.95C70.67,-57.36 80.2,-55.6 89.33,-53.92"/>
<polygon fill="#63b8ff" stroke="#63b8ff" points="90.18,-57.32 99.38,-52.06 88.91,-50.43 90.18,-57.32"/>
</a>
</g>
</g>
<!-- Node12 -->
<g id="Node000012" class="node">
<title>Node12</title>
<g id="a_Node000012"><a xlink:href="build__groups_8c.html#a46fdcd7380b956c29fedb74f3967ccbb" target="_top" xlink:title=" ">
<polygon fill="white" stroke="#666666" points="155.5,-19 105.5,-19 105.5,0 155.5,0 155.5,-19"/>
<text text-anchor="middle" x="130.5" y="-7" font-family="Helvetica,sans-Serif" font-size="10.00">update</text>
</a>
</g>
</g>
<!-- Node1&#45;&gt;Node12 -->
<g id="edge15_Node000001_Node000012" class="edge">
<title>Node1&#45;&gt;Node12</title>
<g id="a_edge15_Node000001_Node000012"><a xlink:title=" ">
<path fill="none" stroke="#63b8ff" d="M48.98,-54.92C63.99,-46.45 86.11,-33.98 103.37,-24.24"/>
<polygon fill="#63b8ff" stroke="#63b8ff" points="105.39,-27.12 112.38,-19.16 101.95,-21.02 105.39,-27.12"/>
</a>
</g>
</g>
<!-- Node4 -->
<g id="Node000004" class="node">
<title>Node4</title>
<g id="a_Node000004"><a xlink:href="build__groups_8c.html#a7d0a825b630d787e82f2aad789794b1b" target="_top" xlink:title=" ">
<polygon fill="white" stroke="#666666" points="269,-74 199,-74 199,-55 269,-55 269,-74"/>
<text text-anchor="middle" x="234" y="-62" font-family="Helvetica,sans-Serif" font-size="10.00">set_weight</text>
</a>
</g>
</g>
<!-- Node3&#45;&gt;Node4 -->
<g id="edge3_Node000003_Node000004" class="edge">
<title>Node3&#45;&gt;Node4</title>
<g id="a_edge3_Node000003_Node000004"><a xlink:title=" ">
<path fill="none" stroke="#63b8ff" d="M156.59,-78.8C166.3,-76.99 177.71,-74.85 188.7,-72.79"/>
<polygon fill="#63b8ff" stroke="#63b8ff" points="189.44,-76.21 198.63,-70.93 188.15,-69.33 189.44,-76.21"/>
</a>
</g>
</g>
<!-- Node5 -->
<g id="Node000005" class="node">
<title>Node5</title>
<g id="a_Node000005"><a xlink:href="cosmo_8c.html#a9fbcf5b69c272e801cf320cf814b23c4" target="_top" xlink:title=" ">
<polygon fill="white" stroke="#666666" points="409,-130 325,-130 325,-111 409,-111 409,-130"/>
<text text-anchor="middle" x="367" y="-118" font-family="Helvetica,sans-Serif" font-size="10.00">GrowingMode</text>
</a>
</g>
</g>
<!-- Node4&#45;&gt;Node5 -->
<g id="edge4_Node000004_Node000005" class="edge">
<title>Node4&#45;&gt;Node5</title>
<g id="a_edge4_Node000004_Node000005"><a xlink:title=" ">
<path fill="none" stroke="#63b8ff" d="M250.38,-74.08C264.26,-82.42 285.45,-94.41 305,-102.5 309.66,-104.43 314.61,-106.24 319.58,-107.92"/>
<polygon fill="#63b8ff" stroke="#63b8ff" points="318.52,-111.26 329.12,-110.98 320.66,-104.59 318.52,-111.26"/>
</a>
</g>
</g>
<!-- Node8 -->
<g id="Node000008" class="node">
<title>Node8</title>
<g id="a_Node000008"><a xlink:href="cosmo_8c.html#a3d4dfa13b4af53acceb7a040e2517499" target="_top" xlink:title=" ">
<polygon fill="white" stroke="#666666" points="423.5,-93 310.5,-93 310.5,-74 423.5,-74 423.5,-93"/>
<text text-anchor="middle" x="367" y="-81" font-family="Helvetica,sans-Serif" font-size="10.00">GrowingMode_2LPT</text>
</a>
</g>
</g>
<!-- Node4&#45;&gt;Node8 -->
<g id="edge7_Node000004_Node000008" class="edge">
<title>Node4&#45;&gt;Node8</title>
<g id="a_edge7_Node000004_Node000008"><a xlink:title=" ">
<path fill="none" stroke="#63b8ff" d="M269.08,-69.44C278.71,-70.84 289.54,-72.41 300.36,-73.98"/>
<polygon fill="#63b8ff" stroke="#63b8ff" points="299.88,-77.45 310.28,-75.42 300.88,-70.52 299.88,-77.45"/>
</a>
</g>
</g>
<!-- Node9 -->
<g id="Node000009" class="node">
<title>Node9</title>
<g id="a_Node000009"><a xlink:href="cosmo_8c.html#a04db96c36d31fd7c7befb810624260fc" target="_top" xlink:title=" ">
<polygon fill="white" stroke="#666666" points="429,-56 305,-56 305,-37 429,-37 429,-56"/>
<text text-anchor="middle" x="367" y="-44" font-family="Helvetica,sans-Serif" font-size="10.00">GrowingMode_3LPT_1</text>
</a>
</g>
</g>
<!-- Node4&#45;&gt;Node9 -->
<g id="edge9_Node000004_Node000009" class="edge">
<title>Node4&#45;&gt;Node9</title>
<g id="a_edge9_Node000004_Node000009"><a xlink:title=" ">
<path fill="none" stroke="#63b8ff" d="M269.08,-59.82C277.06,-58.72 285.87,-57.51 294.81,-56.28"/>
<polygon fill="#63b8ff" stroke="#63b8ff" points="295.51,-59.72 304.94,-54.89 294.55,-52.78 295.51,-59.72"/>
</a>
</g>
</g>
<!-- Node10 -->
<g id="Node000010" class="node">
<title>Node10</title>
<g id="a_Node000010"><a xlink:href="cosmo_8c.html#a9c8d61128a3d0ab4c73354d0ff8011a1" target="_top" xlink:title=" ">
<polygon fill="white" stroke="#666666" points="429,-19 305,-19 305,0 429,0 429,-19"/>
<text text-anchor="middle" x="367" y="-7" font-family="Helvetica,sans-Serif" font-size="10.00">GrowingMode_3LPT_2</text>
</a>
</g>
</g>
<!-- Node4&#45;&gt;Node10 -->
<g id="edge11_Node000004_Node000010" class="edge">
<title>Node4&#45;&gt;Node10</title>
<g id="a_edge11_Node000004_Node000010"><a xlink:title=" ">
<path fill="none" stroke="#63b8ff" d="M251.59,-54.93C265.53,-47.14 286.16,-36.21 305,-28.5 310.46,-26.27 316.28,-24.14 322.08,-22.17"/>
<polygon fill="#63b8ff" stroke="#63b8ff" points="323.33,-25.45 331.75,-19.03 321.16,-18.79 323.33,-25.45"/>
</a>
</g>
</g>
<!-- Node6 -->
<g id="Node000006" class="node">
<title>Node6</title>
<g id="a_Node000006"><a xlink:href="cosmo_8c.html#a8847e5b8ea1f9c458c8bf9e5f36837a9" target="_top" xlink:title=" ">
<polygon fill="white" stroke="#666666" points="570,-74 465,-74 465,-55 570,-55 570,-74"/>
<text text-anchor="middle" x="517.5" y="-62" font-family="Helvetica,sans-Serif" font-size="10.00">InterpolateGrowth</text>
</a>
</g>
</g>
<!-- Node5&#45;&gt;Node6 -->
<g id="edge5_Node000005_Node000006" class="edge">
<title>Node5&#45;&gt;Node6</title>
<g id="a_edge5_Node000005_Node000006"><a xlink:title=" ">
<path fill="none" stroke="#63b8ff" d="M403.08,-110.95C411.63,-108.4 420.7,-105.52 429,-102.5 448.65,-95.36 470.2,-86.03 486.99,-78.39"/>
<polygon fill="#63b8ff" stroke="#63b8ff" points="488.65,-81.48 496.28,-74.13 485.73,-75.12 488.65,-81.48"/>
</a>
</g>
</g>
<!-- Node7 -->
<g id="Node000007" class="node">
<title>Node7</title>
<g id="a_Node000007"><a xlink:href="cosmo_8c.html#a6341f5394ed17a00dc77c5519b292ae3" target="_top" xlink:title=" ">
<polygon fill="white" stroke="#666666" points="699,-74 606,-74 606,-55 699,-55 699,-74"/>
<text text-anchor="middle" x="652.5" y="-62" font-family="Helvetica,sans-Serif" font-size="10.00">my_spline_eval</text>
</a>
</g>
</g>
<!-- Node6&#45;&gt;Node7 -->
<g id="edge6_Node000006_Node000007" class="edge">
<title>Node6&#45;&gt;Node7</title>
<g id="a_edge6_Node000006_Node000007"><a xlink:title=" ">
<path fill="none" stroke="#63b8ff" d="M570.3,-64.5C578.6,-64.5 587.22,-64.5 595.6,-64.5"/>
<polygon fill="#63b8ff" stroke="#63b8ff" points="595.68,-68 605.68,-64.5 595.68,-61 595.68,-68"/>
</a>
</g>
</g>
<!-- Node8&#45;&gt;Node6 -->
<g id="edge8_Node000008_Node000006" class="edge">
<title>Node8&#45;&gt;Node6</title>
<g id="a_edge8_Node000008_Node000006"><a xlink:title=" ">
<path fill="none" stroke="#63b8ff" d="M423.72,-76.37C433.84,-75.08 444.46,-73.72 454.74,-72.4"/>
<polygon fill="#63b8ff" stroke="#63b8ff" points="455.41,-75.84 464.88,-71.1 454.52,-68.9 455.41,-75.84"/>
</a>
</g>
</g>
<!-- Node9&#45;&gt;Node6 -->
<g id="edge10_Node000009_Node000006" class="edge">
<title>Node9&#45;&gt;Node6</title>
<g id="a_edge10_Node000009_Node000006"><a xlink:title=" ">
<path fill="none" stroke="#63b8ff" d="M429.26,-53.93C437.66,-54.94 446.3,-55.99 454.72,-57.01"/>
<polygon fill="#63b8ff" stroke="#63b8ff" points="454.49,-60.51 464.84,-58.24 455.34,-53.56 454.49,-60.51"/>
</a>
</g>
</g>
<!-- Node10&#45;&gt;Node6 -->
<g id="edge12_Node000010_Node000006" class="edge">
<title>Node10&#45;&gt;Node6</title>
<g id="a_edge12_Node000010_Node000006"><a xlink:title=" ">
<path fill="none" stroke="#63b8ff" d="M400.47,-19.03C409.74,-21.91 419.82,-25.19 429,-28.5 447.99,-35.35 468.91,-43.92 485.53,-50.98"/>
<polygon fill="#63b8ff" stroke="#63b8ff" points="484.2,-54.22 494.77,-54.93 486.96,-47.78 484.2,-54.22"/>
</a>
</g>
</g>
<!-- Node11&#45;&gt;Node4 -->
<g id="edge14_Node000011_Node000004" class="edge">
<title>Node11&#45;&gt;Node4</title>
<g id="a_edge14_Node000011_Node000004"><a xlink:title=" ">
<path fill="none" stroke="#63b8ff" d="M161.68,-51.85C170.17,-53.36 179.59,-55.03 188.72,-56.65"/>
<polygon fill="#63b8ff" stroke="#63b8ff" points="188.39,-60.14 198.84,-58.44 189.61,-53.25 188.39,-60.14"/>
</a>
</g>
</g>
</g>
</svg>
