<?xml version="1.0" encoding="UTF-8" standalone="no"?>
<!DOCTYPE svg PUBLIC "-//W3C//DTD SVG 1.1//EN"
 "http://www.w3.org/Graphics/SVG/1.1/DTD/svg11.dtd">
<!-- Generated by graphviz version 2.43.0 (0)
 -->
<!-- Title: write_LPT_snapshot Pages: 1 -->
<svg width="659pt" height="325pt"
 viewBox="0.00 0.00 659.00 325.00" xmlns="http://www.w3.org/2000/svg" xmlns:xlink="http://www.w3.org/1999/xlink">
<g id="graph0" class="graph" transform="scale(1 1) rotate(0) translate(4 321)">
<title>write_LPT_snapshot</title>
<!-- Node1 -->
<g id="Node000001" class="node">
<title>Node1</title>
<g id="a_Node000001"><a xlink:title=" ">
<polygon fill="#999999" stroke="#666666" points="113,-169 0,-169 0,-150 113,-150 113,-169"/>
<text text-anchor="middle" x="56.5" y="-157" font-family="Helvetica,sans-Serif" font-size="10.00">write_LPT_snapshot</text>
</a>
</g>
</g>
<!-- Node2 -->
<g id="Node000002" class="node">
<title>Node2</title>
<g id="a_Node000002"><a xlink:href="write__snapshot_8c.html#afd4a5dd053ee9721839542a30b752cf0" target="_top" xlink:title=" ">
<polygon fill="white" stroke="#666666" points="234.5,-317 160.5,-317 160.5,-298 234.5,-298 234.5,-317"/>
<text text-anchor="middle" x="197.5" y="-305" font-family="Helvetica,sans-Serif" font-size="10.00">add_to_info</text>
</a>
</g>
</g>
<!-- Node1&#45;&gt;Node2 -->
<g id="edge1_Node000001_Node000002" class="edge">
<title>Node1&#45;&gt;Node2</title>
<g id="a_edge1_Node000001_Node000002"><a xlink:title=" ">
<path fill="none" stroke="#63b8ff" d="M61.79,-169.14C72.83,-192.93 104.52,-254.99 149,-289.5 150.75,-290.86 152.62,-292.13 154.57,-293.31"/>
<polygon fill="#63b8ff" stroke="#63b8ff" points="152.96,-296.42 163.45,-297.93 156.2,-290.21 152.96,-296.42"/>
</a>
</g>
</g>
<!-- Node4 -->
<g id="Node000004" class="node">
<title>Node4</title>
<g id="a_Node000004"><a xlink:href="fmax_8c.html#a76000ea6ddfd81a9d6cf317d53f54378" target="_top" xlink:title=" ">
<polygon fill="white" stroke="#666666" points="352.5,-76 310.5,-76 310.5,-57 352.5,-57 352.5,-76"/>
<text text-anchor="middle" x="331.5" y="-64" font-family="Helvetica,sans-Serif" font-size="10.00">fdate</text>
</a>
</g>
</g>
<!-- Node1&#45;&gt;Node4 -->
<g id="edge3_Node000001_Node000004" class="edge">
<title>Node1&#45;&gt;Node4</title>
<g id="a_edge3_Node000001_Node000004"><a xlink:title=" ">
<path fill="none" stroke="#63b8ff" d="M63.28,-149.71C75.85,-129.52 107.85,-83.74 149,-66.5 198.73,-45.66 263.07,-52.68 300.27,-59.63"/>
<polygon fill="#63b8ff" stroke="#63b8ff" points="299.96,-63.13 310.45,-61.65 301.33,-56.27 299.96,-63.13"/>
</a>
</g>
</g>
<!-- Node5 -->
<g id="Node000005" class="node">
<title>Node5</title>
<g id="a_Node000005"><a xlink:href="write__snapshot_8c.html#a3b6ec588cd6a244d1381933c4b130628" target="_top" xlink:title=" ">
<polygon fill="white" stroke="#666666" points="231.5,-19 163.5,-19 163.5,0 231.5,0 231.5,-19"/>
<text text-anchor="middle" x="197.5" y="-7" font-family="Helvetica,sans-Serif" font-size="10.00">free_block</text>
</a>
</g>
</g>
<!-- Node1&#45;&gt;Node5 -->
<g id="edge4_Node000001_Node000005" class="edge">
<title>Node1&#45;&gt;Node5</title>
<g id="a_edge4_Node000001_Node000005"><a xlink:title=" ">
<path fill="none" stroke="#63b8ff" d="M62.45,-149.77C74.49,-126.88 107.42,-68.9 149,-33.5 153.22,-29.91 158.07,-26.68 163.03,-23.84"/>
<polygon fill="#63b8ff" stroke="#63b8ff" points="164.71,-26.91 171.94,-19.17 161.46,-20.71 164.71,-26.91"/>
</a>
</g>
</g>
<!-- Node6 -->
<g id="Node000006" class="node">
<title>Node6</title>
<g id="a_Node000006"><a xlink:href="write__snapshot_8c.html#afa82e3a96bc195a8664fc3bd30ccb86a" target="_top" xlink:title=" ">
<polygon fill="white" stroke="#666666" points="234.5,-280 160.5,-280 160.5,-261 234.5,-261 234.5,-280"/>
<text text-anchor="middle" x="197.5" y="-268" font-family="Helvetica,sans-Serif" font-size="10.00">initialize_ID</text>
</a>
</g>
</g>
<!-- Node1&#45;&gt;Node6 -->
<g id="edge5_Node000001_Node000006" class="edge">
<title>Node1&#45;&gt;Node6</title>
<g id="a_edge5_Node000001_Node000006"><a xlink:title=" ">
<path fill="none" stroke="#63b8ff" d="M64.74,-169.29C78.97,-187.89 112.38,-228.62 149,-252.5 151.28,-253.98 153.69,-255.37 156.18,-256.67"/>
<polygon fill="#63b8ff" stroke="#63b8ff" points="154.86,-259.91 165.4,-260.94 157.8,-253.56 154.86,-259.91"/>
</a>
</g>
</g>
<!-- Node7 -->
<g id="Node000007" class="node">
<title>Node7</title>
<g id="a_Node000007"><a xlink:href="write__snapshot_8c.html#a6bb3d06014857a033da0cd90d4e9737d" target="_top" xlink:title=" ">
<polygon fill="white" stroke="#666666" points="239,-243 156,-243 156,-224 239,-224 239,-243"/>
<text text-anchor="middle" x="197.5" y="-231" font-family="Helvetica,sans-Serif" font-size="10.00">initialize_POS</text>
</a>
</g>
</g>
<!-- Node1&#45;&gt;Node7 -->
<g id="edge7_Node000001_Node000007" class="edge">
<title>Node1&#45;&gt;Node7</title>
<g id="a_edge7_Node000001_Node000007"><a xlink:title=" ">
<path fill="none" stroke="#63b8ff" d="M71.3,-169.08C88.82,-180.97 120.24,-201.4 149,-215.5 152.32,-217.13 155.83,-218.71 159.38,-220.21"/>
<polygon fill="#63b8ff" stroke="#63b8ff" points="158.17,-223.49 168.75,-223.98 160.78,-217 158.17,-223.49"/>
</a>
</g>
</g>
<!-- Node8 -->
<g id="Node000008" class="node">
<title>Node8</title>
<g id="a_Node000008"><a xlink:href="write__snapshot_8c.html#a98560c17ca241d13c44b9358a7723d00" target="_top" xlink:title=" ">
<polygon fill="white" stroke="#666666" points="238.5,-206 156.5,-206 156.5,-187 238.5,-187 238.5,-206"/>
<text text-anchor="middle" x="197.5" y="-194" font-family="Helvetica,sans-Serif" font-size="10.00">initialize_VEL</text>
</a>
</g>
</g>
<!-- Node1&#45;&gt;Node8 -->
<g id="edge9_Node000001_Node000008" class="edge">
<title>Node1&#45;&gt;Node8</title>
<g id="a_edge9_Node000001_Node000008"><a xlink:title=" ">
<path fill="none" stroke="#63b8ff" d="M93.3,-169.03C110.75,-173.67 131.95,-179.32 150.58,-184.28"/>
<polygon fill="#63b8ff" stroke="#63b8ff" points="149.78,-187.69 160.34,-186.88 151.58,-180.92 149.78,-187.69"/>
</a>
</g>
</g>
<!-- Node13 -->
<g id="Node000013" class="node">
<title>Node13</title>
<g id="a_Node000013"><a xlink:href="write__snapshot_8c.html#a711256cfa01b2ba891fc2adb44006be7" target="_top" xlink:title=" ">
<polygon fill="white" stroke="#666666" points="234,-132 161,-132 161,-113 234,-113 234,-132"/>
<text text-anchor="middle" x="197.5" y="-120" font-family="Helvetica,sans-Serif" font-size="10.00">write_block</text>
</a>
</g>
</g>
<!-- Node1&#45;&gt;Node13 -->
<g id="edge16_Node000001_Node000013" class="edge">
<title>Node1&#45;&gt;Node13</title>
<g id="a_edge16_Node000001_Node000013"><a xlink:title=" ">
<path fill="none" stroke="#63b8ff" d="M93.3,-149.97C110.89,-145.29 132.28,-139.59 151.02,-134.61"/>
<polygon fill="#63b8ff" stroke="#63b8ff" points="152.06,-137.95 160.83,-132 150.26,-131.19 152.06,-137.95"/>
</a>
</g>
</g>
<!-- Node15 -->
<g id="Node000015" class="node">
<title>Node15</title>
<g id="a_Node000015"><a xlink:href="write__snapshot_8c.html#a94f250d7a85d1c00ba065f7efd221912" target="_top" xlink:title=" ">
<polygon fill="white" stroke="#666666" points="237.5,-95 157.5,-95 157.5,-76 237.5,-76 237.5,-95"/>
<text text-anchor="middle" x="197.5" y="-83" font-family="Helvetica,sans-Serif" font-size="10.00">write_header</text>
</a>
</g>
</g>
<!-- Node1&#45;&gt;Node15 -->
<g id="edge18_Node000001_Node000015" class="edge">
<title>Node1&#45;&gt;Node15</title>
<g id="a_edge18_Node000001_Node000015"><a xlink:title=" ">
<path fill="none" stroke="#63b8ff" d="M71.67,-150C89.32,-138.4 120.61,-118.59 149,-104.5 152.85,-102.59 156.94,-100.72 161.04,-98.95"/>
<polygon fill="#63b8ff" stroke="#63b8ff" points="162.64,-102.08 170.53,-95.01 159.95,-95.61 162.64,-102.08"/>
</a>
</g>
</g>
<!-- Node16 -->
<g id="Node000016" class="node">
<title>Node16</title>
<g id="a_Node000016"><a xlink:href="write__snapshot_8c.html#a3c9df4707b30f92866f3fc1cda9f22f9" target="_top" xlink:title=" ">
<polygon fill="white" stroke="#666666" points="246,-169 149,-169 149,-150 246,-150 246,-169"/>
<text text-anchor="middle" x="197.5" y="-157" font-family="Helvetica,sans-Serif" font-size="10.00">write_info_block</text>
</a>
</g>
</g>
<!-- Node1&#45;&gt;Node16 -->
<g id="edge21_Node000001_Node000016" class="edge">
<title>Node1&#45;&gt;Node16</title>
<g id="a_edge21_Node000001_Node000016"><a xlink:title=" ">
<path fill="none" stroke="#63b8ff" d="M113.24,-159.5C121.61,-159.5 130.27,-159.5 138.69,-159.5"/>
<polygon fill="#63b8ff" stroke="#63b8ff" points="138.8,-163 148.8,-159.5 138.8,-156 138.8,-163"/>
</a>
</g>
</g>
<!-- Node3 -->
<g id="Node000003" class="node">
<title>Node3</title>
<g id="a_Node000003"><a xlink:href="write__snapshot_8c.html#a62b36bedb5cc2a2701699d5d6971840a" target="_top" xlink:title=" ">
<polygon fill="white" stroke="#666666" points="365.5,-244 297.5,-244 297.5,-225 365.5,-225 365.5,-244"/>
<text text-anchor="middle" x="331.5" y="-232" font-family="Helvetica,sans-Serif" font-size="10.00">my_strcpy</text>
</a>
</g>
</g>
<!-- Node2&#45;&gt;Node3 -->
<g id="edge2_Node000002_Node000003" class="edge">
<title>Node2&#45;&gt;Node3</title>
<g id="a_edge2_Node000002_Node000003"><a xlink:title=" ">
<path fill="none" stroke="#63b8ff" d="M226.81,-297.91C233.23,-295.43 239.94,-292.57 246,-289.5 268.52,-278.07 292.5,-262.05 309.13,-250.25"/>
<polygon fill="#63b8ff" stroke="#63b8ff" points="311.49,-252.87 317.57,-244.18 307.41,-247.18 311.49,-252.87"/>
</a>
</g>
</g>
<!-- Node6&#45;&gt;Node3 -->
<g id="edge6_Node000006_Node000003" class="edge">
<title>Node6&#45;&gt;Node3</title>
<g id="a_edge6_Node000006_Node000003"><a xlink:title=" ">
<path fill="none" stroke="#63b8ff" d="M233.53,-260.95C250,-256.45 269.8,-251.05 287.2,-246.31"/>
<polygon fill="#63b8ff" stroke="#63b8ff" points="288.4,-249.61 297.13,-243.6 286.56,-242.86 288.4,-249.61"/>
</a>
</g>
</g>
<!-- Node7&#45;&gt;Node3 -->
<g id="edge8_Node000007_Node000003" class="edge">
<title>Node7&#45;&gt;Node3</title>
<g id="a_edge8_Node000007_Node000003"><a xlink:title=" ">
<path fill="none" stroke="#63b8ff" d="M239.18,-233.81C254.32,-233.92 271.56,-234.05 286.95,-234.17"/>
<polygon fill="#63b8ff" stroke="#63b8ff" points="287.23,-237.67 297.26,-234.25 287.28,-230.67 287.23,-237.67"/>
</a>
</g>
</g>
<!-- Node8&#45;&gt;Node3 -->
<g id="edge15_Node000008_Node000003" class="edge">
<title>Node8&#45;&gt;Node3</title>
<g id="a_edge15_Node000008_Node000003"><a xlink:title=" ">
<path fill="none" stroke="#63b8ff" d="M231.81,-206.09C248.69,-210.95 269.39,-216.91 287.47,-222.11"/>
<polygon fill="#63b8ff" stroke="#63b8ff" points="286.62,-225.51 297.2,-224.91 288.56,-218.78 286.62,-225.51"/>
</a>
</g>
</g>
<!-- Node9 -->
<g id="Node000009" class="node">
<title>Node9</title>
<g id="a_Node000009"><a xlink:href="cosmo_8c.html#a395fdee07918e6b1298b2002d37aab7f" target="_top" xlink:title=" ">
<polygon fill="white" stroke="#666666" points="358.5,-168 304.5,-168 304.5,-149 358.5,-149 358.5,-168"/>
<text text-anchor="middle" x="331.5" y="-156" font-family="Helvetica,sans-Serif" font-size="10.00">fomega</text>
</a>
</g>
</g>
<!-- Node8&#45;&gt;Node9 -->
<g id="edge10_Node000008_Node000009" class="edge">
<title>Node8&#45;&gt;Node9</title>
<g id="a_edge10_Node000008_Node000009"><a xlink:title=" ">
<path fill="none" stroke="#63b8ff" d="M231.81,-186.91C250.93,-181.41 274.95,-174.49 294.5,-168.86"/>
<polygon fill="#63b8ff" stroke="#63b8ff" points="295.63,-172.18 304.27,-166.05 293.7,-165.45 295.63,-172.18"/>
</a>
</g>
</g>
<!-- Node12 -->
<g id="Node000012" class="node">
<title>Node12</title>
<g id="a_Node000012"><a xlink:href="cosmo_8c.html#a911e9ce363c4662ce531c65885519f7a" target="_top" xlink:title=" ">
<polygon fill="white" stroke="#666666" points="495,-205 444,-205 444,-186 495,-186 495,-205"/>
<text text-anchor="middle" x="469.5" y="-193" font-family="Helvetica,sans-Serif" font-size="10.00">Hubble</text>
</a>
</g>
</g>
<!-- Node8&#45;&gt;Node12 -->
<g id="edge13_Node000008_Node000012" class="edge">
<title>Node8&#45;&gt;Node12</title>
<g id="a_edge13_Node000008_Node000012"><a xlink:title=" ">
<path fill="none" stroke="#63b8ff" d="M238.63,-196.35C291.57,-196.16 383.86,-195.81 433.89,-195.63"/>
<polygon fill="#63b8ff" stroke="#63b8ff" points="433.9,-199.13 443.89,-195.59 433.88,-192.13 433.9,-199.13"/>
</a>
</g>
</g>
<!-- Node10 -->
<g id="Node000010" class="node">
<title>Node10</title>
<g id="a_Node000010"><a xlink:href="cosmo_8c.html#a8847e5b8ea1f9c458c8bf9e5f36837a9" target="_top" xlink:title=" ">
<polygon fill="white" stroke="#666666" points="522,-168 417,-168 417,-149 522,-149 522,-168"/>
<text text-anchor="middle" x="469.5" y="-156" font-family="Helvetica,sans-Serif" font-size="10.00">InterpolateGrowth</text>
</a>
</g>
</g>
<!-- Node9&#45;&gt;Node10 -->
<g id="edge11_Node000009_Node000010" class="edge">
<title>Node9&#45;&gt;Node10</title>
<g id="a_edge11_Node000009_Node000010"><a xlink:title=" ">
<path fill="none" stroke="#63b8ff" d="M358.72,-158.5C372.34,-158.5 389.6,-158.5 406.38,-158.5"/>
<polygon fill="#63b8ff" stroke="#63b8ff" points="406.73,-162 416.73,-158.5 406.73,-155 406.73,-162"/>
</a>
</g>
</g>
<!-- Node11 -->
<g id="Node000011" class="node">
<title>Node11</title>
<g id="a_Node000011"><a xlink:href="cosmo_8c.html#a6341f5394ed17a00dc77c5519b292ae3" target="_top" xlink:title=" ">
<polygon fill="white" stroke="#666666" points="651,-186 558,-186 558,-167 651,-167 651,-186"/>
<text text-anchor="middle" x="604.5" y="-174" font-family="Helvetica,sans-Serif" font-size="10.00">my_spline_eval</text>
</a>
</g>
</g>
<!-- Node10&#45;&gt;Node11 -->
<g id="edge12_Node000010_Node000011" class="edge">
<title>Node10&#45;&gt;Node11</title>
<g id="a_edge12_Node000010_Node000011"><a xlink:title=" ">
<path fill="none" stroke="#63b8ff" d="M522.3,-165.51C530.6,-166.63 539.22,-167.8 547.6,-168.94"/>
<polygon fill="#63b8ff" stroke="#63b8ff" points="547.3,-172.43 557.68,-170.3 548.24,-165.49 547.3,-172.43"/>
</a>
</g>
</g>
<!-- Node12&#45;&gt;Node11 -->
<g id="edge14_Node000012_Node000011" class="edge">
<title>Node12&#45;&gt;Node11</title>
<g id="a_edge14_Node000012_Node000011"><a xlink:title=" ">
<path fill="none" stroke="#63b8ff" d="M495.2,-191.97C510.04,-189.85 529.53,-187.07 547.89,-184.44"/>
<polygon fill="#63b8ff" stroke="#63b8ff" points="548.53,-187.89 557.94,-183.01 547.54,-180.96 548.53,-187.89"/>
</a>
</g>
</g>
<!-- Node14 -->
<g id="Node000014" class="node">
<title>Node14</title>
<g id="a_Node000014"><a xlink:href="write__snapshot_8c.html#a2aab4fd18379080332681b91e935f88a" target="_top" xlink:title=" ">
<polygon fill="white" stroke="#666666" points="381,-131 282,-131 282,-112 381,-112 381,-131"/>
<text text-anchor="middle" x="331.5" y="-119" font-family="Helvetica,sans-Serif" font-size="10.00">WriteBlockName</text>
</a>
</g>
</g>
<!-- Node13&#45;&gt;Node14 -->
<g id="edge17_Node000013_Node000014" class="edge">
<title>Node13&#45;&gt;Node14</title>
<g id="a_edge17_Node000013_Node000014"><a xlink:title=" ">
<path fill="none" stroke="#63b8ff" d="M234.22,-122.23C245.79,-122.14 258.94,-122.04 271.73,-121.95"/>
<polygon fill="#63b8ff" stroke="#63b8ff" points="271.89,-125.44 281.86,-121.87 271.84,-118.44 271.89,-125.44"/>
</a>
</g>
</g>
<!-- Node15&#45;&gt;Node4 -->
<g id="edge19_Node000015_Node000004" class="edge">
<title>Node15&#45;&gt;Node4</title>
<g id="a_edge19_Node000015_Node000004"><a xlink:title=" ">
<path fill="none" stroke="#63b8ff" d="M237.75,-79.85C257.79,-76.97 281.79,-73.51 300.36,-70.84"/>
<polygon fill="#63b8ff" stroke="#63b8ff" points="300.92,-74.29 310.32,-69.4 299.92,-67.37 300.92,-74.29"/>
</a>
</g>
</g>
<!-- Node15&#45;&gt;Node14 -->
<g id="edge20_Node000015_Node000014" class="edge">
<title>Node15&#45;&gt;Node14</title>
<g id="a_edge20_Node000015_Node000014"><a xlink:title=" ">
<path fill="none" stroke="#63b8ff" d="M233.53,-95.05C249.49,-99.41 268.58,-104.61 285.58,-109.25"/>
<polygon fill="#63b8ff" stroke="#63b8ff" points="284.74,-112.65 295.31,-111.9 286.58,-105.89 284.74,-112.65"/>
</a>
</g>
</g>
<!-- Node16&#45;&gt;Node3 -->
<g id="edge22_Node000016_Node000003" class="edge">
<title>Node16&#45;&gt;Node3</title>
<g id="a_edge22_Node000016_Node000003"><a xlink:title=" ">
<path fill="none" stroke="#63b8ff" d="M225.07,-169.01C232.01,-171.8 239.39,-175.04 246,-178.5 268.62,-190.36 292.75,-206.77 309.41,-218.76"/>
<polygon fill="#63b8ff" stroke="#63b8ff" points="307.7,-221.84 317.84,-224.91 311.82,-216.19 307.7,-221.84"/>
</a>
</g>
</g>
<!-- Node16&#45;&gt;Node14 -->
<g id="edge23_Node000016_Node000014" class="edge">
<title>Node16&#45;&gt;Node14</title>
<g id="a_edge23_Node000016_Node000014"><a xlink:title=" ">
<path fill="none" stroke="#63b8ff" d="M231.81,-149.91C248.69,-145.05 269.39,-139.09 287.47,-133.89"/>
<polygon fill="#63b8ff" stroke="#63b8ff" points="288.56,-137.22 297.2,-131.09 286.62,-130.49 288.56,-137.22"/>
</a>
</g>
</g>
</g>
</svg>
