<?xml version="1.0" encoding="UTF-8" standalone="no"?>
<!DOCTYPE svg PUBLIC "-//W3C//DTD SVG 1.1//EN"
 "http://www.w3.org/Graphics/SVG/1.1/DTD/svg11.dtd">
<!-- Generated by graphviz version 2.43.0 (0)
 -->
<!-- Title: set_subboxes Pages: 1 -->
<svg width="679pt" height="263pt"
 viewBox="0.00 0.00 679.00 263.05" xmlns="http://www.w3.org/2000/svg" xmlns:xlink="http://www.w3.org/1999/xlink">
<g id="graph0" class="graph" transform="scale(1 1) rotate(0) translate(4 259.05)">
<title>set_subboxes</title>
<!-- Node1 -->
<g id="Node000001" class="node">
<title>Node1</title>
<g id="a_Node000001"><a xlink:title=" ">
<polygon fill="#999999" stroke="#666666" points="83,-93 0,-93 0,-74 83,-74 83,-93"/>
<text text-anchor="middle" x="41.5" y="-81" font-family="Helvetica,sans-Serif" font-size="10.00">set_subboxes</text>
</a>
</g>
</g>
<!-- Node2 -->
<g id="Node000002" class="node">
<title>Node2</title>
<g id="a_Node000002"><a xlink:href="cosmo_8c.html#a3e2faa009164fa657b79bf92bbfbb407" target="_top" xlink:title=" ">
<polygon fill="white" stroke="#666666" points="248,-188 125,-188 125,-169 248,-169 248,-188"/>
<text text-anchor="middle" x="186.5" y="-176" font-family="Helvetica,sans-Serif" font-size="10.00">AnalyticMassFunction</text>
</a>
</g>
</g>
<!-- Node1&#45;&gt;Node2 -->
<g id="edge1_Node000001_Node000002" class="edge">
<title>Node1&#45;&gt;Node2</title>
<g id="a_edge1_Node000001_Node000002"><a xlink:title=" ">
<path fill="none" stroke="#63b8ff" d="M56.53,-93.18C71.83,-103.7 97.05,-120.95 119,-135.5 133.11,-144.85 149.03,-155.16 161.75,-163.33"/>
<polygon fill="#63b8ff" stroke="#63b8ff" points="160.07,-166.41 170.38,-168.86 163.85,-160.52 160.07,-166.41"/>
</a>
</g>
</g>
<!-- Node9 -->
<g id="Node000009" class="node">
<title>Node9</title>
<g id="a_Node000009"><a xlink:href="cosmo_8c.html#a66b5b059ca665289d407e13f98e6ff9a" target="_top" xlink:title=" ">
<polygon fill="white" stroke="#666666" points="384,-121 307,-121 307,-102 384,-102 384,-121"/>
<text text-anchor="middle" x="345.5" y="-109" font-family="Helvetica,sans-Serif" font-size="10.00">SizeForMass</text>
</a>
</g>
</g>
<!-- Node1&#45;&gt;Node9 -->
<g id="edge14_Node000001_Node000009" class="edge">
<title>Node1&#45;&gt;Node9</title>
<g id="a_edge14_Node000001_Node000009"><a xlink:title=" ">
<path fill="none" stroke="#63b8ff" d="M76.9,-93.04C89.98,-96.28 105.08,-99.57 119,-101.5 179.86,-109.93 250.76,-111.79 296.57,-111.96"/>
<polygon fill="#63b8ff" stroke="#63b8ff" points="296.8,-115.46 306.8,-111.97 296.8,-108.46 296.8,-115.46"/>
</a>
</g>
</g>
<!-- Node10 -->
<g id="Node000010" class="node">
<title>Node10</title>
<g id="a_Node000010"><a xlink:href="initialization_8c.html#aec1f15f894c9438c327bea44bbf0dd07" target="_top" xlink:title=" ">
<polygon fill="white" stroke="#666666" points="222,-93 151,-93 151,-74 222,-74 222,-93"/>
<text text-anchor="middle" x="186.5" y="-81" font-family="Helvetica,sans-Serif" font-size="10.00">find_length</text>
</a>
</g>
</g>
<!-- Node1&#45;&gt;Node10 -->
<g id="edge11_Node000001_Node000010" class="edge">
<title>Node1&#45;&gt;Node10</title>
<g id="a_edge11_Node000001_Node000010"><a xlink:title=" ">
<path fill="none" stroke="#63b8ff" d="M83.1,-83.5C100.99,-83.5 122.08,-83.5 140.45,-83.5"/>
<polygon fill="#63b8ff" stroke="#63b8ff" points="140.63,-87 150.63,-83.5 140.63,-80 140.63,-87"/>
</a>
</g>
</g>
<!-- Node11 -->
<g id="Node000011" class="node">
<title>Node11</title>
<g id="a_Node000011"><a xlink:href="initialization_8c.html#ab7a56be3865a96926f2ae44ec672fd89" target="_top" xlink:title=" ">
<polygon fill="white" stroke="#666666" points="217.5,-56 155.5,-56 155.5,-37 217.5,-37 217.5,-56"/>
<text text-anchor="middle" x="186.5" y="-44" font-family="Helvetica,sans-Serif" font-size="10.00">find_start</text>
</a>
</g>
</g>
<!-- Node1&#45;&gt;Node11 -->
<g id="edge12_Node000001_Node000011" class="edge">
<title>Node1&#45;&gt;Node11</title>
<g id="a_edge12_Node000001_Node000011"><a xlink:title=" ">
<path fill="none" stroke="#63b8ff" d="M79.33,-73.97C99.52,-68.75 124.59,-62.26 145.3,-56.9"/>
<polygon fill="#63b8ff" stroke="#63b8ff" points="146.27,-60.27 155.07,-54.37 144.51,-53.49 146.27,-60.27"/>
</a>
</g>
</g>
<!-- Node12 -->
<g id="Node000012" class="node">
<title>Node12</title>
<g id="a_Node000012"><a xlink:href="allocations_8c.html#acdee6a9900e1b6cb341011445b640145" target="_top" xlink:title=" ">
<polygon fill="white" stroke="#666666" points="254,-19 119,-19 119,0 254,0 254,-19"/>
<text text-anchor="middle" x="186.5" y="-7" font-family="Helvetica,sans-Serif" font-size="10.00">organize_main_memory</text>
</a>
</g>
</g>
<!-- Node1&#45;&gt;Node12 -->
<g id="edge13_Node000001_Node000012" class="edge">
<title>Node1&#45;&gt;Node12</title>
<g id="a_edge13_Node000001_Node000012"><a xlink:title=" ">
<path fill="none" stroke="#63b8ff" d="M53.07,-73.76C67.12,-61.32 93.19,-39.91 119,-27.5 122.99,-25.58 127.21,-23.84 131.52,-22.27"/>
<polygon fill="#63b8ff" stroke="#63b8ff" points="132.66,-25.58 141.03,-19.09 130.44,-18.94 132.66,-25.58"/>
</a>
</g>
</g>
<!-- Node3 -->
<g id="Node000003" class="node">
<title>Node3</title>
<g id="a_Node000003"><a xlink:href="cosmo_8c.html#a7e6c85650740115e3cf73cca408cfc5a" target="_top" xlink:title=" ">
<polygon fill="white" stroke="#666666" points="542,-253 437,-253 437,-234 542,-234 542,-253"/>
<text text-anchor="middle" x="489.5" y="-241" font-family="Helvetica,sans-Serif" font-size="10.00">dMassVariance_dr</text>
</a>
</g>
</g>
<!-- Node2&#45;&gt;Node3 -->
<g id="edge2_Node000002_Node000003" class="edge">
<title>Node2&#45;&gt;Node3</title>
<g id="a_edge2_Node000002_Node000003"><a xlink:title=" ">
<path fill="none" stroke="#63b8ff" d="M198.14,-188.22C215.71,-203.53 252.56,-232.63 290,-243.5 334.45,-256.41 386.9,-255.77 426.71,-252.25"/>
<polygon fill="#63b8ff" stroke="#63b8ff" points="427.2,-255.72 436.81,-251.27 426.52,-248.75 427.2,-255.72"/>
</a>
</g>
</g>
<!-- Node5 -->
<g id="Node000005" class="node">
<title>Node5</title>
<g id="a_Node000005"><a xlink:href="cosmo_8c.html#a673892897db42773951bd46f397f914b" target="_top" xlink:title=" ">
<polygon fill="white" stroke="#666666" points="401,-234 290,-234 290,-215 401,-215 401,-234"/>
<text text-anchor="middle" x="345.5" y="-222" font-family="Helvetica,sans-Serif" font-size="10.00">dOmega_dVariance</text>
</a>
</g>
</g>
<!-- Node2&#45;&gt;Node5 -->
<g id="edge4_Node000002_Node000005" class="edge">
<title>Node2&#45;&gt;Node5</title>
<g id="a_edge4_Node000002_Node000005"><a xlink:title=" ">
<path fill="none" stroke="#63b8ff" d="M220.03,-188.03C243.82,-195 276.3,-204.52 302.12,-212.08"/>
<polygon fill="#63b8ff" stroke="#63b8ff" points="301.43,-215.53 312.01,-214.98 303.4,-208.81 301.43,-215.53"/>
</a>
</g>
</g>
<!-- Node6 -->
<g id="Node000006" class="node">
<title>Node6</title>
<g id="a_Node000006"><a xlink:href="cosmo_8c.html#a9fbcf5b69c272e801cf320cf814b23c4" target="_top" xlink:title=" ">
<polygon fill="white" stroke="#666666" points="387.5,-197 303.5,-197 303.5,-178 387.5,-178 387.5,-197"/>
<text text-anchor="middle" x="345.5" y="-185" font-family="Helvetica,sans-Serif" font-size="10.00">GrowingMode</text>
</a>
</g>
</g>
<!-- Node2&#45;&gt;Node6 -->
<g id="edge5_Node000002_Node000006" class="edge">
<title>Node2&#45;&gt;Node6</title>
<g id="a_edge5_Node000002_Node000006"><a xlink:title=" ">
<path fill="none" stroke="#63b8ff" d="M248.2,-181.98C263.06,-182.83 278.82,-183.73 293.19,-184.56"/>
<polygon fill="#63b8ff" stroke="#63b8ff" points="293.19,-188.06 303.37,-185.14 293.59,-181.08 293.19,-188.06"/>
</a>
</g>
</g>
<!-- Node8 -->
<g id="Node000008" class="node">
<title>Node8</title>
<g id="a_Node000008"><a xlink:href="cosmo_8c.html#aa47020606869257e46b3a4f9071504d0" target="_top" xlink:title=" ">
<polygon fill="white" stroke="#666666" points="531.5,-160 447.5,-160 447.5,-141 531.5,-141 531.5,-160"/>
<text text-anchor="middle" x="489.5" y="-148" font-family="Helvetica,sans-Serif" font-size="10.00">MassVariance</text>
</a>
</g>
</g>
<!-- Node2&#45;&gt;Node8 -->
<g id="edge8_Node000002_Node000008" class="edge">
<title>Node2&#45;&gt;Node8</title>
<g id="a_edge8_Node000002_Node000008"><a xlink:title=" ">
<path fill="none" stroke="#63b8ff" d="M248.05,-172.87C303.58,-167.7 384.9,-160.14 437.28,-155.27"/>
<polygon fill="#63b8ff" stroke="#63b8ff" points="437.71,-158.74 447.35,-154.33 437.07,-151.77 437.71,-158.74"/>
</a>
</g>
</g>
<!-- Node2&#45;&gt;Node9 -->
<g id="edge10_Node000002_Node000009" class="edge">
<title>Node2&#45;&gt;Node9</title>
<g id="a_edge10_Node000002_Node000009"><a xlink:title=" ">
<path fill="none" stroke="#63b8ff" d="M209.99,-168.9C236.93,-157.41 282.21,-138.08 312.71,-125.07"/>
<polygon fill="#63b8ff" stroke="#63b8ff" points="314.22,-128.23 322.05,-121.08 311.48,-121.79 314.22,-128.23"/>
</a>
</g>
</g>
<!-- Node4 -->
<g id="Node000004" class="node">
<title>Node4</title>
<g id="a_Node000004"><a xlink:href="cosmo_8c.html#a6341f5394ed17a00dc77c5519b292ae3" target="_top" xlink:title=" ">
<polygon fill="white" stroke="#666666" points="671,-197 578,-197 578,-178 671,-178 671,-197"/>
<text text-anchor="middle" x="624.5" y="-185" font-family="Helvetica,sans-Serif" font-size="10.00">my_spline_eval</text>
</a>
</g>
</g>
<!-- Node3&#45;&gt;Node4 -->
<g id="edge3_Node000003_Node000004" class="edge">
<title>Node3&#45;&gt;Node4</title>
<g id="a_edge3_Node000003_Node000004"><a xlink:title=" ">
<path fill="none" stroke="#63b8ff" d="M513.36,-233.87C534.9,-224.8 567.38,-211.13 591.5,-200.98"/>
<polygon fill="#63b8ff" stroke="#63b8ff" points="593.08,-204.11 600.93,-197 590.36,-197.66 593.08,-204.11"/>
</a>
</g>
</g>
<!-- Node7 -->
<g id="Node000007" class="node">
<title>Node7</title>
<g id="a_Node000007"><a xlink:href="cosmo_8c.html#a8847e5b8ea1f9c458c8bf9e5f36837a9" target="_top" xlink:title=" ">
<polygon fill="white" stroke="#666666" points="542,-197 437,-197 437,-178 542,-178 542,-197"/>
<text text-anchor="middle" x="489.5" y="-185" font-family="Helvetica,sans-Serif" font-size="10.00">InterpolateGrowth</text>
</a>
</g>
</g>
<!-- Node6&#45;&gt;Node7 -->
<g id="edge6_Node000006_Node000007" class="edge">
<title>Node6&#45;&gt;Node7</title>
<g id="a_edge6_Node000006_Node000007"><a xlink:title=" ">
<path fill="none" stroke="#63b8ff" d="M387.57,-187.5C399.84,-187.5 413.57,-187.5 426.86,-187.5"/>
<polygon fill="#63b8ff" stroke="#63b8ff" points="426.9,-191 436.9,-187.5 426.9,-184 426.9,-191"/>
</a>
</g>
</g>
<!-- Node7&#45;&gt;Node4 -->
<g id="edge7_Node000007_Node000004" class="edge">
<title>Node7&#45;&gt;Node4</title>
<g id="a_edge7_Node000007_Node000004"><a xlink:title=" ">
<path fill="none" stroke="#63b8ff" d="M542.3,-187.5C550.6,-187.5 559.22,-187.5 567.6,-187.5"/>
<polygon fill="#63b8ff" stroke="#63b8ff" points="567.68,-191 577.68,-187.5 567.68,-184 567.68,-191"/>
</a>
</g>
</g>
<!-- Node8&#45;&gt;Node4 -->
<g id="edge9_Node000008_Node000004" class="edge">
<title>Node8&#45;&gt;Node4</title>
<g id="a_edge9_Node000008_Node000004"><a xlink:title=" ">
<path fill="none" stroke="#63b8ff" d="M524.75,-160.03C541.22,-164.61 561.18,-170.16 578.82,-175.07"/>
<polygon fill="#63b8ff" stroke="#63b8ff" points="578.33,-178.57 588.9,-177.88 580.21,-171.82 578.33,-178.57"/>
</a>
</g>
</g>
</g>
</svg>
