<?xml version="1.0" encoding="UTF-8" standalone="no"?>
<!DOCTYPE svg PUBLIC "-//W3C//DTD SVG 1.1//EN"
 "http://www.w3.org/Graphics/SVG/1.1/DTD/svg11.dtd">
<!-- Generated by graphviz version 2.43.0 (0)
 -->
<!-- Title: InverseComovingDistance Pages: 1 -->
<svg width="427pt" height="46pt"
 viewBox="0.00 0.00 427.00 46.00" xmlns="http://www.w3.org/2000/svg" xmlns:xlink="http://www.w3.org/1999/xlink">
<g id="graph0" class="graph" transform="scale(1 1) rotate(0) translate(4 42)">
<title>InverseComovingDistance</title>
<!-- Node1 -->
<g id="Node000001" class="node">
<title>Node1</title>
<g id="a_Node000001"><a xlink:title=" ">
<polygon fill="#999999" stroke="#666666" points="145,-19 0,-19 0,0 145,0 145,-19"/>
<text text-anchor="middle" x="72.5" y="-7" font-family="Helvetica,sans-Serif" font-size="10.00">InverseComovingDistance</text>
</a>
</g>
</g>
<!-- Node2 -->
<g id="Node000002" class="node">
<title>Node2</title>
<g id="a_Node000002"><a xlink:href="cosmo_8c.html#aa3beda8770f3f4e1b00e486bb647edc5" target="_top" xlink:title=" ">
<polygon fill="white" stroke="#666666" points="290,-38 181,-38 181,-19 290,-19 290,-38"/>
<text text-anchor="middle" x="235.5" y="-26" font-family="Helvetica,sans-Serif" font-size="10.00">ComovingDistance</text>
</a>
</g>
</g>
<!-- Node1&#45;&gt;Node2 -->
<g id="edge1_Node000001_Node000002" class="edge">
<title>Node1&#45;&gt;Node2</title>
<g id="a_edge1_Node000001_Node000002"><a xlink:title=" ">
<path fill="none" stroke="#63b8ff" d="M145.05,-17.94C153.53,-18.94 162.15,-19.96 170.51,-20.95"/>
<polygon fill="#63b8ff" stroke="#63b8ff" points="170.22,-24.44 180.56,-22.13 171.04,-17.49 170.22,-24.44"/>
</a>
</g>
</g>
<!-- Node3 -->
<g id="Node000003" class="node">
<title>Node3</title>
<g id="a_Node000003"><a xlink:href="cosmo_8c.html#a6341f5394ed17a00dc77c5519b292ae3" target="_top" xlink:title=" ">
<polygon fill="white" stroke="#666666" points="419,-19 326,-19 326,0 419,0 419,-19"/>
<text text-anchor="middle" x="372.5" y="-7" font-family="Helvetica,sans-Serif" font-size="10.00">my_spline_eval</text>
</a>
</g>
</g>
<!-- Node1&#45;&gt;Node3 -->
<g id="edge3_Node000001_Node000003" class="edge">
<title>Node1&#45;&gt;Node3</title>
<g id="a_edge3_Node000001_Node000003"><a xlink:title=" ">
<path fill="none" stroke="#63b8ff" d="M145.26,-9.5C197.56,-9.5 267.42,-9.5 315.61,-9.5"/>
<polygon fill="#63b8ff" stroke="#63b8ff" points="315.85,-13 325.85,-9.5 315.85,-6 315.85,-13"/>
</a>
</g>
</g>
<!-- Node2&#45;&gt;Node3 -->
<g id="edge2_Node000002_Node000003" class="edge">
<title>Node2&#45;&gt;Node3</title>
<g id="a_edge2_Node000002_Node000003"><a xlink:title=" ">
<path fill="none" stroke="#63b8ff" d="M290.24,-20.94C298.61,-19.76 307.27,-18.54 315.67,-17.36"/>
<polygon fill="#63b8ff" stroke="#63b8ff" points="316.36,-20.8 325.77,-15.94 315.38,-13.86 316.36,-20.8"/>
</a>
</g>
</g>
</g>
</svg>
