<?xml version="1.0" encoding="UTF-8" standalone="no"?>
<!DOCTYPE svg PUBLIC "-//W3C//DTD SVG 1.1//EN"
 "http://www.w3.org/Graphics/SVG/1.1/DTD/svg11.dtd">
<!-- Generated by graphviz version 2.43.0 (0)
 -->
<!-- Title: estimate_file_size Pages: 1 -->
<svg width="980pt" height="211pt"
 viewBox="0.00 0.00 980.00 211.00" xmlns="http://www.w3.org/2000/svg" xmlns:xlink="http://www.w3.org/1999/xlink">
<g id="graph0" class="graph" transform="scale(1 1) rotate(0) translate(4 207)">
<title>estimate_file_size</title>
<!-- Node1 -->
<g id="Node000001" class="node">
<title>Node1</title>
<g id="a_Node000001"><a xlink:title=" ">
<polygon fill="#999999" stroke="#666666" points="105,-150 0,-150 0,-131 105,-131 105,-150"/>
<text text-anchor="middle" x="52.5" y="-138" font-family="Helvetica,sans-Serif" font-size="10.00">estimate_file_size</text>
</a>
</g>
</g>
<!-- Node2 -->
<g id="Node000002" class="node">
<title>Node2</title>
<g id="a_Node000002"><a xlink:href="fragment_8c.html#aabb4533acf454a2edcad5fe0ad385df8" target="_top" xlink:title=" ">
<polygon fill="white" stroke="#666666" points="277,-188 141,-188 141,-169 277,-169 277,-188"/>
<text text-anchor="middle" x="209" y="-176" font-family="Helvetica,sans-Serif" font-size="10.00">compute_Nhalos_in_PLC</text>
</a>
</g>
</g>
<!-- Node1&#45;&gt;Node2 -->
<g id="edge1_Node000001_Node000002" class="edge">
<title>Node1&#45;&gt;Node2</title>
<g id="a_edge1_Node000001_Node000002"><a xlink:title=" ">
<path fill="none" stroke="#63b8ff" d="M92.49,-150.09C112.78,-155.08 137.79,-161.23 159.35,-166.53"/>
<polygon fill="#63b8ff" stroke="#63b8ff" points="158.75,-169.99 169.29,-168.98 160.42,-163.19 158.75,-169.99"/>
</a>
</g>
</g>
<!-- Node5 -->
<g id="Node000005" class="node">
<title>Node5</title>
<g id="a_Node000005"><a xlink:href="fragment_8c.html#a167c76ec9c64d91e440bec86963419bb" target="_top" xlink:title=" ">
<polygon fill="white" stroke="#666666" points="396,-150 313,-150 313,-131 396,-131 396,-150"/>
<text text-anchor="middle" x="354.5" y="-138" font-family="Helvetica,sans-Serif" font-size="10.00">Integrand_MF</text>
</a>
</g>
</g>
<!-- Node1&#45;&gt;Node5 -->
<g id="edge15_Node000001_Node000005" class="edge">
<title>Node1&#45;&gt;Node5</title>
<g id="a_edge15_Node000001_Node000005"><a xlink:title=" ">
<path fill="none" stroke="#63b8ff" d="M105.07,-140.5C160.31,-140.5 247.44,-140.5 302.48,-140.5"/>
<polygon fill="#63b8ff" stroke="#63b8ff" points="302.7,-144 312.7,-140.5 302.7,-137 302.7,-144"/>
</a>
</g>
</g>
<!-- Node13 -->
<g id="Node000013" class="node">
<title>Node13</title>
<g id="a_Node000013"><a xlink:href="fragment_8c.html#a9d5a93b62ffb6145d176868bd02e6254" target="_top" xlink:title=" ">
<polygon fill="white" stroke="#666666" points="237.5,-112 180.5,-112 180.5,-93 237.5,-93 237.5,-112"/>
<text text-anchor="middle" x="209" y="-100" font-family="Helvetica,sans-Serif" font-size="10.00">size2Mb</text>
</a>
</g>
</g>
<!-- Node1&#45;&gt;Node13 -->
<g id="edge16_Node000001_Node000013" class="edge">
<title>Node1&#45;&gt;Node13</title>
<g id="a_edge16_Node000001_Node000013"><a xlink:title=" ">
<path fill="none" stroke="#63b8ff" d="M92.49,-130.91C116.32,-125.05 146.64,-117.59 170.24,-111.79"/>
<polygon fill="#63b8ff" stroke="#63b8ff" points="171.36,-115.12 180.23,-109.33 169.69,-108.32 171.36,-115.12"/>
</a>
</g>
</g>
<!-- Node3 -->
<g id="Node000003" class="node">
<title>Node3</title>
<g id="a_Node000003"><a xlink:href="cosmo_8c.html#aa3beda8770f3f4e1b00e486bb647edc5" target="_top" xlink:title=" ">
<polygon fill="white" stroke="#666666" points="548,-203 439,-203 439,-184 548,-184 548,-203"/>
<text text-anchor="middle" x="493.5" y="-191" font-family="Helvetica,sans-Serif" font-size="10.00">ComovingDistance</text>
</a>
</g>
</g>
<!-- Node2&#45;&gt;Node3 -->
<g id="edge2_Node000002_Node000003" class="edge">
<title>Node2&#45;&gt;Node3</title>
<g id="a_edge2_Node000002_Node000003"><a xlink:title=" ">
<path fill="none" stroke="#63b8ff" d="M277.31,-182.07C323.18,-184.51 383.55,-187.72 428.67,-190.11"/>
<polygon fill="#63b8ff" stroke="#63b8ff" points="428.75,-193.62 438.92,-190.66 429.12,-186.63 428.75,-193.62"/>
</a>
</g>
</g>
<!-- Node2&#45;&gt;Node5 -->
<g id="edge4_Node000002_Node000005" class="edge">
<title>Node2&#45;&gt;Node5</title>
<g id="a_edge4_Node000002_Node000005"><a xlink:title=" ">
<path fill="none" stroke="#63b8ff" d="M246.21,-168.91C264.82,-163.98 287.7,-157.93 307.54,-152.67"/>
<polygon fill="#63b8ff" stroke="#63b8ff" points="308.53,-156.03 317.3,-150.09 306.74,-149.26 308.53,-156.03"/>
</a>
</g>
</g>
<!-- Node4 -->
<g id="Node000004" class="node">
<title>Node4</title>
<g id="a_Node000004"><a xlink:href="cosmo_8c.html#a6341f5394ed17a00dc77c5519b292ae3" target="_top" xlink:title=" ">
<polygon fill="white" stroke="#666666" points="972,-132 879,-132 879,-113 972,-113 972,-132"/>
<text text-anchor="middle" x="925.5" y="-120" font-family="Helvetica,sans-Serif" font-size="10.00">my_spline_eval</text>
</a>
</g>
</g>
<!-- Node3&#45;&gt;Node4 -->
<g id="edge3_Node000003_Node000004" class="edge">
<title>Node3&#45;&gt;Node4</title>
<g id="a_edge3_Node000003_Node000004"><a xlink:title=" ">
<path fill="none" stroke="#63b8ff" d="M548.01,-193.68C617.26,-192.71 741.12,-186.79 843,-159.5 862.39,-154.31 882.97,-144.93 898.59,-136.92"/>
<polygon fill="#63b8ff" stroke="#63b8ff" points="900.41,-139.92 907.63,-132.16 897.15,-133.72 900.41,-139.92"/>
</a>
</g>
</g>
<!-- Node6 -->
<g id="Node000006" class="node">
<title>Node6</title>
<g id="a_Node000006"><a xlink:href="cosmo_8c.html#a3e2faa009164fa657b79bf92bbfbb407" target="_top" xlink:title=" ">
<polygon fill="white" stroke="#666666" points="555,-113 432,-113 432,-94 555,-94 555,-113"/>
<text text-anchor="middle" x="493.5" y="-101" font-family="Helvetica,sans-Serif" font-size="10.00">AnalyticMassFunction</text>
</a>
</g>
</g>
<!-- Node5&#45;&gt;Node6 -->
<g id="edge5_Node000005_Node000006" class="edge">
<title>Node5&#45;&gt;Node6</title>
<g id="a_edge5_Node000005_Node000006"><a xlink:title=" ">
<path fill="none" stroke="#63b8ff" d="M390.78,-130.97C407.91,-126.35 428.69,-120.73 446.99,-115.79"/>
<polygon fill="#63b8ff" stroke="#63b8ff" points="448.12,-119.11 456.86,-113.12 446.3,-112.35 448.12,-119.11"/>
</a>
</g>
</g>
<!-- Node7 -->
<g id="Node000007" class="node">
<title>Node7</title>
<g id="a_Node000007"><a xlink:href="cosmo_8c.html#a7e6c85650740115e3cf73cca408cfc5a" target="_top" xlink:title=" ">
<polygon fill="white" stroke="#666666" points="843,-151 738,-151 738,-132 843,-132 843,-151"/>
<text text-anchor="middle" x="790.5" y="-139" font-family="Helvetica,sans-Serif" font-size="10.00">dMassVariance_dr</text>
</a>
</g>
</g>
<!-- Node6&#45;&gt;Node7 -->
<g id="edge6_Node000006_Node000007" class="edge">
<title>Node6&#45;&gt;Node7</title>
<g id="a_edge6_Node000006_Node000007"><a xlink:title=" ">
<path fill="none" stroke="#63b8ff" d="M513.49,-113.14C532.53,-122.24 562.96,-135.24 591,-140.5 636.18,-148.98 688.17,-148.9 727.61,-146.87"/>
<polygon fill="#63b8ff" stroke="#63b8ff" points="727.82,-150.36 737.61,-146.3 727.42,-143.37 727.82,-150.36"/>
</a>
</g>
</g>
<!-- Node8 -->
<g id="Node000008" class="node">
<title>Node8</title>
<g id="a_Node000008"><a xlink:href="cosmo_8c.html#a673892897db42773951bd46f397f914b" target="_top" xlink:title=" ">
<polygon fill="white" stroke="#666666" points="702,-132 591,-132 591,-113 702,-113 702,-132"/>
<text text-anchor="middle" x="646.5" y="-120" font-family="Helvetica,sans-Serif" font-size="10.00">dOmega_dVariance</text>
</a>
</g>
</g>
<!-- Node6&#45;&gt;Node8 -->
<g id="edge8_Node000006_Node000008" class="edge">
<title>Node6&#45;&gt;Node8</title>
<g id="a_edge8_Node000006_Node000008"><a xlink:title=" ">
<path fill="none" stroke="#63b8ff" d="M555.05,-111.12C563.54,-112.19 572.29,-113.29 580.86,-114.37"/>
<polygon fill="#63b8ff" stroke="#63b8ff" points="580.44,-117.84 590.8,-115.62 581.31,-110.9 580.44,-117.84"/>
</a>
</g>
</g>
<!-- Node9 -->
<g id="Node000009" class="node">
<title>Node9</title>
<g id="a_Node000009"><a xlink:href="cosmo_8c.html#a9fbcf5b69c272e801cf320cf814b23c4" target="_top" xlink:title=" ">
<polygon fill="white" stroke="#666666" points="688.5,-95 604.5,-95 604.5,-76 688.5,-76 688.5,-95"/>
<text text-anchor="middle" x="646.5" y="-83" font-family="Helvetica,sans-Serif" font-size="10.00">GrowingMode</text>
</a>
</g>
</g>
<!-- Node6&#45;&gt;Node9 -->
<g id="edge9_Node000006_Node000009" class="edge">
<title>Node6&#45;&gt;Node9</title>
<g id="a_edge9_Node000006_Node000009"><a xlink:title=" ">
<path fill="none" stroke="#63b8ff" d="M555.05,-96.28C568,-94.74 581.56,-93.12 594.12,-91.62"/>
<polygon fill="#63b8ff" stroke="#63b8ff" points="594.89,-95.06 604.4,-90.4 594.06,-88.11 594.89,-95.06"/>
</a>
</g>
</g>
<!-- Node11 -->
<g id="Node000011" class="node">
<title>Node11</title>
<g id="a_Node000011"><a xlink:href="cosmo_8c.html#aa47020606869257e46b3a4f9071504d0" target="_top" xlink:title=" ">
<polygon fill="white" stroke="#666666" points="832.5,-67 748.5,-67 748.5,-48 832.5,-48 832.5,-67"/>
<text text-anchor="middle" x="790.5" y="-55" font-family="Helvetica,sans-Serif" font-size="10.00">MassVariance</text>
</a>
</g>
</g>
<!-- Node6&#45;&gt;Node11 -->
<g id="edge12_Node000006_Node000011" class="edge">
<title>Node6&#45;&gt;Node11</title>
<g id="a_edge12_Node000006_Node000011"><a xlink:title=" ">
<path fill="none" stroke="#63b8ff" d="M513.9,-93.93C532.99,-85.03 563.25,-72.29 591,-66.5 640.24,-56.23 697.78,-54.74 738.2,-55.36"/>
<polygon fill="#63b8ff" stroke="#63b8ff" points="738.28,-58.86 748.34,-55.56 738.42,-51.86 738.28,-58.86"/>
</a>
</g>
</g>
<!-- Node12 -->
<g id="Node000012" class="node">
<title>Node12</title>
<g id="a_Node000012"><a xlink:href="cosmo_8c.html#a66b5b059ca665289d407e13f98e6ff9a" target="_top" xlink:title=" ">
<polygon fill="white" stroke="#666666" points="685,-19 608,-19 608,0 685,0 685,-19"/>
<text text-anchor="middle" x="646.5" y="-7" font-family="Helvetica,sans-Serif" font-size="10.00">SizeForMass</text>
</a>
</g>
</g>
<!-- Node6&#45;&gt;Node12 -->
<g id="edge14_Node000006_Node000012" class="edge">
<title>Node6&#45;&gt;Node12</title>
<g id="a_edge14_Node000006_Node000012"><a xlink:title=" ">
<path fill="none" stroke="#63b8ff" d="M506.13,-93.8C523.72,-79.42 558.51,-52.15 591,-33.5 597.47,-29.78 604.63,-26.26 611.57,-23.1"/>
<polygon fill="#63b8ff" stroke="#63b8ff" points="613.05,-26.27 620.81,-19.06 610.25,-19.86 613.05,-26.27"/>
</a>
</g>
</g>
<!-- Node7&#45;&gt;Node4 -->
<g id="edge7_Node000007_Node000004" class="edge">
<title>Node7&#45;&gt;Node4</title>
<g id="a_edge7_Node000007_Node000004"><a xlink:title=" ">
<path fill="none" stroke="#63b8ff" d="M843.3,-134.1C851.6,-132.91 860.22,-131.68 868.6,-130.49"/>
<polygon fill="#63b8ff" stroke="#63b8ff" points="869.28,-133.92 878.68,-129.05 868.29,-126.99 869.28,-133.92"/>
</a>
</g>
</g>
<!-- Node10 -->
<g id="Node000010" class="node">
<title>Node10</title>
<g id="a_Node000010"><a xlink:href="cosmo_8c.html#a8847e5b8ea1f9c458c8bf9e5f36837a9" target="_top" xlink:title=" ">
<polygon fill="white" stroke="#666666" points="843,-104 738,-104 738,-85 843,-85 843,-104"/>
<text text-anchor="middle" x="790.5" y="-92" font-family="Helvetica,sans-Serif" font-size="10.00">InterpolateGrowth</text>
</a>
</g>
</g>
<!-- Node9&#45;&gt;Node10 -->
<g id="edge10_Node000009_Node000010" class="edge">
<title>Node9&#45;&gt;Node10</title>
<g id="a_edge10_Node000009_Node000010"><a xlink:title=" ">
<path fill="none" stroke="#63b8ff" d="M688.57,-88.1C700.84,-88.88 714.57,-89.75 727.86,-90.59"/>
<polygon fill="#63b8ff" stroke="#63b8ff" points="727.7,-94.09 737.9,-91.23 728.14,-87.1 727.7,-94.09"/>
</a>
</g>
</g>
<!-- Node10&#45;&gt;Node4 -->
<g id="edge11_Node000010_Node000004" class="edge">
<title>Node10&#45;&gt;Node4</title>
<g id="a_edge11_Node000010_Node000004"><a xlink:title=" ">
<path fill="none" stroke="#63b8ff" d="M836.9,-104.06C847.38,-106.27 858.65,-108.64 869.5,-110.92"/>
<polygon fill="#63b8ff" stroke="#63b8ff" points="868.8,-114.35 879.31,-112.99 870.24,-107.5 868.8,-114.35"/>
</a>
</g>
</g>
<!-- Node11&#45;&gt;Node4 -->
<g id="edge13_Node000011_Node000004" class="edge">
<title>Node11&#45;&gt;Node4</title>
<g id="a_edge13_Node000011_Node000004"><a xlink:title=" ">
<path fill="none" stroke="#63b8ff" d="M821.83,-67.04C828.88,-69.55 836.28,-72.42 843,-75.5 863.36,-84.83 885.28,-97.64 901.26,-107.54"/>
<polygon fill="#63b8ff" stroke="#63b8ff" points="899.59,-110.62 909.92,-112.98 903.32,-104.69 899.59,-110.62"/>
</a>
</g>
</g>
</g>
</svg>
