<?xml version="1.0" encoding="UTF-8" standalone="no"?>
<!DOCTYPE svg PUBLIC "-//W3C//DTD SVG 1.1//EN"
 "http://www.w3.org/Graphics/SVG/1.1/DTD/svg11.dtd">
<!-- Generated by graphviz version 2.43.0 (0)
 -->
<!-- Title: compute_fmax Pages: 1 -->
<svg width="1507pt" height="640pt"
 viewBox="0.00 0.00 1507.00 640.00" xmlns="http://www.w3.org/2000/svg" xmlns:xlink="http://www.w3.org/1999/xlink">
<g id="graph0" class="graph" transform="scale(1 1) rotate(0) translate(4 636)">
<title>compute_fmax</title>
<!-- Node1 -->
<g id="Node000001" class="node">
<title>Node1</title>
<g id="a_Node000001"><a xlink:title=" ">
<polygon fill="#999999" stroke="#666666" points="90,-114 0,-114 0,-95 90,-95 90,-114"/>
<text text-anchor="middle" x="45" y="-102" font-family="Helvetica,sans-Serif" font-size="10.00">compute_fmax</text>
</a>
</g>
</g>
<!-- Node2 -->
<g id="Node000002" class="node">
<title>Node2</title>
<g id="a_Node000002"><a xlink:href="collapse__times_8c.html#a7de3cd9744dabc41d67e31ed8c5928de" target="_top" xlink:title=" ">
<polygon fill="white" stroke="#666666" points="264,-364 126,-364 126,-345 264,-345 264,-364"/>
<text text-anchor="middle" x="195" y="-352" font-family="Helvetica,sans-Serif" font-size="10.00">compute_collapse_times</text>
</a>
</g>
</g>
<!-- Node1&#45;&gt;Node2 -->
<g id="edge1_Node000001_Node000002" class="edge">
<title>Node1&#45;&gt;Node2</title>
<g id="a_edge1_Node000001_Node000002"><a xlink:title=" ">
<path fill="none" stroke="#63b8ff" d="M51.8,-114.3C74,-151.79 153.75,-286.51 183.08,-336.05"/>
<polygon fill="#63b8ff" stroke="#63b8ff" points="180.13,-337.95 188.24,-344.77 186.16,-334.38 180.13,-337.95"/>
</a>
</g>
</g>
<!-- Node17 -->
<g id="Node000017" class="node">
<title>Node17</title>
<g id="a_Node000017"><a xlink:href="fmax_8c.html#a83dfe236a507bb220f824c7a5f8a0fc8" target="_top" xlink:title=" ">
<polygon fill="white" stroke="#666666" points="263,-209 127,-209 127,-190 263,-190 263,-209"/>
<text text-anchor="middle" x="195" y="-197" font-family="Helvetica,sans-Serif" font-size="10.00">compute_displacements</text>
</a>
</g>
</g>
<!-- Node1&#45;&gt;Node17 -->
<g id="edge19_Node000001_Node000017" class="edge">
<title>Node1&#45;&gt;Node17</title>
<g id="a_edge19_Node000001_Node000017"><a xlink:title=" ">
<path fill="none" stroke="#63b8ff" d="M61.01,-114.13C86.71,-130.63 139.37,-164.44 170.16,-184.2"/>
<polygon fill="#63b8ff" stroke="#63b8ff" points="168.65,-187.39 178.95,-189.84 172.43,-181.5 168.65,-187.39"/>
</a>
</g>
</g>
<!-- Node20 -->
<g id="Node000020" class="node">
<title>Node20</title>
<g id="a_Node000020"><a xlink:href="fmax_8c.html#a76000ea6ddfd81a9d6cf317d53f54378" target="_top" xlink:title=" ">
<polygon fill="white" stroke="#666666" points="913.5,-209 871.5,-209 871.5,-190 913.5,-190 913.5,-209"/>
<text text-anchor="middle" x="892.5" y="-197" font-family="Helvetica,sans-Serif" font-size="10.00">fdate</text>
</a>
</g>
</g>
<!-- Node1&#45;&gt;Node20 -->
<g id="edge43_Node000001_Node000020" class="edge">
<title>Node1&#45;&gt;Node20</title>
<g id="a_edge43_Node000001_Node000020"><a xlink:title=" ">
<path fill="none" stroke="#63b8ff" d="M79.13,-94.96C138.51,-78.73 267.18,-47.5 378,-47.5 378,-47.5 378,-47.5 574.5,-47.5 676.71,-47.5 715.12,-21.31 803,-73.5 844.96,-98.42 872.09,-151.88 884.19,-180.5"/>
<polygon fill="#63b8ff" stroke="#63b8ff" points="880.97,-181.87 887.97,-189.82 887.46,-179.24 880.97,-181.87"/>
</a>
</g>
</g>
<!-- Node29 -->
<g id="Node000029" class="node">
<title>Node29</title>
<g id="a_Node000029"><a xlink:href="fmax_8c.html#af7e353ab4ac1e19ecf80743eaef23fb4" target="_top" xlink:title=" ">
<polygon fill="white" stroke="#666666" points="653,-171 494,-171 494,-152 653,-152 653,-171"/>
<text text-anchor="middle" x="573.5" y="-159" font-family="Helvetica,sans-Serif" font-size="10.00">compute_second_derivatives</text>
</a>
</g>
</g>
<!-- Node1&#45;&gt;Node29 -->
<g id="edge42_Node000001_Node000029" class="edge">
<title>Node1&#45;&gt;Node29</title>
<g id="a_edge42_Node000001_Node000029"><a xlink:title=" ">
<path fill="none" stroke="#63b8ff" d="M90.44,-109.31C177.07,-118.69 370.01,-139.58 483.78,-151.9"/>
<polygon fill="#63b8ff" stroke="#63b8ff" points="483.55,-155.39 493.86,-152.99 484.3,-148.43 483.55,-155.39"/>
</a>
</g>
</g>
<!-- Node31 -->
<g id="Node000031" class="node">
<title>Node31</title>
<g id="a_Node000031"><a xlink:href="fmax-pfft_8c.html#ad0cf5d7644a66ab542c6f103baa0e55e" target="_top" xlink:title=" ">
<polygon fill="white" stroke="#666666" points="229,-19 161,-19 161,0 229,0 229,-19"/>
<text text-anchor="middle" x="195" y="-7" font-family="Helvetica,sans-Serif" font-size="10.00">finalize_fft</text>
</a>
</g>
</g>
<!-- Node1&#45;&gt;Node31 -->
<g id="edge44_Node000001_Node000031" class="edge">
<title>Node1&#45;&gt;Node31</title>
<g id="a_edge44_Node000001_Node000031"><a xlink:title=" ">
<path fill="none" stroke="#63b8ff" d="M54.44,-94.93C68.11,-79.94 96.56,-50.85 126,-33.5 133.76,-28.93 142.52,-25.03 151.12,-21.79"/>
<polygon fill="#63b8ff" stroke="#63b8ff" points="152.43,-25.04 160.69,-18.41 150.1,-18.44 152.43,-25.04"/>
</a>
</g>
</g>
<!-- Node32 -->
<g id="Node000032" class="node">
<title>Node32</title>
<g id="a_Node000032"><a xlink:href="fmax_8c.html#ac0902403ea817d013a171697ac196d45" target="_top" xlink:title=" ">
<polygon fill="white" stroke="#666666" points="413.5,-95 344.5,-95 344.5,-76 413.5,-76 413.5,-95"/>
<text text-anchor="middle" x="379" y="-83" font-family="Helvetica,sans-Serif" font-size="10.00">Fmax_PDF</text>
</a>
</g>
</g>
<!-- Node1&#45;&gt;Node32 -->
<g id="edge45_Node000001_Node000032" class="edge">
<title>Node1&#45;&gt;Node32</title>
<g id="a_edge45_Node000001_Node000032"><a xlink:title=" ">
<path fill="none" stroke="#63b8ff" d="M90.09,-101.98C153.75,-98.33 270.72,-91.64 334.21,-88.01"/>
<polygon fill="#63b8ff" stroke="#63b8ff" points="334.52,-91.49 344.3,-87.43 334.12,-84.51 334.52,-91.49"/>
</a>
</g>
</g>
<!-- Node3 -->
<g id="Node000003" class="node">
<title>Node3</title>
<g id="a_Node000003"><a xlink:href="collapse__times_8c.html#a6b93e952f9a470157498b9a72ea1e22f" target="_top" xlink:title=" ">
<polygon fill="white" stroke="#666666" points="442,-501 316,-501 316,-482 442,-482 442,-501"/>
<text text-anchor="middle" x="379" y="-489" font-family="Helvetica,sans-Serif" font-size="10.00">inverse_collapse_time</text>
</a>
</g>
</g>
<!-- Node2&#45;&gt;Node3 -->
<g id="edge2_Node000002_Node000003" class="edge">
<title>Node2&#45;&gt;Node3</title>
<g id="a_edge2_Node000002_Node000003"><a xlink:title=" ">
<path fill="none" stroke="#63b8ff" d="M208.8,-364.13C239.66,-387.36 318.44,-446.67 356.62,-475.41"/>
<polygon fill="#63b8ff" stroke="#63b8ff" points="354.88,-478.48 364.97,-481.69 359.09,-472.88 354.88,-478.48"/>
</a>
</g>
</g>
<!-- Node4 -->
<g id="Node000004" class="node">
<title>Node4</title>
<g id="a_Node000004"><a xlink:href="collapse__times_8c.html#a17f64ed25a27688514593ecaed77105a" target="_top" xlink:title=" ">
<polygon fill="white" stroke="#666666" points="588,-501 559,-501 559,-482 588,-482 588,-501"/>
<text text-anchor="middle" x="573.5" y="-489" font-family="Helvetica,sans-Serif" font-size="10.00">ell</text>
</a>
</g>
</g>
<!-- Node3&#45;&gt;Node4 -->
<g id="edge3_Node000003_Node000004" class="edge">
<title>Node3&#45;&gt;Node4</title>
<g id="a_edge3_Node000003_Node000004"><a xlink:title=" ">
<path fill="none" stroke="#63b8ff" d="M442.23,-491.5C478.57,-491.5 522.32,-491.5 548.74,-491.5"/>
<polygon fill="#63b8ff" stroke="#63b8ff" points="548.93,-495 558.93,-491.5 548.93,-488 548.93,-495"/>
</a>
</g>
</g>
<!-- Node16 -->
<g id="Node000016" class="node">
<title>Node16</title>
<g id="a_Node000016"><a xlink:href="collapse__times_8c.html#a17760c8d2a293bcd4a0e8d99444e13ad" target="_top" xlink:title=" ">
<polygon fill="white" stroke="#666666" points="589.5,-538 557.5,-538 557.5,-519 589.5,-519 589.5,-538"/>
<text text-anchor="middle" x="573.5" y="-526" font-family="Helvetica,sans-Serif" font-size="10.00">ord</text>
</a>
</g>
</g>
<!-- Node3&#45;&gt;Node16 -->
<g id="edge18_Node000003_Node000016" class="edge">
<title>Node3&#45;&gt;Node16</title>
<g id="a_edge18_Node000003_Node000016"><a xlink:title=" ">
<path fill="none" stroke="#63b8ff" d="M429.57,-501.03C467.28,-508.27 517.58,-517.94 547.36,-523.67"/>
<polygon fill="#63b8ff" stroke="#63b8ff" points="546.86,-527.14 557.34,-525.59 548.18,-520.26 546.86,-527.14"/>
</a>
</g>
</g>
<!-- Node5 -->
<g id="Node000005" class="node">
<title>Node5</title>
<g id="a_Node000005"><a xlink:href="collapse__times_8c.html#a5a4ca2ffca6643912e7efcad849494a8" target="_top" xlink:title=" ">
<polygon fill="white" stroke="#666666" points="771.5,-577 720.5,-577 720.5,-558 771.5,-558 771.5,-577"/>
<text text-anchor="middle" x="746" y="-565" font-family="Helvetica,sans-Serif" font-size="10.00">ell_sng</text>
</a>
</g>
</g>
<!-- Node4&#45;&gt;Node5 -->
<g id="edge4_Node000004_Node000005" class="edge">
<title>Node4&#45;&gt;Node5</title>
<g id="a_edge4_Node000004_Node000005"><a xlink:title=" ">
<path fill="none" stroke="#63b8ff" d="M588.25,-493.47C604.25,-496.07 631.27,-501.41 653,-510.5 678.83,-521.3 705.77,-538.84 723.76,-551.62"/>
<polygon fill="#63b8ff" stroke="#63b8ff" points="722.16,-554.77 732.31,-557.8 726.26,-549.1 722.16,-554.77"/>
</a>
</g>
</g>
<!-- Node15 -->
<g id="Node000015" class="node">
<title>Node15</title>
<g id="a_Node000015"><a xlink:href="cosmo_8c.html#a24fd82c25ab80c71b0db9342e53891c3" target="_top" xlink:title=" ">
<polygon fill="white" stroke="#666666" points="1229,-506 1109,-506 1109,-487 1229,-487 1229,-506"/>
<text text-anchor="middle" x="1169" y="-494" font-family="Helvetica,sans-Serif" font-size="10.00">InverseGrowingMode</text>
</a>
</g>
</g>
<!-- Node4&#45;&gt;Node15 -->
<g id="edge16_Node000004_Node000015" class="edge">
<title>Node4&#45;&gt;Node15</title>
<g id="a_edge16_Node000004_Node000015"><a xlink:title=" ">
<path fill="none" stroke="#63b8ff" d="M588.01,-491.61C655.68,-492.18 959.98,-494.75 1098.7,-495.92"/>
<polygon fill="#63b8ff" stroke="#63b8ff" points="1098.77,-499.42 1108.8,-496 1098.82,-492.42 1098.77,-499.42"/>
</a>
</g>
</g>
<!-- Node6 -->
<g id="Node000006" class="node">
<title>Node6</title>
<g id="a_Node000006"><a xlink:href="cosmo_8c.html#a9fbcf5b69c272e801cf320cf814b23c4" target="_top" xlink:title=" ">
<polygon fill="white" stroke="#666666" points="934.5,-595 850.5,-595 850.5,-576 934.5,-576 934.5,-595"/>
<text text-anchor="middle" x="892.5" y="-583" font-family="Helvetica,sans-Serif" font-size="10.00">GrowingMode</text>
</a>
</g>
</g>
<!-- Node5&#45;&gt;Node6 -->
<g id="edge5_Node000005_Node000006" class="edge">
<title>Node5&#45;&gt;Node6</title>
<g id="a_edge5_Node000005_Node000006"><a xlink:title=" ">
<path fill="none" stroke="#63b8ff" d="M771.51,-570.55C790.31,-572.9 816.91,-576.21 840.29,-579.12"/>
<polygon fill="#63b8ff" stroke="#63b8ff" points="840.07,-582.62 850.42,-580.38 840.93,-575.67 840.07,-582.62"/>
</a>
</g>
</g>
<!-- Node9 -->
<g id="Node000009" class="node">
<title>Node9</title>
<g id="a_Node000009"><a xlink:href="cosmo_8c.html#a90c59eea1bc597d21ec511441cc3c925" target="_top" xlink:title=" ">
<polygon fill="white" stroke="#666666" points="908,-632 877,-632 877,-613 908,-613 908,-632"/>
<text text-anchor="middle" x="892.5" y="-620" font-family="Helvetica,sans-Serif" font-size="10.00">jac</text>
</a>
</g>
</g>
<!-- Node5&#45;&gt;Node9 -->
<g id="edge8_Node000005_Node000009" class="edge">
<title>Node5&#45;&gt;Node9</title>
<g id="a_edge8_Node000005_Node000009"><a xlink:title=" ">
<path fill="none" stroke="#63b8ff" d="M769.93,-577.11C788.47,-584.78 815.28,-595.67 839,-604.5 848.09,-607.88 858.14,-611.39 867,-614.39"/>
<polygon fill="#63b8ff" stroke="#63b8ff" points="866.12,-617.79 876.72,-617.66 868.35,-611.16 866.12,-617.79"/>
</a>
</g>
</g>
<!-- Node10 -->
<g id="Node000010" class="node">
<title>Node10</title>
<g id="a_Node000010"><a xlink:href="collapse__times_8c.html#a16072c1c54a0bc722718884b29bd0409" target="_top" xlink:title=" ">
<polygon fill="white" stroke="#666666" points="930,-558 855,-558 855,-539 930,-539 930,-558"/>
<text text-anchor="middle" x="892.5" y="-546" font-family="Helvetica,sans-Serif" font-size="10.00">sng_system</text>
</a>
</g>
</g>
<!-- Node5&#45;&gt;Node10 -->
<g id="edge9_Node000005_Node000010" class="edge">
<title>Node5&#45;&gt;Node10</title>
<g id="a_edge9_Node000005_Node000010"><a xlink:title=" ">
<path fill="none" stroke="#63b8ff" d="M771.51,-564.28C791.52,-561.65 820.37,-557.85 844.77,-554.64"/>
<polygon fill="#63b8ff" stroke="#63b8ff" points="845.46,-558.08 854.91,-553.31 844.54,-551.14 845.46,-558.08"/>
</a>
</g>
</g>
<!-- Node7 -->
<g id="Node000007" class="node">
<title>Node7</title>
<g id="a_Node000007"><a xlink:href="cosmo_8c.html#a8847e5b8ea1f9c458c8bf9e5f36837a9" target="_top" xlink:title=" ">
<polygon fill="white" stroke="#666666" points="1370,-611 1265,-611 1265,-592 1370,-592 1370,-611"/>
<text text-anchor="middle" x="1317.5" y="-599" font-family="Helvetica,sans-Serif" font-size="10.00">InterpolateGrowth</text>
</a>
</g>
</g>
<!-- Node6&#45;&gt;Node7 -->
<g id="edge6_Node000006_Node000007" class="edge">
<title>Node6&#45;&gt;Node7</title>
<g id="a_edge6_Node000006_Node000007"><a xlink:title=" ">
<path fill="none" stroke="#63b8ff" d="M934.83,-587.06C1009.52,-589.89 1167.32,-595.86 1254.82,-599.17"/>
<polygon fill="#63b8ff" stroke="#63b8ff" points="1254.74,-602.67 1264.87,-599.55 1255.01,-595.67 1254.74,-602.67"/>
</a>
</g>
</g>
<!-- Node8 -->
<g id="Node000008" class="node">
<title>Node8</title>
<g id="a_Node000008"><a xlink:href="cosmo_8c.html#a6341f5394ed17a00dc77c5519b292ae3" target="_top" xlink:title=" ">
<polygon fill="white" stroke="#666666" points="1499,-571 1406,-571 1406,-552 1499,-552 1499,-571"/>
<text text-anchor="middle" x="1452.5" y="-559" font-family="Helvetica,sans-Serif" font-size="10.00">my_spline_eval</text>
</a>
</g>
</g>
<!-- Node7&#45;&gt;Node8 -->
<g id="edge7_Node000007_Node000008" class="edge">
<title>Node7&#45;&gt;Node8</title>
<g id="a_edge7_Node000007_Node000008"><a xlink:title=" ">
<path fill="none" stroke="#63b8ff" d="M1350.36,-591.92C1368.29,-586.53 1390.88,-579.73 1410.16,-573.93"/>
<polygon fill="#63b8ff" stroke="#63b8ff" points="1411.33,-577.23 1419.9,-571 1409.32,-570.53 1411.33,-577.23"/>
</a>
</g>
</g>
<!-- Node11 -->
<g id="Node000011" class="node">
<title>Node11</title>
<g id="a_Node000011"><a xlink:href="cosmo_8c.html#abe72f217a5a4d0aadeba3d2c733128fb" target="_top" xlink:title=" ">
<polygon fill="white" stroke="#666666" points="1073,-576 982,-576 982,-557 1073,-557 1073,-576"/>
<text text-anchor="middle" x="1027.5" y="-564" font-family="Helvetica,sans-Serif" font-size="10.00">OmegaLambda</text>
</a>
</g>
</g>
<!-- Node10&#45;&gt;Node11 -->
<g id="edge10_Node000010_Node000011" class="edge">
<title>Node10&#45;&gt;Node11</title>
<g id="a_edge10_Node000010_Node000011"><a xlink:title=" ">
<path fill="none" stroke="#63b8ff" d="M930.19,-553.47C943.06,-555.21 957.81,-557.2 971.83,-559.1"/>
<polygon fill="#63b8ff" stroke="#63b8ff" points="971.5,-562.59 981.88,-560.46 972.44,-555.65 971.5,-562.59"/>
</a>
</g>
</g>
<!-- Node14 -->
<g id="Node000014" class="node">
<title>Node14</title>
<g id="a_Node000014"><a xlink:href="cosmo_8c.html#a4cb3653cf2125654f8b70d14b2a08dc8" target="_top" xlink:title=" ">
<polygon fill="white" stroke="#666666" points="1069.5,-539 985.5,-539 985.5,-520 1069.5,-520 1069.5,-539"/>
<text text-anchor="middle" x="1027.5" y="-527" font-family="Helvetica,sans-Serif" font-size="10.00">OmegaMatter</text>
</a>
</g>
</g>
<!-- Node10&#45;&gt;Node14 -->
<g id="edge14_Node000010_Node000014" class="edge">
<title>Node10&#45;&gt;Node14</title>
<g id="a_edge14_Node000010_Node000014"><a xlink:title=" ">
<path fill="none" stroke="#63b8ff" d="M930.19,-543.26C944.06,-541.28 960.11,-538.98 975.09,-536.84"/>
<polygon fill="#63b8ff" stroke="#63b8ff" points="975.83,-540.27 985.24,-535.39 974.84,-533.34 975.83,-540.27"/>
</a>
</g>
</g>
<!-- Node12 -->
<g id="Node000012" class="node">
<title>Node12</title>
<g id="a_Node000012"><a xlink:href="cosmo_8c.html#a23ab46a1787abb61a8685d7c8f06cdd4" target="_top" xlink:title=" ">
<polygon fill="white" stroke="#666666" points="1183.5,-571 1154.5,-571 1154.5,-552 1183.5,-552 1183.5,-571"/>
<text text-anchor="middle" x="1169" y="-559" font-family="Helvetica,sans-Serif" font-size="10.00">Ez</text>
</a>
</g>
</g>
<!-- Node11&#45;&gt;Node12 -->
<g id="edge11_Node000011_Node000012" class="edge">
<title>Node11&#45;&gt;Node12</title>
<g id="a_edge11_Node000011_Node000012"><a xlink:title=" ">
<path fill="none" stroke="#63b8ff" d="M1073.02,-564.9C1096.59,-564.06 1124.61,-563.06 1144.08,-562.36"/>
<polygon fill="#63b8ff" stroke="#63b8ff" points="1144.33,-565.85 1154.19,-561.99 1144.08,-558.86 1144.33,-565.85"/>
</a>
</g>
</g>
<!-- Node13 -->
<g id="Node000013" class="node">
<title>Node13</title>
<g id="a_Node000013"><a xlink:href="cosmo_8c.html#a911e9ce363c4662ce531c65885519f7a" target="_top" xlink:title=" ">
<polygon fill="white" stroke="#666666" points="1343,-571 1292,-571 1292,-552 1343,-552 1343,-571"/>
<text text-anchor="middle" x="1317.5" y="-559" font-family="Helvetica,sans-Serif" font-size="10.00">Hubble</text>
</a>
</g>
</g>
<!-- Node12&#45;&gt;Node13 -->
<g id="edge12_Node000012_Node000013" class="edge">
<title>Node12&#45;&gt;Node13</title>
<g id="a_edge12_Node000012_Node000013"><a xlink:title=" ">
<path fill="none" stroke="#63b8ff" d="M1183.52,-561.5C1205.67,-561.5 1250.35,-561.5 1281.79,-561.5"/>
<polygon fill="#63b8ff" stroke="#63b8ff" points="1281.9,-565 1291.9,-561.5 1281.9,-558 1281.9,-565"/>
</a>
</g>
</g>
<!-- Node13&#45;&gt;Node8 -->
<g id="edge13_Node000013_Node000008" class="edge">
<title>Node13&#45;&gt;Node8</title>
<g id="a_edge13_Node000013_Node000008"><a xlink:title=" ">
<path fill="none" stroke="#63b8ff" d="M1343.2,-561.5C1358.04,-561.5 1377.53,-561.5 1395.89,-561.5"/>
<polygon fill="#63b8ff" stroke="#63b8ff" points="1395.94,-565 1405.94,-561.5 1395.94,-558 1395.94,-565"/>
</a>
</g>
</g>
<!-- Node14&#45;&gt;Node12 -->
<g id="edge15_Node000014_Node000012" class="edge">
<title>Node14&#45;&gt;Node12</title>
<g id="a_edge15_Node000014_Node000012"><a xlink:title=" ">
<path fill="none" stroke="#63b8ff" d="M1069.6,-538.93C1093.99,-544.52 1124.03,-551.41 1144.46,-556.1"/>
<polygon fill="#63b8ff" stroke="#63b8ff" points="1143.93,-559.57 1154.46,-558.39 1145.49,-552.75 1143.93,-559.57"/>
</a>
</g>
</g>
<!-- Node15&#45;&gt;Node8 -->
<g id="edge17_Node000015_Node000008" class="edge">
<title>Node15&#45;&gt;Node8</title>
<g id="a_edge17_Node000015_Node000008"><a xlink:title=" ">
<path fill="none" stroke="#63b8ff" d="M1211.23,-506.02C1261.41,-517.61 1346.13,-537.17 1400.39,-549.7"/>
<polygon fill="#63b8ff" stroke="#63b8ff" points="1399.62,-553.11 1410.16,-551.95 1401.2,-546.29 1399.62,-553.11"/>
</a>
</g>
</g>
<!-- Node18 -->
<g id="Node000018" class="node">
<title>Node18</title>
<g id="a_Node000018"><a xlink:href="fmax_8c.html#a4b416954b6cbbc2372b9560e677b4014" target="_top" xlink:title=" ">
<polygon fill="white" stroke="#666666" points="645,-396 502,-396 502,-377 645,-377 645,-396"/>
<text text-anchor="middle" x="573.5" y="-384" font-family="Helvetica,sans-Serif" font-size="10.00">compute_first_derivatives</text>
</a>
</g>
</g>
<!-- Node17&#45;&gt;Node18 -->
<g id="edge20_Node000017_Node000018" class="edge">
<title>Node17&#45;&gt;Node18</title>
<g id="a_edge20_Node000017_Node000018"><a xlink:title=" ">
<path fill="none" stroke="#63b8ff" d="M202.27,-209.18C216.76,-230.77 254.84,-283.12 300,-310.5 358.94,-346.23 435.14,-365.62 491.97,-375.86"/>
<polygon fill="#63b8ff" stroke="#63b8ff" points="491.53,-379.33 501.99,-377.6 492.74,-372.44 491.53,-379.33"/>
</a>
</g>
</g>
<!-- Node17&#45;&gt;Node20 -->
<g id="edge41_Node000017_Node000020" class="edge">
<title>Node17&#45;&gt;Node20</title>
<g id="a_edge41_Node000017_Node000020"><a xlink:title=" ">
<path fill="none" stroke="#63b8ff" d="M223.3,-189.98C310.06,-161.19 586.49,-80.75 803,-143.5 829.62,-151.21 855.92,-169.6 872.84,-183.21"/>
<polygon fill="#63b8ff" stroke="#63b8ff" points="870.85,-186.11 880.78,-189.81 875.33,-180.73 870.85,-186.11"/>
</a>
</g>
</g>
<!-- Node25 -->
<g id="Node000025" class="node">
<title>Node25</title>
<g id="a_Node000025"><a xlink:href="LPT_8c.html#acd2ff0573cb91e413fb17c10768b35bc" target="_top" xlink:title=" ">
<polygon fill="white" stroke="#666666" points="458,-301 300,-301 300,-282 458,-282 458,-301"/>
<text text-anchor="middle" x="379" y="-289" font-family="Helvetica,sans-Serif" font-size="10.00">compute_LPT_displacements</text>
</a>
</g>
</g>
<!-- Node17&#45;&gt;Node25 -->
<g id="edge28_Node000017_Node000025" class="edge">
<title>Node17&#45;&gt;Node25</title>
<g id="a_edge28_Node000017_Node000025"><a xlink:title=" ">
<path fill="none" stroke="#63b8ff" d="M215.13,-209.17C247.3,-225.43 312.38,-258.33 349.8,-277.24"/>
<polygon fill="#63b8ff" stroke="#63b8ff" points="348.62,-280.57 359.12,-281.96 351.78,-274.32 348.62,-280.57"/>
</a>
</g>
</g>
<!-- Node17&#45;&gt;Node29 -->
<g id="edge36_Node000017_Node000029" class="edge">
<title>Node17&#45;&gt;Node29</title>
<g id="a_edge36_Node000017_Node000029"><a xlink:title=" ">
<path fill="none" stroke="#63b8ff" d="M263.09,-193.92C316.06,-189.38 391.8,-182.58 458,-175.5 467.46,-174.49 477.35,-173.37 487.19,-172.22"/>
<polygon fill="#63b8ff" stroke="#63b8ff" points="487.88,-175.66 497.4,-171.01 487.05,-168.71 487.88,-175.66"/>
</a>
</g>
</g>
<!-- Node19 -->
<g id="Node000019" class="node">
<title>Node19</title>
<g id="a_Node000019"><a xlink:href="fmax-fftw_8c.html#a7852a9463984d6a264677376fa61cfb8" target="_top" xlink:title=" ">
<polygon fill="white" stroke="#666666" points="803,-415 689,-415 689,-396 803,-396 803,-415"/>
<text text-anchor="middle" x="746" y="-403" font-family="Helvetica,sans-Serif" font-size="10.00">compute_derivative</text>
</a>
</g>
</g>
<!-- Node18&#45;&gt;Node19 -->
<g id="edge21_Node000018_Node000019" class="edge">
<title>Node18&#45;&gt;Node19</title>
<g id="a_edge21_Node000018_Node000019"><a xlink:title=" ">
<path fill="none" stroke="#63b8ff" d="M645.33,-394.39C656.46,-395.63 667.94,-396.91 678.96,-398.14"/>
<polygon fill="#63b8ff" stroke="#63b8ff" points="678.61,-401.62 688.94,-399.25 679.39,-394.67 678.61,-401.62"/>
</a>
</g>
</g>
<!-- Node18&#45;&gt;Node20 -->
<g id="edge25_Node000018_Node000020" class="edge">
<title>Node18&#45;&gt;Node20</title>
<g id="a_edge25_Node000018_Node000020"><a xlink:title=" ">
<path fill="none" stroke="#63b8ff" d="M645.1,-387.7C693.39,-385.26 756.78,-375.31 803,-343.5 847.97,-312.54 874.32,-250.52 885.36,-218.94"/>
<polygon fill="#63b8ff" stroke="#63b8ff" points="888.79,-219.73 888.64,-209.14 882.15,-217.52 888.79,-219.73"/>
</a>
</g>
</g>
<!-- Node23 -->
<g id="Node000023" class="node">
<title>Node23</title>
<g id="a_Node000023"><a xlink:href="fmax-pfft_8c.html#a2c52d2665e8222b82fc13fb46b58f7fe" target="_top" xlink:title=" ">
<polygon fill="white" stroke="#666666" points="801,-463.5 691,-463.5 691,-433.5 801,-433.5 801,-463.5"/>
<text text-anchor="start" x="699" y="-451.5" font-family="Helvetica,sans-Serif" font-size="10.00">write_from_rvector</text>
<text text-anchor="middle" x="746" y="-440.5" font-family="Helvetica,sans-Serif" font-size="10.00">_to_products</text>
</a>
</g>
</g>
<!-- Node18&#45;&gt;Node23 -->
<g id="edge26_Node000018_Node000023" class="edge">
<title>Node18&#45;&gt;Node23</title>
<g id="a_edge26_Node000018_Node000023"><a xlink:title=" ">
<path fill="none" stroke="#63b8ff" d="M600.77,-396.05C625.46,-405.03 663.11,-418.72 693.75,-429.87"/>
<polygon fill="#63b8ff" stroke="#63b8ff" points="692.84,-433.26 703.43,-433.38 695.23,-426.68 692.84,-433.26"/>
</a>
</g>
</g>
<!-- Node24 -->
<g id="Node000024" class="node">
<title>Node24</title>
<g id="a_Node000024"><a xlink:href="fmax-fftw_8c.html#a7059752d6936489370334baac9522bf9" target="_top" xlink:title=" ">
<polygon fill="white" stroke="#666666" points="794.5,-301 697.5,-301 697.5,-282 794.5,-282 794.5,-301"/>
<text text-anchor="middle" x="746" y="-289" font-family="Helvetica,sans-Serif" font-size="10.00">write_in_cvector</text>
</a>
</g>
</g>
<!-- Node18&#45;&gt;Node24 -->
<g id="edge27_Node000018_Node000024" class="edge">
<title>Node18&#45;&gt;Node24</title>
<g id="a_edge27_Node000018_Node000024"><a xlink:title=" ">
<path fill="none" stroke="#63b8ff" d="M591.79,-376.87C621.86,-360.11 683.96,-325.51 719.17,-305.89"/>
<polygon fill="#63b8ff" stroke="#63b8ff" points="720.89,-308.94 727.92,-301.02 717.48,-302.83 720.89,-308.94"/>
</a>
</g>
</g>
<!-- Node19&#45;&gt;Node20 -->
<g id="edge22_Node000019_Node000020" class="edge">
<title>Node19&#45;&gt;Node20</title>
<g id="a_edge22_Node000019_Node000020"><a xlink:title=" ">
<path fill="none" stroke="#63b8ff" d="M779.87,-395.99C788.13,-392.43 796.49,-387.7 803,-381.5 851.86,-334.92 877.23,-255.75 886.85,-219.14"/>
<polygon fill="#63b8ff" stroke="#63b8ff" points="890.29,-219.78 889.33,-209.23 883.5,-218.07 890.29,-219.78"/>
</a>
</g>
</g>
<!-- Node21 -->
<g id="Node000021" class="node">
<title>Node21</title>
<g id="a_Node000021"><a xlink:href="fmax-fftw_8c.html#a0a0b99548967fb246932282f353e5d80" target="_top" xlink:title=" ">
<polygon fill="white" stroke="#666666" points="940,-396 845,-396 845,-377 940,-377 940,-396"/>
<text text-anchor="middle" x="892.5" y="-384" font-family="Helvetica,sans-Serif" font-size="10.00">greens_function</text>
</a>
</g>
</g>
<!-- Node19&#45;&gt;Node21 -->
<g id="edge23_Node000019_Node000021" class="edge">
<title>Node19&#45;&gt;Node21</title>
<g id="a_edge23_Node000019_Node000021"><a xlink:title=" ">
<path fill="none" stroke="#63b8ff" d="M803.28,-398.1C813.62,-396.74 824.42,-395.32 834.78,-393.96"/>
<polygon fill="#63b8ff" stroke="#63b8ff" points="835.49,-397.39 844.95,-392.62 834.58,-390.45 835.49,-397.39"/>
</a>
</g>
</g>
<!-- Node22 -->
<g id="Node000022" class="node">
<title>Node22</title>
<g id="a_Node000022"><a xlink:href="fmax-fftw_8c.html#a9b00c4c92bd36a79d29b634244174f38" target="_top" xlink:title=" ">
<polygon fill="white" stroke="#666666" points="946,-433 839,-433 839,-414 946,-414 946,-433"/>
<text text-anchor="middle" x="892.5" y="-421" font-family="Helvetica,sans-Serif" font-size="10.00">reverse_transform</text>
</a>
</g>
</g>
<!-- Node19&#45;&gt;Node22 -->
<g id="edge24_Node000019_Node000022" class="edge">
<title>Node19&#45;&gt;Node22</title>
<g id="a_edge24_Node000019_Node000022"><a xlink:title=" ">
<path fill="none" stroke="#63b8ff" d="M803.28,-412.51C811.62,-413.55 820.26,-414.63 828.72,-415.68"/>
<polygon fill="#63b8ff" stroke="#63b8ff" points="828.56,-419.19 838.92,-416.95 829.43,-412.24 828.56,-419.19"/>
</a>
</g>
</g>
<!-- Node25&#45;&gt;Node18 -->
<g id="edge30_Node000025_Node000018" class="edge">
<title>Node25&#45;&gt;Node18</title>
<g id="a_edge30_Node000025_Node000018"><a xlink:title=" ">
<path fill="none" stroke="#63b8ff" d="M399.4,-301.11C415.49,-309.34 438.76,-321.83 458,-334.5 474.93,-345.65 476.01,-353.16 494,-362.5 502.54,-366.94 512.04,-370.7 521.4,-373.84"/>
<polygon fill="#63b8ff" stroke="#63b8ff" points="520.46,-377.22 531.05,-376.89 522.57,-370.54 520.46,-377.22"/>
</a>
</g>
</g>
<!-- Node25&#45;&gt;Node19 -->
<g id="edge29_Node000025_Node000019" class="edge">
<title>Node25&#45;&gt;Node19</title>
<g id="a_edge29_Node000025_Node000019"><a xlink:title=" ">
<path fill="none" stroke="#63b8ff" d="M385.89,-301.34C400.58,-324.81 441.51,-383.76 494,-405.5 558.35,-432.16 640.2,-425.52 692.6,-416.78"/>
<polygon fill="#63b8ff" stroke="#63b8ff" points="693.43,-420.19 702.68,-415.01 692.22,-413.3 693.43,-420.19"/>
</a>
</g>
</g>
<!-- Node25&#45;&gt;Node20 -->
<g id="edge31_Node000025_Node000020" class="edge">
<title>Node25&#45;&gt;Node20</title>
<g id="a_edge31_Node000025_Node000020"><a xlink:title=" ">
<path fill="none" stroke="#63b8ff" d="M439.7,-301.04C540.74,-316.05 740.58,-340.56 803,-310.5 842.79,-291.33 870.24,-244.61 883.13,-218.3"/>
<polygon fill="#63b8ff" stroke="#63b8ff" points="886.41,-219.55 887.49,-209.01 880.07,-216.58 886.41,-219.55"/>
</a>
</g>
</g>
<!-- Node25&#45;&gt;Node24 -->
<g id="edge34_Node000025_Node000024" class="edge">
<title>Node25&#45;&gt;Node24</title>
<g id="a_edge34_Node000025_Node000024"><a xlink:title=" ">
<path fill="none" stroke="#63b8ff" d="M458.3,-291.5C526.91,-291.5 625.08,-291.5 686.9,-291.5"/>
<polygon fill="#63b8ff" stroke="#63b8ff" points="687.25,-295 697.25,-291.5 687.25,-288 687.25,-295"/>
</a>
</g>
</g>
<!-- Node26 -->
<g id="Node000026" class="node">
<title>Node26</title>
<g id="a_Node000026"><a xlink:href="fmax-fftw_8c.html#a986b79719798da4550ae914f5fa77483" target="_top" xlink:title=" ">
<polygon fill="white" stroke="#666666" points="627,-282 520,-282 520,-263 627,-263 627,-282"/>
<text text-anchor="middle" x="573.5" y="-270" font-family="Helvetica,sans-Serif" font-size="10.00">forward_transform</text>
</a>
</g>
</g>
<!-- Node25&#45;&gt;Node26 -->
<g id="edge32_Node000025_Node000026" class="edge">
<title>Node25&#45;&gt;Node26</title>
<g id="a_edge32_Node000025_Node000026"><a xlink:title=" ">
<path fill="none" stroke="#63b8ff" d="M458.02,-283.8C475.28,-282.1 493.35,-280.31 509.91,-278.68"/>
<polygon fill="#63b8ff" stroke="#63b8ff" points="510.39,-282.15 520,-277.68 509.7,-275.18 510.39,-282.15"/>
</a>
</g>
</g>
<!-- Node27 -->
<g id="Node000027" class="node">
<title>Node27</title>
<g id="a_Node000027"><a xlink:href="fmax-fftw_8c.html#a5888f79e8dc110c60e7c37890778bc3b" target="_top" xlink:title=" ">
<polygon fill="white" stroke="#666666" points="629,-245 518,-245 518,-226 629,-226 629,-245"/>
<text text-anchor="middle" x="573.5" y="-233" font-family="Helvetica,sans-Serif" font-size="10.00">write_from_cvector</text>
</a>
</g>
</g>
<!-- Node25&#45;&gt;Node27 -->
<g id="edge33_Node000025_Node000027" class="edge">
<title>Node25&#45;&gt;Node27</title>
<g id="a_edge33_Node000025_Node000027"><a xlink:title=" ">
<path fill="none" stroke="#63b8ff" d="M407.46,-281.93C430.44,-274.09 464.17,-262.94 494,-254.5 502.53,-252.09 511.63,-249.71 520.51,-247.49"/>
<polygon fill="#63b8ff" stroke="#63b8ff" points="521.51,-250.85 530.38,-245.07 519.84,-244.05 521.51,-250.85"/>
</a>
</g>
</g>
<!-- Node28 -->
<g id="Node000028" class="node">
<title>Node28</title>
<g id="a_Node000028"><a xlink:href="fmax-fftw_8c.html#a8740927f784d6e43197124100c9215fb" target="_top" xlink:title=" ">
<polygon fill="white" stroke="#666666" points="621,-208 526,-208 526,-189 621,-189 621,-208"/>
<text text-anchor="middle" x="573.5" y="-196" font-family="Helvetica,sans-Serif" font-size="10.00">write_in_rvector</text>
</a>
</g>
</g>
<!-- Node25&#45;&gt;Node28 -->
<g id="edge35_Node000025_Node000028" class="edge">
<title>Node25&#45;&gt;Node28</title>
<g id="a_edge35_Node000025_Node000028"><a xlink:title=" ">
<path fill="none" stroke="#63b8ff" d="M391.87,-281.82C411.78,-266.06 453.69,-234.86 494,-217.5 500.98,-214.49 508.53,-211.91 516.09,-209.7"/>
<polygon fill="#63b8ff" stroke="#63b8ff" points="517.26,-213.01 525.99,-207.01 515.42,-206.25 517.26,-213.01"/>
</a>
</g>
</g>
<!-- Node29&#45;&gt;Node19 -->
<g id="edge37_Node000029_Node000019" class="edge">
<title>Node29&#45;&gt;Node19</title>
<g id="a_edge37_Node000029_Node000019"><a xlink:title=" ">
<path fill="none" stroke="#63b8ff" d="M639.62,-171.11C644.52,-173.61 649.07,-176.7 653,-180.5 696.08,-222.19 665.58,-255.31 689,-310.5 701.03,-338.84 720.05,-369.07 732.52,-387.62"/>
<polygon fill="#63b8ff" stroke="#63b8ff" points="729.69,-389.68 738.22,-395.97 735.47,-385.73 729.69,-389.68"/>
</a>
</g>
</g>
<!-- Node29&#45;&gt;Node20 -->
<g id="edge38_Node000029_Node000020" class="edge">
<title>Node29&#45;&gt;Node20</title>
<g id="a_edge38_Node000029_Node000020"><a xlink:title=" ">
<path fill="none" stroke="#63b8ff" d="M627.11,-171.03C646.52,-174.34 668.72,-177.87 689,-180.5 749.95,-188.41 821.62,-194.34 861.26,-197.34"/>
<polygon fill="#63b8ff" stroke="#63b8ff" points="861.1,-200.83 871.33,-198.08 861.61,-193.85 861.1,-200.83"/>
</a>
</g>
</g>
<!-- Node29&#45;&gt;Node24 -->
<g id="edge40_Node000029_Node000024" class="edge">
<title>Node29&#45;&gt;Node24</title>
<g id="a_edge40_Node000029_Node000024"><a xlink:title=" ">
<path fill="none" stroke="#63b8ff" d="M632.82,-171.11C639.9,-173.56 646.81,-176.64 653,-180.5 672.64,-192.76 711.93,-245.26 732.22,-273.44"/>
<polygon fill="#63b8ff" stroke="#63b8ff" points="729.43,-275.56 738.09,-281.66 735.12,-271.49 729.43,-275.56"/>
</a>
</g>
</g>
<!-- Node30 -->
<g id="Node000030" class="node">
<title>Node30</title>
<g id="a_Node000030"><a xlink:href="fmax-fftw_8c.html#a2b33f3af0a53380680cd2014715d2f88" target="_top" xlink:title=" ">
<polygon fill="white" stroke="#666666" points="801,-171 691,-171 691,-152 801,-152 801,-171"/>
<text text-anchor="middle" x="746" y="-159" font-family="Helvetica,sans-Serif" font-size="10.00">write_from_rvector</text>
</a>
</g>
</g>
<!-- Node29&#45;&gt;Node30 -->
<g id="edge39_Node000029_Node000030" class="edge">
<title>Node29&#45;&gt;Node30</title>
<g id="a_edge39_Node000029_Node000030"><a xlink:title=" ">
<path fill="none" stroke="#63b8ff" d="M653.26,-161.5C662.52,-161.5 671.88,-161.5 680.9,-161.5"/>
<polygon fill="#63b8ff" stroke="#63b8ff" points="680.92,-165 690.92,-161.5 680.92,-158 680.92,-165"/>
</a>
</g>
</g>
<!-- Node32&#45;&gt;Node20 -->
<g id="edge46_Node000032_Node000020" class="edge">
<title>Node32&#45;&gt;Node20</title>
<g id="a_edge46_Node000032_Node000020"><a xlink:title=" ">
<path fill="none" stroke="#63b8ff" d="M413.74,-79.56C488.02,-68.11 669.66,-49.11 803,-109.5 837.08,-124.93 865.07,-159.81 879.93,-181.34"/>
<polygon fill="#63b8ff" stroke="#63b8ff" points="877.18,-183.53 885.64,-189.91 883.01,-179.64 877.18,-183.53"/>
</a>
</g>
</g>
</g>
</svg>
