<?xml version="1.0" encoding="UTF-8" standalone="no"?>
<!DOCTYPE svg PUBLIC "-//W3C//DTD SVG 1.1//EN"
 "http://www.w3.org/Graphics/SVG/1.1/DTD/svg11.dtd">
<!-- Generated by graphviz version 2.43.0 (0)
 -->
<!-- Title: compute_derivative Pages: 1 -->
<svg width="552pt" height="249pt"
 viewBox="0.00 0.00 552.00 249.00" xmlns="http://www.w3.org/2000/svg" xmlns:xlink="http://www.w3.org/1999/xlink">
<g id="graph0" class="graph" transform="scale(1 1) rotate(0) translate(4 245)">
<title>compute_derivative</title>
<!-- Node1 -->
<g id="Node000001" class="node">
<title>Node1</title>
<g id="a_Node000001"><a xlink:title=" ">
<polygon fill="#999999" stroke="#666666" points="114,-130 0,-130 0,-111 114,-111 114,-130"/>
<text text-anchor="middle" x="57" y="-118" font-family="Helvetica,sans-Serif" font-size="10.00">compute_derivative</text>
</a>
</g>
</g>
<!-- Node2 -->
<g id="Node000002" class="node">
<title>Node2</title>
<g id="a_Node000002"><a xlink:href="fmax_8c.html#a76000ea6ddfd81a9d6cf317d53f54378" target="_top" xlink:title=" ">
<polygon fill="white" stroke="#666666" points="233,-241 191,-241 191,-222 233,-222 233,-241"/>
<text text-anchor="middle" x="212" y="-229" font-family="Helvetica,sans-Serif" font-size="10.00">fdate</text>
</a>
</g>
</g>
<!-- Node1&#45;&gt;Node2 -->
<g id="edge1_Node000001_Node000002" class="edge">
<title>Node1&#45;&gt;Node2</title>
<g id="a_edge1_Node000001_Node000002"><a xlink:title=" ">
<path fill="none" stroke="#63b8ff" d="M64.92,-130.24C78.85,-149.14 112.18,-190.89 150,-213.5 159.38,-219.11 170.63,-223.07 180.9,-225.82"/>
<polygon fill="#63b8ff" stroke="#63b8ff" points="180.19,-229.25 190.73,-228.19 181.83,-222.45 180.19,-229.25"/>
</a>
</g>
</g>
<!-- Node3 -->
<g id="Node000003" class="node">
<title>Node3</title>
<g id="a_Node000003"><a xlink:href="fmax-fftw_8c.html#a0a0b99548967fb246932282f353e5d80" target="_top" xlink:title=" ">
<polygon fill="white" stroke="#666666" points="259.5,-204 164.5,-204 164.5,-185 259.5,-185 259.5,-204"/>
<text text-anchor="middle" x="212" y="-192" font-family="Helvetica,sans-Serif" font-size="10.00">greens_function</text>
</a>
</g>
</g>
<!-- Node1&#45;&gt;Node3 -->
<g id="edge2_Node000001_Node000003" class="edge">
<title>Node1&#45;&gt;Node3</title>
<g id="a_edge2_Node000001_Node000003"><a xlink:title=" ">
<path fill="none" stroke="#63b8ff" d="M71.11,-130C88.44,-142.19 120.25,-163.33 150,-176.5 154.32,-178.41 158.89,-180.19 163.52,-181.82"/>
<polygon fill="#63b8ff" stroke="#63b8ff" points="162.43,-185.14 173.03,-184.96 164.63,-178.5 162.43,-185.14"/>
</a>
</g>
</g>
<!-- Node4 -->
<g id="Node000004" class="node">
<title>Node4</title>
<g id="a_Node000004"><a xlink:href="cosmo_8c.html#a9fbcf5b69c272e801cf320cf814b23c4" target="_top" xlink:title=" ">
<polygon fill="white" stroke="#666666" points="254,-167 170,-167 170,-148 254,-148 254,-167"/>
<text text-anchor="middle" x="212" y="-155" font-family="Helvetica,sans-Serif" font-size="10.00">GrowingMode</text>
</a>
</g>
</g>
<!-- Node1&#45;&gt;Node4 -->
<g id="edge3_Node000001_Node000004" class="edge">
<title>Node1&#45;&gt;Node4</title>
<g id="a_edge3_Node000001_Node000004"><a xlink:title=" ">
<path fill="none" stroke="#63b8ff" d="M97.4,-130.03C116.96,-134.76 140.78,-140.52 161.55,-145.54"/>
<polygon fill="#63b8ff" stroke="#63b8ff" points="160.92,-148.99 171.47,-147.94 162.57,-142.19 160.92,-148.99"/>
</a>
</g>
</g>
<!-- Node7 -->
<g id="Node000007" class="node">
<title>Node7</title>
<g id="a_Node000007"><a xlink:href="cosmo_8c.html#a3d4dfa13b4af53acceb7a040e2517499" target="_top" xlink:title=" ">
<polygon fill="white" stroke="#666666" points="268.5,-130 155.5,-130 155.5,-111 268.5,-111 268.5,-130"/>
<text text-anchor="middle" x="212" y="-118" font-family="Helvetica,sans-Serif" font-size="10.00">GrowingMode_2LPT</text>
</a>
</g>
</g>
<!-- Node1&#45;&gt;Node7 -->
<g id="edge6_Node000001_Node000007" class="edge">
<title>Node1&#45;&gt;Node7</title>
<g id="a_edge6_Node000001_Node000007"><a xlink:title=" ">
<path fill="none" stroke="#63b8ff" d="M114.1,-120.5C124.21,-120.5 134.83,-120.5 145.18,-120.5"/>
<polygon fill="#63b8ff" stroke="#63b8ff" points="145.42,-124 155.42,-120.5 145.42,-117 145.42,-124"/>
</a>
</g>
</g>
<!-- Node8 -->
<g id="Node000008" class="node">
<title>Node8</title>
<g id="a_Node000008"><a xlink:href="cosmo_8c.html#a04db96c36d31fd7c7befb810624260fc" target="_top" xlink:title=" ">
<polygon fill="white" stroke="#666666" points="274,-93 150,-93 150,-74 274,-74 274,-93"/>
<text text-anchor="middle" x="212" y="-81" font-family="Helvetica,sans-Serif" font-size="10.00">GrowingMode_3LPT_1</text>
</a>
</g>
</g>
<!-- Node1&#45;&gt;Node8 -->
<g id="edge8_Node000001_Node000008" class="edge">
<title>Node1&#45;&gt;Node8</title>
<g id="a_edge8_Node000001_Node000008"><a xlink:title=" ">
<path fill="none" stroke="#63b8ff" d="M97.4,-110.97C116.96,-106.24 140.78,-100.48 161.55,-95.46"/>
<polygon fill="#63b8ff" stroke="#63b8ff" points="162.57,-98.81 171.47,-93.06 160.92,-92.01 162.57,-98.81"/>
</a>
</g>
</g>
<!-- Node9 -->
<g id="Node000009" class="node">
<title>Node9</title>
<g id="a_Node000009"><a xlink:href="cosmo_8c.html#a9c8d61128a3d0ab4c73354d0ff8011a1" target="_top" xlink:title=" ">
<polygon fill="white" stroke="#666666" points="274,-56 150,-56 150,-37 274,-37 274,-56"/>
<text text-anchor="middle" x="212" y="-44" font-family="Helvetica,sans-Serif" font-size="10.00">GrowingMode_3LPT_2</text>
</a>
</g>
</g>
<!-- Node1&#45;&gt;Node9 -->
<g id="edge10_Node000001_Node000009" class="edge">
<title>Node1&#45;&gt;Node9</title>
<g id="a_edge10_Node000001_Node000009"><a xlink:title=" ">
<path fill="none" stroke="#63b8ff" d="M71.78,-110.84C89.29,-98.9 120.78,-78.56 150,-65.5 155,-63.26 160.34,-61.19 165.7,-59.28"/>
<polygon fill="#63b8ff" stroke="#63b8ff" points="166.95,-62.56 175.31,-56.06 164.72,-55.92 166.95,-62.56"/>
</a>
</g>
</g>
<!-- Node10 -->
<g id="Node000010" class="node">
<title>Node10</title>
<g id="a_Node000010"><a xlink:href="fmax-fftw_8c.html#a9b00c4c92bd36a79d29b634244174f38" target="_top" xlink:title=" ">
<polygon fill="white" stroke="#666666" points="265.5,-19 158.5,-19 158.5,0 265.5,0 265.5,-19"/>
<text text-anchor="middle" x="212" y="-7" font-family="Helvetica,sans-Serif" font-size="10.00">reverse_transform</text>
</a>
</g>
</g>
<!-- Node1&#45;&gt;Node10 -->
<g id="edge12_Node000001_Node000010" class="edge">
<title>Node1&#45;&gt;Node10</title>
<g id="a_edge12_Node000001_Node000010"><a xlink:title=" ">
<path fill="none" stroke="#63b8ff" d="M64.98,-110.91C79,-92.31 112.5,-51.17 150,-28.5 153.43,-26.43 157.1,-24.56 160.88,-22.89"/>
<polygon fill="#63b8ff" stroke="#63b8ff" points="162.42,-26.04 170.43,-19.1 159.84,-19.54 162.42,-26.04"/>
</a>
</g>
</g>
<!-- Node5 -->
<g id="Node000005" class="node">
<title>Node5</title>
<g id="a_Node000005"><a xlink:href="cosmo_8c.html#a8847e5b8ea1f9c458c8bf9e5f36837a9" target="_top" xlink:title=" ">
<polygon fill="white" stroke="#666666" points="415,-111 310,-111 310,-92 415,-92 415,-111"/>
<text text-anchor="middle" x="362.5" y="-99" font-family="Helvetica,sans-Serif" font-size="10.00">InterpolateGrowth</text>
</a>
</g>
</g>
<!-- Node4&#45;&gt;Node5 -->
<g id="edge4_Node000004_Node000005" class="edge">
<title>Node4&#45;&gt;Node5</title>
<g id="a_edge4_Node000004_Node000005"><a xlink:title=" ">
<path fill="none" stroke="#63b8ff" d="M248.08,-147.95C256.63,-145.4 265.7,-142.52 274,-139.5 293.65,-132.36 315.2,-123.03 331.99,-115.39"/>
<polygon fill="#63b8ff" stroke="#63b8ff" points="333.65,-118.48 341.28,-111.13 330.73,-112.12 333.65,-118.48"/>
</a>
</g>
</g>
<!-- Node6 -->
<g id="Node000006" class="node">
<title>Node6</title>
<g id="a_Node000006"><a xlink:href="cosmo_8c.html#a6341f5394ed17a00dc77c5519b292ae3" target="_top" xlink:title=" ">
<polygon fill="white" stroke="#666666" points="544,-111 451,-111 451,-92 544,-92 544,-111"/>
<text text-anchor="middle" x="497.5" y="-99" font-family="Helvetica,sans-Serif" font-size="10.00">my_spline_eval</text>
</a>
</g>
</g>
<!-- Node5&#45;&gt;Node6 -->
<g id="edge5_Node000005_Node000006" class="edge">
<title>Node5&#45;&gt;Node6</title>
<g id="a_edge5_Node000005_Node000006"><a xlink:title=" ">
<path fill="none" stroke="#63b8ff" d="M415.3,-101.5C423.6,-101.5 432.22,-101.5 440.6,-101.5"/>
<polygon fill="#63b8ff" stroke="#63b8ff" points="440.68,-105 450.68,-101.5 440.68,-98 440.68,-105"/>
</a>
</g>
</g>
<!-- Node7&#45;&gt;Node5 -->
<g id="edge7_Node000007_Node000005" class="edge">
<title>Node7&#45;&gt;Node5</title>
<g id="a_edge7_Node000007_Node000005"><a xlink:title=" ">
<path fill="none" stroke="#63b8ff" d="M268.72,-113.37C278.84,-112.08 289.46,-110.72 299.74,-109.4"/>
<polygon fill="#63b8ff" stroke="#63b8ff" points="300.41,-112.84 309.88,-108.1 299.52,-105.9 300.41,-112.84"/>
</a>
</g>
</g>
<!-- Node8&#45;&gt;Node5 -->
<g id="edge9_Node000008_Node000005" class="edge">
<title>Node8&#45;&gt;Node5</title>
<g id="a_edge9_Node000008_Node000005"><a xlink:title=" ">
<path fill="none" stroke="#63b8ff" d="M274.26,-90.93C282.66,-91.94 291.3,-92.99 299.72,-94.01"/>
<polygon fill="#63b8ff" stroke="#63b8ff" points="299.49,-97.51 309.84,-95.24 300.34,-90.56 299.49,-97.51"/>
</a>
</g>
</g>
<!-- Node9&#45;&gt;Node5 -->
<g id="edge11_Node000009_Node000005" class="edge">
<title>Node9&#45;&gt;Node5</title>
<g id="a_edge11_Node000009_Node000005"><a xlink:title=" ">
<path fill="none" stroke="#63b8ff" d="M245.47,-56.03C254.74,-58.91 264.82,-62.19 274,-65.5 292.99,-72.35 313.91,-80.92 330.53,-87.98"/>
<polygon fill="#63b8ff" stroke="#63b8ff" points="329.2,-91.22 339.77,-91.93 331.96,-84.78 329.2,-91.22"/>
</a>
</g>
</g>
</g>
</svg>
