<?xml version="1.0" encoding="UTF-8" standalone="no"?>
<!DOCTYPE svg PUBLIC "-//W3C//DTD SVG 1.1//EN"
 "http://www.w3.org/Graphics/SVG/1.1/DTD/svg11.dtd">
<!-- Generated by graphviz version 2.43.0 (0)
 -->
<!-- Title: compute_LPT_displacements Pages: 1 -->
<svg width="638pt" height="253pt"
 viewBox="0.00 0.00 638.00 253.00" xmlns="http://www.w3.org/2000/svg" xmlns:xlink="http://www.w3.org/1999/xlink">
<g id="graph0" class="graph" transform="scale(1 1) rotate(0) translate(4 249)">
<title>compute_LPT_displacements</title>
<!-- Node1 -->
<g id="Node000001" class="node">
<title>Node1</title>
<g id="a_Node000001"><a xlink:title=" ">
<polygon fill="#999999" stroke="#666666" points="158,-131 0,-131 0,-112 158,-112 158,-131"/>
<text text-anchor="middle" x="79" y="-119" font-family="Helvetica,sans-Serif" font-size="10.00">compute_LPT_displacements</text>
</a>
</g>
</g>
<!-- Node2 -->
<g id="Node000002" class="node">
<title>Node2</title>
<g id="a_Node000002"><a xlink:href="fmax-fftw_8c.html#a7852a9463984d6a264677376fa61cfb8" target="_top" xlink:title=" ">
<polygon fill="white" stroke="#666666" points="487,-207 373,-207 373,-188 487,-188 487,-207"/>
<text text-anchor="middle" x="430" y="-195" font-family="Helvetica,sans-Serif" font-size="10.00">compute_derivative</text>
</a>
</g>
</g>
<!-- Node1&#45;&gt;Node2 -->
<g id="edge1_Node000001_Node000002" class="edge">
<title>Node1&#45;&gt;Node2</title>
<g id="a_edge1_Node000001_Node000002"><a xlink:title=" ">
<path fill="none" stroke="#63b8ff" d="M94.73,-131.2C115.77,-144.49 156.06,-167.91 194,-178.5 249.46,-193.98 314.93,-198.18 362.66,-198.83"/>
<polygon fill="#63b8ff" stroke="#63b8ff" points="362.84,-202.33 372.87,-198.92 362.9,-195.33 362.84,-202.33"/>
</a>
</g>
</g>
<!-- Node3 -->
<g id="Node000003" class="node">
<title>Node3</title>
<g id="a_Node000003"><a xlink:href="fmax_8c.html#a76000ea6ddfd81a9d6cf317d53f54378" target="_top" xlink:title=" ">
<polygon fill="white" stroke="#666666" points="597.5,-245 555.5,-245 555.5,-226 597.5,-226 597.5,-245"/>
<text text-anchor="middle" x="576.5" y="-233" font-family="Helvetica,sans-Serif" font-size="10.00">fdate</text>
</a>
</g>
</g>
<!-- Node1&#45;&gt;Node3 -->
<g id="edge10_Node000001_Node000003" class="edge">
<title>Node1&#45;&gt;Node3</title>
<g id="a_edge10_Node000001_Node000003"><a xlink:title=" ">
<path fill="none" stroke="#63b8ff" d="M90.43,-131.05C109.48,-147.98 151.88,-183.17 194,-201.5 315.28,-254.29 478.43,-245.57 545.15,-239.06"/>
<polygon fill="#63b8ff" stroke="#63b8ff" points="545.79,-242.51 555.38,-238 545.07,-235.55 545.79,-242.51"/>
</a>
</g>
</g>
<!-- Node6 -->
<g id="Node000006" class="node">
<title>Node6</title>
<g id="a_Node000006"><a xlink:href="fmax_8c.html#a4b416954b6cbbc2372b9560e677b4014" target="_top" xlink:title=" ">
<polygon fill="white" stroke="#666666" points="337,-169 194,-169 194,-150 337,-150 337,-169"/>
<text text-anchor="middle" x="265.5" y="-157" font-family="Helvetica,sans-Serif" font-size="10.00">compute_first_derivatives</text>
</a>
</g>
</g>
<!-- Node1&#45;&gt;Node6 -->
<g id="edge5_Node000001_Node000006" class="edge">
<title>Node1&#45;&gt;Node6</title>
<g id="a_edge5_Node000001_Node000006"><a xlink:title=" ">
<path fill="none" stroke="#63b8ff" d="M126.56,-131.09C151.34,-136.19 182.02,-142.51 208.14,-147.89"/>
<polygon fill="#63b8ff" stroke="#63b8ff" points="207.78,-151.39 218.28,-149.98 209.19,-144.53 207.78,-151.39"/>
</a>
</g>
</g>
<!-- Node8 -->
<g id="Node000008" class="node">
<title>Node8</title>
<g id="a_Node000008"><a xlink:href="fmax-fftw_8c.html#a7059752d6936489370334baac9522bf9" target="_top" xlink:title=" ">
<polygon fill="white" stroke="#666666" points="478.5,-121 381.5,-121 381.5,-102 478.5,-102 478.5,-121"/>
<text text-anchor="middle" x="430" y="-109" font-family="Helvetica,sans-Serif" font-size="10.00">write_in_cvector</text>
</a>
</g>
</g>
<!-- Node1&#45;&gt;Node8 -->
<g id="edge13_Node000001_Node000008" class="edge">
<title>Node1&#45;&gt;Node8</title>
<g id="a_edge13_Node000001_Node000008"><a xlink:title=" ">
<path fill="none" stroke="#63b8ff" d="M158.32,-119.26C222.88,-117.41 312.97,-114.82 371.15,-113.16"/>
<polygon fill="#63b8ff" stroke="#63b8ff" points="371.37,-116.65 381.27,-112.87 371.17,-109.66 371.37,-116.65"/>
</a>
</g>
</g>
<!-- Node9 -->
<g id="Node000009" class="node">
<title>Node9</title>
<g id="a_Node000009"><a xlink:href="fmax-fftw_8c.html#a986b79719798da4550ae914f5fa77483" target="_top" xlink:title=" ">
<polygon fill="white" stroke="#666666" points="319,-93 212,-93 212,-74 319,-74 319,-93"/>
<text text-anchor="middle" x="265.5" y="-81" font-family="Helvetica,sans-Serif" font-size="10.00">forward_transform</text>
</a>
</g>
</g>
<!-- Node1&#45;&gt;Node9 -->
<g id="edge11_Node000001_Node000009" class="edge">
<title>Node1&#45;&gt;Node9</title>
<g id="a_edge11_Node000001_Node000009"><a xlink:title=" ">
<path fill="none" stroke="#63b8ff" d="M126.56,-111.91C151.34,-106.81 182.02,-100.49 208.14,-95.11"/>
<polygon fill="#63b8ff" stroke="#63b8ff" points="209.19,-98.47 218.28,-93.02 207.78,-91.61 209.19,-98.47"/>
</a>
</g>
</g>
<!-- Node10 -->
<g id="Node000010" class="node">
<title>Node10</title>
<g id="a_Node000010"><a xlink:href="fmax-fftw_8c.html#a5888f79e8dc110c60e7c37890778bc3b" target="_top" xlink:title=" ">
<polygon fill="white" stroke="#666666" points="321,-56 210,-56 210,-37 321,-37 321,-56"/>
<text text-anchor="middle" x="265.5" y="-44" font-family="Helvetica,sans-Serif" font-size="10.00">write_from_cvector</text>
</a>
</g>
</g>
<!-- Node1&#45;&gt;Node10 -->
<g id="edge12_Node000001_Node000010" class="edge">
<title>Node1&#45;&gt;Node10</title>
<g id="a_edge12_Node000001_Node000010"><a xlink:title=" ">
<path fill="none" stroke="#63b8ff" d="M96.49,-111.84C118.22,-99.45 157.92,-77.95 194,-64.5 199.54,-62.44 205.4,-60.53 211.29,-58.78"/>
<polygon fill="#63b8ff" stroke="#63b8ff" points="212.49,-62.08 221.17,-56.01 210.6,-55.34 212.49,-62.08"/>
</a>
</g>
</g>
<!-- Node11 -->
<g id="Node000011" class="node">
<title>Node11</title>
<g id="a_Node000011"><a xlink:href="fmax-fftw_8c.html#a8740927f784d6e43197124100c9215fb" target="_top" xlink:title=" ">
<polygon fill="white" stroke="#666666" points="313,-19 218,-19 218,0 313,0 313,-19"/>
<text text-anchor="middle" x="265.5" y="-7" font-family="Helvetica,sans-Serif" font-size="10.00">write_in_rvector</text>
</a>
</g>
</g>
<!-- Node1&#45;&gt;Node11 -->
<g id="edge14_Node000001_Node000011" class="edge">
<title>Node1&#45;&gt;Node11</title>
<g id="a_edge14_Node000001_Node000011"><a xlink:title=" ">
<path fill="none" stroke="#63b8ff" d="M88.74,-111.89C106.6,-92.83 149.4,-50.14 194,-27.5 198.53,-25.2 203.38,-23.18 208.33,-21.4"/>
<polygon fill="#63b8ff" stroke="#63b8ff" points="209.5,-24.71 217.93,-18.29 207.33,-18.05 209.5,-24.71"/>
</a>
</g>
</g>
<!-- Node2&#45;&gt;Node3 -->
<g id="edge2_Node000002_Node000003" class="edge">
<title>Node2&#45;&gt;Node3</title>
<g id="a_edge2_Node000002_Node000003"><a xlink:title=" ">
<path fill="none" stroke="#63b8ff" d="M467.46,-207.09C491.53,-213.42 522.7,-221.61 545.36,-227.57"/>
<polygon fill="#63b8ff" stroke="#63b8ff" points="544.56,-230.98 555.12,-230.14 546.34,-224.21 544.56,-230.98"/>
</a>
</g>
</g>
<!-- Node4 -->
<g id="Node000004" class="node">
<title>Node4</title>
<g id="a_Node000004"><a xlink:href="fmax-fftw_8c.html#a0a0b99548967fb246932282f353e5d80" target="_top" xlink:title=" ">
<polygon fill="white" stroke="#666666" points="624,-207 529,-207 529,-188 624,-188 624,-207"/>
<text text-anchor="middle" x="576.5" y="-195" font-family="Helvetica,sans-Serif" font-size="10.00">greens_function</text>
</a>
</g>
</g>
<!-- Node2&#45;&gt;Node4 -->
<g id="edge3_Node000002_Node000004" class="edge">
<title>Node2&#45;&gt;Node4</title>
<g id="a_edge3_Node000002_Node000004"><a xlink:title=" ">
<path fill="none" stroke="#63b8ff" d="M487.28,-197.5C497.62,-197.5 508.42,-197.5 518.78,-197.5"/>
<polygon fill="#63b8ff" stroke="#63b8ff" points="518.95,-201 528.95,-197.5 518.95,-194 518.95,-201"/>
</a>
</g>
</g>
<!-- Node5 -->
<g id="Node000005" class="node">
<title>Node5</title>
<g id="a_Node000005"><a xlink:href="fmax-fftw_8c.html#a9b00c4c92bd36a79d29b634244174f38" target="_top" xlink:title=" ">
<polygon fill="white" stroke="#666666" points="630,-170 523,-170 523,-151 630,-151 630,-170"/>
<text text-anchor="middle" x="576.5" y="-158" font-family="Helvetica,sans-Serif" font-size="10.00">reverse_transform</text>
</a>
</g>
</g>
<!-- Node2&#45;&gt;Node5 -->
<g id="edge4_Node000002_Node000005" class="edge">
<title>Node2&#45;&gt;Node5</title>
<g id="a_edge4_Node000002_Node000005"><a xlink:title=" ">
<path fill="none" stroke="#63b8ff" d="M468.21,-187.97C486.51,-183.29 508.77,-177.59 528.26,-172.6"/>
<polygon fill="#63b8ff" stroke="#63b8ff" points="529.34,-175.93 538.16,-170.06 527.61,-169.15 529.34,-175.93"/>
</a>
</g>
</g>
<!-- Node6&#45;&gt;Node2 -->
<g id="edge6_Node000006_Node000002" class="edge">
<title>Node6&#45;&gt;Node2</title>
<g id="a_edge6_Node000006_Node000002"><a xlink:title=" ">
<path fill="none" stroke="#63b8ff" d="M307.51,-169.09C329.05,-174.13 355.63,-180.34 378.44,-185.68"/>
<polygon fill="#63b8ff" stroke="#63b8ff" points="377.75,-189.11 388.29,-187.98 379.35,-182.29 377.75,-189.11"/>
</a>
</g>
</g>
<!-- Node6&#45;&gt;Node3 -->
<g id="edge7_Node000006_Node000003" class="edge">
<title>Node6&#45;&gt;Node3</title>
<g id="a_edge7_Node000006_Node000003"><a xlink:title=" ">
<path fill="none" stroke="#63b8ff" d="M280.18,-169.15C299.73,-182.38 337.26,-205.74 373,-216.5 432.16,-234.31 505.04,-236.65 545.25,-236.35"/>
<polygon fill="#63b8ff" stroke="#63b8ff" points="545.5,-239.85 555.45,-236.21 545.41,-232.85 545.5,-239.85"/>
</a>
</g>
</g>
<!-- Node7 -->
<g id="Node000007" class="node">
<title>Node7</title>
<g id="a_Node000007"><a xlink:href="fmax-pfft_8c.html#a2c52d2665e8222b82fc13fb46b58f7fe" target="_top" xlink:title=" ">
<polygon fill="white" stroke="#666666" points="485,-169.5 375,-169.5 375,-139.5 485,-139.5 485,-169.5"/>
<text text-anchor="start" x="383" y="-157.5" font-family="Helvetica,sans-Serif" font-size="10.00">write_from_rvector</text>
<text text-anchor="middle" x="430" y="-146.5" font-family="Helvetica,sans-Serif" font-size="10.00">_to_products</text>
</a>
</g>
</g>
<!-- Node6&#45;&gt;Node7 -->
<g id="edge8_Node000006_Node000007" class="edge">
<title>Node6&#45;&gt;Node7</title>
<g id="a_edge8_Node000006_Node000007"><a xlink:title=" ">
<path fill="none" stroke="#63b8ff" d="M337.3,-157.32C346.28,-157.05 355.43,-156.76 364.3,-156.49"/>
<polygon fill="#63b8ff" stroke="#63b8ff" points="364.67,-159.98 374.56,-156.18 364.46,-152.98 364.67,-159.98"/>
</a>
</g>
</g>
<!-- Node6&#45;&gt;Node8 -->
<g id="edge9_Node000006_Node000008" class="edge">
<title>Node6&#45;&gt;Node8</title>
<g id="a_edge9_Node000006_Node000008"><a xlink:title=" ">
<path fill="none" stroke="#63b8ff" d="M298.99,-149.9C324.24,-142.45 359.44,-132.05 386.85,-123.95"/>
<polygon fill="#63b8ff" stroke="#63b8ff" points="387.96,-127.27 396.56,-121.08 385.98,-120.56 387.96,-127.27"/>
</a>
</g>
</g>
</g>
</svg>
