<?xml version="1.0" encoding="UTF-8" standalone="no"?>
<!DOCTYPE svg PUBLIC "-//W3C//DTD SVG 1.1//EN"
 "http://www.w3.org/Graphics/SVG/1.1/DTD/svg11.dtd">
<!-- Generated by graphviz version 2.43.0 (0)
 -->
<!-- Title: write_timeless_snapshot Pages: 1 -->
<svg width="415pt" height="547pt"
 viewBox="0.00 0.00 415.00 547.00" xmlns="http://www.w3.org/2000/svg" xmlns:xlink="http://www.w3.org/1999/xlink">
<g id="graph0" class="graph" transform="scale(1 1) rotate(0) translate(4 543)">
<title>write_timeless_snapshot</title>
<!-- Node1 -->
<g id="Node000001" class="node">
<title>Node1</title>
<g id="a_Node000001"><a xlink:title=" ">
<polygon fill="#999999" stroke="#666666" points="138,-280 0,-280 0,-261 138,-261 138,-280"/>
<text text-anchor="middle" x="69" y="-268" font-family="Helvetica,sans-Serif" font-size="10.00">write_timeless_snapshot</text>
</a>
</g>
</g>
<!-- Node2 -->
<g id="Node000002" class="node">
<title>Node2</title>
<g id="a_Node000002"><a xlink:href="write__snapshot_8c.html#afd4a5dd053ee9721839542a30b752cf0" target="_top" xlink:title=" ">
<polygon fill="white" stroke="#666666" points="260,-539 186,-539 186,-520 260,-520 260,-539"/>
<text text-anchor="middle" x="223" y="-527" font-family="Helvetica,sans-Serif" font-size="10.00">add_to_info</text>
</a>
</g>
</g>
<!-- Node1&#45;&gt;Node2 -->
<g id="edge1_Node000001_Node000002" class="edge">
<title>Node1&#45;&gt;Node2</title>
<g id="a_edge1_Node000001_Node000002"><a xlink:title=" ">
<path fill="none" stroke="#63b8ff" d="M71.44,-280.32C77.23,-316.4 102.07,-442.98 174,-511.5 175.09,-512.54 176.24,-513.51 177.44,-514.44"/>
<polygon fill="#63b8ff" stroke="#63b8ff" points="175.67,-517.45 186.01,-519.76 179.36,-511.51 175.67,-517.45"/>
</a>
</g>
</g>
<!-- Node4 -->
<g id="Node000004" class="node">
<title>Node4</title>
<g id="a_Node000004"><a xlink:href="fmax_8c.html#a76000ea6ddfd81a9d6cf317d53f54378" target="_top" xlink:title=" ">
<polygon fill="white" stroke="#666666" points="378.5,-76 336.5,-76 336.5,-57 378.5,-57 378.5,-76"/>
<text text-anchor="middle" x="357.5" y="-64" font-family="Helvetica,sans-Serif" font-size="10.00">fdate</text>
</a>
</g>
</g>
<!-- Node1&#45;&gt;Node4 -->
<g id="edge3_Node000001_Node000004" class="edge">
<title>Node1&#45;&gt;Node4</title>
<g id="a_edge3_Node000001_Node000004"><a xlink:title=" ">
<path fill="none" stroke="#63b8ff" d="M71.38,-260.88C76.86,-226.81 100.44,-111.57 174,-66.5 220.8,-37.83 287.82,-47.96 326.27,-57.51"/>
<polygon fill="#63b8ff" stroke="#63b8ff" points="325.76,-60.99 336.32,-60.15 327.54,-54.22 325.76,-60.99"/>
</a>
</g>
</g>
<!-- Node5 -->
<g id="Node000005" class="node">
<title>Node5</title>
<g id="a_Node000005"><a xlink:href="write__snapshot_8c.html#a3b6ec588cd6a244d1381933c4b130628" target="_top" xlink:title=" ">
<polygon fill="white" stroke="#666666" points="257,-19 189,-19 189,0 257,0 257,-19"/>
<text text-anchor="middle" x="223" y="-7" font-family="Helvetica,sans-Serif" font-size="10.00">free_block</text>
</a>
</g>
</g>
<!-- Node1&#45;&gt;Node5 -->
<g id="edge4_Node000001_Node000005" class="edge">
<title>Node1&#45;&gt;Node5</title>
<g id="a_edge4_Node000001_Node000005"><a xlink:title=" ">
<path fill="none" stroke="#63b8ff" d="M71.83,-260.59C78.8,-225.32 106.8,-104.15 174,-33.5 177.43,-29.89 181.52,-26.75 185.85,-24.02"/>
<polygon fill="#63b8ff" stroke="#63b8ff" points="187.85,-26.92 194.92,-19.02 184.47,-20.79 187.85,-26.92"/>
</a>
</g>
</g>
<!-- Node6 -->
<g id="Node000006" class="node">
<title>Node6</title>
<g id="a_Node000006"><a xlink:href="write__snapshot_8c.html#a45f4e269c07d33bc503a05bec511494f" target="_top" xlink:title=" ">
<polygon fill="white" stroke="#666666" points="266.5,-502 179.5,-502 179.5,-483 266.5,-483 266.5,-502"/>
<text text-anchor="middle" x="223" y="-490" font-family="Helvetica,sans-Serif" font-size="10.00">initialize_2LPT</text>
</a>
</g>
</g>
<!-- Node1&#45;&gt;Node6 -->
<g id="edge5_Node000001_Node000006" class="edge">
<title>Node1&#45;&gt;Node6</title>
<g id="a_edge5_Node000001_Node000006"><a xlink:title=" ">
<path fill="none" stroke="#63b8ff" d="M72.24,-280.14C80.23,-312.37 110.26,-417.56 174,-474.5 175.28,-475.64 176.63,-476.71 178.05,-477.72"/>
<polygon fill="#63b8ff" stroke="#63b8ff" points="176.3,-480.75 186.69,-482.79 179.84,-474.71 176.3,-480.75"/>
</a>
</g>
</g>
<!-- Node7 -->
<g id="Node000007" class="node">
<title>Node7</title>
<g id="a_Node000007"><a xlink:href="write__snapshot_8c.html#ad9d6a3ed58465757cd9729602aec29d3" target="_top" xlink:title=" ">
<polygon fill="white" stroke="#666666" points="272,-465 174,-465 174,-446 272,-446 272,-465"/>
<text text-anchor="middle" x="223" y="-453" font-family="Helvetica,sans-Serif" font-size="10.00">initialize_3LPT_1</text>
</a>
</g>
</g>
<!-- Node1&#45;&gt;Node7 -->
<g id="edge7_Node000001_Node000007" class="edge">
<title>Node1&#45;&gt;Node7</title>
<g id="a_edge7_Node000001_Node000007"><a xlink:title=" ">
<path fill="none" stroke="#63b8ff" d="M73.49,-280.34C84.08,-308.79 118.51,-392.05 174,-437.5 175.55,-438.77 177.2,-439.95 178.91,-441.06"/>
<polygon fill="#63b8ff" stroke="#63b8ff" points="177.48,-444.26 187.94,-445.95 180.82,-438.11 177.48,-444.26"/>
</a>
</g>
</g>
<!-- Node8 -->
<g id="Node000008" class="node">
<title>Node8</title>
<g id="a_Node000008"><a xlink:href="write__snapshot_8c.html#a9a846f64fedb26d80bfbc6a984e1e9b6" target="_top" xlink:title=" ">
<polygon fill="white" stroke="#666666" points="272,-428 174,-428 174,-409 272,-409 272,-428"/>
<text text-anchor="middle" x="223" y="-416" font-family="Helvetica,sans-Serif" font-size="10.00">initialize_3LPT_2</text>
</a>
</g>
</g>
<!-- Node1&#45;&gt;Node8 -->
<g id="edge9_Node000001_Node000008" class="edge">
<title>Node1&#45;&gt;Node8</title>
<g id="a_edge9_Node000001_Node000008"><a xlink:title=" ">
<path fill="none" stroke="#63b8ff" d="M75.22,-280.13C88.57,-303.89 126.27,-365.89 174,-400.5 175.87,-401.86 177.86,-403.13 179.92,-404.31"/>
<polygon fill="#63b8ff" stroke="#63b8ff" points="178.77,-407.64 189.28,-408.96 181.88,-401.37 178.77,-407.64"/>
</a>
</g>
</g>
<!-- Node9 -->
<g id="Node000009" class="node">
<title>Node9</title>
<g id="a_Node000009"><a xlink:href="write__snapshot_8c.html#ad9f93009dec953ea766c2e913c90e371" target="_top" xlink:title=" ">
<polygon fill="white" stroke="#666666" points="269,-391 177,-391 177,-372 269,-372 269,-391"/>
<text text-anchor="middle" x="223" y="-379" font-family="Helvetica,sans-Serif" font-size="10.00">initialize_FMAX</text>
</a>
</g>
</g>
<!-- Node1&#45;&gt;Node9 -->
<g id="edge11_Node000001_Node000009" class="edge">
<title>Node1&#45;&gt;Node9</title>
<g id="a_edge11_Node000001_Node000009"><a xlink:title=" ">
<path fill="none" stroke="#63b8ff" d="M78.53,-280.23C95.2,-298.73 134.01,-339.3 174,-363.5 176.5,-365.01 179.15,-366.43 181.86,-367.76"/>
<polygon fill="#63b8ff" stroke="#63b8ff" points="180.68,-371.07 191.25,-371.91 183.52,-364.66 180.68,-371.07"/>
</a>
</g>
</g>
<!-- Node10 -->
<g id="Node000010" class="node">
<title>Node10</title>
<g id="a_Node000010"><a xlink:href="write__snapshot_8c.html#a61d88b1150a6fc4154823dcc901df879" target="_top" xlink:title=" ">
<polygon fill="white" stroke="#666666" points="269,-354 177,-354 177,-335 269,-335 269,-354"/>
<text text-anchor="middle" x="223" y="-342" font-family="Helvetica,sans-Serif" font-size="10.00">initialize_GRUP</text>
</a>
</g>
</g>
<!-- Node1&#45;&gt;Node10 -->
<g id="edge13_Node000001_Node000010" class="edge">
<title>Node1&#45;&gt;Node10</title>
<g id="a_edge13_Node000001_Node000010"><a xlink:title=" ">
<path fill="none" stroke="#63b8ff" d="M86.22,-280.13C106.4,-291.88 142.07,-312 174,-326.5 177.59,-328.13 181.37,-329.74 185.18,-331.28"/>
<polygon fill="#63b8ff" stroke="#63b8ff" points="183.99,-334.57 194.58,-334.95 186.54,-328.05 183.99,-334.57"/>
</a>
</g>
</g>
<!-- Node11 -->
<g id="Node000011" class="node">
<title>Node11</title>
<g id="a_Node000011"><a xlink:href="write__snapshot_8c.html#afa82e3a96bc195a8664fc3bd30ccb86a" target="_top" xlink:title=" ">
<polygon fill="white" stroke="#666666" points="260,-317 186,-317 186,-298 260,-298 260,-317"/>
<text text-anchor="middle" x="223" y="-305" font-family="Helvetica,sans-Serif" font-size="10.00">initialize_ID</text>
</a>
</g>
</g>
<!-- Node1&#45;&gt;Node11 -->
<g id="edge15_Node000001_Node000011" class="edge">
<title>Node1&#45;&gt;Node11</title>
<g id="a_edge15_Node000001_Node000011"><a xlink:title=" ">
<path fill="none" stroke="#63b8ff" d="M109.14,-280.03C129.57,-285 154.68,-291.11 176.03,-296.31"/>
<polygon fill="#63b8ff" stroke="#63b8ff" points="175.31,-299.74 185.86,-298.7 176.97,-292.94 175.31,-299.74"/>
</a>
</g>
</g>
<!-- Node12 -->
<g id="Node000012" class="node">
<title>Node12</title>
<g id="a_Node000012"><a xlink:href="write__snapshot_8c.html#a800a985a56fa47036e60a74de60ef74b" target="_top" xlink:title=" ">
<polygon fill="white" stroke="#666666" points="269.5,-280 176.5,-280 176.5,-261 269.5,-261 269.5,-280"/>
<text text-anchor="middle" x="223" y="-268" font-family="Helvetica,sans-Serif" font-size="10.00">initialize_RMAX</text>
</a>
</g>
</g>
<!-- Node1&#45;&gt;Node12 -->
<g id="edge17_Node000001_Node000012" class="edge">
<title>Node1&#45;&gt;Node12</title>
<g id="a_edge17_Node000001_Node000012"><a xlink:title=" ">
<path fill="none" stroke="#63b8ff" d="M138.44,-270.5C147.62,-270.5 156.94,-270.5 165.87,-270.5"/>
<polygon fill="#63b8ff" stroke="#63b8ff" points="166.14,-274 176.14,-270.5 166.14,-267 166.14,-274"/>
</a>
</g>
</g>
<!-- Node13 -->
<g id="Node000013" class="node">
<title>Node13</title>
<g id="a_Node000013"><a xlink:href="write__snapshot_8c.html#a562a17b4aae969e6a084035a64815d7d" target="_top" xlink:title=" ">
<polygon fill="white" stroke="#666666" points="268.5,-243 177.5,-243 177.5,-224 268.5,-224 268.5,-243"/>
<text text-anchor="middle" x="223" y="-231" font-family="Helvetica,sans-Serif" font-size="10.00">initialize_ZACC</text>
</a>
</g>
</g>
<!-- Node1&#45;&gt;Node13 -->
<g id="edge19_Node000001_Node000013" class="edge">
<title>Node1&#45;&gt;Node13</title>
<g id="a_edge19_Node000001_Node000013"><a xlink:title=" ">
<path fill="none" stroke="#63b8ff" d="M109.14,-260.97C128.57,-256.24 152.24,-250.48 172.87,-245.46"/>
<polygon fill="#63b8ff" stroke="#63b8ff" points="173.84,-248.83 182.72,-243.06 172.18,-242.02 173.84,-248.83"/>
</a>
</g>
</g>
<!-- Node14 -->
<g id="Node000014" class="node">
<title>Node14</title>
<g id="a_Node000014"><a xlink:href="write__snapshot_8c.html#a3b85a526b0917f232a78b2ef1bf6c60d" target="_top" xlink:title=" ">
<polygon fill="white" stroke="#666666" points="264,-206 182,-206 182,-187 264,-187 264,-206"/>
<text text-anchor="middle" x="223" y="-194" font-family="Helvetica,sans-Serif" font-size="10.00">initialize_ZEL</text>
</a>
</g>
</g>
<!-- Node1&#45;&gt;Node14 -->
<g id="edge21_Node000001_Node000014" class="edge">
<title>Node1&#45;&gt;Node14</title>
<g id="a_edge21_Node000001_Node000014"><a xlink:title=" ">
<path fill="none" stroke="#63b8ff" d="M86.65,-260.97C106.95,-249.51 142.46,-230.03 174,-215.5 178.14,-213.59 182.53,-211.69 186.91,-209.87"/>
<polygon fill="#63b8ff" stroke="#63b8ff" points="188.41,-213.04 196.37,-206.04 185.79,-206.55 188.41,-213.04"/>
</a>
</g>
</g>
<!-- Node15 -->
<g id="Node000015" class="node">
<title>Node15</title>
<g id="a_Node000015"><a xlink:href="write__snapshot_8c.html#a711256cfa01b2ba891fc2adb44006be7" target="_top" xlink:title=" ">
<polygon fill="white" stroke="#666666" points="259.5,-132 186.5,-132 186.5,-113 259.5,-113 259.5,-132"/>
<text text-anchor="middle" x="223" y="-120" font-family="Helvetica,sans-Serif" font-size="10.00">write_block</text>
</a>
</g>
</g>
<!-- Node1&#45;&gt;Node15 -->
<g id="edge23_Node000001_Node000015" class="edge">
<title>Node1&#45;&gt;Node15</title>
<g id="a_edge23_Node000001_Node000015"><a xlink:title=" ">
<path fill="none" stroke="#63b8ff" d="M75.48,-260.65C89.13,-236.95 126.97,-176.12 174,-141.5 176.48,-139.67 179.16,-137.99 181.95,-136.46"/>
<polygon fill="#63b8ff" stroke="#63b8ff" points="183.6,-139.54 191.06,-132.02 180.53,-133.25 183.6,-139.54"/>
</a>
</g>
</g>
<!-- Node17 -->
<g id="Node000017" class="node">
<title>Node17</title>
<g id="a_Node000017"><a xlink:href="write__snapshot_8c.html#a94f250d7a85d1c00ba065f7efd221912" target="_top" xlink:title=" ">
<polygon fill="white" stroke="#666666" points="263,-95 183,-95 183,-76 263,-76 263,-95"/>
<text text-anchor="middle" x="223" y="-83" font-family="Helvetica,sans-Serif" font-size="10.00">write_header</text>
</a>
</g>
</g>
<!-- Node1&#45;&gt;Node17 -->
<g id="edge25_Node000001_Node000017" class="edge">
<title>Node1&#45;&gt;Node17</title>
<g id="a_edge25_Node000001_Node000017"><a xlink:title=" ">
<path fill="none" stroke="#63b8ff" d="M73.55,-260.77C84.29,-232.62 119.1,-150.18 174,-104.5 175.99,-102.84 178.14,-101.32 180.39,-99.92"/>
<polygon fill="#63b8ff" stroke="#63b8ff" points="182.25,-102.89 189.44,-95.11 178.97,-96.71 182.25,-102.89"/>
</a>
</g>
</g>
<!-- Node18 -->
<g id="Node000018" class="node">
<title>Node18</title>
<g id="a_Node000018"><a xlink:href="write__snapshot_8c.html#a3c9df4707b30f92866f3fc1cda9f22f9" target="_top" xlink:title=" ">
<polygon fill="white" stroke="#666666" points="271.5,-169 174.5,-169 174.5,-150 271.5,-150 271.5,-169"/>
<text text-anchor="middle" x="223" y="-157" font-family="Helvetica,sans-Serif" font-size="10.00">write_info_block</text>
</a>
</g>
</g>
<!-- Node1&#45;&gt;Node18 -->
<g id="edge28_Node000001_Node000018" class="edge">
<title>Node1&#45;&gt;Node18</title>
<g id="a_edge28_Node000001_Node000018"><a xlink:title=" ">
<path fill="none" stroke="#63b8ff" d="M78.59,-260.95C95.37,-242.77 134.35,-202.84 174,-178.5 177.03,-176.64 180.28,-174.9 183.6,-173.28"/>
<polygon fill="#63b8ff" stroke="#63b8ff" points="185.33,-176.35 193.04,-169.08 182.48,-169.95 185.33,-176.35"/>
</a>
</g>
</g>
<!-- Node3 -->
<g id="Node000003" class="node">
<title>Node3</title>
<g id="a_Node000003"><a xlink:href="write__snapshot_8c.html#a62b36bedb5cc2a2701699d5d6971840a" target="_top" xlink:title=" ">
<polygon fill="white" stroke="#666666" points="391.5,-354 323.5,-354 323.5,-335 391.5,-335 391.5,-354"/>
<text text-anchor="middle" x="357.5" y="-342" font-family="Helvetica,sans-Serif" font-size="10.00">my_strcpy</text>
</a>
</g>
</g>
<!-- Node2&#45;&gt;Node3 -->
<g id="edge2_Node000002_Node000003" class="edge">
<title>Node2&#45;&gt;Node3</title>
<g id="a_edge2_Node000002_Node000003"><a xlink:title=" ">
<path fill="none" stroke="#63b8ff" d="M259.32,-519.8C263.9,-517.56 268.29,-514.83 272,-511.5 317.86,-470.41 342.13,-398.65 351.64,-364.14"/>
<polygon fill="#63b8ff" stroke="#63b8ff" points="355.06,-364.89 354.22,-354.33 348.29,-363.11 355.06,-364.89"/>
</a>
</g>
</g>
<!-- Node6&#45;&gt;Node3 -->
<g id="edge6_Node000006_Node000003" class="edge">
<title>Node6&#45;&gt;Node3</title>
<g id="a_edge6_Node000006_Node000003"><a xlink:title=" ">
<path fill="none" stroke="#63b8ff" d="M258,-482.88C262.99,-480.61 267.84,-477.84 272,-474.5 309.97,-444.01 336.47,-391.7 348.75,-363.63"/>
<polygon fill="#63b8ff" stroke="#63b8ff" points="352.09,-364.73 352.76,-354.16 345.64,-362 352.09,-364.73"/>
</a>
</g>
</g>
<!-- Node7&#45;&gt;Node3 -->
<g id="edge8_Node000007_Node000003" class="edge">
<title>Node7&#45;&gt;Node3</title>
<g id="a_edge8_Node000007_Node000003"><a xlink:title=" ">
<path fill="none" stroke="#63b8ff" d="M256.04,-445.92C261.59,-443.59 267.14,-440.8 272,-437.5 302.51,-416.81 329.56,-382.91 344.42,-362.25"/>
<polygon fill="#63b8ff" stroke="#63b8ff" points="347.31,-364.24 350.19,-354.04 341.58,-360.21 347.31,-364.24"/>
</a>
</g>
</g>
<!-- Node8&#45;&gt;Node3 -->
<g id="edge10_Node000008_Node000003" class="edge">
<title>Node8&#45;&gt;Node3</title>
<g id="a_edge10_Node000008_Node000003"><a xlink:title=" ">
<path fill="none" stroke="#63b8ff" d="M252.63,-408.98C259.12,-406.49 265.9,-403.62 272,-400.5 294.75,-388.89 318.86,-372.44 335.48,-360.38"/>
<polygon fill="#63b8ff" stroke="#63b8ff" points="337.91,-362.94 343.89,-354.19 333.76,-357.3 337.91,-362.94"/>
</a>
</g>
</g>
<!-- Node9&#45;&gt;Node3 -->
<g id="edge12_Node000009_Node000003" class="edge">
<title>Node9&#45;&gt;Node3</title>
<g id="a_edge12_Node000009_Node000003"><a xlink:title=" ">
<path fill="none" stroke="#63b8ff" d="M258.12,-371.97C275.07,-367.24 295.73,-361.47 313.72,-356.45"/>
<polygon fill="#63b8ff" stroke="#63b8ff" points="314.72,-359.8 323.41,-353.74 312.84,-353.06 314.72,-359.8"/>
</a>
</g>
</g>
<!-- Node10&#45;&gt;Node3 -->
<g id="edge14_Node000010_Node000003" class="edge">
<title>Node10&#45;&gt;Node3</title>
<g id="a_edge14_Node000010_Node000003"><a xlink:title=" ">
<path fill="none" stroke="#63b8ff" d="M269.23,-344.5C283.33,-344.5 298.84,-344.5 312.83,-344.5"/>
<polygon fill="#63b8ff" stroke="#63b8ff" points="313.18,-348 323.18,-344.5 313.18,-341 313.18,-348"/>
</a>
</g>
</g>
<!-- Node11&#45;&gt;Node3 -->
<g id="edge16_Node000011_Node000003" class="edge">
<title>Node11&#45;&gt;Node3</title>
<g id="a_edge16_Node000011_Node000003"><a xlink:title=" ">
<path fill="none" stroke="#63b8ff" d="M258.12,-317.03C275.07,-321.76 295.73,-327.53 313.72,-332.55"/>
<polygon fill="#63b8ff" stroke="#63b8ff" points="312.84,-335.94 323.41,-335.26 314.72,-329.2 312.84,-335.94"/>
</a>
</g>
</g>
<!-- Node12&#45;&gt;Node3 -->
<g id="edge18_Node000012_Node000003" class="edge">
<title>Node12&#45;&gt;Node3</title>
<g id="a_edge18_Node000012_Node000003"><a xlink:title=" ">
<path fill="none" stroke="#63b8ff" d="M250.83,-280.03C257.84,-282.81 265.31,-286.04 272,-289.5 294.44,-301.09 318.42,-317.09 335.09,-328.84"/>
<polygon fill="#63b8ff" stroke="#63b8ff" points="333.36,-331.91 343.53,-334.88 337.43,-326.22 333.36,-331.91"/>
</a>
</g>
</g>
<!-- Node13&#45;&gt;Node3 -->
<g id="edge20_Node000013_Node000003" class="edge">
<title>Node13&#45;&gt;Node3</title>
<g id="a_edge20_Node000013_Node000003"><a xlink:title=" ">
<path fill="none" stroke="#63b8ff" d="M254.25,-243.06C260.39,-245.66 266.61,-248.79 272,-252.5 302.04,-273.16 329.07,-306.36 344.08,-326.72"/>
<polygon fill="#63b8ff" stroke="#63b8ff" points="341.25,-328.77 349.93,-334.84 346.92,-324.68 341.25,-328.77"/>
</a>
</g>
</g>
<!-- Node14&#45;&gt;Node3 -->
<g id="edge22_Node000014_Node000003" class="edge">
<title>Node14&#45;&gt;Node3</title>
<g id="a_edge22_Node000014_Node000003"><a xlink:title=" ">
<path fill="none" stroke="#63b8ff" d="M256.25,-206.07C261.84,-208.6 267.35,-211.71 272,-215.5 309.54,-246.1 336.22,-297.86 348.64,-325.6"/>
<polygon fill="#63b8ff" stroke="#63b8ff" points="345.51,-327.18 352.7,-334.97 351.93,-324.4 345.51,-327.18"/>
</a>
</g>
</g>
<!-- Node16 -->
<g id="Node000016" class="node">
<title>Node16</title>
<g id="a_Node000016"><a xlink:href="write__snapshot_8c.html#a2aab4fd18379080332681b91e935f88a" target="_top" xlink:title=" ">
<polygon fill="white" stroke="#666666" points="407,-132 308,-132 308,-113 407,-113 407,-132"/>
<text text-anchor="middle" x="357.5" y="-120" font-family="Helvetica,sans-Serif" font-size="10.00">WriteBlockName</text>
</a>
</g>
</g>
<!-- Node15&#45;&gt;Node16 -->
<g id="edge24_Node000015_Node000016" class="edge">
<title>Node15&#45;&gt;Node16</title>
<g id="a_edge24_Node000015_Node000016"><a xlink:title=" ">
<path fill="none" stroke="#63b8ff" d="M259.51,-122.5C271.24,-122.5 284.63,-122.5 297.63,-122.5"/>
<polygon fill="#63b8ff" stroke="#63b8ff" points="297.94,-126 307.94,-122.5 297.94,-119 297.94,-126"/>
</a>
</g>
</g>
<!-- Node17&#45;&gt;Node4 -->
<g id="edge26_Node000017_Node000004" class="edge">
<title>Node17&#45;&gt;Node4</title>
<g id="a_edge26_Node000017_Node000004"><a xlink:title=" ">
<path fill="none" stroke="#63b8ff" d="M263.04,-79.9C283.17,-77.02 307.36,-73.55 326.08,-70.86"/>
<polygon fill="#63b8ff" stroke="#63b8ff" points="326.73,-74.3 336.13,-69.42 325.74,-67.38 326.73,-74.3"/>
</a>
</g>
</g>
<!-- Node17&#45;&gt;Node16 -->
<g id="edge27_Node000017_Node000016" class="edge">
<title>Node17&#45;&gt;Node16</title>
<g id="a_edge27_Node000017_Node000016"><a xlink:title=" ">
<path fill="none" stroke="#63b8ff" d="M258.12,-95.03C274.53,-99.61 294.41,-105.16 311.99,-110.07"/>
<polygon fill="#63b8ff" stroke="#63b8ff" points="311.46,-113.56 322.03,-112.88 313.34,-106.81 311.46,-113.56"/>
</a>
</g>
</g>
<!-- Node18&#45;&gt;Node3 -->
<g id="edge29_Node000018_Node000003" class="edge">
<title>Node18&#45;&gt;Node3</title>
<g id="a_edge29_Node000018_Node000003"><a xlink:title=" ">
<path fill="none" stroke="#63b8ff" d="M257.34,-169.02C262.64,-171.52 267.76,-174.64 272,-178.5 317.32,-219.75 341.84,-290.88 351.53,-325.06"/>
<polygon fill="#63b8ff" stroke="#63b8ff" points="348.17,-326.04 354.16,-334.77 354.92,-324.21 348.17,-326.04"/>
</a>
</g>
</g>
<!-- Node18&#45;&gt;Node16 -->
<g id="edge30_Node000018_Node000016" class="edge">
<title>Node18&#45;&gt;Node16</title>
<g id="a_edge30_Node000018_Node000016"><a xlink:title=" ">
<path fill="none" stroke="#63b8ff" d="M258.12,-149.97C274.53,-145.39 294.41,-139.84 311.99,-134.93"/>
<polygon fill="#63b8ff" stroke="#63b8ff" points="313.34,-138.19 322.03,-132.12 311.46,-131.44 313.34,-138.19"/>
</a>
</g>
</g>
</g>
</svg>
