<?xml version="1.0" encoding="UTF-8" standalone="no"?>
<!DOCTYPE svg PUBLIC "-//W3C//DTD SVG 1.1//EN"
 "http://www.w3.org/Graphics/SVG/1.1/DTD/svg11.dtd">
<!-- Generated by graphviz version 2.43.0 (0)
 -->
<!-- Title: mass_maps_segment_ptr Pages: 1 -->
<svg width="874pt" height="114pt"
 viewBox="0.00 0.00 874.00 113.50" xmlns="http://www.w3.org/2000/svg" xmlns:xlink="http://www.w3.org/1999/xlink">
<g id="graph0" class="graph" transform="scale(1 1) rotate(0) translate(4 109.5)">
<title>mass_maps_segment_ptr</title>
<!-- Node1 -->
<g id="Node000001" class="node">
<title>Node1</title>
<g id="a_Node000001"><a xlink:title=" ">
<polygon fill="#999999" stroke="#666666" points="866,-57 724,-57 724,-38 866,-38 866,-57"/>
<text text-anchor="middle" x="795" y="-45" font-family="Helvetica,sans-Serif" font-size="10.00">mass_maps_segment_ptr</text>
</a>
</g>
</g>
<!-- Node2 -->
<g id="Node000002" class="node">
<title>Node2</title>
<g id="a_Node000002"><a xlink:href="write__mass__maps_8c.html#adfd3c893a6c64abb5d3294ce4e288678" target="_top" xlink:title=" ">
<polygon fill="white" stroke="#666666" points="666.5,-105.5 529.5,-105.5 529.5,-75.5 666.5,-75.5 666.5,-105.5"/>
<text text-anchor="start" x="537.5" y="-93.5" font-family="Helvetica,sans-Serif" font-size="10.00">mass_maps_accumulate</text>
<text text-anchor="middle" x="598" y="-82.5" font-family="Helvetica,sans-Serif" font-size="10.00">_entry_pos</text>
</a>
</g>
</g>
<!-- Node1&#45;&gt;Node2 -->
<g id="edge1_Node000001_Node000002" class="edge">
<title>Node1&#45;&gt;Node2</title>
<g id="a_edge1_Node000001_Node000002"><a xlink:title=" ">
<path fill="none" stroke="#63b8ff" d="M740.86,-59.22C717.98,-64.26 690.96,-70.22 666.67,-75.58"/>
<polygon fill="#63b8ff" stroke="#63b8ff" points="741.71,-62.61 750.72,-57.04 740.2,-55.78 741.71,-62.61"/>
</a>
</g>
</g>
<!-- Node3 -->
<g id="Node000003" class="node">
<title>Node3</title>
<g id="a_Node000003"><a xlink:href="write__mass__maps_8c.html#a523d76e3e01c2ce2c7d973cf5ad60cb6" target="_top" xlink:title=" ">
<polygon fill="white" stroke="#666666" points="472,-38 306,-38 306,-19 472,-19 472,-38"/>
<text text-anchor="middle" x="389" y="-26" font-family="Helvetica,sans-Serif" font-size="10.00">mass_maps_process_segment</text>
</a>
</g>
</g>
<!-- Node1&#45;&gt;Node3 -->
<g id="edge2_Node000001_Node000003" class="edge">
<title>Node1&#45;&gt;Node3</title>
<g id="a_edge2_Node000001_Node000003"><a xlink:title=" ">
<path fill="none" stroke="#63b8ff" d="M713.53,-43.72C643.54,-40.42 542.56,-35.67 472.09,-32.36"/>
<polygon fill="#63b8ff" stroke="#63b8ff" points="713.48,-47.22 723.63,-44.19 713.8,-40.22 713.48,-47.22"/>
</a>
</g>
</g>
<!-- Node7 -->
<g id="Node000007" class="node">
<title>Node7</title>
<g id="a_Node000007"><a xlink:href="write__mass__maps_8c.html#a676e5befe139890f50637eb5797ecb93" target="_top" xlink:title=" ">
<polygon fill="white" stroke="#666666" points="688,-19 508,-19 508,0 688,0 688,-19"/>
<text text-anchor="middle" x="598" y="-7" font-family="Helvetica,sans-Serif" font-size="10.00">mass_maps_write_segment_map</text>
</a>
</g>
</g>
<!-- Node1&#45;&gt;Node7 -->
<g id="edge6_Node000001_Node000007" class="edge">
<title>Node1&#45;&gt;Node7</title>
<g id="a_edge6_Node000001_Node000007"><a xlink:title=" ">
<path fill="none" stroke="#63b8ff" d="M735.04,-36.01C707.22,-30.59 674.4,-24.19 647.98,-19.04"/>
<polygon fill="#63b8ff" stroke="#63b8ff" points="734.56,-39.48 745.04,-37.96 735.9,-32.61 734.56,-39.48"/>
</a>
</g>
</g>
<!-- Node4 -->
<g id="Node000004" class="node">
<title>Node4</title>
<g id="a_Node000004"><a xlink:href="fragment_8c.html#ac2bb250921932f90f7b0939d1181b66d" target="_top" xlink:title=" ">
<polygon fill="white" stroke="#666666" points="270,-38 208,-38 208,-19 270,-19 270,-38"/>
<text text-anchor="middle" x="239" y="-26" font-family="Helvetica,sans-Serif" font-size="10.00">fragment</text>
</a>
</g>
</g>
<!-- Node3&#45;&gt;Node4 -->
<g id="edge3_Node000003_Node000004" class="edge">
<title>Node3&#45;&gt;Node4</title>
<g id="a_edge3_Node000003_Node000004"><a xlink:title=" ">
<path fill="none" stroke="#63b8ff" d="M295.51,-28.5C286.54,-28.5 277.95,-28.5 270.33,-28.5"/>
<polygon fill="#63b8ff" stroke="#63b8ff" points="295.78,-32 305.78,-28.5 295.78,-25 295.78,-32"/>
</a>
</g>
</g>
<!-- Node5 -->
<g id="Node000005" class="node">
<title>Node5</title>
<g id="a_Node000005"><a xlink:href="fragment_8c.html#ae3aa75d17cbc170e60f4f48c4a2ffdf5" target="_top" xlink:title=" ">
<polygon fill="white" stroke="#666666" points="172,-38 77,-38 77,-19 172,-19 172,-38"/>
<text text-anchor="middle" x="124.5" y="-26" font-family="Helvetica,sans-Serif" font-size="10.00">fragment_driver</text>
</a>
</g>
</g>
<!-- Node4&#45;&gt;Node5 -->
<g id="edge4_Node000004_Node000005" class="edge">
<title>Node4&#45;&gt;Node5</title>
<g id="a_edge4_Node000004_Node000005"><a xlink:title=" ">
<path fill="none" stroke="#63b8ff" d="M197.73,-28.5C189.47,-28.5 180.72,-28.5 172.26,-28.5"/>
<polygon fill="#63b8ff" stroke="#63b8ff" points="197.85,-32 207.85,-28.5 197.85,-25 197.85,-32"/>
</a>
</g>
</g>
<!-- Node6 -->
<g id="Node000006" class="node">
<title>Node6</title>
<g id="a_Node000006"><a xlink:href="pinocchio_8c.html#a647f21a28344e1d9c643f4115516d7c9" target="_top" xlink:title=" ">
<polygon fill="white" stroke="#666666" points="41,-38 0,-38 0,-19 41,-19 41,-38"/>
<text text-anchor="middle" x="20.5" y="-26" font-family="Helvetica,sans-Serif" font-size="10.00">main</text>
</a>
</g>
</g>
<!-- Node5&#45;&gt;Node6 -->
<g id="edge5_Node000005_Node000006" class="edge">
<title>Node5&#45;&gt;Node6</title>
<g id="a_edge5_Node000005_Node000006"><a xlink:title=" ">
<path fill="none" stroke="#63b8ff" d="M66.91,-28.5C57.67,-28.5 48.67,-28.5 41.16,-28.5"/>
<polygon fill="#63b8ff" stroke="#63b8ff" points="66.98,-32 76.98,-28.5 66.98,-25 66.98,-32"/>
</a>
</g>
</g>
<!-- Node7&#45;&gt;Node3 -->
<g id="edge7_Node000007_Node000003" class="edge">
<title>Node7&#45;&gt;Node3</title>
<g id="a_edge7_Node000007_Node000003"><a xlink:title=" ">
<path fill="none" stroke="#63b8ff" d="M497.69,-18.61C489.13,-19.4 480.54,-20.19 472.13,-20.96"/>
<polygon fill="#63b8ff" stroke="#63b8ff" points="498.07,-22.1 507.71,-17.7 497.43,-15.12 498.07,-22.1"/>
</a>
</g>
</g>
</g>
</svg>
