<?xml version="1.0" encoding="UTF-8" standalone="no"?>
<!DOCTYPE svg PUBLIC "-//W3C//DTD SVG 1.1//EN"
 "http://www.w3.org/Graphics/SVG/1.1/DTD/svg11.dtd">
<!-- Generated by graphviz version 2.43.0 (0)
 -->
<!-- Title: mass_maps_replication_chi_bounds Pages: 1 -->
<svg width="842pt" height="38pt"
 viewBox="0.00 0.00 842.00 38.00" xmlns="http://www.w3.org/2000/svg" xmlns:xlink="http://www.w3.org/1999/xlink">
<g id="graph0" class="graph" transform="scale(1 1) rotate(0) translate(4 34)">
<title>mass_maps_replication_chi_bounds</title>
<!-- Node1 -->
<g id="Node000001" class="node">
<title>Node1</title>
<g id="a_Node000001"><a xlink:title=" ">
<polygon fill="#999999" stroke="#666666" points="834,-30 702,-30 702,0 834,0 834,-30"/>
<text text-anchor="start" x="710" y="-18" font-family="Helvetica,sans-Serif" font-size="10.00">mass_maps_replication</text>
<text text-anchor="middle" x="768" y="-7" font-family="Helvetica,sans-Serif" font-size="10.00">_chi_bounds</text>
</a>
</g>
</g>
<!-- Node2 -->
<g id="Node000002" class="node">
<title>Node2</title>
<g id="a_Node000002"><a xlink:href="write__mass__maps_8c.html#a9a969f3af5ada3d2f71e9581732559ce" target="_top" xlink:title=" ">
<polygon fill="white" stroke="#666666" points="666,-30 508,-30 508,0 666,0 666,-30"/>
<text text-anchor="start" x="516" y="-18" font-family="Helvetica,sans-Serif" font-size="10.00">mass_maps_select_segment</text>
<text text-anchor="middle" x="587" y="-7" font-family="Helvetica,sans-Serif" font-size="10.00">_replications</text>
</a>
</g>
</g>
<!-- Node1&#45;&gt;Node2 -->
<g id="edge1_Node000001_Node000002" class="edge">
<title>Node1&#45;&gt;Node2</title>
<g id="a_edge1_Node000001_Node000002"><a xlink:title=" ">
<path fill="none" stroke="#63b8ff" d="M691.69,-15C683.25,-15 674.64,-15 666.17,-15"/>
<polygon fill="#63b8ff" stroke="#63b8ff" points="691.87,-18.5 701.87,-15 691.87,-11.5 691.87,-18.5"/>
</a>
</g>
</g>
<!-- Node3 -->
<g id="Node000003" class="node">
<title>Node3</title>
<g id="a_Node000003"><a xlink:href="write__mass__maps_8c.html#a523d76e3e01c2ce2c7d973cf5ad60cb6" target="_top" xlink:title=" ">
<polygon fill="white" stroke="#666666" points="472,-24.5 306,-24.5 306,-5.5 472,-5.5 472,-24.5"/>
<text text-anchor="middle" x="389" y="-12.5" font-family="Helvetica,sans-Serif" font-size="10.00">mass_maps_process_segment</text>
</a>
</g>
</g>
<!-- Node2&#45;&gt;Node3 -->
<g id="edge2_Node000002_Node000003" class="edge">
<title>Node2&#45;&gt;Node3</title>
<g id="a_edge2_Node000002_Node000003"><a xlink:title=" ">
<path fill="none" stroke="#63b8ff" d="M497.71,-15C489.24,-15 480.67,-15 472.26,-15"/>
<polygon fill="#63b8ff" stroke="#63b8ff" points="497.97,-18.5 507.97,-15 497.97,-11.5 497.97,-18.5"/>
</a>
</g>
</g>
<!-- Node4 -->
<g id="Node000004" class="node">
<title>Node4</title>
<g id="a_Node000004"><a xlink:href="fragment_8c.html#ac2bb250921932f90f7b0939d1181b66d" target="_top" xlink:title=" ">
<polygon fill="white" stroke="#666666" points="270,-24.5 208,-24.5 208,-5.5 270,-5.5 270,-24.5"/>
<text text-anchor="middle" x="239" y="-12.5" font-family="Helvetica,sans-Serif" font-size="10.00">fragment</text>
</a>
</g>
</g>
<!-- Node3&#45;&gt;Node4 -->
<g id="edge3_Node000003_Node000004" class="edge">
<title>Node3&#45;&gt;Node4</title>
<g id="a_edge3_Node000003_Node000004"><a xlink:title=" ">
<path fill="none" stroke="#63b8ff" d="M295.51,-15C286.54,-15 277.95,-15 270.33,-15"/>
<polygon fill="#63b8ff" stroke="#63b8ff" points="295.78,-18.5 305.78,-15 295.78,-11.5 295.78,-18.5"/>
</a>
</g>
</g>
<!-- Node5 -->
<g id="Node000005" class="node">
<title>Node5</title>
<g id="a_Node000005"><a xlink:href="fragment_8c.html#ae3aa75d17cbc170e60f4f48c4a2ffdf5" target="_top" xlink:title=" ">
<polygon fill="white" stroke="#666666" points="172,-24.5 77,-24.5 77,-5.5 172,-5.5 172,-24.5"/>
<text text-anchor="middle" x="124.5" y="-12.5" font-family="Helvetica,sans-Serif" font-size="10.00">fragment_driver</text>
</a>
</g>
</g>
<!-- Node4&#45;&gt;Node5 -->
<g id="edge4_Node000004_Node000005" class="edge">
<title>Node4&#45;&gt;Node5</title>
<g id="a_edge4_Node000004_Node000005"><a xlink:title=" ">
<path fill="none" stroke="#63b8ff" d="M197.73,-15C189.47,-15 180.72,-15 172.26,-15"/>
<polygon fill="#63b8ff" stroke="#63b8ff" points="197.85,-18.5 207.85,-15 197.85,-11.5 197.85,-18.5"/>
</a>
</g>
</g>
<!-- Node6 -->
<g id="Node000006" class="node">
<title>Node6</title>
<g id="a_Node000006"><a xlink:href="pinocchio_8c.html#a647f21a28344e1d9c643f4115516d7c9" target="_top" xlink:title=" ">
<polygon fill="white" stroke="#666666" points="41,-24.5 0,-24.5 0,-5.5 41,-5.5 41,-24.5"/>
<text text-anchor="middle" x="20.5" y="-12.5" font-family="Helvetica,sans-Serif" font-size="10.00">main</text>
</a>
</g>
</g>
<!-- Node5&#45;&gt;Node6 -->
<g id="edge5_Node000005_Node000006" class="edge">
<title>Node5&#45;&gt;Node6</title>
<g id="a_edge5_Node000005_Node000006"><a xlink:title=" ">
<path fill="none" stroke="#63b8ff" d="M66.91,-15C57.67,-15 48.67,-15 41.16,-15"/>
<polygon fill="#63b8ff" stroke="#63b8ff" points="66.98,-18.5 76.98,-15 66.98,-11.5 66.98,-18.5"/>
</a>
</g>
</g>
</g>
</svg>
