<?xml version="1.0" encoding="UTF-8" standalone="no"?>
<!DOCTYPE svg PUBLIC "-//W3C//DTD SVG 1.1//EN"
 "http://www.w3.org/Graphics/SVG/1.1/DTD/svg11.dtd">
<!-- Generated by graphviz version 2.43.0 (0)
 -->
<!-- Title: mass_maps_accumulate_entry_pos Pages: 1 -->
<svg width="497pt" height="76pt"
 viewBox="0.00 0.00 497.00 75.50" xmlns="http://www.w3.org/2000/svg" xmlns:xlink="http://www.w3.org/1999/xlink">
<g id="graph0" class="graph" transform="scale(1 1) rotate(0) translate(4 71.5)">
<title>mass_maps_accumulate_entry_pos</title>
<!-- Node1 -->
<g id="Node000001" class="node">
<title>Node1</title>
<g id="a_Node000001"><a xlink:title=" ">
<polygon fill="#999999" stroke="#666666" points="137,-45.5 0,-45.5 0,-15.5 137,-15.5 137,-45.5"/>
<text text-anchor="start" x="8" y="-33.5" font-family="Helvetica,sans-Serif" font-size="10.00">mass_maps_accumulate</text>
<text text-anchor="middle" x="68.5" y="-22.5" font-family="Helvetica,sans-Serif" font-size="10.00">_entry_pos</text>
</a>
</g>
</g>
<!-- Node2 -->
<g id="Node000002" class="node">
<title>Node2</title>
<g id="a_Node000002"><a xlink:href="write__mass__maps_8c.html#a53755234b7745056e5c758c8f51c3515" target="_top" xlink:title=" ">
<polygon fill="white" stroke="#666666" points="325,-67.5 173,-67.5 173,-37.5 325,-37.5 325,-67.5"/>
<text text-anchor="start" x="181" y="-55.5" font-family="Helvetica,sans-Serif" font-size="10.00">mass_maps_compute_pixel</text>
<text text-anchor="middle" x="249" y="-44.5" font-family="Helvetica,sans-Serif" font-size="10.00">_from_pos</text>
</a>
</g>
</g>
<!-- Node1&#45;&gt;Node2 -->
<g id="edge1_Node000001_Node000002" class="edge">
<title>Node1&#45;&gt;Node2</title>
<g id="a_edge1_Node000001_Node000002"><a xlink:title=" ">
<path fill="none" stroke="#63b8ff" d="M137.24,-38.85C145.6,-39.88 154.24,-40.94 162.82,-42"/>
<polygon fill="#63b8ff" stroke="#63b8ff" points="162.5,-45.49 172.85,-43.24 163.35,-38.54 162.5,-45.49"/>
</a>
</g>
</g>
<!-- Node4 -->
<g id="Node000004" class="node">
<title>Node4</title>
<g id="a_Node000004"><a xlink:href="write__mass__maps_8c.html#ad2813bf24413a335b369b3f788ccf25a" target="_top" xlink:title=" ">
<polygon fill="white" stroke="#666666" points="320,-19 178,-19 178,0 320,0 320,-19"/>
<text text-anchor="middle" x="249" y="-7" font-family="Helvetica,sans-Serif" font-size="10.00">mass_maps_segment_ptr</text>
</a>
</g>
</g>
<!-- Node1&#45;&gt;Node4 -->
<g id="edge3_Node000001_Node000004" class="edge">
<title>Node1&#45;&gt;Node4</title>
<g id="a_edge3_Node000001_Node000004"><a xlink:title=" ">
<path fill="none" stroke="#63b8ff" d="M137.24,-22.53C147.22,-21.36 157.59,-20.14 167.8,-18.94"/>
<polygon fill="#63b8ff" stroke="#63b8ff" points="168.41,-22.39 177.93,-17.74 167.59,-15.44 168.41,-22.39"/>
</a>
</g>
</g>
<!-- Node3 -->
<g id="Node000003" class="node">
<title>Node3</title>
<g id="a_Node000003"><a xlink:href="write__mass__maps_8c.html#aa8ff3437aa03d47b2c1939564d9a64f1" target="_top" xlink:title=" ">
<polygon fill="white" stroke="#666666" points="489,-67.5 361,-67.5 361,-37.5 489,-37.5 489,-67.5"/>
<text text-anchor="start" x="369" y="-55.5" font-family="Helvetica,sans-Serif" font-size="10.00">mass_maps_cache_plc</text>
<text text-anchor="middle" x="425" y="-44.5" font-family="Helvetica,sans-Serif" font-size="10.00">_basis_and_center</text>
</a>
</g>
</g>
<!-- Node2&#45;&gt;Node3 -->
<g id="edge2_Node000002_Node000003" class="edge">
<title>Node2&#45;&gt;Node3</title>
<g id="a_edge2_Node000002_Node000003"><a xlink:title=" ">
<path fill="none" stroke="#63b8ff" d="M325.05,-52.5C333.55,-52.5 342.21,-52.5 350.69,-52.5"/>
<polygon fill="#63b8ff" stroke="#63b8ff" points="350.92,-56 360.92,-52.5 350.92,-49 350.92,-56"/>
</a>
</g>
</g>
</g>
</svg>
