<?xml version="1.0" encoding="UTF-8" standalone="no"?>
<!DOCTYPE svg PUBLIC "-//W3C//DTD SVG 1.1//EN"
 "http://www.w3.org/Graphics/SVG/1.1/DTD/svg11.dtd">
<!-- Generated by graphviz version 2.43.0 (0)
 -->
<!-- Title: mass_maps_init_sheets Pages: 1 -->
<svg width="416pt" height="101pt"
 viewBox="0.00 0.00 416.00 101.00" xmlns="http://www.w3.org/2000/svg" xmlns:xlink="http://www.w3.org/1999/xlink">
<g id="graph0" class="graph" transform="scale(1 1) rotate(0) translate(4 97)">
<title>mass_maps_init_sheets</title>
<!-- Node1 -->
<g id="Node000001" class="node">
<title>Node1</title>
<g id="a_Node000001"><a xlink:title=" ">
<polygon fill="#999999" stroke="#666666" points="134,-56 0,-56 0,-37 134,-37 134,-56"/>
<text text-anchor="middle" x="67" y="-44" font-family="Helvetica,sans-Serif" font-size="10.00">mass_maps_init_sheets</text>
</a>
</g>
</g>
<!-- Node2 -->
<g id="Node000002" class="node">
<title>Node2</title>
<g id="a_Node000002"><a xlink:href="cosmo_8c.html#aa3beda8770f3f4e1b00e486bb647edc5" target="_top" xlink:title=" ">
<polygon fill="white" stroke="#666666" points="279,-93 170,-93 170,-74 279,-74 279,-93"/>
<text text-anchor="middle" x="224.5" y="-81" font-family="Helvetica,sans-Serif" font-size="10.00">ComovingDistance</text>
</a>
</g>
</g>
<!-- Node1&#45;&gt;Node2 -->
<g id="edge1_Node000001_Node000002" class="edge">
<title>Node1&#45;&gt;Node2</title>
<g id="a_edge1_Node000001_Node000002"><a xlink:title=" ">
<path fill="none" stroke="#63b8ff" d="M108.05,-56.03C128.01,-60.78 152.35,-66.57 173.53,-71.61"/>
<polygon fill="#63b8ff" stroke="#63b8ff" points="172.78,-75.03 183.32,-73.94 174.4,-68.22 172.78,-75.03"/>
</a>
</g>
</g>
<!-- Node4 -->
<g id="Node000004" class="node">
<title>Node4</title>
<g id="a_Node000004"><a xlink:href="cosmo_8c.html#ad002adbaf02b0fddeafc816d4b4f6c7e" target="_top" xlink:title=" ">
<polygon fill="white" stroke="#666666" points="277,-56 172,-56 172,-37 277,-37 277,-56"/>
<text text-anchor="middle" x="224.5" y="-44" font-family="Helvetica,sans-Serif" font-size="10.00">DiameterDistance</text>
</a>
</g>
</g>
<!-- Node1&#45;&gt;Node4 -->
<g id="edge3_Node000001_Node000004" class="edge">
<title>Node1&#45;&gt;Node4</title>
<g id="a_edge3_Node000001_Node000004"><a xlink:title=" ">
<path fill="none" stroke="#63b8ff" d="M134.4,-46.5C143.51,-46.5 152.84,-46.5 161.87,-46.5"/>
<polygon fill="#63b8ff" stroke="#63b8ff" points="161.9,-50 171.9,-46.5 161.9,-43 161.9,-50"/>
</a>
</g>
</g>
<!-- Node5 -->
<g id="Node000005" class="node">
<title>Node5</title>
<g id="a_Node000005"><a xlink:href="fmax_8c.html#a76000ea6ddfd81a9d6cf317d53f54378" target="_top" xlink:title=" ">
<polygon fill="white" stroke="#666666" points="245.5,-19 203.5,-19 203.5,0 245.5,0 245.5,-19"/>
<text text-anchor="middle" x="224.5" y="-7" font-family="Helvetica,sans-Serif" font-size="10.00">fdate</text>
</a>
</g>
</g>
<!-- Node1&#45;&gt;Node5 -->
<g id="edge5_Node000001_Node000005" class="edge">
<title>Node1&#45;&gt;Node5</title>
<g id="a_edge5_Node000001_Node000005"><a xlink:title=" ">
<path fill="none" stroke="#63b8ff" d="M108.05,-36.97C134.66,-30.64 169.05,-22.46 193.35,-16.67"/>
<polygon fill="#63b8ff" stroke="#63b8ff" points="194.18,-20.07 203.1,-14.35 192.56,-13.26 194.18,-20.07"/>
</a>
</g>
</g>
<!-- Node3 -->
<g id="Node000003" class="node">
<title>Node3</title>
<g id="a_Node000003"><a xlink:href="cosmo_8c.html#a6341f5394ed17a00dc77c5519b292ae3" target="_top" xlink:title=" ">
<polygon fill="white" stroke="#666666" points="408,-74 315,-74 315,-55 408,-55 408,-74"/>
<text text-anchor="middle" x="361.5" y="-62" font-family="Helvetica,sans-Serif" font-size="10.00">my_spline_eval</text>
</a>
</g>
</g>
<!-- Node2&#45;&gt;Node3 -->
<g id="edge2_Node000002_Node000003" class="edge">
<title>Node2&#45;&gt;Node3</title>
<g id="a_edge2_Node000002_Node000003"><a xlink:title=" ">
<path fill="none" stroke="#63b8ff" d="M279.24,-75.94C287.61,-74.76 296.27,-73.54 304.67,-72.36"/>
<polygon fill="#63b8ff" stroke="#63b8ff" points="305.36,-75.8 314.77,-70.94 304.38,-68.86 305.36,-75.8"/>
</a>
</g>
</g>
<!-- Node4&#45;&gt;Node3 -->
<g id="edge4_Node000004_Node000003" class="edge">
<title>Node4&#45;&gt;Node3</title>
<g id="a_edge4_Node000004_Node000003"><a xlink:title=" ">
<path fill="none" stroke="#63b8ff" d="M277.31,-53.41C286.28,-54.6 295.64,-55.85 304.7,-57.06"/>
<polygon fill="#63b8ff" stroke="#63b8ff" points="304.41,-60.55 314.78,-58.4 305.33,-53.61 304.41,-60.55"/>
</a>
</g>
</g>
</g>
</svg>
