<?xml version="1.0" encoding="UTF-8" standalone="no"?>
<!DOCTYPE svg PUBLIC "-//W3C//DTD SVG 1.1//EN"
 "http://www.w3.org/Graphics/SVG/1.1/DTD/svg11.dtd">
<!-- Generated by graphviz version 2.43.0 (0)
 -->
<!-- Title: mass_maps_cache_plc_basis_and_center Pages: 1 -->
<svg width="832pt" height="86pt"
 viewBox="0.00 0.00 832.00 86.00" xmlns="http://www.w3.org/2000/svg" xmlns:xlink="http://www.w3.org/1999/xlink">
<g id="graph0" class="graph" transform="scale(1 1) rotate(0) translate(4 82)">
<title>mass_maps_cache_plc_basis_and_center</title>
<!-- Node1 -->
<g id="Node000001" class="node">
<title>Node1</title>
<g id="a_Node000001"><a xlink:title=" ">
<polygon fill="#999999" stroke="#666666" points="824,-54 696,-54 696,-24 824,-24 824,-54"/>
<text text-anchor="start" x="704" y="-42" font-family="Helvetica,sans-Serif" font-size="10.00">mass_maps_cache_plc</text>
<text text-anchor="middle" x="760" y="-31" font-family="Helvetica,sans-Serif" font-size="10.00">_basis_and_center</text>
</a>
</g>
</g>
<!-- Node2 -->
<g id="Node000002" class="node">
<title>Node2</title>
<g id="a_Node000002"><a xlink:href="write__mass__maps_8c.html#a53755234b7745056e5c758c8f51c3515" target="_top" xlink:title=" ">
<polygon fill="white" stroke="#666666" points="660,-78 508,-78 508,-48 660,-48 660,-78"/>
<text text-anchor="start" x="516" y="-66" font-family="Helvetica,sans-Serif" font-size="10.00">mass_maps_compute_pixel</text>
<text text-anchor="middle" x="584" y="-55" font-family="Helvetica,sans-Serif" font-size="10.00">_from_pos</text>
</a>
</g>
</g>
<!-- Node1&#45;&gt;Node2 -->
<g id="edge1_Node000001_Node000002" class="edge">
<title>Node1&#45;&gt;Node2</title>
<g id="a_edge1_Node000001_Node000002"><a xlink:title=" ">
<path fill="none" stroke="#63b8ff" d="M685.53,-49.13C677.12,-50.29 668.53,-51.48 660.09,-52.64"/>
<polygon fill="#63b8ff" stroke="#63b8ff" points="686.26,-52.57 695.69,-47.73 685.31,-45.63 686.26,-52.57"/>
</a>
</g>
</g>
<!-- Node8 -->
<g id="Node000008" class="node">
<title>Node8</title>
<g id="a_Node000008"><a xlink:href="write__mass__maps_8c.html#ad6660de0d598455a5606246a5a4820a8" target="_top" xlink:title=" ">
<polygon fill="white" stroke="#666666" points="654,-30 514,-30 514,0 654,0 654,-30"/>
<text text-anchor="start" x="522" y="-18" font-family="Helvetica,sans-Serif" font-size="10.00">mass_maps_entry_inside</text>
<text text-anchor="middle" x="584" y="-7" font-family="Helvetica,sans-Serif" font-size="10.00">_aperture</text>
</a>
</g>
</g>
<!-- Node1&#45;&gt;Node8 -->
<g id="edge7_Node000001_Node000008" class="edge">
<title>Node1&#45;&gt;Node8</title>
<g id="a_edge7_Node000001_Node000008"><a xlink:title=" ">
<path fill="none" stroke="#63b8ff" d="M685.75,-28.9C675.28,-27.45 664.53,-25.97 654.14,-24.54"/>
<polygon fill="#63b8ff" stroke="#63b8ff" points="685.31,-32.37 695.69,-30.27 686.26,-25.43 685.31,-32.37"/>
</a>
</g>
</g>
<!-- Node3 -->
<g id="Node000003" class="node">
<title>Node3</title>
<g id="a_Node000003"><a xlink:href="write__mass__maps_8c.html#adfd3c893a6c64abb5d3294ce4e288678" target="_top" xlink:title=" ">
<polygon fill="white" stroke="#666666" points="457.5,-78 320.5,-78 320.5,-48 457.5,-48 457.5,-78"/>
<text text-anchor="start" x="328.5" y="-66" font-family="Helvetica,sans-Serif" font-size="10.00">mass_maps_accumulate</text>
<text text-anchor="middle" x="389" y="-55" font-family="Helvetica,sans-Serif" font-size="10.00">_entry_pos</text>
</a>
</g>
</g>
<!-- Node2&#45;&gt;Node3 -->
<g id="edge2_Node000002_Node000003" class="edge">
<title>Node2&#45;&gt;Node3</title>
<g id="a_edge2_Node000002_Node000003"><a xlink:title=" ">
<path fill="none" stroke="#63b8ff" d="M497.68,-63C484.3,-63 470.64,-63 457.73,-63"/>
<polygon fill="#63b8ff" stroke="#63b8ff" points="497.83,-66.5 507.83,-63 497.83,-59.5 497.83,-66.5"/>
</a>
</g>
</g>
<!-- Node4 -->
<g id="Node000004" class="node">
<title>Node4</title>
<g id="a_Node000004"><a xlink:href="write__mass__maps_8c.html#a523d76e3e01c2ce2c7d973cf5ad60cb6" target="_top" xlink:title=" ">
<polygon fill="white" stroke="#666666" points="472,-27.5 306,-27.5 306,-8.5 472,-8.5 472,-27.5"/>
<text text-anchor="middle" x="389" y="-15.5" font-family="Helvetica,sans-Serif" font-size="10.00">mass_maps_process_segment</text>
</a>
</g>
</g>
<!-- Node2&#45;&gt;Node4 -->
<g id="edge3_Node000002_Node000004" class="edge">
<title>Node2&#45;&gt;Node4</title>
<g id="a_edge3_Node000002_Node000004"><a xlink:title=" ">
<path fill="none" stroke="#63b8ff" d="M508.49,-45.63C482.1,-39.47 453.4,-32.78 430.86,-27.53"/>
<polygon fill="#63b8ff" stroke="#63b8ff" points="507.93,-49.09 518.47,-47.95 509.52,-42.27 507.93,-49.09"/>
</a>
</g>
</g>
<!-- Node5 -->
<g id="Node000005" class="node">
<title>Node5</title>
<g id="a_Node000005"><a xlink:href="fragment_8c.html#ac2bb250921932f90f7b0939d1181b66d" target="_top" xlink:title=" ">
<polygon fill="white" stroke="#666666" points="270,-27.5 208,-27.5 208,-8.5 270,-8.5 270,-27.5"/>
<text text-anchor="middle" x="239" y="-15.5" font-family="Helvetica,sans-Serif" font-size="10.00">fragment</text>
</a>
</g>
</g>
<!-- Node4&#45;&gt;Node5 -->
<g id="edge4_Node000004_Node000005" class="edge">
<title>Node4&#45;&gt;Node5</title>
<g id="a_edge4_Node000004_Node000005"><a xlink:title=" ">
<path fill="none" stroke="#63b8ff" d="M295.51,-18C286.54,-18 277.95,-18 270.33,-18"/>
<polygon fill="#63b8ff" stroke="#63b8ff" points="295.78,-21.5 305.78,-18 295.78,-14.5 295.78,-21.5"/>
</a>
</g>
</g>
<!-- Node6 -->
<g id="Node000006" class="node">
<title>Node6</title>
<g id="a_Node000006"><a xlink:href="fragment_8c.html#ae3aa75d17cbc170e60f4f48c4a2ffdf5" target="_top" xlink:title=" ">
<polygon fill="white" stroke="#666666" points="172,-27.5 77,-27.5 77,-8.5 172,-8.5 172,-27.5"/>
<text text-anchor="middle" x="124.5" y="-15.5" font-family="Helvetica,sans-Serif" font-size="10.00">fragment_driver</text>
</a>
</g>
</g>
<!-- Node5&#45;&gt;Node6 -->
<g id="edge5_Node000005_Node000006" class="edge">
<title>Node5&#45;&gt;Node6</title>
<g id="a_edge5_Node000005_Node000006"><a xlink:title=" ">
<path fill="none" stroke="#63b8ff" d="M197.73,-18C189.47,-18 180.72,-18 172.26,-18"/>
<polygon fill="#63b8ff" stroke="#63b8ff" points="197.85,-21.5 207.85,-18 197.85,-14.5 197.85,-21.5"/>
</a>
</g>
</g>
<!-- Node7 -->
<g id="Node000007" class="node">
<title>Node7</title>
<g id="a_Node000007"><a xlink:href="pinocchio_8c.html#a647f21a28344e1d9c643f4115516d7c9" target="_top" xlink:title=" ">
<polygon fill="white" stroke="#666666" points="41,-27.5 0,-27.5 0,-8.5 41,-8.5 41,-27.5"/>
<text text-anchor="middle" x="20.5" y="-15.5" font-family="Helvetica,sans-Serif" font-size="10.00">main</text>
</a>
</g>
</g>
<!-- Node6&#45;&gt;Node7 -->
<g id="edge6_Node000006_Node000007" class="edge">
<title>Node6&#45;&gt;Node7</title>
<g id="a_edge6_Node000006_Node000007"><a xlink:title=" ">
<path fill="none" stroke="#63b8ff" d="M66.91,-18C57.67,-18 48.67,-18 41.16,-18"/>
<polygon fill="#63b8ff" stroke="#63b8ff" points="66.98,-21.5 76.98,-18 66.98,-14.5 66.98,-21.5"/>
</a>
</g>
</g>
<!-- Node8&#45;&gt;Node4 -->
<g id="edge8_Node000008_Node000004" class="edge">
<title>Node8&#45;&gt;Node4</title>
<g id="a_edge8_Node000008_Node000004"><a xlink:title=" ">
<path fill="none" stroke="#63b8ff" d="M503.6,-16.23C493.22,-16.4 482.57,-16.56 472.15,-16.72"/>
<polygon fill="#63b8ff" stroke="#63b8ff" points="503.92,-19.73 513.87,-16.07 503.81,-12.73 503.92,-19.73"/>
</a>
</g>
</g>
</g>
</svg>
