<?xml version="1.0" encoding="UTF-8" standalone="no"?>
<!DOCTYPE svg PUBLIC "-//W3C//DTD SVG 1.1//EN"
 "http://www.w3.org/Graphics/SVG/1.1/DTD/svg11.dtd">
<!-- Generated by graphviz version 2.43.0 (0)
 -->
<!-- Title: compute_mf Pages: 1 -->
<svg width="662pt" height="215pt"
 viewBox="0.00 0.00 662.00 215.00" xmlns="http://www.w3.org/2000/svg" xmlns:xlink="http://www.w3.org/1999/xlink">
<g id="graph0" class="graph" transform="scale(1 1) rotate(0) translate(4 211)">
<title>compute_mf</title>
<!-- Node1 -->
<g id="Node000001" class="node">
<title>Node1</title>
<g id="a_Node000001"><a xlink:title=" ">
<polygon fill="#999999" stroke="#666666" points="78,-95 0,-95 0,-76 78,-76 78,-95"/>
<text text-anchor="middle" x="39" y="-83" font-family="Helvetica,sans-Serif" font-size="10.00">compute_mf</text>
</a>
</g>
</g>
<!-- Node2 -->
<g id="Node000002" class="node">
<title>Node2</title>
<g id="a_Node000002"><a xlink:href="cosmo_8c.html#a3e2faa009164fa657b79bf92bbfbb407" target="_top" xlink:title=" ">
<polygon fill="white" stroke="#666666" points="237,-133 114,-133 114,-114 237,-114 237,-133"/>
<text text-anchor="middle" x="175.5" y="-121" font-family="Helvetica,sans-Serif" font-size="10.00">AnalyticMassFunction</text>
</a>
</g>
</g>
<!-- Node1&#45;&gt;Node2 -->
<g id="edge1_Node000001_Node000002" class="edge">
<title>Node1&#45;&gt;Node2</title>
<g id="a_edge1_Node000001_Node000002"><a xlink:title=" ">
<path fill="none" stroke="#63b8ff" d="M73.94,-95.09C91.22,-99.97 112.43,-105.96 130.91,-111.18"/>
<polygon fill="#63b8ff" stroke="#63b8ff" points="130,-114.56 140.57,-113.91 131.9,-107.83 130,-114.56"/>
</a>
</g>
</g>
<!-- Node6 -->
<g id="Node000006" class="node">
<title>Node6</title>
<g id="a_Node000006"><a xlink:href="cosmo_8c.html#a9fbcf5b69c272e801cf320cf814b23c4" target="_top" xlink:title=" ">
<polygon fill="white" stroke="#666666" points="370.5,-207 286.5,-207 286.5,-188 370.5,-188 370.5,-207"/>
<text text-anchor="middle" x="328.5" y="-195" font-family="Helvetica,sans-Serif" font-size="10.00">GrowingMode</text>
</a>
</g>
</g>
<!-- Node1&#45;&gt;Node6 -->
<g id="edge12_Node000001_Node000006" class="edge">
<title>Node1&#45;&gt;Node6</title>
<g id="a_edge12_Node000001_Node000006"><a xlink:title=" ">
<path fill="none" stroke="#63b8ff" d="M49.65,-95.05C62.99,-107.73 88.35,-129.98 114,-142.5 166.33,-168.05 231.87,-182.66 276.44,-190.31"/>
<polygon fill="#63b8ff" stroke="#63b8ff" points="276.01,-193.78 286.45,-191.97 277.16,-186.88 276.01,-193.78"/>
</a>
</g>
</g>
<!-- Node8 -->
<g id="Node000008" class="node">
<title>Node8</title>
<g id="a_Node000008"><a xlink:href="cosmo_8c.html#aa47020606869257e46b3a4f9071504d0" target="_top" xlink:title=" ">
<polygon fill="white" stroke="#666666" points="370.5,-94 286.5,-94 286.5,-75 370.5,-75 370.5,-94"/>
<text text-anchor="middle" x="328.5" y="-82" font-family="Helvetica,sans-Serif" font-size="10.00">MassVariance</text>
</a>
</g>
</g>
<!-- Node1&#45;&gt;Node8 -->
<g id="edge13_Node000001_Node000008" class="edge">
<title>Node1&#45;&gt;Node8</title>
<g id="a_edge13_Node000001_Node000008"><a xlink:title=" ">
<path fill="none" stroke="#63b8ff" d="M78.18,-85.37C129.08,-85.19 219.35,-84.88 276.17,-84.68"/>
<polygon fill="#63b8ff" stroke="#63b8ff" points="276.39,-88.18 286.37,-84.64 276.36,-81.18 276.39,-88.18"/>
</a>
</g>
</g>
<!-- Node9 -->
<g id="Node000009" class="node">
<title>Node9</title>
<g id="a_Node000009"><a xlink:href="cosmo_8c.html#a66b5b059ca665289d407e13f98e6ff9a" target="_top" xlink:title=" ">
<polygon fill="white" stroke="#666666" points="367,-57 290,-57 290,-38 367,-38 367,-57"/>
<text text-anchor="middle" x="328.5" y="-45" font-family="Helvetica,sans-Serif" font-size="10.00">SizeForMass</text>
</a>
</g>
</g>
<!-- Node1&#45;&gt;Node9 -->
<g id="edge14_Node000001_Node000009" class="edge">
<title>Node1&#45;&gt;Node9</title>
<g id="a_edge14_Node000001_Node000009"><a xlink:title=" ">
<path fill="none" stroke="#63b8ff" d="M78.18,-80.45C130.09,-73.59 222.93,-61.32 279.5,-53.84"/>
<polygon fill="#63b8ff" stroke="#63b8ff" points="280.17,-57.29 289.62,-52.51 279.25,-50.35 280.17,-57.29"/>
</a>
</g>
</g>
<!-- Node10 -->
<g id="Node000010" class="node">
<title>Node10</title>
<g id="a_Node000010"><a xlink:href="fmax_8c.html#a76000ea6ddfd81a9d6cf317d53f54378" target="_top" xlink:title=" ">
<polygon fill="white" stroke="#666666" points="196.5,-19 154.5,-19 154.5,0 196.5,0 196.5,-19"/>
<text text-anchor="middle" x="175.5" y="-7" font-family="Helvetica,sans-Serif" font-size="10.00">fdate</text>
</a>
</g>
</g>
<!-- Node1&#45;&gt;Node10 -->
<g id="edge11_Node000001_Node000010" class="edge">
<title>Node1&#45;&gt;Node10</title>
<g id="a_edge11_Node000001_Node000010"><a xlink:title=" ">
<path fill="none" stroke="#63b8ff" d="M51.99,-75.73C66.17,-64.51 90.79,-46.03 114,-33.5 123.69,-28.27 134.78,-23.54 144.79,-19.69"/>
<polygon fill="#63b8ff" stroke="#63b8ff" points="146.19,-22.9 154.35,-16.15 143.76,-16.34 146.19,-22.9"/>
</a>
</g>
</g>
<!-- Node3 -->
<g id="Node000003" class="node">
<title>Node3</title>
<g id="a_Node000003"><a xlink:href="cosmo_8c.html#a7e6c85650740115e3cf73cca408cfc5a" target="_top" xlink:title=" ">
<polygon fill="white" stroke="#666666" points="525,-169 420,-169 420,-150 525,-150 525,-169"/>
<text text-anchor="middle" x="472.5" y="-157" font-family="Helvetica,sans-Serif" font-size="10.00">dMassVariance_dr</text>
</a>
</g>
</g>
<!-- Node2&#45;&gt;Node3 -->
<g id="edge2_Node000002_Node000003" class="edge">
<title>Node2&#45;&gt;Node3</title>
<g id="a_edge2_Node000002_Node000003"><a xlink:title=" ">
<path fill="none" stroke="#63b8ff" d="M226.47,-133.08C241.4,-135.73 257.83,-138.44 273,-140.5 318.66,-146.7 370.5,-151.59 409.75,-154.85"/>
<polygon fill="#63b8ff" stroke="#63b8ff" points="409.71,-158.36 419.96,-155.69 410.28,-151.38 409.71,-158.36"/>
</a>
</g>
</g>
<!-- Node5 -->
<g id="Node000005" class="node">
<title>Node5</title>
<g id="a_Node000005"><a xlink:href="cosmo_8c.html#a673892897db42773951bd46f397f914b" target="_top" xlink:title=" ">
<polygon fill="white" stroke="#666666" points="384,-131 273,-131 273,-112 384,-112 384,-131"/>
<text text-anchor="middle" x="328.5" y="-119" font-family="Helvetica,sans-Serif" font-size="10.00">dOmega_dVariance</text>
</a>
</g>
</g>
<!-- Node2&#45;&gt;Node5 -->
<g id="edge4_Node000002_Node000005" class="edge">
<title>Node2&#45;&gt;Node5</title>
<g id="a_edge4_Node000002_Node000005"><a xlink:title=" ">
<path fill="none" stroke="#63b8ff" d="M237.05,-122.7C245.45,-122.59 254.1,-122.47 262.58,-122.36"/>
<polygon fill="#63b8ff" stroke="#63b8ff" points="262.85,-125.86 272.8,-122.22 262.75,-118.86 262.85,-125.86"/>
</a>
</g>
</g>
<!-- Node2&#45;&gt;Node6 -->
<g id="edge5_Node000002_Node000006" class="edge">
<title>Node2&#45;&gt;Node6</title>
<g id="a_edge5_Node000002_Node000006"><a xlink:title=" ">
<path fill="none" stroke="#63b8ff" d="M194.12,-133.05C213.33,-143.38 245.09,-160.14 273,-173.5 280.12,-176.91 287.83,-180.41 295.16,-183.66"/>
<polygon fill="#63b8ff" stroke="#63b8ff" points="294.25,-187.08 304.82,-187.89 297.06,-180.67 294.25,-187.08"/>
</a>
</g>
</g>
<!-- Node2&#45;&gt;Node8 -->
<g id="edge8_Node000002_Node000008" class="edge">
<title>Node2&#45;&gt;Node8</title>
<g id="a_edge8_Node000002_Node000008"><a xlink:title=" ">
<path fill="none" stroke="#63b8ff" d="M213.44,-113.96C233.71,-108.72 259.06,-102.18 280.71,-96.58"/>
<polygon fill="#63b8ff" stroke="#63b8ff" points="281.87,-99.9 290.68,-94.01 280.12,-93.12 281.87,-99.9"/>
</a>
</g>
</g>
<!-- Node2&#45;&gt;Node9 -->
<g id="edge10_Node000002_Node000009" class="edge">
<title>Node2&#45;&gt;Node9</title>
<g id="a_edge10_Node000002_Node000009"><a xlink:title=" ">
<path fill="none" stroke="#63b8ff" d="M190.34,-113.82C208.62,-101.38 242.09,-79.68 273,-65.5 276.82,-63.75 280.86,-62.08 284.95,-60.53"/>
<polygon fill="#63b8ff" stroke="#63b8ff" points="286.25,-63.78 294.48,-57.1 283.88,-57.19 286.25,-63.78"/>
</a>
</g>
</g>
<!-- Node4 -->
<g id="Node000004" class="node">
<title>Node4</title>
<g id="a_Node000004"><a xlink:href="cosmo_8c.html#a6341f5394ed17a00dc77c5519b292ae3" target="_top" xlink:title=" ">
<polygon fill="white" stroke="#666666" points="654,-169 561,-169 561,-150 654,-150 654,-169"/>
<text text-anchor="middle" x="607.5" y="-157" font-family="Helvetica,sans-Serif" font-size="10.00">my_spline_eval</text>
</a>
</g>
</g>
<!-- Node3&#45;&gt;Node4 -->
<g id="edge3_Node000003_Node000004" class="edge">
<title>Node3&#45;&gt;Node4</title>
<g id="a_edge3_Node000003_Node000004"><a xlink:title=" ">
<path fill="none" stroke="#63b8ff" d="M525.3,-159.5C533.6,-159.5 542.22,-159.5 550.6,-159.5"/>
<polygon fill="#63b8ff" stroke="#63b8ff" points="550.68,-163 560.68,-159.5 550.68,-156 550.68,-163"/>
</a>
</g>
</g>
<!-- Node7 -->
<g id="Node000007" class="node">
<title>Node7</title>
<g id="a_Node000007"><a xlink:href="cosmo_8c.html#a8847e5b8ea1f9c458c8bf9e5f36837a9" target="_top" xlink:title=" ">
<polygon fill="white" stroke="#666666" points="525,-206 420,-206 420,-187 525,-187 525,-206"/>
<text text-anchor="middle" x="472.5" y="-194" font-family="Helvetica,sans-Serif" font-size="10.00">InterpolateGrowth</text>
</a>
</g>
</g>
<!-- Node6&#45;&gt;Node7 -->
<g id="edge6_Node000006_Node000007" class="edge">
<title>Node6&#45;&gt;Node7</title>
<g id="a_edge6_Node000006_Node000007"><a xlink:title=" ">
<path fill="none" stroke="#63b8ff" d="M370.57,-197.21C382.84,-197.12 396.57,-197.03 409.86,-196.93"/>
<polygon fill="#63b8ff" stroke="#63b8ff" points="409.93,-200.43 419.9,-196.86 409.88,-193.43 409.93,-200.43"/>
</a>
</g>
</g>
<!-- Node7&#45;&gt;Node4 -->
<g id="edge7_Node000007_Node000004" class="edge">
<title>Node7&#45;&gt;Node4</title>
<g id="a_edge7_Node000007_Node000004"><a xlink:title=" ">
<path fill="none" stroke="#63b8ff" d="M507.75,-186.97C524.22,-182.39 544.18,-176.84 561.82,-171.93"/>
<polygon fill="#63b8ff" stroke="#63b8ff" points="563.21,-175.18 571.9,-169.12 561.33,-168.43 563.21,-175.18"/>
</a>
</g>
</g>
<!-- Node8&#45;&gt;Node4 -->
<g id="edge9_Node000008_Node000004" class="edge">
<title>Node8&#45;&gt;Node4</title>
<g id="a_edge9_Node000008_Node000004"><a xlink:title=" ">
<path fill="none" stroke="#63b8ff" d="M364.86,-94.07C414.98,-107.64 506.66,-132.47 561.55,-147.33"/>
<polygon fill="#63b8ff" stroke="#63b8ff" points="560.78,-150.75 571.35,-149.98 562.61,-143.99 560.78,-150.75"/>
</a>
</g>
</g>
</g>
</svg>
