<?xml version="1.0" encoding="UTF-8" standalone="no"?>
<!DOCTYPE svg PUBLIC "-//W3C//DTD SVG 1.1//EN"
 "http://www.w3.org/Graphics/SVG/1.1/DTD/svg11.dtd">
<!-- Generated by graphviz version 2.43.0 (0)
 -->
<!-- Title: my_strcpy Pages: 1 -->
<svg width="692pt" height="508pt"
 viewBox="0.00 0.00 692.00 508.00" xmlns="http://www.w3.org/2000/svg" xmlns:xlink="http://www.w3.org/1999/xlink">
<g id="graph0" class="graph" transform="scale(1 1) rotate(0) translate(4 504)">
<title>my_strcpy</title>
<!-- Node1 -->
<g id="Node000001" class="node">
<title>Node1</title>
<g id="a_Node000001"><a xlink:title=" ">
<polygon fill="#999999" stroke="#666666" points="684,-259 616,-259 616,-240 684,-240 684,-259"/>
<text text-anchor="middle" x="650" y="-247" font-family="Helvetica,sans-Serif" font-size="10.00">my_strcpy</text>
</a>
</g>
</g>
<!-- Node2 -->
<g id="Node000002" class="node">
<title>Node2</title>
<g id="a_Node000002"><a xlink:href="write__snapshot_8c.html#afd4a5dd053ee9721839542a30b752cf0" target="_top" xlink:title=" ">
<polygon fill="white" stroke="#666666" points="567,-426 493,-426 493,-407 567,-407 567,-426"/>
<text text-anchor="middle" x="530" y="-414" font-family="Helvetica,sans-Serif" font-size="10.00">add_to_info</text>
</a>
</g>
</g>
<!-- Node1&#45;&gt;Node2 -->
<g id="edge1_Node000001_Node000002" class="edge">
<title>Node1&#45;&gt;Node2</title>
<g id="a_edge1_Node000001_Node000002"><a xlink:title=" ">
<path fill="none" stroke="#63b8ff" d="M645,-269.15C637.6,-300.7 618.83,-362.71 580,-398.5 576.27,-401.94 571.82,-404.74 567.16,-407"/>
<polygon fill="#63b8ff" stroke="#63b8ff" points="648.5,-269.53 647.23,-259.01 641.66,-268.03 648.5,-269.53"/>
</a>
</g>
</g>
<!-- Node9 -->
<g id="Node000009" class="node">
<title>Node9</title>
<g id="a_Node000009"><a xlink:href="write__snapshot_8c.html#a45f4e269c07d33bc503a05bec511494f" target="_top" xlink:title=" ">
<polygon fill="white" stroke="#666666" points="573.5,-278 486.5,-278 486.5,-259 573.5,-259 573.5,-278"/>
<text text-anchor="middle" x="530" y="-266" font-family="Helvetica,sans-Serif" font-size="10.00">initialize_2LPT</text>
</a>
</g>
</g>
<!-- Node1&#45;&gt;Node9 -->
<g id="edge10_Node000001_Node000009" class="edge">
<title>Node1&#45;&gt;Node9</title>
<g id="a_edge10_Node000001_Node000009"><a xlink:title=" ">
<path fill="none" stroke="#63b8ff" d="M605.66,-256.48C595.21,-258.16 584.06,-259.96 573.64,-261.63"/>
<polygon fill="#63b8ff" stroke="#63b8ff" points="606.5,-259.89 615.82,-254.84 605.39,-252.98 606.5,-259.89"/>
</a>
</g>
</g>
<!-- Node10 -->
<g id="Node000010" class="node">
<title>Node10</title>
<g id="a_Node000010"><a xlink:href="write__snapshot_8c.html#ad9d6a3ed58465757cd9729602aec29d3" target="_top" xlink:title=" ">
<polygon fill="white" stroke="#666666" points="579,-241 481,-241 481,-222 579,-222 579,-241"/>
<text text-anchor="middle" x="530" y="-229" font-family="Helvetica,sans-Serif" font-size="10.00">initialize_3LPT_1</text>
</a>
</g>
</g>
<!-- Node1&#45;&gt;Node10 -->
<g id="edge12_Node000001_Node000010" class="edge">
<title>Node1&#45;&gt;Node10</title>
<g id="a_edge12_Node000001_Node000010"><a xlink:title=" ">
<path fill="none" stroke="#63b8ff" d="M605.66,-242.89C597.1,-241.58 588.06,-240.2 579.35,-238.88"/>
<polygon fill="#63b8ff" stroke="#63b8ff" points="605.4,-246.39 615.82,-244.44 606.46,-239.47 605.4,-246.39"/>
</a>
</g>
</g>
<!-- Node11 -->
<g id="Node000011" class="node">
<title>Node11</title>
<g id="a_Node000011"><a xlink:href="write__snapshot_8c.html#a9a846f64fedb26d80bfbc6a984e1e9b6" target="_top" xlink:title=" ">
<polygon fill="white" stroke="#666666" points="579,-204 481,-204 481,-185 579,-185 579,-204"/>
<text text-anchor="middle" x="530" y="-192" font-family="Helvetica,sans-Serif" font-size="10.00">initialize_3LPT_2</text>
</a>
</g>
</g>
<!-- Node1&#45;&gt;Node11 -->
<g id="edge14_Node000001_Node000011" class="edge">
<title>Node1&#45;&gt;Node11</title>
<g id="a_edge14_Node000001_Node000011"><a xlink:title=" ">
<path fill="none" stroke="#63b8ff" d="M623.84,-234.91C610.94,-227.72 594.87,-219.18 580,-212.5 573.3,-209.49 565.94,-206.59 559,-204.02"/>
<polygon fill="#63b8ff" stroke="#63b8ff" points="622.17,-237.99 632.6,-239.86 625.61,-231.89 622.17,-237.99"/>
</a>
</g>
</g>
<!-- Node12 -->
<g id="Node000012" class="node">
<title>Node12</title>
<g id="a_Node000012"><a xlink:href="write__snapshot_8c.html#aaa1318b52e76d77f6ece13495d6cf8b4" target="_top" xlink:title=" ">
<polygon fill="white" stroke="#666666" points="580,-389 480,-389 480,-370 580,-370 580,-389"/>
<text text-anchor="middle" x="530" y="-377" font-family="Helvetica,sans-Serif" font-size="10.00">initialize_density</text>
</a>
</g>
</g>
<!-- Node1&#45;&gt;Node12 -->
<g id="edge16_Node000001_Node000012" class="edge">
<title>Node1&#45;&gt;Node12</title>
<g id="a_edge16_Node000001_Node000012"><a xlink:title=" ">
<path fill="none" stroke="#63b8ff" d="M641.67,-268.56C631.38,-293.02 610.41,-335.28 580,-360.5 575.36,-364.34 569.86,-367.47 564.25,-369.99"/>
<polygon fill="#63b8ff" stroke="#63b8ff" points="644.93,-269.85 645.43,-259.27 638.44,-267.23 644.93,-269.85"/>
</a>
</g>
</g>
<!-- Node13 -->
<g id="Node000013" class="node">
<title>Node13</title>
<g id="a_Node000013"><a xlink:href="write__snapshot_8c.html#ad9f93009dec953ea766c2e913c90e371" target="_top" xlink:title=" ">
<polygon fill="white" stroke="#666666" points="576,-167 484,-167 484,-148 576,-148 576,-167"/>
<text text-anchor="middle" x="530" y="-155" font-family="Helvetica,sans-Serif" font-size="10.00">initialize_FMAX</text>
</a>
</g>
</g>
<!-- Node1&#45;&gt;Node13 -->
<g id="edge18_Node000001_Node000013" class="edge">
<title>Node1&#45;&gt;Node13</title>
<g id="a_edge18_Node000001_Node000013"><a xlink:title=" ">
<path fill="none" stroke="#63b8ff" d="M636.32,-231.68C623.7,-215.11 602.96,-190.75 580,-175.5 575.02,-172.19 569.35,-169.39 563.67,-167.06"/>
<polygon fill="#63b8ff" stroke="#63b8ff" points="633.69,-234.02 642.45,-239.98 639.32,-229.86 633.69,-234.02"/>
</a>
</g>
</g>
<!-- Node14 -->
<g id="Node000014" class="node">
<title>Node14</title>
<g id="a_Node000014"><a xlink:href="write__snapshot_8c.html#a61d88b1150a6fc4154823dcc901df879" target="_top" xlink:title=" ">
<polygon fill="white" stroke="#666666" points="576,-130 484,-130 484,-111 576,-111 576,-130"/>
<text text-anchor="middle" x="530" y="-118" font-family="Helvetica,sans-Serif" font-size="10.00">initialize_GRUP</text>
</a>
</g>
</g>
<!-- Node1&#45;&gt;Node14 -->
<g id="edge20_Node000001_Node000014" class="edge">
<title>Node1&#45;&gt;Node14</title>
<g id="a_edge20_Node000001_Node000014"><a xlink:title=" ">
<path fill="none" stroke="#63b8ff" d="M641.74,-230.36C631.52,-205.81 610.64,-163.45 580,-138.5 575.85,-135.12 571.02,-132.35 566.03,-130.07"/>
<polygon fill="#63b8ff" stroke="#63b8ff" points="638.51,-231.69 645.47,-239.68 645.01,-229.1 638.51,-231.69"/>
</a>
</g>
</g>
<!-- Node15 -->
<g id="Node000015" class="node">
<title>Node15</title>
<g id="a_Node000015"><a xlink:href="write__snapshot_8c.html#afa82e3a96bc195a8664fc3bd30ccb86a" target="_top" xlink:title=" ">
<polygon fill="white" stroke="#666666" points="567,-352 493,-352 493,-333 567,-333 567,-352"/>
<text text-anchor="middle" x="530" y="-340" font-family="Helvetica,sans-Serif" font-size="10.00">initialize_ID</text>
</a>
</g>
</g>
<!-- Node1&#45;&gt;Node15 -->
<g id="edge22_Node000001_Node000015" class="edge">
<title>Node1&#45;&gt;Node15</title>
<g id="a_edge22_Node000001_Node000015"><a xlink:title=" ">
<path fill="none" stroke="#63b8ff" d="M635.84,-267.76C623.15,-284.25 602.58,-308.21 580,-323.5 574.48,-327.23 568.13,-330.38 561.86,-332.98"/>
<polygon fill="#63b8ff" stroke="#63b8ff" points="638.86,-269.57 642.05,-259.47 633.25,-265.38 638.86,-269.57"/>
</a>
</g>
</g>
<!-- Node16 -->
<g id="Node000016" class="node">
<title>Node16</title>
<g id="a_Node000016"><a xlink:href="write__snapshot_8c.html#a6bb3d06014857a033da0cd90d4e9737d" target="_top" xlink:title=" ">
<polygon fill="white" stroke="#666666" points="571.5,-463 488.5,-463 488.5,-444 571.5,-444 571.5,-463"/>
<text text-anchor="middle" x="530" y="-451" font-family="Helvetica,sans-Serif" font-size="10.00">initialize_POS</text>
</a>
</g>
</g>
<!-- Node1&#45;&gt;Node16 -->
<g id="edge26_Node000001_Node000016" class="edge">
<title>Node1&#45;&gt;Node16</title>
<g id="a_edge26_Node000001_Node000016"><a xlink:title=" ">
<path fill="none" stroke="#63b8ff" d="M647.08,-269.2C642.39,-306.66 627.09,-388.56 580,-435.5 576.66,-438.83 572.66,-441.55 568.4,-443.76"/>
<polygon fill="#63b8ff" stroke="#63b8ff" points="650.57,-269.42 648.21,-259.1 643.62,-268.64 650.57,-269.42"/>
</a>
</g>
</g>
<!-- Node17 -->
<g id="Node000017" class="node">
<title>Node17</title>
<g id="a_Node000017"><a xlink:href="write__snapshot_8c.html#a800a985a56fa47036e60a74de60ef74b" target="_top" xlink:title=" ">
<polygon fill="white" stroke="#666666" points="576.5,-93 483.5,-93 483.5,-74 576.5,-74 576.5,-93"/>
<text text-anchor="middle" x="530" y="-81" font-family="Helvetica,sans-Serif" font-size="10.00">initialize_RMAX</text>
</a>
</g>
</g>
<!-- Node1&#45;&gt;Node17 -->
<g id="edge28_Node000001_Node000017" class="edge">
<title>Node1&#45;&gt;Node17</title>
<g id="a_edge28_Node000001_Node000017"><a xlink:title=" ">
<path fill="none" stroke="#63b8ff" d="M644.85,-229.53C637.32,-198.05 618.48,-136.87 580,-101.5 576.26,-98.07 571.82,-95.27 567.15,-93"/>
<polygon fill="#63b8ff" stroke="#63b8ff" points="641.53,-230.68 647.13,-239.67 648.36,-229.15 641.53,-230.68"/>
</a>
</g>
</g>
<!-- Node18 -->
<g id="Node000018" class="node">
<title>Node18</title>
<g id="a_Node000018"><a xlink:href="write__snapshot_8c.html#a98560c17ca241d13c44b9358a7723d00" target="_top" xlink:title=" ">
<polygon fill="white" stroke="#666666" points="571,-500 489,-500 489,-481 571,-481 571,-500"/>
<text text-anchor="middle" x="530" y="-488" font-family="Helvetica,sans-Serif" font-size="10.00">initialize_VEL</text>
</a>
</g>
</g>
<!-- Node1&#45;&gt;Node18 -->
<g id="edge30_Node000001_Node000018" class="edge">
<title>Node1&#45;&gt;Node18</title>
<g id="a_edge30_Node000001_Node000018"><a xlink:title=" ">
<path fill="none" stroke="#63b8ff" d="M648.51,-269.19C646.4,-311.93 635.46,-414.08 580,-472.5 576.76,-475.92 572.81,-478.69 568.58,-480.94"/>
<polygon fill="#63b8ff" stroke="#63b8ff" points="652.02,-269.13 648.9,-259.01 645.02,-268.87 652.02,-269.13"/>
</a>
</g>
</g>
<!-- Node19 -->
<g id="Node000019" class="node">
<title>Node19</title>
<g id="a_Node000019"><a xlink:href="write__snapshot_8c.html#a562a17b4aae969e6a084035a64815d7d" target="_top" xlink:title=" ">
<polygon fill="white" stroke="#666666" points="575.5,-56 484.5,-56 484.5,-37 575.5,-37 575.5,-56"/>
<text text-anchor="middle" x="530" y="-44" font-family="Helvetica,sans-Serif" font-size="10.00">initialize_ZACC</text>
</a>
</g>
</g>
<!-- Node1&#45;&gt;Node19 -->
<g id="edge32_Node000001_Node000019" class="edge">
<title>Node1&#45;&gt;Node19</title>
<g id="a_edge32_Node000001_Node000019"><a xlink:title=" ">
<path fill="none" stroke="#63b8ff" d="M647.04,-229.9C642.31,-192.64 626.9,-111.17 580,-64.5 576.66,-61.18 572.65,-58.46 568.39,-56.24"/>
<polygon fill="#63b8ff" stroke="#63b8ff" points="643.58,-230.42 648.19,-239.95 650.53,-229.62 643.58,-230.42"/>
</a>
</g>
</g>
<!-- Node20 -->
<g id="Node000020" class="node">
<title>Node20</title>
<g id="a_Node000020"><a xlink:href="write__snapshot_8c.html#a3b85a526b0917f232a78b2ef1bf6c60d" target="_top" xlink:title=" ">
<polygon fill="white" stroke="#666666" points="571,-19 489,-19 489,0 571,0 571,-19"/>
<text text-anchor="middle" x="530" y="-7" font-family="Helvetica,sans-Serif" font-size="10.00">initialize_ZEL</text>
</a>
</g>
</g>
<!-- Node1&#45;&gt;Node20 -->
<g id="edge34_Node000001_Node000020" class="edge">
<title>Node1&#45;&gt;Node20</title>
<g id="a_edge34_Node000001_Node000020"><a xlink:title=" ">
<path fill="none" stroke="#63b8ff" d="M648.45,-229.31C646.21,-186.4 635.02,-85.38 580,-27.5 576.75,-24.08 572.8,-21.31 568.57,-19.07"/>
<polygon fill="#63b8ff" stroke="#63b8ff" points="644.97,-229.71 648.87,-239.56 651.96,-229.43 644.97,-229.71"/>
</a>
</g>
</g>
<!-- Node21 -->
<g id="Node000021" class="node">
<title>Node21</title>
<g id="a_Node000021"><a xlink:href="write__snapshot_8c.html#a3c9df4707b30f92866f3fc1cda9f22f9" target="_top" xlink:title=" ">
<polygon fill="white" stroke="#666666" points="578.5,-315 481.5,-315 481.5,-296 578.5,-296 578.5,-315"/>
<text text-anchor="middle" x="530" y="-303" font-family="Helvetica,sans-Serif" font-size="10.00">write_info_block</text>
</a>
</g>
</g>
<!-- Node1&#45;&gt;Node21 -->
<g id="edge36_Node000001_Node000021" class="edge">
<title>Node1&#45;&gt;Node21</title>
<g id="a_edge36_Node000001_Node000021"><a xlink:title=" ">
<path fill="none" stroke="#63b8ff" d="M623.78,-263.98C610.88,-271.14 594.81,-279.69 580,-286.5 572.79,-289.82 564.82,-293.07 557.44,-295.93"/>
<polygon fill="#63b8ff" stroke="#63b8ff" points="625.55,-267 632.56,-259.05 622.12,-260.9 625.55,-267"/>
</a>
</g>
</g>
<!-- Node3 -->
<g id="Node000003" class="node">
<title>Node3</title>
<g id="a_Node000003"><a xlink:href="write__snapshot_8c.html#ac428cde59af630b76cb05230ce4b7a65" target="_top" xlink:title=" ">
<polygon fill="white" stroke="#666666" points="416.5,-356 333.5,-356 333.5,-337 416.5,-337 416.5,-356"/>
<text text-anchor="middle" x="375" y="-344" font-family="Helvetica,sans-Serif" font-size="10.00">write_density</text>
</a>
</g>
</g>
<!-- Node2&#45;&gt;Node3 -->
<g id="edge2_Node000002_Node000003" class="edge">
<title>Node2&#45;&gt;Node3</title>
<g id="a_edge2_Node000002_Node000003"><a xlink:title=" ">
<path fill="none" stroke="#63b8ff" d="M491.94,-403.39C487.88,-401.8 483.84,-400.16 480,-398.5 449.05,-385.13 414.22,-367.07 393.75,-356.14"/>
<polygon fill="#63b8ff" stroke="#63b8ff" points="490.72,-406.67 501.32,-406.94 493.21,-400.12 490.72,-406.67"/>
</a>
</g>
</g>
<!-- Node5 -->
<g id="Node000005" class="node">
<title>Node5</title>
<g id="a_Node000005"><a xlink:href="write__snapshot_8c.html#a33e7e3a2533d63c37d22a7458b9502ae" target="_top" xlink:title=" ">
<polygon fill="white" stroke="#666666" points="431.5,-421 318.5,-421 318.5,-402 431.5,-402 431.5,-421"/>
<text text-anchor="middle" x="375" y="-409" font-family="Helvetica,sans-Serif" font-size="10.00">write_LPT_snapshot</text>
</a>
</g>
</g>
<!-- Node2&#45;&gt;Node5 -->
<g id="edge4_Node000002_Node000005" class="edge">
<title>Node2&#45;&gt;Node5</title>
<g id="a_edge4_Node000002_Node000005"><a xlink:title=" ">
<path fill="none" stroke="#63b8ff" d="M482.55,-414.98C466.54,-414.46 448.43,-413.87 431.75,-413.32"/>
<polygon fill="#63b8ff" stroke="#63b8ff" points="482.63,-418.49 492.74,-415.32 482.86,-411.49 482.63,-418.49"/>
</a>
</g>
</g>
<!-- Node6 -->
<g id="Node000006" class="node">
<title>Node6</title>
<g id="a_Node000006"><a xlink:href="write__snapshot_8c.html#a8c7aa0495811b3720038a3f24a45232b" target="_top" xlink:title=" ">
<polygon fill="white" stroke="#666666" points="444,-218 306,-218 306,-199 444,-199 444,-218"/>
<text text-anchor="middle" x="375" y="-206" font-family="Helvetica,sans-Serif" font-size="10.00">write_timeless_snapshot</text>
</a>
</g>
</g>
<!-- Node2&#45;&gt;Node6 -->
<g id="edge6_Node000002_Node000006" class="edge">
<title>Node2&#45;&gt;Node6</title>
<g id="a_edge6_Node000002_Node000006"><a xlink:title=" ">
<path fill="none" stroke="#63b8ff" d="M484.13,-401.76C482.69,-400.75 481.3,-399.66 480,-398.5 453.56,-374.99 460.78,-358.65 444,-327.5 421.88,-286.44 393.77,-238.5 381.81,-218.28"/>
<polygon fill="#63b8ff" stroke="#63b8ff" points="482.55,-404.89 492.95,-406.88 486.06,-398.84 482.55,-404.89"/>
</a>
</g>
</g>
<!-- Node4 -->
<g id="Node000004" class="node">
<title>Node4</title>
<g id="a_Node000004"><a xlink:href="pinocchio_8c.html#a647f21a28344e1d9c643f4115516d7c9" target="_top" xlink:title=" ">
<polygon fill="white" stroke="#666666" points="41,-356 0,-356 0,-337 41,-337 41,-356"/>
<text text-anchor="middle" x="20.5" y="-344" font-family="Helvetica,sans-Serif" font-size="10.00">main</text>
</a>
</g>
</g>
<!-- Node3&#45;&gt;Node4 -->
<g id="edge3_Node000003_Node000004" class="edge">
<title>Node3&#45;&gt;Node4</title>
<g id="a_edge3_Node000003_Node000004"><a xlink:title=" ">
<path fill="none" stroke="#63b8ff" d="M322.98,-346.5C243.69,-346.5 94.48,-346.5 41.1,-346.5"/>
<polygon fill="#63b8ff" stroke="#63b8ff" points="323.22,-350 333.22,-346.5 323.22,-343 323.22,-350"/>
</a>
</g>
</g>
<!-- Node5&#45;&gt;Node4 -->
<g id="edge5_Node000005_Node000004" class="edge">
<title>Node5&#45;&gt;Node4</title>
<g id="a_edge5_Node000005_Node000004"><a xlink:title=" ">
<path fill="none" stroke="#63b8ff" d="M308.32,-401.71C247.95,-392.36 156.11,-377.24 77,-360.5 65.04,-357.97 51.76,-354.64 41.19,-351.86"/>
<polygon fill="#63b8ff" stroke="#63b8ff" points="308.06,-405.21 318.47,-403.27 309.12,-398.29 308.06,-405.21"/>
</a>
</g>
</g>
<!-- Node7 -->
<g id="Node000007" class="node">
<title>Node7</title>
<g id="a_Node000007"><a xlink:href="fragment_8c.html#ac2bb250921932f90f7b0939d1181b66d" target="_top" xlink:title=" ">
<polygon fill="white" stroke="#666666" points="270,-236 208,-236 208,-217 270,-217 270,-236"/>
<text text-anchor="middle" x="239" y="-224" font-family="Helvetica,sans-Serif" font-size="10.00">fragment</text>
</a>
</g>
</g>
<!-- Node6&#45;&gt;Node7 -->
<g id="edge7_Node000006_Node000007" class="edge">
<title>Node6&#45;&gt;Node7</title>
<g id="a_edge7_Node000006_Node000007"><a xlink:title=" ">
<path fill="none" stroke="#63b8ff" d="M295.87,-218.99C286.77,-220.22 277.96,-221.4 270.12,-222.45"/>
<polygon fill="#63b8ff" stroke="#63b8ff" points="296.38,-222.46 305.82,-217.66 295.45,-215.52 296.38,-222.46"/>
</a>
</g>
</g>
<!-- Node8 -->
<g id="Node000008" class="node">
<title>Node8</title>
<g id="a_Node000008"><a xlink:href="fragment_8c.html#ae3aa75d17cbc170e60f4f48c4a2ffdf5" target="_top" xlink:title=" ">
<polygon fill="white" stroke="#666666" points="172,-291 77,-291 77,-272 172,-272 172,-291"/>
<text text-anchor="middle" x="124.5" y="-279" font-family="Helvetica,sans-Serif" font-size="10.00">fragment_driver</text>
</a>
</g>
</g>
<!-- Node7&#45;&gt;Node8 -->
<g id="edge8_Node000007_Node000008" class="edge">
<title>Node7&#45;&gt;Node8</title>
<g id="a_edge8_Node000007_Node000008"><a xlink:title=" ">
<path fill="none" stroke="#63b8ff" d="M209.4,-240.48C189.33,-250.29 163.02,-263.16 145.25,-271.84"/>
<polygon fill="#63b8ff" stroke="#63b8ff" points="210.96,-243.62 218.4,-236.08 207.88,-237.33 210.96,-243.62"/>
</a>
</g>
</g>
<!-- Node8&#45;&gt;Node4 -->
<g id="edge9_Node000008_Node000004" class="edge">
<title>Node8&#45;&gt;Node4</title>
<g id="a_edge9_Node000008_Node000004"><a xlink:title=" ">
<path fill="none" stroke="#63b8ff" d="M99.83,-296.58C80.34,-309.01 53.29,-326.24 36.61,-336.87"/>
<polygon fill="#63b8ff" stroke="#63b8ff" points="101.9,-299.42 108.45,-291.09 98.14,-293.51 101.9,-299.42"/>
</a>
</g>
</g>
<!-- Node9&#45;&gt;Node6 -->
<g id="edge11_Node000009_Node000006" class="edge">
<title>Node9&#45;&gt;Node6</title>
<g id="a_edge11_Node000009_Node000006"><a xlink:title=" ">
<path fill="none" stroke="#63b8ff" d="M494.9,-255.31C489.9,-253.36 484.82,-251.38 480,-249.5 452.71,-238.83 421.43,-226.48 400.36,-218.15"/>
<polygon fill="#63b8ff" stroke="#63b8ff" points="493.72,-258.6 504.31,-258.96 496.26,-252.08 493.72,-258.6"/>
</a>
</g>
</g>
<!-- Node10&#45;&gt;Node6 -->
<g id="edge13_Node000010_Node000006" class="edge">
<title>Node10&#45;&gt;Node6</title>
<g id="a_edge13_Node000010_Node000006"><a xlink:title=" ">
<path fill="none" stroke="#63b8ff" d="M470.53,-222.71C460.29,-221.17 449.59,-219.56 439.22,-218"/>
<polygon fill="#63b8ff" stroke="#63b8ff" points="470.18,-226.2 480.59,-224.22 471.22,-219.27 470.18,-226.2"/>
</a>
</g>
</g>
<!-- Node11&#45;&gt;Node6 -->
<g id="edge15_Node000011_Node000006" class="edge">
<title>Node11&#45;&gt;Node6</title>
<g id="a_edge15_Node000011_Node000006"><a xlink:title=" ">
<path fill="none" stroke="#63b8ff" d="M470.35,-199.87C461.8,-200.65 452.94,-201.46 444.22,-202.26"/>
<polygon fill="#63b8ff" stroke="#63b8ff" points="470.95,-203.33 480.59,-198.93 470.31,-196.36 470.95,-203.33"/>
</a>
</g>
</g>
<!-- Node12&#45;&gt;Node3 -->
<g id="edge17_Node000012_Node000003" class="edge">
<title>Node12&#45;&gt;Node3</title>
<g id="a_edge17_Node000012_Node000003"><a xlink:title=" ">
<path fill="none" stroke="#63b8ff" d="M474.95,-367.84C455.81,-363.71 434.6,-359.14 416.75,-355.29"/>
<polygon fill="#63b8ff" stroke="#63b8ff" points="474.23,-371.27 484.75,-369.96 475.71,-364.43 474.23,-371.27"/>
</a>
</g>
</g>
<!-- Node13&#45;&gt;Node6 -->
<g id="edge19_Node000013_Node000006" class="edge">
<title>Node13&#45;&gt;Node6</title>
<g id="a_edge19_Node000013_Node000006"><a xlink:title=" ">
<path fill="none" stroke="#63b8ff" d="M490.44,-170.35C463.77,-179.24 428.87,-190.88 404.65,-198.95"/>
<polygon fill="#63b8ff" stroke="#63b8ff" points="491.84,-173.58 500.22,-167.09 489.63,-166.93 491.84,-173.58"/>
</a>
</g>
</g>
<!-- Node14&#45;&gt;Node6 -->
<g id="edge21_Node000014_Node000006" class="edge">
<title>Node14&#45;&gt;Node6</title>
<g id="a_edge21_Node000014_Node000006"><a xlink:title=" ">
<path fill="none" stroke="#63b8ff" d="M489.9,-133.89C486.51,-135.34 483.16,-136.88 480,-138.5 444.72,-156.52 407.04,-184.3 388.2,-198.85"/>
<polygon fill="#63b8ff" stroke="#63b8ff" points="491.51,-137.01 499.49,-130.04 488.91,-130.51 491.51,-137.01"/>
</a>
</g>
</g>
<!-- Node15&#45;&gt;Node3 -->
<g id="edge23_Node000015_Node000003" class="edge">
<title>Node15&#45;&gt;Node3</title>
<g id="a_edge23_Node000015_Node000003"><a xlink:title=" ">
<path fill="none" stroke="#63b8ff" d="M482.72,-343.71C461.64,-344.26 436.92,-344.91 416.58,-345.44"/>
<polygon fill="#63b8ff" stroke="#63b8ff" points="482.84,-347.21 492.74,-343.45 482.65,-340.21 482.84,-347.21"/>
</a>
</g>
</g>
<!-- Node15&#45;&gt;Node5 -->
<g id="edge24_Node000015_Node000005" class="edge">
<title>Node15&#45;&gt;Node5</title>
<g id="a_edge24_Node000015_Node000005"><a xlink:title=" ">
<path fill="none" stroke="#63b8ff" d="M491.95,-355.64C487.89,-357.22 483.84,-358.86 480,-360.5 449.31,-373.62 414.69,-391.17 394.14,-401.89"/>
<polygon fill="#63b8ff" stroke="#63b8ff" points="493.22,-358.91 501.33,-352.09 490.74,-352.36 493.22,-358.91"/>
</a>
</g>
</g>
<!-- Node15&#45;&gt;Node6 -->
<g id="edge25_Node000015_Node000006" class="edge">
<title>Node15&#45;&gt;Node6</title>
<g id="a_edge25_Node000015_Node000006"><a xlink:title=" ">
<path fill="none" stroke="#63b8ff" d="M488.63,-328.65C485.62,-327.08 482.71,-325.36 480,-323.5 435.65,-292.98 397.12,-239.96 382.39,-218.22"/>
<polygon fill="#63b8ff" stroke="#63b8ff" points="487.29,-331.89 497.83,-332.94 490.25,-325.54 487.29,-331.89"/>
</a>
</g>
</g>
<!-- Node16&#45;&gt;Node5 -->
<g id="edge27_Node000016_Node000005" class="edge">
<title>Node16&#45;&gt;Node5</title>
<g id="a_edge27_Node000016_Node000005"><a xlink:title=" ">
<path fill="none" stroke="#63b8ff" d="M484.56,-441.3C461.09,-434.86 432.7,-427.07 410.85,-421.07"/>
<polygon fill="#63b8ff" stroke="#63b8ff" points="483.71,-444.7 494.28,-443.97 485.57,-437.95 483.71,-444.7"/>
</a>
</g>
</g>
<!-- Node17&#45;&gt;Node6 -->
<g id="edge29_Node000017_Node000006" class="edge">
<title>Node17&#45;&gt;Node6</title>
<g id="a_edge29_Node000017_Node000006"><a xlink:title=" ">
<path fill="none" stroke="#63b8ff" d="M487.28,-97.31C484.76,-98.61 482.31,-100 480,-101.5 436.98,-129.43 398.29,-178.16 382.97,-198.81"/>
<polygon fill="#63b8ff" stroke="#63b8ff" points="488.99,-100.37 496.64,-93.04 486.09,-94.01 488.99,-100.37"/>
</a>
</g>
</g>
<!-- Node18&#45;&gt;Node5 -->
<g id="edge31_Node000018_Node000005" class="edge">
<title>Node18&#45;&gt;Node5</title>
<g id="a_edge31_Node000018_Node000005"><a xlink:title=" ">
<path fill="none" stroke="#63b8ff" d="M491.05,-477.33C487.28,-475.79 483.54,-474.17 480,-472.5 446.69,-456.77 410.02,-433.83 390.36,-421.04"/>
<polygon fill="#63b8ff" stroke="#63b8ff" points="489.81,-480.6 500.4,-480.97 492.35,-474.08 489.81,-480.6"/>
</a>
</g>
</g>
<!-- Node19&#45;&gt;Node6 -->
<g id="edge33_Node000019_Node000006" class="edge">
<title>Node19&#45;&gt;Node6</title>
<g id="a_edge33_Node000019_Node000006"><a xlink:title=" ">
<path fill="none" stroke="#63b8ff" d="M485.67,-60.71C483.69,-61.88 481.79,-63.14 480,-64.5 429.13,-103.07 392.53,-173.41 380.38,-198.93"/>
<polygon fill="#63b8ff" stroke="#63b8ff" points="487.37,-63.77 494.69,-56.11 484.19,-57.53 487.37,-63.77"/>
</a>
</g>
</g>
<!-- Node20&#45;&gt;Node6 -->
<g id="edge35_Node000020_Node000006" class="edge">
<title>Node20&#45;&gt;Node6</title>
<g id="a_edge35_Node000020_Node000006"><a xlink:title=" ">
<path fill="none" stroke="#63b8ff" d="M484.79,-23.94C483.11,-25.04 481.51,-26.23 480,-27.5 421.27,-77.04 388.49,-168.66 378.96,-198.69"/>
<polygon fill="#63b8ff" stroke="#63b8ff" points="486.55,-26.96 493.62,-19.07 483.17,-20.83 486.55,-26.96"/>
</a>
</g>
</g>
<!-- Node21&#45;&gt;Node3 -->
<g id="edge37_Node000021_Node000003" class="edge">
<title>Node21&#45;&gt;Node3</title>
<g id="a_edge37_Node000021_Node000003"><a xlink:title=" ">
<path fill="none" stroke="#63b8ff" d="M483.62,-317.66C460.59,-323.83 433.03,-331.22 411.56,-336.97"/>
<polygon fill="#63b8ff" stroke="#63b8ff" points="484.76,-320.98 493.51,-315.01 482.95,-314.22 484.76,-320.98"/>
</a>
</g>
</g>
<!-- Node21&#45;&gt;Node5 -->
<g id="edge38_Node000021_Node000005" class="edge">
<title>Node21&#45;&gt;Node5</title>
<g id="a_edge38_Node000021_Node000005"><a xlink:title=" ">
<path fill="none" stroke="#63b8ff" d="M486.72,-319.43C484.38,-320.69 482.13,-322.04 480,-323.5 460,-337.22 462.11,-348.37 444,-364.5 427.6,-379.1 406.52,-393.04 392.2,-401.89"/>
<polygon fill="#63b8ff" stroke="#63b8ff" points="488.44,-322.48 495.99,-315.04 485.45,-316.16 488.44,-322.48"/>
</a>
</g>
</g>
<!-- Node21&#45;&gt;Node6 -->
<g id="edge39_Node000021_Node000006" class="edge">
<title>Node21&#45;&gt;Node6</title>
<g id="a_edge39_Node000021_Node000006"><a xlink:title=" ">
<path fill="none" stroke="#63b8ff" d="M491,-291.97C487.22,-290.27 483.49,-288.44 480,-286.5 443.3,-266.13 405.03,-234.18 386.84,-218.24"/>
<polygon fill="#63b8ff" stroke="#63b8ff" points="489.84,-295.28 500.41,-295.93 492.55,-288.83 489.84,-295.28"/>
</a>
</g>
</g>
</g>
</svg>
