<?xml version="1.0" encoding="UTF-8" standalone="no"?>
<!DOCTYPE svg PUBLIC "-//W3C//DTD SVG 1.1//EN"
 "http://www.w3.org/Graphics/SVG/1.1/DTD/svg11.dtd">
<!-- Generated by graphviz version 2.43.0 (0)
 -->
<!-- Title: write_density Pages: 1 -->
<svg width="362pt" height="288pt"
 viewBox="0.00 0.00 362.00 288.00" xmlns="http://www.w3.org/2000/svg" xmlns:xlink="http://www.w3.org/1999/xlink">
<g id="graph0" class="graph" transform="scale(1 1) rotate(0) translate(4 284)">
<title>write_density</title>
<!-- Node1 -->
<g id="Node000001" class="node">
<title>Node1</title>
<g id="a_Node000001"><a xlink:title=" ">
<polygon fill="#999999" stroke="#666666" points="83,-150 0,-150 0,-131 83,-131 83,-150"/>
<text text-anchor="middle" x="41.5" y="-138" font-family="Helvetica,sans-Serif" font-size="10.00">write_density</text>
</a>
</g>
</g>
<!-- Node2 -->
<g id="Node000002" class="node">
<title>Node2</title>
<g id="a_Node000002"><a xlink:href="write__snapshot_8c.html#afd4a5dd053ee9721839542a30b752cf0" target="_top" xlink:title=" ">
<polygon fill="white" stroke="#666666" points="206,-280 132,-280 132,-261 206,-261 206,-280"/>
<text text-anchor="middle" x="169" y="-268" font-family="Helvetica,sans-Serif" font-size="10.00">add_to_info</text>
</a>
</g>
</g>
<!-- Node1&#45;&gt;Node2 -->
<g id="edge1_Node000001_Node000002" class="edge">
<title>Node1&#45;&gt;Node2</title>
<g id="a_edge1_Node000001_Node000002"><a xlink:title=" ">
<path fill="none" stroke="#63b8ff" d="M46.55,-150.08C56.05,-171.48 81.85,-223.56 119,-252.5 120.77,-253.88 122.66,-255.16 124.62,-256.35"/>
<polygon fill="#63b8ff" stroke="#63b8ff" points="123.12,-259.51 133.61,-260.99 126.33,-253.29 123.12,-259.51"/>
</a>
</g>
</g>
<!-- Node4 -->
<g id="Node000004" class="node">
<title>Node4</title>
<g id="a_Node000004"><a xlink:href="fmax_8c.html#a76000ea6ddfd81a9d6cf317d53f54378" target="_top" xlink:title=" ">
<polygon fill="white" stroke="#666666" points="325.5,-76 283.5,-76 283.5,-57 325.5,-57 325.5,-76"/>
<text text-anchor="middle" x="304.5" y="-64" font-family="Helvetica,sans-Serif" font-size="10.00">fdate</text>
</a>
</g>
</g>
<!-- Node1&#45;&gt;Node4 -->
<g id="edge3_Node000001_Node000004" class="edge">
<title>Node1&#45;&gt;Node4</title>
<g id="a_edge3_Node000001_Node000004"><a xlink:title=" ">
<path fill="none" stroke="#63b8ff" d="M48.64,-130.91C60.08,-114.05 86.45,-79.67 119,-66.5 170.16,-45.8 236.03,-52.97 273.64,-59.86"/>
<polygon fill="#63b8ff" stroke="#63b8ff" points="272.97,-63.3 283.46,-61.78 274.31,-56.43 272.97,-63.3"/>
</a>
</g>
</g>
<!-- Node5 -->
<g id="Node000005" class="node">
<title>Node5</title>
<g id="a_Node000005"><a xlink:href="write__snapshot_8c.html#a3b6ec588cd6a244d1381933c4b130628" target="_top" xlink:title=" ">
<polygon fill="white" stroke="#666666" points="203,-19 135,-19 135,0 203,0 203,-19"/>
<text text-anchor="middle" x="169" y="-7" font-family="Helvetica,sans-Serif" font-size="10.00">free_block</text>
</a>
</g>
</g>
<!-- Node1&#45;&gt;Node5 -->
<g id="edge4_Node000001_Node000005" class="edge">
<title>Node1&#45;&gt;Node5</title>
<g id="a_edge4_Node000001_Node000005"><a xlink:title=" ">
<path fill="none" stroke="#63b8ff" d="M47.35,-130.7C57.88,-110.27 84.67,-62.58 119,-33.5 123.34,-29.83 128.33,-26.56 133.44,-23.7"/>
<polygon fill="#63b8ff" stroke="#63b8ff" points="135.31,-26.68 142.64,-19.02 132.14,-20.44 135.31,-26.68"/>
</a>
</g>
</g>
<!-- Node6 -->
<g id="Node000006" class="node">
<title>Node6</title>
<g id="a_Node000006"><a xlink:href="write__snapshot_8c.html#aaa1318b52e76d77f6ece13495d6cf8b4" target="_top" xlink:title=" ">
<polygon fill="white" stroke="#666666" points="219,-243 119,-243 119,-224 219,-224 219,-243"/>
<text text-anchor="middle" x="169" y="-231" font-family="Helvetica,sans-Serif" font-size="10.00">initialize_density</text>
</a>
</g>
</g>
<!-- Node1&#45;&gt;Node6 -->
<g id="edge5_Node000001_Node000006" class="edge">
<title>Node1&#45;&gt;Node6</title>
<g id="a_edge5_Node000001_Node000006"><a xlink:title=" ">
<path fill="none" stroke="#63b8ff" d="M49.97,-150.11C62.62,-165.8 89.76,-197.01 119,-215.5 121.44,-217.04 124.04,-218.48 126.7,-219.82"/>
<polygon fill="#63b8ff" stroke="#63b8ff" points="125.41,-223.07 135.96,-223.96 128.27,-216.68 125.41,-223.07"/>
</a>
</g>
</g>
<!-- Node7 -->
<g id="Node000007" class="node">
<title>Node7</title>
<g id="a_Node000007"><a xlink:href="write__snapshot_8c.html#afa82e3a96bc195a8664fc3bd30ccb86a" target="_top" xlink:title=" ">
<polygon fill="white" stroke="#666666" points="206,-206 132,-206 132,-187 206,-187 206,-206"/>
<text text-anchor="middle" x="169" y="-194" font-family="Helvetica,sans-Serif" font-size="10.00">initialize_ID</text>
</a>
</g>
</g>
<!-- Node1&#45;&gt;Node7 -->
<g id="edge7_Node000001_Node000007" class="edge">
<title>Node1&#45;&gt;Node7</title>
<g id="a_edge7_Node000001_Node000007"><a xlink:title=" ">
<path fill="none" stroke="#63b8ff" d="M60.48,-150.13C75.82,-158.17 98.57,-169.7 119,-178.5 122.84,-180.15 126.89,-181.79 130.94,-183.38"/>
<polygon fill="#63b8ff" stroke="#63b8ff" points="129.73,-186.66 140.32,-186.93 132.21,-180.11 129.73,-186.66"/>
</a>
</g>
</g>
<!-- Node8 -->
<g id="Node000008" class="node">
<title>Node8</title>
<g id="a_Node000008"><a xlink:href="write__snapshot_8c.html#a711256cfa01b2ba891fc2adb44006be7" target="_top" xlink:title=" ">
<polygon fill="white" stroke="#666666" points="205.5,-132 132.5,-132 132.5,-113 205.5,-113 205.5,-132"/>
<text text-anchor="middle" x="169" y="-120" font-family="Helvetica,sans-Serif" font-size="10.00">write_block</text>
</a>
</g>
</g>
<!-- Node1&#45;&gt;Node8 -->
<g id="edge9_Node000001_Node000008" class="edge">
<title>Node1&#45;&gt;Node8</title>
<g id="a_edge9_Node000001_Node000008"><a xlink:title=" ">
<path fill="none" stroke="#63b8ff" d="M83.25,-134.66C95.67,-132.87 109.41,-130.9 122.15,-129.08"/>
<polygon fill="#63b8ff" stroke="#63b8ff" points="122.71,-132.53 132.11,-127.65 121.71,-125.6 122.71,-132.53"/>
</a>
</g>
</g>
<!-- Node10 -->
<g id="Node000010" class="node">
<title>Node10</title>
<g id="a_Node000010"><a xlink:href="write__snapshot_8c.html#a94f250d7a85d1c00ba065f7efd221912" target="_top" xlink:title=" ">
<polygon fill="white" stroke="#666666" points="209,-95 129,-95 129,-76 209,-76 209,-95"/>
<text text-anchor="middle" x="169" y="-83" font-family="Helvetica,sans-Serif" font-size="10.00">write_header</text>
</a>
</g>
</g>
<!-- Node1&#45;&gt;Node10 -->
<g id="edge11_Node000001_Node000010" class="edge">
<title>Node1&#45;&gt;Node10</title>
<g id="a_edge11_Node000001_Node000010"><a xlink:title=" ">
<path fill="none" stroke="#63b8ff" d="M61.82,-130.95C77.19,-123.46 99.3,-112.94 119,-104.5 123.48,-102.58 128.23,-100.63 132.93,-98.75"/>
<polygon fill="#63b8ff" stroke="#63b8ff" points="134.4,-101.94 142.43,-95.03 131.84,-95.42 134.4,-101.94"/>
</a>
</g>
</g>
<!-- Node11 -->
<g id="Node000011" class="node">
<title>Node11</title>
<g id="a_Node000011"><a xlink:href="write__snapshot_8c.html#a3c9df4707b30f92866f3fc1cda9f22f9" target="_top" xlink:title=" ">
<polygon fill="white" stroke="#666666" points="217.5,-169 120.5,-169 120.5,-150 217.5,-150 217.5,-169"/>
<text text-anchor="middle" x="169" y="-157" font-family="Helvetica,sans-Serif" font-size="10.00">write_info_block</text>
</a>
</g>
</g>
<!-- Node1&#45;&gt;Node11 -->
<g id="edge14_Node000001_Node000011" class="edge">
<title>Node1&#45;&gt;Node11</title>
<g id="a_edge14_Node000001_Node000011"><a xlink:title=" ">
<path fill="none" stroke="#63b8ff" d="M83.25,-146.67C91.97,-147.99 101.35,-149.41 110.57,-150.8"/>
<polygon fill="#63b8ff" stroke="#63b8ff" points="110.06,-154.27 120.47,-152.3 111.11,-147.35 110.06,-154.27"/>
</a>
</g>
</g>
<!-- Node3 -->
<g id="Node000003" class="node">
<title>Node3</title>
<g id="a_Node000003"><a xlink:href="write__snapshot_8c.html#a62b36bedb5cc2a2701699d5d6971840a" target="_top" xlink:title=" ">
<polygon fill="white" stroke="#666666" points="338.5,-224 270.5,-224 270.5,-205 338.5,-205 338.5,-224"/>
<text text-anchor="middle" x="304.5" y="-212" font-family="Helvetica,sans-Serif" font-size="10.00">my_strcpy</text>
</a>
</g>
</g>
<!-- Node2&#45;&gt;Node3 -->
<g id="edge2_Node000002_Node000003" class="edge">
<title>Node2&#45;&gt;Node3</title>
<g id="a_edge2_Node000002_Node000003"><a xlink:title=" ">
<path fill="none" stroke="#63b8ff" d="M197.09,-260.94C204.25,-258.3 211.95,-255.38 219,-252.5 237.38,-245 257.67,-235.91 273.76,-228.49"/>
<polygon fill="#63b8ff" stroke="#63b8ff" points="275.59,-231.5 283.18,-224.12 272.64,-225.15 275.59,-231.5"/>
</a>
</g>
</g>
<!-- Node6&#45;&gt;Node3 -->
<g id="edge6_Node000006_Node000003" class="edge">
<title>Node6&#45;&gt;Node3</title>
<g id="a_edge6_Node000006_Node000003"><a xlink:title=" ">
<path fill="none" stroke="#63b8ff" d="M219.33,-226.48C232.69,-224.58 247.06,-222.53 260.07,-220.68"/>
<polygon fill="#63b8ff" stroke="#63b8ff" points="260.76,-224.12 270.17,-219.24 259.78,-217.19 260.76,-224.12"/>
</a>
</g>
</g>
<!-- Node7&#45;&gt;Node3 -->
<g id="edge8_Node000007_Node000003" class="edge">
<title>Node7&#45;&gt;Node3</title>
<g id="a_edge8_Node000007_Node000003"><a xlink:title=" ">
<path fill="none" stroke="#63b8ff" d="M206.13,-201.37C222.78,-203.62 242.68,-206.3 260.14,-208.65"/>
<polygon fill="#63b8ff" stroke="#63b8ff" points="259.72,-212.13 270.09,-210 260.65,-205.19 259.72,-212.13"/>
</a>
</g>
</g>
<!-- Node9 -->
<g id="Node000009" class="node">
<title>Node9</title>
<g id="a_Node000009"><a xlink:href="write__snapshot_8c.html#a2aab4fd18379080332681b91e935f88a" target="_top" xlink:title=" ">
<polygon fill="white" stroke="#666666" points="354,-132 255,-132 255,-113 354,-113 354,-132"/>
<text text-anchor="middle" x="304.5" y="-120" font-family="Helvetica,sans-Serif" font-size="10.00">WriteBlockName</text>
</a>
</g>
</g>
<!-- Node8&#45;&gt;Node9 -->
<g id="edge10_Node000008_Node000009" class="edge">
<title>Node8&#45;&gt;Node9</title>
<g id="a_edge10_Node000008_Node000009"><a xlink:title=" ">
<path fill="none" stroke="#63b8ff" d="M205.78,-122.5C217.6,-122.5 231.09,-122.5 244.19,-122.5"/>
<polygon fill="#63b8ff" stroke="#63b8ff" points="244.57,-126 254.57,-122.5 244.57,-119 244.57,-126"/>
</a>
</g>
</g>
<!-- Node10&#45;&gt;Node4 -->
<g id="edge12_Node000010_Node000004" class="edge">
<title>Node10&#45;&gt;Node4</title>
<g id="a_edge12_Node000010_Node000004"><a xlink:title=" ">
<path fill="none" stroke="#63b8ff" d="M209.33,-79.9C229.74,-77 254.3,-73.5 273.21,-70.81"/>
<polygon fill="#63b8ff" stroke="#63b8ff" points="273.94,-74.24 283.35,-69.37 272.96,-67.31 273.94,-74.24"/>
</a>
</g>
</g>
<!-- Node10&#45;&gt;Node9 -->
<g id="edge13_Node000010_Node000009" class="edge">
<title>Node10&#45;&gt;Node9</title>
<g id="a_edge13_Node000010_Node000009"><a xlink:title=" ">
<path fill="none" stroke="#63b8ff" d="M204.38,-95.03C220.91,-99.61 240.94,-105.16 258.65,-110.07"/>
<polygon fill="#63b8ff" stroke="#63b8ff" points="258.2,-113.58 268.77,-112.88 260.07,-106.83 258.2,-113.58"/>
</a>
</g>
</g>
<!-- Node11&#45;&gt;Node3 -->
<g id="edge15_Node000011_Node000003" class="edge">
<title>Node11&#45;&gt;Node3</title>
<g id="a_edge15_Node000011_Node000003"><a xlink:title=" ">
<path fill="none" stroke="#63b8ff" d="M194.99,-169.01C202.71,-171.99 211.22,-175.34 219,-178.5 236.74,-185.71 256.43,-194.08 272.33,-200.93"/>
<polygon fill="#63b8ff" stroke="#63b8ff" points="271.13,-204.23 281.7,-204.98 273.91,-197.8 271.13,-204.23"/>
</a>
</g>
</g>
<!-- Node11&#45;&gt;Node9 -->
<g id="edge16_Node000011_Node000009" class="edge">
<title>Node11&#45;&gt;Node9</title>
<g id="a_edge16_Node000011_Node000009"><a xlink:title=" ">
<path fill="none" stroke="#63b8ff" d="M204.38,-149.97C220.91,-145.39 240.94,-139.84 258.65,-134.93"/>
<polygon fill="#63b8ff" stroke="#63b8ff" points="260.07,-138.17 268.77,-132.12 258.2,-131.42 260.07,-138.17"/>
</a>
</g>
</g>
</g>
</svg>
