<?xml version="1.0" encoding="UTF-8" standalone="no"?>
<!DOCTYPE svg PUBLIC "-//W3C//DTD SVG 1.1//EN"
 "http://www.w3.org/Graphics/SVG/1.1/DTD/svg11.dtd">
<!-- Generated by graphviz version 2.43.0 (0)
 -->
<!-- Title: mass_maps_select_segment_replications Pages: 1 -->
<svg width="608pt" height="90pt"
 viewBox="0.00 0.00 608.00 89.74" xmlns="http://www.w3.org/2000/svg" xmlns:xlink="http://www.w3.org/1999/xlink">
<g id="graph0" class="graph" transform="scale(1 1) rotate(0) translate(4 85.74)">
<title>mass_maps_select_segment_replications</title>
<!-- Node1 -->
<g id="Node000001" class="node">
<title>Node1</title>
<g id="a_Node000001"><a xlink:title=" ">
<polygon fill="#999999" stroke="#666666" points="158,-73 0,-73 0,-43 158,-43 158,-73"/>
<text text-anchor="start" x="8" y="-61" font-family="Helvetica,sans-Serif" font-size="10.00">mass_maps_select_segment</text>
<text text-anchor="middle" x="79" y="-50" font-family="Helvetica,sans-Serif" font-size="10.00">_replications</text>
</a>
</g>
</g>
<!-- Node2 -->
<g id="Node000002" class="node">
<title>Node2</title>
<g id="a_Node000002"><a xlink:href="cosmo_8c.html#aa3beda8770f3f4e1b00e486bb647edc5" target="_top" xlink:title=" ">
<polygon fill="white" stroke="#666666" points="471,-64.5 362,-64.5 362,-45.5 471,-45.5 471,-64.5"/>
<text text-anchor="middle" x="416.5" y="-52.5" font-family="Helvetica,sans-Serif" font-size="10.00">ComovingDistance</text>
</a>
</g>
</g>
<!-- Node1&#45;&gt;Node2 -->
<g id="edge1_Node000001_Node000002" class="edge">
<title>Node1&#45;&gt;Node2</title>
<g id="a_edge1_Node000001_Node000002"><a xlink:title=" ">
<path fill="none" stroke="#63b8ff" d="M158.28,-72.79C170.21,-74.54 182.4,-76.04 194,-77 252.47,-81.84 267.76,-84.05 326,-77 342,-75.06 359.27,-71.24 374.33,-67.32"/>
<polygon fill="#63b8ff" stroke="#63b8ff" points="375.62,-70.6 384.36,-64.61 373.8,-63.84 375.62,-70.6"/>
</a>
</g>
</g>
<!-- Node4 -->
<g id="Node000004" class="node">
<title>Node4</title>
<g id="a_Node000004"><a xlink:href="fmax_8c.html#a76000ea6ddfd81a9d6cf317d53f54378" target="_top" xlink:title=" ">
<polygon fill="white" stroke="#666666" points="281,-67.5 239,-67.5 239,-48.5 281,-48.5 281,-67.5"/>
<text text-anchor="middle" x="260" y="-55.5" font-family="Helvetica,sans-Serif" font-size="10.00">fdate</text>
</a>
</g>
</g>
<!-- Node1&#45;&gt;Node4 -->
<g id="edge3_Node000001_Node000004" class="edge">
<title>Node1&#45;&gt;Node4</title>
<g id="a_edge3_Node000001_Node000004"><a xlink:title=" ">
<path fill="none" stroke="#63b8ff" d="M158.25,-58C183.18,-58 209.28,-58 228.67,-58"/>
<polygon fill="#63b8ff" stroke="#63b8ff" points="228.71,-61.5 238.71,-58 228.71,-54.5 228.71,-61.5"/>
</a>
</g>
</g>
<!-- Node5 -->
<g id="Node000005" class="node">
<title>Node5</title>
<g id="a_Node000005"><a xlink:href="write__mass__maps_8c.html#a7159652dd5f768d3494af76431c811b7" target="_top" xlink:title=" ">
<polygon fill="white" stroke="#666666" points="326,-30 194,-30 194,0 326,0 326,-30"/>
<text text-anchor="start" x="202" y="-18" font-family="Helvetica,sans-Serif" font-size="10.00">mass_maps_replication</text>
<text text-anchor="middle" x="260" y="-7" font-family="Helvetica,sans-Serif" font-size="10.00">_chi_bounds</text>
</a>
</g>
</g>
<!-- Node1&#45;&gt;Node5 -->
<g id="edge4_Node000001_Node000005" class="edge">
<title>Node1&#45;&gt;Node5</title>
<g id="a_edge4_Node000001_Node000005"><a xlink:title=" ">
<path fill="none" stroke="#63b8ff" d="M142.61,-42.96C156.78,-39.56 171.94,-35.91 186.48,-32.42"/>
<polygon fill="#63b8ff" stroke="#63b8ff" points="187.52,-35.77 196.43,-30.03 185.89,-28.96 187.52,-35.77"/>
</a>
</g>
</g>
<!-- Node3 -->
<g id="Node000003" class="node">
<title>Node3</title>
<g id="a_Node000003"><a xlink:href="cosmo_8c.html#a6341f5394ed17a00dc77c5519b292ae3" target="_top" xlink:title=" ">
<polygon fill="white" stroke="#666666" points="600,-64.5 507,-64.5 507,-45.5 600,-45.5 600,-64.5"/>
<text text-anchor="middle" x="553.5" y="-52.5" font-family="Helvetica,sans-Serif" font-size="10.00">my_spline_eval</text>
</a>
</g>
</g>
<!-- Node2&#45;&gt;Node3 -->
<g id="edge2_Node000002_Node000003" class="edge">
<title>Node2&#45;&gt;Node3</title>
<g id="a_edge2_Node000002_Node000003"><a xlink:title=" ">
<path fill="none" stroke="#63b8ff" d="M471.24,-55C479.61,-55 488.27,-55 496.67,-55"/>
<polygon fill="#63b8ff" stroke="#63b8ff" points="496.77,-58.5 506.77,-55 496.77,-51.5 496.77,-58.5"/>
</a>
</g>
</g>
<!-- Node5&#45;&gt;Node2 -->
<g id="edge5_Node000005_Node000002" class="edge">
<title>Node5&#45;&gt;Node2</title>
<g id="a_edge5_Node000005_Node000002"><a xlink:title=" ">
<path fill="none" stroke="#63b8ff" d="M318.97,-30.01C335.41,-34.26 353.09,-38.84 368.77,-42.9"/>
<polygon fill="#63b8ff" stroke="#63b8ff" points="368.19,-46.37 378.75,-45.49 369.95,-39.59 368.19,-46.37"/>
</a>
</g>
</g>
</g>
</svg>
