<?xml version="1.0" encoding="UTF-8" standalone="no"?>
<!DOCTYPE svg PUBLIC "-//W3C//DTD SVG 1.1//EN"
 "http://www.w3.org/Graphics/SVG/1.1/DTD/svg11.dtd">
<!-- Generated by graphviz version 2.43.0 (0)
 -->
<!-- Title: mass_maps_write_segment_map Pages: 1 -->
<svg width="366pt" height="113pt"
 viewBox="0.00 0.00 366.00 112.50" xmlns="http://www.w3.org/2000/svg" xmlns:xlink="http://www.w3.org/1999/xlink">
<g id="graph0" class="graph" transform="scale(1 1) rotate(0) translate(4 108.5)">
<title>mass_maps_write_segment_map</title>
<!-- Node1 -->
<g id="Node000001" class="node">
<title>Node1</title>
<g id="a_Node000001"><a xlink:title=" ">
<polygon fill="#999999" stroke="#666666" points="180,-67.5 0,-67.5 0,-48.5 180,-48.5 180,-67.5"/>
<text text-anchor="middle" x="90" y="-55.5" font-family="Helvetica,sans-Serif" font-size="10.00">mass_maps_write_segment_map</text>
</a>
</g>
</g>
<!-- Node2 -->
<g id="Node000002" class="node">
<title>Node2</title>
<g id="a_Node000002"><a xlink:href="fmax_8c.html#a76000ea6ddfd81a9d6cf317d53f54378" target="_top" xlink:title=" ">
<polygon fill="white" stroke="#666666" points="308,-104.5 266,-104.5 266,-85.5 308,-85.5 308,-104.5"/>
<text text-anchor="middle" x="287" y="-92.5" font-family="Helvetica,sans-Serif" font-size="10.00">fdate</text>
</a>
</g>
</g>
<!-- Node1&#45;&gt;Node2 -->
<g id="edge1_Node000001_Node000002" class="edge">
<title>Node1&#45;&gt;Node2</title>
<g id="a_edge1_Node000001_Node000002"><a xlink:title=" ">
<path fill="none" stroke="#63b8ff" d="M141.22,-67.53C177.36,-74.39 224.93,-83.41 255.49,-89.21"/>
<polygon fill="#63b8ff" stroke="#63b8ff" points="255.07,-92.69 265.55,-91.12 256.38,-85.82 255.07,-92.69"/>
</a>
</g>
</g>
<!-- Node3 -->
<g id="Node000003" class="node">
<title>Node3</title>
<g id="a_Node000003"><a xlink:href="write__mass__maps_8c.html#ad2813bf24413a335b369b3f788ccf25a" target="_top" xlink:title=" ">
<polygon fill="white" stroke="#666666" points="358,-67.5 216,-67.5 216,-48.5 358,-48.5 358,-67.5"/>
<text text-anchor="middle" x="287" y="-55.5" font-family="Helvetica,sans-Serif" font-size="10.00">mass_maps_segment_ptr</text>
</a>
</g>
</g>
<!-- Node1&#45;&gt;Node3 -->
<g id="edge2_Node000001_Node000003" class="edge">
<title>Node1&#45;&gt;Node3</title>
<g id="a_edge2_Node000001_Node000003"><a xlink:title=" ">
<path fill="none" stroke="#63b8ff" d="M180.23,-58C188.71,-58 197.28,-58 205.67,-58"/>
<polygon fill="#63b8ff" stroke="#63b8ff" points="205.8,-61.5 215.8,-58 205.8,-54.5 205.8,-61.5"/>
</a>
</g>
</g>
<!-- Node4 -->
<g id="Node000004" class="node">
<title>Node4</title>
<g id="a_Node000004"><a xlink:href="write__mass__maps_8c.html#a54d3f54bf35c6b10c62eb34f75843afe" target="_top" xlink:title=" ">
<polygon fill="white" stroke="#666666" points="353.5,-30 220.5,-30 220.5,0 353.5,0 353.5,-30"/>
<text text-anchor="start" x="228.5" y="-18" font-family="Helvetica,sans-Serif" font-size="10.00">mass_maps_write_filter</text>
<text text-anchor="middle" x="287" y="-7" font-family="Helvetica,sans-Serif" font-size="10.00">_keywords</text>
</a>
</g>
</g>
<!-- Node1&#45;&gt;Node4 -->
<g id="edge3_Node000001_Node000004" class="edge">
<title>Node1&#45;&gt;Node4</title>
<g id="a_edge3_Node000001_Node000004"><a xlink:title=" ">
<path fill="none" stroke="#63b8ff" d="M134.28,-48.46C156.66,-43.52 184.64,-37.35 210.45,-31.66"/>
<polygon fill="#63b8ff" stroke="#63b8ff" points="211.21,-35.08 220.22,-29.5 209.7,-28.24 211.21,-35.08"/>
</a>
</g>
</g>
</g>
</svg>
