<?xml version="1.0" encoding="UTF-8" standalone="no"?>
<!DOCTYPE svg PUBLIC "-//W3C//DTD SVG 1.1//EN"
 "http://www.w3.org/Graphics/SVG/1.1/DTD/svg11.dtd">
<!-- Generated by graphviz version 2.43.0 (0)
 -->
<!-- Title: write_block Pages: 1 -->
<svg width="600pt" height="103pt"
 viewBox="0.00 0.00 600.00 103.00" xmlns="http://www.w3.org/2000/svg" xmlns:xlink="http://www.w3.org/1999/xlink">
<g id="graph0" class="graph" transform="scale(1 1) rotate(0) translate(4 99)">
<title>write_block</title>
<!-- Node1 -->
<g id="Node000001" class="node">
<title>Node1</title>
<g id="a_Node000001"><a xlink:title=" ">
<polygon fill="#999999" stroke="#666666" points="592,-57 519,-57 519,-38 592,-38 592,-57"/>
<text text-anchor="middle" x="555.5" y="-45" font-family="Helvetica,sans-Serif" font-size="10.00">write_block</text>
</a>
</g>
</g>
<!-- Node2 -->
<g id="Node000002" class="node">
<title>Node2</title>
<g id="a_Node000002"><a xlink:href="write__snapshot_8c.html#ac428cde59af630b76cb05230ce4b7a65" target="_top" xlink:title=" ">
<polygon fill="white" stroke="#666666" points="309,-95 226,-95 226,-76 309,-76 309,-95"/>
<text text-anchor="middle" x="267.5" y="-83" font-family="Helvetica,sans-Serif" font-size="10.00">write_density</text>
</a>
</g>
</g>
<!-- Node1&#45;&gt;Node2 -->
<g id="edge1_Node000001_Node000002" class="edge">
<title>Node1&#45;&gt;Node2</title>
<g id="a_edge1_Node000001_Node000002"><a xlink:title=" ">
<path fill="none" stroke="#63b8ff" d="M509.04,-56.98C500.42,-58.62 491.45,-60.2 483,-61.5 422.81,-70.74 352.61,-77.92 309.35,-81.93"/>
<polygon fill="#63b8ff" stroke="#63b8ff" points="509.81,-60.4 518.96,-55.06 508.48,-53.53 509.81,-60.4"/>
</a>
</g>
</g>
<!-- Node4 -->
<g id="Node000004" class="node">
<title>Node4</title>
<g id="a_Node000004"><a xlink:href="write__snapshot_8c.html#a33e7e3a2533d63c37d22a7458b9502ae" target="_top" xlink:title=" ">
<polygon fill="white" stroke="#666666" points="190,-57 77,-57 77,-38 190,-38 190,-57"/>
<text text-anchor="middle" x="133.5" y="-45" font-family="Helvetica,sans-Serif" font-size="10.00">write_LPT_snapshot</text>
</a>
</g>
</g>
<!-- Node1&#45;&gt;Node4 -->
<g id="edge3_Node000001_Node000004" class="edge">
<title>Node1&#45;&gt;Node4</title>
<g id="a_edge3_Node000001_Node000004"><a xlink:title=" ">
<path fill="none" stroke="#63b8ff" d="M508.26,-47.5C430.5,-47.5 273.86,-47.5 190.18,-47.5"/>
<polygon fill="#63b8ff" stroke="#63b8ff" points="508.69,-51 518.69,-47.5 508.69,-44 508.69,-51"/>
</a>
</g>
</g>
<!-- Node5 -->
<g id="Node000005" class="node">
<title>Node5</title>
<g id="a_Node000005"><a xlink:href="write__snapshot_8c.html#a8c7aa0495811b3720038a3f24a45232b" target="_top" xlink:title=" ">
<polygon fill="white" stroke="#666666" points="483,-19 345,-19 345,0 483,0 483,-19"/>
<text text-anchor="middle" x="414" y="-7" font-family="Helvetica,sans-Serif" font-size="10.00">write_timeless_snapshot</text>
</a>
</g>
</g>
<!-- Node1&#45;&gt;Node5 -->
<g id="edge5_Node000001_Node000005" class="edge">
<title>Node1&#45;&gt;Node5</title>
<g id="a_edge5_Node000001_Node000005"><a xlink:title=" ">
<path fill="none" stroke="#63b8ff" d="M509.54,-35.25C490.32,-30.02 468.2,-23.99 450.19,-19.09"/>
<polygon fill="#63b8ff" stroke="#63b8ff" points="508.73,-38.66 519.3,-37.91 510.57,-31.91 508.73,-38.66"/>
</a>
</g>
</g>
<!-- Node3 -->
<g id="Node000003" class="node">
<title>Node3</title>
<g id="a_Node000003"><a xlink:href="pinocchio_8c.html#a647f21a28344e1d9c643f4115516d7c9" target="_top" xlink:title=" ">
<polygon fill="white" stroke="#666666" points="41,-57 0,-57 0,-38 41,-38 41,-57"/>
<text text-anchor="middle" x="20.5" y="-45" font-family="Helvetica,sans-Serif" font-size="10.00">main</text>
</a>
</g>
</g>
<!-- Node2&#45;&gt;Node3 -->
<g id="edge2_Node000002_Node000003" class="edge">
<title>Node2&#45;&gt;Node3</title>
<g id="a_edge2_Node000002_Node000003"><a xlink:title=" ">
<path fill="none" stroke="#63b8ff" d="M215.37,-83.56C176.95,-81.33 123.21,-76.59 77,-66.5 64.86,-63.85 51.69,-59.41 41.22,-55.49"/>
<polygon fill="#63b8ff" stroke="#63b8ff" points="215.61,-87.08 225.78,-84.12 215.99,-80.09 215.61,-87.08"/>
</a>
</g>
</g>
<!-- Node4&#45;&gt;Node3 -->
<g id="edge4_Node000004_Node000003" class="edge">
<title>Node4&#45;&gt;Node3</title>
<g id="a_edge4_Node000004_Node000003"><a xlink:title=" ">
<path fill="none" stroke="#63b8ff" d="M66.58,-47.5C57.37,-47.5 48.56,-47.5 41.21,-47.5"/>
<polygon fill="#63b8ff" stroke="#63b8ff" points="66.67,-51 76.67,-47.5 66.67,-44 66.67,-51"/>
</a>
</g>
</g>
<!-- Node6 -->
<g id="Node000006" class="node">
<title>Node6</title>
<g id="a_Node000006"><a xlink:href="fragment_8c.html#ac2bb250921932f90f7b0939d1181b66d" target="_top" xlink:title=" ">
<polygon fill="white" stroke="#666666" points="298.5,-19 236.5,-19 236.5,0 298.5,0 298.5,-19"/>
<text text-anchor="middle" x="267.5" y="-7" font-family="Helvetica,sans-Serif" font-size="10.00">fragment</text>
</a>
</g>
</g>
<!-- Node5&#45;&gt;Node6 -->
<g id="edge6_Node000005_Node000006" class="edge">
<title>Node5&#45;&gt;Node6</title>
<g id="a_edge6_Node000005_Node000006"><a xlink:title=" ">
<path fill="none" stroke="#63b8ff" d="M334.69,-9.5C321.89,-9.5 309.34,-9.5 298.67,-9.5"/>
<polygon fill="#63b8ff" stroke="#63b8ff" points="334.98,-13 344.98,-9.5 334.98,-6 334.98,-13"/>
</a>
</g>
</g>
<!-- Node7 -->
<g id="Node000007" class="node">
<title>Node7</title>
<g id="a_Node000007"><a xlink:href="fragment_8c.html#ae3aa75d17cbc170e60f4f48c4a2ffdf5" target="_top" xlink:title=" ">
<polygon fill="white" stroke="#666666" points="181,-20 86,-20 86,-1 181,-1 181,-20"/>
<text text-anchor="middle" x="133.5" y="-8" font-family="Helvetica,sans-Serif" font-size="10.00">fragment_driver</text>
</a>
</g>
</g>
<!-- Node6&#45;&gt;Node7 -->
<g id="edge7_Node000006_Node000007" class="edge">
<title>Node6&#45;&gt;Node7</title>
<g id="a_edge7_Node000006_Node000007"><a xlink:title=" ">
<path fill="none" stroke="#63b8ff" d="M225.83,-9.81C211.71,-9.92 195.77,-10.04 181.21,-10.15"/>
<polygon fill="#63b8ff" stroke="#63b8ff" points="226.24,-13.31 236.22,-9.73 226.19,-6.31 226.24,-13.31"/>
</a>
</g>
</g>
<!-- Node7&#45;&gt;Node3 -->
<g id="edge8_Node000007_Node000003" class="edge">
<title>Node7&#45;&gt;Node3</title>
<g id="a_edge8_Node000007_Node000003"><a xlink:title=" ">
<path fill="none" stroke="#63b8ff" d="M93.17,-23.17C87.73,-24.94 82.23,-26.76 77,-28.5 65.12,-32.46 51.84,-37 41.25,-40.65"/>
<polygon fill="#63b8ff" stroke="#63b8ff" points="94.38,-26.46 102.8,-20.03 92.21,-19.8 94.38,-26.46"/>
</a>
</g>
</g>
</g>
</svg>
