<?xml version="1.0" encoding="UTF-8" standalone="no"?>
<!DOCTYPE svg PUBLIC "-//W3C//DTD SVG 1.1//EN"
 "http://www.w3.org/Graphics/SVG/1.1/DTD/svg11.dtd">
<!-- Generated by graphviz version 2.43.0 (0)
 -->
<!-- Title: WriteBlockName Pages: 1 -->
<svg width="720pt" height="102pt"
 viewBox="0.00 0.00 720.00 102.00" xmlns="http://www.w3.org/2000/svg" xmlns:xlink="http://www.w3.org/1999/xlink">
<g id="graph0" class="graph" transform="scale(1 1) rotate(0) translate(4 98)">
<title>WriteBlockName</title>
<!-- Node1 -->
<g id="Node000001" class="node">
<title>Node1</title>
<g id="a_Node000001"><a xlink:title=" ">
<polygon fill="#999999" stroke="#666666" points="712,-57 613,-57 613,-38 712,-38 712,-57"/>
<text text-anchor="middle" x="662.5" y="-45" font-family="Helvetica,sans-Serif" font-size="10.00">WriteBlockName</text>
</a>
</g>
</g>
<!-- Node2 -->
<g id="Node000002" class="node">
<title>Node2</title>
<g id="a_Node000002"><a xlink:href="write__snapshot_8c.html#a711256cfa01b2ba891fc2adb44006be7" target="_top" xlink:title=" ">
<polygon fill="white" stroke="#666666" points="565,-94 492,-94 492,-75 565,-75 565,-94"/>
<text text-anchor="middle" x="528.5" y="-82" font-family="Helvetica,sans-Serif" font-size="10.00">write_block</text>
</a>
</g>
</g>
<!-- Node1&#45;&gt;Node2 -->
<g id="edge1_Node000001_Node000002" class="edge">
<title>Node1&#45;&gt;Node2</title>
<g id="a_edge1_Node000001_Node000002"><a xlink:title=" ">
<path fill="none" stroke="#63b8ff" d="M617.53,-59.83C600.04,-64.73 580.23,-70.28 563.84,-74.88"/>
<polygon fill="#63b8ff" stroke="#63b8ff" points="618.82,-63.1 627.51,-57.03 616.93,-56.36 618.82,-63.1"/>
</a>
</g>
</g>
<!-- Node9 -->
<g id="Node000009" class="node">
<title>Node9</title>
<g id="a_Node000009"><a xlink:href="write__snapshot_8c.html#a94f250d7a85d1c00ba065f7efd221912" target="_top" xlink:title=" ">
<polygon fill="white" stroke="#666666" points="568.5,-57 488.5,-57 488.5,-38 568.5,-38 568.5,-57"/>
<text text-anchor="middle" x="528.5" y="-45" font-family="Helvetica,sans-Serif" font-size="10.00">write_header</text>
</a>
</g>
</g>
<!-- Node1&#45;&gt;Node9 -->
<g id="edge10_Node000001_Node000009" class="edge">
<title>Node1&#45;&gt;Node9</title>
<g id="a_edge10_Node000001_Node000009"><a xlink:title=" ">
<path fill="none" stroke="#63b8ff" d="M602.69,-47.5C591.15,-47.5 579.31,-47.5 568.6,-47.5"/>
<polygon fill="#63b8ff" stroke="#63b8ff" points="602.72,-51 612.72,-47.5 602.72,-44 602.72,-51"/>
</a>
</g>
</g>
<!-- Node10 -->
<g id="Node000010" class="node">
<title>Node10</title>
<g id="a_Node000010"><a xlink:href="write__snapshot_8c.html#a3c9df4707b30f92866f3fc1cda9f22f9" target="_top" xlink:title=" ">
<polygon fill="white" stroke="#666666" points="577,-20 480,-20 480,-1 577,-1 577,-20"/>
<text text-anchor="middle" x="528.5" y="-8" font-family="Helvetica,sans-Serif" font-size="10.00">write_info_block</text>
</a>
</g>
</g>
<!-- Node1&#45;&gt;Node10 -->
<g id="edge14_Node000001_Node000010" class="edge">
<title>Node1&#45;&gt;Node10</title>
<g id="a_edge14_Node000001_Node000010"><a xlink:title=" ">
<path fill="none" stroke="#63b8ff" d="M617.53,-35.17C600.04,-30.27 580.23,-24.72 563.84,-20.12"/>
<polygon fill="#63b8ff" stroke="#63b8ff" points="616.93,-38.64 627.51,-37.97 618.82,-31.9 616.93,-38.64"/>
</a>
</g>
</g>
<!-- Node3 -->
<g id="Node000003" class="node">
<title>Node3</title>
<g id="a_Node000003"><a xlink:href="write__snapshot_8c.html#ac428cde59af630b76cb05230ce4b7a65" target="_top" xlink:title=" ">
<polygon fill="white" stroke="#666666" points="416.5,-94 333.5,-94 333.5,-75 416.5,-75 416.5,-94"/>
<text text-anchor="middle" x="375" y="-82" font-family="Helvetica,sans-Serif" font-size="10.00">write_density</text>
</a>
</g>
</g>
<!-- Node2&#45;&gt;Node3 -->
<g id="edge2_Node000002_Node000003" class="edge">
<title>Node2&#45;&gt;Node3</title>
<g id="a_edge2_Node000002_Node000003"><a xlink:title=" ">
<path fill="none" stroke="#63b8ff" d="M481.81,-84.5C461.07,-84.5 436.75,-84.5 416.65,-84.5"/>
<polygon fill="#63b8ff" stroke="#63b8ff" points="481.98,-88 491.98,-84.5 481.98,-81 481.98,-88"/>
</a>
</g>
</g>
<!-- Node5 -->
<g id="Node000005" class="node">
<title>Node5</title>
<g id="a_Node000005"><a xlink:href="write__snapshot_8c.html#a33e7e3a2533d63c37d22a7458b9502ae" target="_top" xlink:title=" ">
<polygon fill="white" stroke="#666666" points="431.5,-57 318.5,-57 318.5,-38 431.5,-38 431.5,-57"/>
<text text-anchor="middle" x="375" y="-45" font-family="Helvetica,sans-Serif" font-size="10.00">write_LPT_snapshot</text>
</a>
</g>
</g>
<!-- Node2&#45;&gt;Node5 -->
<g id="edge4_Node000002_Node000005" class="edge">
<title>Node2&#45;&gt;Node5</title>
<g id="a_edge4_Node000002_Node000005"><a xlink:title=" ">
<path fill="none" stroke="#63b8ff" d="M482.15,-73.42C460.78,-68.2 435.53,-62.04 415.02,-57.03"/>
<polygon fill="#63b8ff" stroke="#63b8ff" points="481.44,-76.85 491.98,-75.83 483.1,-70.05 481.44,-76.85"/>
</a>
</g>
</g>
<!-- Node6 -->
<g id="Node000006" class="node">
<title>Node6</title>
<g id="a_Node000006"><a xlink:href="write__snapshot_8c.html#a8c7aa0495811b3720038a3f24a45232b" target="_top" xlink:title=" ">
<polygon fill="white" stroke="#666666" points="444,-20 306,-20 306,-1 444,-1 444,-20"/>
<text text-anchor="middle" x="375" y="-8" font-family="Helvetica,sans-Serif" font-size="10.00">write_timeless_snapshot</text>
</a>
</g>
</g>
<!-- Node2&#45;&gt;Node6 -->
<g id="edge6_Node000002_Node000006" class="edge">
<title>Node2&#45;&gt;Node6</title>
<g id="a_edge6_Node000002_Node000006"><a xlink:title=" ">
<path fill="none" stroke="#63b8ff" d="M487.04,-70.66C484.6,-69.37 482.23,-67.98 480,-66.5 460.63,-53.61 464.01,-40.37 444,-28.5 438.22,-25.07 431.79,-22.29 425.25,-20.02"/>
<polygon fill="#63b8ff" stroke="#63b8ff" points="485.56,-73.83 496.1,-74.91 488.53,-67.49 485.56,-73.83"/>
</a>
</g>
</g>
<!-- Node4 -->
<g id="Node000004" class="node">
<title>Node4</title>
<g id="a_Node000004"><a xlink:href="pinocchio_8c.html#a647f21a28344e1d9c643f4115516d7c9" target="_top" xlink:title=" ">
<polygon fill="white" stroke="#666666" points="41,-57 0,-57 0,-38 41,-38 41,-57"/>
<text text-anchor="middle" x="20.5" y="-45" font-family="Helvetica,sans-Serif" font-size="10.00">main</text>
</a>
</g>
</g>
<!-- Node3&#45;&gt;Node4 -->
<g id="edge3_Node000003_Node000004" class="edge">
<title>Node3&#45;&gt;Node4</title>
<g id="a_edge3_Node000003_Node000004"><a xlink:title=" ">
<path fill="none" stroke="#63b8ff" d="M323.15,-83.19C263.76,-81.05 162.7,-75.52 77,-61.5 64.94,-59.53 51.65,-56.22 41.11,-53.31"/>
<polygon fill="#63b8ff" stroke="#63b8ff" points="323.27,-86.69 333.39,-83.54 323.51,-79.7 323.27,-86.69"/>
</a>
</g>
</g>
<!-- Node5&#45;&gt;Node4 -->
<g id="edge5_Node000005_Node000004" class="edge">
<title>Node5&#45;&gt;Node4</title>
<g id="a_edge5_Node000005_Node000004"><a xlink:title=" ">
<path fill="none" stroke="#63b8ff" d="M307.94,-47.5C226.09,-47.5 91.28,-47.5 41.11,-47.5"/>
<polygon fill="#63b8ff" stroke="#63b8ff" points="308.15,-51 318.15,-47.5 308.15,-44 308.15,-51"/>
</a>
</g>
</g>
<!-- Node7 -->
<g id="Node000007" class="node">
<title>Node7</title>
<g id="a_Node000007"><a xlink:href="fragment_8c.html#ac2bb250921932f90f7b0939d1181b66d" target="_top" xlink:title=" ">
<polygon fill="white" stroke="#666666" points="270,-19 208,-19 208,0 270,0 270,-19"/>
<text text-anchor="middle" x="239" y="-7" font-family="Helvetica,sans-Serif" font-size="10.00">fragment</text>
</a>
</g>
</g>
<!-- Node6&#45;&gt;Node7 -->
<g id="edge7_Node000006_Node000007" class="edge">
<title>Node6&#45;&gt;Node7</title>
<g id="a_edge7_Node000006_Node000007"><a xlink:title=" ">
<path fill="none" stroke="#63b8ff" d="M295.58,-9.91C286.59,-9.85 277.87,-9.78 270.12,-9.72"/>
<polygon fill="#63b8ff" stroke="#63b8ff" points="295.8,-13.42 305.82,-9.99 295.85,-6.42 295.8,-13.42"/>
</a>
</g>
</g>
<!-- Node8 -->
<g id="Node000008" class="node">
<title>Node8</title>
<g id="a_Node000008"><a xlink:href="fragment_8c.html#ae3aa75d17cbc170e60f4f48c4a2ffdf5" target="_top" xlink:title=" ">
<polygon fill="white" stroke="#666666" points="172,-19 77,-19 77,0 172,0 172,-19"/>
<text text-anchor="middle" x="124.5" y="-7" font-family="Helvetica,sans-Serif" font-size="10.00">fragment_driver</text>
</a>
</g>
</g>
<!-- Node7&#45;&gt;Node8 -->
<g id="edge8_Node000007_Node000008" class="edge">
<title>Node7&#45;&gt;Node8</title>
<g id="a_edge8_Node000007_Node000008"><a xlink:title=" ">
<path fill="none" stroke="#63b8ff" d="M197.73,-9.5C189.47,-9.5 180.72,-9.5 172.26,-9.5"/>
<polygon fill="#63b8ff" stroke="#63b8ff" points="197.85,-13 207.85,-9.5 197.85,-6 197.85,-13"/>
</a>
</g>
</g>
<!-- Node8&#45;&gt;Node4 -->
<g id="edge9_Node000008_Node000004" class="edge">
<title>Node8&#45;&gt;Node4</title>
<g id="a_edge9_Node000008_Node000004"><a xlink:title=" ">
<path fill="none" stroke="#63b8ff" d="M88.28,-22.62C72.49,-28.5 54.46,-35.22 41.11,-40.19"/>
<polygon fill="#63b8ff" stroke="#63b8ff" points="89.61,-25.86 97.76,-19.09 87.17,-19.3 89.61,-25.86"/>
</a>
</g>
</g>
<!-- Node9&#45;&gt;Node3 -->
<g id="edge11_Node000009_Node000003" class="edge">
<title>Node9&#45;&gt;Node3</title>
<g id="a_edge11_Node000009_Node000003"><a xlink:title=" ">
<path fill="none" stroke="#63b8ff" d="M478.67,-59.43C458.12,-64.44 434.53,-70.21 415.15,-74.94"/>
<polygon fill="#63b8ff" stroke="#63b8ff" points="479.6,-62.8 488.48,-57.03 477.94,-56 479.6,-62.8"/>
</a>
</g>
</g>
<!-- Node9&#45;&gt;Node5 -->
<g id="edge12_Node000009_Node000005" class="edge">
<title>Node9&#45;&gt;Node5</title>
<g id="a_edge12_Node000009_Node000005"><a xlink:title=" ">
<path fill="none" stroke="#63b8ff" d="M478.45,-47.5C463.54,-47.5 447.05,-47.5 431.73,-47.5"/>
<polygon fill="#63b8ff" stroke="#63b8ff" points="478.49,-51 488.48,-47.5 478.48,-44 478.49,-51"/>
</a>
</g>
</g>
<!-- Node9&#45;&gt;Node6 -->
<g id="edge13_Node000009_Node000006" class="edge">
<title>Node9&#45;&gt;Node6</title>
<g id="a_edge13_Node000009_Node000006"><a xlink:title=" ">
<path fill="none" stroke="#63b8ff" d="M478.67,-35.57C458.12,-30.56 434.53,-24.79 415.15,-20.06"/>
<polygon fill="#63b8ff" stroke="#63b8ff" points="477.94,-39 488.48,-37.97 479.6,-32.2 477.94,-39"/>
</a>
</g>
</g>
<!-- Node10&#45;&gt;Node3 -->
<g id="edge15_Node000010_Node000003" class="edge">
<title>Node10&#45;&gt;Node3</title>
<g id="a_edge15_Node000010_Node000003"><a xlink:title=" ">
<path fill="none" stroke="#63b8ff" d="M487.04,-24.34C484.6,-25.63 482.23,-27.02 480,-28.5 460.63,-41.39 464.01,-54.63 444,-66.5 435.7,-71.42 426.05,-75.02 416.67,-77.65"/>
<polygon fill="#63b8ff" stroke="#63b8ff" points="488.53,-27.51 496.1,-20.09 485.56,-21.17 488.53,-27.51"/>
</a>
</g>
</g>
<!-- Node10&#45;&gt;Node5 -->
<g id="edge16_Node000010_Node000005" class="edge">
<title>Node10&#45;&gt;Node5</title>
<g id="a_edge16_Node000010_Node000005"><a xlink:title=" ">
<path fill="none" stroke="#63b8ff" d="M478.67,-22.43C458.12,-27.44 434.53,-33.21 415.15,-37.94"/>
<polygon fill="#63b8ff" stroke="#63b8ff" points="479.6,-25.8 488.48,-20.03 477.94,-19 479.6,-25.8"/>
</a>
</g>
</g>
<!-- Node10&#45;&gt;Node6 -->
<g id="edge17_Node000010_Node000006" class="edge">
<title>Node10&#45;&gt;Node6</title>
<g id="a_edge17_Node000010_Node000006"><a xlink:title=" ">
<path fill="none" stroke="#63b8ff" d="M469.9,-10.5C461.49,-10.5 452.76,-10.5 444.16,-10.5"/>
<polygon fill="#63b8ff" stroke="#63b8ff" points="469.98,-14 479.98,-10.5 469.98,-7 469.98,-14"/>
</a>
</g>
</g>
</g>
</svg>
