<?xml version="1.0" encoding="UTF-8" standalone="no"?>
<!DOCTYPE svg PUBLIC "-//W3C//DTD SVG 1.1//EN"
 "http://www.w3.org/Graphics/SVG/1.1/DTD/svg11.dtd">
<!-- Generated by graphviz version 2.43.0 (0)
 -->
<!-- Title: write_PLC Pages: 1 -->
<svg width="940pt" height="211pt"
 viewBox="0.00 0.00 940.00 211.00" xmlns="http://www.w3.org/2000/svg" xmlns:xlink="http://www.w3.org/1999/xlink">
<g id="graph0" class="graph" transform="scale(1 1) rotate(0) translate(4 207)">
<title>write_PLC</title>
<!-- Node1 -->
<g id="Node000001" class="node">
<title>Node1</title>
<g id="a_Node000001"><a xlink:title=" ">
<polygon fill="#999999" stroke="#666666" points="65,-126 0,-126 0,-107 65,-107 65,-126"/>
<text text-anchor="middle" x="32.5" y="-114" font-family="Helvetica,sans-Serif" font-size="10.00">write_PLC</text>
</a>
</g>
</g>
<!-- Node2 -->
<g id="Node000002" class="node">
<title>Node2</title>
<g id="a_Node000002"><a xlink:href="fragment_8c.html#aabb4533acf454a2edcad5fe0ad385df8" target="_top" xlink:title=" ">
<polygon fill="white" stroke="#666666" points="237,-169 101,-169 101,-150 237,-150 237,-169"/>
<text text-anchor="middle" x="169" y="-157" font-family="Helvetica,sans-Serif" font-size="10.00">compute_Nhalos_in_PLC</text>
</a>
</g>
</g>
<!-- Node1&#45;&gt;Node2 -->
<g id="edge1_Node000001_Node000002" class="edge">
<title>Node1&#45;&gt;Node2</title>
<g id="a_edge1_Node000001_Node000002"><a xlink:title=" ">
<path fill="none" stroke="#63b8ff" d="M59.01,-126.01C71.59,-130.59 87.02,-136.04 101,-140.5 108.05,-142.75 115.55,-145.01 122.9,-147.15"/>
<polygon fill="#63b8ff" stroke="#63b8ff" points="122.17,-150.58 132.75,-149.97 124.1,-143.85 122.17,-150.58"/>
</a>
</g>
</g>
<!-- Node13 -->
<g id="Node000013" class="node">
<title>Node13</title>
<g id="a_Node000013"><a xlink:href="build__groups_8c.html#abfcb55d90e7c73c5bf323729666b92a3" target="_top" xlink:title=" ">
<polygon fill="white" stroke="#666666" points="230,-131.5 108,-131.5 108,-101.5 230,-101.5 230,-131.5"/>
<text text-anchor="start" x="116" y="-119.5" font-family="Helvetica,sans-Serif" font-size="10.00">coord_transformation</text>
<text text-anchor="middle" x="169" y="-108.5" font-family="Helvetica,sans-Serif" font-size="10.00">_cartesian_polar</text>
</a>
</g>
</g>
<!-- Node1&#45;&gt;Node13 -->
<g id="edge15_Node000001_Node000013" class="edge">
<title>Node1&#45;&gt;Node13</title>
<g id="a_edge15_Node000001_Node000013"><a xlink:title=" ">
<path fill="none" stroke="#63b8ff" d="M65.03,-116.5C74.94,-116.5 86.31,-116.5 97.79,-116.5"/>
<polygon fill="#63b8ff" stroke="#63b8ff" points="97.88,-120 107.88,-116.5 97.88,-113 97.88,-120"/>
</a>
</g>
</g>
<!-- Node14 -->
<g id="Node000014" class="node">
<title>Node14</title>
<g id="a_Node000014"><a xlink:href="fmax_8c.html#a76000ea6ddfd81a9d6cf317d53f54378" target="_top" xlink:title=" ">
<polygon fill="white" stroke="#666666" points="190,-83 148,-83 148,-64 190,-64 190,-83"/>
<text text-anchor="middle" x="169" y="-71" font-family="Helvetica,sans-Serif" font-size="10.00">fdate</text>
</a>
</g>
</g>
<!-- Node1&#45;&gt;Node14 -->
<g id="edge16_Node000001_Node000014" class="edge">
<title>Node1&#45;&gt;Node14</title>
<g id="a_edge16_Node000001_Node000014"><a xlink:title=" ">
<path fill="none" stroke="#63b8ff" d="M59.01,-106.99C71.59,-102.41 87.02,-96.96 101,-92.5 113.12,-88.63 126.59,-84.74 138.25,-81.49"/>
<polygon fill="#63b8ff" stroke="#63b8ff" points="139.25,-84.84 147.96,-78.81 137.39,-78.09 139.25,-84.84"/>
</a>
</g>
</g>
<!-- Node3 -->
<g id="Node000003" class="node">
<title>Node3</title>
<g id="a_Node000003"><a xlink:href="cosmo_8c.html#aa3beda8770f3f4e1b00e486bb647edc5" target="_top" xlink:title=" ">
<polygon fill="white" stroke="#666666" points="508,-203 399,-203 399,-184 508,-184 508,-203"/>
<text text-anchor="middle" x="453.5" y="-191" font-family="Helvetica,sans-Serif" font-size="10.00">ComovingDistance</text>
</a>
</g>
</g>
<!-- Node2&#45;&gt;Node3 -->
<g id="edge2_Node000002_Node000003" class="edge">
<title>Node2&#45;&gt;Node3</title>
<g id="a_edge2_Node000002_Node000003"><a xlink:title=" ">
<path fill="none" stroke="#63b8ff" d="M237.31,-167.6C283.28,-173.13 343.8,-180.42 388.95,-185.85"/>
<polygon fill="#63b8ff" stroke="#63b8ff" points="388.57,-189.33 398.92,-187.05 389.41,-182.38 388.57,-189.33"/>
</a>
</g>
</g>
<!-- Node5 -->
<g id="Node000005" class="node">
<title>Node5</title>
<g id="a_Node000005"><a xlink:href="fragment_8c.html#a167c76ec9c64d91e440bec86963419bb" target="_top" xlink:title=" ">
<polygon fill="white" stroke="#666666" points="356,-141 273,-141 273,-122 356,-122 356,-141"/>
<text text-anchor="middle" x="314.5" y="-129" font-family="Helvetica,sans-Serif" font-size="10.00">Integrand_MF</text>
</a>
</g>
</g>
<!-- Node2&#45;&gt;Node5 -->
<g id="edge4_Node000002_Node000005" class="edge">
<title>Node2&#45;&gt;Node5</title>
<g id="a_edge4_Node000002_Node000005"><a xlink:title=" ">
<path fill="none" stroke="#63b8ff" d="M218.98,-149.94C233.1,-147.19 248.52,-144.18 262.74,-141.41"/>
<polygon fill="#63b8ff" stroke="#63b8ff" points="263.7,-144.78 272.84,-139.43 262.36,-137.91 263.7,-144.78"/>
</a>
</g>
</g>
<!-- Node4 -->
<g id="Node000004" class="node">
<title>Node4</title>
<g id="a_Node000004"><a xlink:href="cosmo_8c.html#a6341f5394ed17a00dc77c5519b292ae3" target="_top" xlink:title=" ">
<polygon fill="white" stroke="#666666" points="932,-132 839,-132 839,-113 932,-113 932,-132"/>
<text text-anchor="middle" x="885.5" y="-120" font-family="Helvetica,sans-Serif" font-size="10.00">my_spline_eval</text>
</a>
</g>
</g>
<!-- Node3&#45;&gt;Node4 -->
<g id="edge3_Node000003_Node000004" class="edge">
<title>Node3&#45;&gt;Node4</title>
<g id="a_edge3_Node000003_Node000004"><a xlink:title=" ">
<path fill="none" stroke="#63b8ff" d="M508.05,-194.04C577.34,-193.48 701.25,-188.15 803,-160.5 822.71,-155.14 843.56,-145.34 859.24,-137.03"/>
<polygon fill="#63b8ff" stroke="#63b8ff" points="861.17,-139.96 868.28,-132.1 857.82,-133.81 861.17,-139.96"/>
</a>
</g>
</g>
<!-- Node6 -->
<g id="Node000006" class="node">
<title>Node6</title>
<g id="a_Node000006"><a xlink:href="cosmo_8c.html#a3e2faa009164fa657b79bf92bbfbb407" target="_top" xlink:title=" ">
<polygon fill="white" stroke="#666666" points="515,-104 392,-104 392,-85 515,-85 515,-104"/>
<text text-anchor="middle" x="453.5" y="-92" font-family="Helvetica,sans-Serif" font-size="10.00">AnalyticMassFunction</text>
</a>
</g>
</g>
<!-- Node5&#45;&gt;Node6 -->
<g id="edge5_Node000005_Node000006" class="edge">
<title>Node5&#45;&gt;Node6</title>
<g id="a_edge5_Node000005_Node000006"><a xlink:title=" ">
<path fill="none" stroke="#63b8ff" d="M350.78,-121.97C367.91,-117.35 388.69,-111.73 406.99,-106.79"/>
<polygon fill="#63b8ff" stroke="#63b8ff" points="408.12,-110.11 416.86,-104.12 406.3,-103.35 408.12,-110.11"/>
</a>
</g>
</g>
<!-- Node7 -->
<g id="Node000007" class="node">
<title>Node7</title>
<g id="a_Node000007"><a xlink:href="cosmo_8c.html#a7e6c85650740115e3cf73cca408cfc5a" target="_top" xlink:title=" ">
<polygon fill="white" stroke="#666666" points="803,-151 698,-151 698,-132 803,-132 803,-151"/>
<text text-anchor="middle" x="750.5" y="-139" font-family="Helvetica,sans-Serif" font-size="10.00">dMassVariance_dr</text>
</a>
</g>
</g>
<!-- Node6&#45;&gt;Node7 -->
<g id="edge6_Node000006_Node000007" class="edge">
<title>Node6&#45;&gt;Node7</title>
<g id="a_edge6_Node000006_Node000007"><a xlink:title=" ">
<path fill="none" stroke="#63b8ff" d="M468.76,-104.03C486.94,-115.56 519.77,-134.3 551,-141.5 595.95,-151.86 648.16,-151.39 687.75,-148.58"/>
<polygon fill="#63b8ff" stroke="#63b8ff" points="688.09,-152.06 697.79,-147.8 687.55,-145.08 688.09,-152.06"/>
</a>
</g>
</g>
<!-- Node8 -->
<g id="Node000008" class="node">
<title>Node8</title>
<g id="a_Node000008"><a xlink:href="cosmo_8c.html#a673892897db42773951bd46f397f914b" target="_top" xlink:title=" ">
<polygon fill="white" stroke="#666666" points="662,-132 551,-132 551,-113 662,-113 662,-132"/>
<text text-anchor="middle" x="606.5" y="-120" font-family="Helvetica,sans-Serif" font-size="10.00">dOmega_dVariance</text>
</a>
</g>
</g>
<!-- Node6&#45;&gt;Node8 -->
<g id="edge8_Node000006_Node000008" class="edge">
<title>Node6&#45;&gt;Node8</title>
<g id="a_edge8_Node000006_Node000008"><a xlink:title=" ">
<path fill="none" stroke="#63b8ff" d="M506.04,-104.06C518.31,-106.33 531.52,-108.78 544.18,-111.13"/>
<polygon fill="#63b8ff" stroke="#63b8ff" points="543.72,-114.6 554.19,-112.99 544.99,-107.72 543.72,-114.6"/>
</a>
</g>
</g>
<!-- Node9 -->
<g id="Node000009" class="node">
<title>Node9</title>
<g id="a_Node000009"><a xlink:href="cosmo_8c.html#a9fbcf5b69c272e801cf320cf814b23c4" target="_top" xlink:title=" ">
<polygon fill="white" stroke="#666666" points="648.5,-95 564.5,-95 564.5,-76 648.5,-76 648.5,-95"/>
<text text-anchor="middle" x="606.5" y="-83" font-family="Helvetica,sans-Serif" font-size="10.00">GrowingMode</text>
</a>
</g>
</g>
<!-- Node6&#45;&gt;Node9 -->
<g id="edge9_Node000006_Node000009" class="edge">
<title>Node6&#45;&gt;Node9</title>
<g id="a_edge9_Node000006_Node000009"><a xlink:title=" ">
<path fill="none" stroke="#63b8ff" d="M515.05,-90.89C528,-90.12 541.56,-89.31 554.12,-88.56"/>
<polygon fill="#63b8ff" stroke="#63b8ff" points="554.63,-92.04 564.4,-87.95 554.21,-85.05 554.63,-92.04"/>
</a>
</g>
</g>
<!-- Node11 -->
<g id="Node000011" class="node">
<title>Node11</title>
<g id="a_Node000011"><a xlink:href="cosmo_8c.html#aa47020606869257e46b3a4f9071504d0" target="_top" xlink:title=" ">
<polygon fill="white" stroke="#666666" points="792.5,-67 708.5,-67 708.5,-48 792.5,-48 792.5,-67"/>
<text text-anchor="middle" x="750.5" y="-55" font-family="Helvetica,sans-Serif" font-size="10.00">MassVariance</text>
</a>
</g>
</g>
<!-- Node6&#45;&gt;Node11 -->
<g id="edge12_Node000006_Node000011" class="edge">
<title>Node6&#45;&gt;Node11</title>
<g id="a_edge12_Node000006_Node000011"><a xlink:title=" ">
<path fill="none" stroke="#63b8ff" d="M481.14,-84.92C500.3,-78.48 526.9,-70.48 551,-66.5 600.47,-58.32 657.75,-56.53 698.03,-56.51"/>
<polygon fill="#63b8ff" stroke="#63b8ff" points="698.13,-60.01 708.15,-56.54 698.16,-53.01 698.13,-60.01"/>
</a>
</g>
</g>
<!-- Node12 -->
<g id="Node000012" class="node">
<title>Node12</title>
<g id="a_Node000012"><a xlink:href="cosmo_8c.html#a66b5b059ca665289d407e13f98e6ff9a" target="_top" xlink:title=" ">
<polygon fill="white" stroke="#666666" points="645,-19 568,-19 568,0 645,0 645,-19"/>
<text text-anchor="middle" x="606.5" y="-7" font-family="Helvetica,sans-Serif" font-size="10.00">SizeForMass</text>
</a>
</g>
</g>
<!-- Node6&#45;&gt;Node12 -->
<g id="edge14_Node000006_Node000012" class="edge">
<title>Node6&#45;&gt;Node12</title>
<g id="a_edge14_Node000006_Node000012"><a xlink:title=" ">
<path fill="none" stroke="#63b8ff" d="M468.17,-84.94C486.53,-72.32 520.38,-49.8 551,-33.5 557.78,-29.89 565.21,-26.36 572.34,-23.16"/>
<polygon fill="#63b8ff" stroke="#63b8ff" points="574.03,-26.24 581.8,-19.03 571.23,-19.82 574.03,-26.24"/>
</a>
</g>
</g>
<!-- Node7&#45;&gt;Node4 -->
<g id="edge7_Node000007_Node000004" class="edge">
<title>Node7&#45;&gt;Node4</title>
<g id="a_edge7_Node000007_Node000004"><a xlink:title=" ">
<path fill="none" stroke="#63b8ff" d="M803.3,-134.1C811.6,-132.91 820.22,-131.68 828.6,-130.49"/>
<polygon fill="#63b8ff" stroke="#63b8ff" points="829.28,-133.92 838.68,-129.05 828.29,-126.99 829.28,-133.92"/>
</a>
</g>
</g>
<!-- Node10 -->
<g id="Node000010" class="node">
<title>Node10</title>
<g id="a_Node000010"><a xlink:href="cosmo_8c.html#a8847e5b8ea1f9c458c8bf9e5f36837a9" target="_top" xlink:title=" ">
<polygon fill="white" stroke="#666666" points="803,-104 698,-104 698,-85 803,-85 803,-104"/>
<text text-anchor="middle" x="750.5" y="-92" font-family="Helvetica,sans-Serif" font-size="10.00">InterpolateGrowth</text>
</a>
</g>
</g>
<!-- Node9&#45;&gt;Node10 -->
<g id="edge10_Node000009_Node000010" class="edge">
<title>Node9&#45;&gt;Node10</title>
<g id="a_edge10_Node000009_Node000010"><a xlink:title=" ">
<path fill="none" stroke="#63b8ff" d="M648.57,-88.1C660.84,-88.88 674.57,-89.75 687.86,-90.59"/>
<polygon fill="#63b8ff" stroke="#63b8ff" points="687.7,-94.09 697.9,-91.23 688.14,-87.1 687.7,-94.09"/>
</a>
</g>
</g>
<!-- Node10&#45;&gt;Node4 -->
<g id="edge11_Node000010_Node000004" class="edge">
<title>Node10&#45;&gt;Node4</title>
<g id="a_edge11_Node000010_Node000004"><a xlink:title=" ">
<path fill="none" stroke="#63b8ff" d="M796.9,-104.06C807.38,-106.27 818.65,-108.64 829.5,-110.92"/>
<polygon fill="#63b8ff" stroke="#63b8ff" points="828.8,-114.35 839.31,-112.99 830.24,-107.5 828.8,-114.35"/>
</a>
</g>
</g>
<!-- Node11&#45;&gt;Node4 -->
<g id="edge13_Node000011_Node000004" class="edge">
<title>Node11&#45;&gt;Node4</title>
<g id="a_edge13_Node000011_Node000004"><a xlink:title=" ">
<path fill="none" stroke="#63b8ff" d="M781.83,-67.04C788.88,-69.55 796.28,-72.42 803,-75.5 823.36,-84.83 845.28,-97.64 861.26,-107.54"/>
<polygon fill="#63b8ff" stroke="#63b8ff" points="859.59,-110.62 869.92,-112.98 863.32,-104.69 859.59,-110.62"/>
</a>
</g>
</g>
</g>
</svg>
