<?xml version="1.0" encoding="UTF-8" standalone="no"?>
<!DOCTYPE svg PUBLIC "-//W3C//DTD SVG 1.1//EN"
 "http://www.w3.org/Graphics/SVG/1.1/DTD/svg11.dtd">
<!-- Generated by graphviz version 2.43.0 (0)
 -->
<!-- Title: mass_maps_npix_from_nside Pages: 1 -->
<svg width="1020pt" height="59pt"
 viewBox="0.00 0.00 1020.00 59.00" xmlns="http://www.w3.org/2000/svg" xmlns:xlink="http://www.w3.org/1999/xlink">
<g id="graph0" class="graph" transform="scale(1 1) rotate(0) translate(4 55)">
<title>mass_maps_npix_from_nside</title>
<!-- Node1 -->
<g id="Node000001" class="node">
<title>Node1</title>
<g id="a_Node000001"><a xlink:title=" ">
<polygon fill="#999999" stroke="#666666" points="1012,-51 882,-51 882,-21 1012,-21 1012,-51"/>
<text text-anchor="start" x="890" y="-39" font-family="Helvetica,sans-Serif" font-size="10.00">mass_maps_npix_from</text>
<text text-anchor="middle" x="947" y="-28" font-family="Helvetica,sans-Serif" font-size="10.00">_nside</text>
</a>
</g>
</g>
<!-- Node2 -->
<g id="Node000002" class="node">
<title>Node2</title>
<g id="a_Node000002"><a xlink:href="write__mass__maps_8c.html#a5935cb352e2164e79bbabe30af0bd0b7" target="_top" xlink:title=" ">
<polygon fill="white" stroke="#666666" points="678,-45.5 508,-45.5 508,-26.5 678,-26.5 678,-45.5"/>
<text text-anchor="middle" x="593" y="-33.5" font-family="Helvetica,sans-Serif" font-size="10.00">mass_maps_init_healpix_maps</text>
</a>
</g>
</g>
<!-- Node1&#45;&gt;Node2 -->
<g id="edge1_Node000001_Node000002" class="edge">
<title>Node1&#45;&gt;Node2</title>
<g id="a_edge1_Node000001_Node000002"><a xlink:title=" ">
<path fill="none" stroke="#63b8ff" d="M871.82,-38.47C863.12,-38.69 854.36,-38.87 846,-39 787.34,-39.88 772.66,-39.73 714,-39 702.43,-38.86 690.24,-38.63 678.24,-38.37"/>
<polygon fill="#63b8ff" stroke="#63b8ff" points="872.09,-41.97 881.99,-38.21 871.9,-34.97 872.09,-41.97"/>
</a>
</g>
</g>
<!-- Node7 -->
<g id="Node000007" class="node">
<title>Node7</title>
<g id="a_Node000007"><a xlink:href="write__mass__maps_8c.html#a7240d4c21b5d0ee79e20f10943ec811b" target="_top" xlink:title=" ">
<polygon fill="white" stroke="#666666" points="846,-30 714,-30 714,0 846,0 846,-30"/>
<text text-anchor="start" x="722" y="-18" font-family="Helvetica,sans-Serif" font-size="10.00">mass_maps_ncap_from</text>
<text text-anchor="middle" x="780" y="-7" font-family="Helvetica,sans-Serif" font-size="10.00">_aperture</text>
</a>
</g>
</g>
<!-- Node1&#45;&gt;Node7 -->
<g id="edge6_Node000001_Node000007" class="edge">
<title>Node1&#45;&gt;Node7</title>
<g id="a_edge6_Node000001_Node000007"><a xlink:title=" ">
<path fill="none" stroke="#63b8ff" d="M871.79,-26.55C863.25,-25.47 854.59,-24.37 846.18,-23.3"/>
<polygon fill="#63b8ff" stroke="#63b8ff" points="871.37,-30.03 881.73,-27.82 872.26,-23.09 871.37,-30.03"/>
</a>
</g>
</g>
<!-- Node3 -->
<g id="Node000003" class="node">
<title>Node3</title>
<g id="a_Node000003"><a xlink:href="write__mass__maps_8c.html#a523d76e3e01c2ce2c7d973cf5ad60cb6" target="_top" xlink:title=" ">
<polygon fill="white" stroke="#666666" points="472,-45.5 306,-45.5 306,-26.5 472,-26.5 472,-45.5"/>
<text text-anchor="middle" x="389" y="-33.5" font-family="Helvetica,sans-Serif" font-size="10.00">mass_maps_process_segment</text>
</a>
</g>
</g>
<!-- Node2&#45;&gt;Node3 -->
<g id="edge2_Node000002_Node000003" class="edge">
<title>Node2&#45;&gt;Node3</title>
<g id="a_edge2_Node000002_Node000003"><a xlink:title=" ">
<path fill="none" stroke="#63b8ff" d="M497.78,-36C489.21,-36 480.57,-36 472.12,-36"/>
<polygon fill="#63b8ff" stroke="#63b8ff" points="497.8,-39.5 507.8,-36 497.8,-32.5 497.8,-39.5"/>
</a>
</g>
</g>
<!-- Node4 -->
<g id="Node000004" class="node">
<title>Node4</title>
<g id="a_Node000004"><a xlink:href="fragment_8c.html#ac2bb250921932f90f7b0939d1181b66d" target="_top" xlink:title=" ">
<polygon fill="white" stroke="#666666" points="270,-45.5 208,-45.5 208,-26.5 270,-26.5 270,-45.5"/>
<text text-anchor="middle" x="239" y="-33.5" font-family="Helvetica,sans-Serif" font-size="10.00">fragment</text>
</a>
</g>
</g>
<!-- Node3&#45;&gt;Node4 -->
<g id="edge3_Node000003_Node000004" class="edge">
<title>Node3&#45;&gt;Node4</title>
<g id="a_edge3_Node000003_Node000004"><a xlink:title=" ">
<path fill="none" stroke="#63b8ff" d="M295.51,-36C286.54,-36 277.95,-36 270.33,-36"/>
<polygon fill="#63b8ff" stroke="#63b8ff" points="295.78,-39.5 305.78,-36 295.78,-32.5 295.78,-39.5"/>
</a>
</g>
</g>
<!-- Node5 -->
<g id="Node000005" class="node">
<title>Node5</title>
<g id="a_Node000005"><a xlink:href="fragment_8c.html#ae3aa75d17cbc170e60f4f48c4a2ffdf5" target="_top" xlink:title=" ">
<polygon fill="white" stroke="#666666" points="172,-45.5 77,-45.5 77,-26.5 172,-26.5 172,-45.5"/>
<text text-anchor="middle" x="124.5" y="-33.5" font-family="Helvetica,sans-Serif" font-size="10.00">fragment_driver</text>
</a>
</g>
</g>
<!-- Node4&#45;&gt;Node5 -->
<g id="edge4_Node000004_Node000005" class="edge">
<title>Node4&#45;&gt;Node5</title>
<g id="a_edge4_Node000004_Node000005"><a xlink:title=" ">
<path fill="none" stroke="#63b8ff" d="M197.73,-36C189.47,-36 180.72,-36 172.26,-36"/>
<polygon fill="#63b8ff" stroke="#63b8ff" points="197.85,-39.5 207.85,-36 197.85,-32.5 197.85,-39.5"/>
</a>
</g>
</g>
<!-- Node6 -->
<g id="Node000006" class="node">
<title>Node6</title>
<g id="a_Node000006"><a xlink:href="pinocchio_8c.html#a647f21a28344e1d9c643f4115516d7c9" target="_top" xlink:title=" ">
<polygon fill="white" stroke="#666666" points="41,-45.5 0,-45.5 0,-26.5 41,-26.5 41,-45.5"/>
<text text-anchor="middle" x="20.5" y="-33.5" font-family="Helvetica,sans-Serif" font-size="10.00">main</text>
</a>
</g>
</g>
<!-- Node5&#45;&gt;Node6 -->
<g id="edge5_Node000005_Node000006" class="edge">
<title>Node5&#45;&gt;Node6</title>
<g id="a_edge5_Node000005_Node000006"><a xlink:title=" ">
<path fill="none" stroke="#63b8ff" d="M66.91,-36C57.67,-36 48.67,-36 41.16,-36"/>
<polygon fill="#63b8ff" stroke="#63b8ff" points="66.98,-39.5 76.98,-36 66.98,-32.5 66.98,-39.5"/>
</a>
</g>
</g>
<!-- Node7&#45;&gt;Node2 -->
<g id="edge7_Node000007_Node000002" class="edge">
<title>Node7&#45;&gt;Node2</title>
<g id="a_edge7_Node000007_Node000002"><a xlink:title=" ">
<path fill="none" stroke="#63b8ff" d="M703.81,-23.53C695.23,-24.51 686.44,-25.51 677.76,-26.49"/>
<polygon fill="#63b8ff" stroke="#63b8ff" points="704.23,-27.01 713.78,-22.4 703.44,-20.05 704.23,-27.01"/>
</a>
</g>
</g>
</g>
</svg>
