<?xml version="1.0" encoding="UTF-8" standalone="no"?>
<!DOCTYPE svg PUBLIC "-//W3C//DTD SVG 1.1//EN"
 "http://www.w3.org/Graphics/SVG/1.1/DTD/svg11.dtd">
<!-- Generated by graphviz version 2.43.0 (0)
 -->
<!-- Title: write_catalog Pages: 1 -->
<svg width="717pt" height="306pt"
 viewBox="0.00 0.00 717.00 306.33" xmlns="http://www.w3.org/2000/svg" xmlns:xlink="http://www.w3.org/1999/xlink">
<g id="graph0" class="graph" transform="scale(1 1) rotate(0) translate(4 302.33)">
<title>write_catalog</title>
<!-- Node1 -->
<g id="Node000001" class="node">
<title>Node1</title>
<g id="a_Node000001"><a xlink:title=" ">
<polygon fill="#999999" stroke="#666666" points="83,-179.33 0,-179.33 0,-160.33 83,-160.33 83,-179.33"/>
<text text-anchor="middle" x="41.5" y="-167.33" font-family="Helvetica,sans-Serif" font-size="10.00">write_catalog</text>
</a>
</g>
</g>
<!-- Node2 -->
<g id="Node000002" class="node">
<title>Node2</title>
<g id="a_Node000002"><a xlink:href="fmax_8c.html#a76000ea6ddfd81a9d6cf317d53f54378" target="_top" xlink:title=" ">
<polygon fill="white" stroke="#666666" points="166,-253.33 124,-253.33 124,-234.33 166,-234.33 166,-253.33"/>
<text text-anchor="middle" x="145" y="-241.33" font-family="Helvetica,sans-Serif" font-size="10.00">fdate</text>
</a>
</g>
</g>
<!-- Node1&#45;&gt;Node2 -->
<g id="edge1_Node000001_Node000002" class="edge">
<title>Node1&#45;&gt;Node2</title>
<g id="a_edge1_Node000001_Node000002"><a xlink:title=" ">
<path fill="none" stroke="#63b8ff" d="M55.47,-179.38C70.67,-190.55 96.62,-209.59 119,-225.83 120.07,-226.61 121.17,-227.41 122.28,-228.21"/>
<polygon fill="#63b8ff" stroke="#63b8ff" points="120.59,-231.31 130.75,-234.32 124.69,-225.63 120.59,-231.31"/>
</a>
</g>
</g>
<!-- Node3 -->
<g id="Node000003" class="node">
<title>Node3</title>
<g id="a_Node000003"><a xlink:href="build__groups_8c.html#af25b71527a52752ed24f02b5b4ed6d66" target="_top" xlink:title=" ">
<polygon fill="white" stroke="#666666" points="162.5,-216.33 127.5,-216.33 127.5,-197.33 162.5,-197.33 162.5,-216.33"/>
<text text-anchor="middle" x="145" y="-204.33" font-family="Helvetica,sans-Serif" font-size="10.00">q2x</text>
</a>
</g>
</g>
<!-- Node1&#45;&gt;Node3 -->
<g id="edge2_Node000001_Node000003" class="edge">
<title>Node1&#45;&gt;Node3</title>
<g id="a_edge2_Node000001_Node000003"><a xlink:title=" ">
<path fill="none" stroke="#63b8ff" d="M68.64,-179.36C83.72,-184.86 102.63,-191.75 117.73,-197.26"/>
<polygon fill="#63b8ff" stroke="#63b8ff" points="116.89,-200.68 127.48,-200.81 119.29,-194.1 116.89,-200.68"/>
</a>
</g>
</g>
<!-- Node4 -->
<g id="Node000004" class="node">
<title>Node4</title>
<g id="a_Node000004"><a xlink:href="build__groups_8c.html#a8ca8a2e49b8887203360635eb02ee79e" target="_top" xlink:title=" ">
<polygon fill="white" stroke="#666666" points="171,-179.33 119,-179.33 119,-160.33 171,-160.33 171,-179.33"/>
<text text-anchor="middle" x="145" y="-167.33" font-family="Helvetica,sans-Serif" font-size="10.00">set_obj</text>
</a>
</g>
</g>
<!-- Node1&#45;&gt;Node4 -->
<g id="edge3_Node000001_Node000004" class="edge">
<title>Node1&#45;&gt;Node4</title>
<g id="a_edge3_Node000001_Node000004"><a xlink:title=" ">
<path fill="none" stroke="#63b8ff" d="M83.2,-169.83C91.65,-169.83 100.49,-169.83 108.73,-169.83"/>
<polygon fill="#63b8ff" stroke="#63b8ff" points="108.77,-173.33 118.77,-169.83 108.77,-166.33 108.77,-173.33"/>
</a>
</g>
</g>
<!-- Node12 -->
<g id="Node000012" class="node">
<title>Node12</title>
<g id="a_Node000012"><a xlink:href="build__groups_8c.html#abe99b5cfd56cfef913ff93b89cc3555f" target="_top" xlink:title=" ">
<polygon fill="white" stroke="#666666" points="279,-95.33 207,-95.33 207,-76.33 279,-76.33 279,-95.33"/>
<text text-anchor="middle" x="243" y="-83.33" font-family="Helvetica,sans-Serif" font-size="10.00">set_obj_vel</text>
</a>
</g>
</g>
<!-- Node1&#45;&gt;Node12 -->
<g id="edge14_Node000001_Node000012" class="edge">
<title>Node1&#45;&gt;Node12</title>
<g id="a_edge14_Node000001_Node000012"><a xlink:title=" ">
<path fill="none" stroke="#63b8ff" d="M65.39,-160.2C100.94,-145.23 169.54,-116.34 209.99,-99.31"/>
<polygon fill="#63b8ff" stroke="#63b8ff" points="211.52,-102.46 219.38,-95.36 208.81,-96.01 211.52,-102.46"/>
</a>
</g>
</g>
<!-- Node18 -->
<g id="Node000018" class="node">
<title>Node18</title>
<g id="a_Node000018"><a xlink:href="build__groups_8c.html#a83c8d045b5cd7ea0df7228b7ec437dcd" target="_top" xlink:title=" ">
<polygon fill="white" stroke="#666666" points="161,-103.33 129,-103.33 129,-84.33 161,-84.33 161,-103.33"/>
<text text-anchor="middle" x="145" y="-91.33" font-family="Helvetica,sans-Serif" font-size="10.00">vel</text>
</a>
</g>
</g>
<!-- Node1&#45;&gt;Node18 -->
<g id="edge25_Node000001_Node000018" class="edge">
<title>Node1&#45;&gt;Node18</title>
<g id="a_edge25_Node000001_Node000018"><a xlink:title=" ">
<path fill="none" stroke="#63b8ff" d="M55.36,-160.21C72.44,-147.42 102.83,-124.66 123.2,-109.41"/>
<polygon fill="#63b8ff" stroke="#63b8ff" points="125.34,-112.18 131.25,-103.38 121.15,-106.57 125.34,-112.18"/>
</a>
</g>
</g>
<!-- Node5 -->
<g id="Node000005" class="node">
<title>Node5</title>
<g id="a_Node000005"><a xlink:href="build__groups_8c.html#a7d0a825b630d787e82f2aad789794b1b" target="_top" xlink:title=" ">
<polygon fill="white" stroke="#666666" points="278,-224.33 208,-224.33 208,-205.33 278,-205.33 278,-224.33"/>
<text text-anchor="middle" x="243" y="-212.33" font-family="Helvetica,sans-Serif" font-size="10.00">set_weight</text>
</a>
</g>
</g>
<!-- Node4&#45;&gt;Node5 -->
<g id="edge4_Node000004_Node000005" class="edge">
<title>Node4&#45;&gt;Node5</title>
<g id="a_edge4_Node000004_Node000005"><a xlink:title=" ">
<path fill="none" stroke="#63b8ff" d="M166.36,-179.38C179.72,-185.64 197.42,-193.94 212.34,-200.93"/>
<polygon fill="#63b8ff" stroke="#63b8ff" points="211.13,-204.23 221.67,-205.3 214.1,-197.89 211.13,-204.23"/>
</a>
</g>
</g>
<!-- Node6 -->
<g id="Node000006" class="node">
<title>Node6</title>
<g id="a_Node000006"><a xlink:href="cosmo_8c.html#a9fbcf5b69c272e801cf320cf814b23c4" target="_top" xlink:title=" ">
<polygon fill="white" stroke="#666666" points="419,-298.33 335,-298.33 335,-279.33 419,-279.33 419,-298.33"/>
<text text-anchor="middle" x="377" y="-286.33" font-family="Helvetica,sans-Serif" font-size="10.00">GrowingMode</text>
</a>
</g>
</g>
<!-- Node5&#45;&gt;Node6 -->
<g id="edge5_Node000005_Node000006" class="edge">
<title>Node5&#45;&gt;Node6</title>
<g id="a_edge5_Node000005_Node000006"><a xlink:title=" ">
<path fill="none" stroke="#63b8ff" d="M253.72,-224.53C266.66,-236.92 290.74,-258.28 315,-270.83 318.49,-272.64 322.18,-274.29 325.96,-275.79"/>
<polygon fill="#63b8ff" stroke="#63b8ff" points="324.85,-279.11 335.45,-279.23 327.24,-272.53 324.85,-279.11"/>
</a>
</g>
</g>
<!-- Node9 -->
<g id="Node000009" class="node">
<title>Node9</title>
<g id="a_Node000009"><a xlink:href="cosmo_8c.html#a3d4dfa13b4af53acceb7a040e2517499" target="_top" xlink:title=" ">
<polygon fill="white" stroke="#666666" points="433.5,-261.33 320.5,-261.33 320.5,-242.33 433.5,-242.33 433.5,-261.33"/>
<text text-anchor="middle" x="377" y="-249.33" font-family="Helvetica,sans-Serif" font-size="10.00">GrowingMode_2LPT</text>
</a>
</g>
</g>
<!-- Node5&#45;&gt;Node9 -->
<g id="edge8_Node000005_Node000009" class="edge">
<title>Node5&#45;&gt;Node9</title>
<g id="a_edge8_Node000005_Node000009"><a xlink:title=" ">
<path fill="none" stroke="#63b8ff" d="M277.99,-224.36C294.34,-228.94 314.14,-234.5 331.66,-239.4"/>
<polygon fill="#63b8ff" stroke="#63b8ff" points="331.09,-242.88 341.66,-242.21 332.98,-236.14 331.09,-242.88"/>
</a>
</g>
</g>
<!-- Node10 -->
<g id="Node000010" class="node">
<title>Node10</title>
<g id="a_Node000010"><a xlink:href="cosmo_8c.html#a04db96c36d31fd7c7befb810624260fc" target="_top" xlink:title=" ">
<polygon fill="white" stroke="#666666" points="439,-224.33 315,-224.33 315,-205.33 439,-205.33 439,-224.33"/>
<text text-anchor="middle" x="377" y="-212.33" font-family="Helvetica,sans-Serif" font-size="10.00">GrowingMode_3LPT_1</text>
</a>
</g>
</g>
<!-- Node5&#45;&gt;Node10 -->
<g id="edge10_Node000005_Node000010" class="edge">
<title>Node5&#45;&gt;Node10</title>
<g id="a_edge10_Node000005_Node000010"><a xlink:title=" ">
<path fill="none" stroke="#63b8ff" d="M278.34,-214.83C286.58,-214.83 295.69,-214.83 304.94,-214.83"/>
<polygon fill="#63b8ff" stroke="#63b8ff" points="304.99,-218.33 314.99,-214.83 304.99,-211.33 304.99,-218.33"/>
</a>
</g>
</g>
<!-- Node11 -->
<g id="Node000011" class="node">
<title>Node11</title>
<g id="a_Node000011"><a xlink:href="cosmo_8c.html#a9c8d61128a3d0ab4c73354d0ff8011a1" target="_top" xlink:title=" ">
<polygon fill="white" stroke="#666666" points="439,-187.33 315,-187.33 315,-168.33 439,-168.33 439,-187.33"/>
<text text-anchor="middle" x="377" y="-175.33" font-family="Helvetica,sans-Serif" font-size="10.00">GrowingMode_3LPT_2</text>
</a>
</g>
</g>
<!-- Node5&#45;&gt;Node11 -->
<g id="edge12_Node000005_Node000011" class="edge">
<title>Node5&#45;&gt;Node11</title>
<g id="a_edge12_Node000005_Node000011"><a xlink:title=" ">
<path fill="none" stroke="#63b8ff" d="M277.99,-205.31C294.34,-200.72 314.14,-195.17 331.66,-190.26"/>
<polygon fill="#63b8ff" stroke="#63b8ff" points="332.98,-193.53 341.66,-187.46 331.09,-186.79 332.98,-193.53"/>
</a>
</g>
</g>
<!-- Node7 -->
<g id="Node000007" class="node">
<title>Node7</title>
<g id="a_Node000007"><a xlink:href="cosmo_8c.html#a8847e5b8ea1f9c458c8bf9e5f36837a9" target="_top" xlink:title=" ">
<polygon fill="white" stroke="#666666" points="580,-150.33 475,-150.33 475,-131.33 580,-131.33 580,-150.33"/>
<text text-anchor="middle" x="527.5" y="-138.33" font-family="Helvetica,sans-Serif" font-size="10.00">InterpolateGrowth</text>
</a>
</g>
</g>
<!-- Node6&#45;&gt;Node7 -->
<g id="edge6_Node000006_Node000007" class="edge">
<title>Node6&#45;&gt;Node7</title>
<g id="a_edge6_Node000006_Node000007"><a xlink:title=" ">
<path fill="none" stroke="#63b8ff" d="M419.22,-280.93C426.22,-278.43 433.12,-275.14 439,-270.83 478.86,-241.61 506.22,-188.38 518.74,-159.95"/>
<polygon fill="#63b8ff" stroke="#63b8ff" points="521.99,-161.26 522.68,-150.68 515.54,-158.52 521.99,-161.26"/>
</a>
</g>
</g>
<!-- Node8 -->
<g id="Node000008" class="node">
<title>Node8</title>
<g id="a_Node000008"><a xlink:href="cosmo_8c.html#a6341f5394ed17a00dc77c5519b292ae3" target="_top" xlink:title=" ">
<polygon fill="white" stroke="#666666" points="709,-75.33 616,-75.33 616,-56.33 709,-56.33 709,-75.33"/>
<text text-anchor="middle" x="662.5" y="-63.33" font-family="Helvetica,sans-Serif" font-size="10.00">my_spline_eval</text>
</a>
</g>
</g>
<!-- Node7&#45;&gt;Node8 -->
<g id="edge7_Node000007_Node000008" class="edge">
<title>Node7&#45;&gt;Node8</title>
<g id="a_edge7_Node000007_Node000008"><a xlink:title=" ">
<path fill="none" stroke="#63b8ff" d="M545.62,-131.18C568.46,-118.3 609.12,-95.37 635.69,-80.39"/>
<polygon fill="#63b8ff" stroke="#63b8ff" points="637.46,-83.41 644.45,-75.45 634.02,-77.31 637.46,-83.41"/>
</a>
</g>
</g>
<!-- Node9&#45;&gt;Node7 -->
<g id="edge9_Node000009_Node000007" class="edge">
<title>Node9&#45;&gt;Node7</title>
<g id="a_edge9_Node000009_Node000007"><a xlink:title=" ">
<path fill="none" stroke="#63b8ff" d="M420.92,-242.32C427.22,-240.04 433.45,-237.25 439,-233.83 470.91,-214.21 498.82,-179.97 514.11,-158.96"/>
<polygon fill="#63b8ff" stroke="#63b8ff" points="517.11,-160.77 520.04,-150.59 511.4,-156.73 517.11,-160.77"/>
</a>
</g>
</g>
<!-- Node10&#45;&gt;Node7 -->
<g id="edge11_Node000010_Node000007" class="edge">
<title>Node10&#45;&gt;Node7</title>
<g id="a_edge11_Node000010_Node000007"><a xlink:title=" ">
<path fill="none" stroke="#63b8ff" d="M416.35,-205.32C424,-202.92 431.87,-200.09 439,-196.83 463.31,-185.74 488.79,-168.73 505.95,-156.36"/>
<polygon fill="#63b8ff" stroke="#63b8ff" points="508.11,-159.12 514.11,-150.38 503.97,-153.47 508.11,-159.12"/>
</a>
</g>
</g>
<!-- Node11&#45;&gt;Node7 -->
<g id="edge13_Node000011_Node000007" class="edge">
<title>Node11&#45;&gt;Node7</title>
<g id="a_edge13_Node000011_Node000007"><a xlink:title=" ">
<path fill="none" stroke="#63b8ff" d="M416.24,-168.31C435.14,-163.6 458.13,-157.87 478.23,-152.86"/>
<polygon fill="#63b8ff" stroke="#63b8ff" points="479.27,-156.21 488.13,-150.39 477.58,-149.42 479.27,-156.21"/>
</a>
</g>
</g>
<!-- Node13 -->
<g id="Node000013" class="node">
<title>Node13</title>
<g id="a_Node000013"><a xlink:href="cosmo_8c.html#a395fdee07918e6b1298b2002d37aab7f" target="_top" xlink:title=" ">
<polygon fill="white" stroke="#666666" points="404,-150.33 350,-150.33 350,-131.33 404,-131.33 404,-150.33"/>
<text text-anchor="middle" x="377" y="-138.33" font-family="Helvetica,sans-Serif" font-size="10.00">fomega</text>
</a>
</g>
</g>
<!-- Node12&#45;&gt;Node13 -->
<g id="edge15_Node000012_Node000013" class="edge">
<title>Node12&#45;&gt;Node13</title>
<g id="a_edge15_Node000012_Node000013"><a xlink:title=" ">
<path fill="none" stroke="#63b8ff" d="M260.84,-95.38C275,-103.16 295.92,-114.09 315,-121.83 323.05,-125.1 331.89,-128.15 340.28,-130.8"/>
<polygon fill="#63b8ff" stroke="#63b8ff" points="339.25,-134.15 349.84,-133.73 341.3,-127.46 339.25,-134.15"/>
</a>
</g>
</g>
<!-- Node14 -->
<g id="Node000014" class="node">
<title>Node14</title>
<g id="a_Node000014"><a xlink:href="cosmo_8c.html#a10bb78a97e9affce82cd0961eaaf6cae" target="_top" xlink:title=" ">
<polygon fill="white" stroke="#666666" points="418.5,-113.33 335.5,-113.33 335.5,-94.33 418.5,-94.33 418.5,-113.33"/>
<text text-anchor="middle" x="377" y="-101.33" font-family="Helvetica,sans-Serif" font-size="10.00">fomega_2LPT</text>
</a>
</g>
</g>
<!-- Node12&#45;&gt;Node14 -->
<g id="edge17_Node000012_Node000014" class="edge">
<title>Node12&#45;&gt;Node14</title>
<g id="a_edge17_Node000012_Node000014"><a xlink:title=" ">
<path fill="none" stroke="#63b8ff" d="M279.03,-90.61C293.19,-92.54 309.81,-94.81 325.25,-96.91"/>
<polygon fill="#63b8ff" stroke="#63b8ff" points="324.81,-100.38 335.19,-98.27 325.75,-93.45 324.81,-100.38"/>
</a>
</g>
</g>
<!-- Node15 -->
<g id="Node000015" class="node">
<title>Node15</title>
<g id="a_Node000015"><a xlink:href="cosmo_8c.html#acf7ff09e2fe05a19bbf0e7c0d5839e52" target="_top" xlink:title=" ">
<polygon fill="white" stroke="#666666" points="424,-76.33 330,-76.33 330,-57.33 424,-57.33 424,-76.33"/>
<text text-anchor="middle" x="377" y="-64.33" font-family="Helvetica,sans-Serif" font-size="10.00">fomega_3LPT_1</text>
</a>
</g>
</g>
<!-- Node12&#45;&gt;Node15 -->
<g id="edge19_Node000012_Node000015" class="edge">
<title>Node12&#45;&gt;Node15</title>
<g id="a_edge19_Node000012_Node000015"><a xlink:title=" ">
<path fill="none" stroke="#63b8ff" d="M279.03,-80.79C291.56,-78.99 306.03,-76.9 319.9,-74.91"/>
<polygon fill="#63b8ff" stroke="#63b8ff" points="320.46,-78.36 329.86,-73.48 319.46,-71.44 320.46,-78.36"/>
</a>
</g>
</g>
<!-- Node16 -->
<g id="Node000016" class="node">
<title>Node16</title>
<g id="a_Node000016"><a xlink:href="cosmo_8c.html#ad3aca2ac8129b437962982600873aa3a" target="_top" xlink:title=" ">
<polygon fill="white" stroke="#666666" points="424,-39.33 330,-39.33 330,-20.33 424,-20.33 424,-39.33"/>
<text text-anchor="middle" x="377" y="-27.33" font-family="Helvetica,sans-Serif" font-size="10.00">fomega_3LPT_2</text>
</a>
</g>
</g>
<!-- Node12&#45;&gt;Node16 -->
<g id="edge21_Node000012_Node000016" class="edge">
<title>Node12&#45;&gt;Node16</title>
<g id="a_edge21_Node000012_Node000016"><a xlink:title=" ">
<path fill="none" stroke="#63b8ff" d="M259.62,-76.27C273.71,-67.94 295.21,-55.95 315,-47.83 319.67,-45.92 324.62,-44.11 329.59,-42.44"/>
<polygon fill="#63b8ff" stroke="#63b8ff" points="330.67,-45.77 339.13,-39.39 328.54,-39.1 330.67,-45.77"/>
</a>
</g>
</g>
<!-- Node17 -->
<g id="Node000017" class="node">
<title>Node17</title>
<g id="a_Node000017"><a xlink:href="cosmo_8c.html#a911e9ce363c4662ce531c65885519f7a" target="_top" xlink:title=" ">
<polygon fill="white" stroke="#666666" points="553,-57.33 502,-57.33 502,-38.33 553,-38.33 553,-57.33"/>
<text text-anchor="middle" x="527.5" y="-45.33" font-family="Helvetica,sans-Serif" font-size="10.00">Hubble</text>
</a>
</g>
</g>
<!-- Node12&#45;&gt;Node17 -->
<g id="edge23_Node000012_Node000017" class="edge">
<title>Node12&#45;&gt;Node17</title>
<g id="a_edge23_Node000012_Node000017"><a xlink:title=" ">
<path fill="none" stroke="#63b8ff" d="M249.48,-76.13C259.76,-59.09 283.71,-24.3 315,-10.83 377.45,16.04 458.26,-14.16 499.58,-33.75"/>
<polygon fill="#63b8ff" stroke="#63b8ff" points="498.2,-36.97 508.72,-38.22 501.28,-30.68 498.2,-36.97"/>
</a>
</g>
</g>
<!-- Node13&#45;&gt;Node7 -->
<g id="edge16_Node000013_Node000007" class="edge">
<title>Node13&#45;&gt;Node7</title>
<g id="a_edge16_Node000013_Node000007"><a xlink:title=" ">
<path fill="none" stroke="#63b8ff" d="M404.21,-140.83C420.95,-140.83 443.41,-140.83 464.51,-140.83"/>
<polygon fill="#63b8ff" stroke="#63b8ff" points="464.72,-144.33 474.72,-140.83 464.72,-137.33 464.72,-144.33"/>
</a>
</g>
</g>
<!-- Node14&#45;&gt;Node7 -->
<g id="edge18_Node000014_Node000007" class="edge">
<title>Node14&#45;&gt;Node7</title>
<g id="a_edge18_Node000014_Node000007"><a xlink:title=" ">
<path fill="none" stroke="#63b8ff" d="M416.24,-113.36C435.14,-118.07 458.13,-123.8 478.23,-128.81"/>
<polygon fill="#63b8ff" stroke="#63b8ff" points="477.58,-132.25 488.13,-131.27 479.27,-125.46 477.58,-132.25"/>
</a>
</g>
</g>
<!-- Node15&#45;&gt;Node7 -->
<g id="edge20_Node000015_Node000007" class="edge">
<title>Node15&#45;&gt;Node7</title>
<g id="a_edge20_Node000015_Node000007"><a xlink:title=" ">
<path fill="none" stroke="#63b8ff" d="M416.35,-76.35C424,-78.74 431.87,-81.58 439,-84.83 463.31,-95.93 488.79,-112.94 505.95,-125.3"/>
<polygon fill="#63b8ff" stroke="#63b8ff" points="503.97,-128.2 514.11,-131.29 508.11,-122.55 503.97,-128.2"/>
</a>
</g>
</g>
<!-- Node16&#45;&gt;Node7 -->
<g id="edge22_Node000016_Node000007" class="edge">
<title>Node16&#45;&gt;Node7</title>
<g id="a_edge22_Node000016_Node000007"><a xlink:title=" ">
<path fill="none" stroke="#63b8ff" d="M420.92,-39.34C427.22,-41.62 433.45,-44.42 439,-47.83 470.91,-67.46 498.82,-101.7 514.11,-122.71"/>
<polygon fill="#63b8ff" stroke="#63b8ff" points="511.4,-124.94 520.04,-131.08 517.11,-120.89 511.4,-124.94"/>
</a>
</g>
</g>
<!-- Node17&#45;&gt;Node8 -->
<g id="edge24_Node000017_Node000008" class="edge">
<title>Node17&#45;&gt;Node8</title>
<g id="a_edge24_Node000017_Node000008"><a xlink:title=" ">
<path fill="none" stroke="#63b8ff" d="M553.2,-51.18C568.04,-53.18 587.53,-55.82 605.89,-58.31"/>
<polygon fill="#63b8ff" stroke="#63b8ff" points="605.56,-61.79 615.94,-59.67 606.5,-54.86 605.56,-61.79"/>
</a>
</g>
</g>
</g>
</svg>
