<?xml version="1.0" encoding="UTF-8" standalone="no"?>
<!DOCTYPE svg PUBLIC "-//W3C//DTD SVG 1.1//EN"
 "http://www.w3.org/Graphics/SVG/1.1/DTD/svg11.dtd">
<!-- Generated by graphviz version 2.43.0 (0)
 -->
<!-- Title: write_mass_maps.c Pages: 1 -->
<svg width="1437pt" height="137pt"
 viewBox="0.00 0.00 1436.50 137.00" xmlns="http://www.w3.org/2000/svg" xmlns:xlink="http://www.w3.org/1999/xlink">
<g id="graph0" class="graph" transform="scale(1 1) rotate(0) translate(4 133)">
<title>write_mass_maps.c</title>
<!-- Node1 -->
<g id="Node000001" class="node">
<title>Node1</title>
<g id="a_Node000001"><a xlink:title=" ">
<polygon fill="#999999" stroke="#666666" points="466,-129 353,-129 353,-110 466,-110 466,-129"/>
<text text-anchor="middle" x="409.5" y="-117" font-family="Helvetica,sans-Serif" font-size="10.00">write_mass_maps.c</text>
</a>
</g>
</g>
<!-- Node2 -->
<g id="Node000002" class="node">
<title>Node2</title>
<g id="a_Node000002"><a xlink:href="pinocchio_8h.html" target="_top" xlink:title=" ">
<polygon fill="white" stroke="#666666" points="445.5,-74 373.5,-74 373.5,-55 445.5,-55 445.5,-74"/>
<text text-anchor="middle" x="409.5" y="-62" font-family="Helvetica,sans-Serif" font-size="10.00">pinocchio.h</text>
</a>
</g>
</g>
<!-- Node1&#45;&gt;Node2 -->
<g id="edge1_Node000001_Node000002" class="edge">
<title>Node1&#45;&gt;Node2</title>
<g id="a_edge1_Node000001_Node000002"><a xlink:title=" ">
<path fill="none" stroke="#63b8ff" d="M409.5,-109.75C409.5,-102.8 409.5,-92.85 409.5,-84.13"/>
<polygon fill="#63b8ff" stroke="#63b8ff" points="413,-84.09 409.5,-74.09 406,-84.09 413,-84.09"/>
</a>
</g>
</g>
<!-- Node3 -->
<g id="Node000003" class="node">
<title>Node3</title>
<g id="a_Node000003"><a xlink:title=" ">
<polygon fill="#e0e0e0" stroke="#999999" points="53,-19 0,-19 0,0 53,0 53,-19"/>
<text text-anchor="middle" x="26.5" y="-7" font-family="Helvetica,sans-Serif" font-size="10.00">stdlib.h</text>
</a>
</g>
</g>
<!-- Node1&#45;&gt;Node3 -->
<g id="edge23_Node000001_Node000003" class="edge">
<title>Node1&#45;&gt;Node3</title>
<g id="a_edge23_Node000001_Node000003"><a xlink:title=" ">
<path fill="none" stroke="#63b8ff" d="M363.61,-109.94C322.62,-101.92 261.1,-88.94 208.5,-74 154.8,-58.74 93.8,-36.41 57.82,-22.7"/>
<polygon fill="#63b8ff" stroke="#63b8ff" points="58.95,-19.38 48.36,-19.07 56.45,-25.92 58.95,-19.38"/>
</a>
</g>
</g>
<!-- Node4 -->
<g id="Node000004" class="node">
<title>Node4</title>
<g id="a_Node000004"><a xlink:title=" ">
<polygon fill="#e0e0e0" stroke="#999999" points="121.5,-19 71.5,-19 71.5,0 121.5,0 121.5,-19"/>
<text text-anchor="middle" x="96.5" y="-7" font-family="Helvetica,sans-Serif" font-size="10.00">stdio.h</text>
</a>
</g>
</g>
<!-- Node1&#45;&gt;Node4 -->
<g id="edge21_Node000001_Node000004" class="edge">
<title>Node1&#45;&gt;Node4</title>
<g id="a_edge21_Node000001_Node000004"><a xlink:title=" ">
<path fill="none" stroke="#63b8ff" d="M379.39,-109.97C349.74,-101.41 303.24,-87.59 263.5,-74 215.49,-57.58 160.65,-36.22 127.31,-22.93"/>
<polygon fill="#63b8ff" stroke="#63b8ff" points="128.27,-19.55 117.69,-19.08 125.67,-26.05 128.27,-19.55"/>
</a>
</g>
</g>
<!-- Node5 -->
<g id="Node000005" class="node">
<title>Node5</title>
<g id="a_Node000005"><a xlink:title=" ">
<polygon fill="#e0e0e0" stroke="#999999" points="191,-19 140,-19 140,0 191,0 191,-19"/>
<text text-anchor="middle" x="165.5" y="-7" font-family="Helvetica,sans-Serif" font-size="10.00">math.h</text>
</a>
</g>
</g>
<!-- Node1&#45;&gt;Node5 -->
<g id="edge18_Node000001_Node000005" class="edge">
<title>Node1&#45;&gt;Node5</title>
<g id="a_edge18_Node000001_Node000005"><a xlink:title=" ">
<path fill="none" stroke="#63b8ff" d="M389.54,-109.86C368.96,-100.93 335.95,-86.57 307.5,-74 268.17,-56.63 222.83,-36.3 194.17,-23.41"/>
<polygon fill="#63b8ff" stroke="#63b8ff" points="195.32,-20.09 184.77,-19.18 192.45,-26.48 195.32,-20.09"/>
</a>
</g>
</g>
<!-- Node7 -->
<g id="Node000007" class="node">
<title>Node7</title>
<g id="a_Node000007"><a xlink:title=" ">
<polygon fill="#e0e0e0" stroke="#999999" points="262,-19 209,-19 209,0 262,0 262,-19"/>
<text text-anchor="middle" x="235.5" y="-7" font-family="Helvetica,sans-Serif" font-size="10.00">string.h</text>
</a>
</g>
</g>
<!-- Node1&#45;&gt;Node7 -->
<g id="edge22_Node000001_Node000007" class="edge">
<title>Node1&#45;&gt;Node7</title>
<g id="a_edge22_Node000001_Node000007"><a xlink:title=" ">
<path fill="none" stroke="#63b8ff" d="M395.55,-109.84C365.65,-91.28 295.09,-47.49 258.46,-24.75"/>
<polygon fill="#63b8ff" stroke="#63b8ff" points="259.85,-21.5 249.51,-19.2 256.16,-27.44 259.85,-21.5"/>
</a>
</g>
</g>
<!-- Node19 -->
<g id="Node000019" class="node">
<title>Node19</title>
<g id="a_Node000019"><a xlink:title=" ">
<polygon fill="#e0e0e0" stroke="#999999" points="517,-74 464,-74 464,-55 517,-55 517,-74"/>
<text text-anchor="middle" x="490.5" y="-62" font-family="Helvetica,sans-Serif" font-size="10.00">stdint.h</text>
</a>
</g>
</g>
<!-- Node1&#45;&gt;Node19 -->
<g id="edge19_Node000001_Node000019" class="edge">
<title>Node1&#45;&gt;Node19</title>
<g id="a_edge19_Node000001_Node000019"><a xlink:title=" ">
<path fill="none" stroke="#63b8ff" d="M422.51,-109.98C434.96,-101.84 453.96,-89.41 468.71,-79.76"/>
<polygon fill="#63b8ff" stroke="#63b8ff" points="470.8,-82.57 477.25,-74.17 466.96,-76.72 470.8,-82.57"/>
</a>
</g>
</g>
<!-- Node20 -->
<g id="Node000020" class="node">
<title>Node20</title>
<g id="a_Node000020"><a xlink:title=" ">
<polygon fill="#e0e0e0" stroke="#999999" points="591.5,-74 535.5,-74 535.5,-55 591.5,-55 591.5,-74"/>
<text text-anchor="middle" x="563.5" y="-62" font-family="Helvetica,sans-Serif" font-size="10.00">unistd.h</text>
</a>
</g>
</g>
<!-- Node1&#45;&gt;Node20 -->
<g id="edge20_Node000001_Node000020" class="edge">
<title>Node1&#45;&gt;Node20</title>
<g id="a_edge20_Node000001_Node000020"><a xlink:title=" ">
<path fill="none" stroke="#63b8ff" d="M434.24,-109.98C459.87,-101.16 500.13,-87.31 528.91,-77.41"/>
<polygon fill="#63b8ff" stroke="#63b8ff" points="530.25,-80.65 538.56,-74.08 527.97,-74.03 530.25,-80.65"/>
</a>
</g>
</g>
<!-- Node21 -->
<g id="Node000021" class="node">
<title>Node21</title>
<g id="a_Node000021"><a xlink:title=" ">
<polygon fill="#e0e0e0" stroke="#999999" points="659.5,-74 609.5,-74 609.5,-55 659.5,-55 659.5,-74"/>
<text text-anchor="middle" x="634.5" y="-62" font-family="Helvetica,sans-Serif" font-size="10.00">fitsio.h</text>
</a>
</g>
</g>
<!-- Node1&#45;&gt;Node21 -->
<g id="edge24_Node000001_Node000021" class="edge">
<title>Node1&#45;&gt;Node21</title>
<g id="a_edge24_Node000001_Node000021"><a xlink:title=" ">
<path fill="none" stroke="#63b8ff" d="M446.87,-109.98C483.38,-101.62 540.76,-88.36 599.45,-74.23"/>
<polygon fill="#63b8ff" stroke="#63b8ff" points="600.36,-77.61 609.26,-71.86 598.72,-70.8 600.36,-77.61"/>
</a>
</g>
</g>
<!-- Node22 -->
<g id="Node000022" class="node">
<title>Node22</title>
<g id="a_Node000022"><a xlink:title=" ">
<polygon fill="#e0e0e0" stroke="#999999" points="745,-74 678,-74 678,-55 745,-55 745,-74"/>
<text text-anchor="middle" x="711.5" y="-62" font-family="Helvetica,sans-Serif" font-size="10.00">chealpix.h</text>
</a>
</g>
</g>
<!-- Node1&#45;&gt;Node22 -->
<g id="edge25_Node000001_Node000022" class="edge">
<title>Node1&#45;&gt;Node22</title>
<g id="a_edge25_Node000001_Node000022"><a xlink:title=" ">
<path fill="none" stroke="#63b8ff" d="M461.66,-109.93C511.86,-101.6 590.19,-88.36 667.77,-74.1"/>
<polygon fill="#63b8ff" stroke="#63b8ff" points="668.52,-77.52 677.71,-72.26 667.25,-70.63 668.52,-77.52"/>
</a>
</g>
</g>
<!-- Node2&#45;&gt;Node3 -->
<g id="edge2_Node000002_Node000003" class="edge">
<title>Node2&#45;&gt;Node3</title>
<g id="a_edge2_Node000002_Node000003"><a xlink:title=" ">
<path fill="none" stroke="#63b8ff" d="M373.34,-60.12C311.77,-54.09 182.47,-40.25 63.2,-18.94"/>
<polygon fill="#63b8ff" stroke="#63b8ff" points="63.63,-15.46 53.17,-17.12 62.39,-22.35 63.63,-15.46"/>
</a>
</g>
</g>
<!-- Node2&#45;&gt;Node4 -->
<g id="edge3_Node000002_Node000004" class="edge">
<title>Node2&#45;&gt;Node4</title>
<g id="a_edge3_Node000002_Node000004"><a xlink:title=" ">
<path fill="none" stroke="#63b8ff" d="M373.2,-58.74C321.67,-51.75 224.17,-37.71 131.77,-19.11"/>
<polygon fill="#63b8ff" stroke="#63b8ff" points="132.19,-15.62 121.7,-17.06 130.8,-22.48 132.19,-15.62"/>
</a>
</g>
</g>
<!-- Node2&#45;&gt;Node5 -->
<g id="edge4_Node000002_Node000005" class="edge">
<title>Node2&#45;&gt;Node5</title>
<g id="a_edge4_Node000002_Node000005"><a xlink:title=" ">
<path fill="none" stroke="#63b8ff" d="M373.18,-56.09C333.4,-47.91 267.46,-34.13 200.91,-19.04"/>
<polygon fill="#63b8ff" stroke="#63b8ff" points="201.62,-15.61 191.09,-16.8 200.07,-22.44 201.62,-15.61"/>
</a>
</g>
</g>
<!-- Node6 -->
<g id="Node000006" class="node">
<title>Node6</title>
<g id="a_Node000006"><a xlink:title=" ">
<polygon fill="#e0e0e0" stroke="#999999" points="324.5,-19 280.5,-19 280.5,0 324.5,0 324.5,-19"/>
<text text-anchor="middle" x="302.5" y="-7" font-family="Helvetica,sans-Serif" font-size="10.00">mpi.h</text>
</a>
</g>
</g>
<!-- Node2&#45;&gt;Node6 -->
<g id="edge5_Node000002_Node000006" class="edge">
<title>Node2&#45;&gt;Node6</title>
<g id="a_edge5_Node000002_Node000006"><a xlink:title=" ">
<path fill="none" stroke="#63b8ff" d="M392.31,-54.98C375.25,-46.54 348.87,-33.47 329.1,-23.68"/>
<polygon fill="#63b8ff" stroke="#63b8ff" points="330.52,-20.47 320,-19.17 327.41,-26.75 330.52,-20.47"/>
</a>
</g>
</g>
<!-- Node2&#45;&gt;Node7 -->
<g id="edge6_Node000002_Node000007" class="edge">
<title>Node2&#45;&gt;Node7</title>
<g id="a_edge6_Node000002_Node000007"><a xlink:title=" ">
<path fill="none" stroke="#63b8ff" d="M381.54,-54.98C351.77,-45.92 304.53,-31.53 271.87,-21.58"/>
<polygon fill="#63b8ff" stroke="#63b8ff" points="272.83,-18.21 262.24,-18.65 270.79,-24.91 272.83,-18.21"/>
</a>
</g>
</g>
<!-- Node8 -->
<g id="Node000008" class="node">
<title>Node8</title>
<g id="a_Node000008"><a xlink:title=" ">
<polygon fill="#e0e0e0" stroke="#999999" points="390.5,-19 342.5,-19 342.5,0 390.5,0 390.5,-19"/>
<text text-anchor="middle" x="366.5" y="-7" font-family="Helvetica,sans-Serif" font-size="10.00">time.h</text>
</a>
</g>
</g>
<!-- Node2&#45;&gt;Node8 -->
<g id="edge7_Node000002_Node000008" class="edge">
<title>Node2&#45;&gt;Node8</title>
<g id="a_edge7_Node000002_Node000008"><a xlink:title=" ">
<path fill="none" stroke="#63b8ff" d="M402.4,-54.75C396.33,-47.26 387.41,-36.28 379.99,-27.13"/>
<polygon fill="#63b8ff" stroke="#63b8ff" points="382.49,-24.65 373.47,-19.09 377.05,-29.06 382.49,-24.65"/>
</a>
</g>
</g>
<!-- Node9 -->
<g id="Node000009" class="node">
<title>Node9</title>
<g id="a_Node000009"><a xlink:title=" ">
<polygon fill="#e0e0e0" stroke="#999999" points="496.5,-19 408.5,-19 408.5,0 496.5,0 496.5,-19"/>
<text text-anchor="middle" x="452.5" y="-7" font-family="Helvetica,sans-Serif" font-size="10.00">gsl/gsl_errno.h</text>
</a>
</g>
</g>
<!-- Node2&#45;&gt;Node9 -->
<g id="edge8_Node000002_Node000009" class="edge">
<title>Node2&#45;&gt;Node9</title>
<g id="a_edge8_Node000002_Node000009"><a xlink:title=" ">
<path fill="none" stroke="#63b8ff" d="M416.6,-54.75C422.67,-47.26 431.59,-36.28 439.01,-27.13"/>
<polygon fill="#63b8ff" stroke="#63b8ff" points="441.95,-29.06 445.53,-19.09 436.51,-24.65 441.95,-29.06"/>
</a>
</g>
</g>
<!-- Node10 -->
<g id="Node000010" class="node">
<title>Node10</title>
<g id="a_Node000010"><a xlink:title=" ">
<polygon fill="#e0e0e0" stroke="#999999" points="602.5,-19 514.5,-19 514.5,0 602.5,0 602.5,-19"/>
<text text-anchor="middle" x="558.5" y="-7" font-family="Helvetica,sans-Serif" font-size="10.00">gsl/gsl_math.h</text>
</a>
</g>
</g>
<!-- Node2&#45;&gt;Node10 -->
<g id="edge9_Node000002_Node000010" class="edge">
<title>Node2&#45;&gt;Node10</title>
<g id="a_edge9_Node000002_Node000010"><a xlink:title=" ">
<path fill="none" stroke="#63b8ff" d="M433.44,-54.98C458.06,-46.23 496.62,-32.51 524.42,-22.62"/>
<polygon fill="#63b8ff" stroke="#63b8ff" points="525.88,-25.82 534.12,-19.17 523.53,-19.22 525.88,-25.82"/>
</a>
</g>
</g>
<!-- Node11 -->
<g id="Node000011" class="node">
<title>Node11</title>
<g id="a_Node000011"><a xlink:title=" ">
<polygon fill="#e0e0e0" stroke="#999999" points="698.5,-19 620.5,-19 620.5,0 698.5,0 698.5,-19"/>
<text text-anchor="middle" x="659.5" y="-7" font-family="Helvetica,sans-Serif" font-size="10.00">gsl/gsl_rng.h</text>
</a>
</g>
</g>
<!-- Node2&#45;&gt;Node11 -->
<g id="edge10_Node000002_Node000011" class="edge">
<title>Node2&#45;&gt;Node11</title>
<g id="a_edge10_Node000002_Node000011"><a xlink:title=" ">
<path fill="none" stroke="#63b8ff" d="M445.59,-55.85C488.89,-46.67 561.7,-31.23 610.17,-20.96"/>
<polygon fill="#63b8ff" stroke="#63b8ff" points="611.07,-24.35 620.13,-18.85 609.62,-17.5 611.07,-24.35"/>
</a>
</g>
</g>
<!-- Node12 -->
<g id="Node000012" class="node">
<title>Node12</title>
<g id="a_Node000012"><a xlink:title=" ">
<polygon fill="#e0e0e0" stroke="#999999" points="812.5,-19 716.5,-19 716.5,0 812.5,0 812.5,-19"/>
<text text-anchor="middle" x="764.5" y="-7" font-family="Helvetica,sans-Serif" font-size="10.00">gsl/gsl_randist.h</text>
</a>
</g>
</g>
<!-- Node2&#45;&gt;Node12 -->
<g id="edge11_Node000002_Node000012" class="edge">
<title>Node2&#45;&gt;Node12</title>
<g id="a_edge11_Node000002_Node000012"><a xlink:title=" ">
<path fill="none" stroke="#63b8ff" d="M445.63,-56.68C448.97,-56.09 452.29,-55.52 455.5,-55 563.99,-37.24 593.87,-35.43 706.26,-19.17"/>
<polygon fill="#63b8ff" stroke="#63b8ff" points="706.91,-22.61 716.3,-17.71 705.9,-15.68 706.91,-22.61"/>
</a>
</g>
</g>
<!-- Node13 -->
<g id="Node000013" class="node">
<title>Node13</title>
<g id="a_Node000013"><a xlink:title=" ">
<polygon fill="#e0e0e0" stroke="#999999" points="918,-19 831,-19 831,0 918,0 918,-19"/>
<text text-anchor="middle" x="874.5" y="-7" font-family="Helvetica,sans-Serif" font-size="10.00">gsl/gsl_roots.h</text>
</a>
</g>
</g>
<!-- Node2&#45;&gt;Node13 -->
<g id="edge12_Node000002_Node000013" class="edge">
<title>Node2&#45;&gt;Node13</title>
<g id="a_edge12_Node000002_Node000013"><a xlink:title=" ">
<path fill="none" stroke="#63b8ff" d="M445.61,-56.53C448.95,-55.97 452.28,-55.45 455.5,-55 614.02,-32.6 657.62,-39.64 820.47,-19.05"/>
<polygon fill="#63b8ff" stroke="#63b8ff" points="821.38,-22.46 830.86,-17.72 820.49,-15.51 821.38,-22.46"/>
</a>
</g>
</g>
<!-- Node14 -->
<g id="Node000014" class="node">
<title>Node14</title>
<g id="a_Node000014"><a xlink:title=" ">
<polygon fill="#e0e0e0" stroke="#999999" points="1052.5,-19 936.5,-19 936.5,0 1052.5,0 1052.5,-19"/>
<text text-anchor="middle" x="994.5" y="-7" font-family="Helvetica,sans-Serif" font-size="10.00">gsl/gsl_integration.h</text>
</a>
</g>
</g>
<!-- Node2&#45;&gt;Node14 -->
<g id="edge13_Node000002_Node000014" class="edge">
<title>Node2&#45;&gt;Node14</title>
<g id="a_edge13_Node000002_Node000014"><a xlink:title=" ">
<path fill="none" stroke="#63b8ff" d="M445.6,-56.45C448.94,-55.92 452.28,-55.42 455.5,-55 660.87,-28.27 716.46,-39.87 926.31,-19.06"/>
<polygon fill="#63b8ff" stroke="#63b8ff" points="926.82,-22.53 936.42,-18.05 926.12,-15.57 926.82,-22.53"/>
</a>
</g>
</g>
<!-- Node15 -->
<g id="Node000015" class="node">
<title>Node15</title>
<g id="a_Node000015"><a xlink:title=" ">
<polygon fill="#e0e0e0" stroke="#999999" points="1166,-19 1071,-19 1071,0 1166,0 1166,-19"/>
<text text-anchor="middle" x="1118.5" y="-7" font-family="Helvetica,sans-Serif" font-size="10.00">gsl/gsl_odeiv2.h</text>
</a>
</g>
</g>
<!-- Node2&#45;&gt;Node15 -->
<g id="edge14_Node000002_Node000015" class="edge">
<title>Node2&#45;&gt;Node15</title>
<g id="a_edge14_Node000002_Node000015"><a xlink:title=" ">
<path fill="none" stroke="#63b8ff" d="M445.59,-56.4C448.94,-55.87 452.28,-55.39 455.5,-55 720.07,-22.82 791.41,-46.34 1060.87,-18.95"/>
<polygon fill="#63b8ff" stroke="#63b8ff" points="1061.37,-22.42 1070.95,-17.91 1060.65,-15.46 1061.37,-22.42"/>
</a>
</g>
</g>
<!-- Node16 -->
<g id="Node000016" class="node">
<title>Node16</title>
<g id="a_Node000016"><a xlink:title=" ">
<polygon fill="#e0e0e0" stroke="#999999" points="1276.5,-19 1184.5,-19 1184.5,0 1276.5,0 1276.5,-19"/>
<text text-anchor="middle" x="1230.5" y="-7" font-family="Helvetica,sans-Serif" font-size="10.00">gsl/gsl_spline.h</text>
</a>
</g>
</g>
<!-- Node2&#45;&gt;Node16 -->
<g id="edge15_Node000002_Node000016" class="edge">
<title>Node2&#45;&gt;Node16</title>
<g id="a_edge15_Node000002_Node000016"><a xlink:title=" ">
<path fill="none" stroke="#63b8ff" d="M445.59,-56.36C448.93,-55.84 452.27,-55.38 455.5,-55 770.47,-18.19 855.03,-50.83 1174.33,-19"/>
<polygon fill="#63b8ff" stroke="#63b8ff" points="1174.73,-22.48 1184.33,-17.99 1174.03,-15.51 1174.73,-22.48"/>
</a>
</g>
</g>
<!-- Node17 -->
<g id="Node000017" class="node">
<title>Node17</title>
<g id="a_Node000017"><a xlink:title=" ">
<polygon fill="#e0e0e0" stroke="#999999" points="1368,-19 1295,-19 1295,0 1368,0 1368,-19"/>
<text text-anchor="middle" x="1331.5" y="-7" font-family="Helvetica,sans-Serif" font-size="10.00">fftw3&#45;mpi.h</text>
</a>
</g>
</g>
<!-- Node2&#45;&gt;Node17 -->
<g id="edge16_Node000002_Node000017" class="edge">
<title>Node2&#45;&gt;Node17</title>
<g id="a_edge16_Node000002_Node000017"><a xlink:title=" ">
<path fill="none" stroke="#63b8ff" d="M445.59,-56.34C448.93,-55.83 452.27,-55.37 455.5,-55 819.07,-13.73 916.86,-59.8 1284.78,-18.88"/>
<polygon fill="#63b8ff" stroke="#63b8ff" points="1285.37,-22.33 1294.91,-17.74 1284.58,-15.38 1285.37,-22.33"/>
</a>
</g>
</g>
<!-- Node18 -->
<g id="Node000018" class="node">
<title>Node18</title>
<g id="a_Node000018"><a xlink:title=" ">
<polygon fill="#e0e0e0" stroke="#999999" points="1428.5,-19 1386.5,-19 1386.5,0 1428.5,0 1428.5,-19"/>
<text text-anchor="middle" x="1407.5" y="-7" font-family="Helvetica,sans-Serif" font-size="10.00">pfft.h</text>
</a>
</g>
</g>
<!-- Node2&#45;&gt;Node18 -->
<g id="edge17_Node000002_Node000018" class="edge">
<title>Node2&#45;&gt;Node18</title>
<g id="a_edge17_Node000002_Node000018"><a xlink:title=" ">
<path fill="none" stroke="#63b8ff" d="M445.59,-56.33C448.93,-55.81 452.27,-55.36 455.5,-55 859.79,-9.99 970.71,-82.17 1376.39,-18.74"/>
<polygon fill="#63b8ff" stroke="#63b8ff" points="1377,-22.19 1386.33,-17.17 1375.91,-15.27 1377,-22.19"/>
</a>
</g>
</g>
</g>
</svg>
