<?xml version="1.0" encoding="UTF-8" standalone="no"?>
<!DOCTYPE svg PUBLIC "-//W3C//DTD SVG 1.1//EN"
 "http://www.w3.org/Graphics/SVG/1.1/DTD/svg11.dtd">
<!-- Generated by graphviz version 2.43.0 (0)
 -->
<!-- Title: initialize_VEL Pages: 1 -->
<svg width="464pt" height="103pt"
 viewBox="0.00 0.00 464.00 103.00" xmlns="http://www.w3.org/2000/svg" xmlns:xlink="http://www.w3.org/1999/xlink">
<g id="graph0" class="graph" transform="scale(1 1) rotate(0) translate(4 99)">
<title>initialize_VEL</title>
<!-- Node1 -->
<g id="Node000001" class="node">
<title>Node1</title>
<g id="a_Node000001"><a xlink:title=" ">
<polygon fill="#999999" stroke="#666666" points="82,-57 0,-57 0,-38 82,-38 82,-57"/>
<text text-anchor="middle" x="41" y="-45" font-family="Helvetica,sans-Serif" font-size="10.00">initialize_VEL</text>
</a>
</g>
</g>
<!-- Node2 -->
<g id="Node000002" class="node">
<title>Node2</title>
<g id="a_Node000002"><a xlink:href="cosmo_8c.html#a395fdee07918e6b1298b2002d37aab7f" target="_top" xlink:title=" ">
<polygon fill="white" stroke="#666666" points="179,-95 125,-95 125,-76 179,-76 179,-95"/>
<text text-anchor="middle" x="152" y="-83" font-family="Helvetica,sans-Serif" font-size="10.00">fomega</text>
</a>
</g>
</g>
<!-- Node1&#45;&gt;Node2 -->
<g id="edge1_Node000001_Node000002" class="edge">
<title>Node1&#45;&gt;Node2</title>
<g id="a_edge1_Node000001_Node000002"><a xlink:title=" ">
<path fill="none" stroke="#63b8ff" d="M69.51,-57.09C83.24,-61.88 100.03,-67.73 114.8,-72.88"/>
<polygon fill="#63b8ff" stroke="#63b8ff" points="114.04,-76.32 124.63,-76.31 116.34,-69.71 114.04,-76.32"/>
</a>
</g>
</g>
<!-- Node5 -->
<g id="Node000005" class="node">
<title>Node5</title>
<g id="a_Node000005"><a xlink:href="cosmo_8c.html#a911e9ce363c4662ce531c65885519f7a" target="_top" xlink:title=" ">
<polygon fill="white" stroke="#666666" points="300,-57 249,-57 249,-38 300,-38 300,-57"/>
<text text-anchor="middle" x="274.5" y="-45" font-family="Helvetica,sans-Serif" font-size="10.00">Hubble</text>
</a>
</g>
</g>
<!-- Node1&#45;&gt;Node5 -->
<g id="edge4_Node000001_Node000005" class="edge">
<title>Node1&#45;&gt;Node5</title>
<g id="a_edge4_Node000001_Node000005"><a xlink:title=" ">
<path fill="none" stroke="#63b8ff" d="M82.06,-47.5C126.32,-47.5 196.87,-47.5 238.84,-47.5"/>
<polygon fill="#63b8ff" stroke="#63b8ff" points="238.86,-51 248.86,-47.5 238.86,-44 238.86,-51"/>
</a>
</g>
</g>
<!-- Node6 -->
<g id="Node000006" class="node">
<title>Node6</title>
<g id="a_Node000006"><a xlink:href="write__snapshot_8c.html#a62b36bedb5cc2a2701699d5d6971840a" target="_top" xlink:title=" ">
<polygon fill="white" stroke="#666666" points="186,-19 118,-19 118,0 186,0 186,-19"/>
<text text-anchor="middle" x="152" y="-7" font-family="Helvetica,sans-Serif" font-size="10.00">my_strcpy</text>
</a>
</g>
</g>
<!-- Node1&#45;&gt;Node6 -->
<g id="edge6_Node000001_Node000006" class="edge">
<title>Node1&#45;&gt;Node6</title>
<g id="a_edge6_Node000001_Node000006"><a xlink:title=" ">
<path fill="none" stroke="#63b8ff" d="M69.51,-37.91C82.93,-33.23 99.28,-27.53 113.8,-22.47"/>
<polygon fill="#63b8ff" stroke="#63b8ff" points="115.21,-25.68 123.5,-19.09 112.91,-19.07 115.21,-25.68"/>
</a>
</g>
</g>
<!-- Node3 -->
<g id="Node000003" class="node">
<title>Node3</title>
<g id="a_Node000003"><a xlink:href="cosmo_8c.html#a8847e5b8ea1f9c458c8bf9e5f36837a9" target="_top" xlink:title=" ">
<polygon fill="white" stroke="#666666" points="327,-94 222,-94 222,-75 327,-75 327,-94"/>
<text text-anchor="middle" x="274.5" y="-82" font-family="Helvetica,sans-Serif" font-size="10.00">InterpolateGrowth</text>
</a>
</g>
</g>
<!-- Node2&#45;&gt;Node3 -->
<g id="edge2_Node000002_Node000003" class="edge">
<title>Node2&#45;&gt;Node3</title>
<g id="a_edge2_Node000002_Node000003"><a xlink:title=" ">
<path fill="none" stroke="#63b8ff" d="M179.15,-85.28C188.78,-85.2 200.16,-85.11 211.61,-85.01"/>
<polygon fill="#63b8ff" stroke="#63b8ff" points="211.68,-88.51 221.65,-84.93 211.62,-81.51 211.68,-88.51"/>
</a>
</g>
</g>
<!-- Node4 -->
<g id="Node000004" class="node">
<title>Node4</title>
<g id="a_Node000004"><a xlink:href="cosmo_8c.html#a6341f5394ed17a00dc77c5519b292ae3" target="_top" xlink:title=" ">
<polygon fill="white" stroke="#666666" points="456,-75 363,-75 363,-56 456,-56 456,-75"/>
<text text-anchor="middle" x="409.5" y="-63" font-family="Helvetica,sans-Serif" font-size="10.00">my_spline_eval</text>
</a>
</g>
</g>
<!-- Node3&#45;&gt;Node4 -->
<g id="edge3_Node000003_Node000004" class="edge">
<title>Node3&#45;&gt;Node4</title>
<g id="a_edge3_Node000003_Node000004"><a xlink:title=" ">
<path fill="none" stroke="#63b8ff" d="M327.3,-77.1C335.6,-75.91 344.22,-74.68 352.6,-73.49"/>
<polygon fill="#63b8ff" stroke="#63b8ff" points="353.28,-76.92 362.68,-72.05 352.29,-69.99 353.28,-76.92"/>
</a>
</g>
</g>
<!-- Node5&#45;&gt;Node4 -->
<g id="edge5_Node000005_Node000004" class="edge">
<title>Node5&#45;&gt;Node4</title>
<g id="a_edge5_Node000005_Node000004"><a xlink:title=" ">
<path fill="none" stroke="#63b8ff" d="M300.2,-50.84C315.04,-52.85 334.53,-55.49 352.89,-57.97"/>
<polygon fill="#63b8ff" stroke="#63b8ff" points="352.56,-61.46 362.94,-59.33 353.5,-54.52 352.56,-61.46"/>
</a>
</g>
</g>
</g>
</svg>
