<?xml version="1.0" encoding="UTF-8" standalone="no"?>
<!DOCTYPE svg PUBLIC "-//W3C//DTD SVG 1.1//EN"
 "http://www.w3.org/Graphics/SVG/1.1/DTD/svg11.dtd">
<!-- Generated by graphviz version 2.43.0 (0)
 -->
<!-- Title: mass_maps_init_healpix_maps Pages: 1 -->
<svg width="533pt" height="225pt"
 viewBox="0.00 0.00 533.00 225.00" xmlns="http://www.w3.org/2000/svg" xmlns:xlink="http://www.w3.org/1999/xlink">
<g id="graph0" class="graph" transform="scale(1 1) rotate(0) translate(4 221)">
<title>mass_maps_init_healpix_maps</title>
<!-- Node1 -->
<g id="Node000001" class="node">
<title>Node1</title>
<g id="a_Node000001"><a xlink:title=" ">
<polygon fill="#999999" stroke="#666666" points="170,-121 0,-121 0,-102 170,-102 170,-121"/>
<text text-anchor="middle" x="85" y="-109" font-family="Helvetica,sans-Serif" font-size="10.00">mass_maps_init_healpix_maps</text>
</a>
</g>
</g>
<!-- Node2 -->
<g id="Node000002" class="node">
<title>Node2</title>
<g id="a_Node000002"><a xlink:href="fmax_8c.html#a76000ea6ddfd81a9d6cf317d53f54378" target="_top" xlink:title=" ">
<polygon fill="white" stroke="#666666" points="303.5,-217 261.5,-217 261.5,-198 303.5,-198 303.5,-217"/>
<text text-anchor="middle" x="282.5" y="-205" font-family="Helvetica,sans-Serif" font-size="10.00">fdate</text>
</a>
</g>
</g>
<!-- Node1&#45;&gt;Node2 -->
<g id="edge1_Node000001_Node000002" class="edge">
<title>Node1&#45;&gt;Node2</title>
<g id="a_edge1_Node000001_Node000002"><a xlink:title=" ">
<path fill="none" stroke="#63b8ff" d="M97.82,-121.19C118.48,-137.65 163.07,-171.09 206,-189.5 220.31,-195.64 237.08,-199.9 251.18,-202.73"/>
<polygon fill="#63b8ff" stroke="#63b8ff" points="250.88,-206.24 261.35,-204.63 252.16,-199.36 250.88,-206.24"/>
</a>
</g>
</g>
<!-- Node3 -->
<g id="Node000003" class="node">
<title>Node3</title>
<g id="a_Node000003"><a xlink:href="write__mass__maps_8c.html#af48c2f2e1f7a068bdf277f6e51dbb687" target="_top" xlink:title=" ">
<polygon fill="white" stroke="#666666" points="359,-180 206,-180 206,-161 359,-161 359,-180"/>
<text text-anchor="middle" x="282.5" y="-168" font-family="Helvetica,sans-Serif" font-size="10.00">mass_maps_axis_pixel_ring</text>
</a>
</g>
</g>
<!-- Node1&#45;&gt;Node3 -->
<g id="edge2_Node000001_Node000003" class="edge">
<title>Node1&#45;&gt;Node3</title>
<g id="a_edge2_Node000001_Node000003"><a xlink:title=" ">
<path fill="none" stroke="#63b8ff" d="M111.52,-121.01C135.66,-129.82 173.01,-142.95 206,-152.5 213.2,-154.58 220.84,-156.61 228.38,-158.51"/>
<polygon fill="#63b8ff" stroke="#63b8ff" points="227.65,-161.93 238.19,-160.92 229.32,-155.14 227.65,-161.93"/>
</a>
</g>
</g>
<!-- Node4 -->
<g id="Node000004" class="node">
<title>Node4</title>
<g id="a_Node000004"><a xlink:href="write__mass__maps_8c.html#a544729c08aec453c9512dfb6c8798fe6" target="_top" xlink:title=" ">
<polygon fill="white" stroke="#666666" points="348.5,-143 216.5,-143 216.5,-124 348.5,-124 348.5,-143"/>
<text text-anchor="middle" x="282.5" y="-131" font-family="Helvetica,sans-Serif" font-size="10.00">mass_maps_free_maps</text>
</a>
</g>
</g>
<!-- Node1&#45;&gt;Node4 -->
<g id="edge3_Node000001_Node000004" class="edge">
<title>Node1&#45;&gt;Node4</title>
<g id="a_edge3_Node000001_Node000004"><a xlink:title=" ">
<path fill="none" stroke="#63b8ff" d="M170.04,-120.96C182.05,-122.31 194.34,-123.69 206.16,-125.02"/>
<polygon fill="#63b8ff" stroke="#63b8ff" points="206.09,-128.54 216.42,-126.18 206.87,-121.58 206.09,-128.54"/>
</a>
</g>
</g>
<!-- Node5 -->
<g id="Node000005" class="node">
<title>Node5</title>
<g id="a_Node000005"><a xlink:href="write__mass__maps_8c.html#a7240d4c21b5d0ee79e20f10943ec811b" target="_top" xlink:title=" ">
<polygon fill="white" stroke="#666666" points="348.5,-105.5 216.5,-105.5 216.5,-75.5 348.5,-75.5 348.5,-105.5"/>
<text text-anchor="start" x="224.5" y="-93.5" font-family="Helvetica,sans-Serif" font-size="10.00">mass_maps_ncap_from</text>
<text text-anchor="middle" x="282.5" y="-82.5" font-family="Helvetica,sans-Serif" font-size="10.00">_aperture</text>
</a>
</g>
</g>
<!-- Node1&#45;&gt;Node5 -->
<g id="edge4_Node000001_Node000005" class="edge">
<title>Node1&#45;&gt;Node5</title>
<g id="a_edge4_Node000001_Node000005"><a xlink:title=" ">
<path fill="none" stroke="#63b8ff" d="M170.04,-102.47C182.05,-101.18 194.34,-99.86 206.16,-98.59"/>
<polygon fill="#63b8ff" stroke="#63b8ff" points="206.85,-102.04 216.42,-97.49 206.1,-95.08 206.85,-102.04"/>
</a>
</g>
</g>
<!-- Node6 -->
<g id="Node000006" class="node">
<title>Node6</title>
<g id="a_Node000006"><a xlink:href="write__mass__maps_8c.html#a5c1fa2c1f31226a3f73d96ccdb7073f6" target="_top" xlink:title=" ">
<polygon fill="white" stroke="#666666" points="525,-83.5 395,-83.5 395,-53.5 525,-53.5 525,-83.5"/>
<text text-anchor="start" x="403" y="-71.5" font-family="Helvetica,sans-Serif" font-size="10.00">mass_maps_npix_from</text>
<text text-anchor="middle" x="460" y="-60.5" font-family="Helvetica,sans-Serif" font-size="10.00">_nside</text>
</a>
</g>
</g>
<!-- Node1&#45;&gt;Node6 -->
<g id="edge6_Node000001_Node000006" class="edge">
<title>Node1&#45;&gt;Node6</title>
<g id="a_edge6_Node000001_Node000006"><a xlink:title=" ">
<path fill="none" stroke="#63b8ff" d="M104.93,-101.96C128.08,-90.88 168.78,-73.25 206,-66.5 265.34,-55.74 333.8,-57.1 384.53,-60.67"/>
<polygon fill="#63b8ff" stroke="#63b8ff" points="384.52,-64.18 394.75,-61.43 385.04,-57.2 384.52,-64.18"/>
</a>
</g>
</g>
<!-- Node7 -->
<g id="Node000007" class="node">
<title>Node7</title>
<g id="a_Node000007"><a xlink:href="write__mass__maps_8c.html#a05db3aea9295bd8e953b4d42710e55f6" target="_top" xlink:title=" ">
<polygon fill="white" stroke="#666666" points="358,-19 207,-19 207,0 358,0 358,-19"/>
<text text-anchor="middle" x="282.5" y="-7" font-family="Helvetica,sans-Serif" font-size="10.00">mass_maps_zero_all_maps</text>
</a>
</g>
</g>
<!-- Node1&#45;&gt;Node7 -->
<g id="edge7_Node000001_Node000007" class="edge">
<title>Node1&#45;&gt;Node7</title>
<g id="a_edge7_Node000001_Node000007"><a xlink:title=" ">
<path fill="none" stroke="#63b8ff" d="M98.3,-101.89C119.33,-85.84 164,-53.38 206,-33.5 215.14,-29.18 225.25,-25.36 235.03,-22.11"/>
<polygon fill="#63b8ff" stroke="#63b8ff" points="236.17,-25.42 244.64,-19.05 234.05,-18.74 236.17,-25.42"/>
</a>
</g>
</g>
<!-- Node5&#45;&gt;Node6 -->
<g id="edge5_Node000005_Node000006" class="edge">
<title>Node5&#45;&gt;Node6</title>
<g id="a_edge5_Node000005_Node000006"><a xlink:title=" ">
<path fill="none" stroke="#63b8ff" d="M348.85,-82.31C360.57,-80.84 372.87,-79.3 384.82,-77.8"/>
<polygon fill="#63b8ff" stroke="#63b8ff" points="385.28,-81.27 394.76,-76.55 384.41,-74.32 385.28,-81.27"/>
</a>
</g>
</g>
</g>
</svg>
